%TF.GenerationSoftware,KiCad,Pcbnew,8.0.5*%
%TF.CreationDate,2024-11-05T20:50:31-05:00*%
%TF.ProjectId,GPS-SensorBoard,4750532d-5365-46e7-936f-72426f617264,rev?*%
%TF.SameCoordinates,Original*%
%TF.FileFunction,Drillmap*%
%TF.FilePolarity,Positive*%
%FSLAX45Y45*%
G04 Gerber Fmt 4.5, Leading zero omitted, Abs format (unit mm)*
G04 Created by KiCad (PCBNEW 8.0.5) date 2024-11-05 20:50:31*
%MOMM*%
%LPD*%
G01*
G04 APERTURE LIST*
%ADD10C,0.050000*%
%ADD11C,0.200000*%
G04 APERTURE END LIST*
D10*
X10998500Y-8890000D02*
X16078500Y-8890000D01*
X16078500Y-11430000D01*
X10998500Y-11430000D01*
X10998500Y-8890000D01*
D11*
X11256777Y-11743984D02*
X11256777Y-11543984D01*
X11256777Y-11543984D02*
X11304396Y-11543984D01*
X11304396Y-11543984D02*
X11332967Y-11553508D01*
X11332967Y-11553508D02*
X11352015Y-11572555D01*
X11352015Y-11572555D02*
X11361539Y-11591603D01*
X11361539Y-11591603D02*
X11371062Y-11629698D01*
X11371062Y-11629698D02*
X11371062Y-11658269D01*
X11371062Y-11658269D02*
X11361539Y-11696365D01*
X11361539Y-11696365D02*
X11352015Y-11715412D01*
X11352015Y-11715412D02*
X11332967Y-11734460D01*
X11332967Y-11734460D02*
X11304396Y-11743984D01*
X11304396Y-11743984D02*
X11256777Y-11743984D01*
X11456777Y-11743984D02*
X11456777Y-11610650D01*
X11456777Y-11648746D02*
X11466301Y-11629698D01*
X11466301Y-11629698D02*
X11475824Y-11620174D01*
X11475824Y-11620174D02*
X11494872Y-11610650D01*
X11494872Y-11610650D02*
X11513920Y-11610650D01*
X11580586Y-11743984D02*
X11580586Y-11610650D01*
X11580586Y-11543984D02*
X11571062Y-11553508D01*
X11571062Y-11553508D02*
X11580586Y-11563031D01*
X11580586Y-11563031D02*
X11590110Y-11553508D01*
X11590110Y-11553508D02*
X11580586Y-11543984D01*
X11580586Y-11543984D02*
X11580586Y-11563031D01*
X11704396Y-11743984D02*
X11685348Y-11734460D01*
X11685348Y-11734460D02*
X11675824Y-11715412D01*
X11675824Y-11715412D02*
X11675824Y-11543984D01*
X11809158Y-11743984D02*
X11790110Y-11734460D01*
X11790110Y-11734460D02*
X11780586Y-11715412D01*
X11780586Y-11715412D02*
X11780586Y-11543984D01*
X12037729Y-11743984D02*
X12037729Y-11543984D01*
X12037729Y-11543984D02*
X12104396Y-11686841D01*
X12104396Y-11686841D02*
X12171062Y-11543984D01*
X12171062Y-11543984D02*
X12171062Y-11743984D01*
X12352015Y-11743984D02*
X12352015Y-11639222D01*
X12352015Y-11639222D02*
X12342491Y-11620174D01*
X12342491Y-11620174D02*
X12323443Y-11610650D01*
X12323443Y-11610650D02*
X12285348Y-11610650D01*
X12285348Y-11610650D02*
X12266301Y-11620174D01*
X12352015Y-11734460D02*
X12332967Y-11743984D01*
X12332967Y-11743984D02*
X12285348Y-11743984D01*
X12285348Y-11743984D02*
X12266301Y-11734460D01*
X12266301Y-11734460D02*
X12256777Y-11715412D01*
X12256777Y-11715412D02*
X12256777Y-11696365D01*
X12256777Y-11696365D02*
X12266301Y-11677317D01*
X12266301Y-11677317D02*
X12285348Y-11667793D01*
X12285348Y-11667793D02*
X12332967Y-11667793D01*
X12332967Y-11667793D02*
X12352015Y-11658269D01*
X12447253Y-11610650D02*
X12447253Y-11810650D01*
X12447253Y-11620174D02*
X12466301Y-11610650D01*
X12466301Y-11610650D02*
X12504396Y-11610650D01*
X12504396Y-11610650D02*
X12523443Y-11620174D01*
X12523443Y-11620174D02*
X12532967Y-11629698D01*
X12532967Y-11629698D02*
X12542491Y-11648746D01*
X12542491Y-11648746D02*
X12542491Y-11705888D01*
X12542491Y-11705888D02*
X12532967Y-11724936D01*
X12532967Y-11724936D02*
X12523443Y-11734460D01*
X12523443Y-11734460D02*
X12504396Y-11743984D01*
X12504396Y-11743984D02*
X12466301Y-11743984D01*
X12466301Y-11743984D02*
X12447253Y-11734460D01*
X12628205Y-11724936D02*
X12637729Y-11734460D01*
X12637729Y-11734460D02*
X12628205Y-11743984D01*
X12628205Y-11743984D02*
X12618682Y-11734460D01*
X12618682Y-11734460D02*
X12628205Y-11724936D01*
X12628205Y-11724936D02*
X12628205Y-11743984D01*
X12628205Y-11620174D02*
X12637729Y-11629698D01*
X12637729Y-11629698D02*
X12628205Y-11639222D01*
X12628205Y-11639222D02*
X12618682Y-11629698D01*
X12618682Y-11629698D02*
X12628205Y-11620174D01*
X12628205Y-11620174D02*
X12628205Y-11639222D01*
M02*
