%TF.GenerationSoftware,KiCad,Pcbnew,9.0.5*%
%TF.CreationDate,2025-10-16T21:30:04-04:00*%
%TF.ProjectId,SuspensionHallSensor,53757370-656e-4736-996f-6e48616c6c53,rev?*%
%TF.SameCoordinates,Original*%
%TF.FileFunction,Legend,Bot*%
%TF.FilePolarity,Positive*%
%FSLAX46Y46*%
G04 Gerber Fmt 4.6, Leading zero omitted, Abs format (unit mm)*
G04 Created by KiCad (PCBNEW 9.0.5) date 2025-10-16 21:30:04*
%MOMM*%
%LPD*%
G01*
G04 APERTURE LIST*
%ADD10C,0.000000*%
%ADD11C,0.100000*%
G04 APERTURE END LIST*
D10*
G36*
X150597302Y-100643089D02*
G01*
X150597860Y-100643206D01*
X150598433Y-100643400D01*
X150599021Y-100643670D01*
X150600248Y-100644429D01*
X150601548Y-100645469D01*
X150602927Y-100646777D01*
X150604392Y-100648341D01*
X150605950Y-100650145D01*
X150609372Y-100654423D01*
X150613248Y-100659505D01*
X150638550Y-100702108D01*
X150658869Y-100755881D01*
X150674287Y-100819969D01*
X150684886Y-100893515D01*
X150690749Y-100975663D01*
X150691956Y-101065556D01*
X150688589Y-101162337D01*
X150680730Y-101265150D01*
X150668462Y-101373140D01*
X150651865Y-101485448D01*
X150631021Y-101601220D01*
X150606013Y-101719598D01*
X150576921Y-101839726D01*
X150543829Y-101960747D01*
X150506816Y-102081806D01*
X150465966Y-102202045D01*
X150464545Y-102207651D01*
X150464654Y-102209336D01*
X150465283Y-102210306D01*
X150466411Y-102210583D01*
X150468020Y-102210189D01*
X150472600Y-102207475D01*
X150478863Y-102202341D01*
X150486652Y-102194965D01*
X150495809Y-102185522D01*
X150506175Y-102174191D01*
X150529904Y-102146570D01*
X150556573Y-102113515D01*
X150584919Y-102076442D01*
X150613676Y-102036765D01*
X150630358Y-102013467D01*
X150645307Y-101993424D01*
X150658574Y-101976650D01*
X150670209Y-101963162D01*
X150680264Y-101952973D01*
X150684714Y-101949122D01*
X150688788Y-101946101D01*
X150692493Y-101943912D01*
X150695834Y-101942558D01*
X150698817Y-101942041D01*
X150701451Y-101942362D01*
X150703739Y-101943524D01*
X150705690Y-101945528D01*
X150707309Y-101948375D01*
X150708602Y-101952069D01*
X150709577Y-101956611D01*
X150710239Y-101962003D01*
X150710594Y-101968246D01*
X150710650Y-101975344D01*
X150709887Y-101992107D01*
X150708000Y-102012308D01*
X150705040Y-102035961D01*
X150701058Y-102063083D01*
X150695728Y-102093072D01*
X150689037Y-102122758D01*
X150680857Y-102152372D01*
X150671057Y-102182146D01*
X150659508Y-102212310D01*
X150646081Y-102243097D01*
X150630645Y-102274737D01*
X150613072Y-102307461D01*
X150593231Y-102341502D01*
X150570994Y-102377088D01*
X150546230Y-102414453D01*
X150518810Y-102453828D01*
X150488604Y-102495443D01*
X150455483Y-102539529D01*
X150379977Y-102636042D01*
X150341706Y-102685050D01*
X150307056Y-102731796D01*
X150275989Y-102776392D01*
X150248468Y-102818949D01*
X150224453Y-102859578D01*
X150203905Y-102898391D01*
X150186787Y-102935498D01*
X150179502Y-102953446D01*
X150173060Y-102971011D01*
X150167456Y-102988204D01*
X150162685Y-103005041D01*
X150158743Y-103021535D01*
X150155624Y-103037700D01*
X150153324Y-103053550D01*
X150151839Y-103069098D01*
X150151162Y-103084360D01*
X150151290Y-103099348D01*
X150152217Y-103114077D01*
X150153940Y-103128560D01*
X150156452Y-103142812D01*
X150159749Y-103156846D01*
X150163827Y-103170676D01*
X150168680Y-103184316D01*
X150174304Y-103197781D01*
X150180694Y-103211083D01*
X150185300Y-103220390D01*
X150188944Y-103228439D01*
X150191600Y-103235228D01*
X150193244Y-103240757D01*
X150193678Y-103243048D01*
X150193851Y-103245024D01*
X150193758Y-103246684D01*
X150193398Y-103248027D01*
X150192765Y-103249055D01*
X150191858Y-103249766D01*
X150190674Y-103250161D01*
X150189209Y-103250239D01*
X150187461Y-103250000D01*
X150185425Y-103249444D01*
X150183101Y-103248571D01*
X150180483Y-103247381D01*
X150174356Y-103244048D01*
X150167022Y-103239443D01*
X150158455Y-103233566D01*
X150148631Y-103226414D01*
X150137526Y-103217988D01*
X150125114Y-103208284D01*
X150080474Y-103171241D01*
X150041039Y-103134629D01*
X150006761Y-103098156D01*
X149991540Y-103079881D01*
X149977591Y-103061530D01*
X149964907Y-103043067D01*
X149953481Y-103024456D01*
X149943309Y-103005661D01*
X149934383Y-102986644D01*
X149926698Y-102967369D01*
X149920247Y-102947799D01*
X149915026Y-102927899D01*
X149911027Y-102907630D01*
X149908244Y-102886957D01*
X149906672Y-102865844D01*
X149906304Y-102844252D01*
X149907135Y-102822147D01*
X149909158Y-102799491D01*
X149912367Y-102776248D01*
X149916756Y-102752381D01*
X149922320Y-102727853D01*
X149936945Y-102676671D01*
X149956194Y-102622407D01*
X149980018Y-102564770D01*
X150008369Y-102503467D01*
X150029701Y-102459083D01*
X150048396Y-102419328D01*
X150064537Y-102383682D01*
X150078207Y-102351625D01*
X150089489Y-102322637D01*
X150098467Y-102296198D01*
X150102117Y-102283773D01*
X150105223Y-102271790D01*
X150107794Y-102260184D01*
X150109840Y-102248891D01*
X150111373Y-102237846D01*
X150112402Y-102226983D01*
X150112938Y-102216238D01*
X150112992Y-102205545D01*
X150112573Y-102194840D01*
X150111692Y-102184058D01*
X150110359Y-102173133D01*
X150108585Y-102162002D01*
X150103755Y-102138856D01*
X150097285Y-102114102D01*
X150089258Y-102087220D01*
X150079757Y-102057689D01*
X150068355Y-102021912D01*
X150058959Y-101989211D01*
X150051747Y-101958955D01*
X150046900Y-101930515D01*
X150044598Y-101903262D01*
X150045021Y-101876566D01*
X150046311Y-101863230D01*
X150048350Y-101849798D01*
X150051159Y-101836189D01*
X150054763Y-101822326D01*
X150064441Y-101793523D01*
X150077565Y-101762757D01*
X150094314Y-101729400D01*
X150114868Y-101692822D01*
X150139408Y-101652393D01*
X150168113Y-101607483D01*
X150238740Y-101501703D01*
X150275843Y-101446100D01*
X150310408Y-101392418D01*
X150342519Y-101340465D01*
X150372261Y-101290050D01*
X150399718Y-101240979D01*
X150424974Y-101193061D01*
X150448114Y-101146102D01*
X150469223Y-101099910D01*
X150488384Y-101054293D01*
X150505683Y-101009059D01*
X150521204Y-100964014D01*
X150535030Y-100918967D01*
X150547247Y-100873724D01*
X150557939Y-100828095D01*
X150567190Y-100781885D01*
X150575085Y-100734903D01*
X150575101Y-100734850D01*
X150580400Y-100700628D01*
X150582637Y-100686874D01*
X150584673Y-100675215D01*
X150585632Y-100670137D01*
X150586561Y-100665542D01*
X150587467Y-100661417D01*
X150588357Y-100657749D01*
X150589237Y-100654523D01*
X150590115Y-100651727D01*
X150590997Y-100649347D01*
X150591889Y-100647370D01*
X150592800Y-100645781D01*
X150593264Y-100645129D01*
X150593735Y-100644569D01*
X150594214Y-100644099D01*
X150594702Y-100643718D01*
X150595200Y-100643425D01*
X150595707Y-100643217D01*
X150596227Y-100643092D01*
X150596758Y-100643050D01*
X150597302Y-100643089D01*
G37*
G36*
X150997093Y-99012135D02*
G01*
X151009426Y-99012690D01*
X151040014Y-99014650D01*
X151076199Y-99018146D01*
X151109968Y-99023780D01*
X151125958Y-99027412D01*
X151141359Y-99031593D01*
X151156175Y-99036331D01*
X151170411Y-99041629D01*
X151184073Y-99047492D01*
X151197164Y-99053927D01*
X151209690Y-99060939D01*
X151221656Y-99068532D01*
X151233067Y-99076712D01*
X151243927Y-99085485D01*
X151254241Y-99094855D01*
X151264015Y-99104827D01*
X151273253Y-99115408D01*
X151281959Y-99126601D01*
X151290140Y-99138414D01*
X151297799Y-99150850D01*
X151304942Y-99163915D01*
X151311574Y-99177614D01*
X151317699Y-99191953D01*
X151323322Y-99206936D01*
X151328448Y-99222570D01*
X151333083Y-99238859D01*
X151340895Y-99273423D01*
X151346798Y-99310672D01*
X151350830Y-99350647D01*
X151358809Y-99456850D01*
X151490668Y-99240877D01*
X151512222Y-99205675D01*
X151532025Y-99173679D01*
X151550097Y-99144860D01*
X151566458Y-99119192D01*
X151581127Y-99096644D01*
X151594126Y-99077191D01*
X151605473Y-99060802D01*
X151615188Y-99047452D01*
X151619441Y-99041907D01*
X151623293Y-99037111D01*
X151626747Y-99033060D01*
X151629805Y-99029752D01*
X151632471Y-99027181D01*
X151634746Y-99025346D01*
X151636634Y-99024242D01*
X151637433Y-99023963D01*
X151638136Y-99023866D01*
X151638743Y-99023949D01*
X151639255Y-99024214D01*
X151639672Y-99024658D01*
X151639994Y-99025283D01*
X151640221Y-99026087D01*
X151640355Y-99027069D01*
X151640340Y-99029570D01*
X151639953Y-99032781D01*
X151639195Y-99036698D01*
X151638069Y-99041319D01*
X151636577Y-99046640D01*
X151621211Y-99102107D01*
X151607155Y-99159923D01*
X151594431Y-99219800D01*
X151583059Y-99281450D01*
X151573063Y-99344584D01*
X151564463Y-99408914D01*
X151557282Y-99474150D01*
X151551541Y-99540004D01*
X151547262Y-99606188D01*
X151544466Y-99672412D01*
X151543175Y-99738390D01*
X151543412Y-99803831D01*
X151545197Y-99868447D01*
X151548553Y-99931949D01*
X151553501Y-99994050D01*
X151560063Y-100054460D01*
X151573135Y-100147825D01*
X151589441Y-100245489D01*
X151608068Y-100343385D01*
X151628100Y-100437442D01*
X151648622Y-100523593D01*
X151668718Y-100597767D01*
X151678321Y-100629091D01*
X151687474Y-100655895D01*
X151696064Y-100677671D01*
X151703976Y-100693909D01*
X151705618Y-100696022D01*
X151707557Y-100697104D01*
X151709782Y-100697176D01*
X151712284Y-100696259D01*
X151718079Y-100691546D01*
X151724867Y-100683135D01*
X151732570Y-100671197D01*
X151741111Y-100655902D01*
X151760403Y-100615924D01*
X151782128Y-100564567D01*
X151805674Y-100503194D01*
X151830426Y-100433170D01*
X151855771Y-100355861D01*
X151909390Y-100186319D01*
X151962801Y-100299347D01*
X151984327Y-100351358D01*
X152003397Y-100410474D01*
X152019982Y-100475710D01*
X152034053Y-100546083D01*
X152045582Y-100620608D01*
X152054539Y-100698301D01*
X152060894Y-100778179D01*
X152064620Y-100859258D01*
X152065687Y-100940554D01*
X152064065Y-101021083D01*
X152059727Y-101099860D01*
X152052642Y-101175903D01*
X152042782Y-101248226D01*
X152030118Y-101315847D01*
X152014620Y-101377781D01*
X151996260Y-101433045D01*
X151995985Y-101433953D01*
X151995927Y-101434674D01*
X151996081Y-101435211D01*
X151996442Y-101435566D01*
X151997005Y-101435743D01*
X151997767Y-101435745D01*
X151999863Y-101435237D01*
X152002693Y-101434065D01*
X152006217Y-101432255D01*
X152010398Y-101429832D01*
X152015196Y-101426820D01*
X152026494Y-101419131D01*
X152039804Y-101409387D01*
X152054818Y-101397788D01*
X152071231Y-101384531D01*
X152087134Y-101371955D01*
X152105849Y-101358067D01*
X152149669Y-101327595D01*
X152198594Y-101295598D01*
X152248524Y-101264560D01*
X152295362Y-101236965D01*
X152316340Y-101225235D01*
X152335009Y-101215296D01*
X152350855Y-101207460D01*
X152363367Y-101202037D01*
X152372032Y-101199338D01*
X152374762Y-101199106D01*
X152376338Y-101199672D01*
X152376482Y-101200718D01*
X152375987Y-101202870D01*
X152373202Y-101210257D01*
X152368219Y-101221354D01*
X152361273Y-101235685D01*
X152352601Y-101252772D01*
X152342439Y-101272138D01*
X152331024Y-101293306D01*
X152318590Y-101315798D01*
X152293059Y-101362727D01*
X152272272Y-101404885D01*
X152263296Y-101425402D01*
X152255071Y-101446198D01*
X152247452Y-101467765D01*
X152240295Y-101490593D01*
X152233454Y-101515174D01*
X152226785Y-101541998D01*
X152213380Y-101604338D01*
X152198922Y-101681541D01*
X152182251Y-101777533D01*
X152169073Y-101849700D01*
X152154657Y-101918311D01*
X152138842Y-101983694D01*
X152121464Y-102046179D01*
X152102362Y-102106094D01*
X152081372Y-102163769D01*
X152058334Y-102219532D01*
X152033083Y-102273712D01*
X152005459Y-102326638D01*
X151975298Y-102378638D01*
X151942439Y-102430042D01*
X151906719Y-102481179D01*
X151867975Y-102532377D01*
X151826046Y-102583966D01*
X151780769Y-102636273D01*
X151731982Y-102689629D01*
X151703489Y-102720476D01*
X151692654Y-102733057D01*
X151684270Y-102743972D01*
X151681038Y-102748857D01*
X151678468Y-102753389D01*
X151676576Y-102757589D01*
X151675378Y-102761479D01*
X151674892Y-102765079D01*
X151675134Y-102768412D01*
X151676120Y-102771498D01*
X151677867Y-102774359D01*
X151680390Y-102777015D01*
X151683708Y-102779489D01*
X151687835Y-102781801D01*
X151692789Y-102783973D01*
X151698585Y-102786025D01*
X151705241Y-102787980D01*
X151721197Y-102791682D01*
X151740788Y-102795248D01*
X151764145Y-102798848D01*
X151822686Y-102806833D01*
X151863018Y-102812019D01*
X151878935Y-102814139D01*
X151892200Y-102816146D01*
X151902948Y-102818192D01*
X151907420Y-102819277D01*
X151911313Y-102820429D01*
X151914644Y-102821667D01*
X151917431Y-102823009D01*
X151919689Y-102824475D01*
X151921436Y-102826083D01*
X151922689Y-102827854D01*
X151923465Y-102829805D01*
X151923779Y-102831955D01*
X151923650Y-102834324D01*
X151923095Y-102836931D01*
X151922129Y-102839795D01*
X151920770Y-102842933D01*
X151919035Y-102846367D01*
X151914503Y-102854194D01*
X151908670Y-102863426D01*
X151893635Y-102886718D01*
X151881894Y-102906834D01*
X151869827Y-102930613D01*
X151844888Y-102988575D01*
X151819168Y-103059436D01*
X151793014Y-103142031D01*
X151766774Y-103235192D01*
X151740799Y-103337754D01*
X151715434Y-103448550D01*
X151691030Y-103566413D01*
X151682052Y-103612694D01*
X151678622Y-103631602D01*
X151675945Y-103648053D01*
X151674901Y-103655443D01*
X151674060Y-103662321D01*
X151673425Y-103668723D01*
X151673002Y-103674682D01*
X151672794Y-103680233D01*
X151672807Y-103685410D01*
X151673045Y-103690247D01*
X151673513Y-103694779D01*
X151674215Y-103699040D01*
X151675155Y-103703063D01*
X151676339Y-103706885D01*
X151677771Y-103710538D01*
X151679456Y-103714057D01*
X151681397Y-103717476D01*
X151683600Y-103720831D01*
X151686069Y-103724154D01*
X151688808Y-103727480D01*
X151691823Y-103730844D01*
X151695118Y-103734280D01*
X151698697Y-103737822D01*
X151706727Y-103745362D01*
X151715949Y-103753739D01*
X151735405Y-103771664D01*
X151752598Y-103788367D01*
X151767605Y-103804128D01*
X151780506Y-103819227D01*
X151791378Y-103833943D01*
X151796079Y-103841245D01*
X151800302Y-103848555D01*
X151804056Y-103855911D01*
X151807353Y-103863345D01*
X151810202Y-103870893D01*
X151812613Y-103878590D01*
X151814595Y-103886471D01*
X151816158Y-103894572D01*
X151817312Y-103902926D01*
X151818068Y-103911569D01*
X151818420Y-103929861D01*
X151817294Y-103949728D01*
X151814767Y-103971450D01*
X151810919Y-103995307D01*
X151805828Y-104021577D01*
X151799572Y-104050541D01*
X151777375Y-104154403D01*
X151759743Y-104249403D01*
X151747102Y-104336867D01*
X151739881Y-104418123D01*
X151738506Y-104494497D01*
X151740144Y-104531267D01*
X151743404Y-104567315D01*
X151748340Y-104602806D01*
X151755003Y-104637905D01*
X151763449Y-104672779D01*
X151773730Y-104707593D01*
X151785900Y-104742514D01*
X151800012Y-104777707D01*
X151816119Y-104813337D01*
X151834275Y-104849572D01*
X151876948Y-104924516D01*
X151928457Y-105003866D01*
X151989230Y-105088947D01*
X152059693Y-105181088D01*
X152140274Y-105281615D01*
X152231400Y-105391854D01*
X152290586Y-105463003D01*
X152343111Y-105526921D01*
X152389253Y-105584114D01*
X152429289Y-105635089D01*
X152447103Y-105658403D01*
X152463494Y-105680353D01*
X152478496Y-105701001D01*
X152492145Y-105720411D01*
X152504475Y-105738647D01*
X152515520Y-105755772D01*
X152525315Y-105771848D01*
X152533895Y-105786940D01*
X152541294Y-105801111D01*
X152547546Y-105814424D01*
X152552687Y-105826942D01*
X152556751Y-105838729D01*
X152559772Y-105849848D01*
X152561785Y-105860362D01*
X152562825Y-105870335D01*
X152562926Y-105879830D01*
X152562123Y-105888910D01*
X152560450Y-105897639D01*
X152557942Y-105906079D01*
X152554634Y-105914295D01*
X152550560Y-105922350D01*
X152545754Y-105930307D01*
X152540252Y-105938228D01*
X152534088Y-105946179D01*
X152529064Y-105951485D01*
X152523086Y-105956235D01*
X152516183Y-105960435D01*
X152508384Y-105964088D01*
X152490214Y-105969778D01*
X152468807Y-105973342D01*
X152444395Y-105974820D01*
X152417209Y-105974250D01*
X152387482Y-105971670D01*
X152355445Y-105967120D01*
X152321330Y-105960638D01*
X152285368Y-105952262D01*
X152247792Y-105942031D01*
X152208833Y-105929985D01*
X152168723Y-105916161D01*
X152127693Y-105900597D01*
X152085975Y-105883334D01*
X152043802Y-105864409D01*
X152015850Y-105851422D01*
X152004758Y-105846497D01*
X151995508Y-105842745D01*
X151988039Y-105840263D01*
X151984952Y-105839528D01*
X151982288Y-105839147D01*
X151980039Y-105839131D01*
X151978196Y-105839493D01*
X151976753Y-105840245D01*
X151975702Y-105841397D01*
X151975035Y-105842964D01*
X151974744Y-105844956D01*
X151974822Y-105847386D01*
X151975261Y-105850265D01*
X151976054Y-105853606D01*
X151977193Y-105857421D01*
X151980478Y-105866519D01*
X151985056Y-105877656D01*
X151990864Y-105890928D01*
X152005932Y-105924261D01*
X152034635Y-105993688D01*
X152059133Y-106065646D01*
X152079446Y-106139506D01*
X152095594Y-106214639D01*
X152107597Y-106290418D01*
X152115476Y-106366214D01*
X152119250Y-106441398D01*
X152118940Y-106515341D01*
X152114565Y-106587417D01*
X152106147Y-106656994D01*
X152093705Y-106723447D01*
X152077259Y-106786145D01*
X152056830Y-106844461D01*
X152045128Y-106871779D01*
X152032437Y-106897765D01*
X152018761Y-106922342D01*
X152004101Y-106945430D01*
X151988461Y-106966952D01*
X151971843Y-106986828D01*
X151947789Y-107012523D01*
X151925290Y-107033603D01*
X151903719Y-107049618D01*
X151893085Y-107055584D01*
X151882447Y-107060114D01*
X151871727Y-107063152D01*
X151860847Y-107064641D01*
X151849727Y-107064524D01*
X151838290Y-107062746D01*
X151826456Y-107059249D01*
X151814148Y-107053978D01*
X151801287Y-107046875D01*
X151787794Y-107037884D01*
X151758599Y-107014014D01*
X151725936Y-106981914D01*
X151689176Y-106941134D01*
X151647692Y-106891222D01*
X151600855Y-106831726D01*
X151548038Y-106762193D01*
X151421950Y-106591214D01*
X151344053Y-106485527D01*
X151269967Y-106387192D01*
X151199538Y-106296048D01*
X151132607Y-106211933D01*
X151069017Y-106134688D01*
X151008612Y-106064151D01*
X150951234Y-106000160D01*
X150896727Y-105942555D01*
X150844934Y-105891176D01*
X150795697Y-105845860D01*
X150748860Y-105806447D01*
X150704265Y-105772776D01*
X150661756Y-105744686D01*
X150641234Y-105732684D01*
X150621175Y-105722017D01*
X150601559Y-105712664D01*
X150582366Y-105704606D01*
X150563577Y-105697822D01*
X150545172Y-105692293D01*
X150499842Y-105679836D01*
X150458315Y-105667843D01*
X150420199Y-105656103D01*
X150385104Y-105644408D01*
X150352637Y-105632549D01*
X150322407Y-105620316D01*
X150294022Y-105607500D01*
X150267091Y-105593891D01*
X150241222Y-105579281D01*
X150216024Y-105563460D01*
X150191105Y-105546220D01*
X150166073Y-105527349D01*
X150140537Y-105506641D01*
X150114106Y-105483884D01*
X150086387Y-105458870D01*
X150056990Y-105431390D01*
X150024739Y-105399894D01*
X149992862Y-105366905D01*
X149961384Y-105332464D01*
X149930334Y-105296609D01*
X149899736Y-105259379D01*
X149869620Y-105220813D01*
X149840010Y-105180949D01*
X149810936Y-105139828D01*
X149782422Y-105097487D01*
X149754496Y-105053966D01*
X149727185Y-105009304D01*
X149700517Y-104963539D01*
X149674517Y-104916710D01*
X149649212Y-104868857D01*
X149624630Y-104820018D01*
X149600798Y-104770232D01*
X149569530Y-104708434D01*
X149532303Y-104644109D01*
X149489355Y-104577510D01*
X149440926Y-104508891D01*
X149387253Y-104438505D01*
X149328576Y-104366606D01*
X149265132Y-104293448D01*
X149197160Y-104219284D01*
X149124900Y-104144367D01*
X149048588Y-104068952D01*
X148968464Y-103993291D01*
X148884767Y-103917638D01*
X148797734Y-103842248D01*
X148707605Y-103767372D01*
X148614618Y-103693266D01*
X148519011Y-103620182D01*
X148459319Y-103575155D01*
X148405742Y-103533979D01*
X148358118Y-103496468D01*
X148336489Y-103479027D01*
X148316288Y-103462432D01*
X148297494Y-103446658D01*
X148280089Y-103431683D01*
X148264051Y-103417483D01*
X148249360Y-103404034D01*
X148235997Y-103391313D01*
X148223941Y-103379296D01*
X148213172Y-103367960D01*
X148203670Y-103357281D01*
X148195415Y-103347236D01*
X148188387Y-103337801D01*
X148182565Y-103328953D01*
X148177929Y-103320668D01*
X148174460Y-103312923D01*
X148173156Y-103309245D01*
X148172137Y-103305694D01*
X148171399Y-103302265D01*
X148170940Y-103298957D01*
X148170757Y-103295766D01*
X148170848Y-103292690D01*
X148171211Y-103289724D01*
X148171843Y-103286868D01*
X148172741Y-103284117D01*
X148173903Y-103281468D01*
X148175326Y-103278919D01*
X148177008Y-103276467D01*
X148178946Y-103274108D01*
X148181138Y-103271841D01*
X148186274Y-103267566D01*
X148192395Y-103263620D01*
X148199481Y-103259978D01*
X148207511Y-103256617D01*
X148225934Y-103250391D01*
X148244301Y-103245788D01*
X148262702Y-103242838D01*
X148281227Y-103241570D01*
X148299964Y-103242014D01*
X148319004Y-103244200D01*
X148338437Y-103248158D01*
X148358351Y-103253916D01*
X148378837Y-103261504D01*
X148399984Y-103270954D01*
X148421882Y-103282292D01*
X148444620Y-103295551D01*
X148468289Y-103310759D01*
X148492977Y-103327945D01*
X148518775Y-103347140D01*
X148545772Y-103368374D01*
X148570935Y-103387911D01*
X148598147Y-103407648D01*
X148627292Y-103427523D01*
X148658257Y-103447478D01*
X148725180Y-103487386D01*
X148797996Y-103526894D01*
X148875782Y-103565523D01*
X148957616Y-103602795D01*
X149042577Y-103638232D01*
X149129743Y-103671355D01*
X149198004Y-103697130D01*
X149261747Y-103723555D01*
X149321259Y-103750886D01*
X149376827Y-103779379D01*
X149428738Y-103809288D01*
X149477277Y-103840870D01*
X149522732Y-103874380D01*
X149565389Y-103910074D01*
X149605535Y-103948207D01*
X149643457Y-103989035D01*
X149679440Y-104032812D01*
X149713772Y-104079796D01*
X149746739Y-104130240D01*
X149778628Y-104184402D01*
X149809725Y-104242536D01*
X149840317Y-104304897D01*
X149858942Y-104345856D01*
X149877308Y-104389770D01*
X149896568Y-104439975D01*
X149917873Y-104499805D01*
X149971232Y-104661683D01*
X150046602Y-104902086D01*
X150058904Y-104940768D01*
X150071273Y-104977655D01*
X150083726Y-105012775D01*
X150096275Y-105046155D01*
X150108936Y-105077823D01*
X150121722Y-105107808D01*
X150134648Y-105136137D01*
X150147728Y-105162839D01*
X150160975Y-105187940D01*
X150174405Y-105211470D01*
X150188032Y-105233456D01*
X150201870Y-105253927D01*
X150215932Y-105272909D01*
X150230234Y-105290431D01*
X150244789Y-105306522D01*
X150259611Y-105321209D01*
X150272790Y-105332215D01*
X150290991Y-105345481D01*
X150313428Y-105360573D01*
X150339314Y-105377059D01*
X150398281Y-105412483D01*
X150461592Y-105448290D01*
X150522949Y-105481017D01*
X150576052Y-105507202D01*
X150597539Y-105516760D01*
X150614601Y-105523384D01*
X150626450Y-105526642D01*
X150630173Y-105526873D01*
X150632298Y-105526100D01*
X150632794Y-105525040D01*
X150632758Y-105523411D01*
X150631156Y-105518526D01*
X150627624Y-105511615D01*
X150622295Y-105502846D01*
X150606774Y-105480412D01*
X150585652Y-105452575D01*
X150559989Y-105420688D01*
X150530843Y-105386102D01*
X150499274Y-105350168D01*
X150466340Y-105314239D01*
X150444901Y-105290843D01*
X150425136Y-105268113D01*
X150406963Y-105245884D01*
X150390302Y-105223991D01*
X150375075Y-105202267D01*
X150361201Y-105180547D01*
X150348599Y-105158667D01*
X150337191Y-105136460D01*
X150326896Y-105113761D01*
X150317635Y-105090406D01*
X150309327Y-105066227D01*
X150301892Y-105041060D01*
X150295251Y-105014740D01*
X150289324Y-104987100D01*
X150284031Y-104957976D01*
X150279291Y-104927202D01*
X150277725Y-104914913D01*
X150276788Y-104904648D01*
X150276454Y-104896383D01*
X150276699Y-104890097D01*
X150277031Y-104887688D01*
X150277498Y-104885764D01*
X150278096Y-104884324D01*
X150278824Y-104883363D01*
X150279677Y-104882879D01*
X150280653Y-104882869D01*
X150281748Y-104883331D01*
X150282959Y-104884261D01*
X150284283Y-104885656D01*
X150285717Y-104887514D01*
X150288902Y-104892605D01*
X150292488Y-104899511D01*
X150296451Y-104908208D01*
X150300764Y-104918675D01*
X150305402Y-104930886D01*
X150310341Y-104944820D01*
X150315554Y-104960453D01*
X150325936Y-104990258D01*
X150337173Y-105017810D01*
X150349570Y-105043342D01*
X150363428Y-105067086D01*
X150379050Y-105089275D01*
X150396739Y-105110141D01*
X150416798Y-105129917D01*
X150439529Y-105148836D01*
X150465235Y-105167130D01*
X150494219Y-105185032D01*
X150526784Y-105202774D01*
X150563232Y-105220589D01*
X150603867Y-105238709D01*
X150648990Y-105257368D01*
X150698905Y-105276797D01*
X150753914Y-105297229D01*
X150765491Y-105301673D01*
X150776647Y-105306407D01*
X150787378Y-105311426D01*
X150797680Y-105316723D01*
X150807550Y-105322293D01*
X150816985Y-105328129D01*
X150825980Y-105334225D01*
X150834534Y-105340576D01*
X150842641Y-105347175D01*
X150850300Y-105354016D01*
X150857506Y-105361093D01*
X150864256Y-105368401D01*
X150870547Y-105375932D01*
X150876375Y-105383682D01*
X150881737Y-105391644D01*
X150886630Y-105399811D01*
X150891049Y-105408179D01*
X150894992Y-105416741D01*
X150898456Y-105425490D01*
X150901436Y-105434421D01*
X150903930Y-105443529D01*
X150905933Y-105452805D01*
X150907443Y-105462246D01*
X150908457Y-105471844D01*
X150908970Y-105481594D01*
X150908980Y-105491490D01*
X150908482Y-105501525D01*
X150907474Y-105511694D01*
X150905952Y-105521990D01*
X150903913Y-105532407D01*
X150901353Y-105542940D01*
X150898269Y-105553582D01*
X150892586Y-105572398D01*
X150890438Y-105580460D01*
X150888782Y-105587862D01*
X150887640Y-105594781D01*
X150887035Y-105601395D01*
X150886988Y-105607882D01*
X150887524Y-105614419D01*
X150888663Y-105621184D01*
X150890428Y-105628354D01*
X150892841Y-105636107D01*
X150895926Y-105644620D01*
X150899703Y-105654072D01*
X150904196Y-105664639D01*
X150915418Y-105689831D01*
X150922502Y-105705765D01*
X150929111Y-105721077D01*
X150935103Y-105735392D01*
X150940330Y-105748333D01*
X150944648Y-105759521D01*
X150947912Y-105768579D01*
X150949104Y-105772192D01*
X150949977Y-105775131D01*
X150950515Y-105777350D01*
X150950698Y-105778800D01*
X150951195Y-105780413D01*
X150952652Y-105782992D01*
X150958252Y-105790824D01*
X150967106Y-105801844D01*
X150978819Y-105815602D01*
X150993001Y-105831644D01*
X151009257Y-105849520D01*
X151027195Y-105868778D01*
X151046422Y-105888965D01*
X151100257Y-105945981D01*
X151153378Y-106004721D01*
X151207748Y-106067596D01*
X151265329Y-106137017D01*
X151328084Y-106215396D01*
X151397977Y-106305143D01*
X151567027Y-106528387D01*
X151669033Y-106664526D01*
X151710163Y-106718640D01*
X151745477Y-106763906D01*
X151775549Y-106800669D01*
X151788799Y-106815969D01*
X151800953Y-106829271D01*
X151812084Y-106840619D01*
X151822264Y-106850055D01*
X151831564Y-106857623D01*
X151840055Y-106863364D01*
X151847811Y-106867323D01*
X151854902Y-106869541D01*
X151858221Y-106870011D01*
X151861400Y-106870062D01*
X151864449Y-106869699D01*
X151867377Y-106868928D01*
X151870193Y-106867754D01*
X151872906Y-106866183D01*
X151878056Y-106861869D01*
X151882902Y-106856030D01*
X151887513Y-106848707D01*
X151891962Y-106839944D01*
X151896321Y-106829784D01*
X151905056Y-106805444D01*
X151924600Y-106741882D01*
X151941895Y-106676876D01*
X151954481Y-106611250D01*
X151962334Y-106544907D01*
X151965426Y-106477748D01*
X151963734Y-106409673D01*
X151957231Y-106340585D01*
X151945892Y-106270384D01*
X151929691Y-106198971D01*
X151908603Y-106126248D01*
X151882602Y-106052117D01*
X151851663Y-105976477D01*
X151815759Y-105899232D01*
X151774867Y-105820281D01*
X151728959Y-105739526D01*
X151678012Y-105656869D01*
X151621998Y-105572210D01*
X151595347Y-105532899D01*
X151570719Y-105495988D01*
X151548640Y-105462297D01*
X151529635Y-105432650D01*
X151514230Y-105407869D01*
X151502951Y-105388776D01*
X151499022Y-105381619D01*
X151496322Y-105376192D01*
X151494917Y-105372598D01*
X151494719Y-105371521D01*
X151494871Y-105370940D01*
X151496500Y-105370960D01*
X151500045Y-105372251D01*
X151512472Y-105378407D01*
X151531336Y-105388919D01*
X151555823Y-105403301D01*
X151618402Y-105441720D01*
X151693684Y-105489763D01*
X151771931Y-105539918D01*
X151845963Y-105586104D01*
X151915570Y-105628198D01*
X151980538Y-105666079D01*
X152040656Y-105699626D01*
X152095711Y-105728719D01*
X152145492Y-105753235D01*
X152189786Y-105773053D01*
X152206230Y-105779784D01*
X152223529Y-105786537D01*
X152259684Y-105799807D01*
X152296241Y-105812257D01*
X152331188Y-105823280D01*
X152362513Y-105832267D01*
X152376188Y-105835809D01*
X152388203Y-105838614D01*
X152398307Y-105840606D01*
X152406248Y-105841711D01*
X152411775Y-105841852D01*
X152413554Y-105841538D01*
X152414635Y-105840954D01*
X152414882Y-105837484D01*
X152412258Y-105830558D01*
X152398704Y-105806760D01*
X152374578Y-105770398D01*
X152340489Y-105722311D01*
X152297045Y-105663338D01*
X152244853Y-105594318D01*
X152184519Y-105516088D01*
X152116653Y-105429489D01*
X152044771Y-105337837D01*
X151980754Y-105254748D01*
X151924169Y-105179303D01*
X151874583Y-105110582D01*
X151831564Y-105047664D01*
X151794680Y-104989631D01*
X151763497Y-104935561D01*
X151737584Y-104884534D01*
X151726468Y-104859875D01*
X151716507Y-104835632D01*
X151707648Y-104811690D01*
X151699835Y-104787934D01*
X151693016Y-104764249D01*
X151687135Y-104740520D01*
X151677974Y-104692470D01*
X151671919Y-104642864D01*
X151668539Y-104590783D01*
X151667400Y-104535305D01*
X151668071Y-104475512D01*
X151668408Y-104413216D01*
X151667353Y-104385249D01*
X151665202Y-104358581D01*
X151661746Y-104332599D01*
X151656777Y-104306688D01*
X151650086Y-104280233D01*
X151641463Y-104252618D01*
X151630700Y-104223230D01*
X151617586Y-104191452D01*
X151601914Y-104156672D01*
X151583474Y-104118272D01*
X151537453Y-104028159D01*
X151477850Y-103916194D01*
X151399267Y-103768277D01*
X151366249Y-103704273D01*
X151337010Y-103645792D01*
X151311244Y-103592003D01*
X151288650Y-103542071D01*
X151268924Y-103495164D01*
X151251763Y-103450447D01*
X151236862Y-103407087D01*
X151223920Y-103364252D01*
X151212632Y-103321106D01*
X151202694Y-103276818D01*
X151193805Y-103230553D01*
X151185659Y-103181479D01*
X151170388Y-103071566D01*
X151165138Y-103027928D01*
X151161133Y-102988216D01*
X151158513Y-102951941D01*
X151157416Y-102918616D01*
X151157984Y-102887755D01*
X151160357Y-102858869D01*
X151162264Y-102845015D01*
X151164674Y-102831472D01*
X151167606Y-102818179D01*
X151171076Y-102805076D01*
X151175103Y-102792102D01*
X151179703Y-102779195D01*
X151184894Y-102766295D01*
X151190694Y-102753340D01*
X151204190Y-102727026D01*
X151220331Y-102699763D01*
X151239257Y-102671067D01*
X151261108Y-102640448D01*
X151286024Y-102607420D01*
X151314145Y-102571496D01*
X151341733Y-102534414D01*
X151366928Y-102495528D01*
X151389817Y-102454394D01*
X151410483Y-102410569D01*
X151429011Y-102363611D01*
X151445485Y-102313077D01*
X151459989Y-102258522D01*
X151472608Y-102199504D01*
X151483427Y-102135581D01*
X151492529Y-102066308D01*
X151500000Y-101991243D01*
X151505923Y-101909943D01*
X151513463Y-101726864D01*
X151515827Y-101513527D01*
X151514417Y-101455717D01*
X151510257Y-101391258D01*
X151494114Y-101244481D01*
X151468250Y-101077359D01*
X151433517Y-100894054D01*
X151390768Y-100698729D01*
X151340852Y-100495547D01*
X151284624Y-100288671D01*
X151222934Y-100082263D01*
X151191384Y-99980068D01*
X151178361Y-99940038D01*
X151166287Y-99907550D01*
X151160397Y-99894175D01*
X151154494Y-99882731D01*
X151148495Y-99873236D01*
X151142317Y-99865704D01*
X151135877Y-99860152D01*
X151129092Y-99856594D01*
X151121877Y-99855046D01*
X151114151Y-99855524D01*
X151105830Y-99858043D01*
X151096830Y-99862619D01*
X151087068Y-99869268D01*
X151076462Y-99878004D01*
X151064928Y-99888844D01*
X151052383Y-99901802D01*
X151023927Y-99934138D01*
X150990427Y-99975137D01*
X150951219Y-100024922D01*
X150853013Y-100151349D01*
X150828457Y-100182149D01*
X150805197Y-100209611D01*
X150782887Y-100233872D01*
X150761181Y-100255068D01*
X150739732Y-100273334D01*
X150718194Y-100288807D01*
X150707284Y-100295538D01*
X150696221Y-100301623D01*
X150684963Y-100307077D01*
X150673466Y-100311917D01*
X150661687Y-100316162D01*
X150649583Y-100319828D01*
X150637109Y-100322931D01*
X150624224Y-100325489D01*
X150597045Y-100329038D01*
X150567699Y-100330610D01*
X150535838Y-100330341D01*
X150501117Y-100328369D01*
X150463189Y-100324828D01*
X150421709Y-100319855D01*
X150375228Y-100314870D01*
X150333066Y-100312982D01*
X150294775Y-100314775D01*
X150259906Y-100320829D01*
X150243614Y-100325636D01*
X150228010Y-100331726D01*
X150213036Y-100339172D01*
X150198637Y-100348047D01*
X150184757Y-100358424D01*
X150171340Y-100370374D01*
X150158330Y-100383972D01*
X150145669Y-100399289D01*
X150121176Y-100435373D01*
X150097412Y-100479208D01*
X150073927Y-100531375D01*
X150050274Y-100592455D01*
X150026002Y-100663031D01*
X150000664Y-100743684D01*
X149944993Y-100937546D01*
X149923893Y-101012330D01*
X149904014Y-101078761D01*
X149884884Y-101137318D01*
X149866034Y-101188481D01*
X149856567Y-101211439D01*
X149846993Y-101232729D01*
X149837253Y-101252411D01*
X149827289Y-101270544D01*
X149817042Y-101287189D01*
X149806454Y-101302405D01*
X149795464Y-101316252D01*
X149784015Y-101328791D01*
X149772048Y-101340082D01*
X149759503Y-101350183D01*
X149746322Y-101359157D01*
X149732447Y-101367061D01*
X149717817Y-101373957D01*
X149702376Y-101379905D01*
X149686063Y-101384963D01*
X149668820Y-101389193D01*
X149650588Y-101392655D01*
X149631308Y-101395408D01*
X149610922Y-101397512D01*
X149589370Y-101399028D01*
X149542536Y-101400533D01*
X149490333Y-101400403D01*
X149435455Y-101400655D01*
X149386371Y-101403581D01*
X149342707Y-101409848D01*
X149304087Y-101420125D01*
X149286552Y-101426975D01*
X149270137Y-101435077D01*
X149254795Y-101444515D01*
X149240480Y-101455373D01*
X149227145Y-101467733D01*
X149214742Y-101481679D01*
X149203225Y-101497294D01*
X149192547Y-101514662D01*
X149182661Y-101533866D01*
X149173519Y-101554990D01*
X149157284Y-101603330D01*
X149143466Y-101660349D01*
X149131689Y-101726715D01*
X149121579Y-101803094D01*
X149112759Y-101890153D01*
X149104855Y-101988560D01*
X149097491Y-102098983D01*
X149089393Y-102220916D01*
X149081157Y-102322276D01*
X149076773Y-102366488D01*
X149072098Y-102407053D01*
X149067045Y-102444470D01*
X149061530Y-102479237D01*
X149055466Y-102511853D01*
X149048769Y-102542817D01*
X149041352Y-102572628D01*
X149033130Y-102601784D01*
X149024017Y-102630783D01*
X149013927Y-102660126D01*
X149002776Y-102690309D01*
X148990477Y-102721833D01*
X148980866Y-102745319D01*
X148970882Y-102768535D01*
X148949935Y-102813982D01*
X148927915Y-102857824D01*
X148905099Y-102899714D01*
X148881765Y-102939303D01*
X148858190Y-102976242D01*
X148834654Y-103010184D01*
X148822986Y-103025921D01*
X148811433Y-103040779D01*
X148800027Y-103054712D01*
X148788805Y-103067679D01*
X148777801Y-103079634D01*
X148767049Y-103090535D01*
X148756584Y-103100339D01*
X148746442Y-103109000D01*
X148736656Y-103116477D01*
X148727261Y-103122725D01*
X148718293Y-103127701D01*
X148709786Y-103131361D01*
X148701775Y-103133662D01*
X148694294Y-103134560D01*
X148687378Y-103134011D01*
X148681062Y-103131973D01*
X148675380Y-103128401D01*
X148670368Y-103123252D01*
X148643741Y-103087271D01*
X148618849Y-103049589D01*
X148595738Y-103010368D01*
X148574453Y-102969774D01*
X148555041Y-102927968D01*
X148537547Y-102885115D01*
X148522017Y-102841378D01*
X148508497Y-102796921D01*
X148497031Y-102751907D01*
X148487667Y-102706500D01*
X148480450Y-102660864D01*
X148475426Y-102615161D01*
X148472640Y-102569555D01*
X148472139Y-102524211D01*
X148473967Y-102479291D01*
X148478171Y-102434958D01*
X148482987Y-102387319D01*
X148485713Y-102339809D01*
X148486357Y-102292464D01*
X148484928Y-102245319D01*
X148481434Y-102198410D01*
X148475883Y-102151772D01*
X148468284Y-102105440D01*
X148458644Y-102059449D01*
X148446971Y-102013835D01*
X148433275Y-101968633D01*
X148417563Y-101923879D01*
X148399843Y-101879607D01*
X148380124Y-101835853D01*
X148358413Y-101792653D01*
X148334720Y-101750041D01*
X148309051Y-101708053D01*
X148294076Y-101684544D01*
X148288150Y-101675034D01*
X148283243Y-101666881D01*
X148279338Y-101659981D01*
X148277756Y-101656968D01*
X148276419Y-101654230D01*
X148275324Y-101651753D01*
X148274469Y-101649524D01*
X148273853Y-101647531D01*
X148273473Y-101645760D01*
X148273327Y-101644198D01*
X148273414Y-101642833D01*
X148273730Y-101641651D01*
X148273974Y-101641124D01*
X148274275Y-101640639D01*
X148275046Y-101639784D01*
X148276040Y-101639074D01*
X148277257Y-101638494D01*
X148278693Y-101638034D01*
X148280347Y-101637678D01*
X148282217Y-101637415D01*
X148284301Y-101637231D01*
X148286596Y-101637113D01*
X148291813Y-101637024D01*
X148297852Y-101637044D01*
X148318389Y-101637782D01*
X148339909Y-101639705D01*
X148362243Y-101642754D01*
X148385221Y-101646870D01*
X148408673Y-101651995D01*
X148432429Y-101658070D01*
X148456319Y-101665038D01*
X148480173Y-101672838D01*
X148503822Y-101681413D01*
X148527096Y-101690705D01*
X148549824Y-101700653D01*
X148571836Y-101711201D01*
X148592964Y-101722290D01*
X148613037Y-101733860D01*
X148631884Y-101745853D01*
X148649337Y-101758211D01*
X148662806Y-101768289D01*
X148668256Y-101772237D01*
X148672929Y-101775453D01*
X148676884Y-101777932D01*
X148678611Y-101778894D01*
X148680181Y-101779670D01*
X148681602Y-101780261D01*
X148682881Y-101780664D01*
X148684026Y-101780880D01*
X148685043Y-101780909D01*
X148685941Y-101780749D01*
X148686727Y-101780400D01*
X148687408Y-101779862D01*
X148687992Y-101779135D01*
X148688487Y-101778217D01*
X148688899Y-101777108D01*
X148689236Y-101775808D01*
X148689507Y-101774316D01*
X148689717Y-101772632D01*
X148689875Y-101770755D01*
X148690064Y-101766420D01*
X148690144Y-101755413D01*
X148691384Y-101707804D01*
X148695040Y-101658120D01*
X148701021Y-101606663D01*
X148709232Y-101553739D01*
X148719580Y-101499652D01*
X148731972Y-101444705D01*
X148746316Y-101389203D01*
X148762516Y-101333450D01*
X148780481Y-101277750D01*
X148800118Y-101222407D01*
X148821332Y-101167726D01*
X148844030Y-101114011D01*
X148868120Y-101061566D01*
X148893508Y-101010695D01*
X148920101Y-100961702D01*
X148947806Y-100914891D01*
X148991062Y-100843424D01*
X149040362Y-100759182D01*
X149153477Y-100558884D01*
X149279923Y-100327034D01*
X149412473Y-100076666D01*
X149439917Y-100024459D01*
X149465762Y-99976000D01*
X149489417Y-99932322D01*
X149510288Y-99894459D01*
X149527786Y-99863445D01*
X149541316Y-99840312D01*
X149546409Y-99832024D01*
X149550289Y-99826094D01*
X149552880Y-99822651D01*
X149553670Y-99821903D01*
X149554111Y-99821825D01*
X149554788Y-99828408D01*
X149554553Y-99845067D01*
X149551610Y-99904144D01*
X149545804Y-99990122D01*
X149537662Y-100094066D01*
X149531570Y-100180658D01*
X149527487Y-100267435D01*
X149525280Y-100353075D01*
X149524811Y-100436255D01*
X149525947Y-100515651D01*
X149528553Y-100589942D01*
X149532492Y-100657804D01*
X149537631Y-100717916D01*
X149543834Y-100768954D01*
X149550965Y-100809595D01*
X149558891Y-100838518D01*
X149563109Y-100848171D01*
X149567476Y-100854399D01*
X149571973Y-100857035D01*
X149576584Y-100855915D01*
X149581292Y-100850873D01*
X149586081Y-100841744D01*
X149590933Y-100828363D01*
X149595831Y-100810564D01*
X149605701Y-100761051D01*
X149622214Y-100671582D01*
X149641193Y-100585959D01*
X149662654Y-100504150D01*
X149686616Y-100426126D01*
X149713097Y-100351856D01*
X149742114Y-100281307D01*
X149773684Y-100214451D01*
X149790433Y-100182398D01*
X149807827Y-100151256D01*
X149825868Y-100121021D01*
X149844558Y-100091690D01*
X149863901Y-100063259D01*
X149883897Y-100035724D01*
X149904550Y-100009082D01*
X149925861Y-99983327D01*
X149947833Y-99958457D01*
X149970467Y-99934468D01*
X149993767Y-99911355D01*
X150017734Y-99889115D01*
X150042370Y-99867744D01*
X150067679Y-99847239D01*
X150093661Y-99827595D01*
X150120319Y-99808808D01*
X150147656Y-99790875D01*
X150175674Y-99773792D01*
X150214375Y-99750099D01*
X150251931Y-99725202D01*
X150288218Y-99699236D01*
X150323110Y-99672336D01*
X150356484Y-99644638D01*
X150388214Y-99616277D01*
X150418176Y-99587389D01*
X150446246Y-99558108D01*
X150472298Y-99528571D01*
X150496209Y-99498913D01*
X150517853Y-99469268D01*
X150537106Y-99439773D01*
X150553843Y-99410563D01*
X150567940Y-99381773D01*
X150579272Y-99353538D01*
X150583863Y-99339672D01*
X150587715Y-99325995D01*
X150590953Y-99313892D01*
X150594162Y-99303220D01*
X150597453Y-99293928D01*
X150599165Y-99289784D01*
X150600940Y-99285966D01*
X150602791Y-99282468D01*
X150604732Y-99279283D01*
X150606778Y-99276406D01*
X150608942Y-99273829D01*
X150611239Y-99271547D01*
X150613682Y-99269553D01*
X150616286Y-99267841D01*
X150619064Y-99266405D01*
X150622029Y-99265238D01*
X150625198Y-99264333D01*
X150628582Y-99263686D01*
X150632196Y-99263288D01*
X150636055Y-99263135D01*
X150640172Y-99263219D01*
X150644560Y-99263535D01*
X150649235Y-99264075D01*
X150659498Y-99265806D01*
X150671072Y-99268361D01*
X150684069Y-99271689D01*
X150698601Y-99275740D01*
X150709902Y-99279426D01*
X150720968Y-99283933D01*
X150731800Y-99289262D01*
X150742395Y-99295412D01*
X150752753Y-99302381D01*
X150762874Y-99310170D01*
X150772756Y-99318777D01*
X150782398Y-99328202D01*
X150791801Y-99338444D01*
X150800962Y-99349503D01*
X150809881Y-99361378D01*
X150818558Y-99374068D01*
X150826991Y-99387573D01*
X150835179Y-99401891D01*
X150843122Y-99417023D01*
X150850818Y-99432967D01*
X150885746Y-99508312D01*
X150926906Y-99420833D01*
X150934884Y-99402714D01*
X150942071Y-99383984D01*
X150948465Y-99364666D01*
X150954062Y-99344782D01*
X150958862Y-99324354D01*
X150962861Y-99303404D01*
X150966058Y-99281956D01*
X150968449Y-99260031D01*
X150970034Y-99237651D01*
X150970809Y-99214840D01*
X150970772Y-99191619D01*
X150969922Y-99168010D01*
X150968255Y-99144037D01*
X150965770Y-99119720D01*
X150962464Y-99095084D01*
X150958335Y-99070149D01*
X150958388Y-99070021D01*
X150954903Y-99049677D01*
X150953850Y-99041470D01*
X150953415Y-99034465D01*
X150953468Y-99031388D01*
X150953720Y-99028581D01*
X150954186Y-99026034D01*
X150954882Y-99023737D01*
X150955823Y-99021680D01*
X150957023Y-99019852D01*
X150958497Y-99018244D01*
X150960260Y-99016845D01*
X150962328Y-99015645D01*
X150964715Y-99014634D01*
X150967436Y-99013802D01*
X150970506Y-99013139D01*
X150973940Y-99012634D01*
X150977753Y-99012278D01*
X150986576Y-99011970D01*
X150997093Y-99012135D01*
G37*
D11*
X154820845Y-97366667D02*
X154858940Y-97466667D01*
X154858940Y-97466667D02*
X154858940Y-97633334D01*
X154858940Y-97633334D02*
X154820845Y-97700000D01*
X154820845Y-97700000D02*
X154782749Y-97733334D01*
X154782749Y-97733334D02*
X154706559Y-97766667D01*
X154706559Y-97766667D02*
X154630368Y-97766667D01*
X154630368Y-97766667D02*
X154554178Y-97733334D01*
X154554178Y-97733334D02*
X154516083Y-97700000D01*
X154516083Y-97700000D02*
X154477987Y-97633334D01*
X154477987Y-97633334D02*
X154439892Y-97500000D01*
X154439892Y-97500000D02*
X154401797Y-97433334D01*
X154401797Y-97433334D02*
X154363702Y-97400000D01*
X154363702Y-97400000D02*
X154287511Y-97366667D01*
X154287511Y-97366667D02*
X154211321Y-97366667D01*
X154211321Y-97366667D02*
X154135130Y-97400000D01*
X154135130Y-97400000D02*
X154097035Y-97433334D01*
X154097035Y-97433334D02*
X154058940Y-97500000D01*
X154058940Y-97500000D02*
X154058940Y-97666667D01*
X154058940Y-97666667D02*
X154097035Y-97766667D01*
X154325606Y-98366667D02*
X154858940Y-98366667D01*
X154325606Y-98066667D02*
X154744654Y-98066667D01*
X154744654Y-98066667D02*
X154820845Y-98100001D01*
X154820845Y-98100001D02*
X154858940Y-98166667D01*
X154858940Y-98166667D02*
X154858940Y-98266667D01*
X154858940Y-98266667D02*
X154820845Y-98333334D01*
X154820845Y-98333334D02*
X154782749Y-98366667D01*
X154820845Y-98666667D02*
X154858940Y-98733334D01*
X154858940Y-98733334D02*
X154858940Y-98866667D01*
X154858940Y-98866667D02*
X154820845Y-98933334D01*
X154820845Y-98933334D02*
X154744654Y-98966667D01*
X154744654Y-98966667D02*
X154706559Y-98966667D01*
X154706559Y-98966667D02*
X154630368Y-98933334D01*
X154630368Y-98933334D02*
X154592273Y-98866667D01*
X154592273Y-98866667D02*
X154592273Y-98766667D01*
X154592273Y-98766667D02*
X154554178Y-98700000D01*
X154554178Y-98700000D02*
X154477987Y-98666667D01*
X154477987Y-98666667D02*
X154439892Y-98666667D01*
X154439892Y-98666667D02*
X154363702Y-98700000D01*
X154363702Y-98700000D02*
X154325606Y-98766667D01*
X154325606Y-98766667D02*
X154325606Y-98866667D01*
X154325606Y-98866667D02*
X154363702Y-98933334D01*
X154325606Y-99266667D02*
X155125606Y-99266667D01*
X154363702Y-99266667D02*
X154325606Y-99333334D01*
X154325606Y-99333334D02*
X154325606Y-99466667D01*
X154325606Y-99466667D02*
X154363702Y-99533334D01*
X154363702Y-99533334D02*
X154401797Y-99566667D01*
X154401797Y-99566667D02*
X154477987Y-99600001D01*
X154477987Y-99600001D02*
X154706559Y-99600001D01*
X154706559Y-99600001D02*
X154782749Y-99566667D01*
X154782749Y-99566667D02*
X154820845Y-99533334D01*
X154820845Y-99533334D02*
X154858940Y-99466667D01*
X154858940Y-99466667D02*
X154858940Y-99333334D01*
X154858940Y-99333334D02*
X154820845Y-99266667D01*
X154820845Y-100166667D02*
X154858940Y-100100000D01*
X154858940Y-100100000D02*
X154858940Y-99966667D01*
X154858940Y-99966667D02*
X154820845Y-99900000D01*
X154820845Y-99900000D02*
X154744654Y-99866667D01*
X154744654Y-99866667D02*
X154439892Y-99866667D01*
X154439892Y-99866667D02*
X154363702Y-99900000D01*
X154363702Y-99900000D02*
X154325606Y-99966667D01*
X154325606Y-99966667D02*
X154325606Y-100100000D01*
X154325606Y-100100000D02*
X154363702Y-100166667D01*
X154363702Y-100166667D02*
X154439892Y-100200000D01*
X154439892Y-100200000D02*
X154516083Y-100200000D01*
X154516083Y-100200000D02*
X154592273Y-99866667D01*
X154325606Y-100500000D02*
X154858940Y-100500000D01*
X154401797Y-100500000D02*
X154363702Y-100533334D01*
X154363702Y-100533334D02*
X154325606Y-100600000D01*
X154325606Y-100600000D02*
X154325606Y-100700000D01*
X154325606Y-100700000D02*
X154363702Y-100766667D01*
X154363702Y-100766667D02*
X154439892Y-100800000D01*
X154439892Y-100800000D02*
X154858940Y-100800000D01*
X154820845Y-101100000D02*
X154858940Y-101166667D01*
X154858940Y-101166667D02*
X154858940Y-101300000D01*
X154858940Y-101300000D02*
X154820845Y-101366667D01*
X154820845Y-101366667D02*
X154744654Y-101400000D01*
X154744654Y-101400000D02*
X154706559Y-101400000D01*
X154706559Y-101400000D02*
X154630368Y-101366667D01*
X154630368Y-101366667D02*
X154592273Y-101300000D01*
X154592273Y-101300000D02*
X154592273Y-101200000D01*
X154592273Y-101200000D02*
X154554178Y-101133333D01*
X154554178Y-101133333D02*
X154477987Y-101100000D01*
X154477987Y-101100000D02*
X154439892Y-101100000D01*
X154439892Y-101100000D02*
X154363702Y-101133333D01*
X154363702Y-101133333D02*
X154325606Y-101200000D01*
X154325606Y-101200000D02*
X154325606Y-101300000D01*
X154325606Y-101300000D02*
X154363702Y-101366667D01*
X154858940Y-101700000D02*
X154325606Y-101700000D01*
X154058940Y-101700000D02*
X154097035Y-101666667D01*
X154097035Y-101666667D02*
X154135130Y-101700000D01*
X154135130Y-101700000D02*
X154097035Y-101733334D01*
X154097035Y-101733334D02*
X154058940Y-101700000D01*
X154058940Y-101700000D02*
X154135130Y-101700000D01*
X154858940Y-102133333D02*
X154820845Y-102066667D01*
X154820845Y-102066667D02*
X154782749Y-102033333D01*
X154782749Y-102033333D02*
X154706559Y-102000000D01*
X154706559Y-102000000D02*
X154477987Y-102000000D01*
X154477987Y-102000000D02*
X154401797Y-102033333D01*
X154401797Y-102033333D02*
X154363702Y-102066667D01*
X154363702Y-102066667D02*
X154325606Y-102133333D01*
X154325606Y-102133333D02*
X154325606Y-102233333D01*
X154325606Y-102233333D02*
X154363702Y-102300000D01*
X154363702Y-102300000D02*
X154401797Y-102333333D01*
X154401797Y-102333333D02*
X154477987Y-102366667D01*
X154477987Y-102366667D02*
X154706559Y-102366667D01*
X154706559Y-102366667D02*
X154782749Y-102333333D01*
X154782749Y-102333333D02*
X154820845Y-102300000D01*
X154820845Y-102300000D02*
X154858940Y-102233333D01*
X154858940Y-102233333D02*
X154858940Y-102133333D01*
X154325606Y-102666666D02*
X154858940Y-102666666D01*
X154401797Y-102666666D02*
X154363702Y-102700000D01*
X154363702Y-102700000D02*
X154325606Y-102766666D01*
X154325606Y-102766666D02*
X154325606Y-102866666D01*
X154325606Y-102866666D02*
X154363702Y-102933333D01*
X154363702Y-102933333D02*
X154439892Y-102966666D01*
X154439892Y-102966666D02*
X154858940Y-102966666D01*
X154858940Y-103833332D02*
X154058940Y-103833332D01*
X154439892Y-103833332D02*
X154439892Y-104233332D01*
X154858940Y-104233332D02*
X154058940Y-104233332D01*
X154858940Y-104866665D02*
X154439892Y-104866665D01*
X154439892Y-104866665D02*
X154363702Y-104833332D01*
X154363702Y-104833332D02*
X154325606Y-104766665D01*
X154325606Y-104766665D02*
X154325606Y-104633332D01*
X154325606Y-104633332D02*
X154363702Y-104566665D01*
X154820845Y-104866665D02*
X154858940Y-104799999D01*
X154858940Y-104799999D02*
X154858940Y-104633332D01*
X154858940Y-104633332D02*
X154820845Y-104566665D01*
X154820845Y-104566665D02*
X154744654Y-104533332D01*
X154744654Y-104533332D02*
X154668464Y-104533332D01*
X154668464Y-104533332D02*
X154592273Y-104566665D01*
X154592273Y-104566665D02*
X154554178Y-104633332D01*
X154554178Y-104633332D02*
X154554178Y-104799999D01*
X154554178Y-104799999D02*
X154516083Y-104866665D01*
X154858940Y-105299998D02*
X154820845Y-105233332D01*
X154820845Y-105233332D02*
X154744654Y-105199998D01*
X154744654Y-105199998D02*
X154058940Y-105199998D01*
X154858940Y-105666665D02*
X154820845Y-105599999D01*
X154820845Y-105599999D02*
X154744654Y-105566665D01*
X154744654Y-105566665D02*
X154058940Y-105566665D01*
X156108800Y-96350001D02*
X156146895Y-96450001D01*
X156146895Y-96450001D02*
X156146895Y-96616668D01*
X156146895Y-96616668D02*
X156108800Y-96683334D01*
X156108800Y-96683334D02*
X156070704Y-96716668D01*
X156070704Y-96716668D02*
X155994514Y-96750001D01*
X155994514Y-96750001D02*
X155918323Y-96750001D01*
X155918323Y-96750001D02*
X155842133Y-96716668D01*
X155842133Y-96716668D02*
X155804038Y-96683334D01*
X155804038Y-96683334D02*
X155765942Y-96616668D01*
X155765942Y-96616668D02*
X155727847Y-96483334D01*
X155727847Y-96483334D02*
X155689752Y-96416668D01*
X155689752Y-96416668D02*
X155651657Y-96383334D01*
X155651657Y-96383334D02*
X155575466Y-96350001D01*
X155575466Y-96350001D02*
X155499276Y-96350001D01*
X155499276Y-96350001D02*
X155423085Y-96383334D01*
X155423085Y-96383334D02*
X155384990Y-96416668D01*
X155384990Y-96416668D02*
X155346895Y-96483334D01*
X155346895Y-96483334D02*
X155346895Y-96650001D01*
X155346895Y-96650001D02*
X155384990Y-96750001D01*
X156108800Y-97316668D02*
X156146895Y-97250001D01*
X156146895Y-97250001D02*
X156146895Y-97116668D01*
X156146895Y-97116668D02*
X156108800Y-97050001D01*
X156108800Y-97050001D02*
X156032609Y-97016668D01*
X156032609Y-97016668D02*
X155727847Y-97016668D01*
X155727847Y-97016668D02*
X155651657Y-97050001D01*
X155651657Y-97050001D02*
X155613561Y-97116668D01*
X155613561Y-97116668D02*
X155613561Y-97250001D01*
X155613561Y-97250001D02*
X155651657Y-97316668D01*
X155651657Y-97316668D02*
X155727847Y-97350001D01*
X155727847Y-97350001D02*
X155804038Y-97350001D01*
X155804038Y-97350001D02*
X155880228Y-97016668D01*
X155613561Y-97650001D02*
X156146895Y-97650001D01*
X155689752Y-97650001D02*
X155651657Y-97683335D01*
X155651657Y-97683335D02*
X155613561Y-97750001D01*
X155613561Y-97750001D02*
X155613561Y-97850001D01*
X155613561Y-97850001D02*
X155651657Y-97916668D01*
X155651657Y-97916668D02*
X155727847Y-97950001D01*
X155727847Y-97950001D02*
X156146895Y-97950001D01*
X156108800Y-98250001D02*
X156146895Y-98316668D01*
X156146895Y-98316668D02*
X156146895Y-98450001D01*
X156146895Y-98450001D02*
X156108800Y-98516668D01*
X156108800Y-98516668D02*
X156032609Y-98550001D01*
X156032609Y-98550001D02*
X155994514Y-98550001D01*
X155994514Y-98550001D02*
X155918323Y-98516668D01*
X155918323Y-98516668D02*
X155880228Y-98450001D01*
X155880228Y-98450001D02*
X155880228Y-98350001D01*
X155880228Y-98350001D02*
X155842133Y-98283334D01*
X155842133Y-98283334D02*
X155765942Y-98250001D01*
X155765942Y-98250001D02*
X155727847Y-98250001D01*
X155727847Y-98250001D02*
X155651657Y-98283334D01*
X155651657Y-98283334D02*
X155613561Y-98350001D01*
X155613561Y-98350001D02*
X155613561Y-98450001D01*
X155613561Y-98450001D02*
X155651657Y-98516668D01*
X156146895Y-98950001D02*
X156108800Y-98883335D01*
X156108800Y-98883335D02*
X156070704Y-98850001D01*
X156070704Y-98850001D02*
X155994514Y-98816668D01*
X155994514Y-98816668D02*
X155765942Y-98816668D01*
X155765942Y-98816668D02*
X155689752Y-98850001D01*
X155689752Y-98850001D02*
X155651657Y-98883335D01*
X155651657Y-98883335D02*
X155613561Y-98950001D01*
X155613561Y-98950001D02*
X155613561Y-99050001D01*
X155613561Y-99050001D02*
X155651657Y-99116668D01*
X155651657Y-99116668D02*
X155689752Y-99150001D01*
X155689752Y-99150001D02*
X155765942Y-99183335D01*
X155765942Y-99183335D02*
X155994514Y-99183335D01*
X155994514Y-99183335D02*
X156070704Y-99150001D01*
X156070704Y-99150001D02*
X156108800Y-99116668D01*
X156108800Y-99116668D02*
X156146895Y-99050001D01*
X156146895Y-99050001D02*
X156146895Y-98950001D01*
X156146895Y-99483334D02*
X155613561Y-99483334D01*
X155765942Y-99483334D02*
X155689752Y-99516668D01*
X155689752Y-99516668D02*
X155651657Y-99550001D01*
X155651657Y-99550001D02*
X155613561Y-99616668D01*
X155613561Y-99616668D02*
X155613561Y-99683334D01*
X155727847Y-100683334D02*
X155765942Y-100783334D01*
X155765942Y-100783334D02*
X155804038Y-100816667D01*
X155804038Y-100816667D02*
X155880228Y-100850000D01*
X155880228Y-100850000D02*
X155994514Y-100850000D01*
X155994514Y-100850000D02*
X156070704Y-100816667D01*
X156070704Y-100816667D02*
X156108800Y-100783334D01*
X156108800Y-100783334D02*
X156146895Y-100716667D01*
X156146895Y-100716667D02*
X156146895Y-100450000D01*
X156146895Y-100450000D02*
X155346895Y-100450000D01*
X155346895Y-100450000D02*
X155346895Y-100683334D01*
X155346895Y-100683334D02*
X155384990Y-100750000D01*
X155384990Y-100750000D02*
X155423085Y-100783334D01*
X155423085Y-100783334D02*
X155499276Y-100816667D01*
X155499276Y-100816667D02*
X155575466Y-100816667D01*
X155575466Y-100816667D02*
X155651657Y-100783334D01*
X155651657Y-100783334D02*
X155689752Y-100750000D01*
X155689752Y-100750000D02*
X155727847Y-100683334D01*
X155727847Y-100683334D02*
X155727847Y-100450000D01*
X156146895Y-101250000D02*
X156108800Y-101183334D01*
X156108800Y-101183334D02*
X156070704Y-101150000D01*
X156070704Y-101150000D02*
X155994514Y-101116667D01*
X155994514Y-101116667D02*
X155765942Y-101116667D01*
X155765942Y-101116667D02*
X155689752Y-101150000D01*
X155689752Y-101150000D02*
X155651657Y-101183334D01*
X155651657Y-101183334D02*
X155613561Y-101250000D01*
X155613561Y-101250000D02*
X155613561Y-101350000D01*
X155613561Y-101350000D02*
X155651657Y-101416667D01*
X155651657Y-101416667D02*
X155689752Y-101450000D01*
X155689752Y-101450000D02*
X155765942Y-101483334D01*
X155765942Y-101483334D02*
X155994514Y-101483334D01*
X155994514Y-101483334D02*
X156070704Y-101450000D01*
X156070704Y-101450000D02*
X156108800Y-101416667D01*
X156108800Y-101416667D02*
X156146895Y-101350000D01*
X156146895Y-101350000D02*
X156146895Y-101250000D01*
X156146895Y-102083333D02*
X155727847Y-102083333D01*
X155727847Y-102083333D02*
X155651657Y-102050000D01*
X155651657Y-102050000D02*
X155613561Y-101983333D01*
X155613561Y-101983333D02*
X155613561Y-101850000D01*
X155613561Y-101850000D02*
X155651657Y-101783333D01*
X156108800Y-102083333D02*
X156146895Y-102016667D01*
X156146895Y-102016667D02*
X156146895Y-101850000D01*
X156146895Y-101850000D02*
X156108800Y-101783333D01*
X156108800Y-101783333D02*
X156032609Y-101750000D01*
X156032609Y-101750000D02*
X155956419Y-101750000D01*
X155956419Y-101750000D02*
X155880228Y-101783333D01*
X155880228Y-101783333D02*
X155842133Y-101850000D01*
X155842133Y-101850000D02*
X155842133Y-102016667D01*
X155842133Y-102016667D02*
X155804038Y-102083333D01*
X156146895Y-102416666D02*
X155613561Y-102416666D01*
X155765942Y-102416666D02*
X155689752Y-102450000D01*
X155689752Y-102450000D02*
X155651657Y-102483333D01*
X155651657Y-102483333D02*
X155613561Y-102550000D01*
X155613561Y-102550000D02*
X155613561Y-102616666D01*
X156146895Y-103149999D02*
X155346895Y-103149999D01*
X156108800Y-103149999D02*
X156146895Y-103083333D01*
X156146895Y-103083333D02*
X156146895Y-102949999D01*
X156146895Y-102949999D02*
X156108800Y-102883333D01*
X156108800Y-102883333D02*
X156070704Y-102849999D01*
X156070704Y-102849999D02*
X155994514Y-102816666D01*
X155994514Y-102816666D02*
X155765942Y-102816666D01*
X155765942Y-102816666D02*
X155689752Y-102849999D01*
X155689752Y-102849999D02*
X155651657Y-102883333D01*
X155651657Y-102883333D02*
X155613561Y-102949999D01*
X155613561Y-102949999D02*
X155613561Y-103083333D01*
X155613561Y-103083333D02*
X155651657Y-103149999D01*
X156146895Y-104416665D02*
X155765942Y-104183332D01*
X156146895Y-104016665D02*
X155346895Y-104016665D01*
X155346895Y-104016665D02*
X155346895Y-104283332D01*
X155346895Y-104283332D02*
X155384990Y-104349999D01*
X155384990Y-104349999D02*
X155423085Y-104383332D01*
X155423085Y-104383332D02*
X155499276Y-104416665D01*
X155499276Y-104416665D02*
X155613561Y-104416665D01*
X155613561Y-104416665D02*
X155689752Y-104383332D01*
X155689752Y-104383332D02*
X155727847Y-104349999D01*
X155727847Y-104349999D02*
X155765942Y-104283332D01*
X155765942Y-104283332D02*
X155765942Y-104016665D01*
X155727847Y-104716665D02*
X155727847Y-104949999D01*
X156146895Y-105049999D02*
X156146895Y-104716665D01*
X156146895Y-104716665D02*
X155346895Y-104716665D01*
X155346895Y-104716665D02*
X155346895Y-105049999D01*
X155346895Y-105249998D02*
X156146895Y-105483332D01*
X156146895Y-105483332D02*
X155346895Y-105716665D01*
X156070704Y-105949998D02*
X156108800Y-105983332D01*
X156108800Y-105983332D02*
X156146895Y-105949998D01*
X156146895Y-105949998D02*
X156108800Y-105916665D01*
X156108800Y-105916665D02*
X156070704Y-105949998D01*
X156070704Y-105949998D02*
X156146895Y-105949998D01*
X156146895Y-106649998D02*
X156146895Y-106249998D01*
X156146895Y-106449998D02*
X155346895Y-106449998D01*
X155346895Y-106449998D02*
X155461180Y-106383331D01*
X155461180Y-106383331D02*
X155537371Y-106316665D01*
X155537371Y-106316665D02*
X155575466Y-106249998D01*
X145608940Y-97083334D02*
X144808940Y-97083334D01*
X144808940Y-97083334D02*
X144808940Y-97350001D01*
X144808940Y-97350001D02*
X144847035Y-97416668D01*
X144847035Y-97416668D02*
X144885130Y-97450001D01*
X144885130Y-97450001D02*
X144961321Y-97483334D01*
X144961321Y-97483334D02*
X145075606Y-97483334D01*
X145075606Y-97483334D02*
X145151797Y-97450001D01*
X145151797Y-97450001D02*
X145189892Y-97416668D01*
X145189892Y-97416668D02*
X145227987Y-97350001D01*
X145227987Y-97350001D02*
X145227987Y-97083334D01*
X145608940Y-98083334D02*
X145189892Y-98083334D01*
X145189892Y-98083334D02*
X145113702Y-98050001D01*
X145113702Y-98050001D02*
X145075606Y-97983334D01*
X145075606Y-97983334D02*
X145075606Y-97850001D01*
X145075606Y-97850001D02*
X145113702Y-97783334D01*
X145570845Y-98083334D02*
X145608940Y-98016668D01*
X145608940Y-98016668D02*
X145608940Y-97850001D01*
X145608940Y-97850001D02*
X145570845Y-97783334D01*
X145570845Y-97783334D02*
X145494654Y-97750001D01*
X145494654Y-97750001D02*
X145418464Y-97750001D01*
X145418464Y-97750001D02*
X145342273Y-97783334D01*
X145342273Y-97783334D02*
X145304178Y-97850001D01*
X145304178Y-97850001D02*
X145304178Y-98016668D01*
X145304178Y-98016668D02*
X145266083Y-98083334D01*
X145570845Y-98716667D02*
X145608940Y-98650001D01*
X145608940Y-98650001D02*
X145608940Y-98516667D01*
X145608940Y-98516667D02*
X145570845Y-98450001D01*
X145570845Y-98450001D02*
X145532749Y-98416667D01*
X145532749Y-98416667D02*
X145456559Y-98383334D01*
X145456559Y-98383334D02*
X145227987Y-98383334D01*
X145227987Y-98383334D02*
X145151797Y-98416667D01*
X145151797Y-98416667D02*
X145113702Y-98450001D01*
X145113702Y-98450001D02*
X145075606Y-98516667D01*
X145075606Y-98516667D02*
X145075606Y-98650001D01*
X145075606Y-98650001D02*
X145113702Y-98716667D01*
X145608940Y-99016667D02*
X144808940Y-99016667D01*
X145304178Y-99083334D02*
X145608940Y-99283334D01*
X145075606Y-99283334D02*
X145380368Y-99016667D01*
X145608940Y-100116667D02*
X144808940Y-100116667D01*
X144808940Y-100116667D02*
X145380368Y-100350001D01*
X145380368Y-100350001D02*
X144808940Y-100583334D01*
X144808940Y-100583334D02*
X145608940Y-100583334D01*
X145608940Y-101016667D02*
X145570845Y-100950001D01*
X145570845Y-100950001D02*
X145532749Y-100916667D01*
X145532749Y-100916667D02*
X145456559Y-100883334D01*
X145456559Y-100883334D02*
X145227987Y-100883334D01*
X145227987Y-100883334D02*
X145151797Y-100916667D01*
X145151797Y-100916667D02*
X145113702Y-100950001D01*
X145113702Y-100950001D02*
X145075606Y-101016667D01*
X145075606Y-101016667D02*
X145075606Y-101116667D01*
X145075606Y-101116667D02*
X145113702Y-101183334D01*
X145113702Y-101183334D02*
X145151797Y-101216667D01*
X145151797Y-101216667D02*
X145227987Y-101250001D01*
X145227987Y-101250001D02*
X145456559Y-101250001D01*
X145456559Y-101250001D02*
X145532749Y-101216667D01*
X145532749Y-101216667D02*
X145570845Y-101183334D01*
X145570845Y-101183334D02*
X145608940Y-101116667D01*
X145608940Y-101116667D02*
X145608940Y-101016667D01*
X145075606Y-101450000D02*
X145075606Y-101716667D01*
X144808940Y-101550000D02*
X145494654Y-101550000D01*
X145494654Y-101550000D02*
X145570845Y-101583334D01*
X145570845Y-101583334D02*
X145608940Y-101650000D01*
X145608940Y-101650000D02*
X145608940Y-101716667D01*
X145608940Y-102050000D02*
X145570845Y-101983334D01*
X145570845Y-101983334D02*
X145532749Y-101950000D01*
X145532749Y-101950000D02*
X145456559Y-101916667D01*
X145456559Y-101916667D02*
X145227987Y-101916667D01*
X145227987Y-101916667D02*
X145151797Y-101950000D01*
X145151797Y-101950000D02*
X145113702Y-101983334D01*
X145113702Y-101983334D02*
X145075606Y-102050000D01*
X145075606Y-102050000D02*
X145075606Y-102150000D01*
X145075606Y-102150000D02*
X145113702Y-102216667D01*
X145113702Y-102216667D02*
X145151797Y-102250000D01*
X145151797Y-102250000D02*
X145227987Y-102283334D01*
X145227987Y-102283334D02*
X145456559Y-102283334D01*
X145456559Y-102283334D02*
X145532749Y-102250000D01*
X145532749Y-102250000D02*
X145570845Y-102216667D01*
X145570845Y-102216667D02*
X145608940Y-102150000D01*
X145608940Y-102150000D02*
X145608940Y-102050000D01*
X145608940Y-102583333D02*
X145075606Y-102583333D01*
X145227987Y-102583333D02*
X145151797Y-102616667D01*
X145151797Y-102616667D02*
X145113702Y-102650000D01*
X145113702Y-102650000D02*
X145075606Y-102716667D01*
X145075606Y-102716667D02*
X145075606Y-102783333D01*
X145570845Y-102983333D02*
X145608940Y-103050000D01*
X145608940Y-103050000D02*
X145608940Y-103183333D01*
X145608940Y-103183333D02*
X145570845Y-103250000D01*
X145570845Y-103250000D02*
X145494654Y-103283333D01*
X145494654Y-103283333D02*
X145456559Y-103283333D01*
X145456559Y-103283333D02*
X145380368Y-103250000D01*
X145380368Y-103250000D02*
X145342273Y-103183333D01*
X145342273Y-103183333D02*
X145342273Y-103083333D01*
X145342273Y-103083333D02*
X145304178Y-103016666D01*
X145304178Y-103016666D02*
X145227987Y-102983333D01*
X145227987Y-102983333D02*
X145189892Y-102983333D01*
X145189892Y-102983333D02*
X145113702Y-103016666D01*
X145113702Y-103016666D02*
X145075606Y-103083333D01*
X145075606Y-103083333D02*
X145075606Y-103183333D01*
X145075606Y-103183333D02*
X145113702Y-103250000D01*
X145075606Y-103583333D02*
X145875606Y-103583333D01*
X145113702Y-103583333D02*
X145075606Y-103650000D01*
X145075606Y-103650000D02*
X145075606Y-103783333D01*
X145075606Y-103783333D02*
X145113702Y-103850000D01*
X145113702Y-103850000D02*
X145151797Y-103883333D01*
X145151797Y-103883333D02*
X145227987Y-103916667D01*
X145227987Y-103916667D02*
X145456559Y-103916667D01*
X145456559Y-103916667D02*
X145532749Y-103883333D01*
X145532749Y-103883333D02*
X145570845Y-103850000D01*
X145570845Y-103850000D02*
X145608940Y-103783333D01*
X145608940Y-103783333D02*
X145608940Y-103650000D01*
X145608940Y-103650000D02*
X145570845Y-103583333D01*
X145608940Y-104316666D02*
X145570845Y-104250000D01*
X145570845Y-104250000D02*
X145532749Y-104216666D01*
X145532749Y-104216666D02*
X145456559Y-104183333D01*
X145456559Y-104183333D02*
X145227987Y-104183333D01*
X145227987Y-104183333D02*
X145151797Y-104216666D01*
X145151797Y-104216666D02*
X145113702Y-104250000D01*
X145113702Y-104250000D02*
X145075606Y-104316666D01*
X145075606Y-104316666D02*
X145075606Y-104416666D01*
X145075606Y-104416666D02*
X145113702Y-104483333D01*
X145113702Y-104483333D02*
X145151797Y-104516666D01*
X145151797Y-104516666D02*
X145227987Y-104550000D01*
X145227987Y-104550000D02*
X145456559Y-104550000D01*
X145456559Y-104550000D02*
X145532749Y-104516666D01*
X145532749Y-104516666D02*
X145570845Y-104483333D01*
X145570845Y-104483333D02*
X145608940Y-104416666D01*
X145608940Y-104416666D02*
X145608940Y-104316666D01*
X145608940Y-104849999D02*
X145075606Y-104849999D01*
X145227987Y-104849999D02*
X145151797Y-104883333D01*
X145151797Y-104883333D02*
X145113702Y-104916666D01*
X145113702Y-104916666D02*
X145075606Y-104983333D01*
X145075606Y-104983333D02*
X145075606Y-105049999D01*
X145075606Y-105183332D02*
X145075606Y-105449999D01*
X144808940Y-105283332D02*
X145494654Y-105283332D01*
X145494654Y-105283332D02*
X145570845Y-105316666D01*
X145570845Y-105316666D02*
X145608940Y-105383332D01*
X145608940Y-105383332D02*
X145608940Y-105449999D01*
X145570845Y-105649999D02*
X145608940Y-105716666D01*
X145608940Y-105716666D02*
X145608940Y-105849999D01*
X145608940Y-105849999D02*
X145570845Y-105916666D01*
X145570845Y-105916666D02*
X145494654Y-105949999D01*
X145494654Y-105949999D02*
X145456559Y-105949999D01*
X145456559Y-105949999D02*
X145380368Y-105916666D01*
X145380368Y-105916666D02*
X145342273Y-105849999D01*
X145342273Y-105849999D02*
X145342273Y-105749999D01*
X145342273Y-105749999D02*
X145304178Y-105683332D01*
X145304178Y-105683332D02*
X145227987Y-105649999D01*
X145227987Y-105649999D02*
X145189892Y-105649999D01*
X145189892Y-105649999D02*
X145113702Y-105683332D01*
X145113702Y-105683332D02*
X145075606Y-105749999D01*
X145075606Y-105749999D02*
X145075606Y-105849999D01*
X145075606Y-105849999D02*
X145113702Y-105916666D01*
X146477847Y-99533334D02*
X146515942Y-99633334D01*
X146515942Y-99633334D02*
X146554038Y-99666667D01*
X146554038Y-99666667D02*
X146630228Y-99700000D01*
X146630228Y-99700000D02*
X146744514Y-99700000D01*
X146744514Y-99700000D02*
X146820704Y-99666667D01*
X146820704Y-99666667D02*
X146858800Y-99633334D01*
X146858800Y-99633334D02*
X146896895Y-99566667D01*
X146896895Y-99566667D02*
X146896895Y-99300000D01*
X146896895Y-99300000D02*
X146096895Y-99300000D01*
X146096895Y-99300000D02*
X146096895Y-99533334D01*
X146096895Y-99533334D02*
X146134990Y-99600000D01*
X146134990Y-99600000D02*
X146173085Y-99633334D01*
X146173085Y-99633334D02*
X146249276Y-99666667D01*
X146249276Y-99666667D02*
X146325466Y-99666667D01*
X146325466Y-99666667D02*
X146401657Y-99633334D01*
X146401657Y-99633334D02*
X146439752Y-99600000D01*
X146439752Y-99600000D02*
X146477847Y-99533334D01*
X146477847Y-99533334D02*
X146477847Y-99300000D01*
X146896895Y-100300000D02*
X146477847Y-100300000D01*
X146477847Y-100300000D02*
X146401657Y-100266667D01*
X146401657Y-100266667D02*
X146363561Y-100200000D01*
X146363561Y-100200000D02*
X146363561Y-100066667D01*
X146363561Y-100066667D02*
X146401657Y-100000000D01*
X146858800Y-100300000D02*
X146896895Y-100233334D01*
X146896895Y-100233334D02*
X146896895Y-100066667D01*
X146896895Y-100066667D02*
X146858800Y-100000000D01*
X146858800Y-100000000D02*
X146782609Y-99966667D01*
X146782609Y-99966667D02*
X146706419Y-99966667D01*
X146706419Y-99966667D02*
X146630228Y-100000000D01*
X146630228Y-100000000D02*
X146592133Y-100066667D01*
X146592133Y-100066667D02*
X146592133Y-100233334D01*
X146592133Y-100233334D02*
X146554038Y-100300000D01*
X146363561Y-100633333D02*
X147049276Y-100633333D01*
X147049276Y-100633333D02*
X147125466Y-100600000D01*
X147125466Y-100600000D02*
X147163561Y-100533333D01*
X147163561Y-100533333D02*
X147163561Y-100500000D01*
X146096895Y-100633333D02*
X146134990Y-100600000D01*
X146134990Y-100600000D02*
X146173085Y-100633333D01*
X146173085Y-100633333D02*
X146134990Y-100666667D01*
X146134990Y-100666667D02*
X146096895Y-100633333D01*
X146096895Y-100633333D02*
X146173085Y-100633333D01*
X146896895Y-101266666D02*
X146477847Y-101266666D01*
X146477847Y-101266666D02*
X146401657Y-101233333D01*
X146401657Y-101233333D02*
X146363561Y-101166666D01*
X146363561Y-101166666D02*
X146363561Y-101033333D01*
X146363561Y-101033333D02*
X146401657Y-100966666D01*
X146858800Y-101266666D02*
X146896895Y-101200000D01*
X146896895Y-101200000D02*
X146896895Y-101033333D01*
X146896895Y-101033333D02*
X146858800Y-100966666D01*
X146858800Y-100966666D02*
X146782609Y-100933333D01*
X146782609Y-100933333D02*
X146706419Y-100933333D01*
X146706419Y-100933333D02*
X146630228Y-100966666D01*
X146630228Y-100966666D02*
X146592133Y-101033333D01*
X146592133Y-101033333D02*
X146592133Y-101200000D01*
X146592133Y-101200000D02*
X146554038Y-101266666D01*
X146858800Y-102099999D02*
X146896895Y-102199999D01*
X146896895Y-102199999D02*
X146896895Y-102366666D01*
X146896895Y-102366666D02*
X146858800Y-102433332D01*
X146858800Y-102433332D02*
X146820704Y-102466666D01*
X146820704Y-102466666D02*
X146744514Y-102499999D01*
X146744514Y-102499999D02*
X146668323Y-102499999D01*
X146668323Y-102499999D02*
X146592133Y-102466666D01*
X146592133Y-102466666D02*
X146554038Y-102433332D01*
X146554038Y-102433332D02*
X146515942Y-102366666D01*
X146515942Y-102366666D02*
X146477847Y-102233332D01*
X146477847Y-102233332D02*
X146439752Y-102166666D01*
X146439752Y-102166666D02*
X146401657Y-102133332D01*
X146401657Y-102133332D02*
X146325466Y-102099999D01*
X146325466Y-102099999D02*
X146249276Y-102099999D01*
X146249276Y-102099999D02*
X146173085Y-102133332D01*
X146173085Y-102133332D02*
X146134990Y-102166666D01*
X146134990Y-102166666D02*
X146096895Y-102233332D01*
X146096895Y-102233332D02*
X146096895Y-102399999D01*
X146096895Y-102399999D02*
X146134990Y-102499999D01*
X146668323Y-102766666D02*
X146668323Y-103099999D01*
X146896895Y-102699999D02*
X146096895Y-102933333D01*
X146096895Y-102933333D02*
X146896895Y-103166666D01*
X146477847Y-103399999D02*
X146477847Y-103633333D01*
X146896895Y-103733333D02*
X146896895Y-103399999D01*
X146896895Y-103399999D02*
X146096895Y-103399999D01*
X146096895Y-103399999D02*
X146096895Y-103733333D01*
M02*
