%TF.GenerationSoftware,KiCad,Pcbnew,9.0.5*%
%TF.CreationDate,2025-10-16T21:30:04-04:00*%
%TF.ProjectId,SuspensionHallSensor,53757370-656e-4736-996f-6e48616c6c53,rev?*%
%TF.SameCoordinates,Original*%
%TF.FileFunction,Copper,L2,Bot*%
%TF.FilePolarity,Positive*%
%FSLAX46Y46*%
G04 Gerber Fmt 4.6, Leading zero omitted, Abs format (unit mm)*
G04 Created by KiCad (PCBNEW 9.0.5) date 2025-10-16 21:30:04*
%MOMM*%
%LPD*%
G01*
G04 APERTURE LIST*
%TA.AperFunction,ComponentPad*%
%ADD10R,1.700000X1.700000*%
%TD*%
%TA.AperFunction,ComponentPad*%
%ADD11O,1.700000X1.700000*%
%TD*%
%TA.AperFunction,ViaPad*%
%ADD12C,0.600000*%
%TD*%
%TA.AperFunction,Conductor*%
%ADD13C,0.200000*%
%TD*%
G04 APERTURE END LIST*
D10*
%TO.P,J1,1,Pin_1*%
%TO.N,GND*%
X147920000Y-98000000D03*
D11*
%TO.P,J1,2,Pin_2*%
%TO.N,Net-(J1-Pin_2)*%
X150460000Y-98000000D03*
%TO.P,J1,3,Pin_3*%
%TO.N,+5V*%
X153000000Y-98000000D03*
%TD*%
D12*
%TO.N,GND*%
X151500000Y-106000000D03*
%TD*%
D13*
%TO.N,GND*%
X149500000Y-106000000D02*
X147920000Y-104420000D01*
X147920000Y-104420000D02*
X147920000Y-98000000D01*
X151500000Y-106000000D02*
X149500000Y-106000000D01*
%TD*%
%TA.AperFunction,Conductor*%
%TO.N,GND*%
G36*
X160942539Y-96020185D02*
G01*
X160988294Y-96072989D01*
X160999500Y-96124500D01*
X160999500Y-106875500D01*
X160979815Y-106942539D01*
X160927011Y-106988294D01*
X160875500Y-106999500D01*
X140124500Y-106999500D01*
X140057461Y-106979815D01*
X140011706Y-106927011D01*
X140000500Y-106875500D01*
X140000500Y-104901577D01*
X140749500Y-104901577D01*
X140749500Y-105098422D01*
X140780290Y-105292826D01*
X140841117Y-105480029D01*
X140930476Y-105655405D01*
X141046172Y-105814646D01*
X141185354Y-105953828D01*
X141344595Y-106069524D01*
X141427455Y-106111743D01*
X141519970Y-106158882D01*
X141519972Y-106158882D01*
X141519975Y-106158884D01*
X141620317Y-106191487D01*
X141707173Y-106219709D01*
X141901578Y-106250500D01*
X141901583Y-106250500D01*
X142098422Y-106250500D01*
X142292826Y-106219709D01*
X142480025Y-106158884D01*
X142655405Y-106069524D01*
X142814646Y-105953828D01*
X142953828Y-105814646D01*
X143069524Y-105655405D01*
X143158884Y-105480025D01*
X143219709Y-105292826D01*
X143250500Y-105098422D01*
X143250500Y-104901577D01*
X157749500Y-104901577D01*
X157749500Y-105098422D01*
X157780290Y-105292826D01*
X157841117Y-105480029D01*
X157930476Y-105655405D01*
X158046172Y-105814646D01*
X158185354Y-105953828D01*
X158344595Y-106069524D01*
X158427455Y-106111743D01*
X158519970Y-106158882D01*
X158519972Y-106158882D01*
X158519975Y-106158884D01*
X158620317Y-106191487D01*
X158707173Y-106219709D01*
X158901578Y-106250500D01*
X158901583Y-106250500D01*
X159098422Y-106250500D01*
X159292826Y-106219709D01*
X159480025Y-106158884D01*
X159655405Y-106069524D01*
X159814646Y-105953828D01*
X159953828Y-105814646D01*
X160069524Y-105655405D01*
X160158884Y-105480025D01*
X160219709Y-105292826D01*
X160250500Y-105098422D01*
X160250500Y-104901577D01*
X160219709Y-104707173D01*
X160158882Y-104519970D01*
X160069523Y-104344594D01*
X159953828Y-104185354D01*
X159814646Y-104046172D01*
X159655405Y-103930476D01*
X159480029Y-103841117D01*
X159292826Y-103780290D01*
X159098422Y-103749500D01*
X159098417Y-103749500D01*
X158901583Y-103749500D01*
X158901578Y-103749500D01*
X158707173Y-103780290D01*
X158519970Y-103841117D01*
X158344594Y-103930476D01*
X158253741Y-103996485D01*
X158185354Y-104046172D01*
X158185352Y-104046174D01*
X158185351Y-104046174D01*
X158046174Y-104185351D01*
X158046174Y-104185352D01*
X158046172Y-104185354D01*
X157996485Y-104253741D01*
X157930476Y-104344594D01*
X157841117Y-104519970D01*
X157780290Y-104707173D01*
X157749500Y-104901577D01*
X143250500Y-104901577D01*
X143219709Y-104707173D01*
X143158882Y-104519970D01*
X143069523Y-104344594D01*
X142953828Y-104185354D01*
X142814646Y-104046172D01*
X142655405Y-103930476D01*
X142480029Y-103841117D01*
X142292826Y-103780290D01*
X142098422Y-103749500D01*
X142098417Y-103749500D01*
X141901583Y-103749500D01*
X141901578Y-103749500D01*
X141707173Y-103780290D01*
X141519970Y-103841117D01*
X141344594Y-103930476D01*
X141253741Y-103996485D01*
X141185354Y-104046172D01*
X141185352Y-104046174D01*
X141185351Y-104046174D01*
X141046174Y-104185351D01*
X141046174Y-104185352D01*
X141046172Y-104185354D01*
X140996485Y-104253741D01*
X140930476Y-104344594D01*
X140841117Y-104519970D01*
X140780290Y-104707173D01*
X140749500Y-104901577D01*
X140000500Y-104901577D01*
X140000500Y-97901577D01*
X140749500Y-97901577D01*
X140749500Y-98098422D01*
X140780290Y-98292826D01*
X140841117Y-98480029D01*
X140918277Y-98631463D01*
X140930476Y-98655405D01*
X141046172Y-98814646D01*
X141185354Y-98953828D01*
X141344595Y-99069524D01*
X141427455Y-99111743D01*
X141519970Y-99158882D01*
X141519972Y-99158882D01*
X141519975Y-99158884D01*
X141620317Y-99191487D01*
X141707173Y-99219709D01*
X141901578Y-99250500D01*
X141901583Y-99250500D01*
X142098422Y-99250500D01*
X142292826Y-99219709D01*
X142331355Y-99207190D01*
X142480025Y-99158884D01*
X142655405Y-99069524D01*
X142814646Y-98953828D01*
X142953828Y-98814646D01*
X143069524Y-98655405D01*
X143158884Y-98480025D01*
X143219709Y-98292826D01*
X143226492Y-98250000D01*
X143237700Y-98179240D01*
X143250500Y-98098422D01*
X143250500Y-97901577D01*
X143219709Y-97707173D01*
X143158882Y-97519970D01*
X143081722Y-97368536D01*
X143069524Y-97344595D01*
X142953828Y-97185354D01*
X142870629Y-97102155D01*
X146570000Y-97102155D01*
X146570000Y-97750000D01*
X147486988Y-97750000D01*
X147454075Y-97807007D01*
X147420000Y-97934174D01*
X147420000Y-98065826D01*
X147454075Y-98192993D01*
X147486988Y-98250000D01*
X146570000Y-98250000D01*
X146570000Y-98897844D01*
X146576401Y-98957372D01*
X146576403Y-98957379D01*
X146626645Y-99092086D01*
X146626649Y-99092093D01*
X146712809Y-99207187D01*
X146712812Y-99207190D01*
X146827906Y-99293350D01*
X146827913Y-99293354D01*
X146962620Y-99343596D01*
X146962627Y-99343598D01*
X147022155Y-99349999D01*
X147022172Y-99350000D01*
X147670000Y-99350000D01*
X147670000Y-98433012D01*
X147727007Y-98465925D01*
X147854174Y-98500000D01*
X147985826Y-98500000D01*
X148112993Y-98465925D01*
X148170000Y-98433012D01*
X148170000Y-99350000D01*
X148817828Y-99350000D01*
X148817844Y-99349999D01*
X148877372Y-99343598D01*
X148877379Y-99343596D01*
X149012086Y-99293354D01*
X149012093Y-99293350D01*
X149127187Y-99207190D01*
X149127190Y-99207187D01*
X149213350Y-99092093D01*
X149213354Y-99092086D01*
X149262422Y-98960529D01*
X149304293Y-98904595D01*
X149369757Y-98880178D01*
X149438030Y-98895030D01*
X149466285Y-98916181D01*
X149580213Y-99030109D01*
X149752179Y-99155048D01*
X149752181Y-99155049D01*
X149752184Y-99155051D01*
X149941588Y-99251557D01*
X150143757Y-99317246D01*
X150353713Y-99350500D01*
X150353714Y-99350500D01*
X150566286Y-99350500D01*
X150566287Y-99350500D01*
X150776243Y-99317246D01*
X150978412Y-99251557D01*
X151167816Y-99155051D01*
X151254471Y-99092093D01*
X151339786Y-99030109D01*
X151339788Y-99030106D01*
X151339792Y-99030104D01*
X151490104Y-98879792D01*
X151490106Y-98879788D01*
X151490109Y-98879786D01*
X151615048Y-98707820D01*
X151615047Y-98707820D01*
X151615051Y-98707816D01*
X151619514Y-98699054D01*
X151667488Y-98648259D01*
X151735308Y-98631463D01*
X151801444Y-98653999D01*
X151840486Y-98699056D01*
X151844951Y-98707820D01*
X151969890Y-98879786D01*
X152120213Y-99030109D01*
X152292179Y-99155048D01*
X152292181Y-99155049D01*
X152292184Y-99155051D01*
X152481588Y-99251557D01*
X152683757Y-99317246D01*
X152893713Y-99350500D01*
X152893714Y-99350500D01*
X153106286Y-99350500D01*
X153106287Y-99350500D01*
X153316243Y-99317246D01*
X153518412Y-99251557D01*
X153707816Y-99155051D01*
X153794471Y-99092093D01*
X153879786Y-99030109D01*
X153879788Y-99030106D01*
X153879792Y-99030104D01*
X154030104Y-98879792D01*
X154030106Y-98879788D01*
X154030109Y-98879786D01*
X154155048Y-98707820D01*
X154155047Y-98707820D01*
X154155051Y-98707816D01*
X154251557Y-98518412D01*
X154317246Y-98316243D01*
X154350500Y-98106287D01*
X154350500Y-97901577D01*
X157749500Y-97901577D01*
X157749500Y-98098422D01*
X157780290Y-98292826D01*
X157841117Y-98480029D01*
X157918277Y-98631463D01*
X157930476Y-98655405D01*
X158046172Y-98814646D01*
X158185354Y-98953828D01*
X158344595Y-99069524D01*
X158427455Y-99111743D01*
X158519970Y-99158882D01*
X158519972Y-99158882D01*
X158519975Y-99158884D01*
X158620317Y-99191487D01*
X158707173Y-99219709D01*
X158901578Y-99250500D01*
X158901583Y-99250500D01*
X159098422Y-99250500D01*
X159292826Y-99219709D01*
X159331355Y-99207190D01*
X159480025Y-99158884D01*
X159655405Y-99069524D01*
X159814646Y-98953828D01*
X159953828Y-98814646D01*
X160069524Y-98655405D01*
X160158884Y-98480025D01*
X160219709Y-98292826D01*
X160235521Y-98192993D01*
X160250500Y-98098422D01*
X160250500Y-97901577D01*
X160219709Y-97707173D01*
X160158882Y-97519970D01*
X160081722Y-97368536D01*
X160069524Y-97344595D01*
X159953828Y-97185354D01*
X159814646Y-97046172D01*
X159655405Y-96930476D01*
X159480029Y-96841117D01*
X159292826Y-96780290D01*
X159098422Y-96749500D01*
X159098417Y-96749500D01*
X158901583Y-96749500D01*
X158901578Y-96749500D01*
X158707173Y-96780290D01*
X158519970Y-96841117D01*
X158344594Y-96930476D01*
X158290338Y-96969896D01*
X158185354Y-97046172D01*
X158185352Y-97046174D01*
X158185351Y-97046174D01*
X158046174Y-97185351D01*
X158046174Y-97185352D01*
X158046172Y-97185354D01*
X157996485Y-97253741D01*
X157930476Y-97344594D01*
X157841117Y-97519970D01*
X157780290Y-97707173D01*
X157749500Y-97901577D01*
X154350500Y-97901577D01*
X154350500Y-97893713D01*
X154317246Y-97683757D01*
X154251557Y-97481588D01*
X154155051Y-97292184D01*
X154155049Y-97292181D01*
X154155048Y-97292179D01*
X154030109Y-97120213D01*
X153879786Y-96969890D01*
X153707820Y-96844951D01*
X153518414Y-96748444D01*
X153518413Y-96748443D01*
X153518412Y-96748443D01*
X153316243Y-96682754D01*
X153316241Y-96682753D01*
X153316240Y-96682753D01*
X153154957Y-96657208D01*
X153106287Y-96649500D01*
X152893713Y-96649500D01*
X152845042Y-96657208D01*
X152683760Y-96682753D01*
X152481585Y-96748444D01*
X152292179Y-96844951D01*
X152120213Y-96969890D01*
X151969890Y-97120213D01*
X151844949Y-97292182D01*
X151840484Y-97300946D01*
X151792509Y-97351742D01*
X151724688Y-97368536D01*
X151658553Y-97345998D01*
X151619516Y-97300946D01*
X151615050Y-97292182D01*
X151490109Y-97120213D01*
X151339786Y-96969890D01*
X151167820Y-96844951D01*
X150978414Y-96748444D01*
X150978413Y-96748443D01*
X150978412Y-96748443D01*
X150776243Y-96682754D01*
X150776241Y-96682753D01*
X150776240Y-96682753D01*
X150614957Y-96657208D01*
X150566287Y-96649500D01*
X150353713Y-96649500D01*
X150305042Y-96657208D01*
X150143760Y-96682753D01*
X149941585Y-96748444D01*
X149752179Y-96844951D01*
X149580215Y-96969889D01*
X149466285Y-97083819D01*
X149404962Y-97117303D01*
X149335270Y-97112319D01*
X149279337Y-97070447D01*
X149262422Y-97039470D01*
X149213354Y-96907913D01*
X149213350Y-96907906D01*
X149127190Y-96792812D01*
X149127187Y-96792809D01*
X149012093Y-96706649D01*
X149012086Y-96706645D01*
X148877379Y-96656403D01*
X148877372Y-96656401D01*
X148817844Y-96650000D01*
X148170000Y-96650000D01*
X148170000Y-97566988D01*
X148112993Y-97534075D01*
X147985826Y-97500000D01*
X147854174Y-97500000D01*
X147727007Y-97534075D01*
X147670000Y-97566988D01*
X147670000Y-96650000D01*
X147022155Y-96650000D01*
X146962627Y-96656401D01*
X146962620Y-96656403D01*
X146827913Y-96706645D01*
X146827906Y-96706649D01*
X146712812Y-96792809D01*
X146712809Y-96792812D01*
X146626649Y-96907906D01*
X146626645Y-96907913D01*
X146576403Y-97042620D01*
X146576401Y-97042627D01*
X146570000Y-97102155D01*
X142870629Y-97102155D01*
X142814646Y-97046172D01*
X142655405Y-96930476D01*
X142480029Y-96841117D01*
X142292826Y-96780290D01*
X142098422Y-96749500D01*
X142098417Y-96749500D01*
X141901583Y-96749500D01*
X141901578Y-96749500D01*
X141707173Y-96780290D01*
X141519970Y-96841117D01*
X141344594Y-96930476D01*
X141290338Y-96969896D01*
X141185354Y-97046172D01*
X141185352Y-97046174D01*
X141185351Y-97046174D01*
X141046174Y-97185351D01*
X141046174Y-97185352D01*
X141046172Y-97185354D01*
X140996485Y-97253741D01*
X140930476Y-97344594D01*
X140841117Y-97519970D01*
X140780290Y-97707173D01*
X140749500Y-97901577D01*
X140000500Y-97901577D01*
X140000500Y-96124500D01*
X140020185Y-96057461D01*
X140072989Y-96011706D01*
X140124500Y-96000500D01*
X160875500Y-96000500D01*
X160942539Y-96020185D01*
G37*
%TD.AperFunction*%
%TD*%
M02*
