%TF.GenerationSoftware,KiCad,Pcbnew,9.0.5*%
%TF.CreationDate,2025-10-16T21:30:04-04:00*%
%TF.ProjectId,SuspensionHallSensor,53757370-656e-4736-996f-6e48616c6c53,rev?*%
%TF.SameCoordinates,Original*%
%TF.FileFunction,Copper,L1,Top*%
%TF.FilePolarity,Positive*%
%FSLAX46Y46*%
G04 Gerber Fmt 4.6, Leading zero omitted, Abs format (unit mm)*
G04 Created by KiCad (PCBNEW 9.0.5) date 2025-10-16 21:30:04*
%MOMM*%
%LPD*%
G01*
G04 APERTURE LIST*
G04 Aperture macros list*
%AMRoundRect*
0 Rectangle with rounded corners*
0 $1 Rounding radius*
0 $2 $3 $4 $5 $6 $7 $8 $9 X,Y pos of 4 corners*
0 Add a 4 corners polygon primitive as box body*
4,1,4,$2,$3,$4,$5,$6,$7,$8,$9,$2,$3,0*
0 Add four circle primitives for the rounded corners*
1,1,$1+$1,$2,$3*
1,1,$1+$1,$4,$5*
1,1,$1+$1,$6,$7*
1,1,$1+$1,$8,$9*
0 Add four rect primitives between the rounded corners*
20,1,$1+$1,$2,$3,$4,$5,0*
20,1,$1+$1,$4,$5,$6,$7,0*
20,1,$1+$1,$6,$7,$8,$9,0*
20,1,$1+$1,$8,$9,$2,$3,0*%
G04 Aperture macros list end*
%TA.AperFunction,SMDPad,CuDef*%
%ADD10RoundRect,0.250000X-0.475000X0.337500X-0.475000X-0.337500X0.475000X-0.337500X0.475000X0.337500X0*%
%TD*%
%TA.AperFunction,SMDPad,CuDef*%
%ADD11RoundRect,0.250000X-0.337500X-0.475000X0.337500X-0.475000X0.337500X0.475000X-0.337500X0.475000X0*%
%TD*%
%TA.AperFunction,SMDPad,CuDef*%
%ADD12RoundRect,0.250000X0.450000X-0.350000X0.450000X0.350000X-0.450000X0.350000X-0.450000X-0.350000X0*%
%TD*%
%TA.AperFunction,SMDPad,CuDef*%
%ADD13RoundRect,0.150000X-0.150000X0.587500X-0.150000X-0.587500X0.150000X-0.587500X0.150000X0.587500X0*%
%TD*%
%TA.AperFunction,ComponentPad*%
%ADD14R,1.700000X1.700000*%
%TD*%
%TA.AperFunction,ComponentPad*%
%ADD15O,1.700000X1.700000*%
%TD*%
%TA.AperFunction,ViaPad*%
%ADD16C,0.600000*%
%TD*%
%TA.AperFunction,Conductor*%
%ADD17C,0.200000*%
%TD*%
G04 APERTURE END LIST*
D10*
%TO.P,C2,1*%
%TO.N,+5V*%
X153500000Y-101925000D03*
%TO.P,C2,2*%
%TO.N,GND*%
X153500000Y-104000000D03*
%TD*%
D11*
%TO.P,C1,1*%
%TO.N,Net-(J1-Pin_2)*%
X147462500Y-106000000D03*
%TO.P,C1,2*%
%TO.N,GND*%
X149537500Y-106000000D03*
%TD*%
D12*
%TO.P,R1,1*%
%TO.N,Net-(U1-OUT)*%
X147500000Y-104000000D03*
%TO.P,R1,2*%
%TO.N,Net-(J1-Pin_2)*%
X147500000Y-102000000D03*
%TD*%
D13*
%TO.P,U1,1,VCC*%
%TO.N,+5V*%
X151450000Y-102062500D03*
%TO.P,U1,2,OUT*%
%TO.N,Net-(U1-OUT)*%
X149550000Y-102062500D03*
%TO.P,U1,3,GND*%
%TO.N,GND*%
X150500000Y-103937500D03*
%TD*%
D14*
%TO.P,J1,1,Pin_1*%
%TO.N,GND*%
X147920000Y-98000000D03*
D15*
%TO.P,J1,2,Pin_2*%
%TO.N,Net-(J1-Pin_2)*%
X150460000Y-98000000D03*
%TO.P,J1,3,Pin_3*%
%TO.N,+5V*%
X153000000Y-98000000D03*
%TD*%
D16*
%TO.N,GND*%
X151500000Y-106000000D03*
%TD*%
D17*
%TO.N,GND*%
X151500000Y-106000000D02*
X152500000Y-106000000D01*
X153500000Y-105000000D02*
X153500000Y-104000000D01*
X152500000Y-106000000D02*
X153500000Y-105000000D01*
X150500000Y-105000000D02*
X151500000Y-106000000D01*
X150500000Y-103937500D02*
X150500000Y-105000000D01*
X151500000Y-106000000D02*
X149537500Y-106000000D01*
%TO.N,Net-(J1-Pin_2)*%
X150460000Y-99540000D02*
X150460000Y-98000000D01*
X147500000Y-102000000D02*
X147500000Y-100500000D01*
X146500000Y-101500000D02*
X147500000Y-100500000D01*
X149500000Y-100500000D02*
X150460000Y-99540000D01*
X147462500Y-106000000D02*
X146500000Y-105000000D01*
X147500000Y-100500000D02*
X149500000Y-100500000D01*
X146500000Y-105000000D02*
X146500000Y-101500000D01*
%TO.N,+5V*%
X153000000Y-98000000D02*
X153500000Y-98500000D01*
X153500000Y-98500000D02*
X153500000Y-101925000D01*
X151587500Y-101925000D02*
X151450000Y-102062500D01*
X153500000Y-101925000D02*
X151587500Y-101925000D01*
%TO.N,Net-(U1-OUT)*%
X149550000Y-102062500D02*
X149550000Y-102394444D01*
X149550000Y-103006250D02*
X148556250Y-104000000D01*
X149550000Y-102062500D02*
X149550000Y-103006250D01*
X148556250Y-104000000D02*
X147500000Y-104000000D01*
%TD*%
%TA.AperFunction,Conductor*%
%TO.N,GND*%
G36*
X160942539Y-96020185D02*
G01*
X160988294Y-96072989D01*
X160999500Y-96124500D01*
X160999500Y-106875500D01*
X160979815Y-106942539D01*
X160927011Y-106988294D01*
X160875500Y-106999500D01*
X150654854Y-106999500D01*
X150587815Y-106979815D01*
X150542060Y-106927011D01*
X150532116Y-106857853D01*
X150549316Y-106810402D01*
X150559355Y-106794126D01*
X150559358Y-106794119D01*
X150614505Y-106627697D01*
X150614506Y-106627690D01*
X150624999Y-106524986D01*
X150625000Y-106524973D01*
X150625000Y-106250000D01*
X149661500Y-106250000D01*
X149594461Y-106230315D01*
X149548706Y-106177511D01*
X149537500Y-106126000D01*
X149537500Y-106000000D01*
X149411500Y-106000000D01*
X149344461Y-105980315D01*
X149298706Y-105927511D01*
X149287500Y-105876000D01*
X149287500Y-104775000D01*
X149150027Y-104775000D01*
X149150012Y-104775001D01*
X149047302Y-104785494D01*
X148880880Y-104840641D01*
X148880871Y-104840645D01*
X148758460Y-104916149D01*
X148754878Y-104917128D01*
X148752241Y-104919740D01*
X148721445Y-104926277D01*
X148691068Y-104934589D01*
X148687525Y-104933477D01*
X148683895Y-104934248D01*
X148654450Y-104923096D01*
X148624404Y-104913666D01*
X148622025Y-104910815D01*
X148618554Y-104909501D01*
X148599813Y-104884201D01*
X148579635Y-104860024D01*
X148579174Y-104856340D01*
X148576965Y-104853357D01*
X148574876Y-104821935D01*
X148570974Y-104790693D01*
X148572506Y-104786264D01*
X148572332Y-104783641D01*
X148579612Y-104765725D01*
X148584833Y-104750635D01*
X148586258Y-104748056D01*
X148634814Y-104669334D01*
X148642382Y-104646491D01*
X148647942Y-104636432D01*
X148664928Y-104619615D01*
X148678536Y-104599961D01*
X148691391Y-104593419D01*
X148694189Y-104590649D01*
X149700000Y-104590649D01*
X149702899Y-104627489D01*
X149702900Y-104627492D01*
X149707986Y-104644998D01*
X149737951Y-104667496D01*
X149779743Y-104723489D01*
X149787500Y-104766658D01*
X149787500Y-105750000D01*
X150624999Y-105750000D01*
X150624999Y-105475028D01*
X150624998Y-105475013D01*
X150614505Y-105372301D01*
X150603105Y-105337898D01*
X150600702Y-105268069D01*
X150636433Y-105208027D01*
X150698953Y-105176834D01*
X150713222Y-105175286D01*
X150713215Y-105175191D01*
X150752489Y-105172100D01*
X150752495Y-105172099D01*
X150910193Y-105126283D01*
X150910196Y-105126282D01*
X151051552Y-105042685D01*
X151051561Y-105042678D01*
X151167678Y-104926561D01*
X151167685Y-104926552D01*
X151251282Y-104785196D01*
X151251283Y-104785193D01*
X151297099Y-104627495D01*
X151297100Y-104627489D01*
X151299999Y-104590649D01*
X151300000Y-104590634D01*
X151300000Y-104387486D01*
X152275001Y-104387486D01*
X152285494Y-104490197D01*
X152340641Y-104656619D01*
X152340643Y-104656624D01*
X152432684Y-104805845D01*
X152556654Y-104929815D01*
X152705875Y-105021856D01*
X152705880Y-105021858D01*
X152872302Y-105077005D01*
X152872309Y-105077006D01*
X152975019Y-105087499D01*
X153249999Y-105087499D01*
X153750000Y-105087499D01*
X154024972Y-105087499D01*
X154024986Y-105087498D01*
X154127697Y-105077005D01*
X154294119Y-105021858D01*
X154294124Y-105021856D01*
X154443345Y-104929815D01*
X154471583Y-104901577D01*
X157749500Y-104901577D01*
X157749500Y-105098422D01*
X157780290Y-105292826D01*
X157841117Y-105480029D01*
X157930476Y-105655405D01*
X158046172Y-105814646D01*
X158185354Y-105953828D01*
X158344595Y-106069524D01*
X158427455Y-106111743D01*
X158519970Y-106158882D01*
X158519972Y-106158882D01*
X158519975Y-106158884D01*
X158577303Y-106177511D01*
X158707173Y-106219709D01*
X158901578Y-106250500D01*
X158901583Y-106250500D01*
X159098422Y-106250500D01*
X159292826Y-106219709D01*
X159480025Y-106158884D01*
X159655405Y-106069524D01*
X159814646Y-105953828D01*
X159953828Y-105814646D01*
X160069524Y-105655405D01*
X160158884Y-105480025D01*
X160219709Y-105292826D01*
X160229378Y-105231780D01*
X160250500Y-105098422D01*
X160250500Y-104901577D01*
X160219709Y-104707173D01*
X160182916Y-104593938D01*
X160158884Y-104519975D01*
X160158882Y-104519972D01*
X160158882Y-104519970D01*
X160081814Y-104368716D01*
X160069524Y-104344595D01*
X159953828Y-104185354D01*
X159814646Y-104046172D01*
X159655405Y-103930476D01*
X159480029Y-103841117D01*
X159292826Y-103780290D01*
X159098422Y-103749500D01*
X159098417Y-103749500D01*
X158901583Y-103749500D01*
X158901578Y-103749500D01*
X158707173Y-103780290D01*
X158519970Y-103841117D01*
X158344594Y-103930476D01*
X158253741Y-103996485D01*
X158185354Y-104046172D01*
X158185352Y-104046174D01*
X158185351Y-104046174D01*
X158046174Y-104185351D01*
X158046174Y-104185352D01*
X158046172Y-104185354D01*
X158044613Y-104187500D01*
X157930476Y-104344594D01*
X157841117Y-104519970D01*
X157780290Y-104707173D01*
X157749500Y-104901577D01*
X154471583Y-104901577D01*
X154564131Y-104809030D01*
X154567315Y-104805845D01*
X154659356Y-104656624D01*
X154659358Y-104656619D01*
X154714505Y-104490197D01*
X154714506Y-104490190D01*
X154724999Y-104387486D01*
X154725000Y-104387473D01*
X154725000Y-104250000D01*
X153750000Y-104250000D01*
X153750000Y-105087499D01*
X153249999Y-105087499D01*
X153250000Y-105087498D01*
X153250000Y-104250000D01*
X152275001Y-104250000D01*
X152275001Y-104387486D01*
X151300000Y-104387486D01*
X151300000Y-104187500D01*
X149700000Y-104187500D01*
X149700000Y-104590649D01*
X148694189Y-104590649D01*
X148697596Y-104587277D01*
X148707660Y-104585140D01*
X148724377Y-104576633D01*
X148788035Y-104559577D01*
X148856627Y-104519975D01*
X148924966Y-104480520D01*
X149036770Y-104368716D01*
X149036770Y-104368714D01*
X149046974Y-104358511D01*
X149046977Y-104358506D01*
X149681666Y-103723818D01*
X149742989Y-103690334D01*
X149769347Y-103687500D01*
X150250000Y-103687500D01*
X150250000Y-103031814D01*
X150267267Y-102968694D01*
X150301744Y-102910398D01*
X150347598Y-102752569D01*
X150350500Y-102715694D01*
X150350500Y-101409306D01*
X150347598Y-101372431D01*
X150317320Y-101268215D01*
X150301745Y-101214604D01*
X150300153Y-101211911D01*
X150218081Y-101073135D01*
X150218079Y-101073133D01*
X150218076Y-101073129D01*
X150101870Y-100956923D01*
X150095702Y-100952139D01*
X150097671Y-100949599D01*
X150060080Y-100909306D01*
X150047604Y-100840560D01*
X150074276Y-100775981D01*
X150083217Y-100766016D01*
X150828713Y-100020521D01*
X150828716Y-100020520D01*
X150940520Y-99908716D01*
X150990639Y-99821904D01*
X151019577Y-99771785D01*
X151060501Y-99619057D01*
X151060501Y-99460943D01*
X151060501Y-99453348D01*
X151060500Y-99453330D01*
X151060500Y-99285718D01*
X151080185Y-99218679D01*
X151128207Y-99175233D01*
X151167815Y-99155052D01*
X151167815Y-99155051D01*
X151167816Y-99155051D01*
X151285536Y-99069523D01*
X151339786Y-99030109D01*
X151339788Y-99030106D01*
X151339792Y-99030104D01*
X151490104Y-98879792D01*
X151490106Y-98879788D01*
X151490109Y-98879786D01*
X151615048Y-98707820D01*
X151615050Y-98707817D01*
X151615051Y-98707816D01*
X151619514Y-98699054D01*
X151667488Y-98648259D01*
X151735308Y-98631463D01*
X151801444Y-98653999D01*
X151840486Y-98699056D01*
X151844951Y-98707820D01*
X151969890Y-98879786D01*
X152120213Y-99030109D01*
X152292179Y-99155048D01*
X152292181Y-99155049D01*
X152292184Y-99155051D01*
X152481588Y-99251557D01*
X152683757Y-99317246D01*
X152794898Y-99334849D01*
X152858033Y-99364778D01*
X152894964Y-99424090D01*
X152899500Y-99457322D01*
X152899500Y-100748914D01*
X152879815Y-100815953D01*
X152827011Y-100861708D01*
X152814505Y-100866620D01*
X152705666Y-100902686D01*
X152705663Y-100902687D01*
X152556342Y-100994789D01*
X152432289Y-101118842D01*
X152393452Y-101181808D01*
X152341504Y-101228532D01*
X152272541Y-101239755D01*
X152208459Y-101211911D01*
X152181181Y-101179832D01*
X152145112Y-101118842D01*
X152118081Y-101073135D01*
X152118079Y-101073133D01*
X152118076Y-101073129D01*
X152001870Y-100956923D01*
X152001862Y-100956917D01*
X151860396Y-100873255D01*
X151860393Y-100873254D01*
X151702573Y-100827402D01*
X151702567Y-100827401D01*
X151665701Y-100824500D01*
X151665694Y-100824500D01*
X151234306Y-100824500D01*
X151234298Y-100824500D01*
X151197432Y-100827401D01*
X151197426Y-100827402D01*
X151039606Y-100873254D01*
X151039603Y-100873255D01*
X150898137Y-100956917D01*
X150898129Y-100956923D01*
X150781923Y-101073129D01*
X150781917Y-101073137D01*
X150698254Y-101214604D01*
X150652402Y-101372426D01*
X150652401Y-101372432D01*
X150649500Y-101409298D01*
X150649500Y-102715701D01*
X150652401Y-102752567D01*
X150652402Y-102752573D01*
X150698254Y-102910393D01*
X150698255Y-102910396D01*
X150698256Y-102910398D01*
X150732732Y-102968694D01*
X150750000Y-103031814D01*
X150750000Y-103687500D01*
X151300000Y-103687500D01*
X151300000Y-103424500D01*
X151319685Y-103357461D01*
X151372489Y-103311706D01*
X151424000Y-103300500D01*
X151665686Y-103300500D01*
X151665694Y-103300500D01*
X151702569Y-103297598D01*
X151702571Y-103297597D01*
X151702573Y-103297597D01*
X151744191Y-103285505D01*
X151860398Y-103251744D01*
X152001865Y-103168081D01*
X152118081Y-103051865D01*
X152201744Y-102910398D01*
X152235500Y-102794211D01*
X152237307Y-102791380D01*
X152237474Y-102788025D01*
X152255980Y-102762141D01*
X152273106Y-102735325D01*
X152276157Y-102733920D01*
X152278111Y-102731189D01*
X152307666Y-102719422D01*
X152336578Y-102706119D01*
X152339904Y-102706587D01*
X152343026Y-102705345D01*
X152374255Y-102711426D01*
X152405765Y-102715865D01*
X152409290Y-102718248D01*
X152411607Y-102718700D01*
X152431685Y-102733390D01*
X152440318Y-102739227D01*
X152441275Y-102740143D01*
X152556344Y-102855212D01*
X152570825Y-102864143D01*
X152580301Y-102873214D01*
X152591436Y-102892586D01*
X152606379Y-102909199D01*
X152608509Y-102922291D01*
X152615119Y-102933790D01*
X152614013Y-102956104D01*
X152617603Y-102978161D01*
X152612317Y-102990326D01*
X152611661Y-103003574D01*
X152598664Y-103021751D01*
X152589761Y-103042244D01*
X152574648Y-103055341D01*
X152571024Y-103060410D01*
X152566908Y-103062048D01*
X152559665Y-103068326D01*
X152556660Y-103070179D01*
X152556655Y-103070183D01*
X152432684Y-103194154D01*
X152340643Y-103343375D01*
X152340641Y-103343380D01*
X152285494Y-103509802D01*
X152285493Y-103509809D01*
X152275000Y-103612513D01*
X152275000Y-103750000D01*
X154724999Y-103750000D01*
X154724999Y-103612528D01*
X154724998Y-103612513D01*
X154714505Y-103509802D01*
X154659358Y-103343380D01*
X154659356Y-103343375D01*
X154567315Y-103194154D01*
X154443344Y-103070183D01*
X154443341Y-103070181D01*
X154440339Y-103068329D01*
X154438713Y-103066521D01*
X154437677Y-103065702D01*
X154437817Y-103065524D01*
X154393617Y-103016380D01*
X154382397Y-102947417D01*
X154410243Y-102883336D01*
X154440344Y-102857254D01*
X154443656Y-102855212D01*
X154567712Y-102731156D01*
X154659814Y-102581834D01*
X154714999Y-102415297D01*
X154725500Y-102312509D01*
X154725499Y-101537492D01*
X154721383Y-101497203D01*
X154714999Y-101434703D01*
X154714998Y-101434700D01*
X154710439Y-101420943D01*
X154659814Y-101268166D01*
X154567712Y-101118844D01*
X154443656Y-100994788D01*
X154294334Y-100902686D01*
X154233301Y-100882461D01*
X154185495Y-100866620D01*
X154128050Y-100826847D01*
X154101228Y-100762331D01*
X154100500Y-100748914D01*
X154100500Y-98823188D01*
X154120185Y-98756149D01*
X154124169Y-98750320D01*
X154155051Y-98707816D01*
X154251557Y-98518412D01*
X154317246Y-98316243D01*
X154350500Y-98106287D01*
X154350500Y-97901577D01*
X157749500Y-97901577D01*
X157749500Y-98098422D01*
X157780290Y-98292826D01*
X157841117Y-98480029D01*
X157918277Y-98631463D01*
X157930476Y-98655405D01*
X158046172Y-98814646D01*
X158185354Y-98953828D01*
X158344595Y-99069524D01*
X158427455Y-99111743D01*
X158519970Y-99158882D01*
X158519972Y-99158882D01*
X158519975Y-99158884D01*
X158570292Y-99175233D01*
X158707173Y-99219709D01*
X158901578Y-99250500D01*
X158901583Y-99250500D01*
X159098422Y-99250500D01*
X159292826Y-99219709D01*
X159331355Y-99207190D01*
X159480025Y-99158884D01*
X159655405Y-99069524D01*
X159814646Y-98953828D01*
X159953828Y-98814646D01*
X160069524Y-98655405D01*
X160158884Y-98480025D01*
X160219709Y-98292826D01*
X160235521Y-98192993D01*
X160250500Y-98098422D01*
X160250500Y-97901577D01*
X160219709Y-97707173D01*
X160158882Y-97519970D01*
X160081722Y-97368536D01*
X160069524Y-97344595D01*
X159953828Y-97185354D01*
X159814646Y-97046172D01*
X159655405Y-96930476D01*
X159480029Y-96841117D01*
X159292826Y-96780290D01*
X159098422Y-96749500D01*
X159098417Y-96749500D01*
X158901583Y-96749500D01*
X158901578Y-96749500D01*
X158707173Y-96780290D01*
X158519970Y-96841117D01*
X158344594Y-96930476D01*
X158290338Y-96969896D01*
X158185354Y-97046172D01*
X158185352Y-97046174D01*
X158185351Y-97046174D01*
X158046174Y-97185351D01*
X158046174Y-97185352D01*
X158046172Y-97185354D01*
X157996485Y-97253741D01*
X157930476Y-97344594D01*
X157841117Y-97519970D01*
X157780290Y-97707173D01*
X157749500Y-97901577D01*
X154350500Y-97901577D01*
X154350500Y-97893713D01*
X154317246Y-97683757D01*
X154251557Y-97481588D01*
X154155051Y-97292184D01*
X154155049Y-97292181D01*
X154155048Y-97292179D01*
X154030109Y-97120213D01*
X153879786Y-96969890D01*
X153707820Y-96844951D01*
X153518414Y-96748444D01*
X153518413Y-96748443D01*
X153518412Y-96748443D01*
X153316243Y-96682754D01*
X153316241Y-96682753D01*
X153316240Y-96682753D01*
X153154957Y-96657208D01*
X153106287Y-96649500D01*
X152893713Y-96649500D01*
X152845042Y-96657208D01*
X152683760Y-96682753D01*
X152481585Y-96748444D01*
X152292179Y-96844951D01*
X152120213Y-96969890D01*
X151969890Y-97120213D01*
X151844949Y-97292182D01*
X151840484Y-97300946D01*
X151792509Y-97351742D01*
X151724688Y-97368536D01*
X151658553Y-97345998D01*
X151619516Y-97300946D01*
X151615050Y-97292182D01*
X151490109Y-97120213D01*
X151339786Y-96969890D01*
X151167820Y-96844951D01*
X150978414Y-96748444D01*
X150978413Y-96748443D01*
X150978412Y-96748443D01*
X150776243Y-96682754D01*
X150776241Y-96682753D01*
X150776240Y-96682753D01*
X150614957Y-96657208D01*
X150566287Y-96649500D01*
X150353713Y-96649500D01*
X150305042Y-96657208D01*
X150143760Y-96682753D01*
X149941585Y-96748444D01*
X149752179Y-96844951D01*
X149580215Y-96969889D01*
X149466285Y-97083819D01*
X149404962Y-97117303D01*
X149335270Y-97112319D01*
X149279337Y-97070447D01*
X149262422Y-97039470D01*
X149213354Y-96907913D01*
X149213350Y-96907906D01*
X149127190Y-96792812D01*
X149127187Y-96792809D01*
X149012093Y-96706649D01*
X149012086Y-96706645D01*
X148877379Y-96656403D01*
X148877372Y-96656401D01*
X148817844Y-96650000D01*
X148170000Y-96650000D01*
X148170000Y-97566988D01*
X148112993Y-97534075D01*
X147985826Y-97500000D01*
X147854174Y-97500000D01*
X147727007Y-97534075D01*
X147670000Y-97566988D01*
X147670000Y-96650000D01*
X147022155Y-96650000D01*
X146962627Y-96656401D01*
X146962620Y-96656403D01*
X146827913Y-96706645D01*
X146827906Y-96706649D01*
X146712812Y-96792809D01*
X146712809Y-96792812D01*
X146626649Y-96907906D01*
X146626645Y-96907913D01*
X146576403Y-97042620D01*
X146576401Y-97042627D01*
X146570000Y-97102155D01*
X146570000Y-97750000D01*
X147486988Y-97750000D01*
X147454075Y-97807007D01*
X147420000Y-97934174D01*
X147420000Y-98065826D01*
X147454075Y-98192993D01*
X147486988Y-98250000D01*
X146570000Y-98250000D01*
X146570000Y-98897844D01*
X146576401Y-98957372D01*
X146576403Y-98957379D01*
X146626645Y-99092086D01*
X146626649Y-99092093D01*
X146712809Y-99207187D01*
X146712812Y-99207190D01*
X146827906Y-99293350D01*
X146827913Y-99293354D01*
X146962620Y-99343596D01*
X146962627Y-99343598D01*
X147022155Y-99349999D01*
X147022172Y-99350000D01*
X147670000Y-99350000D01*
X147670000Y-98433012D01*
X147727007Y-98465925D01*
X147854174Y-98500000D01*
X147985826Y-98500000D01*
X148112993Y-98465925D01*
X148170000Y-98433012D01*
X148170000Y-99350000D01*
X148817828Y-99350000D01*
X148817844Y-99349999D01*
X148877372Y-99343598D01*
X148877379Y-99343596D01*
X149012086Y-99293354D01*
X149012093Y-99293350D01*
X149127187Y-99207190D01*
X149127190Y-99207187D01*
X149213350Y-99092093D01*
X149213354Y-99092086D01*
X149262422Y-98960529D01*
X149304293Y-98904595D01*
X149369757Y-98880178D01*
X149438030Y-98895030D01*
X149466285Y-98916181D01*
X149580213Y-99030109D01*
X149752182Y-99155050D01*
X149761446Y-99159771D01*
X149812240Y-99207746D01*
X149829034Y-99275568D01*
X149806495Y-99341702D01*
X149792829Y-99357935D01*
X149287584Y-99863181D01*
X149226261Y-99896666D01*
X149199903Y-99899500D01*
X147586670Y-99899500D01*
X147586654Y-99899499D01*
X147579058Y-99899499D01*
X147420943Y-99899499D01*
X147344579Y-99919961D01*
X147268214Y-99940423D01*
X147268209Y-99940426D01*
X147131290Y-100019475D01*
X147131282Y-100019481D01*
X146019481Y-101131282D01*
X146019477Y-101131287D01*
X145971377Y-101214601D01*
X145971376Y-101214600D01*
X145940424Y-101268211D01*
X145940423Y-101268215D01*
X145899499Y-101420943D01*
X145899499Y-101420945D01*
X145899499Y-101589046D01*
X145899500Y-101589059D01*
X145899500Y-104994233D01*
X145898099Y-105067570D01*
X145899500Y-105073228D01*
X145899500Y-105079056D01*
X145918167Y-105148726D01*
X145918758Y-105151018D01*
X145936096Y-105221051D01*
X145938151Y-105226293D01*
X145938172Y-105226346D01*
X145938251Y-105226548D01*
X145938263Y-105226573D01*
X145940420Y-105231780D01*
X145961372Y-105268069D01*
X145977087Y-105295288D01*
X146012524Y-105359468D01*
X146016561Y-105363661D01*
X146019476Y-105368711D01*
X146019482Y-105368719D01*
X146070512Y-105419748D01*
X146072172Y-105421440D01*
X146339840Y-105699537D01*
X146372148Y-105761487D01*
X146374500Y-105785526D01*
X146374500Y-106525001D01*
X146374501Y-106525019D01*
X146385000Y-106627796D01*
X146385001Y-106627799D01*
X146440115Y-106794119D01*
X146440186Y-106794334D01*
X146450098Y-106810404D01*
X146468538Y-106877795D01*
X146447616Y-106944459D01*
X146393974Y-106989229D01*
X146344559Y-106999500D01*
X140124500Y-106999500D01*
X140057461Y-106979815D01*
X140011706Y-106927011D01*
X140000500Y-106875500D01*
X140000500Y-104901577D01*
X140749500Y-104901577D01*
X140749500Y-105098422D01*
X140780290Y-105292826D01*
X140841117Y-105480029D01*
X140930476Y-105655405D01*
X141046172Y-105814646D01*
X141185354Y-105953828D01*
X141344595Y-106069524D01*
X141427455Y-106111743D01*
X141519970Y-106158882D01*
X141519972Y-106158882D01*
X141519975Y-106158884D01*
X141577303Y-106177511D01*
X141707173Y-106219709D01*
X141901578Y-106250500D01*
X141901583Y-106250500D01*
X142098422Y-106250500D01*
X142292826Y-106219709D01*
X142480025Y-106158884D01*
X142655405Y-106069524D01*
X142814646Y-105953828D01*
X142953828Y-105814646D01*
X143069524Y-105655405D01*
X143158884Y-105480025D01*
X143219709Y-105292826D01*
X143229378Y-105231780D01*
X143250500Y-105098422D01*
X143250500Y-104901577D01*
X143219709Y-104707173D01*
X143182916Y-104593938D01*
X143158884Y-104519975D01*
X143158882Y-104519972D01*
X143158882Y-104519970D01*
X143081814Y-104368716D01*
X143069524Y-104344595D01*
X142953828Y-104185354D01*
X142814646Y-104046172D01*
X142655405Y-103930476D01*
X142480029Y-103841117D01*
X142292826Y-103780290D01*
X142098422Y-103749500D01*
X142098417Y-103749500D01*
X141901583Y-103749500D01*
X141901578Y-103749500D01*
X141707173Y-103780290D01*
X141519970Y-103841117D01*
X141344594Y-103930476D01*
X141253741Y-103996485D01*
X141185354Y-104046172D01*
X141185352Y-104046174D01*
X141185351Y-104046174D01*
X141046174Y-104185351D01*
X141046174Y-104185352D01*
X141046172Y-104185354D01*
X141044613Y-104187500D01*
X140930476Y-104344594D01*
X140841117Y-104519970D01*
X140780290Y-104707173D01*
X140749500Y-104901577D01*
X140000500Y-104901577D01*
X140000500Y-97901577D01*
X140749500Y-97901577D01*
X140749500Y-98098422D01*
X140780290Y-98292826D01*
X140841117Y-98480029D01*
X140918277Y-98631463D01*
X140930476Y-98655405D01*
X141046172Y-98814646D01*
X141185354Y-98953828D01*
X141344595Y-99069524D01*
X141427455Y-99111743D01*
X141519970Y-99158882D01*
X141519972Y-99158882D01*
X141519975Y-99158884D01*
X141570292Y-99175233D01*
X141707173Y-99219709D01*
X141901578Y-99250500D01*
X141901583Y-99250500D01*
X142098422Y-99250500D01*
X142292826Y-99219709D01*
X142331355Y-99207190D01*
X142480025Y-99158884D01*
X142655405Y-99069524D01*
X142814646Y-98953828D01*
X142953828Y-98814646D01*
X143069524Y-98655405D01*
X143158884Y-98480025D01*
X143219709Y-98292826D01*
X143226492Y-98250000D01*
X143237700Y-98179240D01*
X143250500Y-98098422D01*
X143250500Y-97901577D01*
X143219709Y-97707173D01*
X143158882Y-97519970D01*
X143081722Y-97368536D01*
X143069524Y-97344595D01*
X142953828Y-97185354D01*
X142814646Y-97046172D01*
X142655405Y-96930476D01*
X142480029Y-96841117D01*
X142292826Y-96780290D01*
X142098422Y-96749500D01*
X142098417Y-96749500D01*
X141901583Y-96749500D01*
X141901578Y-96749500D01*
X141707173Y-96780290D01*
X141519970Y-96841117D01*
X141344594Y-96930476D01*
X141290338Y-96969896D01*
X141185354Y-97046172D01*
X141185352Y-97046174D01*
X141185351Y-97046174D01*
X141046174Y-97185351D01*
X141046174Y-97185352D01*
X141046172Y-97185354D01*
X140996485Y-97253741D01*
X140930476Y-97344594D01*
X140841117Y-97519970D01*
X140780290Y-97707173D01*
X140749500Y-97901577D01*
X140000500Y-97901577D01*
X140000500Y-96124500D01*
X140020185Y-96057461D01*
X140072989Y-96011706D01*
X140124500Y-96000500D01*
X160875500Y-96000500D01*
X160942539Y-96020185D01*
G37*
%TD.AperFunction*%
%TD*%
M02*
