%TF.GenerationSoftware,KiCad,Pcbnew,9.0.5*%
%TF.CreationDate,2025-10-16T21:30:04-04:00*%
%TF.ProjectId,SuspensionHallSensor,53757370-656e-4736-996f-6e48616c6c53,rev?*%
%TF.SameCoordinates,Original*%
%TF.FileFunction,Legend,Top*%
%TF.FilePolarity,Positive*%
%FSLAX46Y46*%
G04 Gerber Fmt 4.6, Leading zero omitted, Abs format (unit mm)*
G04 Created by KiCad (PCBNEW 9.0.5) date 2025-10-16 21:30:04*
%MOMM*%
%LPD*%
G01*
G04 APERTURE LIST*
%ADD10C,0.100000*%
%ADD11C,0.150000*%
%ADD12C,0.120000*%
G04 APERTURE END LIST*
D10*
X155338972Y-100927580D02*
X155005639Y-99927580D01*
X155005639Y-99927580D02*
X154672306Y-100927580D01*
X153767544Y-100022819D02*
X153815163Y-99975200D01*
X153815163Y-99975200D02*
X153958020Y-99927580D01*
X153958020Y-99927580D02*
X154053258Y-99927580D01*
X154053258Y-99927580D02*
X154196115Y-99975200D01*
X154196115Y-99975200D02*
X154291353Y-100070438D01*
X154291353Y-100070438D02*
X154338972Y-100165676D01*
X154338972Y-100165676D02*
X154386591Y-100356152D01*
X154386591Y-100356152D02*
X154386591Y-100499009D01*
X154386591Y-100499009D02*
X154338972Y-100689485D01*
X154338972Y-100689485D02*
X154291353Y-100784723D01*
X154291353Y-100784723D02*
X154196115Y-100879961D01*
X154196115Y-100879961D02*
X154053258Y-100927580D01*
X154053258Y-100927580D02*
X153958020Y-100927580D01*
X153958020Y-100927580D02*
X153815163Y-100879961D01*
X153815163Y-100879961D02*
X153767544Y-100832342D01*
X152767544Y-100022819D02*
X152815163Y-99975200D01*
X152815163Y-99975200D02*
X152958020Y-99927580D01*
X152958020Y-99927580D02*
X153053258Y-99927580D01*
X153053258Y-99927580D02*
X153196115Y-99975200D01*
X153196115Y-99975200D02*
X153291353Y-100070438D01*
X153291353Y-100070438D02*
X153338972Y-100165676D01*
X153338972Y-100165676D02*
X153386591Y-100356152D01*
X153386591Y-100356152D02*
X153386591Y-100499009D01*
X153386591Y-100499009D02*
X153338972Y-100689485D01*
X153338972Y-100689485D02*
X153291353Y-100784723D01*
X153291353Y-100784723D02*
X153196115Y-100879961D01*
X153196115Y-100879961D02*
X153053258Y-100927580D01*
X153053258Y-100927580D02*
X152958020Y-100927580D01*
X152958020Y-100927580D02*
X152815163Y-100879961D01*
X152815163Y-100879961D02*
X152767544Y-100832342D01*
X151386591Y-100927580D02*
X151196115Y-100927580D01*
X151196115Y-100927580D02*
X151100877Y-100879961D01*
X151100877Y-100879961D02*
X151005639Y-100784723D01*
X151005639Y-100784723D02*
X150958020Y-100594247D01*
X150958020Y-100594247D02*
X150958020Y-100260914D01*
X150958020Y-100260914D02*
X151005639Y-100070438D01*
X151005639Y-100070438D02*
X151100877Y-99975200D01*
X151100877Y-99975200D02*
X151196115Y-99927580D01*
X151196115Y-99927580D02*
X151386591Y-99927580D01*
X151386591Y-99927580D02*
X151481829Y-99975200D01*
X151481829Y-99975200D02*
X151577067Y-100070438D01*
X151577067Y-100070438D02*
X151624686Y-100260914D01*
X151624686Y-100260914D02*
X151624686Y-100594247D01*
X151624686Y-100594247D02*
X151577067Y-100784723D01*
X151577067Y-100784723D02*
X151481829Y-100879961D01*
X151481829Y-100879961D02*
X151386591Y-100927580D01*
X150529448Y-100927580D02*
X150529448Y-100118057D01*
X150529448Y-100118057D02*
X150481829Y-100022819D01*
X150481829Y-100022819D02*
X150434210Y-99975200D01*
X150434210Y-99975200D02*
X150338972Y-99927580D01*
X150338972Y-99927580D02*
X150148496Y-99927580D01*
X150148496Y-99927580D02*
X150053258Y-99975200D01*
X150053258Y-99975200D02*
X150005639Y-100022819D01*
X150005639Y-100022819D02*
X149958020Y-100118057D01*
X149958020Y-100118057D02*
X149958020Y-100927580D01*
X149624686Y-100927580D02*
X149053258Y-100927580D01*
X149338972Y-99927580D02*
X149338972Y-100927580D01*
X147434210Y-100879961D02*
X147529448Y-100927580D01*
X147529448Y-100927580D02*
X147672305Y-100927580D01*
X147672305Y-100927580D02*
X147815162Y-100879961D01*
X147815162Y-100879961D02*
X147910400Y-100784723D01*
X147910400Y-100784723D02*
X147958019Y-100689485D01*
X147958019Y-100689485D02*
X148005638Y-100499009D01*
X148005638Y-100499009D02*
X148005638Y-100356152D01*
X148005638Y-100356152D02*
X147958019Y-100165676D01*
X147958019Y-100165676D02*
X147910400Y-100070438D01*
X147910400Y-100070438D02*
X147815162Y-99975200D01*
X147815162Y-99975200D02*
X147672305Y-99927580D01*
X147672305Y-99927580D02*
X147577067Y-99927580D01*
X147577067Y-99927580D02*
X147434210Y-99975200D01*
X147434210Y-99975200D02*
X147386591Y-100022819D01*
X147386591Y-100022819D02*
X147386591Y-100356152D01*
X147386591Y-100356152D02*
X147577067Y-100356152D01*
X146958019Y-99927580D02*
X146958019Y-100927580D01*
X146958019Y-100927580D02*
X146386591Y-99927580D01*
X146386591Y-99927580D02*
X146386591Y-100927580D01*
X145910400Y-99927580D02*
X145910400Y-100927580D01*
X145910400Y-100927580D02*
X145672305Y-100927580D01*
X145672305Y-100927580D02*
X145529448Y-100879961D01*
X145529448Y-100879961D02*
X145434210Y-100784723D01*
X145434210Y-100784723D02*
X145386591Y-100689485D01*
X145386591Y-100689485D02*
X145338972Y-100499009D01*
X145338972Y-100499009D02*
X145338972Y-100356152D01*
X145338972Y-100356152D02*
X145386591Y-100165676D01*
X145386591Y-100165676D02*
X145434210Y-100070438D01*
X145434210Y-100070438D02*
X145529448Y-99975200D01*
X145529448Y-99975200D02*
X145672305Y-99927580D01*
X145672305Y-99927580D02*
X145910400Y-99927580D01*
D11*
X155859580Y-103166666D02*
X155907200Y-103214285D01*
X155907200Y-103214285D02*
X155954819Y-103357142D01*
X155954819Y-103357142D02*
X155954819Y-103452380D01*
X155954819Y-103452380D02*
X155907200Y-103595237D01*
X155907200Y-103595237D02*
X155811961Y-103690475D01*
X155811961Y-103690475D02*
X155716723Y-103738094D01*
X155716723Y-103738094D02*
X155526247Y-103785713D01*
X155526247Y-103785713D02*
X155383390Y-103785713D01*
X155383390Y-103785713D02*
X155192914Y-103738094D01*
X155192914Y-103738094D02*
X155097676Y-103690475D01*
X155097676Y-103690475D02*
X155002438Y-103595237D01*
X155002438Y-103595237D02*
X154954819Y-103452380D01*
X154954819Y-103452380D02*
X154954819Y-103357142D01*
X154954819Y-103357142D02*
X155002438Y-103214285D01*
X155002438Y-103214285D02*
X155050057Y-103166666D01*
X155050057Y-102785713D02*
X155002438Y-102738094D01*
X155002438Y-102738094D02*
X154954819Y-102642856D01*
X154954819Y-102642856D02*
X154954819Y-102404761D01*
X154954819Y-102404761D02*
X155002438Y-102309523D01*
X155002438Y-102309523D02*
X155050057Y-102261904D01*
X155050057Y-102261904D02*
X155145295Y-102214285D01*
X155145295Y-102214285D02*
X155240533Y-102214285D01*
X155240533Y-102214285D02*
X155383390Y-102261904D01*
X155383390Y-102261904D02*
X155954819Y-102833332D01*
X155954819Y-102833332D02*
X155954819Y-102214285D01*
X146359580Y-106166666D02*
X146407200Y-106214285D01*
X146407200Y-106214285D02*
X146454819Y-106357142D01*
X146454819Y-106357142D02*
X146454819Y-106452380D01*
X146454819Y-106452380D02*
X146407200Y-106595237D01*
X146407200Y-106595237D02*
X146311961Y-106690475D01*
X146311961Y-106690475D02*
X146216723Y-106738094D01*
X146216723Y-106738094D02*
X146026247Y-106785713D01*
X146026247Y-106785713D02*
X145883390Y-106785713D01*
X145883390Y-106785713D02*
X145692914Y-106738094D01*
X145692914Y-106738094D02*
X145597676Y-106690475D01*
X145597676Y-106690475D02*
X145502438Y-106595237D01*
X145502438Y-106595237D02*
X145454819Y-106452380D01*
X145454819Y-106452380D02*
X145454819Y-106357142D01*
X145454819Y-106357142D02*
X145502438Y-106214285D01*
X145502438Y-106214285D02*
X145550057Y-106166666D01*
X146454819Y-105214285D02*
X146454819Y-105785713D01*
X146454819Y-105499999D02*
X145454819Y-105499999D01*
X145454819Y-105499999D02*
X145597676Y-105595237D01*
X145597676Y-105595237D02*
X145692914Y-105690475D01*
X145692914Y-105690475D02*
X145740533Y-105785713D01*
X146454819Y-103166666D02*
X145978628Y-103499999D01*
X146454819Y-103738094D02*
X145454819Y-103738094D01*
X145454819Y-103738094D02*
X145454819Y-103357142D01*
X145454819Y-103357142D02*
X145502438Y-103261904D01*
X145502438Y-103261904D02*
X145550057Y-103214285D01*
X145550057Y-103214285D02*
X145645295Y-103166666D01*
X145645295Y-103166666D02*
X145788152Y-103166666D01*
X145788152Y-103166666D02*
X145883390Y-103214285D01*
X145883390Y-103214285D02*
X145931009Y-103261904D01*
X145931009Y-103261904D02*
X145978628Y-103357142D01*
X145978628Y-103357142D02*
X145978628Y-103738094D01*
X146454819Y-102214285D02*
X146454819Y-102785713D01*
X146454819Y-102499999D02*
X145454819Y-102499999D01*
X145454819Y-102499999D02*
X145597676Y-102595237D01*
X145597676Y-102595237D02*
X145692914Y-102690475D01*
X145692914Y-102690475D02*
X145740533Y-102785713D01*
X145454819Y-98333333D02*
X146169104Y-98333333D01*
X146169104Y-98333333D02*
X146311961Y-98380952D01*
X146311961Y-98380952D02*
X146407200Y-98476190D01*
X146407200Y-98476190D02*
X146454819Y-98619047D01*
X146454819Y-98619047D02*
X146454819Y-98714285D01*
X146454819Y-97333333D02*
X146454819Y-97904761D01*
X146454819Y-97619047D02*
X145454819Y-97619047D01*
X145454819Y-97619047D02*
X145597676Y-97714285D01*
X145597676Y-97714285D02*
X145692914Y-97809523D01*
X145692914Y-97809523D02*
X145740533Y-97904761D01*
D12*
%TO.C,C2*%
X152765000Y-102701248D02*
X152765000Y-103223752D01*
X154235000Y-102701248D02*
X154235000Y-103223752D01*
%TO.C,C1*%
X148238748Y-105265000D02*
X148761252Y-105265000D01*
X148238748Y-106735000D02*
X148761252Y-106735000D01*
%TO.C,R1*%
X146765000Y-103227064D02*
X146765000Y-102772936D01*
X148235000Y-103227064D02*
X148235000Y-102772936D01*
%TO.C,U1*%
X148940000Y-103000000D02*
X148940000Y-102350000D01*
X148940000Y-103000000D02*
X148940000Y-103650000D01*
X152060000Y-103000000D02*
X152060000Y-102350000D01*
X152060000Y-103000000D02*
X152060000Y-103650000D01*
X152340000Y-102077500D02*
X152010000Y-101837500D01*
X152340000Y-101597500D01*
X152340000Y-102077500D01*
G36*
X152340000Y-102077500D02*
G01*
X152010000Y-101837500D01*
X152340000Y-101597500D01*
X152340000Y-102077500D01*
G37*
%TO.C,J1*%
X146590000Y-99330000D02*
X146590000Y-98000000D01*
X147920000Y-99330000D02*
X146590000Y-99330000D01*
X149190000Y-96670000D02*
X154330000Y-96670000D01*
X149190000Y-99330000D02*
X149190000Y-96670000D01*
X149190000Y-99330000D02*
X154330000Y-99330000D01*
X154330000Y-99330000D02*
X154330000Y-96670000D01*
%TD*%
M02*
