999
"DXF R12 Output" (www.mydxf.blogspot.com)
 0 
SECTION
 2 
HEADER
 9 
$ACADVER
 1 
AC1009
 9 
$EXTMIN
 10 
 0 
 20 
 0 
 9 
$EXTMAX
 10 
 8.5 
 20 
 11 
 0 
ENDSEC
 0 
SECTION
 2 
ENTITIES
0
LINE
8
Image
10
4.390942
20
0.084203
11
4.408200
21
0.336816
0
LINE
8
Image
10
4.408200
20
0.336816
11
4.408072
21
0.505225
0
LINE
8
Image
10
4.408072
20
0.505225
11
4.341991
21
0.643914
0
LINE
8
Image
10
4.341991
20
0.643914
11
4.275911
21
0.782603
0
LINE
8
Image
10
4.275911
20
0.782603
11
4.217507
21
0.660134
0
LINE
8
Image
10
4.217507
20
0.660134
11
4.092149
21
0.478878
0
LINE
8
Image
10
4.092149
20
0.478878
11
4.025195
21
0.420092
0
LINE
8
Image
10
4.025195
20
0.420092
11
3.945069
21
0.406553
0
LINE
8
Image
10
3.945069
20
0.406553
11
3.847120
21
0.404039
0
LINE
8
Image
10
3.847120
20
0.404039
11
3.803742
21
0.506331
0
LINE
8
Image
10
3.803742
20
0.506331
11
3.570527
21
0.873506
0
LINE
8
Image
10
3.570527
20
0.873506
11
3.125991
21
1.222866
0
LINE
8
Image
10
3.125991
20
1.222866
11
2.917815
21
1.346110
0
LINE
8
Image
10
2.917815
20
1.346110
11
2.806755
21
1.466067
0
LINE
8
Image
10
2.806755
20
1.466067
11
2.456409
21
2.056682
0
LINE
8
Image
10
2.456409
20
2.056682
11
2.247981
21
2.822588
0
LINE
8
Image
10
2.247981
20
2.822588
11
2.218312
21
2.921939
0
LINE
8
Image
10
2.218312
20
2.921939
11
2.125220
21
2.376187
0
LINE
8
Image
10
2.125220
20
2.376187
11
2.114563
21
2.127184
0
LINE
8
Image
10
2.114563
20
2.127184
11
2.149453
21
1.706675
0
LINE
8
Image
10
2.149453
20
1.706675
11
2.176324
21
1.278147
0
LINE
8
Image
10
2.176324
20
1.278147
11
1.990586
21
1.610594
0
LINE
8
Image
10
1.990586
20
1.610594
11
1.240533
21
2.971914
0
LINE
8
Image
10
1.240533
20
2.971914
11
1.052316
21
3.298825
0
LINE
8
Image
10
1.052316
20
3.298825
11
0.821177
21
4.234100
0
LINE
8
Image
10
0.821177
20
4.234100
11
0.807375
21
4.376864
0
LINE
8
Image
10
0.807375
20
4.376864
11
0.744621
21
4.328999
0
LINE
8
Image
10
0.744621
20
4.328999
11
0.321614
21
4.158638
0
LINE
8
Image
10
0.321614
20
4.158638
11
0.165516
21
4.147060
0
LINE
8
Image
10
0.165516
20
4.147060
11
0.214651
21
4.254620
0
LINE
8
Image
10
0.214651
20
4.254620
11
0.438957
21
4.769160
0
LINE
8
Image
10
0.438957
20
4.769160
11
0.481957
21
4.923472
0
LINE
8
Image
10
0.481957
20
4.923472
11
0.482118
21
5.131506
0
LINE
8
Image
10
0.482118
20
5.131506
11
0.475824
21
5.557481
0
LINE
8
Image
10
0.475824
20
5.557481
11
0.469369
21
5.775421
0
LINE
8
Image
10
0.469369
20
5.775421
11
0.513053
21
5.932802
0
LINE
8
Image
10
0.513053
20
5.932802
11
0.770147
21
6.459258
0
LINE
8
Image
10
0.770147
20
6.459258
11
0.826929
21
6.527274
0
LINE
8
Image
10
0.826929
20
6.527274
11
0.954311
21
6.399007
0
LINE
8
Image
10
0.954311
20
6.399007
11
1.081693
21
6.270740
0
LINE
8
Image
10
1.081693
20
6.270740
11
1.175622
21
6.087792
0
LINE
8
Image
10
1.175622
20
6.087792
11
1.376115
21
5.580539
0
LINE
8
Image
10
1.376115
20
5.580539
11
1.455867
21
4.863434
0
LINE
8
Image
10
1.455867
20
4.863434
11
1.572855
21
4.019430
0
LINE
8
Image
10
1.572855
20
4.019430
11
1.764586
21
3.793497
0
LINE
8
Image
10
1.764586
20
3.793497
11
1.820555
21
3.764554
0
LINE
8
Image
10
1.820555
20
3.764554
11
2.074277
21
3.767200
0
LINE
8
Image
10
2.074277
20
3.767200
11
2.327998
21
3.769846
0
LINE
8
Image
10
2.327998
20
3.769846
11
2.387349
21
3.745967
0
LINE
8
Image
10
2.387349
20
3.745967
11
2.608633
21
3.550686
0
LINE
8
Image
10
2.608633
20
3.550686
11
2.784704
21
3.058434
0
LINE
8
Image
10
2.784704
20
3.058434
11
3.030112
21
2.328008
0
LINE
8
Image
10
3.030112
20
2.328008
11
3.278202
21
2.062888
0
LINE
8
Image
10
3.278202
20
2.062888
11
3.356643
21
2.041629
0
LINE
8
Image
10
3.356643
20
2.041629
11
3.585299
21
2.064309
0
LINE
8
Image
10
3.585299
20
2.064309
11
3.885034
21
2.073468
0
LINE
8
Image
10
3.885034
20
2.073468
11
4.233179
21
1.786372
0
LINE
8
Image
10
4.233179
20
1.786372
11
4.468102
21
1.487084
0
LINE
8
Image
10
4.468102
20
1.487084
11
4.587303
21
1.337370
0
LINE
8
Image
10
4.587303
20
1.337370
11
4.640033
21
1.331239
0
LINE
8
Image
10
4.640033
20
1.331239
11
4.692764
21
1.325109
0
LINE
8
Image
10
4.692764
20
1.325109
11
4.772286
21
1.569542
0
LINE
8
Image
10
4.772286
20
1.569542
11
5.200215
21
3.296620
0
LINE
8
Image
10
5.200215
20
3.296620
11
5.270194
21
3.690660
0
LINE
8
Image
10
5.270194
20
3.690660
11
5.270140
21
3.950441
0
LINE
8
Image
10
5.270140
20
3.950441
11
5.230110
21
4.725355
0
LINE
8
Image
10
5.230110
20
4.725355
11
5.190133
21
5.240487
0
LINE
8
Image
10
5.190133
20
5.240487
11
5.141211
21
5.339551
0
LINE
8
Image
10
5.141211
20
5.339551
11
4.952017
21
5.615466
0
LINE
8
Image
10
4.952017
20
5.615466
11
4.713562
21
6.043017
0
LINE
8
Image
10
4.713562
20
6.043017
11
4.692011
21
6.143504
0
LINE
8
Image
10
4.692011
20
6.143504
11
4.725216
21
6.404379
0
LINE
8
Image
10
4.725216
20
6.404379
11
4.849156
21
6.994533
0
LINE
8
Image
10
4.849156
20
6.994533
11
5.137384
21
7.590533
0
LINE
8
Image
10
5.137384
20
7.590533
11
5.400529
21
8.103431
0
LINE
8
Image
10
5.400529
20
8.103431
11
5.514014
21
8.351091
0
LINE
8
Image
10
5.514014
20
8.351091
11
5.510083
21
8.618563
0
LINE
8
Image
10
5.510083
20
8.618563
11
5.526659
21
8.995006
0
LINE
8
Image
10
5.526659
20
8.995006
11
6.289065
21
10.213581
0
LINE
8
Image
10
6.289065
20
10.213581
11
6.620047
21
10.648881
0
LINE
8
Image
10
6.620047
20
10.648881
11
6.699656
21
10.767267
0
LINE
8
Image
10
6.699656
20
10.767267
11
6.677098
21
10.774787
0
LINE
8
Image
10
6.677098
20
10.774787
11
6.147508
21
10.577580
0
LINE
8
Image
10
6.147508
20
10.577580
11
5.585401
21
10.243753
0
LINE
8
Image
10
5.585401
20
10.243753
11
5.236877
21
10.032160
0
LINE
8
Image
10
5.236877
20
10.032160
11
5.434187
21
10.345116
0
LINE
8
Image
10
5.434187
20
10.345116
11
5.701276
21
10.758332
0
LINE
8
Image
10
5.701276
20
10.758332
11
5.974954
21
11.657618
0
LINE
8
Image
10
5.974954
20
11.657618
11
5.987885
21
11.818315
0
LINE
8
Image
10
5.987885
20
11.818315
11
5.963818
21
11.976817
0
LINE
8
Image
10
5.963818
20
11.976817
11
5.834694
21
12.376104
0
LINE
8
Image
10
5.834694
20
12.376104
11
5.802040
21
12.425941
0
LINE
8
Image
10
5.802040
20
12.425941
11
5.761462
21
12.389600
0
LINE
8
Image
10
5.761462
20
12.389600
11
5.350053
21
11.857940
0
LINE
8
Image
10
5.350053
20
11.857940
11
4.525815
21
10.847489
0
LINE
8
Image
10
4.525815
20
10.847489
11
4.390670
21
10.708800
0
LINE
8
Image
10
4.390670
20
10.708800
11
4.327285
21
10.556298
0
LINE
8
Image
10
4.327285
20
10.556298
11
4.263901
21
10.403797
0
LINE
8
Image
10
4.263901
20
10.403797
11
4.294635
21
10.318329
0
LINE
8
Image
10
4.294635
20
10.318329
11
4.325369
21
10.232861
0
LINE
8
Image
10
4.325369
20
10.232861
11
4.311417
21
10.158487
0
LINE
8
Image
10
4.311417
20
10.158487
11
4.297466
21
10.084113
0
LINE
8
Image
10
4.297466
20
10.084113
11
4.230975
21
10.017623
0
LINE
8
Image
10
4.230975
20
10.017623
11
4.164484
21
9.951132
0
LINE
8
Image
10
4.164484
20
9.951132
11
3.993986
21
9.889438
0
LINE
8
Image
10
3.993986
20
9.889438
11
3.572616
21
9.685717
0
LINE
8
Image
10
3.572616
20
9.685717
11
3.489775
21
9.628977
0
LINE
8
Image
10
3.489775
20
9.628977
11
3.419066
21
9.487639
0
LINE
8
Image
10
3.419066
20
9.487639
11
3.348358
21
9.309338
0
LINE
8
Image
10
3.348358
20
9.309338
11
3.330430
21
9.272374
0
LINE
8
Image
10
3.330430
20
9.272374
11
3.371312
21
9.556266
0
LINE
8
Image
10
3.371312
20
9.556266
11
3.636077
21
9.965821
0
LINE
8
Image
10
3.636077
20
9.965821
11
3.874421
21
10.278498
0
LINE
8
Image
10
3.874421
20
10.278498
11
3.631577
21
10.172078
0
LINE
8
Image
10
3.631577
20
10.172078
11
3.397889
21
10.056501
0
LINE
8
Image
10
3.397889
20
10.056501
11
3.277338
21
9.936863
0
LINE
8
Image
10
3.277338
20
9.936863
11
3.156786
21
9.817226
0
LINE
8
Image
10
3.156786
20
9.817226
11
3.096002
21
9.688442
0
LINE
8
Image
10
3.096002
20
9.688442
11
2.975756
21
9.371438
0
LINE
8
Image
10
2.975756
20
9.371438
11
2.444571
21
8.022789
0
LINE
8
Image
10
2.444571
20
8.022789
11
2.197386
21
7.738768
0
LINE
8
Image
10
2.197386
20
7.738768
11
2.043860
21
7.594341
0
LINE
8
Image
10
2.043860
20
7.594341
11
1.888739
21
7.514419
0
LINE
8
Image
10
1.888739
20
7.514419
11
1.525583
21
7.360372
0
LINE
8
Image
10
1.525583
20
7.360372
11
1.059983
21
7.162336
0
LINE
8
Image
10
1.059983
20
7.162336
11
0.802417
21
7.038423
0
LINE
8
Image
10
0.802417
20
7.038423
11
0.636179
21
6.912148
0
LINE
8
Image
10
0.636179
20
6.912148
11
0.404779
21
6.739541
0
LINE
8
Image
10
0.404779
20
6.739541
11
0.339616
21
6.693211
0
LINE
8
Image
10
0.339616
20
6.693211
11
0.224293
21
6.683180
0
LINE
8
Image
10
0.224293
20
6.683180
11
0.054485
21
6.694348
0
LINE
8
Image
10
0.054485
20
6.694348
11
-0.000000
21
6.715547
0
LINE
8
Image
10
-0.000000
20
6.715547
11
-0.000000
21
6.767743
0
LINE
8
Image
10
-0.000000
20
6.767743
11
-0.000000
21
6.819939
0
LINE
8
Image
10
-0.000000
20
6.819939
11
0.116093
21
6.931689
0
LINE
8
Image
10
0.116093
20
6.931689
11
0.543111
21
7.268860
0
LINE
8
Image
10
0.543111
20
7.268860
11
1.532718
21
8.141648
0
LINE
8
Image
10
1.532718
20
8.141648
11
1.886577
21
8.489770
0
LINE
8
Image
10
1.886577
20
8.489770
11
2.025279
21
8.697804
0
LINE
8
Image
10
2.025279
20
8.697804
11
2.298888
21
9.174830
0
LINE
8
Image
10
2.298888
20
9.174830
11
2.819021
21
9.972008
0
LINE
8
Image
10
2.819021
20
9.972008
11
3.390422
21
10.430526
0
LINE
8
Image
10
3.390422
20
10.430526
11
3.633479
21
10.510911
0
LINE
8
Image
10
3.633479
20
10.510911
11
4.326578
21
10.964594
0
LINE
8
Image
10
4.326578
20
10.964594
11
5.131554
21
11.967714
0
LINE
8
Image
10
5.131554
20
11.967714
11
5.716245
21
12.669060
0
LINE
8
Image
10
5.716245
20
12.669060
11
5.787185
21
12.702724
0
LINE
8
Image
10
5.787185
20
12.702724
11
5.842533
21
12.690567
0
LINE
8
Image
10
5.842533
20
12.690567
11
6.182880
21
12.169876
0
LINE
8
Image
10
6.182880
20
12.169876
11
6.221209
21
12.020011
0
LINE
8
Image
10
6.221209
20
12.020011
11
6.221209
21
11.774685
0
LINE
8
Image
10
6.221209
20
11.774685
11
6.221209
21
11.529360
0
LINE
8
Image
10
6.221209
20
11.529360
11
6.190617
21
11.381255
0
LINE
8
Image
10
6.190617
20
11.381255
11
6.019217
21
10.850523
0
LINE
8
Image
10
6.019217
20
10.850523
11
5.990010
21
10.764986
0
LINE
8
Image
10
5.990010
20
10.764986
11
6.100618
21
10.806995
0
LINE
8
Image
10
6.100618
20
10.806995
11
6.649268
21
10.985850
0
LINE
8
Image
10
6.649268
20
10.985850
11
6.750416
21
10.999014
0
LINE
8
Image
10
6.750416
20
10.999014
11
6.821924
21
10.969136
0
LINE
8
Image
10
6.821924
20
10.969136
11
6.893433
21
10.939258
0
LINE
8
Image
10
6.893433
20
10.939258
11
6.906376
21
10.887692
0
LINE
8
Image
10
6.906376
20
10.887692
11
6.838684
21
10.631025
0
LINE
8
Image
10
6.838684
20
10.631025
11
6.398443
21
10.064885
0
LINE
8
Image
10
6.398443
20
10.064885
11
5.744526
21
9.183217
0
LINE
8
Image
10
5.744526
20
9.183217
11
5.665388
21
9.024715
0
LINE
8
Image
10
5.665388
20
9.024715
11
5.644655
21
8.846400
0
LINE
8
Image
10
5.644655
20
8.846400
11
5.728553
21
7.891703
0
LINE
8
Image
10
5.728553
20
7.891703
11
5.767847
21
7.729517
0
LINE
8
Image
10
5.767847
20
7.729517
11
5.734899
21
7.665802
0
LINE
8
Image
10
5.734899
20
7.665802
11
5.602424
21
7.502561
0
LINE
8
Image
10
5.602424
20
7.502561
11
5.502897
21
7.403034
0
LINE
8
Image
10
5.502897
20
7.403034
11
5.567312
21
7.084547
0
LINE
8
Image
10
5.567312
20
7.084547
11
5.896876
21
6.060568
0
LINE
8
Image
10
5.896876
20
6.060568
11
5.760408
21
5.987430
0
LINE
8
Image
10
5.760408
20
5.987430
11
5.545284
21
5.946725
0
LINE
8
Image
10
5.545284
20
5.946725
11
5.493770
21
5.927140
0
LINE
8
Image
10
5.493770
20
5.927140
11
5.611284
21
5.801749
0
LINE
8
Image
10
5.611284
20
5.801749
11
6.212769
21
4.850079
0
LINE
8
Image
10
6.212769
20
4.850079
11
6.321414
21
4.358809
0
LINE
8
Image
10
6.321414
20
4.358809
11
6.529853
21
3.642828
0
LINE
8
Image
10
6.529853
20
3.642828
11
6.617466
21
3.470004
0
LINE
8
Image
10
6.617466
20
3.470004
11
6.155032
21
3.736773
0
LINE
8
Image
10
6.155032
20
3.736773
11
6.019509
21
3.846525
0
LINE
8
Image
10
6.019509
20
3.846525
11
6.030825
21
3.810429
0
LINE
8
Image
10
6.030825
20
3.810429
11
6.084022
21
3.536580
0
LINE
8
Image
10
6.084022
20
3.536580
11
6.125904
21
3.298826
0
LINE
8
Image
10
6.125904
20
3.298826
11
6.136318
21
2.962009
0
LINE
8
Image
10
6.136318
20
2.962009
11
6.146732
21
2.625192
0
LINE
8
Image
10
6.146732
20
2.625192
11
6.116097
21
2.463757
0
LINE
8
Image
10
6.116097
20
2.463757
11
5.927504
21
1.928802
0
LINE
8
Image
10
5.927504
20
1.928802
11
5.889269
21
1.854274
0
LINE
8
Image
10
5.889269
20
1.854274
11
5.836478
21
2.031699
0
LINE
8
Image
10
5.836478
20
2.031699
11
5.578636
21
2.674724
0
LINE
8
Image
10
5.578636
20
2.674724
11
5.440880
21
2.238843
0
LINE
8
Image
10
5.440880
20
2.238843
11
5.308821
21
1.091552
0
LINE
8
Image
10
5.308821
20
1.091552
11
5.308909
21
0.802418
0
LINE
8
Image
10
5.308909
20
0.802418
11
5.386884
21
0.416069
0
LINE
8
Image
10
5.386884
20
0.416069
11
5.442055
21
0.021465
0
LINE
8
Image
10
5.442055
20
0.021465
11
5.229067
21
0.366195
0
LINE
8
Image
10
5.229067
20
0.366195
11
5.022537
21
0.702670
0
LINE
8
Image
10
5.022537
20
0.702670
11
5.010560
21
0.544510
0
LINE
8
Image
10
5.010560
20
0.544510
11
4.998582
21
0.386350
0
LINE
8
Image
10
4.998582
20
0.386350
11
4.953572
21
0.282188
0
LINE
8
Image
10
4.953572
20
0.282188
11
4.841999
21
0.119584
0
LINE
8
Image
10
4.841999
20
0.119584
11
4.471557
21
0.000001
0
LINE
8
Image
10
4.471557
20
0.000001
11
4.373555
21
0.000001
0
LINE
8
Image
10
4.373555
20
0.000001
11
4.390942
21
0.084203
0
LINE
8
Image
10
3.779803
20
2.749021
11
3.615453
21
3.310713
0
LINE
8
Image
10
3.615453
20
3.310713
11
3.260314
21
3.921321
0
LINE
8
Image
10
3.260314
20
3.921321
11
2.989694
21
4.347296
0
LINE
8
Image
10
2.989694
20
4.347296
11
2.952971
21
4.428153
0
LINE
8
Image
10
2.952971
20
4.428153
11
2.952548
21
4.538974
0
LINE
8
Image
10
2.952548
20
4.538974
11
2.992576
21
4.766821
0
LINE
8
Image
10
2.992576
20
4.766821
11
3.052098
21
4.968050
0
LINE
8
Image
10
3.052098
20
4.968050
11
3.071156
21
5.052255
0
LINE
8
Image
10
3.071156
20
5.052255
11
3.050839
21
5.146365
0
LINE
8
Image
10
3.050839
20
5.146365
11
2.892258
21
5.517855
0
LINE
8
Image
10
2.892258
20
5.517855
11
2.734689
21
5.899251
0
LINE
8
Image
10
2.734689
20
5.899251
11
2.715382
21
6.003268
0
LINE
8
Image
10
2.715382
20
6.003268
11
2.734556
21
6.104372
0
LINE
8
Image
10
2.734556
20
6.104372
11
2.808161
21
6.307453
0
LINE
8
Image
10
2.808161
20
6.307453
11
3.148288
21
6.675949
0
LINE
8
Image
10
3.148288
20
6.675949
11
3.195871
21
6.701325
0
LINE
8
Image
10
3.195871
20
6.701325
11
3.180293
21
6.664347
0
LINE
8
Image
10
3.180293
20
6.664347
11
3.136643
21
6.549828
0
LINE
8
Image
10
3.136643
20
6.549828
11
3.108572
21
6.472285
0
LINE
8
Image
10
3.108572
20
6.472285
11
3.122158
21
6.363539
0
LINE
8
Image
10
3.122158
20
6.363539
11
3.135745
21
6.254792
0
LINE
8
Image
10
3.135745
20
6.254792
11
3.211563
21
6.104264
0
LINE
8
Image
10
3.211563
20
6.104264
11
3.477423
21
5.715983
0
LINE
8
Image
10
3.477423
20
5.715983
11
3.985665
21
4.807964
0
LINE
8
Image
10
3.985665
20
4.807964
11
4.008173
21
4.663181
0
LINE
8
Image
10
4.008173
20
4.663181
11
3.989716
21
4.630198
0
LINE
8
Image
10
3.989716
20
4.630198
11
3.971258
21
4.597215
0
LINE
8
Image
10
3.971258
20
4.597215
11
3.848705
21
4.770853
0
LINE
8
Image
10
3.848705
20
4.770853
11
3.614013
21
5.032409
0
LINE
8
Image
10
3.614013
20
5.032409
11
3.882611
21
4.051710
0
LINE
8
Image
10
3.882611
20
4.051710
11
3.982200
21
3.222583
0
LINE
8
Image
10
3.982200
20
3.222583
11
3.874599
21
2.657266
0
LINE
8
Image
10
3.874599
20
2.657266
11
3.818094
21
2.555846
0
LINE
8
Image
10
3.818094
20
2.555846
11
3.779813
21
2.749021
0
LINE
8
Image
10
3.779813
20
2.749021
11
3.779803
21
2.749021
 0 
ENDSEC
 0 
EOF