G04 #@! TF.GenerationSoftware,KiCad,Pcbnew,8.0.6*
G04 #@! TF.CreationDate,2024-11-07T19:24:25-05:00*
G04 #@! TF.ProjectId,3PinInputBoard,3350696e-496e-4707-9574-426f6172642e,rev?*
G04 #@! TF.SameCoordinates,Original*
G04 #@! TF.FileFunction,Copper,L1,Top*
G04 #@! TF.FilePolarity,Positive*
%FSLAX46Y46*%
G04 Gerber Fmt 4.6, Leading zero omitted, Abs format (unit mm)*
G04 Created by KiCad (PCBNEW 8.0.6) date 2024-11-07 19:24:25*
%MOMM*%
%LPD*%
G01*
G04 APERTURE LIST*
G04 Aperture macros list*
%AMRoundRect*
0 Rectangle with rounded corners*
0 $1 Rounding radius*
0 $2 $3 $4 $5 $6 $7 $8 $9 X,Y pos of 4 corners*
0 Add a 4 corners polygon primitive as box body*
4,1,4,$2,$3,$4,$5,$6,$7,$8,$9,$2,$3,0*
0 Add four circle primitives for the rounded corners*
1,1,$1+$1,$2,$3*
1,1,$1+$1,$4,$5*
1,1,$1+$1,$6,$7*
1,1,$1+$1,$8,$9*
0 Add four rect primitives between the rounded corners*
20,1,$1+$1,$2,$3,$4,$5,0*
20,1,$1+$1,$4,$5,$6,$7,0*
20,1,$1+$1,$6,$7,$8,$9,0*
20,1,$1+$1,$8,$9,$2,$3,0*%
G04 Aperture macros list end*
G04 #@! TA.AperFunction,ComponentPad*
%ADD10R,1.700000X1.700000*%
G04 #@! TD*
G04 #@! TA.AperFunction,ComponentPad*
%ADD11O,1.700000X1.700000*%
G04 #@! TD*
G04 #@! TA.AperFunction,SMDPad,CuDef*
%ADD12RoundRect,0.250000X0.475000X-0.337500X0.475000X0.337500X-0.475000X0.337500X-0.475000X-0.337500X0*%
G04 #@! TD*
G04 #@! TA.AperFunction,SMDPad,CuDef*
%ADD13RoundRect,0.250000X0.337500X0.475000X-0.337500X0.475000X-0.337500X-0.475000X0.337500X-0.475000X0*%
G04 #@! TD*
G04 #@! TA.AperFunction,SMDPad,CuDef*
%ADD14RoundRect,0.250000X-0.450000X0.350000X-0.450000X-0.350000X0.450000X-0.350000X0.450000X0.350000X0*%
G04 #@! TD*
G04 #@! TA.AperFunction,SMDPad,CuDef*
%ADD15RoundRect,0.150000X0.587500X0.150000X-0.587500X0.150000X-0.587500X-0.150000X0.587500X-0.150000X0*%
G04 #@! TD*
G04 #@! TA.AperFunction,SMDPad,CuDef*
%ADD16RoundRect,0.250000X-0.475000X0.337500X-0.475000X-0.337500X0.475000X-0.337500X0.475000X0.337500X0*%
G04 #@! TD*
G04 #@! TA.AperFunction,SMDPad,CuDef*
%ADD17RoundRect,0.250000X-0.337500X-0.475000X0.337500X-0.475000X0.337500X0.475000X-0.337500X0.475000X0*%
G04 #@! TD*
G04 #@! TA.AperFunction,SMDPad,CuDef*
%ADD18R,1.750000X0.450000*%
G04 #@! TD*
G04 #@! TA.AperFunction,ViaPad*
%ADD19C,0.711200*%
G04 #@! TD*
G04 #@! TA.AperFunction,ViaPad*
%ADD20C,0.609600*%
G04 #@! TD*
G04 #@! TA.AperFunction,Conductor*
%ADD21C,0.304800*%
G04 #@! TD*
G04 #@! TA.AperFunction,Conductor*
%ADD22C,0.203200*%
G04 #@! TD*
G04 APERTURE END LIST*
D10*
X140465000Y-95250000D03*
D11*
X140465000Y-92710000D03*
X143005000Y-95250000D03*
X143005000Y-92710000D03*
X145545000Y-95250000D03*
X145545000Y-92710000D03*
D12*
X153546000Y-103040000D03*
X153546000Y-100965000D03*
D13*
X146582500Y-111506000D03*
X144507500Y-111506000D03*
D10*
X114375000Y-104025000D03*
D11*
X114375000Y-101485000D03*
X114375000Y-98945000D03*
D10*
X131575000Y-104775000D03*
D11*
X134115000Y-104775000D03*
D14*
X149355000Y-106315000D03*
X149355000Y-108315000D03*
D10*
X131575000Y-108585000D03*
D11*
X134115000Y-108585000D03*
D10*
X127000000Y-97790000D03*
D11*
X127000000Y-100330000D03*
X127000000Y-102870000D03*
X127000000Y-105410000D03*
D10*
X156410000Y-100975000D03*
D11*
X156410000Y-103515000D03*
X156410000Y-106055000D03*
X156410000Y-108595000D03*
D15*
X153594500Y-108265000D03*
X153594500Y-106365000D03*
X151719500Y-107315000D03*
D10*
X131575000Y-100965000D03*
D11*
X134115000Y-100965000D03*
D16*
X137163000Y-101176000D03*
X137163000Y-103251000D03*
D17*
X139576000Y-111506000D03*
X141651000Y-111506000D03*
D18*
X146605000Y-109000000D03*
X146605000Y-108350000D03*
X146605000Y-107700000D03*
X146605000Y-107050000D03*
X146605000Y-106400000D03*
X146605000Y-105750000D03*
X146605000Y-105100000D03*
X146605000Y-104450000D03*
X146605000Y-103800000D03*
X146605000Y-103150000D03*
X146605000Y-102500000D03*
X146605000Y-101850000D03*
X146605000Y-101200000D03*
X146605000Y-100550000D03*
X139405000Y-100550000D03*
X139405000Y-101200000D03*
X139405000Y-101850000D03*
X139405000Y-102500000D03*
X139405000Y-103150000D03*
X139405000Y-103800000D03*
X139405000Y-104450000D03*
X139405000Y-105100000D03*
X139405000Y-105750000D03*
X139405000Y-106400000D03*
X139405000Y-107050000D03*
X139405000Y-107700000D03*
X139405000Y-108350000D03*
X139405000Y-109000000D03*
D16*
X137290000Y-92710000D03*
X137290000Y-94785000D03*
D19*
X150596600Y-103327200D03*
X137160000Y-97917000D03*
X137160000Y-99847400D03*
X148777826Y-104327826D03*
X142748000Y-97155000D03*
X142748000Y-110363000D03*
X150393400Y-107315000D03*
X143510000Y-110363000D03*
X154940000Y-102616000D03*
D20*
X140970000Y-100965000D03*
X148590000Y-100965000D03*
X148069240Y-103667427D03*
X144780000Y-107334600D03*
X144780000Y-103378000D03*
X144797001Y-105301695D03*
X140843000Y-108580200D03*
X140843000Y-105283000D03*
D21*
X156410000Y-103515000D02*
X157289000Y-104394000D01*
X157597000Y-103515000D02*
X157607000Y-103505000D01*
X137163000Y-99850400D02*
X137160000Y-99847400D01*
X140839000Y-107700000D02*
X140970000Y-107569000D01*
X151719500Y-107315000D02*
X150393400Y-107315000D01*
X157309000Y-102616000D02*
X157353000Y-102616000D01*
X146605000Y-103150000D02*
X147652720Y-103150000D01*
X147652720Y-103150000D02*
X147795693Y-103007027D01*
X148342787Y-103007027D02*
X148777826Y-103442066D01*
X147795693Y-103007027D02*
X148342787Y-103007027D01*
X156410000Y-103515000D02*
X157309000Y-102616000D01*
X148777826Y-103442066D02*
X148777826Y-104327826D01*
X156410000Y-103515000D02*
X157597000Y-103515000D01*
X139405000Y-107700000D02*
X140839000Y-107700000D01*
X137163000Y-101176000D02*
X137163000Y-99850400D01*
X138176000Y-108331000D02*
X139386000Y-108331000D01*
X146558000Y-90805000D02*
X139195000Y-90805000D01*
X139386000Y-108331000D02*
X139405000Y-108350000D01*
X114375000Y-98945000D02*
X120610000Y-92710000D01*
X146582500Y-111506000D02*
X156718000Y-111506000D01*
X139195000Y-90805000D02*
X137290000Y-92710000D01*
X153546000Y-100965000D02*
X156400000Y-100965000D01*
X158623000Y-109601000D02*
X158623000Y-106553000D01*
X139576000Y-111506000D02*
X140656600Y-112586600D01*
X138176000Y-108331000D02*
X137163000Y-107318000D01*
X155910624Y-104720600D02*
X154940000Y-103749976D01*
X145501900Y-112586600D02*
X146582500Y-111506000D01*
X156790600Y-104720600D02*
X155910624Y-104720600D01*
X153546000Y-101222000D02*
X154940000Y-102616000D01*
X137264000Y-103150000D02*
X139405000Y-103150000D01*
X153546000Y-97793000D02*
X146558000Y-90805000D01*
X156400000Y-100965000D02*
X156410000Y-100975000D01*
X153546000Y-100965000D02*
X153546000Y-97793000D01*
X139576000Y-111506000D02*
X138174400Y-110104400D01*
X138174400Y-110104400D02*
X138174400Y-108332600D01*
X140656600Y-112586600D02*
X145501900Y-112586600D01*
X120610000Y-92710000D02*
X137290000Y-92710000D01*
X153546000Y-100965000D02*
X153546000Y-101222000D01*
X156718000Y-111506000D02*
X158623000Y-109601000D01*
X146582500Y-109022500D02*
X146605000Y-109000000D01*
X137163000Y-103251000D02*
X137264000Y-103150000D01*
X158623000Y-106553000D02*
X156790600Y-104720600D01*
X137163000Y-107318000D02*
X137163000Y-103251000D01*
X154940000Y-103749976D02*
X154940000Y-102616000D01*
X137290000Y-92710000D02*
X140465000Y-92710000D01*
X138174400Y-108332600D02*
X138176000Y-108331000D01*
X146582500Y-111506000D02*
X146582500Y-109022500D01*
D22*
X152143049Y-106710200D02*
X150800201Y-106710200D01*
X150800201Y-106710200D02*
X150405001Y-106315000D01*
X154315899Y-107086399D02*
X153594500Y-106365000D01*
X147351400Y-107146400D02*
X148123600Y-107146400D01*
X148955000Y-106315000D02*
X149355000Y-106315000D01*
X150405001Y-106315000D02*
X149355000Y-106315000D01*
X152488249Y-106365000D02*
X152143049Y-106710200D01*
X153594500Y-106365000D02*
X152488249Y-106365000D01*
X147255000Y-107050000D02*
X147351400Y-107146400D01*
X148123600Y-107146400D02*
X148955000Y-106315000D01*
X155378601Y-107086399D02*
X154315899Y-107086399D01*
X156410000Y-106055000D02*
X155378601Y-107086399D01*
X146605000Y-107050000D02*
X147255000Y-107050000D01*
X153594500Y-108265000D02*
X152488249Y-108265000D01*
X152488249Y-108265000D02*
X152143049Y-107919800D01*
X154315899Y-107543601D02*
X153594500Y-108265000D01*
X148213400Y-107603600D02*
X148924800Y-108315000D01*
X150800201Y-107919800D02*
X150405001Y-108315000D01*
X147351400Y-107603600D02*
X148213400Y-107603600D01*
X152143049Y-107919800D02*
X150800201Y-107919800D01*
X156410000Y-108595000D02*
X155358601Y-107543601D01*
X155358601Y-107543601D02*
X154315899Y-107543601D01*
X146605000Y-107700000D02*
X147255000Y-107700000D01*
X148924800Y-108315000D02*
X149355000Y-108315000D01*
X150405001Y-108315000D02*
X149355000Y-108315000D01*
X147255000Y-107700000D02*
X147351400Y-107603600D01*
X140970000Y-100965000D02*
X141619800Y-100315200D01*
X141619800Y-100315200D02*
X141619800Y-94095200D01*
X141619800Y-94095200D02*
X143005000Y-92710000D01*
X148590000Y-100965000D02*
X148175000Y-100550000D01*
X148175000Y-100550000D02*
X146605000Y-100550000D01*
X134115000Y-100965000D02*
X135893000Y-99187000D01*
X135893000Y-99187000D02*
X138042000Y-99187000D01*
X138042000Y-99187000D02*
X139405000Y-100550000D01*
X138225200Y-101727000D02*
X138225200Y-101301600D01*
X135619619Y-102068300D02*
X137883900Y-102068300D01*
X134115000Y-103572919D02*
X135619619Y-102068300D01*
X137883900Y-102068300D02*
X138225200Y-101727000D01*
X134115000Y-104775000D02*
X134115000Y-103572919D01*
X138225200Y-101301600D02*
X138326800Y-101200000D01*
X138326800Y-101200000D02*
X139405000Y-101200000D01*
X148069240Y-106013960D02*
X147683200Y-106400000D01*
X147683200Y-106400000D02*
X146605000Y-106400000D01*
X148069240Y-103667427D02*
X148069240Y-106013960D01*
X118070000Y-97790000D02*
X114375000Y-101485000D01*
X127000000Y-97790000D02*
X118070000Y-97790000D01*
X140483200Y-101850000D02*
X144780000Y-106146800D01*
X139405000Y-101850000D02*
X140483200Y-101850000D01*
X144780000Y-106146800D02*
X144780000Y-107334600D01*
X146605000Y-101200000D02*
X145662200Y-101200000D01*
X144780000Y-102082200D02*
X144780000Y-103378000D01*
X145662200Y-101200000D02*
X144780000Y-102082200D01*
X139405000Y-106400000D02*
X138345400Y-106400000D01*
X138225200Y-106279800D02*
X138225200Y-103901600D01*
X138345400Y-106400000D02*
X138225200Y-106279800D01*
X138225200Y-103901600D02*
X138326800Y-103800000D01*
X138326800Y-103800000D02*
X139405000Y-103800000D01*
X144797001Y-104529799D02*
X144797001Y-105301695D01*
X146605000Y-103800000D02*
X145526800Y-103800000D01*
X145526800Y-103800000D02*
X144797001Y-104529799D01*
X140584800Y-104551600D02*
X140483200Y-104450000D01*
X140483200Y-109000000D02*
X139405000Y-109000000D01*
X140483200Y-104450000D02*
X139405000Y-104450000D01*
X140843000Y-108640200D02*
X140483200Y-109000000D01*
X140843000Y-104809800D02*
X140843000Y-105283000D01*
X140843000Y-108580200D02*
X140843000Y-108640200D01*
X140584800Y-104551600D02*
X140843000Y-104809800D01*
G04 #@! TA.AperFunction,Conductor*
G36*
X140870012Y-102920472D02*
G01*
X140876595Y-102926601D01*
X144259995Y-106310001D01*
X144294021Y-106372313D01*
X144296900Y-106399096D01*
X144296900Y-106789567D01*
X144276898Y-106857688D01*
X144265217Y-106873115D01*
X144262525Y-106876153D01*
X144167849Y-107013314D01*
X144108746Y-107169153D01*
X144088659Y-107334596D01*
X144088659Y-107334603D01*
X144108746Y-107500046D01*
X144167849Y-107655885D01*
X144228326Y-107743500D01*
X144262524Y-107793044D01*
X144387274Y-107903562D01*
X144534847Y-107981015D01*
X144696668Y-108020900D01*
X144696671Y-108020900D01*
X144863329Y-108020900D01*
X144863332Y-108020900D01*
X145025153Y-107981015D01*
X145170633Y-107904660D01*
X145240242Y-107890714D01*
X145306345Y-107916617D01*
X145347950Y-107974145D01*
X145353869Y-107998063D01*
X145355147Y-108006835D01*
X145355147Y-108043163D01*
X145348500Y-108088793D01*
X145348500Y-108611206D01*
X145355147Y-108656837D01*
X145355147Y-108693163D01*
X145348500Y-108738793D01*
X145348500Y-109261207D01*
X145359304Y-109335361D01*
X145359304Y-109335363D01*
X145415223Y-109449745D01*
X145415224Y-109449747D01*
X145505252Y-109539775D01*
X145505254Y-109539776D01*
X145619639Y-109595696D01*
X145693794Y-109606500D01*
X145922600Y-109606500D01*
X145990721Y-109626502D01*
X146037214Y-109680158D01*
X146048600Y-109732500D01*
X146048600Y-110341612D01*
X146028598Y-110409733D01*
X145986740Y-110450065D01*
X145854871Y-110528052D01*
X145854867Y-110528055D01*
X145742055Y-110640867D01*
X145742049Y-110640874D01*
X145660833Y-110778203D01*
X145616319Y-110931420D01*
X145616317Y-110931432D01*
X145613500Y-110967221D01*
X145613500Y-111667759D01*
X145593498Y-111735880D01*
X145576595Y-111756854D01*
X145564094Y-111769355D01*
X145501782Y-111803381D01*
X145430967Y-111798316D01*
X145374131Y-111755769D01*
X145349320Y-111689249D01*
X145348999Y-111680259D01*
X145348999Y-111633000D01*
X143666001Y-111633000D01*
X143666001Y-111926700D01*
X143645999Y-111994821D01*
X143592343Y-112041314D01*
X143540001Y-112052700D01*
X142618500Y-112052700D01*
X142550379Y-112032698D01*
X142503886Y-111979042D01*
X142492500Y-111926700D01*
X142492500Y-111633000D01*
X140809500Y-111633000D01*
X140809500Y-111680262D01*
X140789497Y-111748383D01*
X140735841Y-111794875D01*
X140665567Y-111804978D01*
X140600987Y-111775485D01*
X140594405Y-111769356D01*
X140581905Y-111756856D01*
X140547879Y-111694544D01*
X140545000Y-111667761D01*
X140545000Y-110982777D01*
X140809500Y-110982777D01*
X140809500Y-111379000D01*
X141524000Y-111379000D01*
X141778000Y-111379000D01*
X142492499Y-111379000D01*
X142492499Y-110982797D01*
X142492497Y-110982777D01*
X143666000Y-110982777D01*
X143666000Y-111379000D01*
X144380500Y-111379000D01*
X144634500Y-111379000D01*
X145348999Y-111379000D01*
X145348999Y-110982797D01*
X145348997Y-110982773D01*
X145342547Y-110922767D01*
X145342547Y-110922765D01*
X145291899Y-110786976D01*
X145205047Y-110670952D01*
X145089023Y-110584100D01*
X145089024Y-110584100D01*
X144953238Y-110533453D01*
X144953230Y-110533451D01*
X144893222Y-110527000D01*
X144634500Y-110527000D01*
X144634500Y-111379000D01*
X144380500Y-111379000D01*
X144380500Y-110527000D01*
X144121797Y-110527000D01*
X144121773Y-110527002D01*
X144061767Y-110533452D01*
X144061765Y-110533452D01*
X143925976Y-110584100D01*
X143809952Y-110670952D01*
X143723100Y-110786976D01*
X143672453Y-110922761D01*
X143672451Y-110922769D01*
X143666000Y-110982777D01*
X142492497Y-110982777D01*
X142492497Y-110982773D01*
X142486047Y-110922767D01*
X142486047Y-110922765D01*
X142435399Y-110786976D01*
X142348547Y-110670952D01*
X142232523Y-110584100D01*
X142232524Y-110584100D01*
X142096738Y-110533453D01*
X142096730Y-110533451D01*
X142036722Y-110527000D01*
X141778000Y-110527000D01*
X141778000Y-111379000D01*
X141524000Y-111379000D01*
X141524000Y-110527000D01*
X141265297Y-110527000D01*
X141265273Y-110527002D01*
X141205267Y-110533452D01*
X141205265Y-110533452D01*
X141069476Y-110584100D01*
X140953452Y-110670952D01*
X140866600Y-110786976D01*
X140815953Y-110922761D01*
X140815951Y-110922769D01*
X140809500Y-110982777D01*
X140545000Y-110982777D01*
X140545000Y-110967221D01*
X140543309Y-110945747D01*
X140542182Y-110931426D01*
X140497668Y-110778208D01*
X140497666Y-110778206D01*
X140497666Y-110778203D01*
X140416450Y-110640874D01*
X140416444Y-110640867D01*
X140303632Y-110528055D01*
X140303625Y-110528049D01*
X140166296Y-110446833D01*
X140013079Y-110402319D01*
X140013075Y-110402318D01*
X140013074Y-110402318D01*
X140013072Y-110402317D01*
X140013067Y-110402317D01*
X139977278Y-110399500D01*
X139977270Y-110399500D01*
X139276738Y-110399500D01*
X139208617Y-110379498D01*
X139187643Y-110362595D01*
X138745205Y-109920157D01*
X138711179Y-109857845D01*
X138708300Y-109831062D01*
X138708300Y-109732500D01*
X138728302Y-109664379D01*
X138781958Y-109617886D01*
X138834300Y-109606500D01*
X140316200Y-109606500D01*
X140316206Y-109606500D01*
X140390361Y-109595696D01*
X140504746Y-109539776D01*
X140513811Y-109530711D01*
X140542899Y-109501623D01*
X140599386Y-109469010D01*
X140669664Y-109450180D01*
X140669665Y-109450179D01*
X140669670Y-109450178D01*
X140779831Y-109386576D01*
X140866426Y-109299980D01*
X140925367Y-109266737D01*
X140926329Y-109266500D01*
X140926332Y-109266500D01*
X141088153Y-109226615D01*
X141235726Y-109149162D01*
X141360476Y-109038644D01*
X141455152Y-108901482D01*
X141514252Y-108745649D01*
X141514252Y-108745648D01*
X141514253Y-108745646D01*
X141534341Y-108580203D01*
X141534341Y-108580196D01*
X141514253Y-108414753D01*
X141488522Y-108346906D01*
X141455152Y-108258918D01*
X141455150Y-108258916D01*
X141455150Y-108258914D01*
X141388389Y-108162195D01*
X141360476Y-108121756D01*
X141235726Y-108011238D01*
X141088153Y-107933785D01*
X141088151Y-107933784D01*
X140926333Y-107893900D01*
X140926332Y-107893900D01*
X140759668Y-107893900D01*
X140759664Y-107893900D01*
X140691281Y-107910755D01*
X140620352Y-107907636D01*
X140571995Y-107877473D01*
X140570868Y-107876346D01*
X140555896Y-107848897D01*
X140523706Y-107816705D01*
X140512884Y-107814202D01*
X140510838Y-107813202D01*
X140458420Y-107765319D01*
X140440210Y-107696697D01*
X140461991Y-107629124D01*
X140510838Y-107586798D01*
X140512884Y-107585798D01*
X140523704Y-107583295D01*
X140550506Y-107556493D01*
X140554001Y-107544592D01*
X140570900Y-107523621D01*
X140594776Y-107499746D01*
X140650696Y-107385361D01*
X140661500Y-107311206D01*
X140661500Y-106788794D01*
X140654852Y-106743167D01*
X140654852Y-106706832D01*
X140661500Y-106661206D01*
X140661500Y-106138794D01*
X140657810Y-106113468D01*
X140667780Y-106043175D01*
X140714171Y-105989431D01*
X140782254Y-105969300D01*
X140926329Y-105969300D01*
X140926332Y-105969300D01*
X141088153Y-105929415D01*
X141235726Y-105851962D01*
X141360476Y-105741444D01*
X141455152Y-105604282D01*
X141514252Y-105448449D01*
X141514252Y-105448448D01*
X141514253Y-105448446D01*
X141534341Y-105283003D01*
X141534341Y-105282996D01*
X141514253Y-105117553D01*
X141464812Y-104987190D01*
X141455152Y-104961718D01*
X141455150Y-104961716D01*
X141455150Y-104961714D01*
X141360474Y-104824553D01*
X141357783Y-104821515D01*
X141356515Y-104818817D01*
X141356147Y-104818284D01*
X141356235Y-104818222D01*
X141327586Y-104757261D01*
X141327362Y-104754363D01*
X141327178Y-104754388D01*
X141326100Y-104746200D01*
X141321734Y-104729905D01*
X141293178Y-104623330D01*
X141229576Y-104513169D01*
X141139631Y-104423224D01*
X140881431Y-104165024D01*
X140779831Y-104063424D01*
X140779830Y-104063423D01*
X140741148Y-104041090D01*
X140724498Y-104031477D01*
X140675506Y-103980095D01*
X140661500Y-103922359D01*
X140661500Y-103538799D01*
X140661500Y-103538794D01*
X140654852Y-103493167D01*
X140654852Y-103456832D01*
X140659384Y-103425726D01*
X140661500Y-103411206D01*
X140661500Y-103015696D01*
X140681502Y-102947575D01*
X140735158Y-102901082D01*
X140805432Y-102890978D01*
X140870012Y-102920472D01*
G37*
G04 #@! TD.AperFunction*
G04 #@! TA.AperFunction,Conductor*
G36*
X152872067Y-107034564D02*
G01*
X152872144Y-107034263D01*
X152879971Y-107036240D01*
X152879977Y-107036243D01*
X152965389Y-107046500D01*
X153540602Y-107046499D01*
X153608723Y-107066501D01*
X153629697Y-107083404D01*
X153772197Y-107225904D01*
X153806223Y-107288216D01*
X153801158Y-107359031D01*
X153772197Y-107404094D01*
X153629696Y-107546595D01*
X153567384Y-107580621D01*
X153540601Y-107583500D01*
X152965394Y-107583500D01*
X152965382Y-107583501D01*
X152879977Y-107593756D01*
X152872142Y-107595737D01*
X152871584Y-107593529D01*
X152812503Y-107598857D01*
X152749571Y-107565992D01*
X152714397Y-107504321D01*
X152711000Y-107475261D01*
X152711000Y-107442000D01*
X152243018Y-107442000D01*
X152210410Y-107437707D01*
X152206672Y-107436705D01*
X152146052Y-107399755D01*
X152115030Y-107335894D01*
X152123459Y-107265400D01*
X152168662Y-107210653D01*
X152206670Y-107193294D01*
X152210410Y-107192292D01*
X152243018Y-107188000D01*
X152710999Y-107188000D01*
X152710999Y-107154738D01*
X152731001Y-107086617D01*
X152784657Y-107040124D01*
X152854931Y-107030020D01*
X152872067Y-107034564D01*
G37*
G04 #@! TD.AperFunction*
G04 #@! TA.AperFunction,Conductor*
G36*
X150428967Y-107038275D02*
G01*
X150474029Y-107067235D01*
X150503570Y-107096776D01*
X150503571Y-107096777D01*
X150503573Y-107096778D01*
X150567621Y-107133756D01*
X150613731Y-107160378D01*
X150736575Y-107193293D01*
X150797198Y-107230245D01*
X150828219Y-107294105D01*
X150819791Y-107364600D01*
X150774588Y-107419347D01*
X150736576Y-107436706D01*
X150613731Y-107469622D01*
X150613729Y-107469623D01*
X150613726Y-107469624D01*
X150503573Y-107533221D01*
X150503566Y-107533227D01*
X150474027Y-107562765D01*
X150411714Y-107596788D01*
X150340898Y-107591721D01*
X150295839Y-107562762D01*
X150195131Y-107462054D01*
X150195128Y-107462052D01*
X150195127Y-107462051D01*
X150129859Y-107423452D01*
X150081408Y-107371561D01*
X150068703Y-107301711D01*
X150095778Y-107236079D01*
X150129857Y-107206548D01*
X150195127Y-107167949D01*
X150295841Y-107067234D01*
X150358151Y-107033211D01*
X150428967Y-107038275D01*
G37*
G04 #@! TD.AperFunction*
G04 #@! TA.AperFunction,Conductor*
G36*
X146352783Y-91358902D02*
G01*
X146373757Y-91375805D01*
X152975195Y-97977243D01*
X153009221Y-98039555D01*
X153012100Y-98066338D01*
X153012100Y-99892397D01*
X152992098Y-99960518D01*
X152938442Y-100007011D01*
X152921254Y-100013394D01*
X152864114Y-100029995D01*
X152818208Y-100043332D01*
X152818207Y-100043332D01*
X152818202Y-100043334D01*
X152680874Y-100124549D01*
X152680867Y-100124555D01*
X152568055Y-100237367D01*
X152568049Y-100237374D01*
X152486833Y-100374703D01*
X152442319Y-100527920D01*
X152442317Y-100527932D01*
X152439500Y-100563721D01*
X152439500Y-101366278D01*
X152442317Y-101402067D01*
X152442319Y-101402079D01*
X152486833Y-101555296D01*
X152568049Y-101692625D01*
X152568055Y-101692632D01*
X152680867Y-101805444D01*
X152680874Y-101805450D01*
X152818203Y-101886666D01*
X152818206Y-101886666D01*
X152818208Y-101886668D01*
X152971426Y-101931182D01*
X152986770Y-101932389D01*
X153007222Y-101934000D01*
X153007230Y-101934000D01*
X153450762Y-101934000D01*
X153518883Y-101954002D01*
X153539857Y-101970905D01*
X153552357Y-101983405D01*
X153582391Y-102038407D01*
X153627512Y-102059014D01*
X153634095Y-102065143D01*
X153636095Y-102067143D01*
X153670121Y-102129455D01*
X153673000Y-102156238D01*
X153673000Y-103881499D01*
X154069203Y-103881499D01*
X154069226Y-103881497D01*
X154129231Y-103875047D01*
X154264421Y-103824623D01*
X154335237Y-103819557D01*
X154397549Y-103853581D01*
X154430161Y-103910066D01*
X154442481Y-103956046D01*
X154442486Y-103956058D01*
X154512772Y-104077796D01*
X154512773Y-104077797D01*
X154512774Y-104077798D01*
X155483398Y-105048422D01*
X155490091Y-105055115D01*
X155524117Y-105117427D01*
X155519052Y-105188242D01*
X155490091Y-105233305D01*
X155463015Y-105260380D01*
X155463010Y-105260386D01*
X155339416Y-105436897D01*
X155248349Y-105632190D01*
X155248347Y-105632195D01*
X155192577Y-105840331D01*
X155173796Y-106055000D01*
X155192577Y-106269668D01*
X155239474Y-106444688D01*
X155237784Y-106515664D01*
X155197990Y-106574460D01*
X155132726Y-106602408D01*
X155117767Y-106603299D01*
X154839500Y-106603299D01*
X154771379Y-106583297D01*
X154724886Y-106529641D01*
X154713500Y-106477299D01*
X154713499Y-106173394D01*
X154713498Y-106173382D01*
X154703243Y-106087977D01*
X154701359Y-106083199D01*
X154649643Y-105952057D01*
X154583491Y-105864822D01*
X154561361Y-105835638D01*
X154444944Y-105747358D01*
X154444943Y-105747357D01*
X154444941Y-105747356D01*
X154309025Y-105693757D01*
X154309019Y-105693756D01*
X154223611Y-105683500D01*
X152965394Y-105683500D01*
X152965382Y-105683501D01*
X152879977Y-105693756D01*
X152744058Y-105747356D01*
X152744055Y-105747358D01*
X152627635Y-105835641D01*
X152621544Y-105841733D01*
X152619718Y-105839907D01*
X152573272Y-105874227D01*
X152529976Y-105881899D01*
X152424648Y-105881899D01*
X152334703Y-105905998D01*
X152334704Y-105905999D01*
X152301779Y-105914821D01*
X152191621Y-105978421D01*
X152191611Y-105978429D01*
X152108858Y-106061183D01*
X152108852Y-106061187D01*
X152108853Y-106061188D01*
X152101671Y-106068369D01*
X152101671Y-106068370D01*
X152031243Y-106138799D01*
X151979847Y-106190195D01*
X151917535Y-106224220D01*
X151890751Y-106227100D01*
X151052498Y-106227100D01*
X150984377Y-106207098D01*
X150963407Y-106190199D01*
X150701632Y-105928424D01*
X150701630Y-105928423D01*
X150701628Y-105928421D01*
X150591475Y-105864824D01*
X150591472Y-105864823D01*
X150591471Y-105864822D01*
X150591469Y-105864821D01*
X150591468Y-105864821D01*
X150488749Y-105837298D01*
X150428126Y-105800346D01*
X150400364Y-105750744D01*
X150389168Y-105712208D01*
X150388364Y-105710848D01*
X150307950Y-105574874D01*
X150307944Y-105574867D01*
X150195132Y-105462055D01*
X150195125Y-105462049D01*
X150057796Y-105380833D01*
X149904579Y-105336319D01*
X149904575Y-105336318D01*
X149904574Y-105336318D01*
X149904572Y-105336317D01*
X149904567Y-105336317D01*
X149868778Y-105333500D01*
X149868770Y-105333500D01*
X148841230Y-105333500D01*
X148841222Y-105333500D01*
X148805432Y-105336317D01*
X148805420Y-105336319D01*
X148713493Y-105363027D01*
X148642497Y-105362824D01*
X148582880Y-105324270D01*
X148553572Y-105259605D01*
X148552340Y-105242030D01*
X148552340Y-104212459D01*
X148572342Y-104144338D01*
X148584027Y-104128906D01*
X148586707Y-104125878D01*
X148586716Y-104125871D01*
X148681392Y-103988709D01*
X148740492Y-103832876D01*
X148740492Y-103832875D01*
X148740493Y-103832873D01*
X148760581Y-103667430D01*
X148760581Y-103667423D01*
X148740493Y-103501980D01*
X148711564Y-103425702D01*
X152567001Y-103425702D01*
X152567002Y-103425726D01*
X152573452Y-103485732D01*
X152573452Y-103485734D01*
X152624100Y-103621523D01*
X152710952Y-103737547D01*
X152826976Y-103824399D01*
X152826975Y-103824399D01*
X152962761Y-103875046D01*
X152962769Y-103875048D01*
X153022785Y-103881499D01*
X153419000Y-103881499D01*
X153419000Y-103167000D01*
X152567001Y-103167000D01*
X152567001Y-103425702D01*
X148711564Y-103425702D01*
X148706070Y-103411216D01*
X148681392Y-103346145D01*
X148681390Y-103346143D01*
X148681390Y-103346141D01*
X148589180Y-103212553D01*
X148586716Y-103208983D01*
X148581434Y-103204304D01*
X148461966Y-103098465D01*
X148314393Y-103021012D01*
X148314391Y-103021011D01*
X148152573Y-102981127D01*
X148152572Y-102981127D01*
X147985908Y-102981127D01*
X147978286Y-102981127D01*
X147978286Y-102978603D01*
X147920240Y-102968950D01*
X147867620Y-102921289D01*
X147849120Y-102852745D01*
X147850406Y-102837349D01*
X147850696Y-102835361D01*
X147861500Y-102761206D01*
X147861500Y-102654277D01*
X152567000Y-102654277D01*
X152567000Y-102913000D01*
X153419000Y-102913000D01*
X153419000Y-102198500D01*
X153022797Y-102198500D01*
X153022773Y-102198502D01*
X152962767Y-102204952D01*
X152962765Y-102204952D01*
X152826976Y-102255600D01*
X152710952Y-102342452D01*
X152624100Y-102458476D01*
X152573453Y-102594261D01*
X152573451Y-102594269D01*
X152567000Y-102654277D01*
X147861500Y-102654277D01*
X147861500Y-102238794D01*
X147854852Y-102193167D01*
X147854852Y-102156832D01*
X147859249Y-102126652D01*
X147861500Y-102111206D01*
X147861500Y-101588794D01*
X147854851Y-101543167D01*
X147854851Y-101506839D01*
X147856917Y-101492659D01*
X147886528Y-101428135D01*
X147946324Y-101389862D01*
X148017321Y-101389992D01*
X148065068Y-101420365D01*
X148066819Y-101418390D01*
X148072524Y-101423444D01*
X148197274Y-101533962D01*
X148344847Y-101611415D01*
X148506668Y-101651300D01*
X148506671Y-101651300D01*
X148673329Y-101651300D01*
X148673332Y-101651300D01*
X148835153Y-101611415D01*
X148982726Y-101533962D01*
X149107476Y-101423444D01*
X149202152Y-101286282D01*
X149261252Y-101130449D01*
X149261252Y-101130448D01*
X149261253Y-101130446D01*
X149281341Y-100965003D01*
X149281341Y-100964996D01*
X149261253Y-100799553D01*
X149219850Y-100690383D01*
X149202152Y-100643718D01*
X149202150Y-100643716D01*
X149202150Y-100643714D01*
X149133783Y-100544668D01*
X149107476Y-100506556D01*
X149101965Y-100501674D01*
X148982726Y-100396038D01*
X148835153Y-100318585D01*
X148835151Y-100318584D01*
X148673333Y-100278700D01*
X148673332Y-100278700D01*
X148639097Y-100278700D01*
X148570976Y-100258698D01*
X148550006Y-100241799D01*
X148471631Y-100163424D01*
X148471630Y-100163423D01*
X148471627Y-100163421D01*
X148361474Y-100099824D01*
X148361472Y-100099823D01*
X148361470Y-100099822D01*
X148238601Y-100066900D01*
X148238600Y-100066900D01*
X147813613Y-100066900D01*
X147745492Y-100046898D01*
X147724518Y-100029995D01*
X147704747Y-100010224D01*
X147704745Y-100010223D01*
X147590362Y-99954304D01*
X147516207Y-99943500D01*
X147516206Y-99943500D01*
X145693794Y-99943500D01*
X145693792Y-99943500D01*
X145619638Y-99954304D01*
X145619636Y-99954304D01*
X145505254Y-100010223D01*
X145505252Y-100010224D01*
X145415224Y-100100252D01*
X145415223Y-100100254D01*
X145359304Y-100214636D01*
X145359304Y-100214638D01*
X145348500Y-100288792D01*
X145348500Y-100778301D01*
X145328498Y-100846422D01*
X145311596Y-100867396D01*
X144483369Y-101695624D01*
X144483368Y-101695624D01*
X144393429Y-101785562D01*
X144393421Y-101785572D01*
X144329824Y-101895725D01*
X144329823Y-101895728D01*
X144329822Y-101895730D01*
X144306330Y-101983405D01*
X144296900Y-102018600D01*
X144296900Y-102832967D01*
X144276898Y-102901088D01*
X144265217Y-102916515D01*
X144262525Y-102919553D01*
X144167849Y-103056714D01*
X144108746Y-103212553D01*
X144088659Y-103377996D01*
X144088659Y-103378003D01*
X144108746Y-103543446D01*
X144167849Y-103699285D01*
X144237700Y-103800481D01*
X144260061Y-103832876D01*
X144262523Y-103836442D01*
X144262525Y-103836445D01*
X144387271Y-103946960D01*
X144387272Y-103946960D01*
X144387274Y-103946962D01*
X144438531Y-103973864D01*
X144489550Y-104023229D01*
X144505783Y-104092345D01*
X144482072Y-104159265D01*
X144469068Y-104174524D01*
X144410430Y-104233161D01*
X144410422Y-104233171D01*
X144346825Y-104343324D01*
X144346824Y-104343327D01*
X144346823Y-104343329D01*
X144314754Y-104463015D01*
X144313901Y-104466199D01*
X144313901Y-104693304D01*
X144293899Y-104761425D01*
X144240243Y-104807918D01*
X144169969Y-104818022D01*
X144105389Y-104788528D01*
X144098806Y-104782399D01*
X141142608Y-101826201D01*
X141108582Y-101763889D01*
X141113647Y-101693074D01*
X141156194Y-101636238D01*
X141201552Y-101614767D01*
X141215153Y-101611415D01*
X141362726Y-101533962D01*
X141487476Y-101423444D01*
X141582152Y-101286282D01*
X141641252Y-101130449D01*
X141641252Y-101130448D01*
X141641253Y-101130446D01*
X141657224Y-100998904D01*
X141685290Y-100933691D01*
X141693198Y-100925007D01*
X142006376Y-100611831D01*
X142069978Y-100501670D01*
X142102900Y-100378801D01*
X142102900Y-100251599D01*
X142102900Y-96363770D01*
X142122902Y-96295649D01*
X142176558Y-96249156D01*
X142246832Y-96239052D01*
X142301169Y-96260556D01*
X142386898Y-96320584D01*
X142582193Y-96411652D01*
X142790335Y-96467423D01*
X143005000Y-96486204D01*
X143219665Y-96467423D01*
X143427807Y-96411652D01*
X143623102Y-96320584D01*
X143799617Y-96196987D01*
X143951987Y-96044617D01*
X144075584Y-95868102D01*
X144160805Y-95685344D01*
X144207722Y-95632060D01*
X144276000Y-95612599D01*
X144343960Y-95633141D01*
X144389194Y-95685343D01*
X144474416Y-95868102D01*
X144598013Y-96044617D01*
X144750383Y-96196987D01*
X144926898Y-96320584D01*
X145122193Y-96411652D01*
X145330335Y-96467423D01*
X145545000Y-96486204D01*
X145759665Y-96467423D01*
X145967807Y-96411652D01*
X146163102Y-96320584D01*
X146339617Y-96196987D01*
X146491987Y-96044617D01*
X146615584Y-95868102D01*
X146706652Y-95672807D01*
X146762423Y-95464665D01*
X146781204Y-95250000D01*
X146762423Y-95035335D01*
X146706652Y-94827193D01*
X146615584Y-94631898D01*
X146491987Y-94455383D01*
X146339617Y-94303013D01*
X146328610Y-94295306D01*
X146163102Y-94179416D01*
X145967809Y-94088349D01*
X145967804Y-94088347D01*
X145768925Y-94035058D01*
X145708302Y-93998106D01*
X145677281Y-93934246D01*
X145685709Y-93863751D01*
X145730912Y-93809004D01*
X145778384Y-93789496D01*
X145848423Y-93776403D01*
X146039196Y-93702496D01*
X146039203Y-93702493D01*
X146213161Y-93594784D01*
X146364362Y-93456946D01*
X146487659Y-93293672D01*
X146578859Y-93110519D01*
X146578861Y-93110514D01*
X146634852Y-92913725D01*
X146641962Y-92837001D01*
X146641962Y-92837000D01*
X146028608Y-92837000D01*
X146045000Y-92775826D01*
X146045000Y-92644174D01*
X146028608Y-92583000D01*
X146641962Y-92583000D01*
X146641962Y-92582998D01*
X146634852Y-92506274D01*
X146578861Y-92309485D01*
X146578859Y-92309480D01*
X146487659Y-92126327D01*
X146364362Y-91963053D01*
X146213161Y-91825215D01*
X146039203Y-91717506D01*
X146039196Y-91717503D01*
X145848422Y-91643596D01*
X145848424Y-91643596D01*
X145672000Y-91610617D01*
X145672000Y-92226391D01*
X145610826Y-92210000D01*
X145479174Y-92210000D01*
X145418000Y-92226391D01*
X145418000Y-91610617D01*
X145241576Y-91643596D01*
X145050803Y-91717503D01*
X145050796Y-91717506D01*
X144876838Y-91825215D01*
X144725637Y-91963053D01*
X144602340Y-92126327D01*
X144511140Y-92309480D01*
X144511138Y-92309485D01*
X144461637Y-92483462D01*
X144423756Y-92543508D01*
X144359425Y-92573543D01*
X144289069Y-92564029D01*
X144235025Y-92517988D01*
X144218740Y-92481591D01*
X144177569Y-92327939D01*
X144166652Y-92287193D01*
X144075584Y-92091898D01*
X143951987Y-91915383D01*
X143799617Y-91763013D01*
X143623102Y-91639416D01*
X143493744Y-91579095D01*
X143440459Y-91532177D01*
X143420998Y-91463900D01*
X143441540Y-91395940D01*
X143495563Y-91349875D01*
X143546994Y-91338900D01*
X146284662Y-91338900D01*
X146352783Y-91358902D01*
G37*
G04 #@! TD.AperFunction*
G04 #@! TA.AperFunction,Conductor*
G36*
X137857824Y-99690102D02*
G01*
X137878798Y-99707005D01*
X138170268Y-99998475D01*
X138204294Y-100060787D01*
X138199229Y-100131602D01*
X138194370Y-100142908D01*
X138159305Y-100214633D01*
X138159304Y-100214638D01*
X138148500Y-100288792D01*
X138148500Y-100339365D01*
X138128498Y-100407486D01*
X138074842Y-100453979D01*
X138004568Y-100464083D01*
X137946992Y-100440234D01*
X137882023Y-100391600D01*
X137882024Y-100391600D01*
X137746238Y-100340953D01*
X137746230Y-100340951D01*
X137686222Y-100334500D01*
X137290000Y-100334500D01*
X137290000Y-101177000D01*
X137269998Y-101245121D01*
X137216342Y-101291614D01*
X137164000Y-101303000D01*
X136184001Y-101303000D01*
X136184001Y-101459200D01*
X136163999Y-101527321D01*
X136110343Y-101573814D01*
X136058001Y-101585200D01*
X135690954Y-101585200D01*
X135690938Y-101585199D01*
X135683220Y-101585199D01*
X135556019Y-101585199D01*
X135556018Y-101585199D01*
X135466073Y-101609298D01*
X135466074Y-101609299D01*
X135433150Y-101618121D01*
X135418111Y-101626804D01*
X135349115Y-101643539D01*
X135282024Y-101620316D01*
X135238139Y-101564507D01*
X135231393Y-101493832D01*
X135240921Y-101464431D01*
X135242425Y-101461206D01*
X135276652Y-101387807D01*
X135332423Y-101179665D01*
X135351204Y-100965000D01*
X135335918Y-100790277D01*
X136184000Y-100790277D01*
X136184000Y-101049000D01*
X137036000Y-101049000D01*
X137036000Y-100334500D01*
X136639797Y-100334500D01*
X136639773Y-100334502D01*
X136579767Y-100340952D01*
X136579765Y-100340952D01*
X136443976Y-100391600D01*
X136327952Y-100478452D01*
X136241100Y-100594476D01*
X136190453Y-100730261D01*
X136190451Y-100730269D01*
X136184000Y-100790277D01*
X135335918Y-100790277D01*
X135332423Y-100750335D01*
X135283721Y-100568575D01*
X135285411Y-100497602D01*
X135316329Y-100446876D01*
X136056203Y-99707002D01*
X136118513Y-99672979D01*
X136145296Y-99670100D01*
X137789703Y-99670100D01*
X137857824Y-99690102D01*
G37*
G04 #@! TD.AperFunction*
G04 #@! TA.AperFunction,Conductor*
G36*
X160226621Y-89420502D02*
G01*
X160273114Y-89474158D01*
X160284500Y-89526500D01*
X160284500Y-113673500D01*
X160264498Y-113741621D01*
X160210842Y-113788114D01*
X160158500Y-113799500D01*
X110611500Y-113799500D01*
X110543379Y-113779498D01*
X110496886Y-113725842D01*
X110485500Y-113673500D01*
X110485500Y-107698792D01*
X130343500Y-107698792D01*
X130343500Y-109471207D01*
X130354304Y-109545361D01*
X130354304Y-109545363D01*
X130410223Y-109659745D01*
X130410224Y-109659747D01*
X130500252Y-109749775D01*
X130500254Y-109749776D01*
X130614639Y-109805696D01*
X130688794Y-109816500D01*
X130688800Y-109816500D01*
X132461200Y-109816500D01*
X132461206Y-109816500D01*
X132535361Y-109805696D01*
X132649746Y-109749776D01*
X132739776Y-109659746D01*
X132795696Y-109545361D01*
X132806500Y-109471206D01*
X132806500Y-109261239D01*
X132826502Y-109193118D01*
X132880158Y-109146625D01*
X132950432Y-109136521D01*
X133015012Y-109166015D01*
X133040069Y-109199259D01*
X133041665Y-109198338D01*
X133044413Y-109203099D01*
X133137026Y-109335363D01*
X133168013Y-109379617D01*
X133320383Y-109531987D01*
X133496898Y-109655584D01*
X133692193Y-109746652D01*
X133900335Y-109802423D01*
X134115000Y-109821204D01*
X134329665Y-109802423D01*
X134537807Y-109746652D01*
X134733102Y-109655584D01*
X134909617Y-109531987D01*
X135061987Y-109379617D01*
X135185584Y-109203102D01*
X135276652Y-109007807D01*
X135332423Y-108799665D01*
X135351204Y-108585000D01*
X135332423Y-108370335D01*
X135276652Y-108162193D01*
X135185584Y-107966898D01*
X135061987Y-107790383D01*
X134909617Y-107638013D01*
X134890515Y-107624638D01*
X134733102Y-107514416D01*
X134620805Y-107462051D01*
X134537807Y-107423348D01*
X134537805Y-107423347D01*
X134537804Y-107423347D01*
X134329668Y-107367577D01*
X134115000Y-107348796D01*
X133900331Y-107367577D01*
X133692195Y-107423347D01*
X133692190Y-107423349D01*
X133496897Y-107514416D01*
X133320386Y-107638010D01*
X133320380Y-107638015D01*
X133168015Y-107790380D01*
X133168010Y-107790386D01*
X133044413Y-107966900D01*
X133041665Y-107971662D01*
X133039420Y-107970365D01*
X132999508Y-108015465D01*
X132931182Y-108034753D01*
X132863274Y-108014040D01*
X132817345Y-107959901D01*
X132806500Y-107908760D01*
X132806500Y-107698800D01*
X132806500Y-107698794D01*
X132795696Y-107624639D01*
X132782080Y-107596788D01*
X132739776Y-107510254D01*
X132739775Y-107510252D01*
X132649747Y-107420224D01*
X132649745Y-107420223D01*
X132535362Y-107364304D01*
X132461207Y-107353500D01*
X132461206Y-107353500D01*
X130688794Y-107353500D01*
X130688792Y-107353500D01*
X130614638Y-107364304D01*
X130614636Y-107364304D01*
X130500254Y-107420223D01*
X130500252Y-107420224D01*
X130410224Y-107510252D01*
X130410223Y-107510254D01*
X130354304Y-107624636D01*
X130354304Y-107624638D01*
X130343500Y-107698792D01*
X110485500Y-107698792D01*
X110485500Y-98945000D01*
X113138796Y-98945000D01*
X113157577Y-99159668D01*
X113213347Y-99367804D01*
X113213349Y-99367809D01*
X113304416Y-99563102D01*
X113381352Y-99672979D01*
X113428013Y-99739617D01*
X113580383Y-99891987D01*
X113756898Y-100015584D01*
X113913892Y-100088792D01*
X113939654Y-100100805D01*
X113992939Y-100147723D01*
X114012400Y-100216000D01*
X113991858Y-100283960D01*
X113939654Y-100329195D01*
X113756897Y-100414416D01*
X113580386Y-100538010D01*
X113580380Y-100538015D01*
X113428015Y-100690380D01*
X113428010Y-100690386D01*
X113304416Y-100866897D01*
X113213349Y-101062190D01*
X113213347Y-101062195D01*
X113157577Y-101270331D01*
X113138796Y-101485000D01*
X113157577Y-101699668D01*
X113213347Y-101907804D01*
X113213349Y-101907809D01*
X113304416Y-102103102D01*
X113390821Y-102226502D01*
X113428013Y-102279617D01*
X113580383Y-102431987D01*
X113756898Y-102555584D01*
X113952193Y-102646652D01*
X114051622Y-102673293D01*
X114112244Y-102710244D01*
X114143266Y-102774105D01*
X114134838Y-102844599D01*
X114089636Y-102899346D01*
X114022010Y-102920964D01*
X114019011Y-102921000D01*
X113499986Y-102921000D01*
X113499977Y-102921001D01*
X113425894Y-102935737D01*
X113425892Y-102935737D01*
X113341875Y-102991875D01*
X113285737Y-103075893D01*
X113285736Y-103075894D01*
X113271000Y-103149977D01*
X113271000Y-103898000D01*
X113891392Y-103898000D01*
X113875000Y-103959174D01*
X113875000Y-104090826D01*
X113891392Y-104152000D01*
X113271001Y-104152000D01*
X113271001Y-104900022D01*
X113285737Y-104974105D01*
X113285737Y-104974107D01*
X113341875Y-105058124D01*
X113425893Y-105114262D01*
X113425894Y-105114263D01*
X113499980Y-105128999D01*
X114248000Y-105128999D01*
X114248000Y-104508608D01*
X114309174Y-104525000D01*
X114440826Y-104525000D01*
X114502000Y-104508608D01*
X114502000Y-105128999D01*
X115250014Y-105128999D01*
X115250022Y-105128998D01*
X115324105Y-105114262D01*
X115324107Y-105114262D01*
X115408124Y-105058124D01*
X115464262Y-104974106D01*
X115464263Y-104974105D01*
X115478999Y-104900022D01*
X115479000Y-104900015D01*
X115479000Y-104152000D01*
X114858608Y-104152000D01*
X114875000Y-104090826D01*
X114875000Y-103959174D01*
X114858608Y-103898000D01*
X115478999Y-103898000D01*
X115478999Y-103149986D01*
X115478998Y-103149977D01*
X115464262Y-103075894D01*
X115464262Y-103075892D01*
X115408124Y-102991875D01*
X115324106Y-102935737D01*
X115324105Y-102935736D01*
X115250022Y-102921000D01*
X114730990Y-102921000D01*
X114662869Y-102900998D01*
X114616376Y-102847342D01*
X114606272Y-102777068D01*
X114635766Y-102712488D01*
X114695492Y-102674104D01*
X114698346Y-102673302D01*
X114797807Y-102646652D01*
X114993102Y-102555584D01*
X115169617Y-102431987D01*
X115321987Y-102279617D01*
X115445584Y-102103102D01*
X115536652Y-101907807D01*
X115592423Y-101699665D01*
X115611204Y-101485000D01*
X115592423Y-101270335D01*
X115543721Y-101088575D01*
X115545411Y-101017602D01*
X115576331Y-100966874D01*
X118233202Y-98310005D01*
X118295514Y-98275979D01*
X118322297Y-98273100D01*
X125642500Y-98273100D01*
X125710621Y-98293102D01*
X125757114Y-98346758D01*
X125768500Y-98399100D01*
X125768500Y-98676207D01*
X125779304Y-98750361D01*
X125779304Y-98750363D01*
X125835223Y-98864745D01*
X125835224Y-98864747D01*
X125925252Y-98954775D01*
X125925254Y-98954776D01*
X126039639Y-99010696D01*
X126113794Y-99021500D01*
X126113800Y-99021500D01*
X126323761Y-99021500D01*
X126391882Y-99041502D01*
X126438375Y-99095158D01*
X126448479Y-99165432D01*
X126418985Y-99230012D01*
X126385740Y-99255069D01*
X126386662Y-99256665D01*
X126381900Y-99259413D01*
X126205386Y-99383010D01*
X126205380Y-99383015D01*
X126053015Y-99535380D01*
X126053010Y-99535386D01*
X125929416Y-99711897D01*
X125838349Y-99907190D01*
X125838347Y-99907195D01*
X125782577Y-100115331D01*
X125763796Y-100330000D01*
X125782577Y-100544668D01*
X125838347Y-100752804D01*
X125838348Y-100752807D01*
X125929416Y-100948102D01*
X126053013Y-101124617D01*
X126205383Y-101276987D01*
X126381898Y-101400584D01*
X126507600Y-101459200D01*
X126564654Y-101485805D01*
X126617939Y-101532723D01*
X126637400Y-101601000D01*
X126616858Y-101668960D01*
X126564654Y-101714195D01*
X126381897Y-101799416D01*
X126205386Y-101923010D01*
X126205380Y-101923015D01*
X126053015Y-102075380D01*
X126053010Y-102075386D01*
X125929416Y-102251897D01*
X125838349Y-102447190D01*
X125838347Y-102447195D01*
X125782577Y-102655331D01*
X125763796Y-102870000D01*
X125782577Y-103084668D01*
X125838347Y-103292804D01*
X125838348Y-103292807D01*
X125914834Y-103456832D01*
X125929416Y-103488102D01*
X126044367Y-103652270D01*
X126053013Y-103664617D01*
X126205383Y-103816987D01*
X126381898Y-103940584D01*
X126508934Y-103999822D01*
X126564654Y-104025805D01*
X126617939Y-104072723D01*
X126637400Y-104141000D01*
X126616858Y-104208960D01*
X126564654Y-104254195D01*
X126381897Y-104339416D01*
X126205386Y-104463010D01*
X126205380Y-104463015D01*
X126053015Y-104615380D01*
X126053010Y-104615386D01*
X125929416Y-104791897D01*
X125838349Y-104987190D01*
X125838347Y-104987195D01*
X125782577Y-105195331D01*
X125763796Y-105410000D01*
X125782577Y-105624668D01*
X125829650Y-105800346D01*
X125838348Y-105832807D01*
X125853277Y-105864822D01*
X125929416Y-106028102D01*
X126042914Y-106190195D01*
X126053013Y-106204617D01*
X126205383Y-106356987D01*
X126381898Y-106480584D01*
X126577193Y-106571652D01*
X126785335Y-106627423D01*
X127000000Y-106646204D01*
X127214665Y-106627423D01*
X127422807Y-106571652D01*
X127618102Y-106480584D01*
X127794617Y-106356987D01*
X127946987Y-106204617D01*
X128070584Y-106028102D01*
X128161652Y-105832807D01*
X128217423Y-105624665D01*
X128236204Y-105410000D01*
X128217423Y-105195335D01*
X128215522Y-105188242D01*
X128199648Y-105128998D01*
X128161652Y-104987193D01*
X128070584Y-104791898D01*
X127946987Y-104615383D01*
X127794617Y-104463013D01*
X127737792Y-104423224D01*
X127618102Y-104339416D01*
X127519365Y-104293374D01*
X127435344Y-104254194D01*
X127382060Y-104207278D01*
X127362599Y-104139000D01*
X127383141Y-104071040D01*
X127435343Y-104025805D01*
X127618102Y-103940584D01*
X127794617Y-103816987D01*
X127946987Y-103664617D01*
X128070584Y-103488102D01*
X128161652Y-103292807D01*
X128217423Y-103084665D01*
X128236204Y-102870000D01*
X128217423Y-102655335D01*
X128161652Y-102447193D01*
X128070584Y-102251898D01*
X127946987Y-102075383D01*
X127794617Y-101923013D01*
X127772903Y-101907809D01*
X127618102Y-101799416D01*
X127435344Y-101714194D01*
X127382060Y-101667278D01*
X127362599Y-101599000D01*
X127383141Y-101531040D01*
X127435343Y-101485805D01*
X127618102Y-101400584D01*
X127794617Y-101276987D01*
X127946987Y-101124617D01*
X128070584Y-100948102D01*
X128161652Y-100752807D01*
X128217423Y-100544665D01*
X128236204Y-100330000D01*
X128217423Y-100115335D01*
X128161652Y-99907193D01*
X128070584Y-99711898D01*
X127946987Y-99535383D01*
X127794617Y-99383013D01*
X127794613Y-99383010D01*
X127618099Y-99259413D01*
X127613338Y-99256665D01*
X127614682Y-99254336D01*
X127569796Y-99214923D01*
X127550242Y-99146672D01*
X127570691Y-99078685D01*
X127624651Y-99032545D01*
X127676239Y-99021500D01*
X127886200Y-99021500D01*
X127886206Y-99021500D01*
X127960361Y-99010696D01*
X128074746Y-98954776D01*
X128164776Y-98864746D01*
X128220696Y-98750361D01*
X128231500Y-98676206D01*
X128231500Y-96903794D01*
X128220696Y-96829639D01*
X128164776Y-96715254D01*
X128164775Y-96715252D01*
X128074747Y-96625224D01*
X128074745Y-96625223D01*
X127960362Y-96569304D01*
X127886207Y-96558500D01*
X127886206Y-96558500D01*
X126113794Y-96558500D01*
X126113792Y-96558500D01*
X126039638Y-96569304D01*
X126039636Y-96569304D01*
X125925254Y-96625223D01*
X125925252Y-96625224D01*
X125835224Y-96715252D01*
X125835223Y-96715254D01*
X125779304Y-96829636D01*
X125779304Y-96829638D01*
X125768500Y-96903792D01*
X125768500Y-97180900D01*
X125748498Y-97249021D01*
X125694842Y-97295514D01*
X125642500Y-97306900D01*
X118133601Y-97306900D01*
X118006399Y-97306900D01*
X117883530Y-97339822D01*
X117883528Y-97339823D01*
X117883525Y-97339824D01*
X117773372Y-97403421D01*
X117773362Y-97403429D01*
X115769479Y-99407312D01*
X115707167Y-99441338D01*
X115636351Y-99436273D01*
X115579516Y-99393726D01*
X115554705Y-99327206D01*
X115558676Y-99285608D01*
X115592423Y-99159665D01*
X115611204Y-98945000D01*
X115592423Y-98730335D01*
X115558903Y-98605235D01*
X115560593Y-98534261D01*
X115591513Y-98483533D01*
X118904346Y-95170702D01*
X136311001Y-95170702D01*
X136311002Y-95170726D01*
X136317452Y-95230732D01*
X136317452Y-95230734D01*
X136368100Y-95366523D01*
X136454952Y-95482547D01*
X136570976Y-95569399D01*
X136570975Y-95569399D01*
X136706761Y-95620046D01*
X136706769Y-95620048D01*
X136766785Y-95626499D01*
X137163000Y-95626499D01*
X137417000Y-95626499D01*
X137813203Y-95626499D01*
X137813226Y-95626497D01*
X137873232Y-95620047D01*
X137873234Y-95620047D01*
X138009023Y-95569399D01*
X138125047Y-95482547D01*
X138211899Y-95366523D01*
X138262546Y-95230738D01*
X138262548Y-95230730D01*
X138268999Y-95170722D01*
X138269000Y-95170705D01*
X138269000Y-94912000D01*
X137417000Y-94912000D01*
X137417000Y-95626499D01*
X137163000Y-95626499D01*
X137163000Y-94912000D01*
X136311001Y-94912000D01*
X136311001Y-95170702D01*
X118904346Y-95170702D01*
X119675771Y-94399277D01*
X136311000Y-94399277D01*
X136311000Y-94658000D01*
X137163000Y-94658000D01*
X137417000Y-94658000D01*
X138268999Y-94658000D01*
X138268999Y-94399297D01*
X138268997Y-94399273D01*
X138262547Y-94339267D01*
X138262547Y-94339265D01*
X138211899Y-94203476D01*
X138125047Y-94087452D01*
X138009023Y-94000600D01*
X138009024Y-94000600D01*
X137873238Y-93949953D01*
X137873230Y-93949951D01*
X137813222Y-93943500D01*
X137417000Y-93943500D01*
X137417000Y-94658000D01*
X137163000Y-94658000D01*
X137163000Y-93943500D01*
X136766797Y-93943500D01*
X136766773Y-93943502D01*
X136706767Y-93949952D01*
X136706765Y-93949952D01*
X136570976Y-94000600D01*
X136454952Y-94087452D01*
X136368100Y-94203476D01*
X136317453Y-94339261D01*
X136317451Y-94339269D01*
X136311000Y-94399277D01*
X119675771Y-94399277D01*
X120794243Y-93280805D01*
X120856555Y-93246779D01*
X120883338Y-93243900D01*
X136125613Y-93243900D01*
X136193734Y-93263902D01*
X136234065Y-93305759D01*
X136312051Y-93437627D01*
X136312052Y-93437628D01*
X136312054Y-93437631D01*
X136424867Y-93550444D01*
X136424874Y-93550450D01*
X136562203Y-93631666D01*
X136562206Y-93631666D01*
X136562208Y-93631668D01*
X136715426Y-93676182D01*
X136730770Y-93677389D01*
X136751222Y-93679000D01*
X136751230Y-93679000D01*
X137828778Y-93679000D01*
X137847865Y-93677497D01*
X137864574Y-93676182D01*
X138017792Y-93631668D01*
X138017794Y-93631666D01*
X138017796Y-93631666D01*
X138155125Y-93550450D01*
X138155124Y-93550450D01*
X138155127Y-93550449D01*
X138267949Y-93437627D01*
X138345934Y-93305759D01*
X138397826Y-93257308D01*
X138454387Y-93243900D01*
X139274881Y-93243900D01*
X139343002Y-93263902D01*
X139389076Y-93316651D01*
X139394416Y-93328102D01*
X139518013Y-93504617D01*
X139670383Y-93656987D01*
X139670386Y-93656989D01*
X139846900Y-93780586D01*
X139851662Y-93783335D01*
X139850317Y-93785663D01*
X139895204Y-93825077D01*
X139914758Y-93893328D01*
X139894309Y-93961315D01*
X139840349Y-94007455D01*
X139788761Y-94018500D01*
X139578792Y-94018500D01*
X139504638Y-94029304D01*
X139504636Y-94029304D01*
X139390254Y-94085223D01*
X139390252Y-94085224D01*
X139300224Y-94175252D01*
X139300223Y-94175254D01*
X139244304Y-94289636D01*
X139244304Y-94289638D01*
X139233500Y-94363792D01*
X139233500Y-96136207D01*
X139244304Y-96210361D01*
X139244304Y-96210363D01*
X139300223Y-96324745D01*
X139300224Y-96324747D01*
X139390252Y-96414775D01*
X139390254Y-96414776D01*
X139504639Y-96470696D01*
X139578794Y-96481500D01*
X141010700Y-96481500D01*
X141078821Y-96501502D01*
X141125314Y-96555158D01*
X141136700Y-96607500D01*
X141136700Y-100062903D01*
X141116698Y-100131024D01*
X141099795Y-100151998D01*
X141009998Y-100241795D01*
X140947686Y-100275821D01*
X140920903Y-100278700D01*
X140886664Y-100278700D01*
X140801226Y-100299759D01*
X140730298Y-100296640D01*
X140672316Y-100255670D01*
X140655263Y-100223298D01*
X140654994Y-100223430D01*
X140594776Y-100100254D01*
X140594775Y-100100252D01*
X140504747Y-100010224D01*
X140504745Y-100010223D01*
X140390362Y-99954304D01*
X140316207Y-99943500D01*
X140316206Y-99943500D01*
X139533897Y-99943500D01*
X139465776Y-99923498D01*
X139444802Y-99906595D01*
X138338637Y-98800429D01*
X138338627Y-98800421D01*
X138228474Y-98736824D01*
X138228472Y-98736823D01*
X138228470Y-98736822D01*
X138105601Y-98703900D01*
X138105600Y-98703900D01*
X135964335Y-98703900D01*
X135964319Y-98703899D01*
X135956601Y-98703899D01*
X135829399Y-98703899D01*
X135763626Y-98721523D01*
X135730739Y-98730335D01*
X135730738Y-98730334D01*
X135706535Y-98736820D01*
X135706525Y-98736824D01*
X135596372Y-98800421D01*
X135596367Y-98800425D01*
X135551396Y-98845397D01*
X135506424Y-98890369D01*
X135506422Y-98890371D01*
X134633125Y-99763666D01*
X134570813Y-99797691D01*
X134511419Y-99796277D01*
X134329668Y-99747577D01*
X134115000Y-99728796D01*
X133900331Y-99747577D01*
X133692195Y-99803347D01*
X133692190Y-99803349D01*
X133496897Y-99894416D01*
X133320386Y-100018010D01*
X133320380Y-100018015D01*
X133168015Y-100170380D01*
X133168010Y-100170386D01*
X133044413Y-100346900D01*
X133041665Y-100351662D01*
X133039420Y-100350365D01*
X132999508Y-100395465D01*
X132931182Y-100414753D01*
X132863274Y-100394040D01*
X132817345Y-100339901D01*
X132806500Y-100288760D01*
X132806500Y-100078800D01*
X132806500Y-100078794D01*
X132795696Y-100004639D01*
X132792850Y-99998818D01*
X132739776Y-99890254D01*
X132739775Y-99890252D01*
X132649747Y-99800224D01*
X132649745Y-99800223D01*
X132535362Y-99744304D01*
X132461207Y-99733500D01*
X132461206Y-99733500D01*
X130688794Y-99733500D01*
X130688792Y-99733500D01*
X130614638Y-99744304D01*
X130614636Y-99744304D01*
X130500254Y-99800223D01*
X130500252Y-99800224D01*
X130410224Y-99890252D01*
X130410223Y-99890254D01*
X130354304Y-100004636D01*
X130354304Y-100004638D01*
X130343500Y-100078792D01*
X130343500Y-101851207D01*
X130354304Y-101925361D01*
X130354304Y-101925363D01*
X130410223Y-102039745D01*
X130410224Y-102039747D01*
X130500252Y-102129775D01*
X130500254Y-102129776D01*
X130614639Y-102185696D01*
X130688794Y-102196500D01*
X130688800Y-102196500D01*
X132461200Y-102196500D01*
X132461206Y-102196500D01*
X132535361Y-102185696D01*
X132649746Y-102129776D01*
X132739776Y-102039746D01*
X132795696Y-101925361D01*
X132806500Y-101851206D01*
X132806500Y-101641239D01*
X132826502Y-101573118D01*
X132880158Y-101526625D01*
X132950432Y-101516521D01*
X133015012Y-101546015D01*
X133040069Y-101579259D01*
X133041665Y-101578338D01*
X133044413Y-101583099D01*
X133126034Y-101699665D01*
X133168013Y-101759617D01*
X133320383Y-101911987D01*
X133496898Y-102035584D01*
X133692193Y-102126652D01*
X133900335Y-102182423D01*
X134115000Y-102201204D01*
X134329665Y-102182423D01*
X134537807Y-102126652D01*
X134537818Y-102126646D01*
X134538684Y-102126332D01*
X134539099Y-102126305D01*
X134543121Y-102125228D01*
X134543337Y-102126035D01*
X134609538Y-102121822D01*
X134671581Y-102156334D01*
X134705117Y-102218911D01*
X134699498Y-102289685D01*
X134670886Y-102333824D01*
X133800646Y-103204064D01*
X133800644Y-103204067D01*
X133728429Y-103276281D01*
X133728421Y-103276291D01*
X133664824Y-103386444D01*
X133664823Y-103386447D01*
X133664822Y-103386449D01*
X133633867Y-103501978D01*
X133631900Y-103509319D01*
X133631900Y-103561192D01*
X133611898Y-103629313D01*
X133559150Y-103675387D01*
X133496897Y-103704416D01*
X133320386Y-103828010D01*
X133320380Y-103828015D01*
X133168015Y-103980380D01*
X133168010Y-103980386D01*
X133044413Y-104156900D01*
X133041665Y-104161662D01*
X133039420Y-104160365D01*
X132999508Y-104205465D01*
X132931182Y-104224753D01*
X132863274Y-104204040D01*
X132817345Y-104149901D01*
X132806500Y-104098760D01*
X132806500Y-103888800D01*
X132806500Y-103888794D01*
X132795696Y-103814639D01*
X132739776Y-103700254D01*
X132739775Y-103700252D01*
X132649747Y-103610224D01*
X132649745Y-103610223D01*
X132535362Y-103554304D01*
X132461207Y-103543500D01*
X132461206Y-103543500D01*
X130688794Y-103543500D01*
X130688792Y-103543500D01*
X130614638Y-103554304D01*
X130614636Y-103554304D01*
X130500254Y-103610223D01*
X130500252Y-103610224D01*
X130410224Y-103700252D01*
X130410223Y-103700254D01*
X130354304Y-103814636D01*
X130354304Y-103814638D01*
X130343500Y-103888792D01*
X130343500Y-105661207D01*
X130354304Y-105735361D01*
X130354304Y-105735363D01*
X130410223Y-105849745D01*
X130410224Y-105849747D01*
X130500252Y-105939775D01*
X130500254Y-105939776D01*
X130614639Y-105995696D01*
X130688794Y-106006500D01*
X130688800Y-106006500D01*
X132461200Y-106006500D01*
X132461206Y-106006500D01*
X132535361Y-105995696D01*
X132649746Y-105939776D01*
X132739776Y-105849746D01*
X132795696Y-105735361D01*
X132806500Y-105661206D01*
X132806500Y-105451239D01*
X132826502Y-105383118D01*
X132880158Y-105336625D01*
X132950432Y-105326521D01*
X133015012Y-105356015D01*
X133040069Y-105389259D01*
X133041665Y-105388338D01*
X133044413Y-105393099D01*
X133092697Y-105462055D01*
X133168013Y-105569617D01*
X133320383Y-105721987D01*
X133496898Y-105845584D01*
X133692193Y-105936652D01*
X133875743Y-105985833D01*
X133889168Y-105989431D01*
X133900335Y-105992423D01*
X134115000Y-106011204D01*
X134329665Y-105992423D01*
X134537807Y-105936652D01*
X134733102Y-105845584D01*
X134909617Y-105721987D01*
X135061987Y-105569617D01*
X135185584Y-105393102D01*
X135276652Y-105197807D01*
X135332423Y-104989665D01*
X135351204Y-104775000D01*
X135332423Y-104560335D01*
X135276652Y-104352193D01*
X135185584Y-104156898D01*
X135061987Y-103980383D01*
X134909617Y-103828013D01*
X134817054Y-103763200D01*
X134772727Y-103707745D01*
X134765418Y-103637125D01*
X134797448Y-103573765D01*
X134800199Y-103570925D01*
X135782820Y-102588305D01*
X135845132Y-102554279D01*
X135871915Y-102551400D01*
X135967773Y-102551400D01*
X136035894Y-102571402D01*
X136082387Y-102625058D01*
X136092491Y-102695332D01*
X136088771Y-102712547D01*
X136078739Y-102747078D01*
X136059319Y-102813920D01*
X136059317Y-102813932D01*
X136056500Y-102849721D01*
X136056500Y-103652278D01*
X136059317Y-103688067D01*
X136059319Y-103688079D01*
X136103833Y-103841296D01*
X136185049Y-103978625D01*
X136185055Y-103978632D01*
X136297867Y-104091444D01*
X136297874Y-104091450D01*
X136435203Y-104172666D01*
X136435206Y-104172666D01*
X136435208Y-104172668D01*
X136538254Y-104202605D01*
X136598089Y-104240818D01*
X136627766Y-104305314D01*
X136629100Y-104323602D01*
X136629100Y-107247711D01*
X136629100Y-107388289D01*
X136642740Y-107439195D01*
X136665483Y-107524075D01*
X136665486Y-107524082D01*
X136735772Y-107645820D01*
X136735773Y-107645821D01*
X136735774Y-107645822D01*
X137603596Y-108513644D01*
X137637620Y-108575955D01*
X137640500Y-108602738D01*
X137640500Y-110034111D01*
X137640500Y-110174689D01*
X137667133Y-110274088D01*
X137676883Y-110310475D01*
X137676886Y-110310482D01*
X137747172Y-110432220D01*
X137747173Y-110432221D01*
X137747174Y-110432222D01*
X138570096Y-111255144D01*
X138604120Y-111317455D01*
X138607000Y-111344238D01*
X138607000Y-112044778D01*
X138609817Y-112080567D01*
X138609819Y-112080579D01*
X138654333Y-112233796D01*
X138735549Y-112371125D01*
X138735555Y-112371132D01*
X138848367Y-112483944D01*
X138848374Y-112483950D01*
X138985703Y-112565166D01*
X138985706Y-112565166D01*
X138985708Y-112565168D01*
X139138926Y-112609682D01*
X139154270Y-112610889D01*
X139174722Y-112612500D01*
X139174730Y-112612500D01*
X139875261Y-112612500D01*
X139943382Y-112632502D01*
X139964351Y-112649400D01*
X140328777Y-113013826D01*
X140450522Y-113084116D01*
X140586311Y-113120500D01*
X140586313Y-113120500D01*
X145572187Y-113120500D01*
X145572189Y-113120500D01*
X145707978Y-113084116D01*
X145829722Y-113013826D01*
X146194144Y-112649403D01*
X146256455Y-112615380D01*
X146283238Y-112612500D01*
X146983778Y-112612500D01*
X147002865Y-112610997D01*
X147019574Y-112609682D01*
X147172792Y-112565168D01*
X147172794Y-112565166D01*
X147172796Y-112565166D01*
X147310125Y-112483950D01*
X147310124Y-112483950D01*
X147310127Y-112483949D01*
X147422949Y-112371127D01*
X147504168Y-112233792D01*
X147534105Y-112130745D01*
X147572318Y-112070911D01*
X147636814Y-112041234D01*
X147655102Y-112039900D01*
X156788287Y-112039900D01*
X156788289Y-112039900D01*
X156924078Y-112003516D01*
X157045822Y-111933226D01*
X159050226Y-109928822D01*
X159120516Y-109807078D01*
X159156900Y-109671289D01*
X159156900Y-109530711D01*
X159156900Y-106482711D01*
X159120516Y-106346922D01*
X159050226Y-106225178D01*
X158950822Y-106125774D01*
X157245637Y-104420589D01*
X157211611Y-104358277D01*
X157216676Y-104287462D01*
X157234182Y-104255562D01*
X157352659Y-104098672D01*
X157443859Y-103915519D01*
X157443861Y-103915514D01*
X157499852Y-103718725D01*
X157506962Y-103642001D01*
X157506962Y-103642000D01*
X156893608Y-103642000D01*
X156910000Y-103580826D01*
X156910000Y-103449174D01*
X156893608Y-103388000D01*
X157506962Y-103388000D01*
X157506962Y-103387998D01*
X157499852Y-103311274D01*
X157443861Y-103114485D01*
X157443859Y-103114480D01*
X157352659Y-102931327D01*
X157229362Y-102768053D01*
X157078161Y-102630215D01*
X156904203Y-102522506D01*
X156904196Y-102522503D01*
X156717023Y-102449991D01*
X156660728Y-102406732D01*
X156636758Y-102339904D01*
X156652722Y-102270726D01*
X156703553Y-102221160D01*
X156762540Y-102206500D01*
X157296200Y-102206500D01*
X157296206Y-102206500D01*
X157370361Y-102195696D01*
X157484746Y-102139776D01*
X157574776Y-102049746D01*
X157630696Y-101935361D01*
X157641500Y-101861206D01*
X157641500Y-100088794D01*
X157630696Y-100014639D01*
X157630087Y-100013394D01*
X157574776Y-99900254D01*
X157574775Y-99900252D01*
X157484747Y-99810224D01*
X157484745Y-99810223D01*
X157370362Y-99754304D01*
X157296207Y-99743500D01*
X157296206Y-99743500D01*
X155523794Y-99743500D01*
X155523792Y-99743500D01*
X155449638Y-99754304D01*
X155449636Y-99754304D01*
X155335254Y-99810223D01*
X155335252Y-99810224D01*
X155245224Y-99900252D01*
X155245223Y-99900254D01*
X155189304Y-100014636D01*
X155189304Y-100014638D01*
X155178500Y-100088792D01*
X155178500Y-100305100D01*
X155158498Y-100373221D01*
X155104842Y-100419714D01*
X155052500Y-100431100D01*
X154710387Y-100431100D01*
X154642266Y-100411098D01*
X154601934Y-100369240D01*
X154523949Y-100237373D01*
X154523946Y-100237370D01*
X154523945Y-100237368D01*
X154411132Y-100124555D01*
X154411125Y-100124549D01*
X154273797Y-100043334D01*
X154273793Y-100043333D01*
X154273792Y-100043332D01*
X154209638Y-100024693D01*
X154170746Y-100013394D01*
X154110911Y-99975180D01*
X154081234Y-99910684D01*
X154079900Y-99892397D01*
X154079900Y-97722712D01*
X154079900Y-97722711D01*
X154043516Y-97586922D01*
X154012312Y-97532876D01*
X153973226Y-97465177D01*
X153973223Y-97465174D01*
X153973220Y-97465170D01*
X146885823Y-90377774D01*
X146885820Y-90377772D01*
X146764082Y-90307486D01*
X146764079Y-90307485D01*
X146764078Y-90307484D01*
X146764076Y-90307483D01*
X146764075Y-90307483D01*
X146727688Y-90297733D01*
X146628289Y-90271100D01*
X139265289Y-90271100D01*
X139124711Y-90271100D01*
X139051945Y-90290597D01*
X138988924Y-90307483D01*
X138988917Y-90307486D01*
X138867179Y-90377772D01*
X138867176Y-90377774D01*
X137540857Y-91704095D01*
X137478545Y-91738120D01*
X137451762Y-91741000D01*
X136751222Y-91741000D01*
X136715432Y-91743817D01*
X136715420Y-91743819D01*
X136562203Y-91788333D01*
X136424874Y-91869549D01*
X136424867Y-91869555D01*
X136312054Y-91982368D01*
X136312051Y-91982372D01*
X136312051Y-91982373D01*
X136234065Y-92114240D01*
X136182174Y-92162692D01*
X136125613Y-92176100D01*
X120539711Y-92176100D01*
X120466945Y-92195597D01*
X120403924Y-92212483D01*
X120403917Y-92212486D01*
X120299234Y-92272926D01*
X120282178Y-92282772D01*
X114836467Y-97728483D01*
X114774155Y-97762509D01*
X114714762Y-97761095D01*
X114589670Y-97727578D01*
X114589668Y-97727577D01*
X114589665Y-97727577D01*
X114375000Y-97708796D01*
X114160331Y-97727577D01*
X113952195Y-97783347D01*
X113952190Y-97783349D01*
X113756897Y-97874416D01*
X113580386Y-97998010D01*
X113580380Y-97998015D01*
X113428015Y-98150380D01*
X113428010Y-98150386D01*
X113304416Y-98326897D01*
X113213349Y-98522190D01*
X113213347Y-98522195D01*
X113157577Y-98730331D01*
X113138796Y-98945000D01*
X110485500Y-98945000D01*
X110485500Y-89526500D01*
X110505502Y-89458379D01*
X110559158Y-89411886D01*
X110611500Y-89400500D01*
X160158500Y-89400500D01*
X160226621Y-89420502D01*
G37*
G04 #@! TD.AperFunction*
M02*
