M48
; DRILL file {KiCad 7.0.1-0} date 2023 November 23, Thursday 13:33:30
; FORMAT={-:-/ absolute / metric / decimal}
; #@! TF.CreationDate,2023-11-23T13:33:30-05:00
; #@! TF.GenerationSoftware,Kicad,Pcbnew,7.0.1-0
; #@! TF.FileFunction,Plated,1,2,PTH
FMAT,2
METRIC
; #@! TA.AperFunction,Plated,PTH,ViaDrill
T1C0.381
; #@! TA.AperFunction,Plated,PTH,ComponentDrill
T2C1.000
%
G90
G05
T1
X113.284Y-59.69
X120.269Y-60.325
T2
X89.535Y-51.689
X89.535Y-55.372
X89.535Y-59.055
X89.535Y-61.595
X89.535Y-65.278
X89.535Y-67.818
X89.535Y-70.358
X89.535Y-72.898
X89.535Y-75.438
X89.535Y-77.978
X89.535Y-80.518
X89.535Y-83.058
X89.535Y-85.598
X89.535Y-88.138
X89.535Y-91.821
X93.345Y-53.34
X93.345Y-57.15
X93.345Y-86.36
X93.345Y-90.17
X95.885Y-53.34
X95.885Y-57.15
X95.885Y-86.36
X95.885Y-90.17
X98.425Y-53.34
X98.425Y-57.15
X98.425Y-86.36
X98.425Y-90.17
X102.235Y-53.34
X102.235Y-57.15
X102.235Y-86.36
X102.235Y-90.17
X104.775Y-53.34
X104.775Y-57.15
X104.775Y-86.36
X104.775Y-90.17
X107.315Y-53.34
X107.315Y-57.15
X107.315Y-86.36
X107.315Y-90.17
X111.125Y-90.17
X111.14Y-53.34
X113.665Y-90.17
X113.68Y-53.34
X116.205Y-90.17
X116.22Y-53.34
X122.936Y-67.955
X122.936Y-70.495
X122.936Y-73.035
X122.936Y-75.575
X125.8Y-53.985
X125.8Y-56.525
X125.8Y-59.065
X125.8Y-61.605
X126.746Y-67.945
X126.746Y-70.485
X126.746Y-73.025
X126.746Y-75.565
T0
M30
