%TF.GenerationSoftware,KiCad,Pcbnew,7.0.1-0*%
%TF.CreationDate,2023-11-23T13:33:13-05:00*%
%TF.ProjectId,OBDBajaInterface,4f424442-616a-4614-996e-746572666163,rev?*%
%TF.SameCoordinates,Original*%
%TF.FileFunction,Legend,Top*%
%TF.FilePolarity,Positive*%
%FSLAX46Y46*%
G04 Gerber Fmt 4.6, Leading zero omitted, Abs format (unit mm)*
G04 Created by KiCad (PCBNEW 7.0.1-0) date 2023-11-23 13:33:13*
%MOMM*%
%LPD*%
G01*
G04 APERTURE LIST*
G04 Aperture macros list*
%AMRoundRect*
0 Rectangle with rounded corners*
0 $1 Rounding radius*
0 $2 $3 $4 $5 $6 $7 $8 $9 X,Y pos of 4 corners*
0 Add a 4 corners polygon primitive as box body*
4,1,4,$2,$3,$4,$5,$6,$7,$8,$9,$2,$3,0*
0 Add four circle primitives for the rounded corners*
1,1,$1+$1,$2,$3*
1,1,$1+$1,$4,$5*
1,1,$1+$1,$6,$7*
1,1,$1+$1,$8,$9*
0 Add four rect primitives between the rounded corners*
20,1,$1+$1,$2,$3,$4,$5,0*
20,1,$1+$1,$4,$5,$6,$7,0*
20,1,$1+$1,$6,$7,$8,$9,0*
20,1,$1+$1,$8,$9,$2,$3,0*%
G04 Aperture macros list end*
%ADD10C,0.150000*%
%ADD11C,0.203200*%
%ADD12C,0.304800*%
%ADD13C,0.120000*%
%ADD14R,1.700000X1.700000*%
%ADD15O,1.700000X1.700000*%
%ADD16RoundRect,0.150000X0.587500X0.150000X-0.587500X0.150000X-0.587500X-0.150000X0.587500X-0.150000X0*%
%ADD17C,3.200000*%
%ADD18RoundRect,0.250000X-0.475000X0.337500X-0.475000X-0.337500X0.475000X-0.337500X0.475000X0.337500X0*%
%ADD19RoundRect,0.150000X-0.825000X-0.150000X0.825000X-0.150000X0.825000X0.150000X-0.825000X0.150000X0*%
%ADD20RoundRect,0.250000X-0.450000X0.350000X-0.450000X-0.350000X0.450000X-0.350000X0.450000X0.350000X0*%
G04 APERTURE END LIST*
D10*
X93662500Y-75565000D02*
X95313500Y-75565000D01*
X95313500Y-76200000D01*
X93662500Y-76200000D01*
X93662500Y-75565000D01*
G36*
X93662500Y-75565000D02*
G01*
X95313500Y-75565000D01*
X95313500Y-76200000D01*
X93662500Y-76200000D01*
X93662500Y-75565000D01*
G37*
X101346000Y-75565000D02*
X93218000Y-75565000D01*
X93218000Y-75565000D02*
X93218000Y-67691000D01*
X118237000Y-73977500D02*
X118237000Y-75628500D01*
X99187000Y-67056000D02*
X100838000Y-67056000D01*
X100838000Y-67691000D01*
X99187000Y-67691000D01*
X99187000Y-67056000D01*
G36*
X99187000Y-67056000D02*
G01*
X100838000Y-67056000D01*
X100838000Y-67691000D01*
X99187000Y-67691000D01*
X99187000Y-67056000D01*
G37*
X96393000Y-75565000D02*
X98044000Y-75565000D01*
X98044000Y-76200000D01*
X96393000Y-76200000D01*
X96393000Y-75565000D01*
G36*
X96393000Y-75565000D02*
G01*
X98044000Y-75565000D01*
X98044000Y-76200000D01*
X96393000Y-76200000D01*
X96393000Y-75565000D01*
G37*
X101346000Y-67691000D02*
X101346000Y-67183000D01*
X115062000Y-73977500D02*
X115062000Y-75628500D01*
X115760500Y-69723000D02*
X115760500Y-71374000D01*
X115760500Y-69723000D01*
X102616000Y-67691000D02*
X102616000Y-67183000D01*
X92583000Y-74930000D02*
X93218000Y-74930000D01*
X93218000Y-75438000D01*
X92583000Y-75438000D01*
X92583000Y-74930000D01*
X113538000Y-73977500D02*
X119761000Y-73977500D01*
X119761000Y-75628500D01*
X113538000Y-75628500D01*
X113538000Y-73977500D01*
X114236500Y-69723000D02*
X118935500Y-69723000D01*
X118935500Y-71374000D01*
X114236500Y-71374000D01*
X114236500Y-69723000D01*
X93662500Y-67056000D02*
X95313500Y-67056000D01*
X95313500Y-67691000D01*
X93662500Y-67691000D01*
X93662500Y-67056000D01*
G36*
X93662500Y-67056000D02*
G01*
X95313500Y-67056000D01*
X95313500Y-67691000D01*
X93662500Y-67691000D01*
X93662500Y-67056000D01*
G37*
X92583000Y-70866000D02*
X93218000Y-70866000D01*
X93218000Y-74549000D01*
X92583000Y-74549000D01*
X92583000Y-70866000D01*
X116649500Y-73977500D02*
X116649500Y-75628500D01*
X93218000Y-67691000D02*
X101346000Y-67691000D01*
X102616000Y-68262500D02*
X103251000Y-68262500D01*
X103251000Y-69659500D01*
X102616000Y-69659500D01*
X102616000Y-68262500D01*
X101346000Y-76073000D02*
G75*
G03*
X102616000Y-76073000I635000J0D01*
G01*
X117348000Y-69723000D02*
X117348000Y-71374000D01*
X117348000Y-69723000D01*
X99187000Y-75565000D02*
X100838000Y-75565000D01*
X100838000Y-76200000D01*
X99187000Y-76200000D01*
X99187000Y-75565000D01*
G36*
X99187000Y-75565000D02*
G01*
X100838000Y-75565000D01*
X100838000Y-76200000D01*
X99187000Y-76200000D01*
X99187000Y-75565000D01*
G37*
X102616000Y-75565000D02*
X102616000Y-76073000D01*
X102616000Y-67183000D02*
G75*
G03*
X101346000Y-67183000I-635000J0D01*
G01*
X92583000Y-69596000D02*
X93218000Y-69596000D01*
X93218000Y-70485000D01*
X92583000Y-70485000D01*
X92583000Y-69596000D01*
X102616000Y-67691000D02*
X102616000Y-75565000D01*
X96393000Y-67056000D02*
X98044000Y-67056000D01*
X98044000Y-67691000D01*
X96393000Y-67691000D01*
X96393000Y-67056000D01*
G36*
X96393000Y-67056000D02*
G01*
X98044000Y-67056000D01*
X98044000Y-67691000D01*
X96393000Y-67691000D01*
X96393000Y-67056000D01*
G37*
X92583000Y-67818000D02*
X93218000Y-67818000D01*
X93218000Y-68326000D01*
X92583000Y-68326000D01*
X92583000Y-67818000D01*
X102264981Y-76073000D02*
G75*
G03*
X102264981Y-76073000I-283981J0D01*
G01*
X102264981Y-67183000D02*
G75*
G03*
X102264981Y-67183000I-283981J0D01*
G01*
X92583000Y-68707000D02*
X93218000Y-68707000D01*
X93218000Y-69215000D01*
X92583000Y-69215000D01*
X92583000Y-68707000D01*
X101346000Y-75565000D02*
X101346000Y-76073000D01*
X122237476Y-78316000D02*
X122380333Y-78363619D01*
X122380333Y-78363619D02*
X122618428Y-78363619D01*
X122618428Y-78363619D02*
X122713666Y-78316000D01*
X122713666Y-78316000D02*
X122761285Y-78268380D01*
X122761285Y-78268380D02*
X122808904Y-78173142D01*
X122808904Y-78173142D02*
X122808904Y-78077904D01*
X122808904Y-78077904D02*
X122761285Y-77982666D01*
X122761285Y-77982666D02*
X122713666Y-77935047D01*
X122713666Y-77935047D02*
X122618428Y-77887428D01*
X122618428Y-77887428D02*
X122427952Y-77839809D01*
X122427952Y-77839809D02*
X122332714Y-77792190D01*
X122332714Y-77792190D02*
X122285095Y-77744571D01*
X122285095Y-77744571D02*
X122237476Y-77649333D01*
X122237476Y-77649333D02*
X122237476Y-77554095D01*
X122237476Y-77554095D02*
X122285095Y-77458857D01*
X122285095Y-77458857D02*
X122332714Y-77411238D01*
X122332714Y-77411238D02*
X122427952Y-77363619D01*
X122427952Y-77363619D02*
X122666047Y-77363619D01*
X122666047Y-77363619D02*
X122808904Y-77411238D01*
X123237476Y-78363619D02*
X123237476Y-77363619D01*
X123237476Y-77363619D02*
X123475571Y-77363619D01*
X123475571Y-77363619D02*
X123618428Y-77411238D01*
X123618428Y-77411238D02*
X123713666Y-77506476D01*
X123713666Y-77506476D02*
X123761285Y-77601714D01*
X123761285Y-77601714D02*
X123808904Y-77792190D01*
X123808904Y-77792190D02*
X123808904Y-77935047D01*
X123808904Y-77935047D02*
X123761285Y-78125523D01*
X123761285Y-78125523D02*
X123713666Y-78220761D01*
X123713666Y-78220761D02*
X123618428Y-78316000D01*
X123618428Y-78316000D02*
X123475571Y-78363619D01*
X123475571Y-78363619D02*
X123237476Y-78363619D01*
X123618523Y-64425380D02*
X123570904Y-64473000D01*
X123570904Y-64473000D02*
X123428047Y-64520619D01*
X123428047Y-64520619D02*
X123332809Y-64520619D01*
X123332809Y-64520619D02*
X123189952Y-64473000D01*
X123189952Y-64473000D02*
X123094714Y-64377761D01*
X123094714Y-64377761D02*
X123047095Y-64282523D01*
X123047095Y-64282523D02*
X122999476Y-64092047D01*
X122999476Y-64092047D02*
X122999476Y-63949190D01*
X122999476Y-63949190D02*
X123047095Y-63758714D01*
X123047095Y-63758714D02*
X123094714Y-63663476D01*
X123094714Y-63663476D02*
X123189952Y-63568238D01*
X123189952Y-63568238D02*
X123332809Y-63520619D01*
X123332809Y-63520619D02*
X123428047Y-63520619D01*
X123428047Y-63520619D02*
X123570904Y-63568238D01*
X123570904Y-63568238D02*
X123618523Y-63615857D01*
X123999476Y-64234904D02*
X124475666Y-64234904D01*
X123904238Y-64520619D02*
X124237571Y-63520619D01*
X124237571Y-63520619D02*
X124570904Y-64520619D01*
X124904238Y-64520619D02*
X124904238Y-63520619D01*
X124904238Y-63520619D02*
X125475666Y-64520619D01*
X125475666Y-64520619D02*
X125475666Y-63520619D01*
X127047095Y-63996809D02*
X127189952Y-64044428D01*
X127189952Y-64044428D02*
X127237571Y-64092047D01*
X127237571Y-64092047D02*
X127285190Y-64187285D01*
X127285190Y-64187285D02*
X127285190Y-64330142D01*
X127285190Y-64330142D02*
X127237571Y-64425380D01*
X127237571Y-64425380D02*
X127189952Y-64473000D01*
X127189952Y-64473000D02*
X127094714Y-64520619D01*
X127094714Y-64520619D02*
X126713762Y-64520619D01*
X126713762Y-64520619D02*
X126713762Y-63520619D01*
X126713762Y-63520619D02*
X127047095Y-63520619D01*
X127047095Y-63520619D02*
X127142333Y-63568238D01*
X127142333Y-63568238D02*
X127189952Y-63615857D01*
X127189952Y-63615857D02*
X127237571Y-63711095D01*
X127237571Y-63711095D02*
X127237571Y-63806333D01*
X127237571Y-63806333D02*
X127189952Y-63901571D01*
X127189952Y-63901571D02*
X127142333Y-63949190D01*
X127142333Y-63949190D02*
X127047095Y-63996809D01*
X127047095Y-63996809D02*
X126713762Y-63996809D01*
X127713762Y-63520619D02*
X127713762Y-64330142D01*
X127713762Y-64330142D02*
X127761381Y-64425380D01*
X127761381Y-64425380D02*
X127809000Y-64473000D01*
X127809000Y-64473000D02*
X127904238Y-64520619D01*
X127904238Y-64520619D02*
X128094714Y-64520619D01*
X128094714Y-64520619D02*
X128189952Y-64473000D01*
X128189952Y-64473000D02*
X128237571Y-64425380D01*
X128237571Y-64425380D02*
X128285190Y-64330142D01*
X128285190Y-64330142D02*
X128285190Y-63520619D01*
X128713762Y-64473000D02*
X128856619Y-64520619D01*
X128856619Y-64520619D02*
X129094714Y-64520619D01*
X129094714Y-64520619D02*
X129189952Y-64473000D01*
X129189952Y-64473000D02*
X129237571Y-64425380D01*
X129237571Y-64425380D02*
X129285190Y-64330142D01*
X129285190Y-64330142D02*
X129285190Y-64234904D01*
X129285190Y-64234904D02*
X129237571Y-64139666D01*
X129237571Y-64139666D02*
X129189952Y-64092047D01*
X129189952Y-64092047D02*
X129094714Y-64044428D01*
X129094714Y-64044428D02*
X128904238Y-63996809D01*
X128904238Y-63996809D02*
X128809000Y-63949190D01*
X128809000Y-63949190D02*
X128761381Y-63901571D01*
X128761381Y-63901571D02*
X128713762Y-63806333D01*
X128713762Y-63806333D02*
X128713762Y-63711095D01*
X128713762Y-63711095D02*
X128761381Y-63615857D01*
X128761381Y-63615857D02*
X128809000Y-63568238D01*
X128809000Y-63568238D02*
X128904238Y-63520619D01*
X128904238Y-63520619D02*
X129142333Y-63520619D01*
X129142333Y-63520619D02*
X129285190Y-63568238D01*
X115601881Y-69106119D02*
X115601881Y-68106119D01*
X116792356Y-68058500D02*
X115935214Y-69344214D01*
X117316166Y-68106119D02*
X117506642Y-68106119D01*
X117506642Y-68106119D02*
X117601880Y-68153738D01*
X117601880Y-68153738D02*
X117697118Y-68248976D01*
X117697118Y-68248976D02*
X117744737Y-68439452D01*
X117744737Y-68439452D02*
X117744737Y-68772785D01*
X117744737Y-68772785D02*
X117697118Y-68963261D01*
X117697118Y-68963261D02*
X117601880Y-69058500D01*
X117601880Y-69058500D02*
X117506642Y-69106119D01*
X117506642Y-69106119D02*
X117316166Y-69106119D01*
X117316166Y-69106119D02*
X117220928Y-69058500D01*
X117220928Y-69058500D02*
X117125690Y-68963261D01*
X117125690Y-68963261D02*
X117078071Y-68772785D01*
X117078071Y-68772785D02*
X117078071Y-68439452D01*
X117078071Y-68439452D02*
X117125690Y-68248976D01*
X117125690Y-68248976D02*
X117220928Y-68153738D01*
X117220928Y-68153738D02*
X117316166Y-68106119D01*
D11*
X93713904Y-69116060D02*
X93713904Y-68100060D01*
X93713904Y-68100060D02*
X93955809Y-68100060D01*
X93955809Y-68100060D02*
X94100952Y-68148441D01*
X94100952Y-68148441D02*
X94197714Y-68245203D01*
X94197714Y-68245203D02*
X94246095Y-68341965D01*
X94246095Y-68341965D02*
X94294476Y-68535489D01*
X94294476Y-68535489D02*
X94294476Y-68680632D01*
X94294476Y-68680632D02*
X94246095Y-68874156D01*
X94246095Y-68874156D02*
X94197714Y-68970918D01*
X94197714Y-68970918D02*
X94100952Y-69067680D01*
X94100952Y-69067680D02*
X93955809Y-69116060D01*
X93955809Y-69116060D02*
X93713904Y-69116060D01*
X94633142Y-68100060D02*
X95262095Y-68100060D01*
X95262095Y-68100060D02*
X94923428Y-68487108D01*
X94923428Y-68487108D02*
X95068571Y-68487108D01*
X95068571Y-68487108D02*
X95165333Y-68535489D01*
X95165333Y-68535489D02*
X95213714Y-68583870D01*
X95213714Y-68583870D02*
X95262095Y-68680632D01*
X95262095Y-68680632D02*
X95262095Y-68922537D01*
X95262095Y-68922537D02*
X95213714Y-69019299D01*
X95213714Y-69019299D02*
X95165333Y-69067680D01*
X95165333Y-69067680D02*
X95068571Y-69116060D01*
X95068571Y-69116060D02*
X94778285Y-69116060D01*
X94778285Y-69116060D02*
X94681523Y-69067680D01*
X94681523Y-69067680D02*
X94633142Y-69019299D01*
X96471618Y-69116060D02*
X96471618Y-68100060D01*
X96471618Y-68100060D02*
X96713523Y-68100060D01*
X96713523Y-68100060D02*
X96858666Y-68148441D01*
X96858666Y-68148441D02*
X96955428Y-68245203D01*
X96955428Y-68245203D02*
X97003809Y-68341965D01*
X97003809Y-68341965D02*
X97052190Y-68535489D01*
X97052190Y-68535489D02*
X97052190Y-68680632D01*
X97052190Y-68680632D02*
X97003809Y-68874156D01*
X97003809Y-68874156D02*
X96955428Y-68970918D01*
X96955428Y-68970918D02*
X96858666Y-69067680D01*
X96858666Y-69067680D02*
X96713523Y-69116060D01*
X96713523Y-69116060D02*
X96471618Y-69116060D01*
X97923047Y-68438727D02*
X97923047Y-69116060D01*
X97681142Y-68051680D02*
X97439237Y-68777394D01*
X97439237Y-68777394D02*
X98068190Y-68777394D01*
X99229332Y-69116060D02*
X99229332Y-68100060D01*
X99229332Y-68100060D02*
X99471237Y-68100060D01*
X99471237Y-68100060D02*
X99616380Y-68148441D01*
X99616380Y-68148441D02*
X99713142Y-68245203D01*
X99713142Y-68245203D02*
X99761523Y-68341965D01*
X99761523Y-68341965D02*
X99809904Y-68535489D01*
X99809904Y-68535489D02*
X99809904Y-68680632D01*
X99809904Y-68680632D02*
X99761523Y-68874156D01*
X99761523Y-68874156D02*
X99713142Y-68970918D01*
X99713142Y-68970918D02*
X99616380Y-69067680D01*
X99616380Y-69067680D02*
X99471237Y-69116060D01*
X99471237Y-69116060D02*
X99229332Y-69116060D01*
X100729142Y-68100060D02*
X100245332Y-68100060D01*
X100245332Y-68100060D02*
X100196951Y-68583870D01*
X100196951Y-68583870D02*
X100245332Y-68535489D01*
X100245332Y-68535489D02*
X100342094Y-68487108D01*
X100342094Y-68487108D02*
X100583999Y-68487108D01*
X100583999Y-68487108D02*
X100680761Y-68535489D01*
X100680761Y-68535489D02*
X100729142Y-68583870D01*
X100729142Y-68583870D02*
X100777523Y-68680632D01*
X100777523Y-68680632D02*
X100777523Y-68922537D01*
X100777523Y-68922537D02*
X100729142Y-69019299D01*
X100729142Y-69019299D02*
X100680761Y-69067680D01*
X100680761Y-69067680D02*
X100583999Y-69116060D01*
X100583999Y-69116060D02*
X100342094Y-69116060D01*
X100342094Y-69116060D02*
X100245332Y-69067680D01*
X100245332Y-69067680D02*
X100196951Y-69019299D01*
X93713904Y-70761980D02*
X93713904Y-69745980D01*
X93713904Y-69745980D02*
X93955809Y-69745980D01*
X93955809Y-69745980D02*
X94100952Y-69794361D01*
X94100952Y-69794361D02*
X94197714Y-69891123D01*
X94197714Y-69891123D02*
X94246095Y-69987885D01*
X94246095Y-69987885D02*
X94294476Y-70181409D01*
X94294476Y-70181409D02*
X94294476Y-70326552D01*
X94294476Y-70326552D02*
X94246095Y-70520076D01*
X94246095Y-70520076D02*
X94197714Y-70616838D01*
X94197714Y-70616838D02*
X94100952Y-70713600D01*
X94100952Y-70713600D02*
X93955809Y-70761980D01*
X93955809Y-70761980D02*
X93713904Y-70761980D01*
X95165333Y-69745980D02*
X94971809Y-69745980D01*
X94971809Y-69745980D02*
X94875047Y-69794361D01*
X94875047Y-69794361D02*
X94826666Y-69842742D01*
X94826666Y-69842742D02*
X94729904Y-69987885D01*
X94729904Y-69987885D02*
X94681523Y-70181409D01*
X94681523Y-70181409D02*
X94681523Y-70568457D01*
X94681523Y-70568457D02*
X94729904Y-70665219D01*
X94729904Y-70665219D02*
X94778285Y-70713600D01*
X94778285Y-70713600D02*
X94875047Y-70761980D01*
X94875047Y-70761980D02*
X95068571Y-70761980D01*
X95068571Y-70761980D02*
X95165333Y-70713600D01*
X95165333Y-70713600D02*
X95213714Y-70665219D01*
X95213714Y-70665219D02*
X95262095Y-70568457D01*
X95262095Y-70568457D02*
X95262095Y-70326552D01*
X95262095Y-70326552D02*
X95213714Y-70229790D01*
X95213714Y-70229790D02*
X95165333Y-70181409D01*
X95165333Y-70181409D02*
X95068571Y-70133028D01*
X95068571Y-70133028D02*
X94875047Y-70133028D01*
X94875047Y-70133028D02*
X94778285Y-70181409D01*
X94778285Y-70181409D02*
X94729904Y-70229790D01*
X94729904Y-70229790D02*
X94681523Y-70326552D01*
X96471618Y-70761980D02*
X96471618Y-69745980D01*
X96471618Y-69745980D02*
X96713523Y-69745980D01*
X96713523Y-69745980D02*
X96858666Y-69794361D01*
X96858666Y-69794361D02*
X96955428Y-69891123D01*
X96955428Y-69891123D02*
X97003809Y-69987885D01*
X97003809Y-69987885D02*
X97052190Y-70181409D01*
X97052190Y-70181409D02*
X97052190Y-70326552D01*
X97052190Y-70326552D02*
X97003809Y-70520076D01*
X97003809Y-70520076D02*
X96955428Y-70616838D01*
X96955428Y-70616838D02*
X96858666Y-70713600D01*
X96858666Y-70713600D02*
X96713523Y-70761980D01*
X96713523Y-70761980D02*
X96471618Y-70761980D01*
X97390856Y-69745980D02*
X98068190Y-69745980D01*
X98068190Y-69745980D02*
X97632761Y-70761980D01*
D10*
X114125690Y-73265380D02*
X114078071Y-73313000D01*
X114078071Y-73313000D02*
X113935214Y-73360619D01*
X113935214Y-73360619D02*
X113839976Y-73360619D01*
X113839976Y-73360619D02*
X113697119Y-73313000D01*
X113697119Y-73313000D02*
X113601881Y-73217761D01*
X113601881Y-73217761D02*
X113554262Y-73122523D01*
X113554262Y-73122523D02*
X113506643Y-72932047D01*
X113506643Y-72932047D02*
X113506643Y-72789190D01*
X113506643Y-72789190D02*
X113554262Y-72598714D01*
X113554262Y-72598714D02*
X113601881Y-72503476D01*
X113601881Y-72503476D02*
X113697119Y-72408238D01*
X113697119Y-72408238D02*
X113839976Y-72360619D01*
X113839976Y-72360619D02*
X113935214Y-72360619D01*
X113935214Y-72360619D02*
X114078071Y-72408238D01*
X114078071Y-72408238D02*
X114125690Y-72455857D01*
X114506643Y-73074904D02*
X114982833Y-73074904D01*
X114411405Y-73360619D02*
X114744738Y-72360619D01*
X114744738Y-72360619D02*
X115078071Y-73360619D01*
X115411405Y-73360619D02*
X115411405Y-72360619D01*
X115411405Y-72360619D02*
X115982833Y-73360619D01*
X115982833Y-73360619D02*
X115982833Y-72360619D01*
X117554262Y-72836809D02*
X117697119Y-72884428D01*
X117697119Y-72884428D02*
X117744738Y-72932047D01*
X117744738Y-72932047D02*
X117792357Y-73027285D01*
X117792357Y-73027285D02*
X117792357Y-73170142D01*
X117792357Y-73170142D02*
X117744738Y-73265380D01*
X117744738Y-73265380D02*
X117697119Y-73313000D01*
X117697119Y-73313000D02*
X117601881Y-73360619D01*
X117601881Y-73360619D02*
X117220929Y-73360619D01*
X117220929Y-73360619D02*
X117220929Y-72360619D01*
X117220929Y-72360619D02*
X117554262Y-72360619D01*
X117554262Y-72360619D02*
X117649500Y-72408238D01*
X117649500Y-72408238D02*
X117697119Y-72455857D01*
X117697119Y-72455857D02*
X117744738Y-72551095D01*
X117744738Y-72551095D02*
X117744738Y-72646333D01*
X117744738Y-72646333D02*
X117697119Y-72741571D01*
X117697119Y-72741571D02*
X117649500Y-72789190D01*
X117649500Y-72789190D02*
X117554262Y-72836809D01*
X117554262Y-72836809D02*
X117220929Y-72836809D01*
X118220929Y-72360619D02*
X118220929Y-73170142D01*
X118220929Y-73170142D02*
X118268548Y-73265380D01*
X118268548Y-73265380D02*
X118316167Y-73313000D01*
X118316167Y-73313000D02*
X118411405Y-73360619D01*
X118411405Y-73360619D02*
X118601881Y-73360619D01*
X118601881Y-73360619D02*
X118697119Y-73313000D01*
X118697119Y-73313000D02*
X118744738Y-73265380D01*
X118744738Y-73265380D02*
X118792357Y-73170142D01*
X118792357Y-73170142D02*
X118792357Y-72360619D01*
X119220929Y-73313000D02*
X119363786Y-73360619D01*
X119363786Y-73360619D02*
X119601881Y-73360619D01*
X119601881Y-73360619D02*
X119697119Y-73313000D01*
X119697119Y-73313000D02*
X119744738Y-73265380D01*
X119744738Y-73265380D02*
X119792357Y-73170142D01*
X119792357Y-73170142D02*
X119792357Y-73074904D01*
X119792357Y-73074904D02*
X119744738Y-72979666D01*
X119744738Y-72979666D02*
X119697119Y-72932047D01*
X119697119Y-72932047D02*
X119601881Y-72884428D01*
X119601881Y-72884428D02*
X119411405Y-72836809D01*
X119411405Y-72836809D02*
X119316167Y-72789190D01*
X119316167Y-72789190D02*
X119268548Y-72741571D01*
X119268548Y-72741571D02*
X119220929Y-72646333D01*
X119220929Y-72646333D02*
X119220929Y-72551095D01*
X119220929Y-72551095D02*
X119268548Y-72455857D01*
X119268548Y-72455857D02*
X119316167Y-72408238D01*
X119316167Y-72408238D02*
X119411405Y-72360619D01*
X119411405Y-72360619D02*
X119649500Y-72360619D01*
X119649500Y-72360619D02*
X119792357Y-72408238D01*
X114630248Y-70541266D02*
X115392153Y-70541266D01*
X115011200Y-70922219D02*
X115011200Y-70160314D01*
X117163886Y-75291019D02*
X117163886Y-74291019D01*
X117163886Y-74767209D02*
X117735314Y-74767209D01*
X117735314Y-75291019D02*
X117735314Y-74291019D01*
X119283123Y-75291019D02*
X118806933Y-75291019D01*
X118806933Y-75291019D02*
X118806933Y-74291019D01*
D12*
X93635285Y-79699031D02*
X93925571Y-79699031D01*
X93925571Y-79699031D02*
X94070714Y-79771602D01*
X94070714Y-79771602D02*
X94215857Y-79916745D01*
X94215857Y-79916745D02*
X94288428Y-80207031D01*
X94288428Y-80207031D02*
X94288428Y-80715031D01*
X94288428Y-80715031D02*
X94215857Y-81005317D01*
X94215857Y-81005317D02*
X94070714Y-81150460D01*
X94070714Y-81150460D02*
X93925571Y-81223031D01*
X93925571Y-81223031D02*
X93635285Y-81223031D01*
X93635285Y-81223031D02*
X93490143Y-81150460D01*
X93490143Y-81150460D02*
X93345000Y-81005317D01*
X93345000Y-81005317D02*
X93272428Y-80715031D01*
X93272428Y-80715031D02*
X93272428Y-80207031D01*
X93272428Y-80207031D02*
X93345000Y-79916745D01*
X93345000Y-79916745D02*
X93490143Y-79771602D01*
X93490143Y-79771602D02*
X93635285Y-79699031D01*
X95449571Y-80424745D02*
X95667285Y-80497317D01*
X95667285Y-80497317D02*
X95739856Y-80569888D01*
X95739856Y-80569888D02*
X95812428Y-80715031D01*
X95812428Y-80715031D02*
X95812428Y-80932745D01*
X95812428Y-80932745D02*
X95739856Y-81077888D01*
X95739856Y-81077888D02*
X95667285Y-81150460D01*
X95667285Y-81150460D02*
X95522142Y-81223031D01*
X95522142Y-81223031D02*
X94941571Y-81223031D01*
X94941571Y-81223031D02*
X94941571Y-79699031D01*
X94941571Y-79699031D02*
X95449571Y-79699031D01*
X95449571Y-79699031D02*
X95594714Y-79771602D01*
X95594714Y-79771602D02*
X95667285Y-79844174D01*
X95667285Y-79844174D02*
X95739856Y-79989317D01*
X95739856Y-79989317D02*
X95739856Y-80134460D01*
X95739856Y-80134460D02*
X95667285Y-80279602D01*
X95667285Y-80279602D02*
X95594714Y-80352174D01*
X95594714Y-80352174D02*
X95449571Y-80424745D01*
X95449571Y-80424745D02*
X94941571Y-80424745D01*
X96465571Y-81223031D02*
X96465571Y-79699031D01*
X96465571Y-79699031D02*
X96828428Y-79699031D01*
X96828428Y-79699031D02*
X97046142Y-79771602D01*
X97046142Y-79771602D02*
X97191285Y-79916745D01*
X97191285Y-79916745D02*
X97263856Y-80061888D01*
X97263856Y-80061888D02*
X97336428Y-80352174D01*
X97336428Y-80352174D02*
X97336428Y-80569888D01*
X97336428Y-80569888D02*
X97263856Y-80860174D01*
X97263856Y-80860174D02*
X97191285Y-81005317D01*
X97191285Y-81005317D02*
X97046142Y-81150460D01*
X97046142Y-81150460D02*
X96828428Y-81223031D01*
X96828428Y-81223031D02*
X96465571Y-81223031D01*
X99658714Y-80424745D02*
X99876428Y-80497317D01*
X99876428Y-80497317D02*
X99948999Y-80569888D01*
X99948999Y-80569888D02*
X100021571Y-80715031D01*
X100021571Y-80715031D02*
X100021571Y-80932745D01*
X100021571Y-80932745D02*
X99948999Y-81077888D01*
X99948999Y-81077888D02*
X99876428Y-81150460D01*
X99876428Y-81150460D02*
X99731285Y-81223031D01*
X99731285Y-81223031D02*
X99150714Y-81223031D01*
X99150714Y-81223031D02*
X99150714Y-79699031D01*
X99150714Y-79699031D02*
X99658714Y-79699031D01*
X99658714Y-79699031D02*
X99803857Y-79771602D01*
X99803857Y-79771602D02*
X99876428Y-79844174D01*
X99876428Y-79844174D02*
X99948999Y-79989317D01*
X99948999Y-79989317D02*
X99948999Y-80134460D01*
X99948999Y-80134460D02*
X99876428Y-80279602D01*
X99876428Y-80279602D02*
X99803857Y-80352174D01*
X99803857Y-80352174D02*
X99658714Y-80424745D01*
X99658714Y-80424745D02*
X99150714Y-80424745D01*
X101327857Y-81223031D02*
X101327857Y-80424745D01*
X101327857Y-80424745D02*
X101255285Y-80279602D01*
X101255285Y-80279602D02*
X101110142Y-80207031D01*
X101110142Y-80207031D02*
X100819857Y-80207031D01*
X100819857Y-80207031D02*
X100674714Y-80279602D01*
X101327857Y-81150460D02*
X101182714Y-81223031D01*
X101182714Y-81223031D02*
X100819857Y-81223031D01*
X100819857Y-81223031D02*
X100674714Y-81150460D01*
X100674714Y-81150460D02*
X100602142Y-81005317D01*
X100602142Y-81005317D02*
X100602142Y-80860174D01*
X100602142Y-80860174D02*
X100674714Y-80715031D01*
X100674714Y-80715031D02*
X100819857Y-80642460D01*
X100819857Y-80642460D02*
X101182714Y-80642460D01*
X101182714Y-80642460D02*
X101327857Y-80569888D01*
X102053571Y-80207031D02*
X102053571Y-81513317D01*
X102053571Y-81513317D02*
X101980999Y-81658460D01*
X101980999Y-81658460D02*
X101835856Y-81731031D01*
X101835856Y-81731031D02*
X101763285Y-81731031D01*
X102053571Y-79699031D02*
X101980999Y-79771602D01*
X101980999Y-79771602D02*
X102053571Y-79844174D01*
X102053571Y-79844174D02*
X102126142Y-79771602D01*
X102126142Y-79771602D02*
X102053571Y-79699031D01*
X102053571Y-79699031D02*
X102053571Y-79844174D01*
X103432428Y-81223031D02*
X103432428Y-80424745D01*
X103432428Y-80424745D02*
X103359856Y-80279602D01*
X103359856Y-80279602D02*
X103214713Y-80207031D01*
X103214713Y-80207031D02*
X102924428Y-80207031D01*
X102924428Y-80207031D02*
X102779285Y-80279602D01*
X103432428Y-81150460D02*
X103287285Y-81223031D01*
X103287285Y-81223031D02*
X102924428Y-81223031D01*
X102924428Y-81223031D02*
X102779285Y-81150460D01*
X102779285Y-81150460D02*
X102706713Y-81005317D01*
X102706713Y-81005317D02*
X102706713Y-80860174D01*
X102706713Y-80860174D02*
X102779285Y-80715031D01*
X102779285Y-80715031D02*
X102924428Y-80642460D01*
X102924428Y-80642460D02*
X103287285Y-80642460D01*
X103287285Y-80642460D02*
X103432428Y-80569888D01*
X105319285Y-81223031D02*
X105319285Y-79699031D01*
X106044999Y-80207031D02*
X106044999Y-81223031D01*
X106044999Y-80352174D02*
X106117570Y-80279602D01*
X106117570Y-80279602D02*
X106262713Y-80207031D01*
X106262713Y-80207031D02*
X106480427Y-80207031D01*
X106480427Y-80207031D02*
X106625570Y-80279602D01*
X106625570Y-80279602D02*
X106698142Y-80424745D01*
X106698142Y-80424745D02*
X106698142Y-81223031D01*
X107206141Y-80207031D02*
X107786713Y-80207031D01*
X107423856Y-79699031D02*
X107423856Y-81005317D01*
X107423856Y-81005317D02*
X107496427Y-81150460D01*
X107496427Y-81150460D02*
X107641570Y-81223031D01*
X107641570Y-81223031D02*
X107786713Y-81223031D01*
X108875284Y-81150460D02*
X108730141Y-81223031D01*
X108730141Y-81223031D02*
X108439856Y-81223031D01*
X108439856Y-81223031D02*
X108294713Y-81150460D01*
X108294713Y-81150460D02*
X108222141Y-81005317D01*
X108222141Y-81005317D02*
X108222141Y-80424745D01*
X108222141Y-80424745D02*
X108294713Y-80279602D01*
X108294713Y-80279602D02*
X108439856Y-80207031D01*
X108439856Y-80207031D02*
X108730141Y-80207031D01*
X108730141Y-80207031D02*
X108875284Y-80279602D01*
X108875284Y-80279602D02*
X108947856Y-80424745D01*
X108947856Y-80424745D02*
X108947856Y-80569888D01*
X108947856Y-80569888D02*
X108222141Y-80715031D01*
X109600999Y-81223031D02*
X109600999Y-80207031D01*
X109600999Y-80497317D02*
X109673570Y-80352174D01*
X109673570Y-80352174D02*
X109746142Y-80279602D01*
X109746142Y-80279602D02*
X109891284Y-80207031D01*
X109891284Y-80207031D02*
X110036427Y-80207031D01*
X110326713Y-80207031D02*
X110907285Y-80207031D01*
X110544428Y-81223031D02*
X110544428Y-79916745D01*
X110544428Y-79916745D02*
X110616999Y-79771602D01*
X110616999Y-79771602D02*
X110762142Y-79699031D01*
X110762142Y-79699031D02*
X110907285Y-79699031D01*
X112068428Y-81223031D02*
X112068428Y-80424745D01*
X112068428Y-80424745D02*
X111995856Y-80279602D01*
X111995856Y-80279602D02*
X111850713Y-80207031D01*
X111850713Y-80207031D02*
X111560428Y-80207031D01*
X111560428Y-80207031D02*
X111415285Y-80279602D01*
X112068428Y-81150460D02*
X111923285Y-81223031D01*
X111923285Y-81223031D02*
X111560428Y-81223031D01*
X111560428Y-81223031D02*
X111415285Y-81150460D01*
X111415285Y-81150460D02*
X111342713Y-81005317D01*
X111342713Y-81005317D02*
X111342713Y-80860174D01*
X111342713Y-80860174D02*
X111415285Y-80715031D01*
X111415285Y-80715031D02*
X111560428Y-80642460D01*
X111560428Y-80642460D02*
X111923285Y-80642460D01*
X111923285Y-80642460D02*
X112068428Y-80569888D01*
X113447285Y-81150460D02*
X113302142Y-81223031D01*
X113302142Y-81223031D02*
X113011856Y-81223031D01*
X113011856Y-81223031D02*
X112866713Y-81150460D01*
X112866713Y-81150460D02*
X112794142Y-81077888D01*
X112794142Y-81077888D02*
X112721570Y-80932745D01*
X112721570Y-80932745D02*
X112721570Y-80497317D01*
X112721570Y-80497317D02*
X112794142Y-80352174D01*
X112794142Y-80352174D02*
X112866713Y-80279602D01*
X112866713Y-80279602D02*
X113011856Y-80207031D01*
X113011856Y-80207031D02*
X113302142Y-80207031D01*
X113302142Y-80207031D02*
X113447285Y-80279602D01*
X114680999Y-81150460D02*
X114535856Y-81223031D01*
X114535856Y-81223031D02*
X114245571Y-81223031D01*
X114245571Y-81223031D02*
X114100428Y-81150460D01*
X114100428Y-81150460D02*
X114027856Y-81005317D01*
X114027856Y-81005317D02*
X114027856Y-80424745D01*
X114027856Y-80424745D02*
X114100428Y-80279602D01*
X114100428Y-80279602D02*
X114245571Y-80207031D01*
X114245571Y-80207031D02*
X114535856Y-80207031D01*
X114535856Y-80207031D02*
X114680999Y-80279602D01*
X114680999Y-80279602D02*
X114753571Y-80424745D01*
X114753571Y-80424745D02*
X114753571Y-80569888D01*
X114753571Y-80569888D02*
X114027856Y-80715031D01*
X116567857Y-81223031D02*
X116567857Y-79699031D01*
X116567857Y-79699031D02*
X117075857Y-80787602D01*
X117075857Y-80787602D02*
X117583857Y-79699031D01*
X117583857Y-79699031D02*
X117583857Y-81223031D01*
X118527285Y-81223031D02*
X118382142Y-81150460D01*
X118382142Y-81150460D02*
X118309571Y-81077888D01*
X118309571Y-81077888D02*
X118236999Y-80932745D01*
X118236999Y-80932745D02*
X118236999Y-80497317D01*
X118236999Y-80497317D02*
X118309571Y-80352174D01*
X118309571Y-80352174D02*
X118382142Y-80279602D01*
X118382142Y-80279602D02*
X118527285Y-80207031D01*
X118527285Y-80207031D02*
X118744999Y-80207031D01*
X118744999Y-80207031D02*
X118890142Y-80279602D01*
X118890142Y-80279602D02*
X118962714Y-80352174D01*
X118962714Y-80352174D02*
X119035285Y-80497317D01*
X119035285Y-80497317D02*
X119035285Y-80932745D01*
X119035285Y-80932745D02*
X118962714Y-81077888D01*
X118962714Y-81077888D02*
X118890142Y-81150460D01*
X118890142Y-81150460D02*
X118744999Y-81223031D01*
X118744999Y-81223031D02*
X118527285Y-81223031D01*
X120341571Y-81223031D02*
X120341571Y-79699031D01*
X120341571Y-81150460D02*
X120196428Y-81223031D01*
X120196428Y-81223031D02*
X119906142Y-81223031D01*
X119906142Y-81223031D02*
X119760999Y-81150460D01*
X119760999Y-81150460D02*
X119688428Y-81077888D01*
X119688428Y-81077888D02*
X119615856Y-80932745D01*
X119615856Y-80932745D02*
X119615856Y-80497317D01*
X119615856Y-80497317D02*
X119688428Y-80352174D01*
X119688428Y-80352174D02*
X119760999Y-80279602D01*
X119760999Y-80279602D02*
X119906142Y-80207031D01*
X119906142Y-80207031D02*
X120196428Y-80207031D01*
X120196428Y-80207031D02*
X120341571Y-80279602D01*
X121720428Y-80207031D02*
X121720428Y-81223031D01*
X121067285Y-80207031D02*
X121067285Y-81005317D01*
X121067285Y-81005317D02*
X121139856Y-81150460D01*
X121139856Y-81150460D02*
X121284999Y-81223031D01*
X121284999Y-81223031D02*
X121502713Y-81223031D01*
X121502713Y-81223031D02*
X121647856Y-81150460D01*
X121647856Y-81150460D02*
X121720428Y-81077888D01*
X122663856Y-81223031D02*
X122518713Y-81150460D01*
X122518713Y-81150460D02*
X122446142Y-81005317D01*
X122446142Y-81005317D02*
X122446142Y-79699031D01*
X123824999Y-81150460D02*
X123679856Y-81223031D01*
X123679856Y-81223031D02*
X123389571Y-81223031D01*
X123389571Y-81223031D02*
X123244428Y-81150460D01*
X123244428Y-81150460D02*
X123171856Y-81005317D01*
X123171856Y-81005317D02*
X123171856Y-80424745D01*
X123171856Y-80424745D02*
X123244428Y-80279602D01*
X123244428Y-80279602D02*
X123389571Y-80207031D01*
X123389571Y-80207031D02*
X123679856Y-80207031D01*
X123679856Y-80207031D02*
X123824999Y-80279602D01*
X123824999Y-80279602D02*
X123897571Y-80424745D01*
X123897571Y-80424745D02*
X123897571Y-80569888D01*
X123897571Y-80569888D02*
X123171856Y-80715031D01*
D10*
X115493848Y-74808466D02*
X116255753Y-74808466D01*
D11*
X93802200Y-73270775D02*
X94310200Y-73270775D01*
X93700600Y-73561060D02*
X94056200Y-72545060D01*
X94056200Y-72545060D02*
X94411800Y-73561060D01*
X94665800Y-72545060D02*
X95326200Y-72545060D01*
X95326200Y-72545060D02*
X94970600Y-72932108D01*
X94970600Y-72932108D02*
X95123000Y-72932108D01*
X95123000Y-72932108D02*
X95224600Y-72980489D01*
X95224600Y-72980489D02*
X95275400Y-73028870D01*
X95275400Y-73028870D02*
X95326200Y-73125632D01*
X95326200Y-73125632D02*
X95326200Y-73367537D01*
X95326200Y-73367537D02*
X95275400Y-73464299D01*
X95275400Y-73464299D02*
X95224600Y-73512680D01*
X95224600Y-73512680D02*
X95123000Y-73561060D01*
X95123000Y-73561060D02*
X94818200Y-73561060D01*
X94818200Y-73561060D02*
X94716600Y-73512680D01*
X94716600Y-73512680D02*
X94665800Y-73464299D01*
X96545400Y-73270775D02*
X97053400Y-73270775D01*
X96443800Y-73561060D02*
X96799400Y-72545060D01*
X96799400Y-72545060D02*
X97155000Y-73561060D01*
X97967800Y-72883727D02*
X97967800Y-73561060D01*
X97713800Y-72496680D02*
X97459800Y-73222394D01*
X97459800Y-73222394D02*
X98120200Y-73222394D01*
X93802200Y-74916695D02*
X94310200Y-74916695D01*
X93700600Y-75206980D02*
X94056200Y-74190980D01*
X94056200Y-74190980D02*
X94411800Y-75206980D01*
X94970600Y-74190980D02*
X95072200Y-74190980D01*
X95072200Y-74190980D02*
X95173800Y-74239361D01*
X95173800Y-74239361D02*
X95224600Y-74287742D01*
X95224600Y-74287742D02*
X95275400Y-74384504D01*
X95275400Y-74384504D02*
X95326200Y-74578028D01*
X95326200Y-74578028D02*
X95326200Y-74819933D01*
X95326200Y-74819933D02*
X95275400Y-75013457D01*
X95275400Y-75013457D02*
X95224600Y-75110219D01*
X95224600Y-75110219D02*
X95173800Y-75158600D01*
X95173800Y-75158600D02*
X95072200Y-75206980D01*
X95072200Y-75206980D02*
X94970600Y-75206980D01*
X94970600Y-75206980D02*
X94869000Y-75158600D01*
X94869000Y-75158600D02*
X94818200Y-75110219D01*
X94818200Y-75110219D02*
X94767400Y-75013457D01*
X94767400Y-75013457D02*
X94716600Y-74819933D01*
X94716600Y-74819933D02*
X94716600Y-74578028D01*
X94716600Y-74578028D02*
X94767400Y-74384504D01*
X94767400Y-74384504D02*
X94818200Y-74287742D01*
X94818200Y-74287742D02*
X94869000Y-74239361D01*
X94869000Y-74239361D02*
X94970600Y-74190980D01*
X96545400Y-74916695D02*
X97053400Y-74916695D01*
X96443800Y-75206980D02*
X96799400Y-74190980D01*
X96799400Y-74190980D02*
X97155000Y-75206980D01*
X98069400Y-75206980D02*
X97459800Y-75206980D01*
X97764600Y-75206980D02*
X97764600Y-74190980D01*
X97764600Y-74190980D02*
X97663000Y-74336123D01*
X97663000Y-74336123D02*
X97561400Y-74432885D01*
X97561400Y-74432885D02*
X97459800Y-74481266D01*
X99288600Y-74916695D02*
X99796600Y-74916695D01*
X99187000Y-75206980D02*
X99542600Y-74190980D01*
X99542600Y-74190980D02*
X99898200Y-75206980D01*
X100203000Y-74287742D02*
X100253800Y-74239361D01*
X100253800Y-74239361D02*
X100355400Y-74190980D01*
X100355400Y-74190980D02*
X100609400Y-74190980D01*
X100609400Y-74190980D02*
X100711000Y-74239361D01*
X100711000Y-74239361D02*
X100761800Y-74287742D01*
X100761800Y-74287742D02*
X100812600Y-74384504D01*
X100812600Y-74384504D02*
X100812600Y-74481266D01*
X100812600Y-74481266D02*
X100761800Y-74626409D01*
X100761800Y-74626409D02*
X100152200Y-75206980D01*
X100152200Y-75206980D02*
X100812600Y-75206980D01*
D10*
X116324095Y-71023819D02*
X116324095Y-70023819D01*
X116324095Y-70023819D02*
X116562190Y-70023819D01*
X116562190Y-70023819D02*
X116705047Y-70071438D01*
X116705047Y-70071438D02*
X116800285Y-70166676D01*
X116800285Y-70166676D02*
X116847904Y-70261914D01*
X116847904Y-70261914D02*
X116895523Y-70452390D01*
X116895523Y-70452390D02*
X116895523Y-70595247D01*
X116895523Y-70595247D02*
X116847904Y-70785723D01*
X116847904Y-70785723D02*
X116800285Y-70880961D01*
X116800285Y-70880961D02*
X116705047Y-70976200D01*
X116705047Y-70976200D02*
X116562190Y-71023819D01*
X116562190Y-71023819D02*
X116324095Y-71023819D01*
X113919048Y-74821166D02*
X114680953Y-74821166D01*
X114300000Y-75202119D02*
X114300000Y-74440214D01*
X117779848Y-70541266D02*
X118541753Y-70541266D01*
%TO.C,J8*%
X110791666Y-55215619D02*
X110791666Y-55929904D01*
X110791666Y-55929904D02*
X110744047Y-56072761D01*
X110744047Y-56072761D02*
X110648809Y-56168000D01*
X110648809Y-56168000D02*
X110505952Y-56215619D01*
X110505952Y-56215619D02*
X110410714Y-56215619D01*
X111410714Y-55644190D02*
X111315476Y-55596571D01*
X111315476Y-55596571D02*
X111267857Y-55548952D01*
X111267857Y-55548952D02*
X111220238Y-55453714D01*
X111220238Y-55453714D02*
X111220238Y-55406095D01*
X111220238Y-55406095D02*
X111267857Y-55310857D01*
X111267857Y-55310857D02*
X111315476Y-55263238D01*
X111315476Y-55263238D02*
X111410714Y-55215619D01*
X111410714Y-55215619D02*
X111601190Y-55215619D01*
X111601190Y-55215619D02*
X111696428Y-55263238D01*
X111696428Y-55263238D02*
X111744047Y-55310857D01*
X111744047Y-55310857D02*
X111791666Y-55406095D01*
X111791666Y-55406095D02*
X111791666Y-55453714D01*
X111791666Y-55453714D02*
X111744047Y-55548952D01*
X111744047Y-55548952D02*
X111696428Y-55596571D01*
X111696428Y-55596571D02*
X111601190Y-55644190D01*
X111601190Y-55644190D02*
X111410714Y-55644190D01*
X111410714Y-55644190D02*
X111315476Y-55691809D01*
X111315476Y-55691809D02*
X111267857Y-55739428D01*
X111267857Y-55739428D02*
X111220238Y-55834666D01*
X111220238Y-55834666D02*
X111220238Y-56025142D01*
X111220238Y-56025142D02*
X111267857Y-56120380D01*
X111267857Y-56120380D02*
X111315476Y-56168000D01*
X111315476Y-56168000D02*
X111410714Y-56215619D01*
X111410714Y-56215619D02*
X111601190Y-56215619D01*
X111601190Y-56215619D02*
X111696428Y-56168000D01*
X111696428Y-56168000D02*
X111744047Y-56120380D01*
X111744047Y-56120380D02*
X111791666Y-56025142D01*
X111791666Y-56025142D02*
X111791666Y-55834666D01*
X111791666Y-55834666D02*
X111744047Y-55739428D01*
X111744047Y-55739428D02*
X111696428Y-55691809D01*
X111696428Y-55691809D02*
X111601190Y-55644190D01*
%TO.C,J12*%
X106505476Y-83409619D02*
X106505476Y-84123904D01*
X106505476Y-84123904D02*
X106457857Y-84266761D01*
X106457857Y-84266761D02*
X106362619Y-84362000D01*
X106362619Y-84362000D02*
X106219762Y-84409619D01*
X106219762Y-84409619D02*
X106124524Y-84409619D01*
X107505476Y-84409619D02*
X106934048Y-84409619D01*
X107219762Y-84409619D02*
X107219762Y-83409619D01*
X107219762Y-83409619D02*
X107124524Y-83552476D01*
X107124524Y-83552476D02*
X107029286Y-83647714D01*
X107029286Y-83647714D02*
X106934048Y-83695333D01*
X107886429Y-83504857D02*
X107934048Y-83457238D01*
X107934048Y-83457238D02*
X108029286Y-83409619D01*
X108029286Y-83409619D02*
X108267381Y-83409619D01*
X108267381Y-83409619D02*
X108362619Y-83457238D01*
X108362619Y-83457238D02*
X108410238Y-83504857D01*
X108410238Y-83504857D02*
X108457857Y-83600095D01*
X108457857Y-83600095D02*
X108457857Y-83695333D01*
X108457857Y-83695333D02*
X108410238Y-83838190D01*
X108410238Y-83838190D02*
X107838810Y-84409619D01*
X107838810Y-84409619D02*
X108457857Y-84409619D01*
%TO.C,J10*%
X101425476Y-60422619D02*
X101425476Y-61136904D01*
X101425476Y-61136904D02*
X101377857Y-61279761D01*
X101377857Y-61279761D02*
X101282619Y-61375000D01*
X101282619Y-61375000D02*
X101139762Y-61422619D01*
X101139762Y-61422619D02*
X101044524Y-61422619D01*
X102425476Y-61422619D02*
X101854048Y-61422619D01*
X102139762Y-61422619D02*
X102139762Y-60422619D01*
X102139762Y-60422619D02*
X102044524Y-60565476D01*
X102044524Y-60565476D02*
X101949286Y-60660714D01*
X101949286Y-60660714D02*
X101854048Y-60708333D01*
X103044524Y-60422619D02*
X103139762Y-60422619D01*
X103139762Y-60422619D02*
X103235000Y-60470238D01*
X103235000Y-60470238D02*
X103282619Y-60517857D01*
X103282619Y-60517857D02*
X103330238Y-60613095D01*
X103330238Y-60613095D02*
X103377857Y-60803571D01*
X103377857Y-60803571D02*
X103377857Y-61041666D01*
X103377857Y-61041666D02*
X103330238Y-61232142D01*
X103330238Y-61232142D02*
X103282619Y-61327380D01*
X103282619Y-61327380D02*
X103235000Y-61375000D01*
X103235000Y-61375000D02*
X103139762Y-61422619D01*
X103139762Y-61422619D02*
X103044524Y-61422619D01*
X103044524Y-61422619D02*
X102949286Y-61375000D01*
X102949286Y-61375000D02*
X102901667Y-61327380D01*
X102901667Y-61327380D02*
X102854048Y-61232142D01*
X102854048Y-61232142D02*
X102806429Y-61041666D01*
X102806429Y-61041666D02*
X102806429Y-60803571D01*
X102806429Y-60803571D02*
X102854048Y-60613095D01*
X102854048Y-60613095D02*
X102901667Y-60517857D01*
X102901667Y-60517857D02*
X102949286Y-60470238D01*
X102949286Y-60470238D02*
X103044524Y-60422619D01*
%TO.C,J4*%
X90598666Y-52421619D02*
X90598666Y-53135904D01*
X90598666Y-53135904D02*
X90551047Y-53278761D01*
X90551047Y-53278761D02*
X90455809Y-53374000D01*
X90455809Y-53374000D02*
X90312952Y-53421619D01*
X90312952Y-53421619D02*
X90217714Y-53421619D01*
X91503428Y-52754952D02*
X91503428Y-53421619D01*
X91265333Y-52374000D02*
X91027238Y-53088285D01*
X91027238Y-53088285D02*
X91646285Y-53088285D01*
%TO.C,D1*%
X121308905Y-58120619D02*
X121308905Y-57120619D01*
X121308905Y-57120619D02*
X121547000Y-57120619D01*
X121547000Y-57120619D02*
X121689857Y-57168238D01*
X121689857Y-57168238D02*
X121785095Y-57263476D01*
X121785095Y-57263476D02*
X121832714Y-57358714D01*
X121832714Y-57358714D02*
X121880333Y-57549190D01*
X121880333Y-57549190D02*
X121880333Y-57692047D01*
X121880333Y-57692047D02*
X121832714Y-57882523D01*
X121832714Y-57882523D02*
X121785095Y-57977761D01*
X121785095Y-57977761D02*
X121689857Y-58073000D01*
X121689857Y-58073000D02*
X121547000Y-58120619D01*
X121547000Y-58120619D02*
X121308905Y-58120619D01*
X122832714Y-58120619D02*
X122261286Y-58120619D01*
X122547000Y-58120619D02*
X122547000Y-57120619D01*
X122547000Y-57120619D02*
X122451762Y-57263476D01*
X122451762Y-57263476D02*
X122356524Y-57358714D01*
X122356524Y-57358714D02*
X122261286Y-57406333D01*
%TO.C,MH3*%
X124650667Y-49611619D02*
X124650667Y-48611619D01*
X124650667Y-48611619D02*
X124984000Y-49325904D01*
X124984000Y-49325904D02*
X125317333Y-48611619D01*
X125317333Y-48611619D02*
X125317333Y-49611619D01*
X125793524Y-49611619D02*
X125793524Y-48611619D01*
X125793524Y-49087809D02*
X126364952Y-49087809D01*
X126364952Y-49611619D02*
X126364952Y-48611619D01*
X126745905Y-48611619D02*
X127364952Y-48611619D01*
X127364952Y-48611619D02*
X127031619Y-48992571D01*
X127031619Y-48992571D02*
X127174476Y-48992571D01*
X127174476Y-48992571D02*
X127269714Y-49040190D01*
X127269714Y-49040190D02*
X127317333Y-49087809D01*
X127317333Y-49087809D02*
X127364952Y-49183047D01*
X127364952Y-49183047D02*
X127364952Y-49421142D01*
X127364952Y-49421142D02*
X127317333Y-49516380D01*
X127317333Y-49516380D02*
X127269714Y-49564000D01*
X127269714Y-49564000D02*
X127174476Y-49611619D01*
X127174476Y-49611619D02*
X126888762Y-49611619D01*
X126888762Y-49611619D02*
X126793524Y-49564000D01*
X126793524Y-49564000D02*
X126745905Y-49516380D01*
%TO.C,J5*%
X90598666Y-92680619D02*
X90598666Y-93394904D01*
X90598666Y-93394904D02*
X90551047Y-93537761D01*
X90551047Y-93537761D02*
X90455809Y-93633000D01*
X90455809Y-93633000D02*
X90312952Y-93680619D01*
X90312952Y-93680619D02*
X90217714Y-93680619D01*
X91551047Y-92680619D02*
X91074857Y-92680619D01*
X91074857Y-92680619D02*
X91027238Y-93156809D01*
X91027238Y-93156809D02*
X91074857Y-93109190D01*
X91074857Y-93109190D02*
X91170095Y-93061571D01*
X91170095Y-93061571D02*
X91408190Y-93061571D01*
X91408190Y-93061571D02*
X91503428Y-93109190D01*
X91503428Y-93109190D02*
X91551047Y-93156809D01*
X91551047Y-93156809D02*
X91598666Y-93252047D01*
X91598666Y-93252047D02*
X91598666Y-93490142D01*
X91598666Y-93490142D02*
X91551047Y-93585380D01*
X91551047Y-93585380D02*
X91503428Y-93633000D01*
X91503428Y-93633000D02*
X91408190Y-93680619D01*
X91408190Y-93680619D02*
X91170095Y-93680619D01*
X91170095Y-93680619D02*
X91074857Y-93633000D01*
X91074857Y-93633000D02*
X91027238Y-93585380D01*
%TO.C,MH4*%
X124650667Y-94950619D02*
X124650667Y-93950619D01*
X124650667Y-93950619D02*
X124984000Y-94664904D01*
X124984000Y-94664904D02*
X125317333Y-93950619D01*
X125317333Y-93950619D02*
X125317333Y-94950619D01*
X125793524Y-94950619D02*
X125793524Y-93950619D01*
X125793524Y-94426809D02*
X126364952Y-94426809D01*
X126364952Y-94950619D02*
X126364952Y-93950619D01*
X127269714Y-94283952D02*
X127269714Y-94950619D01*
X127031619Y-93903000D02*
X126793524Y-94617285D01*
X126793524Y-94617285D02*
X127412571Y-94617285D01*
%TO.C,J17*%
X122126476Y-65087619D02*
X122126476Y-65801904D01*
X122126476Y-65801904D02*
X122078857Y-65944761D01*
X122078857Y-65944761D02*
X121983619Y-66040000D01*
X121983619Y-66040000D02*
X121840762Y-66087619D01*
X121840762Y-66087619D02*
X121745524Y-66087619D01*
X123126476Y-66087619D02*
X122555048Y-66087619D01*
X122840762Y-66087619D02*
X122840762Y-65087619D01*
X122840762Y-65087619D02*
X122745524Y-65230476D01*
X122745524Y-65230476D02*
X122650286Y-65325714D01*
X122650286Y-65325714D02*
X122555048Y-65373333D01*
X123459810Y-65087619D02*
X124126476Y-65087619D01*
X124126476Y-65087619D02*
X123697905Y-66087619D01*
%TO.C,J11*%
X97615476Y-83409619D02*
X97615476Y-84123904D01*
X97615476Y-84123904D02*
X97567857Y-84266761D01*
X97567857Y-84266761D02*
X97472619Y-84362000D01*
X97472619Y-84362000D02*
X97329762Y-84409619D01*
X97329762Y-84409619D02*
X97234524Y-84409619D01*
X98615476Y-84409619D02*
X98044048Y-84409619D01*
X98329762Y-84409619D02*
X98329762Y-83409619D01*
X98329762Y-83409619D02*
X98234524Y-83552476D01*
X98234524Y-83552476D02*
X98139286Y-83647714D01*
X98139286Y-83647714D02*
X98044048Y-83695333D01*
X99567857Y-84409619D02*
X98996429Y-84409619D01*
X99282143Y-84409619D02*
X99282143Y-83409619D01*
X99282143Y-83409619D02*
X99186905Y-83552476D01*
X99186905Y-83552476D02*
X99091667Y-83647714D01*
X99091667Y-83647714D02*
X98996429Y-83695333D01*
%TO.C,J13*%
X115395476Y-87219619D02*
X115395476Y-87933904D01*
X115395476Y-87933904D02*
X115347857Y-88076761D01*
X115347857Y-88076761D02*
X115252619Y-88172000D01*
X115252619Y-88172000D02*
X115109762Y-88219619D01*
X115109762Y-88219619D02*
X115014524Y-88219619D01*
X116395476Y-88219619D02*
X115824048Y-88219619D01*
X116109762Y-88219619D02*
X116109762Y-87219619D01*
X116109762Y-87219619D02*
X116014524Y-87362476D01*
X116014524Y-87362476D02*
X115919286Y-87457714D01*
X115919286Y-87457714D02*
X115824048Y-87505333D01*
X116728810Y-87219619D02*
X117347857Y-87219619D01*
X117347857Y-87219619D02*
X117014524Y-87600571D01*
X117014524Y-87600571D02*
X117157381Y-87600571D01*
X117157381Y-87600571D02*
X117252619Y-87648190D01*
X117252619Y-87648190D02*
X117300238Y-87695809D01*
X117300238Y-87695809D02*
X117347857Y-87791047D01*
X117347857Y-87791047D02*
X117347857Y-88029142D01*
X117347857Y-88029142D02*
X117300238Y-88124380D01*
X117300238Y-88124380D02*
X117252619Y-88172000D01*
X117252619Y-88172000D02*
X117157381Y-88219619D01*
X117157381Y-88219619D02*
X116871667Y-88219619D01*
X116871667Y-88219619D02*
X116776429Y-88172000D01*
X116776429Y-88172000D02*
X116728810Y-88124380D01*
%TO.C,J14*%
X97615476Y-82012619D02*
X97615476Y-82726904D01*
X97615476Y-82726904D02*
X97567857Y-82869761D01*
X97567857Y-82869761D02*
X97472619Y-82965000D01*
X97472619Y-82965000D02*
X97329762Y-83012619D01*
X97329762Y-83012619D02*
X97234524Y-83012619D01*
X98615476Y-83012619D02*
X98044048Y-83012619D01*
X98329762Y-83012619D02*
X98329762Y-82012619D01*
X98329762Y-82012619D02*
X98234524Y-82155476D01*
X98234524Y-82155476D02*
X98139286Y-82250714D01*
X98139286Y-82250714D02*
X98044048Y-82298333D01*
X99472619Y-82345952D02*
X99472619Y-83012619D01*
X99234524Y-81965000D02*
X98996429Y-82679285D01*
X98996429Y-82679285D02*
X99615476Y-82679285D01*
%TO.C,C2*%
X108672333Y-65137380D02*
X108624714Y-65185000D01*
X108624714Y-65185000D02*
X108481857Y-65232619D01*
X108481857Y-65232619D02*
X108386619Y-65232619D01*
X108386619Y-65232619D02*
X108243762Y-65185000D01*
X108243762Y-65185000D02*
X108148524Y-65089761D01*
X108148524Y-65089761D02*
X108100905Y-64994523D01*
X108100905Y-64994523D02*
X108053286Y-64804047D01*
X108053286Y-64804047D02*
X108053286Y-64661190D01*
X108053286Y-64661190D02*
X108100905Y-64470714D01*
X108100905Y-64470714D02*
X108148524Y-64375476D01*
X108148524Y-64375476D02*
X108243762Y-64280238D01*
X108243762Y-64280238D02*
X108386619Y-64232619D01*
X108386619Y-64232619D02*
X108481857Y-64232619D01*
X108481857Y-64232619D02*
X108624714Y-64280238D01*
X108624714Y-64280238D02*
X108672333Y-64327857D01*
X109053286Y-64327857D02*
X109100905Y-64280238D01*
X109100905Y-64280238D02*
X109196143Y-64232619D01*
X109196143Y-64232619D02*
X109434238Y-64232619D01*
X109434238Y-64232619D02*
X109529476Y-64280238D01*
X109529476Y-64280238D02*
X109577095Y-64327857D01*
X109577095Y-64327857D02*
X109624714Y-64423095D01*
X109624714Y-64423095D02*
X109624714Y-64518333D01*
X109624714Y-64518333D02*
X109577095Y-64661190D01*
X109577095Y-64661190D02*
X109005667Y-65232619D01*
X109005667Y-65232619D02*
X109624714Y-65232619D01*
%TO.C,J2*%
X90598666Y-88997619D02*
X90598666Y-89711904D01*
X90598666Y-89711904D02*
X90551047Y-89854761D01*
X90551047Y-89854761D02*
X90455809Y-89950000D01*
X90455809Y-89950000D02*
X90312952Y-89997619D01*
X90312952Y-89997619D02*
X90217714Y-89997619D01*
X91027238Y-89092857D02*
X91074857Y-89045238D01*
X91074857Y-89045238D02*
X91170095Y-88997619D01*
X91170095Y-88997619D02*
X91408190Y-88997619D01*
X91408190Y-88997619D02*
X91503428Y-89045238D01*
X91503428Y-89045238D02*
X91551047Y-89092857D01*
X91551047Y-89092857D02*
X91598666Y-89188095D01*
X91598666Y-89188095D02*
X91598666Y-89283333D01*
X91598666Y-89283333D02*
X91551047Y-89426190D01*
X91551047Y-89426190D02*
X90979619Y-89997619D01*
X90979619Y-89997619D02*
X91598666Y-89997619D01*
%TO.C,J15*%
X106505476Y-82012619D02*
X106505476Y-82726904D01*
X106505476Y-82726904D02*
X106457857Y-82869761D01*
X106457857Y-82869761D02*
X106362619Y-82965000D01*
X106362619Y-82965000D02*
X106219762Y-83012619D01*
X106219762Y-83012619D02*
X106124524Y-83012619D01*
X107505476Y-83012619D02*
X106934048Y-83012619D01*
X107219762Y-83012619D02*
X107219762Y-82012619D01*
X107219762Y-82012619D02*
X107124524Y-82155476D01*
X107124524Y-82155476D02*
X107029286Y-82250714D01*
X107029286Y-82250714D02*
X106934048Y-82298333D01*
X108410238Y-82012619D02*
X107934048Y-82012619D01*
X107934048Y-82012619D02*
X107886429Y-82488809D01*
X107886429Y-82488809D02*
X107934048Y-82441190D01*
X107934048Y-82441190D02*
X108029286Y-82393571D01*
X108029286Y-82393571D02*
X108267381Y-82393571D01*
X108267381Y-82393571D02*
X108362619Y-82441190D01*
X108362619Y-82441190D02*
X108410238Y-82488809D01*
X108410238Y-82488809D02*
X108457857Y-82584047D01*
X108457857Y-82584047D02*
X108457857Y-82822142D01*
X108457857Y-82822142D02*
X108410238Y-82917380D01*
X108410238Y-82917380D02*
X108362619Y-82965000D01*
X108362619Y-82965000D02*
X108267381Y-83012619D01*
X108267381Y-83012619D02*
X108029286Y-83012619D01*
X108029286Y-83012619D02*
X107934048Y-82965000D01*
X107934048Y-82965000D02*
X107886429Y-82917380D01*
%TO.C,U1*%
X113284095Y-56358619D02*
X113284095Y-57168142D01*
X113284095Y-57168142D02*
X113331714Y-57263380D01*
X113331714Y-57263380D02*
X113379333Y-57311000D01*
X113379333Y-57311000D02*
X113474571Y-57358619D01*
X113474571Y-57358619D02*
X113665047Y-57358619D01*
X113665047Y-57358619D02*
X113760285Y-57311000D01*
X113760285Y-57311000D02*
X113807904Y-57263380D01*
X113807904Y-57263380D02*
X113855523Y-57168142D01*
X113855523Y-57168142D02*
X113855523Y-56358619D01*
X114855523Y-57358619D02*
X114284095Y-57358619D01*
X114569809Y-57358619D02*
X114569809Y-56358619D01*
X114569809Y-56358619D02*
X114474571Y-56501476D01*
X114474571Y-56501476D02*
X114379333Y-56596714D01*
X114379333Y-56596714D02*
X114284095Y-56644333D01*
%TO.C,J1*%
X90598666Y-62454619D02*
X90598666Y-63168904D01*
X90598666Y-63168904D02*
X90551047Y-63311761D01*
X90551047Y-63311761D02*
X90455809Y-63407000D01*
X90455809Y-63407000D02*
X90312952Y-63454619D01*
X90312952Y-63454619D02*
X90217714Y-63454619D01*
X91598666Y-63454619D02*
X91027238Y-63454619D01*
X91312952Y-63454619D02*
X91312952Y-62454619D01*
X91312952Y-62454619D02*
X91217714Y-62597476D01*
X91217714Y-62597476D02*
X91122476Y-62692714D01*
X91122476Y-62692714D02*
X91027238Y-62740333D01*
%TO.C,C1*%
X106513333Y-65137380D02*
X106465714Y-65185000D01*
X106465714Y-65185000D02*
X106322857Y-65232619D01*
X106322857Y-65232619D02*
X106227619Y-65232619D01*
X106227619Y-65232619D02*
X106084762Y-65185000D01*
X106084762Y-65185000D02*
X105989524Y-65089761D01*
X105989524Y-65089761D02*
X105941905Y-64994523D01*
X105941905Y-64994523D02*
X105894286Y-64804047D01*
X105894286Y-64804047D02*
X105894286Y-64661190D01*
X105894286Y-64661190D02*
X105941905Y-64470714D01*
X105941905Y-64470714D02*
X105989524Y-64375476D01*
X105989524Y-64375476D02*
X106084762Y-64280238D01*
X106084762Y-64280238D02*
X106227619Y-64232619D01*
X106227619Y-64232619D02*
X106322857Y-64232619D01*
X106322857Y-64232619D02*
X106465714Y-64280238D01*
X106465714Y-64280238D02*
X106513333Y-64327857D01*
X107465714Y-65232619D02*
X106894286Y-65232619D01*
X107180000Y-65232619D02*
X107180000Y-64232619D01*
X107180000Y-64232619D02*
X107084762Y-64375476D01*
X107084762Y-64375476D02*
X106989524Y-64470714D01*
X106989524Y-64470714D02*
X106894286Y-64518333D01*
%TO.C,J7*%
X101901666Y-59025619D02*
X101901666Y-59739904D01*
X101901666Y-59739904D02*
X101854047Y-59882761D01*
X101854047Y-59882761D02*
X101758809Y-59978000D01*
X101758809Y-59978000D02*
X101615952Y-60025619D01*
X101615952Y-60025619D02*
X101520714Y-60025619D01*
X102282619Y-59025619D02*
X102949285Y-59025619D01*
X102949285Y-59025619D02*
X102520714Y-60025619D01*
%TO.C,J6*%
X93011666Y-59025619D02*
X93011666Y-59739904D01*
X93011666Y-59739904D02*
X92964047Y-59882761D01*
X92964047Y-59882761D02*
X92868809Y-59978000D01*
X92868809Y-59978000D02*
X92725952Y-60025619D01*
X92725952Y-60025619D02*
X92630714Y-60025619D01*
X93916428Y-59025619D02*
X93725952Y-59025619D01*
X93725952Y-59025619D02*
X93630714Y-59073238D01*
X93630714Y-59073238D02*
X93583095Y-59120857D01*
X93583095Y-59120857D02*
X93487857Y-59263714D01*
X93487857Y-59263714D02*
X93440238Y-59454190D01*
X93440238Y-59454190D02*
X93440238Y-59835142D01*
X93440238Y-59835142D02*
X93487857Y-59930380D01*
X93487857Y-59930380D02*
X93535476Y-59978000D01*
X93535476Y-59978000D02*
X93630714Y-60025619D01*
X93630714Y-60025619D02*
X93821190Y-60025619D01*
X93821190Y-60025619D02*
X93916428Y-59978000D01*
X93916428Y-59978000D02*
X93964047Y-59930380D01*
X93964047Y-59930380D02*
X94011666Y-59835142D01*
X94011666Y-59835142D02*
X94011666Y-59597047D01*
X94011666Y-59597047D02*
X93964047Y-59501809D01*
X93964047Y-59501809D02*
X93916428Y-59454190D01*
X93916428Y-59454190D02*
X93821190Y-59406571D01*
X93821190Y-59406571D02*
X93630714Y-59406571D01*
X93630714Y-59406571D02*
X93535476Y-59454190D01*
X93535476Y-59454190D02*
X93487857Y-59501809D01*
X93487857Y-59501809D02*
X93440238Y-59597047D01*
%TO.C,R1*%
X118832333Y-58120619D02*
X118499000Y-57644428D01*
X118260905Y-58120619D02*
X118260905Y-57120619D01*
X118260905Y-57120619D02*
X118641857Y-57120619D01*
X118641857Y-57120619D02*
X118737095Y-57168238D01*
X118737095Y-57168238D02*
X118784714Y-57215857D01*
X118784714Y-57215857D02*
X118832333Y-57311095D01*
X118832333Y-57311095D02*
X118832333Y-57453952D01*
X118832333Y-57453952D02*
X118784714Y-57549190D01*
X118784714Y-57549190D02*
X118737095Y-57596809D01*
X118737095Y-57596809D02*
X118641857Y-57644428D01*
X118641857Y-57644428D02*
X118260905Y-57644428D01*
X119784714Y-58120619D02*
X119213286Y-58120619D01*
X119499000Y-58120619D02*
X119499000Y-57120619D01*
X119499000Y-57120619D02*
X119403762Y-57263476D01*
X119403762Y-57263476D02*
X119308524Y-57358714D01*
X119308524Y-57358714D02*
X119213286Y-57406333D01*
%TO.C,J19*%
X125047476Y-51024619D02*
X125047476Y-51738904D01*
X125047476Y-51738904D02*
X124999857Y-51881761D01*
X124999857Y-51881761D02*
X124904619Y-51977000D01*
X124904619Y-51977000D02*
X124761762Y-52024619D01*
X124761762Y-52024619D02*
X124666524Y-52024619D01*
X126047476Y-52024619D02*
X125476048Y-52024619D01*
X125761762Y-52024619D02*
X125761762Y-51024619D01*
X125761762Y-51024619D02*
X125666524Y-51167476D01*
X125666524Y-51167476D02*
X125571286Y-51262714D01*
X125571286Y-51262714D02*
X125476048Y-51310333D01*
X126523667Y-52024619D02*
X126714143Y-52024619D01*
X126714143Y-52024619D02*
X126809381Y-51977000D01*
X126809381Y-51977000D02*
X126857000Y-51929380D01*
X126857000Y-51929380D02*
X126952238Y-51786523D01*
X126952238Y-51786523D02*
X126999857Y-51596047D01*
X126999857Y-51596047D02*
X126999857Y-51215095D01*
X126999857Y-51215095D02*
X126952238Y-51119857D01*
X126952238Y-51119857D02*
X126904619Y-51072238D01*
X126904619Y-51072238D02*
X126809381Y-51024619D01*
X126809381Y-51024619D02*
X126618905Y-51024619D01*
X126618905Y-51024619D02*
X126523667Y-51072238D01*
X126523667Y-51072238D02*
X126476048Y-51119857D01*
X126476048Y-51119857D02*
X126428429Y-51215095D01*
X126428429Y-51215095D02*
X126428429Y-51453190D01*
X126428429Y-51453190D02*
X126476048Y-51548428D01*
X126476048Y-51548428D02*
X126523667Y-51596047D01*
X126523667Y-51596047D02*
X126618905Y-51643666D01*
X126618905Y-51643666D02*
X126809381Y-51643666D01*
X126809381Y-51643666D02*
X126904619Y-51596047D01*
X126904619Y-51596047D02*
X126952238Y-51548428D01*
X126952238Y-51548428D02*
X126999857Y-51453190D01*
%TO.C,J9*%
X93011666Y-60422619D02*
X93011666Y-61136904D01*
X93011666Y-61136904D02*
X92964047Y-61279761D01*
X92964047Y-61279761D02*
X92868809Y-61375000D01*
X92868809Y-61375000D02*
X92725952Y-61422619D01*
X92725952Y-61422619D02*
X92630714Y-61422619D01*
X93535476Y-61422619D02*
X93725952Y-61422619D01*
X93725952Y-61422619D02*
X93821190Y-61375000D01*
X93821190Y-61375000D02*
X93868809Y-61327380D01*
X93868809Y-61327380D02*
X93964047Y-61184523D01*
X93964047Y-61184523D02*
X94011666Y-60994047D01*
X94011666Y-60994047D02*
X94011666Y-60613095D01*
X94011666Y-60613095D02*
X93964047Y-60517857D01*
X93964047Y-60517857D02*
X93916428Y-60470238D01*
X93916428Y-60470238D02*
X93821190Y-60422619D01*
X93821190Y-60422619D02*
X93630714Y-60422619D01*
X93630714Y-60422619D02*
X93535476Y-60470238D01*
X93535476Y-60470238D02*
X93487857Y-60517857D01*
X93487857Y-60517857D02*
X93440238Y-60613095D01*
X93440238Y-60613095D02*
X93440238Y-60851190D01*
X93440238Y-60851190D02*
X93487857Y-60946428D01*
X93487857Y-60946428D02*
X93535476Y-60994047D01*
X93535476Y-60994047D02*
X93630714Y-61041666D01*
X93630714Y-61041666D02*
X93821190Y-61041666D01*
X93821190Y-61041666D02*
X93916428Y-60994047D01*
X93916428Y-60994047D02*
X93964047Y-60946428D01*
X93964047Y-60946428D02*
X94011666Y-60851190D01*
%TO.C,J18*%
X89563676Y-56460219D02*
X89563676Y-57174504D01*
X89563676Y-57174504D02*
X89516057Y-57317361D01*
X89516057Y-57317361D02*
X89420819Y-57412600D01*
X89420819Y-57412600D02*
X89277962Y-57460219D01*
X89277962Y-57460219D02*
X89182724Y-57460219D01*
X90563676Y-57460219D02*
X89992248Y-57460219D01*
X90277962Y-57460219D02*
X90277962Y-56460219D01*
X90277962Y-56460219D02*
X90182724Y-56603076D01*
X90182724Y-56603076D02*
X90087486Y-56698314D01*
X90087486Y-56698314D02*
X89992248Y-56745933D01*
X91135105Y-56888790D02*
X91039867Y-56841171D01*
X91039867Y-56841171D02*
X90992248Y-56793552D01*
X90992248Y-56793552D02*
X90944629Y-56698314D01*
X90944629Y-56698314D02*
X90944629Y-56650695D01*
X90944629Y-56650695D02*
X90992248Y-56555457D01*
X90992248Y-56555457D02*
X91039867Y-56507838D01*
X91039867Y-56507838D02*
X91135105Y-56460219D01*
X91135105Y-56460219D02*
X91325581Y-56460219D01*
X91325581Y-56460219D02*
X91420819Y-56507838D01*
X91420819Y-56507838D02*
X91468438Y-56555457D01*
X91468438Y-56555457D02*
X91516057Y-56650695D01*
X91516057Y-56650695D02*
X91516057Y-56698314D01*
X91516057Y-56698314D02*
X91468438Y-56793552D01*
X91468438Y-56793552D02*
X91420819Y-56841171D01*
X91420819Y-56841171D02*
X91325581Y-56888790D01*
X91325581Y-56888790D02*
X91135105Y-56888790D01*
X91135105Y-56888790D02*
X91039867Y-56936409D01*
X91039867Y-56936409D02*
X90992248Y-56984028D01*
X90992248Y-56984028D02*
X90944629Y-57079266D01*
X90944629Y-57079266D02*
X90944629Y-57269742D01*
X90944629Y-57269742D02*
X90992248Y-57364980D01*
X90992248Y-57364980D02*
X91039867Y-57412600D01*
X91039867Y-57412600D02*
X91135105Y-57460219D01*
X91135105Y-57460219D02*
X91325581Y-57460219D01*
X91325581Y-57460219D02*
X91420819Y-57412600D01*
X91420819Y-57412600D02*
X91468438Y-57364980D01*
X91468438Y-57364980D02*
X91516057Y-57269742D01*
X91516057Y-57269742D02*
X91516057Y-57079266D01*
X91516057Y-57079266D02*
X91468438Y-56984028D01*
X91468438Y-56984028D02*
X91420819Y-56936409D01*
X91420819Y-56936409D02*
X91325581Y-56888790D01*
D13*
%TO.C,J8*%
X109870000Y-54610000D02*
X109870000Y-53340000D01*
X111140000Y-54610000D02*
X109870000Y-54610000D01*
X113300000Y-52297071D02*
X113300000Y-51900000D01*
X114060000Y-52297071D02*
X114060000Y-51900000D01*
X115840000Y-52297071D02*
X115840000Y-51900000D01*
X116600000Y-52297071D02*
X116600000Y-51900000D01*
X110760000Y-52230000D02*
X110760000Y-51900000D01*
X111520000Y-52230000D02*
X111520000Y-51900000D01*
X109810000Y-51900000D02*
X117550000Y-51900000D01*
X112410000Y-51900000D02*
X112410000Y-49240000D01*
X114950000Y-51900000D02*
X114950000Y-49240000D01*
X117550000Y-51900000D02*
X117550000Y-49240000D01*
X109810000Y-49240000D02*
X109810000Y-51900000D01*
X110760000Y-49240000D02*
X110760000Y-43240000D01*
X110820000Y-49240000D02*
X110820000Y-43240000D01*
X110940000Y-49240000D02*
X110940000Y-43240000D01*
X111060000Y-49240000D02*
X111060000Y-43240000D01*
X111180000Y-49240000D02*
X111180000Y-43240000D01*
X111300000Y-49240000D02*
X111300000Y-43240000D01*
X111420000Y-49240000D02*
X111420000Y-43240000D01*
X113300000Y-49240000D02*
X113300000Y-43240000D01*
X115840000Y-49240000D02*
X115840000Y-43240000D01*
X117550000Y-49240000D02*
X109810000Y-49240000D01*
X110760000Y-43240000D02*
X111520000Y-43240000D01*
X111520000Y-43240000D02*
X111520000Y-49240000D01*
X113300000Y-43240000D02*
X114060000Y-43240000D01*
X114060000Y-43240000D02*
X114060000Y-49240000D01*
X115840000Y-43240000D02*
X116600000Y-43240000D01*
X116600000Y-43240000D02*
X116600000Y-49240000D01*
%TO.C,J12*%
X108585000Y-88900000D02*
X108585000Y-90170000D01*
X107315000Y-88900000D02*
X108585000Y-88900000D01*
X105155000Y-91212929D02*
X105155000Y-91610000D01*
X104395000Y-91212929D02*
X104395000Y-91610000D01*
X102615000Y-91212929D02*
X102615000Y-91610000D01*
X101855000Y-91212929D02*
X101855000Y-91610000D01*
X107695000Y-91280000D02*
X107695000Y-91610000D01*
X106935000Y-91280000D02*
X106935000Y-91610000D01*
X108645000Y-91610000D02*
X100905000Y-91610000D01*
X106045000Y-91610000D02*
X106045000Y-94270000D01*
X103505000Y-91610000D02*
X103505000Y-94270000D01*
X100905000Y-91610000D02*
X100905000Y-94270000D01*
X108645000Y-94270000D02*
X108645000Y-91610000D01*
X107695000Y-94270000D02*
X107695000Y-100270000D01*
X107635000Y-94270000D02*
X107635000Y-100270000D01*
X107515000Y-94270000D02*
X107515000Y-100270000D01*
X107395000Y-94270000D02*
X107395000Y-100270000D01*
X107275000Y-94270000D02*
X107275000Y-100270000D01*
X107155000Y-94270000D02*
X107155000Y-100270000D01*
X107035000Y-94270000D02*
X107035000Y-100270000D01*
X105155000Y-94270000D02*
X105155000Y-100270000D01*
X102615000Y-94270000D02*
X102615000Y-100270000D01*
X100905000Y-94270000D02*
X108645000Y-94270000D01*
X107695000Y-100270000D02*
X106935000Y-100270000D01*
X106935000Y-100270000D02*
X106935000Y-94270000D01*
X105155000Y-100270000D02*
X104395000Y-100270000D01*
X104395000Y-100270000D02*
X104395000Y-94270000D01*
X102615000Y-100270000D02*
X101855000Y-100270000D01*
X101855000Y-100270000D02*
X101855000Y-94270000D01*
%TO.C,J10*%
X100905000Y-58480000D02*
X100905000Y-57150000D01*
X102235000Y-58480000D02*
X100905000Y-58480000D01*
X103505000Y-58480000D02*
X108645000Y-58480000D01*
X103505000Y-58480000D02*
X103505000Y-55820000D01*
X108645000Y-58480000D02*
X108645000Y-55820000D01*
X103505000Y-55820000D02*
X108645000Y-55820000D01*
%TO.C,J4*%
X79445000Y-50359000D02*
X79445000Y-53019000D01*
X79445000Y-50359000D02*
X88075000Y-50359000D01*
X79445000Y-50479000D02*
X88075000Y-50479000D01*
X79445000Y-50594455D02*
X88075000Y-50594455D01*
X79445000Y-50709910D02*
X88075000Y-50709910D01*
X79445000Y-50825365D02*
X88075000Y-50825365D01*
X79445000Y-50940820D02*
X88075000Y-50940820D01*
X79445000Y-51056275D02*
X88075000Y-51056275D01*
X79445000Y-51171730D02*
X88075000Y-51171730D01*
X79445000Y-51287185D02*
X88075000Y-51287185D01*
X79445000Y-51402640D02*
X88075000Y-51402640D01*
X79445000Y-51518095D02*
X88075000Y-51518095D01*
X79445000Y-51633550D02*
X88075000Y-51633550D01*
X79445000Y-51749005D02*
X88075000Y-51749005D01*
X79445000Y-51864460D02*
X88075000Y-51864460D01*
X79445000Y-51979915D02*
X88075000Y-51979915D01*
X79445000Y-52095370D02*
X88075000Y-52095370D01*
X79445000Y-52210825D02*
X88075000Y-52210825D01*
X79445000Y-52326280D02*
X88075000Y-52326280D01*
X79445000Y-52441735D02*
X88075000Y-52441735D01*
X79445000Y-52557190D02*
X88075000Y-52557190D01*
X79445000Y-52672645D02*
X88075000Y-52672645D01*
X79445000Y-52788100D02*
X88075000Y-52788100D01*
X79445000Y-52903555D02*
X88075000Y-52903555D01*
X79445000Y-53019000D02*
X88075000Y-53019000D01*
X88075000Y-50359000D02*
X88075000Y-53019000D01*
X88075000Y-51329000D02*
X88425000Y-51329000D01*
X88075000Y-52049000D02*
X88425000Y-52049000D01*
X89535000Y-50359000D02*
X90645000Y-50359000D01*
X90645000Y-50359000D02*
X90645000Y-51689000D01*
%TO.C,D1*%
X122047000Y-61885000D02*
X123722000Y-61885000D01*
X122047000Y-61885000D02*
X121397000Y-61885000D01*
X122047000Y-58765000D02*
X122697000Y-58765000D01*
X122047000Y-58765000D02*
X121397000Y-58765000D01*
%TO.C,J5*%
X79445000Y-90491000D02*
X79445000Y-93151000D01*
X79445000Y-90491000D02*
X88075000Y-90491000D01*
X79445000Y-90611000D02*
X88075000Y-90611000D01*
X79445000Y-90726455D02*
X88075000Y-90726455D01*
X79445000Y-90841910D02*
X88075000Y-90841910D01*
X79445000Y-90957365D02*
X88075000Y-90957365D01*
X79445000Y-91072820D02*
X88075000Y-91072820D01*
X79445000Y-91188275D02*
X88075000Y-91188275D01*
X79445000Y-91303730D02*
X88075000Y-91303730D01*
X79445000Y-91419185D02*
X88075000Y-91419185D01*
X79445000Y-91534640D02*
X88075000Y-91534640D01*
X79445000Y-91650095D02*
X88075000Y-91650095D01*
X79445000Y-91765550D02*
X88075000Y-91765550D01*
X79445000Y-91881005D02*
X88075000Y-91881005D01*
X79445000Y-91996460D02*
X88075000Y-91996460D01*
X79445000Y-92111915D02*
X88075000Y-92111915D01*
X79445000Y-92227370D02*
X88075000Y-92227370D01*
X79445000Y-92342825D02*
X88075000Y-92342825D01*
X79445000Y-92458280D02*
X88075000Y-92458280D01*
X79445000Y-92573735D02*
X88075000Y-92573735D01*
X79445000Y-92689190D02*
X88075000Y-92689190D01*
X79445000Y-92804645D02*
X88075000Y-92804645D01*
X79445000Y-92920100D02*
X88075000Y-92920100D01*
X79445000Y-93035555D02*
X88075000Y-93035555D01*
X79445000Y-93151000D02*
X88075000Y-93151000D01*
X88075000Y-90491000D02*
X88075000Y-93151000D01*
X88075000Y-91461000D02*
X88425000Y-91461000D01*
X88075000Y-92181000D02*
X88425000Y-92181000D01*
X89535000Y-90491000D02*
X90645000Y-90491000D01*
X90645000Y-90491000D02*
X90645000Y-91821000D01*
%TO.C,J17*%
X121606000Y-66625000D02*
X122936000Y-66625000D01*
X121606000Y-67955000D02*
X121606000Y-66625000D01*
X121606000Y-69225000D02*
X121606000Y-76905000D01*
X121606000Y-69225000D02*
X124266000Y-69225000D01*
X121606000Y-76905000D02*
X124266000Y-76905000D01*
X124266000Y-69225000D02*
X124266000Y-76905000D01*
%TO.C,J11*%
X99695000Y-88900000D02*
X99695000Y-90170000D01*
X98425000Y-88900000D02*
X99695000Y-88900000D01*
X96265000Y-91212929D02*
X96265000Y-91610000D01*
X95505000Y-91212929D02*
X95505000Y-91610000D01*
X93725000Y-91212929D02*
X93725000Y-91610000D01*
X92965000Y-91212929D02*
X92965000Y-91610000D01*
X98805000Y-91280000D02*
X98805000Y-91610000D01*
X98045000Y-91280000D02*
X98045000Y-91610000D01*
X99755000Y-91610000D02*
X92015000Y-91610000D01*
X97155000Y-91610000D02*
X97155000Y-94270000D01*
X94615000Y-91610000D02*
X94615000Y-94270000D01*
X92015000Y-91610000D02*
X92015000Y-94270000D01*
X99755000Y-94270000D02*
X99755000Y-91610000D01*
X98805000Y-94270000D02*
X98805000Y-100270000D01*
X98745000Y-94270000D02*
X98745000Y-100270000D01*
X98625000Y-94270000D02*
X98625000Y-100270000D01*
X98505000Y-94270000D02*
X98505000Y-100270000D01*
X98385000Y-94270000D02*
X98385000Y-100270000D01*
X98265000Y-94270000D02*
X98265000Y-100270000D01*
X98145000Y-94270000D02*
X98145000Y-100270000D01*
X96265000Y-94270000D02*
X96265000Y-100270000D01*
X93725000Y-94270000D02*
X93725000Y-100270000D01*
X92015000Y-94270000D02*
X99755000Y-94270000D01*
X98805000Y-100270000D02*
X98045000Y-100270000D01*
X98045000Y-100270000D02*
X98045000Y-94270000D01*
X96265000Y-100270000D02*
X95505000Y-100270000D01*
X95505000Y-100270000D02*
X95505000Y-94270000D01*
X93725000Y-100270000D02*
X92965000Y-100270000D01*
X92965000Y-100270000D02*
X92965000Y-94270000D01*
%TO.C,J13*%
X117475000Y-88900000D02*
X117475000Y-90170000D01*
X116205000Y-88900000D02*
X117475000Y-88900000D01*
X114045000Y-91212929D02*
X114045000Y-91610000D01*
X113285000Y-91212929D02*
X113285000Y-91610000D01*
X111505000Y-91212929D02*
X111505000Y-91610000D01*
X110745000Y-91212929D02*
X110745000Y-91610000D01*
X116585000Y-91280000D02*
X116585000Y-91610000D01*
X115825000Y-91280000D02*
X115825000Y-91610000D01*
X117535000Y-91610000D02*
X109795000Y-91610000D01*
X114935000Y-91610000D02*
X114935000Y-94270000D01*
X112395000Y-91610000D02*
X112395000Y-94270000D01*
X109795000Y-91610000D02*
X109795000Y-94270000D01*
X117535000Y-94270000D02*
X117535000Y-91610000D01*
X116585000Y-94270000D02*
X116585000Y-100270000D01*
X116525000Y-94270000D02*
X116525000Y-100270000D01*
X116405000Y-94270000D02*
X116405000Y-100270000D01*
X116285000Y-94270000D02*
X116285000Y-100270000D01*
X116165000Y-94270000D02*
X116165000Y-100270000D01*
X116045000Y-94270000D02*
X116045000Y-100270000D01*
X115925000Y-94270000D02*
X115925000Y-100270000D01*
X114045000Y-94270000D02*
X114045000Y-100270000D01*
X111505000Y-94270000D02*
X111505000Y-100270000D01*
X109795000Y-94270000D02*
X117535000Y-94270000D01*
X116585000Y-100270000D02*
X115825000Y-100270000D01*
X115825000Y-100270000D02*
X115825000Y-94270000D01*
X114045000Y-100270000D02*
X113285000Y-100270000D01*
X113285000Y-100270000D02*
X113285000Y-94270000D01*
X111505000Y-100270000D02*
X110745000Y-100270000D01*
X110745000Y-100270000D02*
X110745000Y-94270000D01*
%TO.C,J14*%
X99755000Y-85030000D02*
X99755000Y-86360000D01*
X98425000Y-85030000D02*
X99755000Y-85030000D01*
X97155000Y-85030000D02*
X92015000Y-85030000D01*
X97155000Y-85030000D02*
X97155000Y-87690000D01*
X92015000Y-85030000D02*
X92015000Y-87690000D01*
X97155000Y-87690000D02*
X92015000Y-87690000D01*
%TO.C,G\u002A\u002A\u002A*%
G36*
X107789297Y-71381571D02*
G01*
X107768142Y-71426907D01*
X107764316Y-71433629D01*
X107716758Y-71556139D01*
X107707789Y-71692308D01*
X107737668Y-71842949D01*
X107806655Y-72008877D01*
X107915009Y-72190903D01*
X108062988Y-72389843D01*
X108072916Y-72402070D01*
X108236432Y-72608777D01*
X108369509Y-72791536D01*
X108474762Y-72954955D01*
X108554807Y-73103641D01*
X108612260Y-73242202D01*
X108649734Y-73375246D01*
X108661465Y-73438957D01*
X108674212Y-73548488D01*
X108672605Y-73619096D01*
X108664948Y-73643419D01*
X108651680Y-73657234D01*
X108633025Y-73651622D01*
X108603857Y-73621841D01*
X108559050Y-73563147D01*
X108521676Y-73510877D01*
X108456527Y-73421353D01*
X108393450Y-73339327D01*
X108336994Y-73270127D01*
X108291710Y-73219085D01*
X108262147Y-73191528D01*
X108252853Y-73192786D01*
X108253904Y-73197214D01*
X108344580Y-73500743D01*
X108426692Y-73798232D01*
X108498608Y-74082876D01*
X108558695Y-74347866D01*
X108605324Y-74586395D01*
X108636861Y-74791656D01*
X108637718Y-74798532D01*
X108653567Y-74984403D01*
X108656661Y-75172281D01*
X108647881Y-75354723D01*
X108628110Y-75524289D01*
X108598231Y-75673537D01*
X108559127Y-75795024D01*
X108511679Y-75881310D01*
X108508885Y-75884837D01*
X108488860Y-75907723D01*
X108475326Y-75911884D01*
X108464839Y-75891041D01*
X108453956Y-75838915D01*
X108441194Y-75761417D01*
X108395805Y-75535012D01*
X108332587Y-75318121D01*
X108248216Y-75103109D01*
X108139366Y-74882342D01*
X108002709Y-74648187D01*
X107862785Y-74433781D01*
X107784844Y-74317576D01*
X107711947Y-74206268D01*
X107649130Y-74107746D01*
X107601429Y-74029901D01*
X107575002Y-73982888D01*
X107532941Y-73859258D01*
X107523519Y-73717966D01*
X107546775Y-73554781D01*
X107580000Y-73433166D01*
X107610513Y-73327316D01*
X107628222Y-73235174D01*
X107631649Y-73148956D01*
X107619314Y-73060879D01*
X107589741Y-72963163D01*
X107541450Y-72848024D01*
X107472963Y-72707679D01*
X107424264Y-72613309D01*
X107341416Y-72437491D01*
X107290073Y-72283654D01*
X107269538Y-72144262D01*
X107279119Y-72011778D01*
X107318119Y-71878666D01*
X107349893Y-71806497D01*
X107404094Y-71717671D01*
X107482478Y-71617842D01*
X107573136Y-71520615D01*
X107664163Y-71439593D01*
X107684347Y-71424357D01*
X107749255Y-71380511D01*
X107783620Y-71366178D01*
X107789297Y-71381571D01*
G37*
G36*
X110701919Y-64754440D02*
G01*
X110780766Y-64794197D01*
X110860596Y-64870138D01*
X110936846Y-64975119D01*
X111004957Y-65101998D01*
X111060364Y-65243632D01*
X111093494Y-65367549D01*
X111112978Y-65501438D01*
X111123107Y-65662650D01*
X111123899Y-65835848D01*
X111115374Y-66005693D01*
X111097550Y-66156847D01*
X111092484Y-66185532D01*
X111063639Y-66311517D01*
X111023150Y-66454004D01*
X110975956Y-66597872D01*
X110926994Y-66728002D01*
X110884029Y-66823783D01*
X110843165Y-66904092D01*
X111010963Y-66826565D01*
X111215105Y-66740104D01*
X111395406Y-66679504D01*
X111550283Y-66644188D01*
X111678155Y-66633581D01*
X111777438Y-66647106D01*
X111846550Y-66684186D01*
X111883910Y-66744246D01*
X111887934Y-66826709D01*
X111857042Y-66930998D01*
X111789649Y-67056538D01*
X111761038Y-67099768D01*
X111714863Y-67162956D01*
X111646174Y-67251927D01*
X111560868Y-67359288D01*
X111464845Y-67477646D01*
X111364003Y-67599608D01*
X111327062Y-67643680D01*
X111148949Y-67857178D01*
X110998206Y-68042529D01*
X110872462Y-68203579D01*
X110769347Y-68344174D01*
X110686490Y-68468158D01*
X110621521Y-68579378D01*
X110572069Y-68681679D01*
X110535764Y-68778905D01*
X110510236Y-68874904D01*
X110493113Y-68973520D01*
X110489464Y-69002449D01*
X110478490Y-69189157D01*
X110484499Y-69404023D01*
X110506552Y-69635369D01*
X110543706Y-69871522D01*
X110569541Y-69996148D01*
X110623533Y-70234893D01*
X110570389Y-70325576D01*
X110521481Y-70394841D01*
X110457496Y-70467989D01*
X110425306Y-70499321D01*
X110333366Y-70582382D01*
X110393961Y-70890615D01*
X110455212Y-71177708D01*
X110519868Y-71434332D01*
X110586869Y-71656843D01*
X110655156Y-71841592D01*
X110697860Y-71935950D01*
X110737826Y-72017022D01*
X110768948Y-72081063D01*
X110787181Y-72119695D01*
X110790225Y-72127217D01*
X110710503Y-72134817D01*
X110616763Y-72146794D01*
X110522404Y-72161076D01*
X110440826Y-72175588D01*
X110385427Y-72188258D01*
X110376203Y-72191280D01*
X110314018Y-72214945D01*
X110489420Y-72400245D01*
X110615677Y-72544485D01*
X110742795Y-72709043D01*
X110860764Y-72879876D01*
X110959570Y-73042940D01*
X110994245Y-73108312D01*
X111067095Y-73269585D01*
X111127081Y-73440749D01*
X111177482Y-73632725D01*
X111221577Y-73856437D01*
X111225171Y-73877449D01*
X111256426Y-74059578D01*
X111282856Y-74205288D01*
X111306316Y-74321325D01*
X111328663Y-74414436D01*
X111351752Y-74491367D01*
X111377438Y-74558865D01*
X111407576Y-74623676D01*
X111444023Y-74692549D01*
X111454592Y-74711650D01*
X111500070Y-74795217D01*
X111536180Y-74865077D01*
X111558358Y-74912191D01*
X111563151Y-74926646D01*
X111546541Y-74930247D01*
X111501305Y-74912647D01*
X111434341Y-74878065D01*
X111352545Y-74830720D01*
X111262812Y-74774833D01*
X111172040Y-74714622D01*
X111087122Y-74654308D01*
X111014957Y-74598110D01*
X110987509Y-74574413D01*
X110938560Y-74532849D01*
X110915489Y-74521161D01*
X110914221Y-74537436D01*
X110915100Y-74540411D01*
X110934677Y-74620397D01*
X110955436Y-74734054D01*
X110976108Y-74871439D01*
X110995423Y-75022613D01*
X111012111Y-75177635D01*
X111024902Y-75326562D01*
X111032526Y-75459455D01*
X111032534Y-75459655D01*
X111036740Y-75674515D01*
X111030248Y-75857676D01*
X111011051Y-76020247D01*
X110977140Y-76173338D01*
X110926509Y-76328056D01*
X110857150Y-76495511D01*
X110837533Y-76538745D01*
X110762201Y-76702545D01*
X110669494Y-76407704D01*
X110621492Y-76262404D01*
X110573154Y-76129329D01*
X110526711Y-76013445D01*
X110484396Y-75919720D01*
X110448444Y-75853122D01*
X110421088Y-75818618D01*
X110405221Y-75819858D01*
X110379159Y-75880383D01*
X110347664Y-75974666D01*
X110313364Y-76093533D01*
X110278890Y-76227814D01*
X110246868Y-76368336D01*
X110243644Y-76383612D01*
X110171012Y-76799776D01*
X110128706Y-77206101D01*
X110117450Y-77532468D01*
X110118230Y-77651194D01*
X110121317Y-77750765D01*
X110127968Y-77841879D01*
X110139438Y-77935234D01*
X110156982Y-78041530D01*
X110181857Y-78171465D01*
X110206947Y-78295097D01*
X110233557Y-78426867D01*
X110256203Y-78543410D01*
X110273695Y-78638221D01*
X110284842Y-78704799D01*
X110288454Y-78736639D01*
X110288091Y-78738368D01*
X110274798Y-78723136D01*
X110242351Y-78675870D01*
X110194209Y-78601908D01*
X110133829Y-78506589D01*
X110064669Y-78395252D01*
X110042437Y-78359054D01*
X109805026Y-77971497D01*
X109791997Y-78145298D01*
X109764977Y-78326338D01*
X109712652Y-78472497D01*
X109633352Y-78585628D01*
X109525407Y-78667583D01*
X109387146Y-78720214D01*
X109253576Y-78742453D01*
X109090714Y-78758010D01*
X109109349Y-78647561D01*
X109118427Y-78569593D01*
X109124679Y-78469027D01*
X109126819Y-78366914D01*
X109126792Y-78361653D01*
X109123396Y-78261458D01*
X109111765Y-78184222D01*
X109087324Y-78109375D01*
X109053898Y-78034052D01*
X108982196Y-77881909D01*
X108923375Y-78002029D01*
X108885963Y-78075845D01*
X108851038Y-78140498D01*
X108832469Y-78171891D01*
X108782423Y-78221101D01*
X108706635Y-78265945D01*
X108622824Y-78297671D01*
X108557375Y-78307790D01*
X108517711Y-78303940D01*
X108493472Y-78285164D01*
X108475363Y-78240628D01*
X108464084Y-78199026D01*
X108406192Y-78051627D01*
X108308863Y-77900503D01*
X108175689Y-77749444D01*
X108010261Y-77602242D01*
X107816171Y-77462687D01*
X107697459Y-77389958D01*
X107516881Y-77267982D01*
X107357583Y-77121752D01*
X107217238Y-76947779D01*
X107093523Y-76742575D01*
X106984111Y-76502651D01*
X106886678Y-76224518D01*
X106859195Y-76132263D01*
X106826272Y-76011477D01*
X106795115Y-75886266D01*
X106769695Y-75773185D01*
X106756289Y-75703362D01*
X106741155Y-75624002D01*
X106726282Y-75564584D01*
X106714364Y-75535444D01*
X106712148Y-75534101D01*
X106699914Y-75553709D01*
X106682078Y-75605530D01*
X106662168Y-75679063D01*
X106658955Y-75692442D01*
X106632300Y-75847604D01*
X106616014Y-76040015D01*
X106610189Y-76264468D01*
X106614918Y-76515760D01*
X106630292Y-76788685D01*
X106637846Y-76884137D01*
X106648774Y-77018436D01*
X106657585Y-77137276D01*
X106663860Y-77234035D01*
X106667178Y-77302091D01*
X106667119Y-77334824D01*
X106666567Y-77336676D01*
X106654420Y-77320750D01*
X106625114Y-77271260D01*
X106581552Y-77193447D01*
X106526638Y-77092546D01*
X106463272Y-76973798D01*
X106420749Y-76893003D01*
X106286816Y-76639491D01*
X106152412Y-76389383D01*
X106020939Y-76148804D01*
X105895799Y-75923880D01*
X105780394Y-75720733D01*
X105678126Y-75545490D01*
X105605217Y-75424901D01*
X105498518Y-75242848D01*
X105415629Y-75077556D01*
X105350058Y-74914322D01*
X105295316Y-74738443D01*
X105284625Y-74698664D01*
X105259587Y-74593215D01*
X105234085Y-74468528D01*
X105209999Y-74335904D01*
X105189211Y-74206647D01*
X105173603Y-74092058D01*
X105165055Y-74003439D01*
X105164011Y-73974082D01*
X105164011Y-73915713D01*
X105093031Y-73968930D01*
X104965201Y-74047580D01*
X104815449Y-74112626D01*
X104660077Y-74158358D01*
X104515388Y-74179064D01*
X104491380Y-74179694D01*
X104419351Y-74180017D01*
X104488101Y-74080091D01*
X104565385Y-73951051D01*
X104641012Y-73794748D01*
X104707805Y-73627253D01*
X104751804Y-73489763D01*
X104769741Y-73417591D01*
X104783239Y-73342240D01*
X104792593Y-73257355D01*
X104798099Y-73156578D01*
X104800052Y-73033551D01*
X104798747Y-72881920D01*
X104794480Y-72695326D01*
X104792278Y-72618452D01*
X104791533Y-72470949D01*
X104799925Y-72352864D01*
X104818508Y-72250691D01*
X104822149Y-72236251D01*
X104861275Y-72115219D01*
X104917557Y-71977952D01*
X104983534Y-71840364D01*
X105051749Y-71718371D01*
X105096022Y-71651881D01*
X105164500Y-71558913D01*
X105247024Y-71613524D01*
X105338192Y-71692558D01*
X105431825Y-71807390D01*
X105524044Y-71950601D01*
X105610974Y-72114771D01*
X105688738Y-72292482D01*
X105753458Y-72476312D01*
X105801259Y-72658844D01*
X105806420Y-72684079D01*
X105817554Y-72756175D01*
X105830038Y-72863211D01*
X105843061Y-72996500D01*
X105855807Y-73147356D01*
X105867466Y-73307092D01*
X105873308Y-73398703D01*
X105889793Y-73640041D01*
X105908328Y-73842282D01*
X105929918Y-74009998D01*
X105955564Y-74147760D01*
X105986269Y-74260139D01*
X106023037Y-74351706D01*
X106066870Y-74427033D01*
X106111059Y-74482393D01*
X106155417Y-74525643D01*
X106202554Y-74556355D01*
X106260852Y-74576612D01*
X106338690Y-74588496D01*
X106444447Y-74594089D01*
X106566151Y-74595458D01*
X106711456Y-74598783D01*
X106832576Y-74610831D01*
X106933180Y-74635502D01*
X107016939Y-74676693D01*
X107087521Y-74738302D01*
X107148597Y-74824228D01*
X107203836Y-74938368D01*
X107256908Y-75084621D01*
X107311483Y-75266884D01*
X107357261Y-75435821D01*
X107424663Y-75675804D01*
X107492583Y-75887899D01*
X107559801Y-76069123D01*
X107625095Y-76216493D01*
X107687246Y-76327027D01*
X107745032Y-76397744D01*
X107754105Y-76405411D01*
X107840712Y-76456258D01*
X107943777Y-76482062D01*
X108071641Y-76484244D01*
X108162790Y-76474932D01*
X108329238Y-76456926D01*
X108460081Y-76453078D01*
X108561065Y-76463484D01*
X108625437Y-76482643D01*
X108686757Y-76517129D01*
X108756294Y-76574178D01*
X108837381Y-76657286D01*
X108933354Y-76769945D01*
X109047547Y-76915649D01*
X109081537Y-76960579D01*
X109176529Y-77084078D01*
X109251392Y-77174150D01*
X109309699Y-77234061D01*
X109355023Y-77267074D01*
X109390937Y-77276454D01*
X109417683Y-77267694D01*
X109438978Y-77236857D01*
X109468864Y-77168519D01*
X109505886Y-77067690D01*
X109548591Y-76939376D01*
X109595524Y-76788588D01*
X109645230Y-76620334D01*
X109696255Y-76439623D01*
X109747145Y-76251462D01*
X109796445Y-76060861D01*
X109842701Y-75872829D01*
X109884459Y-75692374D01*
X109911566Y-75566862D01*
X109960294Y-75328214D01*
X109999674Y-75121204D01*
X110030204Y-74937680D01*
X110052383Y-74769490D01*
X110066710Y-74608482D01*
X110073683Y-74446505D01*
X110073802Y-74275407D01*
X110067565Y-74087036D01*
X110055471Y-73873240D01*
X110038019Y-73625867D01*
X110033771Y-73569564D01*
X110018948Y-73378906D01*
X110005275Y-73225184D01*
X109990738Y-73101767D01*
X109973323Y-73002025D01*
X109951019Y-72919329D01*
X109921811Y-72847048D01*
X109883686Y-72778551D01*
X109834631Y-72707209D01*
X109772634Y-72626393D01*
X109731708Y-72574772D01*
X109623014Y-72431194D01*
X109543827Y-72306863D01*
X109491024Y-72191988D01*
X109461482Y-72076778D01*
X109452078Y-71951441D01*
X109459689Y-71806186D01*
X109466461Y-71743152D01*
X109502197Y-71487435D01*
X109546775Y-71263232D01*
X109603965Y-71058672D01*
X109677537Y-70861883D01*
X109771261Y-70660994D01*
X109866485Y-70483657D01*
X109980462Y-70277978D01*
X110075358Y-70099428D01*
X110155970Y-69938560D01*
X110227093Y-69785928D01*
X110267349Y-69694041D01*
X110294268Y-69630008D01*
X110313824Y-69576828D01*
X110327331Y-69525523D01*
X110336108Y-69467116D01*
X110341470Y-69392630D01*
X110344734Y-69293087D01*
X110347215Y-69159509D01*
X110347404Y-69148039D01*
X110350369Y-69005650D01*
X110354548Y-68898435D01*
X110360880Y-68817889D01*
X110370301Y-68755505D01*
X110383752Y-68702778D01*
X110402169Y-68651203D01*
X110402216Y-68651082D01*
X110448470Y-68547815D01*
X110511737Y-68431010D01*
X110594083Y-68297622D01*
X110697574Y-68144611D01*
X110824274Y-67968934D01*
X110976251Y-67767548D01*
X111155570Y-67537411D01*
X111175536Y-67512129D01*
X111315062Y-67333905D01*
X111430491Y-67182755D01*
X111521012Y-67059822D01*
X111585813Y-66966247D01*
X111624085Y-66903172D01*
X111635016Y-66871740D01*
X111632417Y-66868483D01*
X111594749Y-66871084D01*
X111525845Y-66889773D01*
X111433734Y-66921499D01*
X111326446Y-66963213D01*
X111212010Y-67011865D01*
X111098455Y-67064407D01*
X111040224Y-67093378D01*
X110948018Y-67143258D01*
X110829771Y-67211225D01*
X110695784Y-67291133D01*
X110556359Y-67376837D01*
X110421795Y-67462191D01*
X110418982Y-67464009D01*
X110303239Y-67538140D01*
X110200229Y-67602788D01*
X110115413Y-67654636D01*
X110054251Y-67690367D01*
X110022201Y-67706662D01*
X110018845Y-67707135D01*
X110027614Y-67687079D01*
X110057748Y-67637160D01*
X110105474Y-67563236D01*
X110167017Y-67471164D01*
X110232187Y-67376056D01*
X110398517Y-67125777D01*
X110534521Y-66897210D01*
X110643032Y-66683633D01*
X110726882Y-66478325D01*
X110788906Y-66274565D01*
X110831936Y-66065632D01*
X110853331Y-65902631D01*
X110857721Y-65760781D01*
X110845535Y-65604203D01*
X110819196Y-65445332D01*
X110781124Y-65296603D01*
X110733742Y-65170453D01*
X110697925Y-65104651D01*
X110658780Y-65044909D01*
X110595360Y-65118869D01*
X110565891Y-65155456D01*
X110514374Y-65221804D01*
X110444833Y-65312629D01*
X110361294Y-65422647D01*
X110267782Y-65546575D01*
X110168323Y-65679129D01*
X110156339Y-65695150D01*
X109993699Y-65911284D01*
X109851493Y-66097015D01*
X109725260Y-66257834D01*
X109610539Y-66399229D01*
X109502868Y-66526690D01*
X109397787Y-66645706D01*
X109290834Y-66761766D01*
X109281077Y-66772134D01*
X109185457Y-66879346D01*
X109115693Y-66972758D01*
X109062862Y-67064997D01*
X109041566Y-67111020D01*
X109007592Y-67191449D01*
X108989577Y-67245877D01*
X108985530Y-67288122D01*
X108993459Y-67332004D01*
X109004394Y-67368923D01*
X109025937Y-67485909D01*
X109011821Y-67588005D01*
X108960466Y-67677167D01*
X108870291Y-67755354D01*
X108739715Y-67824523D01*
X108592902Y-67878609D01*
X108453595Y-67932909D01*
X108320228Y-68002884D01*
X108205431Y-68081042D01*
X108125025Y-68156110D01*
X108082831Y-68211604D01*
X108044808Y-68277398D01*
X108006262Y-68363135D01*
X107962498Y-68478460D01*
X107947355Y-68521105D01*
X107933431Y-68548605D01*
X107925751Y-68538600D01*
X107924706Y-68496870D01*
X107930684Y-68429196D01*
X107937765Y-68378796D01*
X107974291Y-68222694D01*
X108035370Y-68077737D01*
X108126086Y-67934291D01*
X108251521Y-67782723D01*
X108253201Y-67780877D01*
X108328851Y-67695892D01*
X108400289Y-67612159D01*
X108458147Y-67540843D01*
X108486723Y-67502608D01*
X108551056Y-67409980D01*
X108490079Y-67433109D01*
X108445974Y-67452504D01*
X108374066Y-67486990D01*
X108285184Y-67531284D01*
X108210701Y-67569418D01*
X108089102Y-67636383D01*
X107985254Y-67704218D01*
X107895970Y-67777823D01*
X107818065Y-67862101D01*
X107748355Y-67961951D01*
X107683653Y-68082276D01*
X107620773Y-68227977D01*
X107556531Y-68403954D01*
X107487740Y-68615109D01*
X107448689Y-68741840D01*
X107369180Y-68995970D01*
X107296039Y-69212893D01*
X107226947Y-69398209D01*
X107159587Y-69557521D01*
X107091641Y-69696427D01*
X107020792Y-69820531D01*
X106969748Y-69899364D01*
X106852665Y-70058246D01*
X106731002Y-70193325D01*
X106597676Y-70309712D01*
X106445602Y-70412519D01*
X106267697Y-70506854D01*
X106056877Y-70597830D01*
X105939334Y-70642759D01*
X105662488Y-70751881D01*
X105416041Y-70862956D01*
X105204370Y-70973866D01*
X105034137Y-71080883D01*
X104964907Y-71130738D01*
X104912901Y-71170570D01*
X104885777Y-71194400D01*
X104883746Y-71198325D01*
X104907482Y-71198692D01*
X104960229Y-71192263D01*
X105000211Y-71185736D01*
X105048689Y-71180629D01*
X105134609Y-71175260D01*
X105251738Y-71169867D01*
X105393841Y-71164690D01*
X105554684Y-71159970D01*
X105728031Y-71155946D01*
X105819213Y-71154240D01*
X106051539Y-71149713D01*
X106244890Y-71144517D01*
X106403972Y-71138190D01*
X106533490Y-71130266D01*
X106638150Y-71120279D01*
X106722656Y-71107767D01*
X106791714Y-71092263D01*
X106850029Y-71073304D01*
X106902307Y-71050424D01*
X106910171Y-71046497D01*
X106998120Y-70990157D01*
X107079820Y-70917266D01*
X107145049Y-70838750D01*
X107183585Y-70765535D01*
X107187756Y-70749815D01*
X107204298Y-70692381D01*
X107221067Y-70678387D01*
X107236308Y-70707638D01*
X107245471Y-70756250D01*
X107247664Y-70889684D01*
X107221916Y-71020992D01*
X107172125Y-71137259D01*
X107104393Y-71223593D01*
X107014169Y-71290549D01*
X106904467Y-71343126D01*
X106771575Y-71381885D01*
X106611782Y-71407391D01*
X106421374Y-71420205D01*
X106196640Y-71420892D01*
X105933870Y-71410013D01*
X105891940Y-71407481D01*
X105744276Y-71399763D01*
X105566067Y-71392858D01*
X105370447Y-71387129D01*
X105170550Y-71382937D01*
X104979508Y-71380647D01*
X104909137Y-71380345D01*
X104754783Y-71379331D01*
X104613563Y-71376977D01*
X104491763Y-71373501D01*
X104395665Y-71369123D01*
X104331555Y-71364063D01*
X104306789Y-71359328D01*
X104271052Y-71326914D01*
X104266067Y-71282015D01*
X104292996Y-71223287D01*
X104353008Y-71149392D01*
X104447268Y-71058987D01*
X104576943Y-70950732D01*
X104743198Y-70823285D01*
X104825490Y-70762782D01*
X104949494Y-70671952D01*
X105057077Y-70591352D01*
X105153858Y-70516094D01*
X105245451Y-70441290D01*
X105337475Y-70362053D01*
X105435545Y-70273495D01*
X105545278Y-70170727D01*
X105672291Y-70048861D01*
X105822201Y-69903010D01*
X105892914Y-69833844D01*
X106062084Y-69666013D01*
X106203520Y-69519732D01*
X106322532Y-69387980D01*
X106424426Y-69263739D01*
X106514514Y-69139989D01*
X106598102Y-69009711D01*
X106680500Y-68865887D01*
X106767018Y-68701496D01*
X106802686Y-68630965D01*
X106967746Y-68327632D01*
X107143398Y-68053448D01*
X107327382Y-67810972D01*
X107517439Y-67602765D01*
X107711309Y-67431385D01*
X107906733Y-67299392D01*
X108034724Y-67235414D01*
X108114487Y-67205878D01*
X108212406Y-67175944D01*
X108284240Y-67157565D01*
X108396662Y-67125613D01*
X108507668Y-67080123D01*
X108619577Y-67018828D01*
X108734708Y-66939461D01*
X108855378Y-66839752D01*
X108983908Y-66717436D01*
X109122614Y-66570244D01*
X109273815Y-66395909D01*
X109439831Y-66192163D01*
X109622979Y-65956739D01*
X109825579Y-65687369D01*
X109924655Y-65553190D01*
X110026139Y-65415680D01*
X110124081Y-65284080D01*
X110214141Y-65164137D01*
X110291978Y-65061600D01*
X110353251Y-64982217D01*
X110393620Y-64931736D01*
X110396656Y-64928126D01*
X110486115Y-64838458D01*
X110574877Y-64778488D01*
X110656310Y-64751990D01*
X110701919Y-64754440D01*
G37*
%TO.C,C2*%
X110082000Y-61714748D02*
X110082000Y-62237252D01*
X108612000Y-61714748D02*
X108612000Y-62237252D01*
%TO.C,J2*%
X79445000Y-63948000D02*
X79445000Y-89468000D01*
X79445000Y-63948000D02*
X88075000Y-63948000D01*
X79445000Y-64068000D02*
X88075000Y-64068000D01*
X79445000Y-64186095D02*
X88075000Y-64186095D01*
X79445000Y-64304190D02*
X88075000Y-64304190D01*
X79445000Y-64422285D02*
X88075000Y-64422285D01*
X79445000Y-64540380D02*
X88075000Y-64540380D01*
X79445000Y-64658475D02*
X88075000Y-64658475D01*
X79445000Y-64776570D02*
X88075000Y-64776570D01*
X79445000Y-64894665D02*
X88075000Y-64894665D01*
X79445000Y-65012760D02*
X88075000Y-65012760D01*
X79445000Y-65130855D02*
X88075000Y-65130855D01*
X79445000Y-65248950D02*
X88075000Y-65248950D01*
X79445000Y-65367045D02*
X88075000Y-65367045D01*
X79445000Y-65485140D02*
X88075000Y-65485140D01*
X79445000Y-65603235D02*
X88075000Y-65603235D01*
X79445000Y-65721330D02*
X88075000Y-65721330D01*
X79445000Y-65839425D02*
X88075000Y-65839425D01*
X79445000Y-65957520D02*
X88075000Y-65957520D01*
X79445000Y-66075615D02*
X88075000Y-66075615D01*
X79445000Y-66193710D02*
X88075000Y-66193710D01*
X79445000Y-66311805D02*
X88075000Y-66311805D01*
X79445000Y-66429900D02*
X88075000Y-66429900D01*
X79445000Y-66548000D02*
X88075000Y-66548000D01*
X79445000Y-69088000D02*
X88075000Y-69088000D01*
X79445000Y-71628000D02*
X88075000Y-71628000D01*
X79445000Y-74168000D02*
X88075000Y-74168000D01*
X79445000Y-76708000D02*
X88075000Y-76708000D01*
X79445000Y-79248000D02*
X88075000Y-79248000D01*
X79445000Y-81788000D02*
X88075000Y-81788000D01*
X79445000Y-84328000D02*
X88075000Y-84328000D01*
X79445000Y-86868000D02*
X88075000Y-86868000D01*
X79445000Y-89468000D02*
X88075000Y-89468000D01*
X88075000Y-63948000D02*
X88075000Y-89468000D01*
X88075000Y-64918000D02*
X88425000Y-64918000D01*
X88075000Y-65638000D02*
X88425000Y-65638000D01*
X88075000Y-67458000D02*
X88485000Y-67458000D01*
X88075000Y-68178000D02*
X88485000Y-68178000D01*
X88075000Y-69998000D02*
X88485000Y-69998000D01*
X88075000Y-70718000D02*
X88485000Y-70718000D01*
X88075000Y-72538000D02*
X88485000Y-72538000D01*
X88075000Y-73258000D02*
X88485000Y-73258000D01*
X88075000Y-75078000D02*
X88485000Y-75078000D01*
X88075000Y-75798000D02*
X88485000Y-75798000D01*
X88075000Y-77618000D02*
X88485000Y-77618000D01*
X88075000Y-78338000D02*
X88485000Y-78338000D01*
X88075000Y-80158000D02*
X88485000Y-80158000D01*
X88075000Y-80878000D02*
X88485000Y-80878000D01*
X88075000Y-82698000D02*
X88485000Y-82698000D01*
X88075000Y-83418000D02*
X88485000Y-83418000D01*
X88075000Y-85238000D02*
X88485000Y-85238000D01*
X88075000Y-85958000D02*
X88485000Y-85958000D01*
X88075000Y-87778000D02*
X88485000Y-87778000D01*
X88075000Y-88498000D02*
X88485000Y-88498000D01*
X89535000Y-63948000D02*
X90645000Y-63948000D01*
X90645000Y-63948000D02*
X90645000Y-65278000D01*
%TO.C,J15*%
X108645000Y-85030000D02*
X108645000Y-86360000D01*
X107315000Y-85030000D02*
X108645000Y-85030000D01*
X106045000Y-85030000D02*
X100905000Y-85030000D01*
X106045000Y-85030000D02*
X106045000Y-87690000D01*
X100905000Y-85030000D02*
X100905000Y-87690000D01*
X106045000Y-87690000D02*
X100905000Y-87690000D01*
%TO.C,U1*%
X114046000Y-57765000D02*
X110596000Y-57765000D01*
X114046000Y-57765000D02*
X115996000Y-57765000D01*
X114046000Y-62885000D02*
X112096000Y-62885000D01*
X114046000Y-62885000D02*
X115996000Y-62885000D01*
%TO.C,J1*%
X79445000Y-57725000D02*
X79445000Y-62925000D01*
X79445000Y-57725000D02*
X88075000Y-57725000D01*
X79445000Y-57845000D02*
X88075000Y-57845000D01*
X79445000Y-57963095D02*
X88075000Y-57963095D01*
X79445000Y-58081190D02*
X88075000Y-58081190D01*
X79445000Y-58199285D02*
X88075000Y-58199285D01*
X79445000Y-58317380D02*
X88075000Y-58317380D01*
X79445000Y-58435475D02*
X88075000Y-58435475D01*
X79445000Y-58553570D02*
X88075000Y-58553570D01*
X79445000Y-58671665D02*
X88075000Y-58671665D01*
X79445000Y-58789760D02*
X88075000Y-58789760D01*
X79445000Y-58907855D02*
X88075000Y-58907855D01*
X79445000Y-59025950D02*
X88075000Y-59025950D01*
X79445000Y-59144045D02*
X88075000Y-59144045D01*
X79445000Y-59262140D02*
X88075000Y-59262140D01*
X79445000Y-59380235D02*
X88075000Y-59380235D01*
X79445000Y-59498330D02*
X88075000Y-59498330D01*
X79445000Y-59616425D02*
X88075000Y-59616425D01*
X79445000Y-59734520D02*
X88075000Y-59734520D01*
X79445000Y-59852615D02*
X88075000Y-59852615D01*
X79445000Y-59970710D02*
X88075000Y-59970710D01*
X79445000Y-60088805D02*
X88075000Y-60088805D01*
X79445000Y-60206900D02*
X88075000Y-60206900D01*
X79445000Y-60325000D02*
X88075000Y-60325000D01*
X79445000Y-62925000D02*
X88075000Y-62925000D01*
X88075000Y-57725000D02*
X88075000Y-62925000D01*
X88075000Y-58695000D02*
X88425000Y-58695000D01*
X88075000Y-59415000D02*
X88425000Y-59415000D01*
X88075000Y-61235000D02*
X88485000Y-61235000D01*
X88075000Y-61955000D02*
X88485000Y-61955000D01*
X89535000Y-57725000D02*
X90645000Y-57725000D01*
X90645000Y-57725000D02*
X90645000Y-59055000D01*
%TO.C,C1*%
X108050000Y-61714748D02*
X108050000Y-62237252D01*
X106580000Y-61714748D02*
X106580000Y-62237252D01*
%TO.C,J7*%
X100965000Y-54610000D02*
X100965000Y-53340000D01*
X102235000Y-54610000D02*
X100965000Y-54610000D01*
X104395000Y-52297071D02*
X104395000Y-51900000D01*
X105155000Y-52297071D02*
X105155000Y-51900000D01*
X106935000Y-52297071D02*
X106935000Y-51900000D01*
X107695000Y-52297071D02*
X107695000Y-51900000D01*
X101855000Y-52230000D02*
X101855000Y-51900000D01*
X102615000Y-52230000D02*
X102615000Y-51900000D01*
X100905000Y-51900000D02*
X108645000Y-51900000D01*
X103505000Y-51900000D02*
X103505000Y-49240000D01*
X106045000Y-51900000D02*
X106045000Y-49240000D01*
X108645000Y-51900000D02*
X108645000Y-49240000D01*
X100905000Y-49240000D02*
X100905000Y-51900000D01*
X101855000Y-49240000D02*
X101855000Y-43240000D01*
X101915000Y-49240000D02*
X101915000Y-43240000D01*
X102035000Y-49240000D02*
X102035000Y-43240000D01*
X102155000Y-49240000D02*
X102155000Y-43240000D01*
X102275000Y-49240000D02*
X102275000Y-43240000D01*
X102395000Y-49240000D02*
X102395000Y-43240000D01*
X102515000Y-49240000D02*
X102515000Y-43240000D01*
X104395000Y-49240000D02*
X104395000Y-43240000D01*
X106935000Y-49240000D02*
X106935000Y-43240000D01*
X108645000Y-49240000D02*
X100905000Y-49240000D01*
X101855000Y-43240000D02*
X102615000Y-43240000D01*
X102615000Y-43240000D02*
X102615000Y-49240000D01*
X104395000Y-43240000D02*
X105155000Y-43240000D01*
X105155000Y-43240000D02*
X105155000Y-49240000D01*
X106935000Y-43240000D02*
X107695000Y-43240000D01*
X107695000Y-43240000D02*
X107695000Y-49240000D01*
%TO.C,J6*%
X92075000Y-54610000D02*
X92075000Y-53340000D01*
X93345000Y-54610000D02*
X92075000Y-54610000D01*
X95505000Y-52297071D02*
X95505000Y-51900000D01*
X96265000Y-52297071D02*
X96265000Y-51900000D01*
X98045000Y-52297071D02*
X98045000Y-51900000D01*
X98805000Y-52297071D02*
X98805000Y-51900000D01*
X92965000Y-52230000D02*
X92965000Y-51900000D01*
X93725000Y-52230000D02*
X93725000Y-51900000D01*
X92015000Y-51900000D02*
X99755000Y-51900000D01*
X94615000Y-51900000D02*
X94615000Y-49240000D01*
X97155000Y-51900000D02*
X97155000Y-49240000D01*
X99755000Y-51900000D02*
X99755000Y-49240000D01*
X92015000Y-49240000D02*
X92015000Y-51900000D01*
X92965000Y-49240000D02*
X92965000Y-43240000D01*
X93025000Y-49240000D02*
X93025000Y-43240000D01*
X93145000Y-49240000D02*
X93145000Y-43240000D01*
X93265000Y-49240000D02*
X93265000Y-43240000D01*
X93385000Y-49240000D02*
X93385000Y-43240000D01*
X93505000Y-49240000D02*
X93505000Y-43240000D01*
X93625000Y-49240000D02*
X93625000Y-43240000D01*
X95505000Y-49240000D02*
X95505000Y-43240000D01*
X98045000Y-49240000D02*
X98045000Y-43240000D01*
X99755000Y-49240000D02*
X92015000Y-49240000D01*
X92965000Y-43240000D02*
X93725000Y-43240000D01*
X93725000Y-43240000D02*
X93725000Y-49240000D01*
X95505000Y-43240000D02*
X96265000Y-43240000D01*
X96265000Y-43240000D02*
X96265000Y-49240000D01*
X98045000Y-43240000D02*
X98805000Y-43240000D01*
X98805000Y-43240000D02*
X98805000Y-49240000D01*
%TO.C,R1*%
X119734000Y-60097936D02*
X119734000Y-60552064D01*
X118264000Y-60097936D02*
X118264000Y-60552064D01*
%TO.C,J19*%
X124530000Y-52715000D02*
X125800000Y-52715000D01*
X124530000Y-53985000D02*
X124530000Y-52715000D01*
X126842929Y-56145000D02*
X127240000Y-56145000D01*
X126842929Y-56905000D02*
X127240000Y-56905000D01*
X126842929Y-58685000D02*
X127240000Y-58685000D01*
X126842929Y-59445000D02*
X127240000Y-59445000D01*
X126842929Y-61225000D02*
X127240000Y-61225000D01*
X126842929Y-61985000D02*
X127240000Y-61985000D01*
X126910000Y-53605000D02*
X127240000Y-53605000D01*
X126910000Y-54365000D02*
X127240000Y-54365000D01*
X127240000Y-52655000D02*
X127240000Y-62935000D01*
X127240000Y-55255000D02*
X129900000Y-55255000D01*
X127240000Y-57795000D02*
X129900000Y-57795000D01*
X127240000Y-60335000D02*
X129900000Y-60335000D01*
X127240000Y-62935000D02*
X129900000Y-62935000D01*
X129900000Y-52655000D02*
X127240000Y-52655000D01*
X129900000Y-53605000D02*
X135900000Y-53605000D01*
X129900000Y-53665000D02*
X135900000Y-53665000D01*
X129900000Y-53785000D02*
X135900000Y-53785000D01*
X129900000Y-53905000D02*
X135900000Y-53905000D01*
X129900000Y-54025000D02*
X135900000Y-54025000D01*
X129900000Y-54145000D02*
X135900000Y-54145000D01*
X129900000Y-54265000D02*
X135900000Y-54265000D01*
X129900000Y-56145000D02*
X135900000Y-56145000D01*
X129900000Y-58685000D02*
X135900000Y-58685000D01*
X129900000Y-61225000D02*
X135900000Y-61225000D01*
X129900000Y-62935000D02*
X129900000Y-52655000D01*
X135900000Y-53605000D02*
X135900000Y-54365000D01*
X135900000Y-54365000D02*
X129900000Y-54365000D01*
X135900000Y-56145000D02*
X135900000Y-56905000D01*
X135900000Y-56905000D02*
X129900000Y-56905000D01*
X135900000Y-58685000D02*
X135900000Y-59445000D01*
X135900000Y-59445000D02*
X129900000Y-59445000D01*
X135900000Y-61225000D02*
X135900000Y-61985000D01*
X135900000Y-61985000D02*
X129900000Y-61985000D01*
%TO.C,J9*%
X92015000Y-58480000D02*
X92015000Y-57150000D01*
X93345000Y-58480000D02*
X92015000Y-58480000D01*
X94615000Y-58480000D02*
X99755000Y-58480000D01*
X94615000Y-58480000D02*
X94615000Y-55820000D01*
X99755000Y-58480000D02*
X99755000Y-55820000D01*
X94615000Y-55820000D02*
X99755000Y-55820000D01*
%TO.C,J18*%
X79445000Y-54042000D02*
X79445000Y-56702000D01*
X79445000Y-54042000D02*
X88075000Y-54042000D01*
X79445000Y-54162000D02*
X88075000Y-54162000D01*
X79445000Y-54277455D02*
X88075000Y-54277455D01*
X79445000Y-54392910D02*
X88075000Y-54392910D01*
X79445000Y-54508365D02*
X88075000Y-54508365D01*
X79445000Y-54623820D02*
X88075000Y-54623820D01*
X79445000Y-54739275D02*
X88075000Y-54739275D01*
X79445000Y-54854730D02*
X88075000Y-54854730D01*
X79445000Y-54970185D02*
X88075000Y-54970185D01*
X79445000Y-55085640D02*
X88075000Y-55085640D01*
X79445000Y-55201095D02*
X88075000Y-55201095D01*
X79445000Y-55316550D02*
X88075000Y-55316550D01*
X79445000Y-55432005D02*
X88075000Y-55432005D01*
X79445000Y-55547460D02*
X88075000Y-55547460D01*
X79445000Y-55662915D02*
X88075000Y-55662915D01*
X79445000Y-55778370D02*
X88075000Y-55778370D01*
X79445000Y-55893825D02*
X88075000Y-55893825D01*
X79445000Y-56009280D02*
X88075000Y-56009280D01*
X79445000Y-56124735D02*
X88075000Y-56124735D01*
X79445000Y-56240190D02*
X88075000Y-56240190D01*
X79445000Y-56355645D02*
X88075000Y-56355645D01*
X79445000Y-56471100D02*
X88075000Y-56471100D01*
X79445000Y-56586555D02*
X88075000Y-56586555D01*
X79445000Y-56702000D02*
X88075000Y-56702000D01*
X88075000Y-54042000D02*
X88075000Y-56702000D01*
X88075000Y-55012000D02*
X88425000Y-55012000D01*
X88075000Y-55732000D02*
X88425000Y-55732000D01*
X89535000Y-54042000D02*
X90645000Y-54042000D01*
X90645000Y-54042000D02*
X90645000Y-55372000D01*
%TD*%
%LPC*%
D14*
%TO.C,J8*%
X111140000Y-53340000D03*
D15*
X113680000Y-53340000D03*
X116220000Y-53340000D03*
%TD*%
D14*
%TO.C,J12*%
X107315000Y-90170000D03*
D15*
X104775000Y-90170000D03*
X102235000Y-90170000D03*
%TD*%
D14*
%TO.C,J10*%
X102235000Y-57150000D03*
D15*
X104775000Y-57150000D03*
X107315000Y-57150000D03*
%TD*%
D14*
%TO.C,J4*%
X89535000Y-51689000D03*
%TD*%
D16*
%TO.C,D1*%
X122984500Y-61275000D03*
X122984500Y-59375000D03*
X121109500Y-60325000D03*
%TD*%
D17*
%TO.C,MH3*%
X125984000Y-46355000D03*
%TD*%
D14*
%TO.C,J5*%
X89535000Y-91821000D03*
%TD*%
D17*
%TO.C,MH4*%
X125984000Y-97155000D03*
%TD*%
D14*
%TO.C,J17*%
X122936000Y-67955000D03*
D15*
X122936000Y-70495000D03*
X122936000Y-73035000D03*
X122936000Y-75575000D03*
%TD*%
D14*
%TO.C,J11*%
X98425000Y-90170000D03*
D15*
X95885000Y-90170000D03*
X93345000Y-90170000D03*
%TD*%
D14*
%TO.C,J13*%
X116205000Y-90170000D03*
D15*
X113665000Y-90170000D03*
X111125000Y-90170000D03*
%TD*%
D14*
%TO.C,J14*%
X98425000Y-86360000D03*
D15*
X95885000Y-86360000D03*
X93345000Y-86360000D03*
%TD*%
D18*
%TO.C,C2*%
X109347000Y-60938500D03*
X109347000Y-63013500D03*
%TD*%
D14*
%TO.C,J2*%
X89535000Y-65278000D03*
D15*
X89535000Y-67818000D03*
X89535000Y-70358000D03*
X89535000Y-72898000D03*
X89535000Y-75438000D03*
X89535000Y-77978000D03*
X89535000Y-80518000D03*
X89535000Y-83058000D03*
X89535000Y-85598000D03*
X89535000Y-88138000D03*
%TD*%
D14*
%TO.C,J15*%
X107315000Y-86360000D03*
D15*
X104775000Y-86360000D03*
X102235000Y-86360000D03*
%TD*%
D19*
%TO.C,U1*%
X111571000Y-58420000D03*
X111571000Y-59690000D03*
X111571000Y-60960000D03*
X111571000Y-62230000D03*
X116521000Y-62230000D03*
X116521000Y-60960000D03*
X116521000Y-59690000D03*
X116521000Y-58420000D03*
%TD*%
D14*
%TO.C,J1*%
X89535000Y-59055000D03*
D15*
X89535000Y-61595000D03*
%TD*%
D18*
%TO.C,C1*%
X107315000Y-60938500D03*
X107315000Y-63013500D03*
%TD*%
D14*
%TO.C,J7*%
X102235000Y-53340000D03*
D15*
X104775000Y-53340000D03*
X107315000Y-53340000D03*
%TD*%
D14*
%TO.C,J6*%
X93345000Y-53340000D03*
D15*
X95885000Y-53340000D03*
X98425000Y-53340000D03*
%TD*%
D20*
%TO.C,R1*%
X118999000Y-59325000D03*
X118999000Y-61325000D03*
%TD*%
D14*
%TO.C,J19*%
X125800000Y-53985000D03*
D15*
X125800000Y-56525000D03*
X125800000Y-59065000D03*
X125800000Y-61605000D03*
%TD*%
D14*
%TO.C,J9*%
X93345000Y-57150000D03*
D15*
X95885000Y-57150000D03*
X98425000Y-57150000D03*
%TD*%
D14*
%TO.C,J18*%
X89535000Y-55372000D03*
%TD*%
%TO.C,J16*%
X126746000Y-67945000D03*
D15*
X126746000Y-70485000D03*
X126746000Y-73025000D03*
X126746000Y-75565000D03*
%TD*%
M02*
