%TF.GenerationSoftware,KiCad,Pcbnew,7.0.1-0*%
%TF.CreationDate,2023-11-23T13:32:48-05:00*%
%TF.ProjectId,OBDBajaUC,4f424442-616a-4615-9543-2e6b69636164,rev?*%
%TF.SameCoordinates,Original*%
%TF.FileFunction,Copper,L2,Bot*%
%TF.FilePolarity,Positive*%
%FSLAX46Y46*%
G04 Gerber Fmt 4.6, Leading zero omitted, Abs format (unit mm)*
G04 Created by KiCad (PCBNEW 7.0.1-0) date 2023-11-23 13:32:48*
%MOMM*%
%LPD*%
G01*
G04 APERTURE LIST*
%TA.AperFunction,ComponentPad*%
%ADD10R,1.700000X1.700000*%
%TD*%
%TA.AperFunction,ComponentPad*%
%ADD11O,1.700000X1.700000*%
%TD*%
%TA.AperFunction,ComponentPad*%
%ADD12C,1.800000*%
%TD*%
%TA.AperFunction,ViaPad*%
%ADD13C,0.508000*%
%TD*%
%TA.AperFunction,Conductor*%
%ADD14C,0.254000*%
%TD*%
%TA.AperFunction,Conductor*%
%ADD15C,0.381000*%
%TD*%
G04 APERTURE END LIST*
D10*
%TO.P,J1,1,Pin_1*%
%TO.N,+5V*%
X179705000Y-55499000D03*
%TD*%
%TO.P,J4,1,Pin_1*%
%TO.N,GND*%
X179705000Y-95631000D03*
%TD*%
%TO.P,J3,1,Pin_1*%
%TO.N,/D3*%
X179705000Y-69088000D03*
D11*
%TO.P,J3,2,Pin_2*%
%TO.N,/D4*%
X179705000Y-71628000D03*
%TO.P,J3,3,Pin_3*%
%TO.N,/D5*%
X179705000Y-74168000D03*
%TO.P,J3,4,Pin_4*%
%TO.N,/D6*%
X179705000Y-76708000D03*
%TO.P,J3,5,Pin_5*%
%TO.N,/D7*%
X179705000Y-79248000D03*
%TO.P,J3,6,Pin_6*%
%TO.N,/A4*%
X179705000Y-81788000D03*
%TO.P,J3,7,Pin_7*%
%TO.N,/A3*%
X179705000Y-84328000D03*
%TO.P,J3,8,Pin_8*%
%TO.N,/A2*%
X179705000Y-86868000D03*
%TO.P,J3,9,Pin_9*%
%TO.N,/A1*%
X179705000Y-89408000D03*
%TO.P,J3,10,Pin_10*%
%TO.N,/A0*%
X179705000Y-91948000D03*
%TD*%
D10*
%TO.P,J6,1,Pin_1*%
%TO.N,+3.3V*%
X179705000Y-59182000D03*
%TD*%
%TO.P,J7,1,Pin_1*%
%TO.N,/UP*%
X170815000Y-94996000D03*
D11*
%TO.P,J7,2,Pin_2*%
%TO.N,/DN*%
X168275000Y-94996000D03*
%TO.P,J7,3,Pin_3*%
%TO.N,/L*%
X165735000Y-94996000D03*
%TO.P,J7,4,Pin_4*%
%TO.N,/R*%
X163195000Y-94996000D03*
%TO.P,J7,5,Pin_5*%
%TO.N,/SEL*%
X160655000Y-94996000D03*
%TO.P,J7,6,Pin_6*%
%TO.N,GND*%
X158115000Y-94996000D03*
%TD*%
D10*
%TO.P,J2,1,Pin_1*%
%TO.N,Net-(J2-Pin_1)*%
X179705000Y-62865000D03*
D11*
%TO.P,J2,2,Pin_2*%
%TO.N,Net-(J2-Pin_2)*%
X179705000Y-65405000D03*
%TD*%
D10*
%TO.P,J5,1,Pin_1*%
%TO.N,+5V*%
X149860000Y-59055000D03*
D11*
%TO.P,J5,2,Pin_2*%
%TO.N,GND*%
X149860000Y-61595000D03*
%TO.P,J5,3,Pin_3*%
%TO.N,/CS*%
X149860000Y-64135000D03*
%TO.P,J5,4,Pin_4*%
%TO.N,+3.3V*%
X149860000Y-66675000D03*
%TO.P,J5,5,Pin_5*%
%TO.N,/DC*%
X149860000Y-69215000D03*
%TO.P,J5,6,Pin_6*%
%TO.N,/SDI*%
X149860000Y-71755000D03*
%TO.P,J5,7,Pin_7*%
%TO.N,/SCK*%
X149860000Y-74295000D03*
%TO.P,J5,8,Pin_8*%
%TO.N,Net-(J5-Pin_8)*%
X149860000Y-76835000D03*
%TO.P,J5,9,Pin_9*%
%TO.N,/SDO*%
X149860000Y-79375000D03*
%TO.P,J5,10,Pin_10*%
%TO.N,/SCK*%
X149860000Y-81915000D03*
%TO.P,J5,11,Pin_11*%
%TO.N,/T_CS*%
X149860000Y-84455000D03*
%TO.P,J5,12,Pin_12*%
%TO.N,/SDI*%
X149860000Y-86995000D03*
%TO.P,J5,13,Pin_13*%
%TO.N,/SDO*%
X149860000Y-89535000D03*
%TO.P,J5,14,Pin_14*%
%TO.N,/T_IRQ*%
X149860000Y-92075000D03*
%TD*%
D12*
%TO.P,U1,1,GND*%
%TO.N,GND*%
X172085000Y-59055000D03*
%TO.P,U1,2,0_RX1_CRX2_CS1*%
%TO.N,Net-(J2-Pin_1)*%
X172085000Y-61595000D03*
%TO.P,U1,3,1_TX1_CTX2_MISO1*%
%TO.N,Net-(J2-Pin_2)*%
X172085000Y-64135000D03*
%TO.P,U1,4,2_OUT2*%
%TO.N,/T_IRQ*%
X172085000Y-66675000D03*
%TO.P,U1,5,3_LRCLK2*%
%TO.N,/D3*%
X172085000Y-69215000D03*
%TO.P,U1,6,4_BCLK2*%
%TO.N,/D4*%
X172085000Y-71755000D03*
%TO.P,U1,7,5_IN2*%
%TO.N,/D5*%
X172085000Y-74295000D03*
%TO.P,U1,8,6_OUT1D*%
%TO.N,/D6*%
X172085000Y-76835000D03*
%TO.P,U1,9,7_RX2_OUT1A*%
%TO.N,/D7*%
X172085000Y-79375000D03*
%TO.P,U1,10,8_TX2_IN1*%
%TO.N,/T_CS*%
X172085000Y-81915000D03*
%TO.P,U1,11,9_OUT1C*%
%TO.N,/DC*%
X172085000Y-84455000D03*
%TO.P,U1,12,10_CS_MQSR*%
%TO.N,/CS*%
X172085000Y-86995000D03*
%TO.P,U1,13,11_MOSI_CTX1*%
%TO.N,/SDI*%
X172085000Y-89535000D03*
%TO.P,U1,14,12_MISO_MQSL*%
%TO.N,/SDO*%
X172085000Y-92075000D03*
%TO.P,U1,15,VBAT*%
%TO.N,unconnected-(U1-VBAT-Pad15)*%
X169545000Y-92075000D03*
%TO.P,U1,16,3V3*%
%TO.N,unconnected-(U1-3V3-Pad16)*%
X167005000Y-92075000D03*
%TO.P,U1,17,GND*%
%TO.N,GND*%
X164465000Y-92075000D03*
%TO.P,U1,18,PROGRAM*%
%TO.N,unconnected-(U1-PROGRAM-Pad18)*%
X161925000Y-92075000D03*
%TO.P,U1,19,ON_OFF*%
%TO.N,unconnected-(U1-ON_OFF-Pad19)*%
X159385000Y-92075000D03*
%TO.P,U1,20,13_SCK_CRX1_LED*%
%TO.N,/SCK*%
X156845000Y-92075000D03*
%TO.P,U1,21,14_A0_TX3_SPDIF_OUT*%
%TO.N,/A0*%
X156845000Y-89535000D03*
%TO.P,U1,22,15_A1_RX3_SPDIF_IN*%
%TO.N,/A1*%
X156845000Y-86995000D03*
%TO.P,U1,23,16_A2_RX4_SCL1*%
%TO.N,/A2*%
X156845000Y-84455000D03*
%TO.P,U1,24,17_A3_TX4_SDA1*%
%TO.N,/A3*%
X156845000Y-81915000D03*
%TO.P,U1,25,18_A4_SDA0*%
%TO.N,/A4*%
X156845000Y-79375000D03*
%TO.P,U1,26,19_A5_SCL0*%
%TO.N,/UP*%
X156845000Y-76835000D03*
%TO.P,U1,27,20_A6_TX5_LRCLK1*%
%TO.N,/DN*%
X156845000Y-74295000D03*
%TO.P,U1,28,21_A7_RX5_BCLK1*%
%TO.N,/L*%
X156845000Y-71755000D03*
%TO.P,U1,29,22_A8_CTX1*%
%TO.N,/R*%
X156845000Y-69215000D03*
%TO.P,U1,30,23_A9_CRX1_MCLK1*%
%TO.N,/SEL*%
X156845000Y-66675000D03*
%TO.P,U1,31,3V3*%
%TO.N,+3.3V*%
X156845000Y-64135000D03*
%TO.P,U1,32,GND*%
%TO.N,GND*%
X156845000Y-61595000D03*
%TO.P,U1,33,VIN*%
%TO.N,+5V*%
X156845000Y-59055000D03*
%TO.P,U1,34,VUSB*%
%TO.N,unconnected-(U1-VUSB-Pad34)*%
X159385000Y-61595000D03*
%TO.P,U1,35,24_A10_TX6_SCL2*%
%TO.N,unconnected-(U1-24_A10_TX6_SCL2-Pad35)*%
X159385000Y-86995000D03*
%TO.P,U1,36,25_A11_RX6_SDA2*%
%TO.N,unconnected-(U1-25_A11_RX6_SDA2-Pad36)*%
X159385000Y-84455000D03*
%TO.P,U1,37,26_A12_MOSI1*%
%TO.N,unconnected-(U1-26_A12_MOSI1-Pad37)*%
X161925000Y-86995000D03*
%TO.P,U1,38,27_A13_SCK1*%
%TO.N,unconnected-(U1-27_A13_SCK1-Pad38)*%
X161925000Y-84455000D03*
%TO.P,U1,39,28_RX7*%
%TO.N,unconnected-(U1-28_RX7-Pad39)*%
X164465000Y-86995000D03*
%TO.P,U1,40,29_TX7*%
%TO.N,unconnected-(U1-29_TX7-Pad40)*%
X164465000Y-84455000D03*
%TO.P,U1,41,30_CRX3*%
%TO.N,unconnected-(U1-30_CRX3-Pad41)*%
X167005000Y-86995000D03*
%TO.P,U1,42,31_CTX3*%
%TO.N,unconnected-(U1-31_CTX3-Pad42)*%
X167005000Y-84455000D03*
%TO.P,U1,43,32_OUT1B*%
%TO.N,unconnected-(U1-32_OUT1B-Pad43)*%
X169545000Y-86995000D03*
%TO.P,U1,44,33_MCLK2*%
%TO.N,unconnected-(U1-33_MCLK2-Pad44)*%
X169545000Y-84455000D03*
%TD*%
D13*
%TO.N,/T_IRQ*%
X159131000Y-88900000D03*
X170688000Y-88900000D03*
%TO.N,/UP*%
X166826023Y-80021500D03*
%TO.N,/DN*%
X166242323Y-79437800D03*
%TO.N,/L*%
X165658623Y-78854100D03*
%TO.N,/R*%
X165074923Y-78270400D03*
%TD*%
D14*
%TO.N,/CS*%
X172759800Y-83224800D02*
X173315200Y-83780200D01*
X171575434Y-83224800D02*
X172759800Y-83224800D01*
X158875434Y-70524800D02*
X171575434Y-83224800D01*
X156249800Y-70524800D02*
X158875434Y-70524800D01*
X173315200Y-83780200D02*
X173315200Y-85764800D01*
X173315200Y-85764800D02*
X172085000Y-86995000D01*
X153681800Y-67956800D02*
X156249800Y-70524800D01*
X149329061Y-67956800D02*
X153681800Y-67956800D01*
X149860000Y-64135000D02*
X148578200Y-65416800D01*
X148578200Y-65416800D02*
X148578200Y-67205939D01*
X148578200Y-67205939D02*
X149329061Y-67956800D01*
D15*
%TO.N,+3.3V*%
X149860000Y-66675000D02*
X152400000Y-64135000D01*
X152400000Y-64135000D02*
X156845000Y-64135000D01*
D14*
%TO.N,/DC*%
X149860000Y-69215000D02*
X156249800Y-75604800D01*
X156249800Y-75604800D02*
X163234800Y-75604800D01*
X163234800Y-75604800D02*
X172085000Y-84455000D01*
%TO.N,/SDI*%
X148590000Y-79774055D02*
X148590000Y-73025000D01*
X149860000Y-86995000D02*
X151040200Y-85814800D01*
X150259055Y-80645000D02*
X149460945Y-80645000D01*
X151040200Y-81426145D02*
X150259055Y-80645000D01*
X148590000Y-73025000D02*
X149860000Y-71755000D01*
X149460945Y-80645000D02*
X148590000Y-79774055D01*
X151040200Y-85814800D02*
X151040200Y-81426145D01*
%TO.N,/SCK*%
X148590000Y-92474055D02*
X149460945Y-93345000D01*
X150483422Y-70485000D02*
X149460945Y-70485000D01*
X147955000Y-80010000D02*
X149860000Y-81915000D01*
X147955000Y-71990945D02*
X147955000Y-80010000D01*
X149460945Y-70485000D02*
X147955000Y-71990945D01*
X149860000Y-74295000D02*
X151130000Y-73025000D01*
X149460945Y-93345000D02*
X155575000Y-93345000D01*
X149860000Y-81915000D02*
X148590000Y-83185000D01*
X151130000Y-71131578D02*
X150483422Y-70485000D01*
X155575000Y-93345000D02*
X156845000Y-92075000D01*
X148590000Y-83185000D02*
X148590000Y-92474055D01*
X151130000Y-73025000D02*
X151130000Y-71131578D01*
%TO.N,/SDO*%
X151765000Y-81280000D02*
X149860000Y-79375000D01*
X149860000Y-89535000D02*
X151765000Y-87630000D01*
X151765000Y-87630000D02*
X151765000Y-81280000D01*
%TO.N,/T_IRQ*%
X157354566Y-88304800D02*
X157949766Y-88900000D01*
X172680200Y-88304800D02*
X171575434Y-88304800D01*
X171575434Y-88304800D02*
X170980234Y-88900000D01*
X170980234Y-88900000D02*
X170688000Y-88900000D01*
X172085000Y-66675000D02*
X173772400Y-68362400D01*
X149860000Y-92075000D02*
X153630200Y-88304800D01*
X173772400Y-87212600D02*
X172680200Y-88304800D01*
X173772400Y-68362400D02*
X173772400Y-87212600D01*
X157949766Y-88900000D02*
X159131000Y-88900000D01*
X153630200Y-88304800D02*
X157354566Y-88304800D01*
%TO.N,/UP*%
X170815000Y-91567000D02*
X170815000Y-94996000D01*
X170854800Y-87907016D02*
X170103800Y-88658016D01*
X166851266Y-80021500D02*
X170854800Y-84025034D01*
X170854800Y-84025034D02*
X170854800Y-87907016D01*
X170103800Y-90855800D02*
X170815000Y-91567000D01*
X166826023Y-80021500D02*
X166851266Y-80021500D01*
X170103800Y-88658016D02*
X170103800Y-90855800D01*
%TO.N,/DN*%
X166242323Y-80263984D02*
X168275000Y-82296661D01*
X168275000Y-82296661D02*
X168275000Y-94996000D01*
X166242323Y-79437800D02*
X166242323Y-80263984D01*
%TO.N,/L*%
X164211000Y-93472000D02*
X165735000Y-94996000D01*
X161582234Y-93472000D02*
X164211000Y-93472000D01*
X163028200Y-90844800D02*
X161415434Y-90844800D01*
X160694800Y-91565434D02*
X160694800Y-92584566D01*
X161415434Y-90844800D02*
X160694800Y-91565434D01*
X160694800Y-92584566D02*
X161582234Y-93472000D01*
X165774800Y-88098200D02*
X163028200Y-90844800D01*
X165774800Y-84025034D02*
X165774800Y-88098200D01*
X165658623Y-78854100D02*
X165658623Y-83908857D01*
X165658623Y-83908857D02*
X165774800Y-84025034D01*
%TO.N,/R*%
X163234800Y-80110523D02*
X163234800Y-87424966D01*
X165074923Y-78270400D02*
X163234800Y-80110523D01*
X159854766Y-90805000D02*
X158877000Y-90805000D01*
X159042234Y-93472000D02*
X160935656Y-93472000D01*
X163234800Y-87424966D02*
X159854766Y-90805000D01*
X158115000Y-91567000D02*
X158115000Y-92544766D01*
X158115000Y-92544766D02*
X159042234Y-93472000D01*
X162459656Y-94996000D02*
X163195000Y-94996000D01*
X160935656Y-93472000D02*
X162459656Y-94996000D01*
X158877000Y-90805000D02*
X158115000Y-91567000D01*
%TD*%
%TA.AperFunction,Conductor*%
%TO.N,GND*%
G36*
X149877987Y-53347194D02*
G01*
X150495000Y-53594000D01*
X151765000Y-53594000D01*
X152382012Y-53347194D01*
X152419374Y-53340000D01*
X154918753Y-53340000D01*
X154921547Y-53340553D01*
X154939998Y-53340540D01*
X154940000Y-53340541D01*
X154940001Y-53340540D01*
X154959970Y-53340527D01*
X154960106Y-53340500D01*
X175874894Y-53340500D01*
X175875029Y-53340527D01*
X175894998Y-53340540D01*
X175895000Y-53340541D01*
X175895001Y-53340540D01*
X175913452Y-53340553D01*
X175916247Y-53340000D01*
X178415626Y-53340000D01*
X178452987Y-53347194D01*
X179070000Y-53594000D01*
X180340000Y-53594000D01*
X180957012Y-53347194D01*
X180994374Y-53340000D01*
X183413900Y-53340000D01*
X183464200Y-53353478D01*
X183501022Y-53390300D01*
X183514500Y-53440600D01*
X183514500Y-97689400D01*
X183501022Y-97739700D01*
X183464200Y-97776522D01*
X183413900Y-97790000D01*
X180994374Y-97790000D01*
X180957012Y-97782805D01*
X180340000Y-97536000D01*
X179070000Y-97536000D01*
X178452988Y-97782805D01*
X178415626Y-97790000D01*
X175916313Y-97790000D01*
X175913594Y-97789459D01*
X175875100Y-97789459D01*
X175874894Y-97789500D01*
X154960106Y-97789500D01*
X154959900Y-97789459D01*
X154921406Y-97789459D01*
X154918687Y-97790000D01*
X152419374Y-97790000D01*
X152382012Y-97782805D01*
X151765000Y-97536000D01*
X150495000Y-97536000D01*
X149877988Y-97782805D01*
X149840626Y-97790000D01*
X147421100Y-97790000D01*
X147370800Y-97776522D01*
X147333978Y-97739700D01*
X147320500Y-97689400D01*
X147320500Y-95186500D01*
X156895965Y-95186500D01*
X156898070Y-95210576D01*
X156953819Y-95418633D01*
X157044852Y-95613853D01*
X157168395Y-95790292D01*
X157320707Y-95942604D01*
X157497146Y-96066147D01*
X157692366Y-96157180D01*
X157900423Y-96212929D01*
X157924500Y-96215034D01*
X157924500Y-95186500D01*
X156895965Y-95186500D01*
X147320500Y-95186500D01*
X147320500Y-94805500D01*
X156895965Y-94805500D01*
X157924500Y-94805500D01*
X157924500Y-93776965D01*
X157900423Y-93779070D01*
X157692366Y-93834819D01*
X157497146Y-93925852D01*
X157320707Y-94049395D01*
X157168395Y-94201707D01*
X157044852Y-94378146D01*
X156953819Y-94573366D01*
X156898070Y-94781423D01*
X156895965Y-94805500D01*
X147320500Y-94805500D01*
X147320500Y-80054685D01*
X147330636Y-80021383D01*
X147330454Y-80020800D01*
X147511994Y-80020800D01*
X147519946Y-80035983D01*
X147527740Y-80077181D01*
X147528382Y-80080572D01*
X147529011Y-80084276D01*
X147537820Y-80142716D01*
X147540530Y-80150951D01*
X147568130Y-80203173D01*
X147569825Y-80206529D01*
X147595470Y-80259781D01*
X147600489Y-80266854D01*
X147642270Y-80308635D01*
X147644879Y-80311344D01*
X147685070Y-80354658D01*
X147698924Y-80365289D01*
X148747682Y-81414047D01*
X148773917Y-81459894D01*
X148773307Y-81512712D01*
X148719505Y-81701805D01*
X148699751Y-81915000D01*
X148719505Y-82128194D01*
X148773307Y-82317286D01*
X148773917Y-82370104D01*
X148747682Y-82415951D01*
X148305478Y-82858155D01*
X148297069Y-82865670D01*
X148269522Y-82887639D01*
X148238423Y-82933252D01*
X148236247Y-82936318D01*
X148201175Y-82983839D01*
X148197257Y-82991599D01*
X148179851Y-83048026D01*
X148178677Y-83051594D01*
X148159155Y-83107389D01*
X148157700Y-83115954D01*
X148157700Y-83175018D01*
X148157630Y-83178779D01*
X148155420Y-83237844D01*
X148157700Y-83255158D01*
X148157700Y-92444134D01*
X148157066Y-92455398D01*
X148153123Y-92490402D01*
X148163382Y-92544626D01*
X148164011Y-92548331D01*
X148172820Y-92606771D01*
X148175530Y-92615006D01*
X148203130Y-92667228D01*
X148204825Y-92670584D01*
X148230470Y-92723836D01*
X148235489Y-92730909D01*
X148277270Y-92772690D01*
X148279879Y-92775399D01*
X148320070Y-92818713D01*
X148333924Y-92829344D01*
X149134104Y-93629524D01*
X149141621Y-93637936D01*
X149163584Y-93665477D01*
X149209176Y-93696561D01*
X149212244Y-93698737D01*
X149255931Y-93730980D01*
X149259796Y-93733832D01*
X149267536Y-93737739D01*
X149271255Y-93738886D01*
X149271258Y-93738888D01*
X149324019Y-93755162D01*
X149327541Y-93756321D01*
X149379667Y-93774562D01*
X149379671Y-93774562D01*
X149383349Y-93775849D01*
X149391884Y-93777300D01*
X149395786Y-93777300D01*
X149450963Y-93777300D01*
X149454724Y-93777370D01*
X149509894Y-93779434D01*
X149509896Y-93779433D01*
X149513789Y-93779579D01*
X149531103Y-93777300D01*
X155545079Y-93777300D01*
X155556343Y-93777933D01*
X155591346Y-93781877D01*
X155591346Y-93781876D01*
X155591347Y-93781877D01*
X155645603Y-93771610D01*
X155649228Y-93770994D01*
X155703862Y-93762760D01*
X155703865Y-93762758D01*
X155707736Y-93762175D01*
X155715933Y-93759477D01*
X155719388Y-93757650D01*
X155719392Y-93757650D01*
X155768205Y-93731850D01*
X155771518Y-93730177D01*
X155821274Y-93706218D01*
X155821276Y-93706216D01*
X155824794Y-93704522D01*
X155831844Y-93699519D01*
X155834603Y-93696759D01*
X155834608Y-93696757D01*
X155873674Y-93657689D01*
X155876328Y-93655133D01*
X155916803Y-93617579D01*
X155916804Y-93617576D01*
X155919659Y-93614928D01*
X155930287Y-93601076D01*
X156307645Y-93223718D01*
X156358014Y-93196421D01*
X156415117Y-93201047D01*
X156513741Y-93239255D01*
X156660121Y-93266618D01*
X156733311Y-93280300D01*
X156733312Y-93280300D01*
X156956688Y-93280300D01*
X156956689Y-93280300D01*
X157011580Y-93270038D01*
X157176259Y-93239255D01*
X157384550Y-93158563D01*
X157574468Y-93040971D01*
X157726000Y-92902830D01*
X157770742Y-92879247D01*
X157821304Y-92880415D01*
X157864909Y-92906040D01*
X158621932Y-93663063D01*
X158647969Y-93708161D01*
X158647969Y-93760235D01*
X158621932Y-93805333D01*
X158576834Y-93831370D01*
X158524760Y-93831370D01*
X158329576Y-93779070D01*
X158305500Y-93776965D01*
X158305500Y-96215034D01*
X158329576Y-96212929D01*
X158537633Y-96157180D01*
X158732853Y-96066147D01*
X158909292Y-95942604D01*
X159061604Y-95790292D01*
X159185147Y-95613853D01*
X159276180Y-95418633D01*
X159326406Y-95231187D01*
X159352224Y-95186309D01*
X159396942Y-95160214D01*
X159448716Y-95159815D01*
X159493831Y-95185218D01*
X159520338Y-95229693D01*
X159573101Y-95415135D01*
X159668533Y-95606788D01*
X159797567Y-95777656D01*
X159955795Y-95921900D01*
X159989234Y-95942604D01*
X160137833Y-96034612D01*
X160337483Y-96111957D01*
X160547946Y-96151300D01*
X160762054Y-96151300D01*
X160972517Y-96111957D01*
X161172167Y-96034612D01*
X161354206Y-95921899D01*
X161512434Y-95777655D01*
X161641464Y-95606792D01*
X161641466Y-95606788D01*
X161736898Y-95415135D01*
X161736898Y-95415132D01*
X161736900Y-95415130D01*
X161795494Y-95209195D01*
X161798278Y-95179144D01*
X161818873Y-95126880D01*
X161864284Y-95093806D01*
X161920348Y-95090240D01*
X161969584Y-95117292D01*
X162033254Y-95180962D01*
X162058879Y-95224566D01*
X162113101Y-95415135D01*
X162208533Y-95606788D01*
X162337567Y-95777656D01*
X162495795Y-95921900D01*
X162529234Y-95942604D01*
X162677833Y-96034612D01*
X162877483Y-96111957D01*
X163087946Y-96151300D01*
X163302054Y-96151300D01*
X163512517Y-96111957D01*
X163712167Y-96034612D01*
X163894206Y-95921899D01*
X164052434Y-95777655D01*
X164181464Y-95606792D01*
X164181466Y-95606788D01*
X164276898Y-95415135D01*
X164276898Y-95415132D01*
X164276900Y-95415130D01*
X164335494Y-95209195D01*
X164355249Y-94996000D01*
X164335494Y-94782805D01*
X164276900Y-94576870D01*
X164276899Y-94576868D01*
X164276898Y-94576864D01*
X164181466Y-94385211D01*
X164052432Y-94214343D01*
X163904236Y-94079244D01*
X163874082Y-94027932D01*
X163878203Y-93968559D01*
X163915157Y-93921905D01*
X163972010Y-93904300D01*
X163990265Y-93904300D01*
X164028763Y-93911958D01*
X164061400Y-93933765D01*
X164622682Y-94495047D01*
X164648917Y-94540894D01*
X164648307Y-94593712D01*
X164594505Y-94782805D01*
X164574751Y-94996000D01*
X164594505Y-95209192D01*
X164653101Y-95415135D01*
X164748533Y-95606788D01*
X164877567Y-95777656D01*
X165035795Y-95921900D01*
X165069234Y-95942604D01*
X165217833Y-96034612D01*
X165417483Y-96111957D01*
X165627946Y-96151300D01*
X165842054Y-96151300D01*
X166052517Y-96111957D01*
X166252167Y-96034612D01*
X166434206Y-95921899D01*
X166592434Y-95777655D01*
X166721464Y-95606792D01*
X166721466Y-95606788D01*
X166816898Y-95415135D01*
X166816898Y-95415132D01*
X166816900Y-95415130D01*
X166875494Y-95209195D01*
X166895249Y-94996000D01*
X166875494Y-94782805D01*
X166816900Y-94576870D01*
X166816899Y-94576868D01*
X166816898Y-94576864D01*
X166721466Y-94385211D01*
X166592432Y-94214343D01*
X166434204Y-94070099D01*
X166252170Y-93957390D01*
X166252167Y-93957388D01*
X166077615Y-93889766D01*
X166052515Y-93880042D01*
X165842054Y-93840700D01*
X165627946Y-93840700D01*
X165417480Y-93880043D01*
X165343766Y-93908599D01*
X165286662Y-93913226D01*
X165236292Y-93885927D01*
X164814206Y-93463841D01*
X164788169Y-93418743D01*
X164788169Y-93366668D01*
X164814207Y-93321570D01*
X164859305Y-93295534D01*
X164904797Y-93283344D01*
X165107946Y-93188616D01*
X165226320Y-93105728D01*
X164266727Y-92146135D01*
X164240690Y-92101037D01*
X164240690Y-92048963D01*
X164266727Y-92003865D01*
X164465000Y-91805592D01*
X165226320Y-91044270D01*
X165107946Y-90961383D01*
X164904799Y-90866655D01*
X164688293Y-90808642D01*
X164464999Y-90789107D01*
X164241706Y-90808642D01*
X164025200Y-90866655D01*
X163822051Y-90961385D01*
X163766362Y-91000379D01*
X163710416Y-91018557D01*
X163653870Y-91002342D01*
X163616058Y-90957279D01*
X163609909Y-90898776D01*
X163637524Y-90846839D01*
X166059330Y-88425033D01*
X166067724Y-88417532D01*
X166095278Y-88395560D01*
X166126376Y-88349944D01*
X166128556Y-88346874D01*
X166133090Y-88340731D01*
X166161320Y-88302482D01*
X166161320Y-88302480D01*
X166163636Y-88299343D01*
X166167538Y-88291614D01*
X166178762Y-88255228D01*
X166184953Y-88235152D01*
X166186114Y-88231621D01*
X166204362Y-88179478D01*
X166204362Y-88179475D01*
X166205650Y-88175795D01*
X166207100Y-88167263D01*
X166207100Y-88108182D01*
X166207170Y-88104422D01*
X166207498Y-88095653D01*
X166222759Y-88046032D01*
X166260727Y-88010627D01*
X166311292Y-87998866D01*
X166360982Y-88013879D01*
X166465450Y-88078563D01*
X166673741Y-88159255D01*
X166820121Y-88186618D01*
X166893311Y-88200300D01*
X166893312Y-88200300D01*
X167116688Y-88200300D01*
X167116689Y-88200300D01*
X167184664Y-88187593D01*
X167336259Y-88159255D01*
X167544550Y-88078563D01*
X167689141Y-87989035D01*
X167739777Y-87973995D01*
X167791053Y-87986682D01*
X167828832Y-88023599D01*
X167842700Y-88074568D01*
X167842700Y-90995432D01*
X167828832Y-91046401D01*
X167791053Y-91083318D01*
X167739777Y-91096005D01*
X167689141Y-91080964D01*
X167617148Y-91036388D01*
X167544550Y-90991437D01*
X167336259Y-90910745D01*
X167336258Y-90910744D01*
X167336256Y-90910744D01*
X167116689Y-90869700D01*
X167116688Y-90869700D01*
X166893312Y-90869700D01*
X166893311Y-90869700D01*
X166673743Y-90910744D01*
X166465449Y-90991437D01*
X166376680Y-91046401D01*
X166275532Y-91109029D01*
X166275530Y-91109030D01*
X166275531Y-91109030D01*
X166110457Y-91259514D01*
X165975842Y-91437774D01*
X165876274Y-91637732D01*
X165871783Y-91653517D01*
X165845277Y-91697992D01*
X165800162Y-91723395D01*
X165748388Y-91722996D01*
X165703670Y-91696901D01*
X165677852Y-91652023D01*
X165673344Y-91635200D01*
X165578614Y-91432051D01*
X165495728Y-91313678D01*
X164734408Y-92075000D01*
X165495728Y-92836320D01*
X165578616Y-92717946D01*
X165673344Y-92514798D01*
X165677852Y-92497977D01*
X165703670Y-92453098D01*
X165748388Y-92427003D01*
X165800162Y-92426604D01*
X165845277Y-92452007D01*
X165871784Y-92496483D01*
X165876276Y-92512271D01*
X165929146Y-92618447D01*
X165975843Y-92712227D01*
X166110456Y-92890484D01*
X166275532Y-93040971D01*
X166465450Y-93158563D01*
X166673741Y-93239255D01*
X166820121Y-93266618D01*
X166893311Y-93280300D01*
X166893312Y-93280300D01*
X167116688Y-93280300D01*
X167116689Y-93280300D01*
X167171580Y-93270038D01*
X167336259Y-93239255D01*
X167544550Y-93158563D01*
X167689141Y-93069035D01*
X167739777Y-93053995D01*
X167791053Y-93066682D01*
X167828832Y-93103599D01*
X167842700Y-93154568D01*
X167842700Y-93855598D01*
X167825095Y-93912451D01*
X167778442Y-93949403D01*
X167767144Y-93953780D01*
X167757829Y-93957389D01*
X167575795Y-94070099D01*
X167417567Y-94214343D01*
X167288533Y-94385211D01*
X167193101Y-94576864D01*
X167134505Y-94782807D01*
X167114751Y-94996000D01*
X167134505Y-95209192D01*
X167193101Y-95415135D01*
X167288533Y-95606788D01*
X167417567Y-95777656D01*
X167575795Y-95921900D01*
X167609234Y-95942604D01*
X167757833Y-96034612D01*
X167957483Y-96111957D01*
X168167946Y-96151300D01*
X168382054Y-96151300D01*
X168592517Y-96111957D01*
X168792167Y-96034612D01*
X168974206Y-95921899D01*
X169132434Y-95777655D01*
X169261464Y-95606792D01*
X169261466Y-95606788D01*
X169356898Y-95415135D01*
X169356898Y-95415132D01*
X169356900Y-95415130D01*
X169415494Y-95209195D01*
X169435249Y-94996000D01*
X169415494Y-94782805D01*
X169356900Y-94576870D01*
X169356899Y-94576868D01*
X169356898Y-94576864D01*
X169261466Y-94385211D01*
X169132432Y-94214343D01*
X168974204Y-94070099D01*
X168792170Y-93957389D01*
X168788135Y-93955826D01*
X168771557Y-93949403D01*
X168724905Y-93912451D01*
X168707300Y-93855598D01*
X168707300Y-93154568D01*
X168721168Y-93103599D01*
X168758947Y-93066682D01*
X168810223Y-93053995D01*
X168860858Y-93069035D01*
X169005450Y-93158563D01*
X169213741Y-93239255D01*
X169360121Y-93266618D01*
X169433311Y-93280300D01*
X169433312Y-93280300D01*
X169656688Y-93280300D01*
X169656689Y-93280300D01*
X169711580Y-93270038D01*
X169876259Y-93239255D01*
X170084550Y-93158563D01*
X170229141Y-93069035D01*
X170279777Y-93053995D01*
X170331053Y-93066682D01*
X170368832Y-93103599D01*
X170382700Y-93154568D01*
X170382700Y-93740101D01*
X170369222Y-93790401D01*
X170332400Y-93827223D01*
X170282100Y-93840701D01*
X169919419Y-93840701D01*
X169893891Y-93843661D01*
X169789475Y-93889766D01*
X169708766Y-93970475D01*
X169662662Y-94074890D01*
X169659700Y-94100422D01*
X169659700Y-95891580D01*
X169662661Y-95917108D01*
X169664777Y-95921900D01*
X169708766Y-96021525D01*
X169789475Y-96102234D01*
X169893891Y-96148338D01*
X169919421Y-96151300D01*
X171710578Y-96151299D01*
X171710580Y-96151299D01*
X171727598Y-96149324D01*
X171736109Y-96148338D01*
X171840525Y-96102234D01*
X171921234Y-96021525D01*
X171967338Y-95917109D01*
X171970300Y-95891579D01*
X171970300Y-95821500D01*
X178474000Y-95821500D01*
X178474000Y-96517157D01*
X178484790Y-96591216D01*
X178540635Y-96705450D01*
X178630549Y-96795364D01*
X178744783Y-96851209D01*
X178818843Y-96862000D01*
X179514500Y-96862000D01*
X179514500Y-95821500D01*
X179895500Y-95821500D01*
X179895500Y-96862000D01*
X180591157Y-96862000D01*
X180665216Y-96851209D01*
X180779450Y-96795364D01*
X180869364Y-96705450D01*
X180925209Y-96591216D01*
X180936000Y-96517157D01*
X180936000Y-95821500D01*
X179895500Y-95821500D01*
X179514500Y-95821500D01*
X178474000Y-95821500D01*
X171970300Y-95821500D01*
X171970300Y-95440500D01*
X178474000Y-95440500D01*
X179514500Y-95440500D01*
X179514500Y-94400000D01*
X179895500Y-94400000D01*
X179895500Y-95440500D01*
X180936000Y-95440500D01*
X180936000Y-94744843D01*
X180925209Y-94670783D01*
X180869364Y-94556549D01*
X180779450Y-94466635D01*
X180665216Y-94410790D01*
X180591157Y-94400000D01*
X179895500Y-94400000D01*
X179514500Y-94400000D01*
X178818843Y-94400000D01*
X178744783Y-94410790D01*
X178630549Y-94466635D01*
X178540635Y-94556549D01*
X178484790Y-94670783D01*
X178474000Y-94744843D01*
X178474000Y-95440500D01*
X171970300Y-95440500D01*
X171970299Y-94100422D01*
X171967338Y-94074891D01*
X171921234Y-93970475D01*
X171840525Y-93889766D01*
X171736109Y-93843662D01*
X171710579Y-93840700D01*
X171710577Y-93840700D01*
X171347900Y-93840700D01*
X171297600Y-93827222D01*
X171260778Y-93790400D01*
X171247300Y-93740100D01*
X171247300Y-93154568D01*
X171261168Y-93103599D01*
X171298947Y-93066682D01*
X171350223Y-93053995D01*
X171400858Y-93069035D01*
X171545450Y-93158563D01*
X171753741Y-93239255D01*
X171900121Y-93266618D01*
X171973311Y-93280300D01*
X171973312Y-93280300D01*
X172196688Y-93280300D01*
X172196689Y-93280300D01*
X172251580Y-93270038D01*
X172416259Y-93239255D01*
X172624550Y-93158563D01*
X172814468Y-93040971D01*
X172979544Y-92890484D01*
X173114157Y-92712227D01*
X173213724Y-92512270D01*
X173274854Y-92297422D01*
X173295464Y-92075000D01*
X173283696Y-91947999D01*
X178544751Y-91947999D01*
X178564505Y-92161192D01*
X178623101Y-92367135D01*
X178718533Y-92558788D01*
X178718535Y-92558791D01*
X178718536Y-92558792D01*
X178840523Y-92720329D01*
X178847567Y-92729656D01*
X179005795Y-92873900D01*
X179044124Y-92897632D01*
X179187833Y-92986612D01*
X179387483Y-93063957D01*
X179597946Y-93103300D01*
X179812054Y-93103300D01*
X180022517Y-93063957D01*
X180222167Y-92986612D01*
X180404206Y-92873899D01*
X180562434Y-92729655D01*
X180691464Y-92558792D01*
X180698518Y-92544626D01*
X180786898Y-92367135D01*
X180786898Y-92367132D01*
X180786900Y-92367130D01*
X180845494Y-92161195D01*
X180865249Y-91948000D01*
X180845494Y-91734805D01*
X180786900Y-91528870D01*
X180786899Y-91528868D01*
X180786898Y-91528864D01*
X180691466Y-91337211D01*
X180665313Y-91302579D01*
X180562434Y-91166345D01*
X180552617Y-91157396D01*
X180404204Y-91022099D01*
X180250857Y-90927152D01*
X180222167Y-90909388D01*
X180023777Y-90832531D01*
X180022515Y-90832042D01*
X179812054Y-90792700D01*
X179597946Y-90792700D01*
X179387484Y-90832042D01*
X179298139Y-90866655D01*
X179187833Y-90909388D01*
X179187831Y-90909389D01*
X179187829Y-90909390D01*
X179005795Y-91022099D01*
X178847567Y-91166343D01*
X178718533Y-91337211D01*
X178623101Y-91528864D01*
X178564505Y-91734807D01*
X178544751Y-91947999D01*
X173283696Y-91947999D01*
X173274854Y-91852578D01*
X173213724Y-91637730D01*
X173213722Y-91637726D01*
X173114157Y-91437774D01*
X173114157Y-91437773D01*
X172979544Y-91259516D01*
X172970587Y-91251351D01*
X172922700Y-91207696D01*
X172814468Y-91109029D01*
X172624550Y-90991437D01*
X172416259Y-90910745D01*
X172416258Y-90910744D01*
X172416256Y-90910744D01*
X172390522Y-90905934D01*
X172379570Y-90903886D01*
X172330282Y-90879344D01*
X172301296Y-90832531D01*
X172301296Y-90777469D01*
X172330282Y-90730656D01*
X172379570Y-90706113D01*
X172416259Y-90699255D01*
X172624550Y-90618563D01*
X172814468Y-90500971D01*
X172979544Y-90350484D01*
X173114157Y-90172227D01*
X173213724Y-89972270D01*
X173274854Y-89757422D01*
X173295464Y-89535000D01*
X173283696Y-89408000D01*
X178544751Y-89408000D01*
X178564505Y-89621192D01*
X178623101Y-89827135D01*
X178718533Y-90018788D01*
X178718535Y-90018791D01*
X178718536Y-90018792D01*
X178834403Y-90172225D01*
X178847567Y-90189656D01*
X179005795Y-90333900D01*
X179032581Y-90350485D01*
X179187833Y-90446612D01*
X179387483Y-90523957D01*
X179597946Y-90563300D01*
X179812054Y-90563300D01*
X180022517Y-90523957D01*
X180222167Y-90446612D01*
X180404206Y-90333899D01*
X180562434Y-90189655D01*
X180691464Y-90018792D01*
X180786900Y-89827130D01*
X180845494Y-89621195D01*
X180865249Y-89408000D01*
X180845494Y-89194805D01*
X180786900Y-88988870D01*
X180786899Y-88988868D01*
X180786898Y-88988864D01*
X180691466Y-88797211D01*
X180657451Y-88752168D01*
X180562434Y-88626345D01*
X180525699Y-88592857D01*
X180404204Y-88482099D01*
X180250857Y-88387152D01*
X180222167Y-88369388D01*
X180049463Y-88302482D01*
X180022515Y-88292042D01*
X179812054Y-88252700D01*
X179597946Y-88252700D01*
X179387484Y-88292042D01*
X179289954Y-88329826D01*
X179187833Y-88369388D01*
X179187831Y-88369389D01*
X179187829Y-88369390D01*
X179005795Y-88482099D01*
X178847567Y-88626343D01*
X178718533Y-88797211D01*
X178623101Y-88988864D01*
X178564505Y-89194807D01*
X178544751Y-89408000D01*
X173283696Y-89408000D01*
X173274854Y-89312578D01*
X173213724Y-89097730D01*
X173205668Y-89081552D01*
X173159515Y-88988864D01*
X173114157Y-88897773D01*
X172988702Y-88731643D01*
X172969620Y-88686742D01*
X172973909Y-88638141D01*
X173000558Y-88597276D01*
X173022003Y-88577379D01*
X173022004Y-88577376D01*
X173024859Y-88574728D01*
X173035487Y-88560876D01*
X174056930Y-87539433D01*
X174065324Y-87531932D01*
X174092878Y-87509960D01*
X174123976Y-87464344D01*
X174126156Y-87461274D01*
X174147562Y-87432271D01*
X174158920Y-87416882D01*
X174158920Y-87416880D01*
X174161236Y-87413743D01*
X174165138Y-87406014D01*
X174182551Y-87349561D01*
X174183714Y-87346021D01*
X174201962Y-87293878D01*
X174201962Y-87293875D01*
X174203250Y-87290195D01*
X174204700Y-87281663D01*
X174204700Y-87222582D01*
X174204770Y-87218821D01*
X174204822Y-87217419D01*
X174206834Y-87163651D01*
X174206833Y-87163648D01*
X174206979Y-87159755D01*
X174204700Y-87142442D01*
X174204700Y-86867999D01*
X178544751Y-86867999D01*
X178564505Y-87081192D01*
X178623101Y-87287135D01*
X178718533Y-87478788D01*
X178718535Y-87478791D01*
X178718536Y-87478792D01*
X178840261Y-87639982D01*
X178847567Y-87649656D01*
X179005795Y-87793900D01*
X179071015Y-87834282D01*
X179187833Y-87906612D01*
X179387483Y-87983957D01*
X179597946Y-88023300D01*
X179812054Y-88023300D01*
X180022517Y-87983957D01*
X180222167Y-87906612D01*
X180404206Y-87793899D01*
X180562434Y-87649655D01*
X180691464Y-87478792D01*
X180714629Y-87432270D01*
X180786898Y-87287135D01*
X180786898Y-87287132D01*
X180786900Y-87287130D01*
X180845494Y-87081195D01*
X180865249Y-86868000D01*
X180845494Y-86654805D01*
X180786900Y-86448870D01*
X180786899Y-86448868D01*
X180786898Y-86448864D01*
X180691466Y-86257211D01*
X180691464Y-86257208D01*
X180562434Y-86086345D01*
X180499562Y-86029030D01*
X180404204Y-85942099D01*
X180249445Y-85846278D01*
X180222167Y-85829388D01*
X180023777Y-85752531D01*
X180022515Y-85752042D01*
X179812054Y-85712700D01*
X179597946Y-85712700D01*
X179387484Y-85752042D01*
X179290279Y-85789700D01*
X179187833Y-85829388D01*
X179187831Y-85829389D01*
X179187829Y-85829390D01*
X179005795Y-85942099D01*
X178847567Y-86086343D01*
X178718533Y-86257211D01*
X178623101Y-86448864D01*
X178564505Y-86654807D01*
X178544751Y-86867999D01*
X174204700Y-86867999D01*
X174204700Y-84328000D01*
X178544751Y-84328000D01*
X178564505Y-84541192D01*
X178623101Y-84747135D01*
X178718533Y-84938788D01*
X178718535Y-84938791D01*
X178718536Y-84938792D01*
X178834403Y-85092225D01*
X178847567Y-85109656D01*
X179005795Y-85253900D01*
X179032581Y-85270485D01*
X179187833Y-85366612D01*
X179387483Y-85443957D01*
X179597946Y-85483300D01*
X179812054Y-85483300D01*
X180022517Y-85443957D01*
X180222167Y-85366612D01*
X180404206Y-85253899D01*
X180562434Y-85109655D01*
X180691464Y-84938792D01*
X180786900Y-84747130D01*
X180845494Y-84541195D01*
X180865249Y-84328000D01*
X180845494Y-84114805D01*
X180786900Y-83908870D01*
X180786899Y-83908868D01*
X180786898Y-83908864D01*
X180691466Y-83717211D01*
X180691464Y-83717208D01*
X180562434Y-83546345D01*
X180543158Y-83528773D01*
X180404204Y-83402099D01*
X180250857Y-83307152D01*
X180222167Y-83289388D01*
X180023777Y-83212531D01*
X180022515Y-83212042D01*
X179812054Y-83172700D01*
X179597946Y-83172700D01*
X179387484Y-83212042D01*
X179290279Y-83249700D01*
X179187833Y-83289388D01*
X179187831Y-83289389D01*
X179187829Y-83289390D01*
X179005795Y-83402099D01*
X178847567Y-83546343D01*
X178718533Y-83717211D01*
X178623101Y-83908864D01*
X178564505Y-84114807D01*
X178544751Y-84328000D01*
X174204700Y-84328000D01*
X174204700Y-81787999D01*
X178544751Y-81787999D01*
X178564505Y-82001192D01*
X178623101Y-82207135D01*
X178718533Y-82398788D01*
X178718535Y-82398791D01*
X178718536Y-82398792D01*
X178834403Y-82552225D01*
X178847567Y-82569656D01*
X179005795Y-82713900D01*
X179032581Y-82730485D01*
X179187833Y-82826612D01*
X179387483Y-82903957D01*
X179597946Y-82943300D01*
X179812054Y-82943300D01*
X180022517Y-82903957D01*
X180222167Y-82826612D01*
X180404206Y-82713899D01*
X180562434Y-82569655D01*
X180691464Y-82398792D01*
X180786900Y-82207130D01*
X180845494Y-82001195D01*
X180865249Y-81788000D01*
X180845494Y-81574805D01*
X180786900Y-81368870D01*
X180786899Y-81368868D01*
X180786898Y-81368864D01*
X180691466Y-81177211D01*
X180660049Y-81135608D01*
X180562434Y-81006345D01*
X180532058Y-80978654D01*
X180404204Y-80862099D01*
X180250857Y-80767152D01*
X180222167Y-80749388D01*
X180023777Y-80672531D01*
X180022515Y-80672042D01*
X179812054Y-80632700D01*
X179597946Y-80632700D01*
X179387484Y-80672042D01*
X179290279Y-80709700D01*
X179187833Y-80749388D01*
X179187831Y-80749389D01*
X179187829Y-80749390D01*
X179005795Y-80862099D01*
X178847567Y-81006343D01*
X178718533Y-81177211D01*
X178623101Y-81368864D01*
X178564505Y-81574807D01*
X178544751Y-81787999D01*
X174204700Y-81787999D01*
X174204700Y-79247999D01*
X178544751Y-79247999D01*
X178564505Y-79461192D01*
X178623101Y-79667135D01*
X178718533Y-79858788D01*
X178718535Y-79858791D01*
X178718536Y-79858792D01*
X178847256Y-80029245D01*
X178847567Y-80029656D01*
X179005795Y-80173900D01*
X179082468Y-80221373D01*
X179187833Y-80286612D01*
X179387483Y-80363957D01*
X179597946Y-80403300D01*
X179812054Y-80403300D01*
X180022517Y-80363957D01*
X180222167Y-80286612D01*
X180404206Y-80173899D01*
X180562434Y-80029655D01*
X180691464Y-79858792D01*
X180706574Y-79828447D01*
X180786898Y-79667135D01*
X180786898Y-79667132D01*
X180786900Y-79667130D01*
X180845494Y-79461195D01*
X180865249Y-79248000D01*
X180845494Y-79034805D01*
X180786900Y-78828870D01*
X180786899Y-78828868D01*
X180786898Y-78828864D01*
X180691466Y-78637211D01*
X180658340Y-78593345D01*
X180562434Y-78466345D01*
X180499562Y-78409030D01*
X180404204Y-78322099D01*
X180250857Y-78227152D01*
X180222167Y-78209388D01*
X180023777Y-78132531D01*
X180022515Y-78132042D01*
X179812054Y-78092700D01*
X179597946Y-78092700D01*
X179387484Y-78132042D01*
X179290279Y-78169700D01*
X179187833Y-78209388D01*
X179187831Y-78209389D01*
X179187829Y-78209390D01*
X179005795Y-78322099D01*
X178847567Y-78466343D01*
X178718533Y-78637211D01*
X178623101Y-78828864D01*
X178564505Y-79034807D01*
X178544751Y-79247999D01*
X174204700Y-79247999D01*
X174204700Y-76708000D01*
X178544751Y-76708000D01*
X178564505Y-76921192D01*
X178623101Y-77127135D01*
X178718533Y-77318788D01*
X178718535Y-77318791D01*
X178718536Y-77318792D01*
X178834403Y-77472225D01*
X178847567Y-77489656D01*
X179005795Y-77633900D01*
X179032581Y-77650485D01*
X179187833Y-77746612D01*
X179387483Y-77823957D01*
X179597946Y-77863300D01*
X179812054Y-77863300D01*
X180022517Y-77823957D01*
X180222167Y-77746612D01*
X180404206Y-77633899D01*
X180562434Y-77489655D01*
X180691464Y-77318792D01*
X180786900Y-77127130D01*
X180845494Y-76921195D01*
X180865249Y-76708000D01*
X180845494Y-76494805D01*
X180786900Y-76288870D01*
X180786899Y-76288868D01*
X180786898Y-76288864D01*
X180691466Y-76097211D01*
X180658340Y-76053345D01*
X180562434Y-75926345D01*
X180531050Y-75897735D01*
X180404204Y-75782099D01*
X180250857Y-75687152D01*
X180222167Y-75669388D01*
X180023777Y-75592531D01*
X180022515Y-75592042D01*
X179812054Y-75552700D01*
X179597946Y-75552700D01*
X179387484Y-75592042D01*
X179290279Y-75629700D01*
X179187833Y-75669388D01*
X179187831Y-75669389D01*
X179187829Y-75669390D01*
X179005795Y-75782099D01*
X178847567Y-75926343D01*
X178718533Y-76097211D01*
X178623101Y-76288864D01*
X178564505Y-76494807D01*
X178544751Y-76708000D01*
X174204700Y-76708000D01*
X174204700Y-74167999D01*
X178544751Y-74167999D01*
X178564505Y-74381192D01*
X178623101Y-74587135D01*
X178718533Y-74778788D01*
X178718535Y-74778791D01*
X178718536Y-74778792D01*
X178834403Y-74932225D01*
X178847567Y-74949656D01*
X179005795Y-75093900D01*
X179032581Y-75110485D01*
X179187833Y-75206612D01*
X179387483Y-75283957D01*
X179597946Y-75323300D01*
X179812054Y-75323300D01*
X180022517Y-75283957D01*
X180222167Y-75206612D01*
X180404206Y-75093899D01*
X180562434Y-74949655D01*
X180691464Y-74778792D01*
X180786900Y-74587130D01*
X180845494Y-74381195D01*
X180865249Y-74168000D01*
X180845494Y-73954805D01*
X180786900Y-73748870D01*
X180786899Y-73748868D01*
X180786898Y-73748864D01*
X180691466Y-73557211D01*
X180691464Y-73557208D01*
X180562434Y-73386345D01*
X180499562Y-73329030D01*
X180404204Y-73242099D01*
X180250857Y-73147152D01*
X180222167Y-73129388D01*
X180023777Y-73052531D01*
X180022515Y-73052042D01*
X179812054Y-73012700D01*
X179597946Y-73012700D01*
X179387484Y-73052042D01*
X179290279Y-73089700D01*
X179187833Y-73129388D01*
X179187831Y-73129389D01*
X179187829Y-73129390D01*
X179005795Y-73242099D01*
X178847567Y-73386343D01*
X178718533Y-73557211D01*
X178623101Y-73748864D01*
X178564505Y-73954807D01*
X178544751Y-74167999D01*
X174204700Y-74167999D01*
X174204700Y-71628000D01*
X178544751Y-71628000D01*
X178564505Y-71841192D01*
X178623101Y-72047135D01*
X178718533Y-72238788D01*
X178718535Y-72238791D01*
X178718536Y-72238792D01*
X178834403Y-72392225D01*
X178847567Y-72409656D01*
X179005795Y-72553900D01*
X179032581Y-72570485D01*
X179187833Y-72666612D01*
X179387483Y-72743957D01*
X179597946Y-72783300D01*
X179812054Y-72783300D01*
X180022517Y-72743957D01*
X180222167Y-72666612D01*
X180404206Y-72553899D01*
X180562434Y-72409655D01*
X180691464Y-72238792D01*
X180740385Y-72140546D01*
X180786898Y-72047135D01*
X180786898Y-72047132D01*
X180786900Y-72047130D01*
X180845494Y-71841195D01*
X180865249Y-71628000D01*
X180845494Y-71414805D01*
X180786900Y-71208870D01*
X180786899Y-71208868D01*
X180786898Y-71208864D01*
X180691466Y-71017211D01*
X180657451Y-70972168D01*
X180562434Y-70846345D01*
X180521818Y-70809319D01*
X180404204Y-70702099D01*
X180250857Y-70607152D01*
X180222167Y-70589388D01*
X180023777Y-70512531D01*
X180022515Y-70512042D01*
X179812054Y-70472700D01*
X179597946Y-70472700D01*
X179387484Y-70512042D01*
X179290279Y-70549700D01*
X179187833Y-70589388D01*
X179187831Y-70589389D01*
X179187829Y-70589390D01*
X179005795Y-70702099D01*
X178847567Y-70846343D01*
X178718533Y-71017211D01*
X178623101Y-71208864D01*
X178564505Y-71414807D01*
X178544751Y-71628000D01*
X174204700Y-71628000D01*
X174204700Y-69983580D01*
X178549700Y-69983580D01*
X178552661Y-70009108D01*
X178578408Y-70067420D01*
X178598766Y-70113525D01*
X178679475Y-70194234D01*
X178783891Y-70240338D01*
X178809421Y-70243300D01*
X180600578Y-70243299D01*
X180600580Y-70243299D01*
X180617598Y-70241324D01*
X180626109Y-70240338D01*
X180730525Y-70194234D01*
X180811234Y-70113525D01*
X180857338Y-70009109D01*
X180860300Y-69983579D01*
X180860299Y-68192422D01*
X180859638Y-68186725D01*
X180857338Y-68166891D01*
X180856881Y-68165856D01*
X180811234Y-68062475D01*
X180730525Y-67981766D01*
X180626109Y-67935662D01*
X180600579Y-67932700D01*
X180600577Y-67932700D01*
X178809419Y-67932700D01*
X178783891Y-67935661D01*
X178679475Y-67981766D01*
X178598766Y-68062475D01*
X178552662Y-68166890D01*
X178549700Y-68192422D01*
X178549700Y-69983580D01*
X174204700Y-69983580D01*
X174204700Y-68392321D01*
X174205333Y-68381057D01*
X174206132Y-68373962D01*
X174209277Y-68346053D01*
X174199004Y-68291760D01*
X174198397Y-68288187D01*
X174190160Y-68233538D01*
X174190158Y-68233535D01*
X174189576Y-68229669D01*
X174186877Y-68221467D01*
X174185050Y-68218011D01*
X174185050Y-68218008D01*
X174159237Y-68169168D01*
X174157566Y-68165856D01*
X174131928Y-68112617D01*
X174126913Y-68105548D01*
X174085128Y-68063763D01*
X174082519Y-68061054D01*
X174042330Y-68017742D01*
X174028475Y-68007110D01*
X173237787Y-67216422D01*
X173211552Y-67170575D01*
X173212162Y-67117756D01*
X173213721Y-67112275D01*
X173213724Y-67112270D01*
X173274854Y-66897422D01*
X173295464Y-66675000D01*
X173274854Y-66452578D01*
X173213724Y-66237730D01*
X173114157Y-66037773D01*
X172979544Y-65859516D01*
X172814468Y-65709029D01*
X172624550Y-65591437D01*
X172416259Y-65510745D01*
X172416258Y-65510744D01*
X172416256Y-65510744D01*
X172390522Y-65505934D01*
X172379570Y-65503886D01*
X172330282Y-65479344D01*
X172301296Y-65432531D01*
X172301296Y-65405000D01*
X178544751Y-65405000D01*
X178545095Y-65408708D01*
X178564505Y-65618192D01*
X178623101Y-65824135D01*
X178718533Y-66015788D01*
X178847567Y-66186656D01*
X179005795Y-66330900D01*
X179024729Y-66342623D01*
X179187833Y-66443612D01*
X179387483Y-66520957D01*
X179597946Y-66560300D01*
X179812054Y-66560300D01*
X180022517Y-66520957D01*
X180222167Y-66443612D01*
X180404206Y-66330899D01*
X180562434Y-66186655D01*
X180691464Y-66015792D01*
X180786900Y-65824130D01*
X180845494Y-65618195D01*
X180865249Y-65405000D01*
X180845494Y-65191805D01*
X180786900Y-64985870D01*
X180786899Y-64985868D01*
X180786898Y-64985864D01*
X180691466Y-64794211D01*
X180682128Y-64781845D01*
X180562434Y-64623345D01*
X180525970Y-64590104D01*
X180404204Y-64479099D01*
X180222170Y-64366390D01*
X180222167Y-64366388D01*
X180064812Y-64305428D01*
X180022515Y-64289042D01*
X179812054Y-64249700D01*
X179597946Y-64249700D01*
X179387484Y-64289042D01*
X179272423Y-64333617D01*
X179187833Y-64366388D01*
X179187831Y-64366389D01*
X179187829Y-64366390D01*
X179005795Y-64479099D01*
X178847567Y-64623343D01*
X178718533Y-64794211D01*
X178623101Y-64985864D01*
X178564505Y-65191807D01*
X178549695Y-65351641D01*
X178544751Y-65405000D01*
X172301296Y-65405000D01*
X172301296Y-65377469D01*
X172330282Y-65330656D01*
X172379570Y-65306113D01*
X172416259Y-65299255D01*
X172624550Y-65218563D01*
X172814468Y-65100971D01*
X172979544Y-64950484D01*
X173114157Y-64772227D01*
X173213724Y-64572270D01*
X173274854Y-64357422D01*
X173295464Y-64135000D01*
X173274854Y-63912578D01*
X173231607Y-63760580D01*
X178549700Y-63760580D01*
X178552661Y-63786108D01*
X178564540Y-63813010D01*
X178598766Y-63890525D01*
X178679475Y-63971234D01*
X178783891Y-64017338D01*
X178809421Y-64020300D01*
X180600578Y-64020299D01*
X180600580Y-64020299D01*
X180617598Y-64018324D01*
X180626109Y-64017338D01*
X180730525Y-63971234D01*
X180811234Y-63890525D01*
X180857338Y-63786109D01*
X180860300Y-63760579D01*
X180860299Y-61969422D01*
X180857338Y-61943891D01*
X180811234Y-61839475D01*
X180730525Y-61758766D01*
X180626109Y-61712662D01*
X180600579Y-61709700D01*
X180600577Y-61709700D01*
X178809419Y-61709700D01*
X178783891Y-61712661D01*
X178679475Y-61758766D01*
X178598766Y-61839475D01*
X178552662Y-61943890D01*
X178549700Y-61969422D01*
X178549700Y-63760580D01*
X173231607Y-63760580D01*
X173213724Y-63697730D01*
X173212550Y-63695373D01*
X173156815Y-63583441D01*
X173114157Y-63497773D01*
X172979544Y-63319516D01*
X172814468Y-63169029D01*
X172624550Y-63051437D01*
X172416259Y-62970745D01*
X172416258Y-62970744D01*
X172416256Y-62970744D01*
X172390522Y-62965934D01*
X172379570Y-62963886D01*
X172330282Y-62939344D01*
X172301296Y-62892531D01*
X172301296Y-62837469D01*
X172330282Y-62790656D01*
X172379570Y-62766113D01*
X172416259Y-62759255D01*
X172624550Y-62678563D01*
X172814468Y-62560971D01*
X172979544Y-62410484D01*
X173114157Y-62232227D01*
X173213724Y-62032270D01*
X173274854Y-61817422D01*
X173295464Y-61595000D01*
X173274854Y-61372578D01*
X173213724Y-61157730D01*
X173212464Y-61155200D01*
X173164146Y-61058165D01*
X173114157Y-60957773D01*
X172979544Y-60779516D01*
X172814468Y-60629029D01*
X172624550Y-60511437D01*
X172492399Y-60460241D01*
X172444245Y-60421031D01*
X172428288Y-60361015D01*
X172450611Y-60303065D01*
X172502707Y-60269263D01*
X172524802Y-60263343D01*
X172727946Y-60168616D01*
X172846320Y-60085728D01*
X172838172Y-60077580D01*
X178549700Y-60077580D01*
X178552661Y-60103108D01*
X178568316Y-60138562D01*
X178598766Y-60207525D01*
X178679475Y-60288234D01*
X178783891Y-60334338D01*
X178809421Y-60337300D01*
X180600578Y-60337299D01*
X180600580Y-60337299D01*
X180617598Y-60335324D01*
X180626109Y-60334338D01*
X180730525Y-60288234D01*
X180811234Y-60207525D01*
X180857338Y-60103109D01*
X180860300Y-60077579D01*
X180860299Y-58286422D01*
X180857338Y-58260891D01*
X180811234Y-58156475D01*
X180730525Y-58075766D01*
X180626109Y-58029662D01*
X180600579Y-58026700D01*
X180600577Y-58026700D01*
X178809419Y-58026700D01*
X178783891Y-58029661D01*
X178679475Y-58075766D01*
X178598766Y-58156475D01*
X178552662Y-58260890D01*
X178549700Y-58286422D01*
X178549700Y-60077580D01*
X172838172Y-60077580D01*
X172085000Y-59324408D01*
X171323678Y-60085728D01*
X171442053Y-60168616D01*
X171645201Y-60263344D01*
X171667293Y-60269264D01*
X171719388Y-60303065D01*
X171741711Y-60361016D01*
X171725754Y-60421031D01*
X171677598Y-60460243D01*
X171545449Y-60511437D01*
X171427856Y-60584247D01*
X171355532Y-60629029D01*
X171355530Y-60629030D01*
X171355531Y-60629030D01*
X171190457Y-60779514D01*
X171055842Y-60957774D01*
X170956276Y-61157727D01*
X170895145Y-61372580D01*
X170874536Y-61595000D01*
X170895145Y-61817419D01*
X170956276Y-62032272D01*
X171046196Y-62212853D01*
X171055843Y-62232227D01*
X171190456Y-62410484D01*
X171355532Y-62560971D01*
X171545450Y-62678563D01*
X171753741Y-62759255D01*
X171790429Y-62766113D01*
X171839717Y-62790656D01*
X171868703Y-62837470D01*
X171868703Y-62892530D01*
X171839717Y-62939344D01*
X171790429Y-62963886D01*
X171783571Y-62965168D01*
X171753742Y-62970744D01*
X171545449Y-63051437D01*
X171472851Y-63096388D01*
X171355532Y-63169029D01*
X171355530Y-63169030D01*
X171355531Y-63169030D01*
X171190457Y-63319514D01*
X171055842Y-63497774D01*
X170956276Y-63697727D01*
X170895145Y-63912580D01*
X170874536Y-64134999D01*
X170895145Y-64357419D01*
X170956276Y-64572272D01*
X171000092Y-64660265D01*
X171055843Y-64772227D01*
X171190456Y-64950484D01*
X171355532Y-65100971D01*
X171545450Y-65218563D01*
X171753741Y-65299255D01*
X171790429Y-65306113D01*
X171839717Y-65330656D01*
X171868703Y-65377470D01*
X171868703Y-65432530D01*
X171839717Y-65479344D01*
X171790429Y-65503886D01*
X171783571Y-65505168D01*
X171753742Y-65510744D01*
X171545449Y-65591437D01*
X171502234Y-65618195D01*
X171355532Y-65709029D01*
X171355530Y-65709030D01*
X171355531Y-65709030D01*
X171190457Y-65859514D01*
X171055842Y-66037774D01*
X170956276Y-66237727D01*
X170895145Y-66452580D01*
X170874536Y-66675000D01*
X170895145Y-66897419D01*
X170956276Y-67112272D01*
X171038058Y-67276510D01*
X171055843Y-67312227D01*
X171190456Y-67490484D01*
X171355532Y-67640971D01*
X171545450Y-67758563D01*
X171753741Y-67839255D01*
X171790429Y-67846113D01*
X171839717Y-67870656D01*
X171868703Y-67917470D01*
X171868703Y-67972530D01*
X171839717Y-68019344D01*
X171790429Y-68043886D01*
X171783571Y-68045168D01*
X171753742Y-68050744D01*
X171545449Y-68131437D01*
X171427856Y-68204247D01*
X171355532Y-68249029D01*
X171355530Y-68249030D01*
X171355531Y-68249030D01*
X171190457Y-68399514D01*
X171055842Y-68577774D01*
X170956276Y-68777727D01*
X170895145Y-68992580D01*
X170874536Y-69214999D01*
X170895145Y-69437419D01*
X170956276Y-69652272D01*
X171017303Y-69774829D01*
X171055843Y-69852227D01*
X171190456Y-70030484D01*
X171355532Y-70180971D01*
X171545450Y-70298563D01*
X171753741Y-70379255D01*
X171790429Y-70386113D01*
X171839717Y-70410656D01*
X171868703Y-70457470D01*
X171868703Y-70512530D01*
X171839717Y-70559344D01*
X171790429Y-70583886D01*
X171783571Y-70585168D01*
X171753742Y-70590744D01*
X171545449Y-70671437D01*
X171427856Y-70744247D01*
X171355532Y-70789029D01*
X171355530Y-70789030D01*
X171355531Y-70789030D01*
X171190457Y-70939514D01*
X171055842Y-71117774D01*
X170956276Y-71317727D01*
X170895145Y-71532580D01*
X170874536Y-71754999D01*
X170895145Y-71977419D01*
X170956276Y-72192272D01*
X171017303Y-72314829D01*
X171055843Y-72392227D01*
X171190456Y-72570484D01*
X171355532Y-72720971D01*
X171545450Y-72838563D01*
X171753741Y-72919255D01*
X171790429Y-72926113D01*
X171839717Y-72950656D01*
X171868703Y-72997470D01*
X171868703Y-73052530D01*
X171839717Y-73099344D01*
X171790429Y-73123886D01*
X171783571Y-73125168D01*
X171753742Y-73130744D01*
X171545449Y-73211437D01*
X171444018Y-73274241D01*
X171355532Y-73329029D01*
X171355530Y-73329030D01*
X171355531Y-73329030D01*
X171190457Y-73479514D01*
X171055842Y-73657774D01*
X170956276Y-73857727D01*
X170895145Y-74072580D01*
X170874536Y-74294999D01*
X170895145Y-74517419D01*
X170956276Y-74732272D01*
X171017303Y-74854829D01*
X171055843Y-74932227D01*
X171190456Y-75110484D01*
X171355532Y-75260971D01*
X171545450Y-75378563D01*
X171753741Y-75459255D01*
X171790429Y-75466113D01*
X171839717Y-75490656D01*
X171868703Y-75537470D01*
X171868703Y-75592530D01*
X171839717Y-75639344D01*
X171790429Y-75663886D01*
X171783571Y-75665168D01*
X171753742Y-75670744D01*
X171545449Y-75751437D01*
X171472851Y-75796388D01*
X171355532Y-75869029D01*
X171355530Y-75869030D01*
X171355531Y-75869030D01*
X171190457Y-76019514D01*
X171055842Y-76197774D01*
X170956276Y-76397727D01*
X170895145Y-76612580D01*
X170874536Y-76835000D01*
X170895145Y-77057419D01*
X170956276Y-77272272D01*
X171017303Y-77394829D01*
X171055843Y-77472227D01*
X171190456Y-77650484D01*
X171355532Y-77800971D01*
X171545450Y-77918563D01*
X171753741Y-77999255D01*
X171790429Y-78006113D01*
X171839717Y-78030656D01*
X171868703Y-78077470D01*
X171868703Y-78132530D01*
X171839717Y-78179344D01*
X171790429Y-78203886D01*
X171783571Y-78205168D01*
X171753742Y-78210744D01*
X171545449Y-78291437D01*
X171472851Y-78336388D01*
X171355532Y-78409029D01*
X171355530Y-78409030D01*
X171355531Y-78409030D01*
X171190457Y-78559514D01*
X171055842Y-78737774D01*
X170956276Y-78937727D01*
X170895145Y-79152580D01*
X170874536Y-79375000D01*
X170895145Y-79597419D01*
X170956276Y-79812272D01*
X171042882Y-79986198D01*
X171055843Y-80012227D01*
X171190456Y-80190484D01*
X171355532Y-80340971D01*
X171545450Y-80458563D01*
X171753741Y-80539255D01*
X171790429Y-80546113D01*
X171839717Y-80570656D01*
X171868703Y-80617470D01*
X171868703Y-80672530D01*
X171839717Y-80719344D01*
X171790429Y-80743886D01*
X171783571Y-80745168D01*
X171753742Y-80750744D01*
X171545449Y-80831437D01*
X171441687Y-80895684D01*
X171355532Y-80949029D01*
X171355530Y-80949030D01*
X171355531Y-80949030D01*
X171190457Y-81099514D01*
X171055842Y-81277774D01*
X170956276Y-81477727D01*
X170895145Y-81692579D01*
X170894517Y-81699362D01*
X170873920Y-81751628D01*
X170828509Y-81784699D01*
X170772446Y-81788265D01*
X170723211Y-81761213D01*
X165028563Y-76066565D01*
X159202278Y-70240279D01*
X159194761Y-70231868D01*
X159194133Y-70231081D01*
X159172794Y-70204322D01*
X159143697Y-70184484D01*
X159127188Y-70173228D01*
X159124121Y-70171052D01*
X159076585Y-70135969D01*
X159068835Y-70132056D01*
X159012408Y-70114651D01*
X159008836Y-70113476D01*
X158953044Y-70093954D01*
X158944484Y-70092500D01*
X158940593Y-70092500D01*
X158885416Y-70092500D01*
X158881655Y-70092430D01*
X158822589Y-70090220D01*
X158805276Y-70092500D01*
X157894743Y-70092500D01*
X157841784Y-70077432D01*
X157804690Y-70036741D01*
X157794572Y-69982618D01*
X157814461Y-69931277D01*
X157874157Y-69852227D01*
X157973724Y-69652270D01*
X158034854Y-69437422D01*
X158055464Y-69215000D01*
X158034854Y-68992578D01*
X157973724Y-68777730D01*
X157874157Y-68577773D01*
X157739544Y-68399516D01*
X157731651Y-68392321D01*
X157640722Y-68309428D01*
X157574468Y-68249029D01*
X157384550Y-68131437D01*
X157176259Y-68050745D01*
X157176258Y-68050744D01*
X157176256Y-68050744D01*
X157150522Y-68045934D01*
X157139570Y-68043886D01*
X157090282Y-68019344D01*
X157061296Y-67972531D01*
X157061296Y-67917469D01*
X157090282Y-67870656D01*
X157139570Y-67846113D01*
X157176259Y-67839255D01*
X157384550Y-67758563D01*
X157574468Y-67640971D01*
X157739544Y-67490484D01*
X157874157Y-67312227D01*
X157973724Y-67112270D01*
X158034854Y-66897422D01*
X158055464Y-66675000D01*
X158034854Y-66452578D01*
X157973724Y-66237730D01*
X157874157Y-66037773D01*
X157739544Y-65859516D01*
X157574468Y-65709029D01*
X157384550Y-65591437D01*
X157176259Y-65510745D01*
X157176258Y-65510744D01*
X157176256Y-65510744D01*
X157150522Y-65505934D01*
X157139570Y-65503886D01*
X157090282Y-65479344D01*
X157061296Y-65432531D01*
X157061296Y-65377469D01*
X157090282Y-65330656D01*
X157139570Y-65306113D01*
X157176259Y-65299255D01*
X157384550Y-65218563D01*
X157574468Y-65100971D01*
X157739544Y-64950484D01*
X157874157Y-64772227D01*
X157973724Y-64572270D01*
X158034854Y-64357422D01*
X158055464Y-64135000D01*
X158034854Y-63912578D01*
X157973724Y-63697730D01*
X157972550Y-63695373D01*
X157916815Y-63583441D01*
X157874157Y-63497773D01*
X157739544Y-63319516D01*
X157574468Y-63169029D01*
X157384550Y-63051437D01*
X157252399Y-63000241D01*
X157204245Y-62961031D01*
X157188288Y-62901015D01*
X157210611Y-62843065D01*
X157262707Y-62809263D01*
X157284802Y-62803343D01*
X157487946Y-62708616D01*
X157606320Y-62625728D01*
X156845000Y-61864408D01*
X156083678Y-62625728D01*
X156202053Y-62708616D01*
X156405201Y-62803344D01*
X156427293Y-62809264D01*
X156479388Y-62843065D01*
X156501711Y-62901016D01*
X156485754Y-62961031D01*
X156437598Y-63000243D01*
X156305449Y-63051437D01*
X156232851Y-63096388D01*
X156115532Y-63169029D01*
X156115530Y-63169030D01*
X156115531Y-63169030D01*
X155950457Y-63319514D01*
X155815840Y-63497776D01*
X155773185Y-63583441D01*
X155736091Y-63624132D01*
X155683132Y-63639200D01*
X152464113Y-63639200D01*
X152442730Y-63636901D01*
X152435734Y-63635379D01*
X152435733Y-63635379D01*
X152414451Y-63636901D01*
X152385883Y-63638944D01*
X152378708Y-63639200D01*
X152364543Y-63639200D01*
X152353374Y-63640805D01*
X152350526Y-63641215D01*
X152343391Y-63641982D01*
X152293525Y-63645549D01*
X152286806Y-63648055D01*
X152265976Y-63653371D01*
X152258881Y-63654391D01*
X152213401Y-63675160D01*
X152206771Y-63677906D01*
X152159942Y-63695373D01*
X152154199Y-63699672D01*
X152135720Y-63710636D01*
X152129195Y-63713616D01*
X152091414Y-63746353D01*
X152085828Y-63750855D01*
X152074486Y-63759345D01*
X152064460Y-63769371D01*
X152059211Y-63774258D01*
X152021445Y-63806983D01*
X152017572Y-63813010D01*
X152004081Y-63829750D01*
X151042949Y-64790882D01*
X150993940Y-64817884D01*
X150938087Y-64814525D01*
X150892667Y-64781845D01*
X150871733Y-64729954D01*
X150881761Y-64674905D01*
X150941899Y-64554132D01*
X150941900Y-64554130D01*
X151000494Y-64348195D01*
X151020249Y-64135000D01*
X151000494Y-63921805D01*
X150941900Y-63715870D01*
X150941899Y-63715868D01*
X150941898Y-63715864D01*
X150846466Y-63524211D01*
X150717432Y-63353343D01*
X150559204Y-63209099D01*
X150377170Y-63096390D01*
X150377167Y-63096388D01*
X150219812Y-63035428D01*
X150177515Y-63019042D01*
X150097025Y-63003996D01*
X150048890Y-62980488D01*
X150019645Y-62935606D01*
X150017583Y-62882076D01*
X150043289Y-62835078D01*
X150089474Y-62807937D01*
X150282633Y-62756180D01*
X150477853Y-62665147D01*
X150654292Y-62541604D01*
X150806604Y-62389292D01*
X150930147Y-62212853D01*
X151021180Y-62017633D01*
X151076929Y-61809576D01*
X151079035Y-61785500D01*
X148640965Y-61785500D01*
X148643070Y-61809576D01*
X148698819Y-62017633D01*
X148789852Y-62212853D01*
X148913395Y-62389292D01*
X149065707Y-62541604D01*
X149242146Y-62665147D01*
X149437366Y-62756180D01*
X149630525Y-62807937D01*
X149676710Y-62835078D01*
X149702416Y-62882076D01*
X149700354Y-62935606D01*
X149671109Y-62980488D01*
X149622974Y-63003996D01*
X149542484Y-63019042D01*
X149427423Y-63063617D01*
X149342833Y-63096388D01*
X149342831Y-63096389D01*
X149342829Y-63096390D01*
X149160795Y-63209099D01*
X149002567Y-63353343D01*
X148873533Y-63524211D01*
X148778101Y-63715864D01*
X148719505Y-63921807D01*
X148699751Y-64135000D01*
X148719505Y-64348194D01*
X148773307Y-64537286D01*
X148773917Y-64590104D01*
X148747682Y-64635951D01*
X148293673Y-65089960D01*
X148285263Y-65097476D01*
X148257721Y-65119440D01*
X148226623Y-65165052D01*
X148224447Y-65168118D01*
X148189375Y-65215639D01*
X148185457Y-65223399D01*
X148168051Y-65279826D01*
X148166877Y-65283394D01*
X148147355Y-65339189D01*
X148145900Y-65347754D01*
X148145900Y-65406818D01*
X148145830Y-65410579D01*
X148143620Y-65469644D01*
X148145900Y-65486958D01*
X148145900Y-67176018D01*
X148145267Y-67187282D01*
X148141984Y-67216422D01*
X148141323Y-67222286D01*
X148151582Y-67276510D01*
X148152211Y-67280215D01*
X148161020Y-67338655D01*
X148163730Y-67346890D01*
X148191330Y-67399112D01*
X148193025Y-67402468D01*
X148218670Y-67455720D01*
X148223689Y-67462793D01*
X148265470Y-67504574D01*
X148268079Y-67507283D01*
X148308270Y-67550597D01*
X148322124Y-67561228D01*
X149002220Y-68241324D01*
X149009738Y-68249737D01*
X149032789Y-68278643D01*
X149053258Y-68324187D01*
X149049308Y-68373962D01*
X149021912Y-68415707D01*
X149002568Y-68433341D01*
X148873533Y-68604211D01*
X148778101Y-68795864D01*
X148719505Y-69001807D01*
X148699751Y-69215000D01*
X148719505Y-69428192D01*
X148778101Y-69634135D01*
X148873533Y-69825788D01*
X148873535Y-69825791D01*
X148873536Y-69825792D01*
X148992691Y-69983579D01*
X149002567Y-69996656D01*
X149100136Y-70085602D01*
X149128686Y-70130929D01*
X149129924Y-70184484D01*
X149103497Y-70231081D01*
X147670473Y-71664105D01*
X147662063Y-71671621D01*
X147634521Y-71693585D01*
X147603423Y-71739197D01*
X147601247Y-71742263D01*
X147566175Y-71789784D01*
X147562257Y-71797544D01*
X147544851Y-71853971D01*
X147543677Y-71857539D01*
X147524155Y-71913334D01*
X147522700Y-71921899D01*
X147522700Y-71980963D01*
X147522630Y-71984724D01*
X147521630Y-72011452D01*
X147515853Y-72027384D01*
X147518270Y-72031328D01*
X147519270Y-72035059D01*
X147522700Y-72061103D01*
X147522700Y-79980079D01*
X147522067Y-79991344D01*
X147521067Y-80000218D01*
X147511994Y-80020800D01*
X147330454Y-80020800D01*
X147320500Y-79988953D01*
X147320500Y-72057372D01*
X147328151Y-72031541D01*
X147320500Y-72007691D01*
X147320500Y-61595000D01*
X155559107Y-61595000D01*
X155578642Y-61818293D01*
X155636655Y-62034799D01*
X155731383Y-62237946D01*
X155814270Y-62356320D01*
X156575592Y-61595000D01*
X157114408Y-61595000D01*
X157875728Y-62356320D01*
X157958616Y-62237946D01*
X158053344Y-62034798D01*
X158057852Y-62017977D01*
X158083670Y-61973098D01*
X158128388Y-61947003D01*
X158180162Y-61946604D01*
X158225277Y-61972007D01*
X158251784Y-62016483D01*
X158256276Y-62032271D01*
X158257535Y-62034799D01*
X158355843Y-62232227D01*
X158490456Y-62410484D01*
X158655532Y-62560971D01*
X158845450Y-62678563D01*
X159053741Y-62759255D01*
X159200121Y-62786618D01*
X159273311Y-62800300D01*
X159273312Y-62800300D01*
X159496688Y-62800300D01*
X159496689Y-62800300D01*
X159551580Y-62790038D01*
X159716259Y-62759255D01*
X159924550Y-62678563D01*
X160114468Y-62560971D01*
X160279544Y-62410484D01*
X160414157Y-62232227D01*
X160513724Y-62032270D01*
X160574854Y-61817422D01*
X160595464Y-61595000D01*
X160574854Y-61372578D01*
X160513724Y-61157730D01*
X160512464Y-61155200D01*
X160464146Y-61058165D01*
X160414157Y-60957773D01*
X160279544Y-60779516D01*
X160114468Y-60629029D01*
X159924550Y-60511437D01*
X159716259Y-60430745D01*
X159716258Y-60430744D01*
X159716256Y-60430744D01*
X159496689Y-60389700D01*
X159496688Y-60389700D01*
X159273312Y-60389700D01*
X159273311Y-60389700D01*
X159053743Y-60430744D01*
X158845449Y-60511437D01*
X158727856Y-60584247D01*
X158655532Y-60629029D01*
X158655530Y-60629030D01*
X158655531Y-60629030D01*
X158490457Y-60779514D01*
X158355842Y-60957774D01*
X158256274Y-61157732D01*
X158251783Y-61173517D01*
X158225277Y-61217992D01*
X158180162Y-61243395D01*
X158128388Y-61242996D01*
X158083670Y-61216901D01*
X158057852Y-61172023D01*
X158053344Y-61155200D01*
X157958614Y-60952051D01*
X157875728Y-60833678D01*
X157114408Y-61595000D01*
X156575592Y-61595000D01*
X155814270Y-60833678D01*
X155814269Y-60833678D01*
X155731385Y-60952051D01*
X155636655Y-61155200D01*
X155578642Y-61371706D01*
X155559107Y-61595000D01*
X147320500Y-61595000D01*
X147320500Y-61404500D01*
X148640965Y-61404500D01*
X151079034Y-61404500D01*
X151076929Y-61380423D01*
X151021180Y-61172366D01*
X150930147Y-60977146D01*
X150806604Y-60800707D01*
X150654292Y-60648395D01*
X150477853Y-60524852D01*
X150282632Y-60433819D01*
X150186540Y-60408071D01*
X150137816Y-60378213D01*
X150113216Y-60326636D01*
X150120674Y-60269981D01*
X150157786Y-60226529D01*
X150212575Y-60210299D01*
X150755578Y-60210299D01*
X150755581Y-60210299D01*
X150774726Y-60208078D01*
X150781109Y-60207338D01*
X150885525Y-60161234D01*
X150966234Y-60080525D01*
X151012338Y-59976109D01*
X151015300Y-59950579D01*
X151015299Y-59055000D01*
X155634536Y-59055000D01*
X155655145Y-59277419D01*
X155716276Y-59492272D01*
X155815842Y-59692225D01*
X155815843Y-59692227D01*
X155950456Y-59870484D01*
X156115532Y-60020971D01*
X156305450Y-60138563D01*
X156437600Y-60189758D01*
X156485753Y-60228967D01*
X156501711Y-60288982D01*
X156479390Y-60346932D01*
X156427296Y-60380735D01*
X156405198Y-60386656D01*
X156202051Y-60481385D01*
X156083678Y-60564269D01*
X156083678Y-60564270D01*
X156844999Y-61325591D01*
X157606320Y-60564270D01*
X157487946Y-60481383D01*
X157284800Y-60386655D01*
X157262704Y-60380735D01*
X157210609Y-60346932D01*
X157188288Y-60288982D01*
X157204246Y-60228967D01*
X157252399Y-60189758D01*
X157384550Y-60138563D01*
X157574468Y-60020971D01*
X157739544Y-59870484D01*
X157874157Y-59692227D01*
X157973724Y-59492270D01*
X158034854Y-59277422D01*
X158055464Y-59055000D01*
X170799107Y-59055000D01*
X170818642Y-59278293D01*
X170876655Y-59494799D01*
X170971383Y-59697946D01*
X171054270Y-59816320D01*
X171815592Y-59055000D01*
X172354408Y-59055000D01*
X173115728Y-59816320D01*
X173198616Y-59697946D01*
X173293344Y-59494799D01*
X173351357Y-59278293D01*
X173370892Y-59055000D01*
X173351357Y-58831706D01*
X173293344Y-58615200D01*
X173198614Y-58412051D01*
X173115728Y-58293678D01*
X172354408Y-59055000D01*
X171815592Y-59055000D01*
X171054270Y-58293678D01*
X171054269Y-58293678D01*
X170971385Y-58412051D01*
X170876655Y-58615200D01*
X170818642Y-58831706D01*
X170799107Y-59055000D01*
X158055464Y-59055000D01*
X158034854Y-58832578D01*
X157973724Y-58617730D01*
X157972464Y-58615200D01*
X157874157Y-58417774D01*
X157874157Y-58417773D01*
X157739544Y-58239516D01*
X157574468Y-58089029D01*
X157469878Y-58024270D01*
X171323678Y-58024270D01*
X172084999Y-58785591D01*
X172846320Y-58024270D01*
X172727946Y-57941383D01*
X172524799Y-57846655D01*
X172308293Y-57788642D01*
X172085000Y-57769107D01*
X171861706Y-57788642D01*
X171645200Y-57846655D01*
X171442051Y-57941385D01*
X171323678Y-58024269D01*
X171323678Y-58024270D01*
X157469878Y-58024270D01*
X157384550Y-57971437D01*
X157176259Y-57890745D01*
X157176258Y-57890744D01*
X157176256Y-57890744D01*
X156956689Y-57849700D01*
X156956688Y-57849700D01*
X156733312Y-57849700D01*
X156733311Y-57849700D01*
X156513743Y-57890744D01*
X156305449Y-57971437D01*
X156216197Y-58026700D01*
X156115532Y-58089029D01*
X156115530Y-58089030D01*
X156115531Y-58089030D01*
X155950457Y-58239514D01*
X155815842Y-58417774D01*
X155716276Y-58617727D01*
X155655145Y-58832580D01*
X155634536Y-59055000D01*
X151015299Y-59055000D01*
X151015299Y-58159422D01*
X151014957Y-58156475D01*
X151012338Y-58133891D01*
X150992530Y-58089030D01*
X150966234Y-58029475D01*
X150885525Y-57948766D01*
X150781109Y-57902662D01*
X150755579Y-57899700D01*
X150755577Y-57899700D01*
X148964419Y-57899700D01*
X148938891Y-57902661D01*
X148834475Y-57948766D01*
X148753766Y-58029475D01*
X148707662Y-58133890D01*
X148704700Y-58159422D01*
X148704700Y-59950580D01*
X148707661Y-59976108D01*
X148727470Y-60020971D01*
X148753766Y-60080525D01*
X148834475Y-60161234D01*
X148938891Y-60207338D01*
X148964421Y-60210300D01*
X149507423Y-60210299D01*
X149562211Y-60226529D01*
X149599324Y-60269981D01*
X149606783Y-60326636D01*
X149582182Y-60378213D01*
X149533459Y-60408071D01*
X149437365Y-60433819D01*
X149242146Y-60524852D01*
X149065707Y-60648395D01*
X148913395Y-60800707D01*
X148789852Y-60977146D01*
X148698819Y-61172366D01*
X148643070Y-61380423D01*
X148640965Y-61404500D01*
X147320500Y-61404500D01*
X147320500Y-56394580D01*
X178549700Y-56394580D01*
X178552661Y-56420108D01*
X178578408Y-56478419D01*
X178598766Y-56524525D01*
X178679475Y-56605234D01*
X178783891Y-56651338D01*
X178809421Y-56654300D01*
X180600578Y-56654299D01*
X180600580Y-56654299D01*
X180617598Y-56652325D01*
X180626109Y-56651338D01*
X180730525Y-56605234D01*
X180811234Y-56524525D01*
X180857338Y-56420109D01*
X180860300Y-56394579D01*
X180860299Y-54603422D01*
X180857338Y-54577891D01*
X180811234Y-54473475D01*
X180730525Y-54392766D01*
X180626109Y-54346662D01*
X180600579Y-54343700D01*
X180600577Y-54343700D01*
X178809419Y-54343700D01*
X178783891Y-54346661D01*
X178679475Y-54392766D01*
X178598766Y-54473475D01*
X178552662Y-54577890D01*
X178549700Y-54603422D01*
X178549700Y-56394580D01*
X147320500Y-56394580D01*
X147320500Y-53440600D01*
X147333978Y-53390300D01*
X147370800Y-53353478D01*
X147421100Y-53340000D01*
X149840626Y-53340000D01*
X149877987Y-53347194D01*
G37*
%TD.AperFunction*%
%TD*%
M02*
