M48
; DRILL file {KiCad 7.0.1-0} date 2023 November 23, Thursday 13:32:57
; FORMAT={-:-/ absolute / metric / decimal}
; #@! TF.CreationDate,2023-11-23T13:32:57-05:00
; #@! TF.GenerationSoftware,Kicad,Pcbnew,7.0.1-0
; #@! TF.FileFunction,Plated,1,2,PTH
FMAT,2
METRIC
; #@! TA.AperFunction,Plated,PTH,ViaDrill
T1C0.254
; #@! TA.AperFunction,Plated,PTH,ComponentDrill
T2C1.000
; #@! TA.AperFunction,Plated,PTH,ComponentDrill
T3C1.140
%
G90
G05
T1
X159.131Y-88.9
X165.075Y-78.27
X165.659Y-78.854
X166.242Y-79.438
X166.826Y-80.022
X170.688Y-88.9
T2
X149.86Y-59.055
X149.86Y-61.595
X149.86Y-64.135
X149.86Y-66.675
X149.86Y-69.215
X149.86Y-71.755
X149.86Y-74.295
X149.86Y-76.835
X149.86Y-79.375
X149.86Y-81.915
X149.86Y-84.455
X149.86Y-86.995
X149.86Y-89.535
X149.86Y-92.075
X158.115Y-94.996
X160.655Y-94.996
X163.195Y-94.996
X165.735Y-94.996
X168.275Y-94.996
X170.815Y-94.996
X179.705Y-55.499
X179.705Y-59.182
X179.705Y-62.865
X179.705Y-65.405
X179.705Y-69.088
X179.705Y-71.628
X179.705Y-74.168
X179.705Y-76.708
X179.705Y-79.248
X179.705Y-81.788
X179.705Y-84.328
X179.705Y-86.868
X179.705Y-89.408
X179.705Y-91.948
X179.705Y-95.631
T3
X156.845Y-59.055
X156.845Y-61.595
X156.845Y-64.135
X156.845Y-66.675
X156.845Y-69.215
X156.845Y-71.755
X156.845Y-74.295
X156.845Y-76.835
X156.845Y-79.375
X156.845Y-81.915
X156.845Y-84.455
X156.845Y-86.995
X156.845Y-89.535
X156.845Y-92.075
X159.385Y-61.595
X159.385Y-84.455
X159.385Y-86.995
X159.385Y-92.075
X161.925Y-84.455
X161.925Y-86.995
X161.925Y-92.075
X164.465Y-84.455
X164.465Y-86.995
X164.465Y-92.075
X167.005Y-84.455
X167.005Y-86.995
X167.005Y-92.075
X169.545Y-84.455
X169.545Y-86.995
X169.545Y-92.075
X172.085Y-59.055
X172.085Y-61.595
X172.085Y-64.135
X172.085Y-66.675
X172.085Y-69.215
X172.085Y-71.755
X172.085Y-74.295
X172.085Y-76.835
X172.085Y-79.375
X172.085Y-81.915
X172.085Y-84.455
X172.085Y-86.995
X172.085Y-89.535
X172.085Y-92.075
T0
M30
