%TF.GenerationSoftware,KiCad,Pcbnew,7.0.1-0*%
%TF.CreationDate,2023-11-23T13:32:48-05:00*%
%TF.ProjectId,OBDBajaUC,4f424442-616a-4615-9543-2e6b69636164,rev?*%
%TF.SameCoordinates,Original*%
%TF.FileFunction,Legend,Bot*%
%TF.FilePolarity,Positive*%
%FSLAX46Y46*%
G04 Gerber Fmt 4.6, Leading zero omitted, Abs format (unit mm)*
G04 Created by KiCad (PCBNEW 7.0.1-0) date 2023-11-23 13:32:48*
%MOMM*%
%LPD*%
G01*
G04 APERTURE LIST*
%ADD10C,0.127000*%
%ADD11C,0.150000*%
%ADD12C,0.100000*%
%ADD13C,3.200000*%
%ADD14R,1.700000X1.700000*%
%ADD15O,1.700000X1.700000*%
%ADD16C,1.800000*%
G04 APERTURE END LIST*
D10*
X182021269Y-88730666D02*
X182656269Y-88730666D01*
X182656269Y-88730666D02*
X182783269Y-88688333D01*
X182783269Y-88688333D02*
X182867936Y-88603666D01*
X182867936Y-88603666D02*
X182910269Y-88476666D01*
X182910269Y-88476666D02*
X182910269Y-88392000D01*
X182910269Y-89577333D02*
X182910269Y-89153999D01*
X182910269Y-89153999D02*
X182021269Y-89153999D01*
X182825602Y-90381666D02*
X182867936Y-90339333D01*
X182867936Y-90339333D02*
X182910269Y-90212333D01*
X182910269Y-90212333D02*
X182910269Y-90127666D01*
X182910269Y-90127666D02*
X182867936Y-90000666D01*
X182867936Y-90000666D02*
X182783269Y-89916000D01*
X182783269Y-89916000D02*
X182698602Y-89873666D01*
X182698602Y-89873666D02*
X182529269Y-89831333D01*
X182529269Y-89831333D02*
X182402269Y-89831333D01*
X182402269Y-89831333D02*
X182232936Y-89873666D01*
X182232936Y-89873666D02*
X182148269Y-89916000D01*
X182148269Y-89916000D02*
X182063602Y-90000666D01*
X182063602Y-90000666D02*
X182021269Y-90127666D01*
X182021269Y-90127666D02*
X182021269Y-90212333D01*
X182021269Y-90212333D02*
X182063602Y-90339333D01*
X182063602Y-90339333D02*
X182105936Y-90381666D01*
X182021269Y-91016666D02*
X182656269Y-91016666D01*
X182656269Y-91016666D02*
X182783269Y-90974333D01*
X182783269Y-90974333D02*
X182867936Y-90889666D01*
X182867936Y-90889666D02*
X182910269Y-90762666D01*
X182910269Y-90762666D02*
X182910269Y-90678000D01*
X182910269Y-91863333D02*
X182910269Y-91439999D01*
X182910269Y-91439999D02*
X182021269Y-91439999D01*
X182825602Y-92667666D02*
X182867936Y-92625333D01*
X182867936Y-92625333D02*
X182910269Y-92498333D01*
X182910269Y-92498333D02*
X182910269Y-92413666D01*
X182910269Y-92413666D02*
X182867936Y-92286666D01*
X182867936Y-92286666D02*
X182783269Y-92202000D01*
X182783269Y-92202000D02*
X182698602Y-92159666D01*
X182698602Y-92159666D02*
X182529269Y-92117333D01*
X182529269Y-92117333D02*
X182402269Y-92117333D01*
X182402269Y-92117333D02*
X182232936Y-92159666D01*
X182232936Y-92159666D02*
X182148269Y-92202000D01*
X182148269Y-92202000D02*
X182063602Y-92286666D01*
X182063602Y-92286666D02*
X182021269Y-92413666D01*
X182021269Y-92413666D02*
X182021269Y-92498333D01*
X182021269Y-92498333D02*
X182063602Y-92625333D01*
X182063602Y-92625333D02*
X182105936Y-92667666D01*
X182021269Y-93302666D02*
X182656269Y-93302666D01*
X182656269Y-93302666D02*
X182783269Y-93260333D01*
X182783269Y-93260333D02*
X182867936Y-93175666D01*
X182867936Y-93175666D02*
X182910269Y-93048666D01*
X182910269Y-93048666D02*
X182910269Y-92964000D01*
X182910269Y-94149333D02*
X182910269Y-93725999D01*
X182910269Y-93725999D02*
X182021269Y-93725999D01*
X182825602Y-94953666D02*
X182867936Y-94911333D01*
X182867936Y-94911333D02*
X182910269Y-94784333D01*
X182910269Y-94784333D02*
X182910269Y-94699666D01*
X182910269Y-94699666D02*
X182867936Y-94572666D01*
X182867936Y-94572666D02*
X182783269Y-94488000D01*
X182783269Y-94488000D02*
X182698602Y-94445666D01*
X182698602Y-94445666D02*
X182529269Y-94403333D01*
X182529269Y-94403333D02*
X182402269Y-94403333D01*
X182402269Y-94403333D02*
X182232936Y-94445666D01*
X182232936Y-94445666D02*
X182148269Y-94488000D01*
X182148269Y-94488000D02*
X182063602Y-94572666D01*
X182063602Y-94572666D02*
X182021269Y-94699666D01*
X182021269Y-94699666D02*
X182021269Y-94784333D01*
X182021269Y-94784333D02*
X182063602Y-94911333D01*
X182063602Y-94911333D02*
X182105936Y-94953666D01*
X182021269Y-95588666D02*
X182656269Y-95588666D01*
X182656269Y-95588666D02*
X182783269Y-95546333D01*
X182783269Y-95546333D02*
X182867936Y-95461666D01*
X182867936Y-95461666D02*
X182910269Y-95334666D01*
X182910269Y-95334666D02*
X182910269Y-95250000D01*
X182910269Y-96435333D02*
X182910269Y-96011999D01*
X182910269Y-96011999D02*
X182021269Y-96011999D01*
X182825602Y-97239666D02*
X182867936Y-97197333D01*
X182867936Y-97197333D02*
X182910269Y-97070333D01*
X182910269Y-97070333D02*
X182910269Y-96985666D01*
X182910269Y-96985666D02*
X182867936Y-96858666D01*
X182867936Y-96858666D02*
X182783269Y-96774000D01*
X182783269Y-96774000D02*
X182698602Y-96731666D01*
X182698602Y-96731666D02*
X182529269Y-96689333D01*
X182529269Y-96689333D02*
X182402269Y-96689333D01*
X182402269Y-96689333D02*
X182232936Y-96731666D01*
X182232936Y-96731666D02*
X182148269Y-96774000D01*
X182148269Y-96774000D02*
X182063602Y-96858666D01*
X182063602Y-96858666D02*
X182021269Y-96985666D01*
X182021269Y-96985666D02*
X182021269Y-97070333D01*
X182021269Y-97070333D02*
X182063602Y-97197333D01*
X182063602Y-97197333D02*
X182105936Y-97239666D01*
D11*
%TO.C,U1*%
X172846904Y-55977619D02*
X172846904Y-56787142D01*
X172846904Y-56787142D02*
X172799285Y-56882380D01*
X172799285Y-56882380D02*
X172751666Y-56930000D01*
X172751666Y-56930000D02*
X172656428Y-56977619D01*
X172656428Y-56977619D02*
X172465952Y-56977619D01*
X172465952Y-56977619D02*
X172370714Y-56930000D01*
X172370714Y-56930000D02*
X172323095Y-56882380D01*
X172323095Y-56882380D02*
X172275476Y-56787142D01*
X172275476Y-56787142D02*
X172275476Y-55977619D01*
X171275476Y-56977619D02*
X171846904Y-56977619D01*
X171561190Y-56977619D02*
X171561190Y-55977619D01*
X171561190Y-55977619D02*
X171656428Y-56120476D01*
X171656428Y-56120476D02*
X171751666Y-56215714D01*
X171751666Y-56215714D02*
X171846904Y-56263333D01*
X165865000Y-77666833D02*
X165865000Y-76966833D01*
X165865000Y-76966833D02*
X165698333Y-76966833D01*
X165698333Y-76966833D02*
X165598333Y-77000166D01*
X165598333Y-77000166D02*
X165531667Y-77066833D01*
X165531667Y-77066833D02*
X165498333Y-77133500D01*
X165498333Y-77133500D02*
X165465000Y-77266833D01*
X165465000Y-77266833D02*
X165465000Y-77366833D01*
X165465000Y-77366833D02*
X165498333Y-77500166D01*
X165498333Y-77500166D02*
X165531667Y-77566833D01*
X165531667Y-77566833D02*
X165598333Y-77633500D01*
X165598333Y-77633500D02*
X165698333Y-77666833D01*
X165698333Y-77666833D02*
X165865000Y-77666833D01*
X165265000Y-76966833D02*
X165031667Y-77666833D01*
X165031667Y-77666833D02*
X164798333Y-76966833D01*
X164231667Y-77666833D02*
X164565000Y-77666833D01*
X164565000Y-77666833D02*
X164565000Y-76966833D01*
X163698333Y-76966833D02*
X163831666Y-76966833D01*
X163831666Y-76966833D02*
X163898333Y-77000166D01*
X163898333Y-77000166D02*
X163931666Y-77033500D01*
X163931666Y-77033500D02*
X163998333Y-77133500D01*
X163998333Y-77133500D02*
X164031666Y-77266833D01*
X164031666Y-77266833D02*
X164031666Y-77533500D01*
X164031666Y-77533500D02*
X163998333Y-77600166D01*
X163998333Y-77600166D02*
X163965000Y-77633500D01*
X163965000Y-77633500D02*
X163898333Y-77666833D01*
X163898333Y-77666833D02*
X163765000Y-77666833D01*
X163765000Y-77666833D02*
X163698333Y-77633500D01*
X163698333Y-77633500D02*
X163665000Y-77600166D01*
X163665000Y-77600166D02*
X163631666Y-77533500D01*
X163631666Y-77533500D02*
X163631666Y-77366833D01*
X163631666Y-77366833D02*
X163665000Y-77300166D01*
X163665000Y-77300166D02*
X163698333Y-77266833D01*
X163698333Y-77266833D02*
X163765000Y-77233500D01*
X163765000Y-77233500D02*
X163898333Y-77233500D01*
X163898333Y-77233500D02*
X163965000Y-77266833D01*
X163965000Y-77266833D02*
X163998333Y-77300166D01*
X163998333Y-77300166D02*
X164031666Y-77366833D01*
X163364999Y-77466833D02*
X163031666Y-77466833D01*
X163431666Y-77666833D02*
X163198333Y-76966833D01*
X163198333Y-76966833D02*
X162964999Y-77666833D01*
X167548333Y-76142833D02*
X167548333Y-75442833D01*
X167548333Y-75442833D02*
X167315000Y-75942833D01*
X167315000Y-75942833D02*
X167081666Y-75442833D01*
X167081666Y-75442833D02*
X167081666Y-76142833D01*
X166748333Y-76142833D02*
X166748333Y-75442833D01*
X166415000Y-76142833D02*
X166415000Y-75442833D01*
X166415000Y-75442833D02*
X166181667Y-75942833D01*
X166181667Y-75942833D02*
X165948333Y-75442833D01*
X165948333Y-75442833D02*
X165948333Y-76142833D01*
X165681667Y-75442833D02*
X165215000Y-76142833D01*
X165215000Y-75442833D02*
X165681667Y-76142833D01*
X164548333Y-76142833D02*
X164781666Y-75809500D01*
X164948333Y-76142833D02*
X164948333Y-75442833D01*
X164948333Y-75442833D02*
X164681666Y-75442833D01*
X164681666Y-75442833D02*
X164615000Y-75476166D01*
X164615000Y-75476166D02*
X164581666Y-75509500D01*
X164581666Y-75509500D02*
X164548333Y-75576166D01*
X164548333Y-75576166D02*
X164548333Y-75676166D01*
X164548333Y-75676166D02*
X164581666Y-75742833D01*
X164581666Y-75742833D02*
X164615000Y-75776166D01*
X164615000Y-75776166D02*
X164681666Y-75809500D01*
X164681666Y-75809500D02*
X164948333Y-75809500D01*
X164348333Y-75442833D02*
X163948333Y-75442833D01*
X164148333Y-76142833D02*
X164148333Y-75442833D01*
X163348333Y-76142833D02*
X163748333Y-76142833D01*
X163548333Y-76142833D02*
X163548333Y-75442833D01*
X163548333Y-75442833D02*
X163615000Y-75542833D01*
X163615000Y-75542833D02*
X163681667Y-75609500D01*
X163681667Y-75609500D02*
X163748333Y-75642833D01*
X162915000Y-75442833D02*
X162848333Y-75442833D01*
X162848333Y-75442833D02*
X162781666Y-75476166D01*
X162781666Y-75476166D02*
X162748333Y-75509500D01*
X162748333Y-75509500D02*
X162715000Y-75576166D01*
X162715000Y-75576166D02*
X162681666Y-75709500D01*
X162681666Y-75709500D02*
X162681666Y-75876166D01*
X162681666Y-75876166D02*
X162715000Y-76009500D01*
X162715000Y-76009500D02*
X162748333Y-76076166D01*
X162748333Y-76076166D02*
X162781666Y-76109500D01*
X162781666Y-76109500D02*
X162848333Y-76142833D01*
X162848333Y-76142833D02*
X162915000Y-76142833D01*
X162915000Y-76142833D02*
X162981666Y-76109500D01*
X162981666Y-76109500D02*
X163015000Y-76076166D01*
X163015000Y-76076166D02*
X163048333Y-76009500D01*
X163048333Y-76009500D02*
X163081666Y-75876166D01*
X163081666Y-75876166D02*
X163081666Y-75709500D01*
X163081666Y-75709500D02*
X163048333Y-75576166D01*
X163048333Y-75576166D02*
X163015000Y-75509500D01*
X163015000Y-75509500D02*
X162981666Y-75476166D01*
X162981666Y-75476166D02*
X162915000Y-75442833D01*
X162081666Y-75442833D02*
X162214999Y-75442833D01*
X162214999Y-75442833D02*
X162281666Y-75476166D01*
X162281666Y-75476166D02*
X162314999Y-75509500D01*
X162314999Y-75509500D02*
X162381666Y-75609500D01*
X162381666Y-75609500D02*
X162414999Y-75742833D01*
X162414999Y-75742833D02*
X162414999Y-76009500D01*
X162414999Y-76009500D02*
X162381666Y-76076166D01*
X162381666Y-76076166D02*
X162348333Y-76109500D01*
X162348333Y-76109500D02*
X162281666Y-76142833D01*
X162281666Y-76142833D02*
X162148333Y-76142833D01*
X162148333Y-76142833D02*
X162081666Y-76109500D01*
X162081666Y-76109500D02*
X162048333Y-76076166D01*
X162048333Y-76076166D02*
X162014999Y-76009500D01*
X162014999Y-76009500D02*
X162014999Y-75842833D01*
X162014999Y-75842833D02*
X162048333Y-75776166D01*
X162048333Y-75776166D02*
X162081666Y-75742833D01*
X162081666Y-75742833D02*
X162148333Y-75709500D01*
X162148333Y-75709500D02*
X162281666Y-75709500D01*
X162281666Y-75709500D02*
X162348333Y-75742833D01*
X162348333Y-75742833D02*
X162381666Y-75776166D01*
X162381666Y-75776166D02*
X162414999Y-75842833D01*
X161748332Y-75509500D02*
X161714999Y-75476166D01*
X161714999Y-75476166D02*
X161648332Y-75442833D01*
X161648332Y-75442833D02*
X161481666Y-75442833D01*
X161481666Y-75442833D02*
X161414999Y-75476166D01*
X161414999Y-75476166D02*
X161381666Y-75509500D01*
X161381666Y-75509500D02*
X161348332Y-75576166D01*
X161348332Y-75576166D02*
X161348332Y-75642833D01*
X161348332Y-75642833D02*
X161381666Y-75742833D01*
X161381666Y-75742833D02*
X161781666Y-76142833D01*
X161781666Y-76142833D02*
X161348332Y-76142833D01*
X168275000Y-56515000D02*
X160655000Y-56515000D01*
X160655000Y-56515000D02*
X160655000Y-57785000D01*
X173355000Y-57785000D02*
X155575000Y-57785000D01*
X168275000Y-57785000D02*
X168275000Y-56515000D01*
X155575000Y-57785000D02*
X155575000Y-93345000D01*
X168275000Y-62865000D02*
X168275000Y-57785000D01*
X168275000Y-62865000D02*
X160655000Y-62865000D01*
X160655000Y-62865000D02*
X160655000Y-57785000D01*
X159385000Y-69850000D02*
X169545000Y-69850000D01*
X169545000Y-80010000D02*
X169545000Y-69850000D01*
X169545000Y-80010000D02*
X159385000Y-80010000D01*
X159385000Y-80010000D02*
X159385000Y-69850000D01*
X162560000Y-80645000D02*
X159385000Y-80645000D01*
X159385000Y-80645000D02*
X159385000Y-83185000D01*
X162560000Y-83185000D02*
X162560000Y-80645000D01*
X159385000Y-83185000D02*
X162560000Y-83185000D01*
X165735000Y-85725000D02*
X163195000Y-85725000D01*
X163195000Y-85725000D02*
X163195000Y-90297000D01*
X165735000Y-90297000D02*
X165735000Y-85725000D01*
X163195000Y-90297000D02*
X165735000Y-90297000D01*
X173355000Y-93345000D02*
X173355000Y-57785000D01*
X155575000Y-93345000D02*
X173355000Y-93345000D01*
D12*
X164973000Y-71882000D02*
X164719000Y-72136000D01*
X164338000Y-71882000D01*
X164592000Y-71628000D01*
X164973000Y-71882000D01*
G36*
X164973000Y-71882000D02*
G01*
X164719000Y-72136000D01*
X164338000Y-71882000D01*
X164592000Y-71628000D01*
X164973000Y-71882000D01*
G37*
X164592000Y-72263000D02*
X164338000Y-72517000D01*
X163957000Y-72263000D01*
X164211000Y-72009000D01*
X164592000Y-72263000D01*
G36*
X164592000Y-72263000D02*
G01*
X164338000Y-72517000D01*
X163957000Y-72263000D01*
X164211000Y-72009000D01*
X164592000Y-72263000D01*
G37*
X164211000Y-72644000D02*
X163957000Y-72898000D01*
X163576000Y-72644000D01*
X163830000Y-72390000D01*
X164211000Y-72644000D01*
G36*
X164211000Y-72644000D02*
G01*
X163957000Y-72898000D01*
X163576000Y-72644000D01*
X163830000Y-72390000D01*
X164211000Y-72644000D01*
G37*
X164719000Y-73025000D02*
X164465000Y-73279000D01*
X164084000Y-73025000D01*
X164338000Y-72771000D01*
X164719000Y-73025000D01*
G36*
X164719000Y-73025000D02*
G01*
X164465000Y-73279000D01*
X164084000Y-73025000D01*
X164338000Y-72771000D01*
X164719000Y-73025000D01*
G37*
X165227000Y-73406000D02*
X164973000Y-73660000D01*
X164592000Y-73406000D01*
X164846000Y-73152000D01*
X165227000Y-73406000D01*
G36*
X165227000Y-73406000D02*
G01*
X164973000Y-73660000D01*
X164592000Y-73406000D01*
X164846000Y-73152000D01*
X165227000Y-73406000D01*
G37*
X164338000Y-73406000D02*
X164084000Y-73660000D01*
X163703000Y-73406000D01*
X163957000Y-73152000D01*
X164338000Y-73406000D01*
G36*
X164338000Y-73406000D02*
G01*
X164084000Y-73660000D01*
X163703000Y-73406000D01*
X163957000Y-73152000D01*
X164338000Y-73406000D01*
G37*
X164846000Y-73787000D02*
X164592000Y-74041000D01*
X164211000Y-73787000D01*
X164465000Y-73533000D01*
X164846000Y-73787000D01*
G36*
X164846000Y-73787000D02*
G01*
X164592000Y-74041000D01*
X164211000Y-73787000D01*
X164465000Y-73533000D01*
X164846000Y-73787000D01*
G37*
X165354000Y-74168000D02*
X165100000Y-74422000D01*
X164719000Y-74168000D01*
X164973000Y-73914000D01*
X165354000Y-74168000D01*
G36*
X165354000Y-74168000D02*
G01*
X165100000Y-74422000D01*
X164719000Y-74168000D01*
X164973000Y-73914000D01*
X165354000Y-74168000D01*
G37*
%TD*%
%LPC*%
D13*
%TO.C,MH3*%
X179705000Y-50165000D03*
%TD*%
D14*
%TO.C,J1*%
X179705000Y-55499000D03*
%TD*%
%TO.C,J4*%
X179705000Y-95631000D03*
%TD*%
%TO.C,J3*%
X179705000Y-69088000D03*
D15*
X179705000Y-71628000D03*
X179705000Y-74168000D03*
X179705000Y-76708000D03*
X179705000Y-79248000D03*
X179705000Y-81788000D03*
X179705000Y-84328000D03*
X179705000Y-86868000D03*
X179705000Y-89408000D03*
X179705000Y-91948000D03*
%TD*%
D13*
%TO.C,MH4*%
X179705000Y-100965000D03*
%TD*%
D14*
%TO.C,J6*%
X179705000Y-59182000D03*
%TD*%
%TO.C,J7*%
X170815000Y-94996000D03*
D15*
X168275000Y-94996000D03*
X165735000Y-94996000D03*
X163195000Y-94996000D03*
X160655000Y-94996000D03*
X158115000Y-94996000D03*
%TD*%
D14*
%TO.C,J2*%
X179705000Y-62865000D03*
D15*
X179705000Y-65405000D03*
%TD*%
D13*
%TO.C,MH1*%
X151130000Y-50165000D03*
%TD*%
D14*
%TO.C,J5*%
X149860000Y-59055000D03*
D15*
X149860000Y-61595000D03*
X149860000Y-64135000D03*
X149860000Y-66675000D03*
X149860000Y-69215000D03*
X149860000Y-71755000D03*
X149860000Y-74295000D03*
X149860000Y-76835000D03*
X149860000Y-79375000D03*
X149860000Y-81915000D03*
X149860000Y-84455000D03*
X149860000Y-86995000D03*
X149860000Y-89535000D03*
X149860000Y-92075000D03*
%TD*%
D13*
%TO.C,MH2*%
X151130000Y-100965000D03*
%TD*%
D16*
%TO.C,U1*%
X172085000Y-59055000D03*
X172085000Y-61595000D03*
X172085000Y-64135000D03*
X172085000Y-66675000D03*
X172085000Y-69215000D03*
X172085000Y-71755000D03*
X172085000Y-74295000D03*
X172085000Y-76835000D03*
X172085000Y-79375000D03*
X172085000Y-81915000D03*
X172085000Y-84455000D03*
X172085000Y-86995000D03*
X172085000Y-89535000D03*
X172085000Y-92075000D03*
X169545000Y-92075000D03*
X167005000Y-92075000D03*
X164465000Y-92075000D03*
X161925000Y-92075000D03*
X159385000Y-92075000D03*
X156845000Y-92075000D03*
X156845000Y-89535000D03*
X156845000Y-86995000D03*
X156845000Y-84455000D03*
X156845000Y-81915000D03*
X156845000Y-79375000D03*
X156845000Y-76835000D03*
X156845000Y-74295000D03*
X156845000Y-71755000D03*
X156845000Y-69215000D03*
X156845000Y-66675000D03*
X156845000Y-64135000D03*
X156845000Y-61595000D03*
X156845000Y-59055000D03*
X159385000Y-61595000D03*
X159385000Y-86995000D03*
X159385000Y-84455000D03*
X161925000Y-86995000D03*
X161925000Y-84455000D03*
X164465000Y-86995000D03*
X164465000Y-84455000D03*
X167005000Y-86995000D03*
X167005000Y-84455000D03*
X169545000Y-86995000D03*
X169545000Y-84455000D03*
%TD*%
M02*
