%TF.GenerationSoftware,KiCad,Pcbnew,7.0.1-0*%
%TF.CreationDate,2023-11-23T13:32:48-05:00*%
%TF.ProjectId,OBDBajaUC,4f424442-616a-4615-9543-2e6b69636164,rev?*%
%TF.SameCoordinates,Original*%
%TF.FileFunction,Copper,L1,Top*%
%TF.FilePolarity,Positive*%
%FSLAX46Y46*%
G04 Gerber Fmt 4.6, Leading zero omitted, Abs format (unit mm)*
G04 Created by KiCad (PCBNEW 7.0.1-0) date 2023-11-23 13:32:48*
%MOMM*%
%LPD*%
G01*
G04 APERTURE LIST*
G04 Aperture macros list*
%AMRoundRect*
0 Rectangle with rounded corners*
0 $1 Rounding radius*
0 $2 $3 $4 $5 $6 $7 $8 $9 X,Y pos of 4 corners*
0 Add a 4 corners polygon primitive as box body*
4,1,4,$2,$3,$4,$5,$6,$7,$8,$9,$2,$3,0*
0 Add four circle primitives for the rounded corners*
1,1,$1+$1,$2,$3*
1,1,$1+$1,$4,$5*
1,1,$1+$1,$6,$7*
1,1,$1+$1,$8,$9*
0 Add four rect primitives between the rounded corners*
20,1,$1+$1,$2,$3,$4,$5,0*
20,1,$1+$1,$4,$5,$6,$7,0*
20,1,$1+$1,$6,$7,$8,$9,0*
20,1,$1+$1,$8,$9,$2,$3,0*%
G04 Aperture macros list end*
%TA.AperFunction,ComponentPad*%
%ADD10R,1.700000X1.700000*%
%TD*%
%TA.AperFunction,ComponentPad*%
%ADD11O,1.700000X1.700000*%
%TD*%
%TA.AperFunction,SMDPad,CuDef*%
%ADD12RoundRect,0.250000X0.475000X-0.337500X0.475000X0.337500X-0.475000X0.337500X-0.475000X-0.337500X0*%
%TD*%
%TA.AperFunction,SMDPad,CuDef*%
%ADD13RoundRect,0.250000X-0.450000X0.350000X-0.450000X-0.350000X0.450000X-0.350000X0.450000X0.350000X0*%
%TD*%
%TA.AperFunction,ComponentPad*%
%ADD14C,1.800000*%
%TD*%
%TA.AperFunction,ViaPad*%
%ADD15C,0.508000*%
%TD*%
%TA.AperFunction,Conductor*%
%ADD16C,0.381000*%
%TD*%
%TA.AperFunction,Conductor*%
%ADD17C,0.254000*%
%TD*%
G04 APERTURE END LIST*
D10*
%TO.P,J1,1,Pin_1*%
%TO.N,+5V*%
X179705000Y-55499000D03*
%TD*%
%TO.P,J4,1,Pin_1*%
%TO.N,GND*%
X179705000Y-95631000D03*
%TD*%
%TO.P,J3,1,Pin_1*%
%TO.N,/D3*%
X179705000Y-69088000D03*
D11*
%TO.P,J3,2,Pin_2*%
%TO.N,/D4*%
X179705000Y-71628000D03*
%TO.P,J3,3,Pin_3*%
%TO.N,/D5*%
X179705000Y-74168000D03*
%TO.P,J3,4,Pin_4*%
%TO.N,/D6*%
X179705000Y-76708000D03*
%TO.P,J3,5,Pin_5*%
%TO.N,/D7*%
X179705000Y-79248000D03*
%TO.P,J3,6,Pin_6*%
%TO.N,/A4*%
X179705000Y-81788000D03*
%TO.P,J3,7,Pin_7*%
%TO.N,/A3*%
X179705000Y-84328000D03*
%TO.P,J3,8,Pin_8*%
%TO.N,/A2*%
X179705000Y-86868000D03*
%TO.P,J3,9,Pin_9*%
%TO.N,/A1*%
X179705000Y-89408000D03*
%TO.P,J3,10,Pin_10*%
%TO.N,/A0*%
X179705000Y-91948000D03*
%TD*%
D10*
%TO.P,J6,1,Pin_1*%
%TO.N,+3.3V*%
X179705000Y-59182000D03*
%TD*%
%TO.P,J7,1,Pin_1*%
%TO.N,/UP*%
X170815000Y-94996000D03*
D11*
%TO.P,J7,2,Pin_2*%
%TO.N,/DN*%
X168275000Y-94996000D03*
%TO.P,J7,3,Pin_3*%
%TO.N,/L*%
X165735000Y-94996000D03*
%TO.P,J7,4,Pin_4*%
%TO.N,/R*%
X163195000Y-94996000D03*
%TO.P,J7,5,Pin_5*%
%TO.N,/SEL*%
X160655000Y-94996000D03*
%TO.P,J7,6,Pin_6*%
%TO.N,GND*%
X158115000Y-94996000D03*
%TD*%
D10*
%TO.P,J2,1,Pin_1*%
%TO.N,Net-(J2-Pin_1)*%
X179705000Y-62865000D03*
D11*
%TO.P,J2,2,Pin_2*%
%TO.N,Net-(J2-Pin_2)*%
X179705000Y-65405000D03*
%TD*%
D10*
%TO.P,J5,1,Pin_1*%
%TO.N,+5V*%
X149860000Y-59055000D03*
D11*
%TO.P,J5,2,Pin_2*%
%TO.N,GND*%
X149860000Y-61595000D03*
%TO.P,J5,3,Pin_3*%
%TO.N,/CS*%
X149860000Y-64135000D03*
%TO.P,J5,4,Pin_4*%
%TO.N,+3.3V*%
X149860000Y-66675000D03*
%TO.P,J5,5,Pin_5*%
%TO.N,/DC*%
X149860000Y-69215000D03*
%TO.P,J5,6,Pin_6*%
%TO.N,/SDI*%
X149860000Y-71755000D03*
%TO.P,J5,7,Pin_7*%
%TO.N,/SCK*%
X149860000Y-74295000D03*
%TO.P,J5,8,Pin_8*%
%TO.N,Net-(J5-Pin_8)*%
X149860000Y-76835000D03*
%TO.P,J5,9,Pin_9*%
%TO.N,/SDO*%
X149860000Y-79375000D03*
%TO.P,J5,10,Pin_10*%
%TO.N,/SCK*%
X149860000Y-81915000D03*
%TO.P,J5,11,Pin_11*%
%TO.N,/T_CS*%
X149860000Y-84455000D03*
%TO.P,J5,12,Pin_12*%
%TO.N,/SDI*%
X149860000Y-86995000D03*
%TO.P,J5,13,Pin_13*%
%TO.N,/SDO*%
X149860000Y-89535000D03*
%TO.P,J5,14,Pin_14*%
%TO.N,/T_IRQ*%
X149860000Y-92075000D03*
%TD*%
D12*
%TO.P,C1,1*%
%TO.N,GND*%
X153670000Y-61362500D03*
%TO.P,C1,2*%
%TO.N,+5V*%
X153670000Y-59287500D03*
%TD*%
D13*
%TO.P,R1,1*%
%TO.N,+5V*%
X153670000Y-74835000D03*
%TO.P,R1,2*%
%TO.N,Net-(J5-Pin_8)*%
X153670000Y-76835000D03*
%TD*%
D14*
%TO.P,U1,1,GND*%
%TO.N,GND*%
X172085000Y-59055000D03*
%TO.P,U1,2,0_RX1_CRX2_CS1*%
%TO.N,Net-(J2-Pin_1)*%
X172085000Y-61595000D03*
%TO.P,U1,3,1_TX1_CTX2_MISO1*%
%TO.N,Net-(J2-Pin_2)*%
X172085000Y-64135000D03*
%TO.P,U1,4,2_OUT2*%
%TO.N,/T_IRQ*%
X172085000Y-66675000D03*
%TO.P,U1,5,3_LRCLK2*%
%TO.N,/D3*%
X172085000Y-69215000D03*
%TO.P,U1,6,4_BCLK2*%
%TO.N,/D4*%
X172085000Y-71755000D03*
%TO.P,U1,7,5_IN2*%
%TO.N,/D5*%
X172085000Y-74295000D03*
%TO.P,U1,8,6_OUT1D*%
%TO.N,/D6*%
X172085000Y-76835000D03*
%TO.P,U1,9,7_RX2_OUT1A*%
%TO.N,/D7*%
X172085000Y-79375000D03*
%TO.P,U1,10,8_TX2_IN1*%
%TO.N,/T_CS*%
X172085000Y-81915000D03*
%TO.P,U1,11,9_OUT1C*%
%TO.N,/DC*%
X172085000Y-84455000D03*
%TO.P,U1,12,10_CS_MQSR*%
%TO.N,/CS*%
X172085000Y-86995000D03*
%TO.P,U1,13,11_MOSI_CTX1*%
%TO.N,/SDI*%
X172085000Y-89535000D03*
%TO.P,U1,14,12_MISO_MQSL*%
%TO.N,/SDO*%
X172085000Y-92075000D03*
%TO.P,U1,15,VBAT*%
%TO.N,unconnected-(U1-VBAT-Pad15)*%
X169545000Y-92075000D03*
%TO.P,U1,16,3V3*%
%TO.N,unconnected-(U1-3V3-Pad16)*%
X167005000Y-92075000D03*
%TO.P,U1,17,GND*%
%TO.N,GND*%
X164465000Y-92075000D03*
%TO.P,U1,18,PROGRAM*%
%TO.N,unconnected-(U1-PROGRAM-Pad18)*%
X161925000Y-92075000D03*
%TO.P,U1,19,ON_OFF*%
%TO.N,unconnected-(U1-ON_OFF-Pad19)*%
X159385000Y-92075000D03*
%TO.P,U1,20,13_SCK_CRX1_LED*%
%TO.N,/SCK*%
X156845000Y-92075000D03*
%TO.P,U1,21,14_A0_TX3_SPDIF_OUT*%
%TO.N,/A0*%
X156845000Y-89535000D03*
%TO.P,U1,22,15_A1_RX3_SPDIF_IN*%
%TO.N,/A1*%
X156845000Y-86995000D03*
%TO.P,U1,23,16_A2_RX4_SCL1*%
%TO.N,/A2*%
X156845000Y-84455000D03*
%TO.P,U1,24,17_A3_TX4_SDA1*%
%TO.N,/A3*%
X156845000Y-81915000D03*
%TO.P,U1,25,18_A4_SDA0*%
%TO.N,/A4*%
X156845000Y-79375000D03*
%TO.P,U1,26,19_A5_SCL0*%
%TO.N,/UP*%
X156845000Y-76835000D03*
%TO.P,U1,27,20_A6_TX5_LRCLK1*%
%TO.N,/DN*%
X156845000Y-74295000D03*
%TO.P,U1,28,21_A7_RX5_BCLK1*%
%TO.N,/L*%
X156845000Y-71755000D03*
%TO.P,U1,29,22_A8_CTX1*%
%TO.N,/R*%
X156845000Y-69215000D03*
%TO.P,U1,30,23_A9_CRX1_MCLK1*%
%TO.N,/SEL*%
X156845000Y-66675000D03*
%TO.P,U1,31,3V3*%
%TO.N,+3.3V*%
X156845000Y-64135000D03*
%TO.P,U1,32,GND*%
%TO.N,GND*%
X156845000Y-61595000D03*
%TO.P,U1,33,VIN*%
%TO.N,+5V*%
X156845000Y-59055000D03*
%TO.P,U1,34,VUSB*%
%TO.N,unconnected-(U1-VUSB-Pad34)*%
X159385000Y-61595000D03*
%TO.P,U1,35,24_A10_TX6_SCL2*%
%TO.N,unconnected-(U1-24_A10_TX6_SCL2-Pad35)*%
X159385000Y-86995000D03*
%TO.P,U1,36,25_A11_RX6_SDA2*%
%TO.N,unconnected-(U1-25_A11_RX6_SDA2-Pad36)*%
X159385000Y-84455000D03*
%TO.P,U1,37,26_A12_MOSI1*%
%TO.N,unconnected-(U1-26_A12_MOSI1-Pad37)*%
X161925000Y-86995000D03*
%TO.P,U1,38,27_A13_SCK1*%
%TO.N,unconnected-(U1-27_A13_SCK1-Pad38)*%
X161925000Y-84455000D03*
%TO.P,U1,39,28_RX7*%
%TO.N,unconnected-(U1-28_RX7-Pad39)*%
X164465000Y-86995000D03*
%TO.P,U1,40,29_TX7*%
%TO.N,unconnected-(U1-29_TX7-Pad40)*%
X164465000Y-84455000D03*
%TO.P,U1,41,30_CRX3*%
%TO.N,unconnected-(U1-30_CRX3-Pad41)*%
X167005000Y-86995000D03*
%TO.P,U1,42,31_CTX3*%
%TO.N,unconnected-(U1-31_CTX3-Pad42)*%
X167005000Y-84455000D03*
%TO.P,U1,43,32_OUT1B*%
%TO.N,unconnected-(U1-32_OUT1B-Pad43)*%
X169545000Y-86995000D03*
%TO.P,U1,44,33_MCLK2*%
%TO.N,unconnected-(U1-33_MCLK2-Pad44)*%
X169545000Y-84455000D03*
%TD*%
D15*
%TO.N,/T_IRQ*%
X159131000Y-88900000D03*
X170688000Y-88900000D03*
%TO.N,/UP*%
X166826023Y-80021500D03*
%TO.N,/DN*%
X166242323Y-79437800D03*
%TO.N,/L*%
X165658623Y-78854100D03*
%TO.N,/R*%
X165074923Y-78270400D03*
%TD*%
D16*
%TO.N,+5V*%
X160020000Y-55880000D02*
X179705000Y-55880000D01*
X153437500Y-59055000D02*
X153670000Y-59287500D01*
X152273000Y-73438000D02*
X153670000Y-74835000D01*
X152273000Y-60684500D02*
X152273000Y-73438000D01*
X149860000Y-59055000D02*
X153437500Y-59055000D01*
X156612500Y-59287500D02*
X156845000Y-59055000D01*
X153670000Y-59287500D02*
X152273000Y-60684500D01*
X153670000Y-59287500D02*
X156612500Y-59287500D01*
X156845000Y-59055000D02*
X160020000Y-55880000D01*
D17*
%TO.N,Net-(J2-Pin_1)*%
X173355000Y-62865000D02*
X179705000Y-62865000D01*
X172085000Y-61595000D02*
X173355000Y-62865000D01*
%TO.N,Net-(J2-Pin_2)*%
X172085000Y-64135000D02*
X173355000Y-65405000D01*
X173355000Y-65405000D02*
X179705000Y-65405000D01*
D16*
%TO.N,+3.3V*%
X166370000Y-57150000D02*
X159385000Y-64135000D01*
X177673000Y-57150000D02*
X166370000Y-57150000D01*
X179705000Y-59182000D02*
X177673000Y-57150000D01*
X159385000Y-64135000D02*
X156845000Y-64135000D01*
D17*
%TO.N,/SDI*%
X151130000Y-88265000D02*
X157468422Y-88265000D01*
X158738422Y-89535000D02*
X172085000Y-89535000D01*
X157468422Y-88265000D02*
X158738422Y-89535000D01*
X149860000Y-86995000D02*
X151130000Y-88265000D01*
%TO.N,/SDO*%
X170753200Y-90743200D02*
X157376566Y-90743200D01*
X157376566Y-90743200D02*
X157314766Y-90805000D01*
X172085000Y-92075000D02*
X170753200Y-90743200D01*
X157314766Y-90805000D02*
X151130000Y-90805000D01*
X151130000Y-90805000D02*
X149860000Y-89535000D01*
%TO.N,/T_CS*%
X158738422Y-81915000D02*
X172085000Y-81915000D01*
X153630200Y-80684800D02*
X157508222Y-80684800D01*
X157508222Y-80684800D02*
X158738422Y-81915000D01*
X149860000Y-84455000D02*
X153630200Y-80684800D01*
%TO.N,/T_IRQ*%
X159131000Y-88900000D02*
X170688000Y-88900000D01*
%TO.N,/UP*%
X160031500Y-80021500D02*
X166826023Y-80021500D01*
X156845000Y-76835000D02*
X160031500Y-80021500D01*
%TO.N,/DN*%
X161987800Y-79437800D02*
X156845000Y-74295000D01*
X166242323Y-79437800D02*
X161987800Y-79437800D01*
%TO.N,/L*%
X156845000Y-71755000D02*
X163944100Y-78854100D01*
X163944100Y-78854100D02*
X165658623Y-78854100D01*
%TO.N,/R*%
X165074923Y-77444923D02*
X165074923Y-78270400D01*
X156845000Y-69215000D02*
X165074923Y-77444923D01*
%TO.N,/SEL*%
X150169255Y-90715200D02*
X153053055Y-93599000D01*
X155614800Y-78008855D02*
X150348855Y-83274800D01*
X148679800Y-83966145D02*
X148679800Y-90023855D01*
X153053055Y-93599000D02*
X159258000Y-93599000D01*
X149371145Y-83274800D02*
X148679800Y-83966145D01*
X150348855Y-83274800D02*
X149371145Y-83274800D01*
X155614800Y-67905200D02*
X155614800Y-78008855D01*
X159258000Y-93599000D02*
X160655000Y-94996000D01*
X148679800Y-90023855D02*
X149371145Y-90715200D01*
X149371145Y-90715200D02*
X150169255Y-90715200D01*
X156845000Y-66675000D02*
X155614800Y-67905200D01*
%TO.N,/A4*%
X179030200Y-80605200D02*
X179705000Y-81280000D01*
X158075200Y-80605200D02*
X179030200Y-80605200D01*
X156845000Y-79375000D02*
X158075200Y-80605200D01*
%TO.N,/A3*%
X179030200Y-83145200D02*
X179705000Y-83820000D01*
X158075200Y-83145200D02*
X179030200Y-83145200D01*
X156845000Y-81915000D02*
X158075200Y-83145200D01*
%TO.N,/A2*%
X158075200Y-85685200D02*
X179030200Y-85685200D01*
X179030200Y-85685200D02*
X179705000Y-86360000D01*
X156845000Y-84455000D02*
X158075200Y-85685200D01*
%TO.N,/A1*%
X158075200Y-88225200D02*
X179030200Y-88225200D01*
X156845000Y-86995000D02*
X158075200Y-88225200D01*
X179030200Y-88225200D02*
X179705000Y-88900000D01*
%TO.N,/A0*%
X156845000Y-89535000D02*
X157480000Y-90170000D01*
X157480000Y-90170000D02*
X170980234Y-90170000D01*
X170980234Y-90170000D02*
X171615234Y-90805000D01*
X171615234Y-90805000D02*
X179070000Y-90805000D01*
X179070000Y-90805000D02*
X179705000Y-91440000D01*
%TO.N,/D7*%
X179578000Y-79375000D02*
X179705000Y-79248000D01*
X172085000Y-79375000D02*
X179578000Y-79375000D01*
%TO.N,/D6*%
X179578000Y-76835000D02*
X179705000Y-76708000D01*
X172085000Y-76835000D02*
X179578000Y-76835000D01*
%TO.N,/D5*%
X172085000Y-74295000D02*
X179578000Y-74295000D01*
X179578000Y-74295000D02*
X179705000Y-74168000D01*
%TO.N,/D4*%
X179578000Y-71755000D02*
X179705000Y-71628000D01*
X172085000Y-71755000D02*
X179578000Y-71755000D01*
%TO.N,/D3*%
X179578000Y-69215000D02*
X179705000Y-69088000D01*
X172085000Y-69215000D02*
X179578000Y-69215000D01*
D16*
%TO.N,Net-(J5-Pin_8)*%
X153670000Y-76835000D02*
X149860000Y-76835000D01*
%TD*%
%TA.AperFunction,Conductor*%
%TO.N,GND*%
G36*
X149877987Y-53347194D02*
G01*
X150495000Y-53594000D01*
X151765000Y-53594000D01*
X152382012Y-53347194D01*
X152419374Y-53340000D01*
X154918753Y-53340000D01*
X154921547Y-53340553D01*
X154939998Y-53340540D01*
X154940000Y-53340541D01*
X154940001Y-53340540D01*
X154959970Y-53340527D01*
X154960106Y-53340500D01*
X175874894Y-53340500D01*
X175875029Y-53340527D01*
X175894998Y-53340540D01*
X175895000Y-53340541D01*
X175895001Y-53340540D01*
X175913452Y-53340553D01*
X175916247Y-53340000D01*
X178415626Y-53340000D01*
X178452987Y-53347194D01*
X179070000Y-53594000D01*
X180340000Y-53594000D01*
X180957012Y-53347194D01*
X180994374Y-53340000D01*
X183413900Y-53340000D01*
X183464200Y-53353478D01*
X183501022Y-53390300D01*
X183514500Y-53440600D01*
X183514500Y-97689400D01*
X183501022Y-97739700D01*
X183464200Y-97776522D01*
X183413900Y-97790000D01*
X180994374Y-97790000D01*
X180957012Y-97782805D01*
X180340000Y-97536000D01*
X179070000Y-97536000D01*
X178452988Y-97782805D01*
X178415626Y-97790000D01*
X175916313Y-97790000D01*
X175913594Y-97789459D01*
X175875100Y-97789459D01*
X175874894Y-97789500D01*
X154960106Y-97789500D01*
X154959900Y-97789459D01*
X154921406Y-97789459D01*
X154918687Y-97790000D01*
X152419374Y-97790000D01*
X152382012Y-97782805D01*
X151765000Y-97536000D01*
X150495000Y-97536000D01*
X149877988Y-97782805D01*
X149840626Y-97790000D01*
X147421100Y-97790000D01*
X147370800Y-97776522D01*
X147333978Y-97739700D01*
X147320500Y-97689400D01*
X147320500Y-95186500D01*
X156895965Y-95186500D01*
X156898070Y-95210576D01*
X156953819Y-95418633D01*
X157044852Y-95613853D01*
X157168395Y-95790292D01*
X157320707Y-95942604D01*
X157497146Y-96066147D01*
X157692366Y-96157180D01*
X157900423Y-96212929D01*
X157924500Y-96215034D01*
X157924500Y-95186500D01*
X156895965Y-95186500D01*
X147320500Y-95186500D01*
X147320500Y-90040202D01*
X148242923Y-90040202D01*
X148253182Y-90094426D01*
X148253811Y-90098131D01*
X148262620Y-90156571D01*
X148265330Y-90164806D01*
X148292930Y-90217028D01*
X148294625Y-90220384D01*
X148320270Y-90273636D01*
X148325289Y-90280709D01*
X148367069Y-90322489D01*
X148369678Y-90325198D01*
X148409870Y-90368513D01*
X148423724Y-90379144D01*
X149044300Y-90999719D01*
X149051817Y-91008131D01*
X149073785Y-91035679D01*
X149089572Y-91046442D01*
X149126655Y-91093083D01*
X149130847Y-91152521D01*
X149100676Y-91203905D01*
X149002567Y-91293343D01*
X148873533Y-91464211D01*
X148778101Y-91655864D01*
X148719505Y-91861807D01*
X148699751Y-92074999D01*
X148719505Y-92288192D01*
X148778101Y-92494135D01*
X148873533Y-92685788D01*
X149002567Y-92856656D01*
X149160795Y-93000900D01*
X149225510Y-93040969D01*
X149342833Y-93113612D01*
X149542483Y-93190957D01*
X149752946Y-93230300D01*
X149967054Y-93230300D01*
X150177517Y-93190957D01*
X150377167Y-93113612D01*
X150559206Y-93000899D01*
X150717434Y-92856655D01*
X150846464Y-92685792D01*
X150846466Y-92685788D01*
X150941899Y-92494133D01*
X150982528Y-92351338D01*
X151008979Y-92306916D01*
X151054000Y-92281498D01*
X151105699Y-92281797D01*
X151150423Y-92307733D01*
X152726214Y-93883524D01*
X152733731Y-93891936D01*
X152755694Y-93919477D01*
X152801286Y-93950561D01*
X152804355Y-93952738D01*
X152851906Y-93987832D01*
X152859646Y-93991739D01*
X152863365Y-93992886D01*
X152863368Y-93992888D01*
X152916129Y-94009162D01*
X152919651Y-94010321D01*
X152971777Y-94028562D01*
X152971781Y-94028562D01*
X152975459Y-94029849D01*
X152983994Y-94031300D01*
X152987896Y-94031300D01*
X153043073Y-94031300D01*
X153046834Y-94031370D01*
X153102004Y-94033434D01*
X153102006Y-94033433D01*
X153105899Y-94033579D01*
X153123213Y-94031300D01*
X157095933Y-94031300D01*
X157151823Y-94048254D01*
X157188875Y-94093402D01*
X157194600Y-94151526D01*
X157172125Y-94193572D01*
X157173445Y-94194496D01*
X157044852Y-94378146D01*
X156953819Y-94573366D01*
X156898070Y-94781423D01*
X156895965Y-94805500D01*
X158204900Y-94805500D01*
X158255200Y-94818978D01*
X158292022Y-94855800D01*
X158305500Y-94906100D01*
X158305500Y-96215034D01*
X158329576Y-96212929D01*
X158537633Y-96157180D01*
X158732853Y-96066147D01*
X158909292Y-95942604D01*
X159061604Y-95790292D01*
X159185147Y-95613853D01*
X159276180Y-95418633D01*
X159326406Y-95231187D01*
X159352224Y-95186309D01*
X159396942Y-95160214D01*
X159448716Y-95159815D01*
X159493831Y-95185218D01*
X159520338Y-95229693D01*
X159573101Y-95415135D01*
X159668533Y-95606788D01*
X159797567Y-95777656D01*
X159955795Y-95921900D01*
X159989234Y-95942604D01*
X160137833Y-96034612D01*
X160337483Y-96111957D01*
X160547946Y-96151300D01*
X160762054Y-96151300D01*
X160972517Y-96111957D01*
X161172167Y-96034612D01*
X161354206Y-95921899D01*
X161512434Y-95777655D01*
X161641464Y-95606792D01*
X161641466Y-95606788D01*
X161736898Y-95415135D01*
X161736898Y-95415132D01*
X161736900Y-95415130D01*
X161795494Y-95209195D01*
X161815249Y-94996000D01*
X162034751Y-94996000D01*
X162054505Y-95209192D01*
X162113101Y-95415135D01*
X162208533Y-95606788D01*
X162337567Y-95777656D01*
X162495795Y-95921900D01*
X162529234Y-95942604D01*
X162677833Y-96034612D01*
X162877483Y-96111957D01*
X163087946Y-96151300D01*
X163302054Y-96151300D01*
X163512517Y-96111957D01*
X163712167Y-96034612D01*
X163894206Y-95921899D01*
X164052434Y-95777655D01*
X164181464Y-95606792D01*
X164181466Y-95606788D01*
X164276898Y-95415135D01*
X164276898Y-95415132D01*
X164276900Y-95415130D01*
X164335494Y-95209195D01*
X164355249Y-94996000D01*
X164574751Y-94996000D01*
X164594505Y-95209192D01*
X164653101Y-95415135D01*
X164748533Y-95606788D01*
X164877567Y-95777656D01*
X165035795Y-95921900D01*
X165069234Y-95942604D01*
X165217833Y-96034612D01*
X165417483Y-96111957D01*
X165627946Y-96151300D01*
X165842054Y-96151300D01*
X166052517Y-96111957D01*
X166252167Y-96034612D01*
X166434206Y-95921899D01*
X166592434Y-95777655D01*
X166721464Y-95606792D01*
X166721466Y-95606788D01*
X166816898Y-95415135D01*
X166816898Y-95415132D01*
X166816900Y-95415130D01*
X166875494Y-95209195D01*
X166895249Y-94996000D01*
X167114751Y-94996000D01*
X167134505Y-95209192D01*
X167193101Y-95415135D01*
X167288533Y-95606788D01*
X167417567Y-95777656D01*
X167575795Y-95921900D01*
X167609234Y-95942604D01*
X167757833Y-96034612D01*
X167957483Y-96111957D01*
X168167946Y-96151300D01*
X168382054Y-96151300D01*
X168592517Y-96111957D01*
X168792167Y-96034612D01*
X168974206Y-95921899D01*
X169007464Y-95891580D01*
X169659700Y-95891580D01*
X169662661Y-95917108D01*
X169664777Y-95921900D01*
X169708766Y-96021525D01*
X169789475Y-96102234D01*
X169893891Y-96148338D01*
X169919421Y-96151300D01*
X171710578Y-96151299D01*
X171710580Y-96151299D01*
X171727598Y-96149324D01*
X171736109Y-96148338D01*
X171840525Y-96102234D01*
X171921234Y-96021525D01*
X171967338Y-95917109D01*
X171970300Y-95891579D01*
X171970300Y-95821500D01*
X178474000Y-95821500D01*
X178474000Y-96517157D01*
X178484790Y-96591216D01*
X178540635Y-96705450D01*
X178630549Y-96795364D01*
X178744783Y-96851209D01*
X178818843Y-96862000D01*
X179514500Y-96862000D01*
X179514500Y-95821500D01*
X179895500Y-95821500D01*
X179895500Y-96862000D01*
X180591157Y-96862000D01*
X180665216Y-96851209D01*
X180779450Y-96795364D01*
X180869364Y-96705450D01*
X180925209Y-96591216D01*
X180936000Y-96517157D01*
X180936000Y-95821500D01*
X179895500Y-95821500D01*
X179514500Y-95821500D01*
X178474000Y-95821500D01*
X171970300Y-95821500D01*
X171970300Y-95440500D01*
X178474000Y-95440500D01*
X179514500Y-95440500D01*
X179514500Y-94400000D01*
X179895500Y-94400000D01*
X179895500Y-95440500D01*
X180936000Y-95440500D01*
X180936000Y-94744843D01*
X180925209Y-94670783D01*
X180869364Y-94556549D01*
X180779450Y-94466635D01*
X180665216Y-94410790D01*
X180591157Y-94400000D01*
X179895500Y-94400000D01*
X179514500Y-94400000D01*
X178818843Y-94400000D01*
X178744783Y-94410790D01*
X178630549Y-94466635D01*
X178540635Y-94556549D01*
X178484790Y-94670783D01*
X178474000Y-94744843D01*
X178474000Y-95440500D01*
X171970300Y-95440500D01*
X171970299Y-94100422D01*
X171967338Y-94074891D01*
X171921234Y-93970475D01*
X171840525Y-93889766D01*
X171736109Y-93843662D01*
X171710579Y-93840700D01*
X171710577Y-93840700D01*
X169919419Y-93840700D01*
X169893891Y-93843661D01*
X169789475Y-93889766D01*
X169708766Y-93970475D01*
X169662662Y-94074890D01*
X169659700Y-94100422D01*
X169659700Y-95891580D01*
X169007464Y-95891580D01*
X169132434Y-95777655D01*
X169261464Y-95606792D01*
X169261466Y-95606788D01*
X169356898Y-95415135D01*
X169356898Y-95415132D01*
X169356900Y-95415130D01*
X169415494Y-95209195D01*
X169435249Y-94996000D01*
X169415494Y-94782805D01*
X169356900Y-94576870D01*
X169356899Y-94576868D01*
X169356898Y-94576864D01*
X169261466Y-94385211D01*
X169256131Y-94378146D01*
X169132434Y-94214345D01*
X169007465Y-94100421D01*
X168974204Y-94070099D01*
X168792170Y-93957390D01*
X168792167Y-93957388D01*
X168611810Y-93887517D01*
X168592515Y-93880042D01*
X168382054Y-93840700D01*
X168167946Y-93840700D01*
X167957484Y-93880042D01*
X167871828Y-93913226D01*
X167757833Y-93957388D01*
X167757831Y-93957389D01*
X167757829Y-93957390D01*
X167575795Y-94070099D01*
X167417567Y-94214343D01*
X167288533Y-94385211D01*
X167193101Y-94576864D01*
X167134505Y-94782807D01*
X167114751Y-94996000D01*
X166895249Y-94996000D01*
X166875494Y-94782805D01*
X166816900Y-94576870D01*
X166816899Y-94576868D01*
X166816898Y-94576864D01*
X166721466Y-94385211D01*
X166716131Y-94378146D01*
X166592434Y-94214345D01*
X166467465Y-94100421D01*
X166434204Y-94070099D01*
X166252170Y-93957390D01*
X166252167Y-93957388D01*
X166071810Y-93887517D01*
X166052515Y-93880042D01*
X165842054Y-93840700D01*
X165627946Y-93840700D01*
X165417484Y-93880042D01*
X165331828Y-93913226D01*
X165217833Y-93957388D01*
X165217831Y-93957389D01*
X165217829Y-93957390D01*
X165035795Y-94070099D01*
X164877567Y-94214343D01*
X164748533Y-94385211D01*
X164653101Y-94576864D01*
X164594505Y-94782807D01*
X164574751Y-94996000D01*
X164355249Y-94996000D01*
X164335494Y-94782805D01*
X164276900Y-94576870D01*
X164276899Y-94576868D01*
X164276898Y-94576864D01*
X164181466Y-94385211D01*
X164176131Y-94378146D01*
X164052434Y-94214345D01*
X163927465Y-94100421D01*
X163894204Y-94070099D01*
X163712170Y-93957390D01*
X163712167Y-93957388D01*
X163531810Y-93887517D01*
X163512515Y-93880042D01*
X163302054Y-93840700D01*
X163087946Y-93840700D01*
X162877484Y-93880042D01*
X162791828Y-93913226D01*
X162677833Y-93957388D01*
X162677831Y-93957389D01*
X162677829Y-93957390D01*
X162495795Y-94070099D01*
X162337567Y-94214343D01*
X162208533Y-94385211D01*
X162113101Y-94576864D01*
X162054505Y-94782807D01*
X162034751Y-94996000D01*
X161815249Y-94996000D01*
X161795494Y-94782805D01*
X161736900Y-94576870D01*
X161736899Y-94576868D01*
X161736898Y-94576864D01*
X161641466Y-94385211D01*
X161636131Y-94378146D01*
X161512434Y-94214345D01*
X161387465Y-94100421D01*
X161354204Y-94070099D01*
X161172170Y-93957390D01*
X161172167Y-93957388D01*
X160991810Y-93887517D01*
X160972515Y-93880042D01*
X160762054Y-93840700D01*
X160547946Y-93840700D01*
X160337480Y-93880043D01*
X160263766Y-93908599D01*
X160206662Y-93913226D01*
X160156292Y-93885927D01*
X159676489Y-93406124D01*
X159651189Y-93363635D01*
X159649190Y-93314225D01*
X159670977Y-93269831D01*
X159711283Y-93241182D01*
X159716255Y-93239255D01*
X159716259Y-93239255D01*
X159924550Y-93158563D01*
X160114468Y-93040971D01*
X160279544Y-92890484D01*
X160414157Y-92712227D01*
X160513724Y-92512270D01*
X160558240Y-92355812D01*
X160584525Y-92311554D01*
X160629262Y-92286091D01*
X160680738Y-92286091D01*
X160725475Y-92311554D01*
X160751760Y-92355813D01*
X160796276Y-92512271D01*
X160819439Y-92558788D01*
X160895843Y-92712227D01*
X161030456Y-92890484D01*
X161195532Y-93040971D01*
X161385450Y-93158563D01*
X161593741Y-93239255D01*
X161740121Y-93266618D01*
X161813311Y-93280300D01*
X161813312Y-93280300D01*
X162036688Y-93280300D01*
X162036689Y-93280300D01*
X162092692Y-93269831D01*
X162256259Y-93239255D01*
X162464550Y-93158563D01*
X162549882Y-93105728D01*
X163703678Y-93105728D01*
X163822053Y-93188616D01*
X164025200Y-93283344D01*
X164241706Y-93341357D01*
X164465000Y-93360892D01*
X164688293Y-93341357D01*
X164904799Y-93283344D01*
X165107946Y-93188616D01*
X165226320Y-93105728D01*
X164465000Y-92344408D01*
X163703678Y-93105728D01*
X162549882Y-93105728D01*
X162654468Y-93040971D01*
X162819544Y-92890484D01*
X162954157Y-92712227D01*
X163053724Y-92512270D01*
X163058216Y-92496483D01*
X163084719Y-92452010D01*
X163129833Y-92426605D01*
X163181607Y-92427002D01*
X163226327Y-92453096D01*
X163252147Y-92497973D01*
X163256656Y-92514802D01*
X163351383Y-92717946D01*
X163434270Y-92836320D01*
X164393864Y-91876726D01*
X164438962Y-91850689D01*
X164491036Y-91850689D01*
X164536134Y-91876726D01*
X165495728Y-92836320D01*
X165578616Y-92717946D01*
X165673344Y-92514798D01*
X165677852Y-92497977D01*
X165703670Y-92453098D01*
X165748388Y-92427003D01*
X165800162Y-92426604D01*
X165845277Y-92452007D01*
X165871784Y-92496483D01*
X165876276Y-92512271D01*
X165899439Y-92558788D01*
X165975843Y-92712227D01*
X166110456Y-92890484D01*
X166275532Y-93040971D01*
X166465450Y-93158563D01*
X166673741Y-93239255D01*
X166820121Y-93266618D01*
X166893311Y-93280300D01*
X166893312Y-93280300D01*
X167116688Y-93280300D01*
X167116689Y-93280300D01*
X167172692Y-93269831D01*
X167336259Y-93239255D01*
X167544550Y-93158563D01*
X167734468Y-93040971D01*
X167899544Y-92890484D01*
X168034157Y-92712227D01*
X168133724Y-92512270D01*
X168178240Y-92355812D01*
X168204525Y-92311554D01*
X168249262Y-92286091D01*
X168300738Y-92286091D01*
X168345475Y-92311554D01*
X168371760Y-92355813D01*
X168416276Y-92512271D01*
X168439439Y-92558788D01*
X168515843Y-92712227D01*
X168650456Y-92890484D01*
X168815532Y-93040971D01*
X169005450Y-93158563D01*
X169213741Y-93239255D01*
X169360121Y-93266618D01*
X169433311Y-93280300D01*
X169433312Y-93280300D01*
X169656688Y-93280300D01*
X169656689Y-93280300D01*
X169712692Y-93269831D01*
X169876259Y-93239255D01*
X170084550Y-93158563D01*
X170274468Y-93040971D01*
X170439544Y-92890484D01*
X170574157Y-92712227D01*
X170673724Y-92512270D01*
X170718240Y-92355812D01*
X170744525Y-92311554D01*
X170789262Y-92286091D01*
X170840738Y-92286091D01*
X170885475Y-92311554D01*
X170911760Y-92355813D01*
X170956276Y-92512271D01*
X170979439Y-92558788D01*
X171055843Y-92712227D01*
X171190456Y-92890484D01*
X171355532Y-93040971D01*
X171545450Y-93158563D01*
X171753741Y-93239255D01*
X171900121Y-93266618D01*
X171973311Y-93280300D01*
X171973312Y-93280300D01*
X172196688Y-93280300D01*
X172196689Y-93280300D01*
X172252692Y-93269831D01*
X172416259Y-93239255D01*
X172624550Y-93158563D01*
X172814468Y-93040971D01*
X172979544Y-92890484D01*
X173114157Y-92712227D01*
X173213724Y-92512270D01*
X173274854Y-92297422D01*
X173295464Y-92075000D01*
X173274854Y-91852578D01*
X173213724Y-91637730D01*
X173213722Y-91637726D01*
X173159518Y-91528870D01*
X173114157Y-91437773D01*
X173084517Y-91398523D01*
X173064628Y-91347182D01*
X173074746Y-91293058D01*
X173111840Y-91252368D01*
X173164799Y-91237300D01*
X178605810Y-91237300D01*
X178654762Y-91250014D01*
X178691342Y-91284941D01*
X178706303Y-91333254D01*
X178695863Y-91382742D01*
X178623100Y-91528867D01*
X178564505Y-91734807D01*
X178544751Y-91947999D01*
X178564505Y-92161192D01*
X178623101Y-92367135D01*
X178718533Y-92558788D01*
X178718535Y-92558791D01*
X178718536Y-92558792D01*
X178834403Y-92712225D01*
X178847567Y-92729656D01*
X179005795Y-92873900D01*
X179032581Y-92890485D01*
X179187833Y-92986612D01*
X179387483Y-93063957D01*
X179597946Y-93103300D01*
X179812054Y-93103300D01*
X180022517Y-93063957D01*
X180222167Y-92986612D01*
X180404206Y-92873899D01*
X180562434Y-92729655D01*
X180691464Y-92558792D01*
X180744635Y-92452010D01*
X180786898Y-92367135D01*
X180786898Y-92367132D01*
X180786900Y-92367130D01*
X180845494Y-92161195D01*
X180865249Y-91948000D01*
X180845494Y-91734805D01*
X180786900Y-91528870D01*
X180786899Y-91528867D01*
X180786898Y-91528864D01*
X180691466Y-91337211D01*
X180684403Y-91327858D01*
X180562434Y-91166345D01*
X180509553Y-91118138D01*
X180404204Y-91022099D01*
X180222170Y-90909390D01*
X180222167Y-90909388D01*
X180064812Y-90848428D01*
X180022515Y-90832042D01*
X179812054Y-90792700D01*
X179710735Y-90792700D01*
X179672237Y-90785042D01*
X179639600Y-90763235D01*
X179611400Y-90735035D01*
X179583868Y-90683526D01*
X179589593Y-90625402D01*
X179626645Y-90580254D01*
X179682535Y-90563300D01*
X179812054Y-90563300D01*
X180022517Y-90523957D01*
X180222167Y-90446612D01*
X180404206Y-90333899D01*
X180562434Y-90189655D01*
X180691464Y-90018792D01*
X180786900Y-89827130D01*
X180845494Y-89621195D01*
X180865249Y-89408000D01*
X180845494Y-89194805D01*
X180786900Y-88988870D01*
X180786899Y-88988868D01*
X180786898Y-88988864D01*
X180691466Y-88797211D01*
X180658340Y-88753345D01*
X180562434Y-88626345D01*
X180551701Y-88616561D01*
X180404204Y-88482099D01*
X180250857Y-88387152D01*
X180222167Y-88369388D01*
X180064812Y-88308428D01*
X180022515Y-88292042D01*
X179812054Y-88252700D01*
X179710735Y-88252700D01*
X179672237Y-88245042D01*
X179639600Y-88223235D01*
X179611400Y-88195035D01*
X179583868Y-88143526D01*
X179589593Y-88085402D01*
X179626645Y-88040254D01*
X179682535Y-88023300D01*
X179812054Y-88023300D01*
X180022517Y-87983957D01*
X180222167Y-87906612D01*
X180404206Y-87793899D01*
X180562434Y-87649655D01*
X180691464Y-87478792D01*
X180706574Y-87448447D01*
X180786898Y-87287135D01*
X180786898Y-87287132D01*
X180786900Y-87287130D01*
X180845494Y-87081195D01*
X180865249Y-86868000D01*
X180845494Y-86654805D01*
X180786900Y-86448870D01*
X180786899Y-86448868D01*
X180786898Y-86448864D01*
X180691466Y-86257211D01*
X180691464Y-86257208D01*
X180562434Y-86086345D01*
X180554473Y-86079088D01*
X180404204Y-85942099D01*
X180248764Y-85845856D01*
X180222167Y-85829388D01*
X180064812Y-85768428D01*
X180022515Y-85752042D01*
X179812054Y-85712700D01*
X179710735Y-85712700D01*
X179672237Y-85705042D01*
X179639600Y-85683235D01*
X179611400Y-85655035D01*
X179583868Y-85603526D01*
X179589593Y-85545402D01*
X179626645Y-85500254D01*
X179682535Y-85483300D01*
X179812054Y-85483300D01*
X180022517Y-85443957D01*
X180222167Y-85366612D01*
X180404206Y-85253899D01*
X180562434Y-85109655D01*
X180691464Y-84938792D01*
X180691466Y-84938788D01*
X180786898Y-84747135D01*
X180786898Y-84747132D01*
X180786900Y-84747130D01*
X180845494Y-84541195D01*
X180865249Y-84328000D01*
X180845494Y-84114805D01*
X180786900Y-83908870D01*
X180786899Y-83908868D01*
X180786898Y-83908864D01*
X180691466Y-83717211D01*
X180689341Y-83714397D01*
X180562434Y-83546345D01*
X180554473Y-83539088D01*
X180404204Y-83402099D01*
X180248764Y-83305856D01*
X180222167Y-83289388D01*
X180064812Y-83228428D01*
X180022515Y-83212042D01*
X179812054Y-83172700D01*
X179710735Y-83172700D01*
X179672237Y-83165042D01*
X179639600Y-83143235D01*
X179611400Y-83115035D01*
X179583868Y-83063526D01*
X179589593Y-83005402D01*
X179626645Y-82960254D01*
X179682535Y-82943300D01*
X179812054Y-82943300D01*
X180022517Y-82903957D01*
X180222167Y-82826612D01*
X180404206Y-82713899D01*
X180562434Y-82569655D01*
X180691464Y-82398792D01*
X180709601Y-82362368D01*
X180786898Y-82207135D01*
X180786898Y-82207132D01*
X180786900Y-82207130D01*
X180845494Y-82001195D01*
X180865249Y-81788000D01*
X180845494Y-81574805D01*
X180786900Y-81368870D01*
X180786899Y-81368868D01*
X180786898Y-81368864D01*
X180691466Y-81177211D01*
X180658340Y-81133345D01*
X180562434Y-81006345D01*
X180404206Y-80862101D01*
X180404204Y-80862099D01*
X180250857Y-80767152D01*
X180222167Y-80749388D01*
X180064812Y-80688428D01*
X180022515Y-80672042D01*
X179812054Y-80632700D01*
X179710735Y-80632700D01*
X179672237Y-80625042D01*
X179639600Y-80603235D01*
X179611400Y-80575035D01*
X179583868Y-80523526D01*
X179589593Y-80465402D01*
X179626645Y-80420254D01*
X179682535Y-80403300D01*
X179812054Y-80403300D01*
X180022517Y-80363957D01*
X180222167Y-80286612D01*
X180404206Y-80173899D01*
X180562434Y-80029655D01*
X180691464Y-79858792D01*
X180709602Y-79822366D01*
X180786898Y-79667135D01*
X180786898Y-79667132D01*
X180786900Y-79667130D01*
X180845494Y-79461195D01*
X180865249Y-79248000D01*
X180845494Y-79034805D01*
X180786900Y-78828870D01*
X180786899Y-78828868D01*
X180786898Y-78828864D01*
X180691466Y-78637211D01*
X180684403Y-78627858D01*
X180562434Y-78466345D01*
X180526501Y-78433588D01*
X180404204Y-78322099D01*
X180248762Y-78225855D01*
X180222167Y-78209388D01*
X180023777Y-78132531D01*
X180022515Y-78132042D01*
X179812054Y-78092700D01*
X179597946Y-78092700D01*
X179387484Y-78132042D01*
X179290279Y-78169700D01*
X179187833Y-78209388D01*
X179187831Y-78209389D01*
X179187829Y-78209390D01*
X179005795Y-78322099D01*
X178847567Y-78466343D01*
X178718536Y-78637207D01*
X178623098Y-78828874D01*
X178611502Y-78869631D01*
X178591139Y-78907553D01*
X178556790Y-78933492D01*
X178514743Y-78942700D01*
X173278488Y-78942700D01*
X173225529Y-78927632D01*
X173188435Y-78886942D01*
X173128948Y-78767478D01*
X173114157Y-78737773D01*
X172979544Y-78559516D01*
X172814468Y-78409029D01*
X172624550Y-78291437D01*
X172416259Y-78210745D01*
X172416258Y-78210744D01*
X172416256Y-78210744D01*
X172390522Y-78205934D01*
X172379570Y-78203886D01*
X172330282Y-78179344D01*
X172301296Y-78132531D01*
X172301296Y-78077469D01*
X172330282Y-78030656D01*
X172379570Y-78006113D01*
X172416259Y-77999255D01*
X172624550Y-77918563D01*
X172814468Y-77800971D01*
X172979544Y-77650484D01*
X173114157Y-77472227D01*
X173164751Y-77370620D01*
X173188435Y-77323058D01*
X173225529Y-77282368D01*
X173278488Y-77267300D01*
X178630607Y-77267300D01*
X178683563Y-77282366D01*
X178711184Y-77312662D01*
X178712919Y-77311353D01*
X178718534Y-77318788D01*
X178718536Y-77318792D01*
X178834405Y-77472227D01*
X178847567Y-77489656D01*
X179005795Y-77633900D01*
X179032581Y-77650485D01*
X179187833Y-77746612D01*
X179387483Y-77823957D01*
X179597946Y-77863300D01*
X179812054Y-77863300D01*
X180022517Y-77823957D01*
X180222167Y-77746612D01*
X180404206Y-77633899D01*
X180562434Y-77489655D01*
X180691464Y-77318792D01*
X180709602Y-77282366D01*
X180786898Y-77127135D01*
X180786898Y-77127132D01*
X180786900Y-77127130D01*
X180845494Y-76921195D01*
X180865249Y-76708000D01*
X180845494Y-76494805D01*
X180786900Y-76288870D01*
X180786899Y-76288868D01*
X180786898Y-76288864D01*
X180691466Y-76097211D01*
X180684403Y-76087858D01*
X180562434Y-75926345D01*
X180499562Y-75869030D01*
X180404204Y-75782099D01*
X180248762Y-75685855D01*
X180222167Y-75669388D01*
X180023777Y-75592531D01*
X180022515Y-75592042D01*
X179812054Y-75552700D01*
X179597946Y-75552700D01*
X179387484Y-75592042D01*
X179290279Y-75629700D01*
X179187833Y-75669388D01*
X179187831Y-75669389D01*
X179187829Y-75669390D01*
X179005795Y-75782099D01*
X178847567Y-75926343D01*
X178718536Y-76097207D01*
X178623098Y-76288874D01*
X178611502Y-76329631D01*
X178591139Y-76367553D01*
X178556790Y-76393492D01*
X178514743Y-76402700D01*
X173278488Y-76402700D01*
X173225529Y-76387632D01*
X173188435Y-76346942D01*
X173128948Y-76227478D01*
X173114157Y-76197773D01*
X172979544Y-76019516D01*
X172814468Y-75869029D01*
X172624550Y-75751437D01*
X172416259Y-75670745D01*
X172416258Y-75670744D01*
X172416256Y-75670744D01*
X172390522Y-75665934D01*
X172379570Y-75663886D01*
X172330282Y-75639344D01*
X172301296Y-75592531D01*
X172301296Y-75537469D01*
X172330282Y-75490656D01*
X172379570Y-75466113D01*
X172416259Y-75459255D01*
X172624550Y-75378563D01*
X172814468Y-75260971D01*
X172979544Y-75110484D01*
X173114157Y-74932227D01*
X173164236Y-74831654D01*
X173188435Y-74783058D01*
X173225529Y-74742368D01*
X173278488Y-74727300D01*
X178630607Y-74727300D01*
X178683563Y-74742366D01*
X178711184Y-74772662D01*
X178712919Y-74771353D01*
X178718534Y-74778788D01*
X178718536Y-74778792D01*
X178834405Y-74932227D01*
X178847567Y-74949656D01*
X179005795Y-75093900D01*
X179032581Y-75110485D01*
X179187833Y-75206612D01*
X179387483Y-75283957D01*
X179597946Y-75323300D01*
X179812054Y-75323300D01*
X180022517Y-75283957D01*
X180222167Y-75206612D01*
X180404206Y-75093899D01*
X180562434Y-74949655D01*
X180691464Y-74778792D01*
X180709602Y-74742366D01*
X180786898Y-74587135D01*
X180786898Y-74587132D01*
X180786900Y-74587130D01*
X180845494Y-74381195D01*
X180865249Y-74168000D01*
X180845494Y-73954805D01*
X180786900Y-73748870D01*
X180786899Y-73748868D01*
X180786898Y-73748864D01*
X180691466Y-73557211D01*
X180684403Y-73547858D01*
X180562434Y-73386345D01*
X180499562Y-73329030D01*
X180404204Y-73242099D01*
X180248762Y-73145855D01*
X180222167Y-73129388D01*
X180023777Y-73052531D01*
X180022515Y-73052042D01*
X179812054Y-73012700D01*
X179597946Y-73012700D01*
X179387484Y-73052042D01*
X179290279Y-73089700D01*
X179187833Y-73129388D01*
X179187831Y-73129389D01*
X179187829Y-73129390D01*
X179005795Y-73242099D01*
X178847567Y-73386343D01*
X178718536Y-73557207D01*
X178623098Y-73748874D01*
X178611502Y-73789631D01*
X178591139Y-73827553D01*
X178556790Y-73853492D01*
X178514743Y-73862700D01*
X173278488Y-73862700D01*
X173225529Y-73847632D01*
X173188435Y-73806942D01*
X173128948Y-73687478D01*
X173114157Y-73657773D01*
X172979544Y-73479516D01*
X172972895Y-73473455D01*
X172894805Y-73402266D01*
X172814468Y-73329029D01*
X172624550Y-73211437D01*
X172416259Y-73130745D01*
X172416258Y-73130744D01*
X172416256Y-73130744D01*
X172390522Y-73125934D01*
X172379570Y-73123886D01*
X172330282Y-73099344D01*
X172301296Y-73052531D01*
X172301296Y-72997469D01*
X172330282Y-72950656D01*
X172379570Y-72926113D01*
X172416259Y-72919255D01*
X172624550Y-72838563D01*
X172814468Y-72720971D01*
X172979544Y-72570484D01*
X173114157Y-72392227D01*
X173164236Y-72291654D01*
X173188435Y-72243058D01*
X173225529Y-72202368D01*
X173278488Y-72187300D01*
X178630607Y-72187300D01*
X178683563Y-72202366D01*
X178711184Y-72232662D01*
X178712919Y-72231353D01*
X178718534Y-72238788D01*
X178718536Y-72238792D01*
X178834405Y-72392227D01*
X178847567Y-72409656D01*
X179005795Y-72553900D01*
X179032581Y-72570485D01*
X179187833Y-72666612D01*
X179387483Y-72743957D01*
X179597946Y-72783300D01*
X179812054Y-72783300D01*
X180022517Y-72743957D01*
X180222167Y-72666612D01*
X180404206Y-72553899D01*
X180562434Y-72409655D01*
X180691464Y-72238792D01*
X180709602Y-72202366D01*
X180786898Y-72047135D01*
X180786898Y-72047132D01*
X180786900Y-72047130D01*
X180845494Y-71841195D01*
X180865249Y-71628000D01*
X180845494Y-71414805D01*
X180786900Y-71208870D01*
X180786899Y-71208868D01*
X180786898Y-71208864D01*
X180691466Y-71017211D01*
X180684403Y-71007858D01*
X180562434Y-70846345D01*
X180499562Y-70789030D01*
X180404204Y-70702099D01*
X180248762Y-70605855D01*
X180222167Y-70589388D01*
X180023777Y-70512531D01*
X180022515Y-70512042D01*
X179812054Y-70472700D01*
X179597946Y-70472700D01*
X179387484Y-70512042D01*
X179290279Y-70549700D01*
X179187833Y-70589388D01*
X179187831Y-70589389D01*
X179187829Y-70589390D01*
X179005795Y-70702099D01*
X178847567Y-70846343D01*
X178718536Y-71017207D01*
X178623098Y-71208874D01*
X178611502Y-71249631D01*
X178591139Y-71287553D01*
X178556790Y-71313492D01*
X178514743Y-71322700D01*
X173278488Y-71322700D01*
X173225529Y-71307632D01*
X173188435Y-71266942D01*
X173128948Y-71147478D01*
X173114157Y-71117773D01*
X172979544Y-70939516D01*
X172814468Y-70789029D01*
X172624550Y-70671437D01*
X172416259Y-70590745D01*
X172416258Y-70590744D01*
X172416256Y-70590744D01*
X172390522Y-70585934D01*
X172379570Y-70583886D01*
X172330282Y-70559344D01*
X172301296Y-70512531D01*
X172301296Y-70457469D01*
X172330282Y-70410656D01*
X172379570Y-70386113D01*
X172416259Y-70379255D01*
X172624550Y-70298563D01*
X172814468Y-70180971D01*
X172979544Y-70030484D01*
X173114157Y-69852227D01*
X173166106Y-69747900D01*
X173188435Y-69703058D01*
X173225529Y-69662368D01*
X173278488Y-69647300D01*
X178449101Y-69647300D01*
X178499401Y-69660778D01*
X178536223Y-69697600D01*
X178549701Y-69747900D01*
X178549701Y-69983581D01*
X178552661Y-70009108D01*
X178562100Y-70030484D01*
X178598766Y-70113525D01*
X178679475Y-70194234D01*
X178783891Y-70240338D01*
X178809421Y-70243300D01*
X180600578Y-70243299D01*
X180600580Y-70243299D01*
X180617598Y-70241324D01*
X180626109Y-70240338D01*
X180730525Y-70194234D01*
X180811234Y-70113525D01*
X180857338Y-70009109D01*
X180860300Y-69983579D01*
X180860299Y-68192422D01*
X180859638Y-68186725D01*
X180857338Y-68166891D01*
X180841684Y-68131439D01*
X180811234Y-68062475D01*
X180730525Y-67981766D01*
X180626109Y-67935662D01*
X180600579Y-67932700D01*
X180600577Y-67932700D01*
X178809419Y-67932700D01*
X178783891Y-67935661D01*
X178679475Y-67981766D01*
X178598766Y-68062475D01*
X178552662Y-68166890D01*
X178549700Y-68192423D01*
X178549700Y-68682100D01*
X178536222Y-68732400D01*
X178499400Y-68769222D01*
X178449100Y-68782700D01*
X173278488Y-68782700D01*
X173225529Y-68767632D01*
X173188435Y-68726942D01*
X173151930Y-68653631D01*
X173114157Y-68577773D01*
X172979544Y-68399516D01*
X172814468Y-68249029D01*
X172624550Y-68131437D01*
X172416259Y-68050745D01*
X172416258Y-68050744D01*
X172416256Y-68050744D01*
X172390522Y-68045934D01*
X172379570Y-68043886D01*
X172330282Y-68019344D01*
X172301296Y-67972531D01*
X172301296Y-67917469D01*
X172330282Y-67870656D01*
X172379570Y-67846113D01*
X172416259Y-67839255D01*
X172624550Y-67758563D01*
X172814468Y-67640971D01*
X172979544Y-67490484D01*
X173114157Y-67312227D01*
X173213724Y-67112270D01*
X173274854Y-66897422D01*
X173295464Y-66675000D01*
X173274854Y-66452578D01*
X173213724Y-66237730D01*
X173114157Y-66037773D01*
X173051149Y-65954337D01*
X173031863Y-65908094D01*
X173037276Y-65858282D01*
X173066045Y-65817259D01*
X173111034Y-65795202D01*
X173161083Y-65797582D01*
X173165309Y-65798885D01*
X173165313Y-65798888D01*
X173218090Y-65815167D01*
X173221595Y-65816321D01*
X173273722Y-65834562D01*
X173273726Y-65834562D01*
X173277404Y-65835849D01*
X173285939Y-65837300D01*
X173289841Y-65837300D01*
X173345018Y-65837300D01*
X173348779Y-65837370D01*
X173403949Y-65839434D01*
X173403951Y-65839433D01*
X173407844Y-65839579D01*
X173425158Y-65837300D01*
X178567369Y-65837300D01*
X178620328Y-65852368D01*
X178657422Y-65893059D01*
X178718533Y-66015788D01*
X178847567Y-66186656D01*
X179005795Y-66330900D01*
X179082468Y-66378373D01*
X179187833Y-66443612D01*
X179387483Y-66520957D01*
X179597946Y-66560300D01*
X179812054Y-66560300D01*
X180022517Y-66520957D01*
X180222167Y-66443612D01*
X180404206Y-66330899D01*
X180562434Y-66186655D01*
X180691464Y-66015792D01*
X180691466Y-66015788D01*
X180786898Y-65824135D01*
X180786898Y-65824132D01*
X180786900Y-65824130D01*
X180845494Y-65618195D01*
X180865249Y-65405000D01*
X180845494Y-65191805D01*
X180786900Y-64985870D01*
X180786899Y-64985868D01*
X180786898Y-64985864D01*
X180691466Y-64794211D01*
X180691464Y-64794208D01*
X180562434Y-64623345D01*
X180506407Y-64572270D01*
X180404204Y-64479099D01*
X180222170Y-64366390D01*
X180222167Y-64366388D01*
X180064812Y-64305428D01*
X180022515Y-64289042D01*
X179812054Y-64249700D01*
X179597946Y-64249700D01*
X179387484Y-64289042D01*
X179272423Y-64333617D01*
X179187833Y-64366388D01*
X179187831Y-64366389D01*
X179187829Y-64366390D01*
X179005795Y-64479099D01*
X178847567Y-64623343D01*
X178718533Y-64794211D01*
X178657422Y-64916941D01*
X178620328Y-64957632D01*
X178567369Y-64972700D01*
X173575734Y-64972700D01*
X173537236Y-64965042D01*
X173504599Y-64943235D01*
X173237786Y-64676422D01*
X173211551Y-64630575D01*
X173212162Y-64577756D01*
X173213721Y-64572275D01*
X173213724Y-64572270D01*
X173274854Y-64357422D01*
X173295464Y-64135000D01*
X173274854Y-63912578D01*
X173213724Y-63697730D01*
X173184579Y-63639200D01*
X173177076Y-63624132D01*
X173114157Y-63497773D01*
X173051149Y-63414337D01*
X173031863Y-63368094D01*
X173037276Y-63318282D01*
X173066045Y-63277259D01*
X173111034Y-63255202D01*
X173161083Y-63257582D01*
X173165309Y-63258885D01*
X173165313Y-63258888D01*
X173218090Y-63275167D01*
X173221595Y-63276321D01*
X173273722Y-63294562D01*
X173273726Y-63294562D01*
X173277404Y-63295849D01*
X173285939Y-63297300D01*
X173289841Y-63297300D01*
X173345018Y-63297300D01*
X173348779Y-63297370D01*
X173403949Y-63299434D01*
X173403951Y-63299433D01*
X173407844Y-63299579D01*
X173425158Y-63297300D01*
X178449101Y-63297300D01*
X178499401Y-63310778D01*
X178536223Y-63347600D01*
X178549701Y-63397900D01*
X178549701Y-63760581D01*
X178552661Y-63786108D01*
X178578408Y-63844420D01*
X178598766Y-63890525D01*
X178679475Y-63971234D01*
X178783891Y-64017338D01*
X178809421Y-64020300D01*
X180600578Y-64020299D01*
X180600580Y-64020299D01*
X180617598Y-64018324D01*
X180626109Y-64017338D01*
X180730525Y-63971234D01*
X180811234Y-63890525D01*
X180857338Y-63786109D01*
X180860300Y-63760579D01*
X180860299Y-61969422D01*
X180857338Y-61943891D01*
X180811234Y-61839475D01*
X180730525Y-61758766D01*
X180626109Y-61712662D01*
X180600579Y-61709700D01*
X180600577Y-61709700D01*
X178809419Y-61709700D01*
X178783891Y-61712661D01*
X178679475Y-61758766D01*
X178598766Y-61839475D01*
X178552662Y-61943890D01*
X178549700Y-61969423D01*
X178549700Y-62332100D01*
X178536222Y-62382400D01*
X178499400Y-62419222D01*
X178449100Y-62432700D01*
X173575734Y-62432700D01*
X173537236Y-62425042D01*
X173504599Y-62403235D01*
X173237786Y-62136422D01*
X173211551Y-62090575D01*
X173212162Y-62037756D01*
X173213721Y-62032275D01*
X173213724Y-62032270D01*
X173274854Y-61817422D01*
X173295464Y-61595000D01*
X173274854Y-61372578D01*
X173213724Y-61157730D01*
X173212464Y-61155200D01*
X173164146Y-61058165D01*
X173114157Y-60957773D01*
X172979544Y-60779516D01*
X172814468Y-60629029D01*
X172624550Y-60511437D01*
X172492399Y-60460241D01*
X172444245Y-60421031D01*
X172428288Y-60361015D01*
X172450611Y-60303065D01*
X172502707Y-60269263D01*
X172524802Y-60263343D01*
X172727946Y-60168616D01*
X172846320Y-60085728D01*
X172085000Y-59324408D01*
X171323678Y-60085728D01*
X171442053Y-60168616D01*
X171645201Y-60263344D01*
X171667293Y-60269264D01*
X171719388Y-60303065D01*
X171741711Y-60361016D01*
X171725754Y-60421031D01*
X171677598Y-60460243D01*
X171545449Y-60511437D01*
X171437910Y-60578023D01*
X171355532Y-60629029D01*
X171343133Y-60640331D01*
X171190457Y-60779514D01*
X171055842Y-60957774D01*
X170956276Y-61157727D01*
X170895145Y-61372580D01*
X170874536Y-61595000D01*
X170895145Y-61817419D01*
X170956276Y-62032272D01*
X171046196Y-62212853D01*
X171055843Y-62232227D01*
X171190456Y-62410484D01*
X171355532Y-62560971D01*
X171545450Y-62678563D01*
X171753741Y-62759255D01*
X171790429Y-62766113D01*
X171839717Y-62790656D01*
X171868703Y-62837470D01*
X171868703Y-62892530D01*
X171839717Y-62939344D01*
X171790429Y-62963886D01*
X171783571Y-62965168D01*
X171753742Y-62970744D01*
X171545449Y-63051437D01*
X171427857Y-63124247D01*
X171355532Y-63169029D01*
X171355530Y-63169030D01*
X171355531Y-63169030D01*
X171190457Y-63319514D01*
X171055842Y-63497774D01*
X170956276Y-63697727D01*
X170895145Y-63912580D01*
X170874536Y-64134999D01*
X170895145Y-64357419D01*
X170956276Y-64572272D01*
X171013185Y-64686559D01*
X171055843Y-64772227D01*
X171190456Y-64950484D01*
X171355532Y-65100971D01*
X171545450Y-65218563D01*
X171753741Y-65299255D01*
X171790429Y-65306113D01*
X171839717Y-65330656D01*
X171868703Y-65377470D01*
X171868703Y-65432530D01*
X171839717Y-65479344D01*
X171790429Y-65503886D01*
X171783571Y-65505168D01*
X171753742Y-65510744D01*
X171545449Y-65591437D01*
X171427856Y-65664247D01*
X171355532Y-65709029D01*
X171355530Y-65709030D01*
X171355531Y-65709030D01*
X171190457Y-65859514D01*
X171055842Y-66037774D01*
X170956276Y-66237727D01*
X170895145Y-66452580D01*
X170874536Y-66675000D01*
X170895145Y-66897419D01*
X170956276Y-67112272D01*
X171008137Y-67216421D01*
X171055843Y-67312227D01*
X171190456Y-67490484D01*
X171355532Y-67640971D01*
X171545450Y-67758563D01*
X171753741Y-67839255D01*
X171790429Y-67846113D01*
X171839717Y-67870656D01*
X171868703Y-67917470D01*
X171868703Y-67972530D01*
X171839717Y-68019344D01*
X171790429Y-68043886D01*
X171783571Y-68045168D01*
X171753742Y-68050744D01*
X171545449Y-68131437D01*
X171446954Y-68192423D01*
X171355532Y-68249029D01*
X171355530Y-68249030D01*
X171355531Y-68249030D01*
X171190457Y-68399514D01*
X171055842Y-68577774D01*
X170956276Y-68777727D01*
X170895145Y-68992580D01*
X170874536Y-69214999D01*
X170895145Y-69437419D01*
X170956276Y-69652272D01*
X171042678Y-69825788D01*
X171055843Y-69852227D01*
X171190456Y-70030484D01*
X171355532Y-70180971D01*
X171545450Y-70298563D01*
X171753741Y-70379255D01*
X171790429Y-70386113D01*
X171839717Y-70410656D01*
X171868703Y-70457470D01*
X171868703Y-70512530D01*
X171839717Y-70559344D01*
X171790429Y-70583886D01*
X171783571Y-70585168D01*
X171753742Y-70590744D01*
X171545449Y-70671437D01*
X171436857Y-70738675D01*
X171355532Y-70789029D01*
X171355530Y-70789030D01*
X171355531Y-70789030D01*
X171190457Y-70939514D01*
X171055842Y-71117774D01*
X170956276Y-71317727D01*
X170895145Y-71532580D01*
X170874536Y-71754999D01*
X170895145Y-71977419D01*
X170956276Y-72192272D01*
X171042678Y-72365788D01*
X171055843Y-72392227D01*
X171190456Y-72570484D01*
X171355532Y-72720971D01*
X171545450Y-72838563D01*
X171753741Y-72919255D01*
X171790429Y-72926113D01*
X171839717Y-72950656D01*
X171868703Y-72997470D01*
X171868703Y-73052530D01*
X171839717Y-73099344D01*
X171790429Y-73123886D01*
X171783571Y-73125168D01*
X171753742Y-73130744D01*
X171545449Y-73211437D01*
X171436857Y-73278675D01*
X171355532Y-73329029D01*
X171355530Y-73329030D01*
X171355531Y-73329030D01*
X171190457Y-73479514D01*
X171055842Y-73657774D01*
X170956276Y-73857727D01*
X170895145Y-74072580D01*
X170874536Y-74294999D01*
X170895145Y-74517419D01*
X170956276Y-74732272D01*
X171042678Y-74905788D01*
X171055843Y-74932227D01*
X171190456Y-75110484D01*
X171355532Y-75260971D01*
X171545450Y-75378563D01*
X171753741Y-75459255D01*
X171790429Y-75466113D01*
X171839717Y-75490656D01*
X171868703Y-75537470D01*
X171868703Y-75592530D01*
X171839717Y-75639344D01*
X171790429Y-75663886D01*
X171783571Y-75665168D01*
X171753742Y-75670744D01*
X171545449Y-75751437D01*
X171436857Y-75818675D01*
X171355532Y-75869029D01*
X171355530Y-75869030D01*
X171355531Y-75869030D01*
X171190457Y-76019514D01*
X171055842Y-76197774D01*
X170956276Y-76397727D01*
X170895145Y-76612580D01*
X170874536Y-76835000D01*
X170895145Y-77057419D01*
X170956276Y-77272272D01*
X171013185Y-77386559D01*
X171055843Y-77472227D01*
X171190456Y-77650484D01*
X171355532Y-77800971D01*
X171545450Y-77918563D01*
X171753741Y-77999255D01*
X171790429Y-78006113D01*
X171839717Y-78030656D01*
X171868703Y-78077470D01*
X171868703Y-78132530D01*
X171839717Y-78179344D01*
X171790429Y-78203886D01*
X171783571Y-78205168D01*
X171753742Y-78210744D01*
X171545449Y-78291437D01*
X171438895Y-78357413D01*
X171355532Y-78409029D01*
X171349923Y-78414142D01*
X171190457Y-78559514D01*
X171055842Y-78737774D01*
X170956276Y-78937727D01*
X170895145Y-79152580D01*
X170874536Y-79375000D01*
X170895145Y-79597419D01*
X170956276Y-79812272D01*
X171059998Y-80020571D01*
X171059054Y-80021040D01*
X171075317Y-80063017D01*
X171065200Y-80117141D01*
X171028105Y-80157832D01*
X170975146Y-80172900D01*
X167484929Y-80172900D01*
X167430877Y-80157145D01*
X167393754Y-80114815D01*
X167385190Y-80059169D01*
X167390149Y-80021499D01*
X167370927Y-79875494D01*
X167368889Y-79870575D01*
X167314570Y-79739437D01*
X167314569Y-79739434D01*
X167224920Y-79622602D01*
X167108088Y-79532953D01*
X166972027Y-79476594D01*
X166885258Y-79465171D01*
X166844336Y-79450277D01*
X166813543Y-79419484D01*
X166798650Y-79378567D01*
X166787227Y-79291793D01*
X166763883Y-79235438D01*
X166730869Y-79155734D01*
X166641220Y-79038902D01*
X166524388Y-78949253D01*
X166388327Y-78892894D01*
X166301558Y-78881471D01*
X166260636Y-78866577D01*
X166229843Y-78835784D01*
X166214950Y-78794867D01*
X166203527Y-78708093D01*
X166155996Y-78593345D01*
X166147169Y-78572034D01*
X166057520Y-78455202D01*
X165940688Y-78365553D01*
X165804627Y-78309194D01*
X165717858Y-78297771D01*
X165676936Y-78282877D01*
X165646143Y-78252084D01*
X165631250Y-78211167D01*
X165619827Y-78124393D01*
X165563470Y-77988337D01*
X165528011Y-77942126D01*
X165512562Y-77913223D01*
X165507223Y-77880886D01*
X165507223Y-77474850D01*
X165507856Y-77463585D01*
X165509861Y-77445792D01*
X165511801Y-77428576D01*
X165501528Y-77374291D01*
X165500910Y-77370655D01*
X165492683Y-77316061D01*
X165492682Y-77316059D01*
X165492102Y-77312209D01*
X165489391Y-77303970D01*
X165461786Y-77251740D01*
X165460089Y-77248379D01*
X165450506Y-77228479D01*
X165436141Y-77198649D01*
X165436140Y-77198648D01*
X165434451Y-77195140D01*
X165429436Y-77188071D01*
X165387651Y-77146286D01*
X165385042Y-77143577D01*
X165344853Y-77100265D01*
X165330998Y-77089633D01*
X157997787Y-69756422D01*
X157971552Y-69710575D01*
X157972162Y-69657756D01*
X157973721Y-69652275D01*
X157973724Y-69652270D01*
X158034854Y-69437422D01*
X158055464Y-69215000D01*
X158034854Y-68992578D01*
X157973724Y-68777730D01*
X157951152Y-68732400D01*
X157924146Y-68678165D01*
X157874157Y-68577773D01*
X157739544Y-68399516D01*
X157574468Y-68249029D01*
X157384550Y-68131437D01*
X157176259Y-68050745D01*
X157176258Y-68050744D01*
X157176256Y-68050744D01*
X157150522Y-68045934D01*
X157139570Y-68043886D01*
X157090282Y-68019344D01*
X157061296Y-67972531D01*
X157061296Y-67917469D01*
X157090282Y-67870656D01*
X157139570Y-67846113D01*
X157176259Y-67839255D01*
X157384550Y-67758563D01*
X157574468Y-67640971D01*
X157739544Y-67490484D01*
X157874157Y-67312227D01*
X157973724Y-67112270D01*
X158034854Y-66897422D01*
X158055464Y-66675000D01*
X158034854Y-66452578D01*
X157973724Y-66237730D01*
X157874157Y-66037773D01*
X157739544Y-65859516D01*
X157738190Y-65858282D01*
X157693190Y-65817259D01*
X157574468Y-65709029D01*
X157384550Y-65591437D01*
X157176259Y-65510745D01*
X157176258Y-65510744D01*
X157176256Y-65510744D01*
X157150522Y-65505934D01*
X157139570Y-65503886D01*
X157090282Y-65479344D01*
X157061296Y-65432531D01*
X157061296Y-65377469D01*
X157090282Y-65330656D01*
X157139570Y-65306113D01*
X157176259Y-65299255D01*
X157384550Y-65218563D01*
X157574468Y-65100971D01*
X157739544Y-64950484D01*
X157874157Y-64772227D01*
X157887322Y-64745788D01*
X157916815Y-64686559D01*
X157953909Y-64645868D01*
X158006868Y-64630800D01*
X159320886Y-64630800D01*
X159342260Y-64633097D01*
X159349266Y-64634621D01*
X159396756Y-64631224D01*
X159399116Y-64631056D01*
X159406291Y-64630800D01*
X159420455Y-64630800D01*
X159420457Y-64630800D01*
X159434487Y-64628782D01*
X159441616Y-64628015D01*
X159491473Y-64624451D01*
X159498183Y-64621947D01*
X159519034Y-64616626D01*
X159526119Y-64615608D01*
X159571606Y-64594833D01*
X159578210Y-64592098D01*
X159599794Y-64584048D01*
X159625053Y-64574628D01*
X159625053Y-64574627D01*
X159625055Y-64574627D01*
X159630785Y-64570336D01*
X159649287Y-64559358D01*
X159655806Y-64556382D01*
X159693595Y-64523635D01*
X159699172Y-64519143D01*
X159710509Y-64510657D01*
X159710508Y-64510657D01*
X159710512Y-64510655D01*
X159720544Y-64500621D01*
X159725772Y-64495754D01*
X159763553Y-64463018D01*
X159767425Y-64456991D01*
X159780916Y-64440249D01*
X165166166Y-59055000D01*
X170799107Y-59055000D01*
X170818642Y-59278293D01*
X170876655Y-59494799D01*
X170971383Y-59697946D01*
X171054270Y-59816320D01*
X171815592Y-59055000D01*
X172354408Y-59055000D01*
X173115728Y-59816320D01*
X173198616Y-59697946D01*
X173293344Y-59494799D01*
X173351357Y-59278293D01*
X173370892Y-59055000D01*
X173351357Y-58831706D01*
X173293344Y-58615200D01*
X173198614Y-58412051D01*
X173115728Y-58293678D01*
X172354408Y-59055000D01*
X171815592Y-59055000D01*
X171054270Y-58293678D01*
X171054269Y-58293678D01*
X170971385Y-58412051D01*
X170876655Y-58615200D01*
X170818642Y-58831706D01*
X170799107Y-59055000D01*
X165166166Y-59055000D01*
X166545901Y-57675265D01*
X166578539Y-57653458D01*
X166617037Y-57645800D01*
X171630671Y-57645800D01*
X171685462Y-57662030D01*
X171722574Y-57705482D01*
X171730032Y-57762137D01*
X171705432Y-57813714D01*
X171656709Y-57843572D01*
X171645199Y-57846655D01*
X171442051Y-57941385D01*
X171323678Y-58024269D01*
X171323678Y-58024270D01*
X172084999Y-58785591D01*
X172846320Y-58024270D01*
X172727946Y-57941383D01*
X172524800Y-57846655D01*
X172513291Y-57843572D01*
X172464568Y-57813714D01*
X172439968Y-57762137D01*
X172447426Y-57705482D01*
X172484538Y-57662030D01*
X172539329Y-57645800D01*
X177425963Y-57645800D01*
X177464461Y-57653458D01*
X177497098Y-57675265D01*
X178520235Y-58698402D01*
X178542042Y-58731039D01*
X178549700Y-58769537D01*
X178549700Y-60077580D01*
X178552661Y-60103108D01*
X178568316Y-60138562D01*
X178598766Y-60207525D01*
X178679475Y-60288234D01*
X178783891Y-60334338D01*
X178809421Y-60337300D01*
X180600578Y-60337299D01*
X180600580Y-60337299D01*
X180617598Y-60335324D01*
X180626109Y-60334338D01*
X180730525Y-60288234D01*
X180811234Y-60207525D01*
X180857338Y-60103109D01*
X180860300Y-60077579D01*
X180860299Y-58286422D01*
X180857338Y-58260891D01*
X180811234Y-58156475D01*
X180730525Y-58075766D01*
X180626109Y-58029662D01*
X180600579Y-58026700D01*
X180600577Y-58026700D01*
X179292537Y-58026700D01*
X179254039Y-58019042D01*
X179221402Y-57997235D01*
X178068919Y-56844752D01*
X178055425Y-56828007D01*
X178051553Y-56821982D01*
X178013788Y-56789258D01*
X178008533Y-56784366D01*
X177998510Y-56774343D01*
X177987175Y-56765858D01*
X177981582Y-56761351D01*
X177943808Y-56728619D01*
X177943804Y-56728617D01*
X177937278Y-56725636D01*
X177918795Y-56714669D01*
X177913055Y-56710373D01*
X177913053Y-56710372D01*
X177866227Y-56692907D01*
X177859592Y-56690159D01*
X177814118Y-56669391D01*
X177807027Y-56668372D01*
X177786186Y-56663053D01*
X177781686Y-56661374D01*
X177779471Y-56660548D01*
X177729608Y-56656982D01*
X177722473Y-56656215D01*
X177708457Y-56654200D01*
X177708455Y-56654200D01*
X177694291Y-56654200D01*
X177687116Y-56653944D01*
X177637267Y-56650379D01*
X177637266Y-56650379D01*
X177630260Y-56651902D01*
X177608886Y-56654200D01*
X166434114Y-56654200D01*
X166412739Y-56651902D01*
X166405734Y-56650379D01*
X166405732Y-56650379D01*
X166355884Y-56653944D01*
X166348709Y-56654200D01*
X166334543Y-56654200D01*
X166320521Y-56656215D01*
X166313392Y-56656982D01*
X166263525Y-56660549D01*
X166256806Y-56663055D01*
X166235977Y-56668370D01*
X166228883Y-56669390D01*
X166183418Y-56690152D01*
X166176790Y-56692898D01*
X166129944Y-56710372D01*
X166124200Y-56714672D01*
X166105713Y-56725640D01*
X166099194Y-56728617D01*
X166061420Y-56761347D01*
X166055838Y-56765846D01*
X166044488Y-56774343D01*
X166034460Y-56784371D01*
X166029211Y-56789258D01*
X165991445Y-56821983D01*
X165987572Y-56828010D01*
X165974081Y-56844750D01*
X160679122Y-62139710D01*
X160633725Y-62165827D01*
X160581352Y-62165585D01*
X160536198Y-62139050D01*
X160510501Y-62093413D01*
X160511227Y-62041044D01*
X160513722Y-62032272D01*
X160513724Y-62032270D01*
X160574854Y-61817422D01*
X160595464Y-61595000D01*
X160574854Y-61372578D01*
X160513724Y-61157730D01*
X160512464Y-61155200D01*
X160464146Y-61058165D01*
X160414157Y-60957773D01*
X160279544Y-60779516D01*
X160114468Y-60629029D01*
X159924550Y-60511437D01*
X159716259Y-60430745D01*
X159716258Y-60430744D01*
X159716256Y-60430744D01*
X159496689Y-60389700D01*
X159496688Y-60389700D01*
X159273312Y-60389700D01*
X159273311Y-60389700D01*
X159053743Y-60430744D01*
X158845449Y-60511437D01*
X158737910Y-60578023D01*
X158655532Y-60629029D01*
X158643133Y-60640331D01*
X158490457Y-60779514D01*
X158355842Y-60957774D01*
X158256274Y-61157732D01*
X158251783Y-61173517D01*
X158225277Y-61217992D01*
X158180162Y-61243395D01*
X158128388Y-61242996D01*
X158083670Y-61216901D01*
X158057852Y-61172023D01*
X158053344Y-61155200D01*
X157958614Y-60952051D01*
X157875728Y-60833678D01*
X157114408Y-61595000D01*
X157875728Y-62356320D01*
X157958616Y-62237946D01*
X158053344Y-62034798D01*
X158057852Y-62017977D01*
X158083670Y-61973098D01*
X158128388Y-61947003D01*
X158180162Y-61946604D01*
X158225277Y-61972007D01*
X158251784Y-62016483D01*
X158256276Y-62032271D01*
X158346196Y-62212853D01*
X158355843Y-62232227D01*
X158490456Y-62410484D01*
X158655532Y-62560971D01*
X158845450Y-62678563D01*
X159053741Y-62759255D01*
X159200121Y-62786618D01*
X159273311Y-62800300D01*
X159273312Y-62800300D01*
X159496688Y-62800300D01*
X159496689Y-62800300D01*
X159551580Y-62790038D01*
X159716259Y-62759255D01*
X159832000Y-62714416D01*
X159885909Y-62709170D01*
X159934726Y-62732640D01*
X159964297Y-62778022D01*
X159966049Y-62832160D01*
X159939473Y-62879359D01*
X159209098Y-63609735D01*
X159176461Y-63631542D01*
X159137963Y-63639200D01*
X158006868Y-63639200D01*
X157953909Y-63624132D01*
X157916815Y-63583441D01*
X157874159Y-63497776D01*
X157811150Y-63414338D01*
X157739544Y-63319516D01*
X157738190Y-63318282D01*
X157693190Y-63277259D01*
X157574468Y-63169029D01*
X157384550Y-63051437D01*
X157252399Y-63000241D01*
X157204245Y-62961031D01*
X157188288Y-62901015D01*
X157210611Y-62843065D01*
X157262707Y-62809263D01*
X157284802Y-62803343D01*
X157487946Y-62708616D01*
X157606320Y-62625728D01*
X156845000Y-61864408D01*
X156083678Y-62625728D01*
X156202053Y-62708616D01*
X156405201Y-62803344D01*
X156427293Y-62809264D01*
X156479388Y-62843065D01*
X156501711Y-62901016D01*
X156485754Y-62961031D01*
X156437598Y-63000243D01*
X156305449Y-63051437D01*
X156187857Y-63124247D01*
X156115532Y-63169029D01*
X156115530Y-63169030D01*
X156115531Y-63169030D01*
X155950457Y-63319514D01*
X155815842Y-63497774D01*
X155716276Y-63697727D01*
X155655145Y-63912580D01*
X155634536Y-64134999D01*
X155655145Y-64357419D01*
X155716276Y-64572272D01*
X155773185Y-64686559D01*
X155815843Y-64772227D01*
X155950456Y-64950484D01*
X156115532Y-65100971D01*
X156305450Y-65218563D01*
X156513741Y-65299255D01*
X156550429Y-65306113D01*
X156599717Y-65330656D01*
X156628703Y-65377470D01*
X156628703Y-65432530D01*
X156599717Y-65479344D01*
X156550429Y-65503886D01*
X156543571Y-65505168D01*
X156513742Y-65510744D01*
X156305449Y-65591437D01*
X156187856Y-65664247D01*
X156115532Y-65709029D01*
X156115530Y-65709030D01*
X156115531Y-65709030D01*
X155950457Y-65859514D01*
X155815842Y-66037774D01*
X155716276Y-66237727D01*
X155655145Y-66452580D01*
X155634536Y-66675000D01*
X155655145Y-66897419D01*
X155717837Y-67117755D01*
X155718447Y-67170574D01*
X155692212Y-67216421D01*
X155330273Y-67578360D01*
X155321863Y-67585876D01*
X155294321Y-67607840D01*
X155263223Y-67653452D01*
X155261047Y-67656518D01*
X155225975Y-67704039D01*
X155222057Y-67711799D01*
X155204651Y-67768226D01*
X155203477Y-67771794D01*
X155183955Y-67827589D01*
X155182500Y-67836154D01*
X155182500Y-67895218D01*
X155182430Y-67898979D01*
X155180220Y-67958044D01*
X155182500Y-67975358D01*
X155182500Y-77788120D01*
X155174842Y-77826618D01*
X155153035Y-77859255D01*
X151178315Y-81833973D01*
X151129080Y-81861025D01*
X151073015Y-81857459D01*
X151027605Y-81824386D01*
X151007009Y-81772119D01*
X151000494Y-81701807D01*
X151000494Y-81701805D01*
X150941900Y-81495870D01*
X150941899Y-81495868D01*
X150941898Y-81495864D01*
X150846466Y-81304211D01*
X150846464Y-81304208D01*
X150717434Y-81133345D01*
X150680325Y-81099516D01*
X150559204Y-80989099D01*
X150377170Y-80876390D01*
X150377167Y-80876388D01*
X150219812Y-80815428D01*
X150177515Y-80799042D01*
X149967054Y-80759700D01*
X149752946Y-80759700D01*
X149542484Y-80799042D01*
X149427423Y-80843617D01*
X149342833Y-80876388D01*
X149342831Y-80876389D01*
X149342829Y-80876390D01*
X149160795Y-80989099D01*
X149002567Y-81133343D01*
X148873533Y-81304211D01*
X148778101Y-81495864D01*
X148719505Y-81701807D01*
X148699751Y-81915000D01*
X148719505Y-82128192D01*
X148778101Y-82334135D01*
X148873533Y-82525788D01*
X148873535Y-82525791D01*
X148873536Y-82525792D01*
X148972726Y-82657141D01*
X149002567Y-82696656D01*
X149100137Y-82785603D01*
X149128687Y-82830930D01*
X149129924Y-82884486D01*
X149103497Y-82931083D01*
X149072519Y-82962060D01*
X149069813Y-82964666D01*
X149026489Y-83004867D01*
X149015857Y-83018722D01*
X148395278Y-83639300D01*
X148386869Y-83646815D01*
X148359322Y-83668784D01*
X148328223Y-83714397D01*
X148326047Y-83717463D01*
X148290975Y-83764984D01*
X148287057Y-83772744D01*
X148269651Y-83829171D01*
X148268477Y-83832739D01*
X148248955Y-83888534D01*
X148247500Y-83897099D01*
X148247500Y-83956163D01*
X148247430Y-83959924D01*
X148245220Y-84018989D01*
X148247500Y-84036303D01*
X148247500Y-89993934D01*
X148246866Y-90005198D01*
X148242923Y-90040202D01*
X147320500Y-90040202D01*
X147320500Y-79374999D01*
X148699751Y-79374999D01*
X148719505Y-79588192D01*
X148778101Y-79794135D01*
X148873533Y-79985788D01*
X148873535Y-79985791D01*
X148873536Y-79985792D01*
X148984154Y-80132274D01*
X149002567Y-80156656D01*
X149160795Y-80300900D01*
X149237468Y-80348373D01*
X149342833Y-80413612D01*
X149542483Y-80490957D01*
X149752946Y-80530300D01*
X149967054Y-80530300D01*
X150177517Y-80490957D01*
X150377167Y-80413612D01*
X150559206Y-80300899D01*
X150717434Y-80156655D01*
X150846464Y-79985792D01*
X150907578Y-79863058D01*
X150941898Y-79794135D01*
X150941898Y-79794132D01*
X150941900Y-79794130D01*
X151000494Y-79588195D01*
X151020249Y-79375000D01*
X151000494Y-79161805D01*
X150941900Y-78955870D01*
X150941899Y-78955868D01*
X150941898Y-78955864D01*
X150846466Y-78764211D01*
X150826501Y-78737773D01*
X150717434Y-78593345D01*
X150680325Y-78559516D01*
X150559204Y-78449099D01*
X150377170Y-78336390D01*
X150377167Y-78336388D01*
X150206830Y-78270399D01*
X150177515Y-78259042D01*
X149967054Y-78219700D01*
X149752946Y-78219700D01*
X149542484Y-78259042D01*
X149454982Y-78292941D01*
X149342833Y-78336388D01*
X149342831Y-78336389D01*
X149342829Y-78336390D01*
X149160795Y-78449099D01*
X149002567Y-78593343D01*
X148873533Y-78764211D01*
X148778101Y-78955864D01*
X148719505Y-79161807D01*
X148699751Y-79374999D01*
X147320500Y-79374999D01*
X147320500Y-74294999D01*
X148699751Y-74294999D01*
X148719505Y-74508192D01*
X148778101Y-74714135D01*
X148873533Y-74905788D01*
X149002567Y-75076656D01*
X149160795Y-75220900D01*
X149173031Y-75228476D01*
X149342833Y-75333612D01*
X149542483Y-75410957D01*
X149752946Y-75450300D01*
X149967054Y-75450300D01*
X150177517Y-75410957D01*
X150377167Y-75333612D01*
X150559206Y-75220899D01*
X150717434Y-75076655D01*
X150846464Y-74905792D01*
X150907578Y-74783058D01*
X150941898Y-74714135D01*
X150941898Y-74714132D01*
X150941900Y-74714130D01*
X151000494Y-74508195D01*
X151020249Y-74295000D01*
X151000494Y-74081805D01*
X150941900Y-73875870D01*
X150941899Y-73875868D01*
X150941898Y-73875864D01*
X150846466Y-73684211D01*
X150807362Y-73632429D01*
X150717434Y-73513345D01*
X150680325Y-73479516D01*
X150559204Y-73369099D01*
X150377170Y-73256390D01*
X150377167Y-73256388D01*
X150207837Y-73190789D01*
X150177515Y-73179042D01*
X149967054Y-73139700D01*
X149752946Y-73139700D01*
X149542484Y-73179042D01*
X149458862Y-73211438D01*
X149342833Y-73256388D01*
X149342831Y-73256389D01*
X149342829Y-73256390D01*
X149160795Y-73369099D01*
X149002567Y-73513343D01*
X148873533Y-73684211D01*
X148778101Y-73875864D01*
X148719505Y-74081807D01*
X148699751Y-74294999D01*
X147320500Y-74294999D01*
X147320500Y-71754999D01*
X148699751Y-71754999D01*
X148719505Y-71968192D01*
X148778101Y-72174135D01*
X148873533Y-72365788D01*
X149002567Y-72536656D01*
X149160795Y-72680900D01*
X149225510Y-72720969D01*
X149342833Y-72793612D01*
X149542483Y-72870957D01*
X149752946Y-72910300D01*
X149967054Y-72910300D01*
X150177517Y-72870957D01*
X150377167Y-72793612D01*
X150559206Y-72680899D01*
X150717434Y-72536655D01*
X150846464Y-72365792D01*
X150907578Y-72243058D01*
X150941898Y-72174135D01*
X150941898Y-72174132D01*
X150941900Y-72174130D01*
X151000494Y-71968195D01*
X151020249Y-71755000D01*
X151000494Y-71541805D01*
X150941900Y-71335870D01*
X150941899Y-71335868D01*
X150941898Y-71335864D01*
X150846466Y-71144211D01*
X150807362Y-71092429D01*
X150717434Y-70973345D01*
X150680325Y-70939516D01*
X150559204Y-70829099D01*
X150377170Y-70716390D01*
X150377167Y-70716388D01*
X150207837Y-70650789D01*
X150177515Y-70639042D01*
X149967054Y-70599700D01*
X149752946Y-70599700D01*
X149542484Y-70639042D01*
X149458862Y-70671438D01*
X149342833Y-70716388D01*
X149342831Y-70716389D01*
X149342829Y-70716390D01*
X149160795Y-70829099D01*
X149002567Y-70973343D01*
X148873533Y-71144211D01*
X148778101Y-71335864D01*
X148719505Y-71541807D01*
X148699751Y-71754999D01*
X147320500Y-71754999D01*
X147320500Y-69215000D01*
X148699751Y-69215000D01*
X148719505Y-69428192D01*
X148778101Y-69634135D01*
X148873533Y-69825788D01*
X148873535Y-69825791D01*
X148873536Y-69825792D01*
X148992691Y-69983579D01*
X149002567Y-69996656D01*
X149160795Y-70140900D01*
X149225510Y-70180969D01*
X149342833Y-70253612D01*
X149542483Y-70330957D01*
X149752946Y-70370300D01*
X149967054Y-70370300D01*
X150177517Y-70330957D01*
X150377167Y-70253612D01*
X150559206Y-70140899D01*
X150717434Y-69996655D01*
X150846464Y-69825792D01*
X150881006Y-69756422D01*
X150941898Y-69634135D01*
X150941898Y-69634132D01*
X150941900Y-69634130D01*
X151000494Y-69428195D01*
X151020249Y-69215000D01*
X151000494Y-69001805D01*
X150941900Y-68795870D01*
X150941899Y-68795868D01*
X150941898Y-68795864D01*
X150846466Y-68604211D01*
X150717432Y-68433343D01*
X150559204Y-68289099D01*
X150377170Y-68176390D01*
X150377167Y-68176388D01*
X150219812Y-68115428D01*
X150177515Y-68099042D01*
X149967054Y-68059700D01*
X149752946Y-68059700D01*
X149542484Y-68099042D01*
X149458859Y-68131439D01*
X149342833Y-68176388D01*
X149342831Y-68176389D01*
X149342829Y-68176390D01*
X149160795Y-68289099D01*
X149002567Y-68433343D01*
X148873533Y-68604211D01*
X148778101Y-68795864D01*
X148719505Y-69001807D01*
X148699751Y-69215000D01*
X147320500Y-69215000D01*
X147320500Y-66674999D01*
X148699751Y-66674999D01*
X148719505Y-66888192D01*
X148778101Y-67094135D01*
X148873533Y-67285788D01*
X149002567Y-67456656D01*
X149160795Y-67600900D01*
X149172004Y-67607840D01*
X149342833Y-67713612D01*
X149542483Y-67790957D01*
X149752946Y-67830300D01*
X149967054Y-67830300D01*
X150177517Y-67790957D01*
X150377167Y-67713612D01*
X150559206Y-67600899D01*
X150717434Y-67456655D01*
X150846464Y-67285792D01*
X150906245Y-67165736D01*
X150941898Y-67094135D01*
X150941898Y-67094132D01*
X150941900Y-67094130D01*
X151000494Y-66888195D01*
X151020249Y-66675000D01*
X151000494Y-66461805D01*
X150941900Y-66255870D01*
X150941899Y-66255868D01*
X150941898Y-66255864D01*
X150846466Y-66064211D01*
X150826501Y-66037773D01*
X150717434Y-65893345D01*
X150680325Y-65859516D01*
X150559204Y-65749099D01*
X150377170Y-65636390D01*
X150377167Y-65636388D01*
X150219812Y-65575428D01*
X150177515Y-65559042D01*
X149967054Y-65519700D01*
X149752946Y-65519700D01*
X149542484Y-65559042D01*
X149427423Y-65603617D01*
X149342833Y-65636388D01*
X149342831Y-65636389D01*
X149342829Y-65636390D01*
X149160795Y-65749099D01*
X149002567Y-65893343D01*
X148873533Y-66064211D01*
X148778101Y-66255864D01*
X148719505Y-66461807D01*
X148699751Y-66674999D01*
X147320500Y-66674999D01*
X147320500Y-61785500D01*
X148640965Y-61785500D01*
X148643070Y-61809576D01*
X148698819Y-62017633D01*
X148789852Y-62212853D01*
X148913395Y-62389292D01*
X149065707Y-62541604D01*
X149242146Y-62665147D01*
X149437366Y-62756180D01*
X149630525Y-62807937D01*
X149676710Y-62835078D01*
X149702416Y-62882076D01*
X149700354Y-62935606D01*
X149671109Y-62980488D01*
X149622974Y-63003996D01*
X149542484Y-63019042D01*
X149427423Y-63063617D01*
X149342833Y-63096388D01*
X149342831Y-63096389D01*
X149342829Y-63096390D01*
X149160795Y-63209099D01*
X149002567Y-63353343D01*
X148873533Y-63524211D01*
X148778101Y-63715864D01*
X148719505Y-63921807D01*
X148699751Y-64135000D01*
X148719505Y-64348192D01*
X148778101Y-64554135D01*
X148873533Y-64745788D01*
X149002567Y-64916656D01*
X149160795Y-65060900D01*
X149225510Y-65100969D01*
X149342833Y-65173612D01*
X149542483Y-65250957D01*
X149752946Y-65290300D01*
X149967054Y-65290300D01*
X150177517Y-65250957D01*
X150377167Y-65173612D01*
X150559206Y-65060899D01*
X150717434Y-64916655D01*
X150846464Y-64745792D01*
X150846466Y-64745788D01*
X150941898Y-64554135D01*
X150941898Y-64554132D01*
X150941900Y-64554130D01*
X151000494Y-64348195D01*
X151020249Y-64135000D01*
X151000494Y-63921805D01*
X150941900Y-63715870D01*
X150941899Y-63715868D01*
X150941898Y-63715864D01*
X150846466Y-63524211D01*
X150826501Y-63497773D01*
X150717434Y-63353345D01*
X150680325Y-63319516D01*
X150559204Y-63209099D01*
X150377170Y-63096390D01*
X150377167Y-63096388D01*
X150219812Y-63035428D01*
X150177515Y-63019042D01*
X150097025Y-63003996D01*
X150048890Y-62980488D01*
X150019645Y-62935606D01*
X150017583Y-62882076D01*
X150043289Y-62835078D01*
X150089474Y-62807937D01*
X150282633Y-62756180D01*
X150477853Y-62665147D01*
X150654292Y-62541604D01*
X150806604Y-62389292D01*
X150930147Y-62212853D01*
X151021180Y-62017633D01*
X151076929Y-61809576D01*
X151079035Y-61785500D01*
X148640965Y-61785500D01*
X147320500Y-61785500D01*
X147320500Y-61404500D01*
X148640965Y-61404500D01*
X151079034Y-61404500D01*
X151076929Y-61380423D01*
X151021180Y-61172366D01*
X150930147Y-60977146D01*
X150806604Y-60800707D01*
X150654292Y-60648395D01*
X150477853Y-60524852D01*
X150282632Y-60433819D01*
X150186540Y-60408071D01*
X150137816Y-60378213D01*
X150113216Y-60326636D01*
X150120674Y-60269981D01*
X150157786Y-60226529D01*
X150212575Y-60210299D01*
X150755578Y-60210299D01*
X150755581Y-60210299D01*
X150774726Y-60208078D01*
X150781109Y-60207338D01*
X150885525Y-60161234D01*
X150966234Y-60080525D01*
X151012338Y-59976109D01*
X151015300Y-59950579D01*
X151015300Y-59651400D01*
X151028778Y-59601100D01*
X151065600Y-59564278D01*
X151115900Y-59550800D01*
X152462663Y-59550800D01*
X152518553Y-59567754D01*
X152555605Y-59612902D01*
X152561330Y-59671026D01*
X152533798Y-59722535D01*
X151967750Y-60288581D01*
X151951010Y-60302072D01*
X151944983Y-60305945D01*
X151912258Y-60343711D01*
X151907371Y-60348960D01*
X151897345Y-60358986D01*
X151888855Y-60370328D01*
X151884353Y-60375914D01*
X151851616Y-60413695D01*
X151848636Y-60420220D01*
X151837672Y-60438699D01*
X151833373Y-60444442D01*
X151815902Y-60491282D01*
X151813155Y-60497914D01*
X151792391Y-60543379D01*
X151791371Y-60550477D01*
X151786053Y-60571310D01*
X151783549Y-60578023D01*
X151779982Y-60627892D01*
X151779215Y-60635027D01*
X151777200Y-60649045D01*
X151777200Y-60663209D01*
X151776944Y-60670384D01*
X151773379Y-60720234D01*
X151774902Y-60727239D01*
X151777200Y-60748614D01*
X151777200Y-73373886D01*
X151774902Y-73395260D01*
X151773379Y-73402266D01*
X151773379Y-73402267D01*
X151776944Y-73452116D01*
X151777200Y-73459291D01*
X151777200Y-73473455D01*
X151779215Y-73487473D01*
X151779982Y-73494608D01*
X151783548Y-73544471D01*
X151784374Y-73546686D01*
X151786053Y-73551186D01*
X151791372Y-73572027D01*
X151792391Y-73579118D01*
X151813159Y-73624592D01*
X151815907Y-73631227D01*
X151825808Y-73657774D01*
X151833373Y-73678055D01*
X151837669Y-73683795D01*
X151848636Y-73702278D01*
X151851618Y-73708806D01*
X151851619Y-73708808D01*
X151884351Y-73746582D01*
X151888858Y-73752175D01*
X151897343Y-73763510D01*
X151907366Y-73773533D01*
X151912259Y-73778789D01*
X151944982Y-73816553D01*
X151951007Y-73820425D01*
X151967752Y-73833919D01*
X152635235Y-74501402D01*
X152657042Y-74534039D01*
X152664700Y-74572537D01*
X152664700Y-75228479D01*
X152675415Y-75317708D01*
X152675415Y-75317710D01*
X152675416Y-75317711D01*
X152712188Y-75410957D01*
X152731416Y-75459717D01*
X152823651Y-75581348D01*
X152887413Y-75629700D01*
X152945283Y-75673584D01*
X153087289Y-75729584D01*
X153105363Y-75731754D01*
X153133369Y-75735118D01*
X153186184Y-75758059D01*
X153217766Y-75806209D01*
X153217766Y-75863791D01*
X153186184Y-75911941D01*
X153133369Y-75934882D01*
X153087291Y-75940415D01*
X152945282Y-75996416D01*
X152823651Y-76088651D01*
X152731415Y-76210283D01*
X152705696Y-76275505D01*
X152668712Y-76321766D01*
X152612110Y-76339200D01*
X150966012Y-76339200D01*
X150913053Y-76324132D01*
X150875959Y-76283441D01*
X150846466Y-76224211D01*
X150835948Y-76210283D01*
X150717434Y-76053345D01*
X150680325Y-76019516D01*
X150559204Y-75909099D01*
X150393862Y-75806725D01*
X150377167Y-75796388D01*
X150207837Y-75730789D01*
X150177515Y-75719042D01*
X149967054Y-75679700D01*
X149752946Y-75679700D01*
X149542484Y-75719042D01*
X149458862Y-75751438D01*
X149342833Y-75796388D01*
X149342831Y-75796389D01*
X149342829Y-75796390D01*
X149160795Y-75909099D01*
X149002567Y-76053343D01*
X148873533Y-76224211D01*
X148778101Y-76415864D01*
X148719505Y-76621807D01*
X148699751Y-76835000D01*
X148719505Y-77048192D01*
X148778101Y-77254135D01*
X148873533Y-77445788D01*
X148873535Y-77445791D01*
X148873536Y-77445792D01*
X148975903Y-77581348D01*
X149002567Y-77616656D01*
X149160795Y-77760900D01*
X149225510Y-77800969D01*
X149342833Y-77873612D01*
X149542483Y-77950957D01*
X149752946Y-77990300D01*
X149967054Y-77990300D01*
X150177517Y-77950957D01*
X150377167Y-77873612D01*
X150559206Y-77760899D01*
X150717434Y-77616655D01*
X150846464Y-77445792D01*
X150872007Y-77394495D01*
X150875959Y-77386559D01*
X150913053Y-77345868D01*
X150966012Y-77330800D01*
X152612110Y-77330800D01*
X152668712Y-77348234D01*
X152705696Y-77394495D01*
X152731415Y-77459716D01*
X152823651Y-77581348D01*
X152915886Y-77651292D01*
X152945283Y-77673584D01*
X153087289Y-77729584D01*
X153122983Y-77733870D01*
X153176521Y-77740300D01*
X153176524Y-77740300D01*
X154163476Y-77740300D01*
X154163479Y-77740300D01*
X154208093Y-77734941D01*
X154252711Y-77729584D01*
X154394717Y-77673584D01*
X154516348Y-77581348D01*
X154608584Y-77459717D01*
X154664584Y-77317711D01*
X154675300Y-77228476D01*
X154675300Y-76441524D01*
X154664584Y-76352289D01*
X154608584Y-76210283D01*
X154540528Y-76120538D01*
X154516348Y-76088651D01*
X154394717Y-75996416D01*
X154252708Y-75940415D01*
X154206631Y-75934882D01*
X154153815Y-75911941D01*
X154122233Y-75863792D01*
X154122233Y-75806208D01*
X154153815Y-75758059D01*
X154206631Y-75735118D01*
X154230043Y-75732306D01*
X154252711Y-75729584D01*
X154394717Y-75673584D01*
X154516348Y-75581348D01*
X154608584Y-75459717D01*
X154664584Y-75317711D01*
X154675300Y-75228476D01*
X154675300Y-74441524D01*
X154664584Y-74352289D01*
X154608584Y-74210283D01*
X154576519Y-74167999D01*
X154516348Y-74088651D01*
X154394717Y-73996416D01*
X154252708Y-73940415D01*
X154163479Y-73929700D01*
X154163476Y-73929700D01*
X153507537Y-73929700D01*
X153469039Y-73922042D01*
X153436402Y-73900235D01*
X152798265Y-73262098D01*
X152776458Y-73229461D01*
X152768800Y-73190963D01*
X152768800Y-62357405D01*
X152782410Y-62306877D01*
X152819557Y-62270020D01*
X152870191Y-62256808D01*
X152920610Y-62270815D01*
X152942405Y-62283705D01*
X153095506Y-62328184D01*
X153131277Y-62331000D01*
X153479500Y-62331000D01*
X153479500Y-61553000D01*
X153860500Y-61553000D01*
X153860500Y-62330999D01*
X154208727Y-62330999D01*
X154244496Y-62328185D01*
X154397591Y-62283706D01*
X154534817Y-62202550D01*
X154647550Y-62089817D01*
X154728705Y-61952594D01*
X154773184Y-61799493D01*
X154776000Y-61763723D01*
X154776000Y-61595000D01*
X155559107Y-61595000D01*
X155578642Y-61818293D01*
X155636655Y-62034799D01*
X155731383Y-62237946D01*
X155814270Y-62356320D01*
X156575592Y-61595000D01*
X155814270Y-60833678D01*
X155814269Y-60833678D01*
X155731385Y-60952051D01*
X155636655Y-61155200D01*
X155578642Y-61371706D01*
X155559107Y-61595000D01*
X154776000Y-61595000D01*
X154776000Y-61553000D01*
X153860500Y-61553000D01*
X153479500Y-61553000D01*
X153479500Y-60394001D01*
X153479499Y-60394000D01*
X153860500Y-60394000D01*
X153860500Y-61172000D01*
X154775999Y-61172000D01*
X154775999Y-60961273D01*
X154773185Y-60925503D01*
X154728706Y-60772408D01*
X154647550Y-60635182D01*
X154534817Y-60522449D01*
X154397594Y-60441294D01*
X154244493Y-60396815D01*
X154208723Y-60394000D01*
X153860500Y-60394000D01*
X153479499Y-60394000D01*
X153467290Y-60381791D01*
X153451638Y-60377042D01*
X153414590Y-60331891D01*
X153408870Y-60273766D01*
X153436403Y-60222263D01*
X153448908Y-60209758D01*
X153481543Y-60187956D01*
X153520037Y-60180300D01*
X154188479Y-60180300D01*
X154233093Y-60174942D01*
X154277711Y-60169584D01*
X154419717Y-60113584D01*
X154541348Y-60021348D01*
X154633584Y-59899717D01*
X154654375Y-59846993D01*
X154691359Y-59800734D01*
X154747961Y-59783300D01*
X155834525Y-59783300D01*
X155879366Y-59793847D01*
X155914804Y-59823274D01*
X155950456Y-59870484D01*
X156115532Y-60020971D01*
X156305450Y-60138563D01*
X156437600Y-60189758D01*
X156485753Y-60228967D01*
X156501711Y-60288982D01*
X156479390Y-60346932D01*
X156427296Y-60380735D01*
X156405198Y-60386656D01*
X156202051Y-60481385D01*
X156083678Y-60564269D01*
X156083678Y-60564270D01*
X156844999Y-61325591D01*
X157606320Y-60564270D01*
X157487946Y-60481383D01*
X157284800Y-60386655D01*
X157262704Y-60380735D01*
X157210609Y-60346932D01*
X157188288Y-60288982D01*
X157204246Y-60228967D01*
X157252399Y-60189758D01*
X157384550Y-60138563D01*
X157574468Y-60020971D01*
X157739544Y-59870484D01*
X157874157Y-59692227D01*
X157973724Y-59492270D01*
X158034854Y-59277422D01*
X158055464Y-59055000D01*
X158034854Y-58832578D01*
X157992054Y-58682153D01*
X157991443Y-58629334D01*
X158017676Y-58583489D01*
X160195901Y-56405265D01*
X160228539Y-56383458D01*
X160267037Y-56375800D01*
X178467546Y-56375800D01*
X178522466Y-56392114D01*
X178559574Y-56435765D01*
X178598765Y-56524523D01*
X178598766Y-56524525D01*
X178679475Y-56605234D01*
X178783891Y-56651338D01*
X178809421Y-56654300D01*
X180600578Y-56654299D01*
X180600580Y-56654299D01*
X180621246Y-56651902D01*
X180626109Y-56651338D01*
X180730525Y-56605234D01*
X180811234Y-56524525D01*
X180857338Y-56420109D01*
X180860300Y-56394579D01*
X180860299Y-54603422D01*
X180857338Y-54577891D01*
X180811234Y-54473475D01*
X180730525Y-54392766D01*
X180626109Y-54346662D01*
X180600579Y-54343700D01*
X180600577Y-54343700D01*
X178809419Y-54343700D01*
X178783891Y-54346661D01*
X178679475Y-54392766D01*
X178598766Y-54473475D01*
X178552662Y-54577890D01*
X178549700Y-54603423D01*
X178549700Y-55283600D01*
X178536222Y-55333900D01*
X178499400Y-55370722D01*
X178449100Y-55384200D01*
X160084114Y-55384200D01*
X160062739Y-55381902D01*
X160055734Y-55380379D01*
X160055732Y-55380379D01*
X160005884Y-55383944D01*
X159998709Y-55384200D01*
X159984543Y-55384200D01*
X159970521Y-55386215D01*
X159963392Y-55386982D01*
X159913523Y-55390549D01*
X159906810Y-55393053D01*
X159885977Y-55398371D01*
X159878879Y-55399391D01*
X159833414Y-55420155D01*
X159826782Y-55422902D01*
X159779942Y-55440373D01*
X159774199Y-55444672D01*
X159755720Y-55455636D01*
X159749195Y-55458616D01*
X159711414Y-55491353D01*
X159705828Y-55495855D01*
X159694486Y-55504345D01*
X159684460Y-55514371D01*
X159679211Y-55519258D01*
X159641445Y-55551983D01*
X159637572Y-55558010D01*
X159624081Y-55574750D01*
X157317628Y-57881203D01*
X157267258Y-57908502D01*
X157210154Y-57903875D01*
X157176260Y-57890745D01*
X156956689Y-57849700D01*
X156956688Y-57849700D01*
X156733312Y-57849700D01*
X156733311Y-57849700D01*
X156513743Y-57890744D01*
X156305449Y-57971437D01*
X156216197Y-58026700D01*
X156115532Y-58089029D01*
X156115530Y-58089030D01*
X156115531Y-58089030D01*
X155950457Y-58239514D01*
X155815842Y-58417774D01*
X155716276Y-58617727D01*
X155687567Y-58718631D01*
X155667203Y-58756552D01*
X155632854Y-58782492D01*
X155590807Y-58791700D01*
X154747961Y-58791700D01*
X154691359Y-58774266D01*
X154654375Y-58728006D01*
X154650678Y-58718631D01*
X154633584Y-58675283D01*
X154589938Y-58617727D01*
X154541348Y-58553651D01*
X154419717Y-58461416D01*
X154412576Y-58458600D01*
X154277711Y-58405416D01*
X154277710Y-58405415D01*
X154277708Y-58405415D01*
X154188479Y-58394700D01*
X154188476Y-58394700D01*
X153151524Y-58394700D01*
X153151521Y-58394700D01*
X153062291Y-58405415D01*
X152920282Y-58461416D01*
X152818291Y-58538759D01*
X152789570Y-58553953D01*
X152757505Y-58559200D01*
X151115899Y-58559200D01*
X151065599Y-58545722D01*
X151028777Y-58508900D01*
X151015299Y-58458600D01*
X151015299Y-58159419D01*
X151012338Y-58133891D01*
X150992530Y-58089030D01*
X150966234Y-58029475D01*
X150885525Y-57948766D01*
X150781109Y-57902662D01*
X150755579Y-57899700D01*
X150755577Y-57899700D01*
X148964419Y-57899700D01*
X148938891Y-57902661D01*
X148834475Y-57948766D01*
X148753766Y-58029475D01*
X148707662Y-58133890D01*
X148704700Y-58159422D01*
X148704700Y-59950580D01*
X148707661Y-59976108D01*
X148727470Y-60020971D01*
X148753766Y-60080525D01*
X148834475Y-60161234D01*
X148938891Y-60207338D01*
X148964421Y-60210300D01*
X149507423Y-60210299D01*
X149562211Y-60226529D01*
X149599324Y-60269981D01*
X149606783Y-60326636D01*
X149582182Y-60378213D01*
X149533459Y-60408071D01*
X149437365Y-60433819D01*
X149242146Y-60524852D01*
X149065707Y-60648395D01*
X148913395Y-60800707D01*
X148789852Y-60977146D01*
X148698819Y-61172366D01*
X148643070Y-61380423D01*
X148640965Y-61404500D01*
X147320500Y-61404500D01*
X147320500Y-53440600D01*
X147333978Y-53390300D01*
X147370800Y-53353478D01*
X147421100Y-53340000D01*
X149840626Y-53340000D01*
X149877987Y-53347194D01*
G37*
%TD.AperFunction*%
%TD*%
M02*
