%TF.GenerationSoftware,KiCad,Pcbnew,7.0.1-0*%
%TF.CreationDate,2023-11-23T13:32:58-05:00*%
%TF.ProjectId,OBDBajaUC,4f424442-616a-4615-9543-2e6b69636164,rev?*%
%TF.SameCoordinates,Original*%
%TF.FileFunction,Drillmap*%
%TF.FilePolarity,Positive*%
%FSLAX45Y45*%
G04 Gerber Fmt 4.5, Leading zero omitted, Abs format (unit mm)*
G04 Created by KiCad (PCBNEW 7.0.1-0) date 2023-11-23 13:32:58*
%MOMM*%
%LPD*%
G01*
G04 APERTURE LIST*
%ADD10C,0.100000*%
%ADD11C,0.200000*%
%ADD12C,0.025400*%
%ADD13C,0.114000*%
G04 APERTURE END LIST*
D10*
X14732000Y-9779000D02*
X14732000Y-10096500D01*
X17589500Y-9779000D02*
X15494000Y-9779000D01*
X15494000Y-5016500D02*
G75*
G03*
X14732000Y-5016500I-381000J0D01*
G01*
X14732000Y-5334000D02*
X14732000Y-5016500D01*
X15494000Y-9779000D02*
X15494000Y-10096500D01*
X15494000Y-5334000D02*
X15494000Y-5016500D01*
X18351500Y-9779000D02*
X18351500Y-10096500D01*
X17589500Y-10096500D02*
G75*
G03*
X18351500Y-10096500I381000J0D01*
G01*
X18351500Y-5016500D02*
G75*
G03*
X17589500Y-5016500I-381000J0D01*
G01*
X17589500Y-5334000D02*
X15494000Y-5334000D01*
X18351500Y-9779000D02*
X18351500Y-5334000D01*
X14732000Y-5334000D02*
X14732000Y-9779000D01*
X18351500Y-5334000D02*
X18351500Y-5016500D01*
X17589500Y-9779000D02*
X17589500Y-10096500D01*
X17589500Y-5334000D02*
X17589500Y-5016500D01*
X14732000Y-10096500D02*
G75*
G03*
X15494000Y-10096500I381000J0D01*
G01*
D11*
D12*
X15900400Y-8877300D02*
X15925800Y-8902700D01*
X15925800Y-8877300D02*
X15900400Y-8902700D01*
X16494792Y-7814340D02*
X16520192Y-7839740D01*
X16520192Y-7814340D02*
X16494792Y-7839740D01*
X16553162Y-7872710D02*
X16578562Y-7898110D01*
X16578562Y-7872710D02*
X16553162Y-7898110D01*
X16611532Y-7931080D02*
X16636932Y-7956480D01*
X16636932Y-7931080D02*
X16611532Y-7956480D01*
X16669902Y-7989450D02*
X16695302Y-8014850D01*
X16695302Y-7989450D02*
X16669902Y-8014850D01*
X17056100Y-8877300D02*
X17081500Y-8902700D01*
X17081500Y-8877300D02*
X17056100Y-8902700D01*
D10*
X15036000Y-5905500D02*
G75*
G03*
X15036000Y-5905500I-50000J0D01*
G01*
X15036000Y-6159500D02*
G75*
G03*
X15036000Y-6159500I-50000J0D01*
G01*
X15036000Y-6413500D02*
G75*
G03*
X15036000Y-6413500I-50000J0D01*
G01*
X15036000Y-6667500D02*
G75*
G03*
X15036000Y-6667500I-50000J0D01*
G01*
X15036000Y-6921500D02*
G75*
G03*
X15036000Y-6921500I-50000J0D01*
G01*
X15036000Y-7175500D02*
G75*
G03*
X15036000Y-7175500I-50000J0D01*
G01*
X15036000Y-7429500D02*
G75*
G03*
X15036000Y-7429500I-50000J0D01*
G01*
X15036000Y-7683500D02*
G75*
G03*
X15036000Y-7683500I-50000J0D01*
G01*
X15036000Y-7937500D02*
G75*
G03*
X15036000Y-7937500I-50000J0D01*
G01*
X15036000Y-8191500D02*
G75*
G03*
X15036000Y-8191500I-50000J0D01*
G01*
X15036000Y-8445500D02*
G75*
G03*
X15036000Y-8445500I-50000J0D01*
G01*
X15036000Y-8699500D02*
G75*
G03*
X15036000Y-8699500I-50000J0D01*
G01*
X15036000Y-8953500D02*
G75*
G03*
X15036000Y-8953500I-50000J0D01*
G01*
X15036000Y-9207500D02*
G75*
G03*
X15036000Y-9207500I-50000J0D01*
G01*
X15861500Y-9499600D02*
G75*
G03*
X15861500Y-9499600I-50000J0D01*
G01*
X16115500Y-9499600D02*
G75*
G03*
X16115500Y-9499600I-50000J0D01*
G01*
X16369500Y-9499600D02*
G75*
G03*
X16369500Y-9499600I-50000J0D01*
G01*
X16623500Y-9499600D02*
G75*
G03*
X16623500Y-9499600I-50000J0D01*
G01*
X16877500Y-9499600D02*
G75*
G03*
X16877500Y-9499600I-50000J0D01*
G01*
X17131500Y-9499600D02*
G75*
G03*
X17131500Y-9499600I-50000J0D01*
G01*
X18020500Y-5549900D02*
G75*
G03*
X18020500Y-5549900I-50000J0D01*
G01*
X18020500Y-5918200D02*
G75*
G03*
X18020500Y-5918200I-50000J0D01*
G01*
X18020500Y-6286500D02*
G75*
G03*
X18020500Y-6286500I-50000J0D01*
G01*
X18020500Y-6540500D02*
G75*
G03*
X18020500Y-6540500I-50000J0D01*
G01*
X18020500Y-6908800D02*
G75*
G03*
X18020500Y-6908800I-50000J0D01*
G01*
X18020500Y-7162800D02*
G75*
G03*
X18020500Y-7162800I-50000J0D01*
G01*
X18020500Y-7416800D02*
G75*
G03*
X18020500Y-7416800I-50000J0D01*
G01*
X18020500Y-7670800D02*
G75*
G03*
X18020500Y-7670800I-50000J0D01*
G01*
X18020500Y-7924800D02*
G75*
G03*
X18020500Y-7924800I-50000J0D01*
G01*
X18020500Y-8178800D02*
G75*
G03*
X18020500Y-8178800I-50000J0D01*
G01*
X18020500Y-8432800D02*
G75*
G03*
X18020500Y-8432800I-50000J0D01*
G01*
X18020500Y-8686800D02*
G75*
G03*
X18020500Y-8686800I-50000J0D01*
G01*
X18020500Y-8940800D02*
G75*
G03*
X18020500Y-8940800I-50000J0D01*
G01*
X18020500Y-9194800D02*
G75*
G03*
X18020500Y-9194800I-50000J0D01*
G01*
X18020500Y-9563100D02*
G75*
G03*
X18020500Y-9563100I-50000J0D01*
G01*
D13*
X15684500Y-5848500D02*
X15684500Y-5962500D01*
X15627500Y-5905500D02*
X15741500Y-5905500D01*
X15684500Y-6102500D02*
X15684500Y-6216500D01*
X15627500Y-6159500D02*
X15741500Y-6159500D01*
X15684500Y-6356500D02*
X15684500Y-6470500D01*
X15627500Y-6413500D02*
X15741500Y-6413500D01*
X15684500Y-6610500D02*
X15684500Y-6724500D01*
X15627500Y-6667500D02*
X15741500Y-6667500D01*
X15684500Y-6864500D02*
X15684500Y-6978500D01*
X15627500Y-6921500D02*
X15741500Y-6921500D01*
X15684500Y-7118500D02*
X15684500Y-7232500D01*
X15627500Y-7175500D02*
X15741500Y-7175500D01*
X15684500Y-7372500D02*
X15684500Y-7486500D01*
X15627500Y-7429500D02*
X15741500Y-7429500D01*
X15684500Y-7626500D02*
X15684500Y-7740500D01*
X15627500Y-7683500D02*
X15741500Y-7683500D01*
X15684500Y-7880500D02*
X15684500Y-7994500D01*
X15627500Y-7937500D02*
X15741500Y-7937500D01*
X15684500Y-8134500D02*
X15684500Y-8248500D01*
X15627500Y-8191500D02*
X15741500Y-8191500D01*
X15684500Y-8388500D02*
X15684500Y-8502500D01*
X15627500Y-8445500D02*
X15741500Y-8445500D01*
X15684500Y-8642500D02*
X15684500Y-8756500D01*
X15627500Y-8699500D02*
X15741500Y-8699500D01*
X15684500Y-8896500D02*
X15684500Y-9010500D01*
X15627500Y-8953500D02*
X15741500Y-8953500D01*
X15684500Y-9150500D02*
X15684500Y-9264500D01*
X15627500Y-9207500D02*
X15741500Y-9207500D01*
X15938500Y-6102500D02*
X15938500Y-6216500D01*
X15881500Y-6159500D02*
X15995500Y-6159500D01*
X15938500Y-8388500D02*
X15938500Y-8502500D01*
X15881500Y-8445500D02*
X15995500Y-8445500D01*
X15938500Y-8642500D02*
X15938500Y-8756500D01*
X15881500Y-8699500D02*
X15995500Y-8699500D01*
X15938500Y-9150500D02*
X15938500Y-9264500D01*
X15881500Y-9207500D02*
X15995500Y-9207500D01*
X16192500Y-8388500D02*
X16192500Y-8502500D01*
X16135500Y-8445500D02*
X16249500Y-8445500D01*
X16192500Y-8642500D02*
X16192500Y-8756500D01*
X16135500Y-8699500D02*
X16249500Y-8699500D01*
X16192500Y-9150500D02*
X16192500Y-9264500D01*
X16135500Y-9207500D02*
X16249500Y-9207500D01*
X16446500Y-8388500D02*
X16446500Y-8502500D01*
X16389500Y-8445500D02*
X16503500Y-8445500D01*
X16446500Y-8642500D02*
X16446500Y-8756500D01*
X16389500Y-8699500D02*
X16503500Y-8699500D01*
X16446500Y-9150500D02*
X16446500Y-9264500D01*
X16389500Y-9207500D02*
X16503500Y-9207500D01*
X16700500Y-8388500D02*
X16700500Y-8502500D01*
X16643500Y-8445500D02*
X16757500Y-8445500D01*
X16700500Y-8642500D02*
X16700500Y-8756500D01*
X16643500Y-8699500D02*
X16757500Y-8699500D01*
X16700500Y-9150500D02*
X16700500Y-9264500D01*
X16643500Y-9207500D02*
X16757500Y-9207500D01*
X16954500Y-8388500D02*
X16954500Y-8502500D01*
X16897500Y-8445500D02*
X17011500Y-8445500D01*
X16954500Y-8642500D02*
X16954500Y-8756500D01*
X16897500Y-8699500D02*
X17011500Y-8699500D01*
X16954500Y-9150500D02*
X16954500Y-9264500D01*
X16897500Y-9207500D02*
X17011500Y-9207500D01*
X17208500Y-5848500D02*
X17208500Y-5962500D01*
X17151500Y-5905500D02*
X17265500Y-5905500D01*
X17208500Y-6102500D02*
X17208500Y-6216500D01*
X17151500Y-6159500D02*
X17265500Y-6159500D01*
X17208500Y-6356500D02*
X17208500Y-6470500D01*
X17151500Y-6413500D02*
X17265500Y-6413500D01*
X17208500Y-6610500D02*
X17208500Y-6724500D01*
X17151500Y-6667500D02*
X17265500Y-6667500D01*
X17208500Y-6864500D02*
X17208500Y-6978500D01*
X17151500Y-6921500D02*
X17265500Y-6921500D01*
X17208500Y-7118500D02*
X17208500Y-7232500D01*
X17151500Y-7175500D02*
X17265500Y-7175500D01*
X17208500Y-7372500D02*
X17208500Y-7486500D01*
X17151500Y-7429500D02*
X17265500Y-7429500D01*
X17208500Y-7626500D02*
X17208500Y-7740500D01*
X17151500Y-7683500D02*
X17265500Y-7683500D01*
X17208500Y-7880500D02*
X17208500Y-7994500D01*
X17151500Y-7937500D02*
X17265500Y-7937500D01*
X17208500Y-8134500D02*
X17208500Y-8248500D01*
X17151500Y-8191500D02*
X17265500Y-8191500D01*
X17208500Y-8388500D02*
X17208500Y-8502500D01*
X17151500Y-8445500D02*
X17265500Y-8445500D01*
X17208500Y-8642500D02*
X17208500Y-8756500D01*
X17151500Y-8699500D02*
X17265500Y-8699500D01*
X17208500Y-8896500D02*
X17208500Y-9010500D01*
X17151500Y-8953500D02*
X17265500Y-8953500D01*
X17208500Y-9150500D02*
X17208500Y-9264500D01*
X17151500Y-9207500D02*
X17265500Y-9207500D01*
D11*
X14974619Y-10795024D02*
X14974619Y-10595024D01*
X14974619Y-10595024D02*
X15022238Y-10595024D01*
X15022238Y-10595024D02*
X15050809Y-10604548D01*
X15050809Y-10604548D02*
X15069857Y-10623595D01*
X15069857Y-10623595D02*
X15079381Y-10642643D01*
X15079381Y-10642643D02*
X15088905Y-10680738D01*
X15088905Y-10680738D02*
X15088905Y-10709310D01*
X15088905Y-10709310D02*
X15079381Y-10747405D01*
X15079381Y-10747405D02*
X15069857Y-10766452D01*
X15069857Y-10766452D02*
X15050809Y-10785500D01*
X15050809Y-10785500D02*
X15022238Y-10795024D01*
X15022238Y-10795024D02*
X14974619Y-10795024D01*
X15174619Y-10795024D02*
X15174619Y-10661690D01*
X15174619Y-10699786D02*
X15184143Y-10680738D01*
X15184143Y-10680738D02*
X15193667Y-10671214D01*
X15193667Y-10671214D02*
X15212714Y-10661690D01*
X15212714Y-10661690D02*
X15231762Y-10661690D01*
X15298428Y-10795024D02*
X15298428Y-10661690D01*
X15298428Y-10595024D02*
X15288905Y-10604548D01*
X15288905Y-10604548D02*
X15298428Y-10614071D01*
X15298428Y-10614071D02*
X15307952Y-10604548D01*
X15307952Y-10604548D02*
X15298428Y-10595024D01*
X15298428Y-10595024D02*
X15298428Y-10614071D01*
X15422238Y-10795024D02*
X15403190Y-10785500D01*
X15403190Y-10785500D02*
X15393667Y-10766452D01*
X15393667Y-10766452D02*
X15393667Y-10595024D01*
X15527000Y-10795024D02*
X15507952Y-10785500D01*
X15507952Y-10785500D02*
X15498428Y-10766452D01*
X15498428Y-10766452D02*
X15498428Y-10595024D01*
X15755571Y-10795024D02*
X15755571Y-10595024D01*
X15755571Y-10595024D02*
X15822238Y-10737881D01*
X15822238Y-10737881D02*
X15888905Y-10595024D01*
X15888905Y-10595024D02*
X15888905Y-10795024D01*
X16069857Y-10795024D02*
X16069857Y-10690262D01*
X16069857Y-10690262D02*
X16060333Y-10671214D01*
X16060333Y-10671214D02*
X16041286Y-10661690D01*
X16041286Y-10661690D02*
X16003190Y-10661690D01*
X16003190Y-10661690D02*
X15984143Y-10671214D01*
X16069857Y-10785500D02*
X16050809Y-10795024D01*
X16050809Y-10795024D02*
X16003190Y-10795024D01*
X16003190Y-10795024D02*
X15984143Y-10785500D01*
X15984143Y-10785500D02*
X15974619Y-10766452D01*
X15974619Y-10766452D02*
X15974619Y-10747405D01*
X15974619Y-10747405D02*
X15984143Y-10728357D01*
X15984143Y-10728357D02*
X16003190Y-10718833D01*
X16003190Y-10718833D02*
X16050809Y-10718833D01*
X16050809Y-10718833D02*
X16069857Y-10709310D01*
X16165095Y-10661690D02*
X16165095Y-10861690D01*
X16165095Y-10671214D02*
X16184143Y-10661690D01*
X16184143Y-10661690D02*
X16222238Y-10661690D01*
X16222238Y-10661690D02*
X16241286Y-10671214D01*
X16241286Y-10671214D02*
X16250809Y-10680738D01*
X16250809Y-10680738D02*
X16260333Y-10699786D01*
X16260333Y-10699786D02*
X16260333Y-10756929D01*
X16260333Y-10756929D02*
X16250809Y-10775976D01*
X16250809Y-10775976D02*
X16241286Y-10785500D01*
X16241286Y-10785500D02*
X16222238Y-10795024D01*
X16222238Y-10795024D02*
X16184143Y-10795024D01*
X16184143Y-10795024D02*
X16165095Y-10785500D01*
X16346048Y-10775976D02*
X16355571Y-10785500D01*
X16355571Y-10785500D02*
X16346048Y-10795024D01*
X16346048Y-10795024D02*
X16336524Y-10785500D01*
X16336524Y-10785500D02*
X16346048Y-10775976D01*
X16346048Y-10775976D02*
X16346048Y-10795024D01*
X16346048Y-10671214D02*
X16355571Y-10680738D01*
X16355571Y-10680738D02*
X16346048Y-10690262D01*
X16346048Y-10690262D02*
X16336524Y-10680738D01*
X16336524Y-10680738D02*
X16346048Y-10671214D01*
X16346048Y-10671214D02*
X16346048Y-10690262D01*
D12*
X14701600Y-11109800D02*
X14727000Y-11135200D01*
X14727000Y-11109800D02*
X14701600Y-11135200D01*
D11*
X15012714Y-11015024D02*
X15031762Y-11015024D01*
X15031762Y-11015024D02*
X15050809Y-11024548D01*
X15050809Y-11024548D02*
X15060333Y-11034071D01*
X15060333Y-11034071D02*
X15069857Y-11053119D01*
X15069857Y-11053119D02*
X15079381Y-11091214D01*
X15079381Y-11091214D02*
X15079381Y-11138833D01*
X15079381Y-11138833D02*
X15069857Y-11176929D01*
X15069857Y-11176929D02*
X15060333Y-11195976D01*
X15060333Y-11195976D02*
X15050809Y-11205500D01*
X15050809Y-11205500D02*
X15031762Y-11215024D01*
X15031762Y-11215024D02*
X15012714Y-11215024D01*
X15012714Y-11215024D02*
X14993667Y-11205500D01*
X14993667Y-11205500D02*
X14984143Y-11195976D01*
X14984143Y-11195976D02*
X14974619Y-11176929D01*
X14974619Y-11176929D02*
X14965095Y-11138833D01*
X14965095Y-11138833D02*
X14965095Y-11091214D01*
X14965095Y-11091214D02*
X14974619Y-11053119D01*
X14974619Y-11053119D02*
X14984143Y-11034071D01*
X14984143Y-11034071D02*
X14993667Y-11024548D01*
X14993667Y-11024548D02*
X15012714Y-11015024D01*
X15165095Y-11195976D02*
X15174619Y-11205500D01*
X15174619Y-11205500D02*
X15165095Y-11215024D01*
X15165095Y-11215024D02*
X15155571Y-11205500D01*
X15155571Y-11205500D02*
X15165095Y-11195976D01*
X15165095Y-11195976D02*
X15165095Y-11215024D01*
X15250809Y-11034071D02*
X15260333Y-11024548D01*
X15260333Y-11024548D02*
X15279381Y-11015024D01*
X15279381Y-11015024D02*
X15327000Y-11015024D01*
X15327000Y-11015024D02*
X15346048Y-11024548D01*
X15346048Y-11024548D02*
X15355571Y-11034071D01*
X15355571Y-11034071D02*
X15365095Y-11053119D01*
X15365095Y-11053119D02*
X15365095Y-11072167D01*
X15365095Y-11072167D02*
X15355571Y-11100738D01*
X15355571Y-11100738D02*
X15241286Y-11215024D01*
X15241286Y-11215024D02*
X15365095Y-11215024D01*
X15546048Y-11015024D02*
X15450809Y-11015024D01*
X15450809Y-11015024D02*
X15441286Y-11110262D01*
X15441286Y-11110262D02*
X15450809Y-11100738D01*
X15450809Y-11100738D02*
X15469857Y-11091214D01*
X15469857Y-11091214D02*
X15517476Y-11091214D01*
X15517476Y-11091214D02*
X15536524Y-11100738D01*
X15536524Y-11100738D02*
X15546048Y-11110262D01*
X15546048Y-11110262D02*
X15555571Y-11129310D01*
X15555571Y-11129310D02*
X15555571Y-11176929D01*
X15555571Y-11176929D02*
X15546048Y-11195976D01*
X15546048Y-11195976D02*
X15536524Y-11205500D01*
X15536524Y-11205500D02*
X15517476Y-11215024D01*
X15517476Y-11215024D02*
X15469857Y-11215024D01*
X15469857Y-11215024D02*
X15450809Y-11205500D01*
X15450809Y-11205500D02*
X15441286Y-11195976D01*
X15727000Y-11081690D02*
X15727000Y-11215024D01*
X15679381Y-11005500D02*
X15631762Y-11148357D01*
X15631762Y-11148357D02*
X15755571Y-11148357D01*
X15831762Y-11215024D02*
X15831762Y-11081690D01*
X15831762Y-11100738D02*
X15841286Y-11091214D01*
X15841286Y-11091214D02*
X15860333Y-11081690D01*
X15860333Y-11081690D02*
X15888905Y-11081690D01*
X15888905Y-11081690D02*
X15907952Y-11091214D01*
X15907952Y-11091214D02*
X15917476Y-11110262D01*
X15917476Y-11110262D02*
X15917476Y-11215024D01*
X15917476Y-11110262D02*
X15927000Y-11091214D01*
X15927000Y-11091214D02*
X15946048Y-11081690D01*
X15946048Y-11081690D02*
X15974619Y-11081690D01*
X15974619Y-11081690D02*
X15993667Y-11091214D01*
X15993667Y-11091214D02*
X16003190Y-11110262D01*
X16003190Y-11110262D02*
X16003190Y-11215024D01*
X16098429Y-11215024D02*
X16098429Y-11081690D01*
X16098429Y-11100738D02*
X16107952Y-11091214D01*
X16107952Y-11091214D02*
X16127000Y-11081690D01*
X16127000Y-11081690D02*
X16155571Y-11081690D01*
X16155571Y-11081690D02*
X16174619Y-11091214D01*
X16174619Y-11091214D02*
X16184143Y-11110262D01*
X16184143Y-11110262D02*
X16184143Y-11215024D01*
X16184143Y-11110262D02*
X16193667Y-11091214D01*
X16193667Y-11091214D02*
X16212714Y-11081690D01*
X16212714Y-11081690D02*
X16241286Y-11081690D01*
X16241286Y-11081690D02*
X16260333Y-11091214D01*
X16260333Y-11091214D02*
X16269857Y-11110262D01*
X16269857Y-11110262D02*
X16269857Y-11215024D01*
X16660333Y-11005500D02*
X16488905Y-11262643D01*
X16917476Y-11015024D02*
X16936524Y-11015024D01*
X16936524Y-11015024D02*
X16955572Y-11024548D01*
X16955572Y-11024548D02*
X16965095Y-11034071D01*
X16965095Y-11034071D02*
X16974619Y-11053119D01*
X16974619Y-11053119D02*
X16984143Y-11091214D01*
X16984143Y-11091214D02*
X16984143Y-11138833D01*
X16984143Y-11138833D02*
X16974619Y-11176929D01*
X16974619Y-11176929D02*
X16965095Y-11195976D01*
X16965095Y-11195976D02*
X16955572Y-11205500D01*
X16955572Y-11205500D02*
X16936524Y-11215024D01*
X16936524Y-11215024D02*
X16917476Y-11215024D01*
X16917476Y-11215024D02*
X16898429Y-11205500D01*
X16898429Y-11205500D02*
X16888905Y-11195976D01*
X16888905Y-11195976D02*
X16879381Y-11176929D01*
X16879381Y-11176929D02*
X16869857Y-11138833D01*
X16869857Y-11138833D02*
X16869857Y-11091214D01*
X16869857Y-11091214D02*
X16879381Y-11053119D01*
X16879381Y-11053119D02*
X16888905Y-11034071D01*
X16888905Y-11034071D02*
X16898429Y-11024548D01*
X16898429Y-11024548D02*
X16917476Y-11015024D01*
X17069857Y-11195976D02*
X17079381Y-11205500D01*
X17079381Y-11205500D02*
X17069857Y-11215024D01*
X17069857Y-11215024D02*
X17060334Y-11205500D01*
X17060334Y-11205500D02*
X17069857Y-11195976D01*
X17069857Y-11195976D02*
X17069857Y-11215024D01*
X17203191Y-11015024D02*
X17222238Y-11015024D01*
X17222238Y-11015024D02*
X17241286Y-11024548D01*
X17241286Y-11024548D02*
X17250810Y-11034071D01*
X17250810Y-11034071D02*
X17260334Y-11053119D01*
X17260334Y-11053119D02*
X17269857Y-11091214D01*
X17269857Y-11091214D02*
X17269857Y-11138833D01*
X17269857Y-11138833D02*
X17260334Y-11176929D01*
X17260334Y-11176929D02*
X17250810Y-11195976D01*
X17250810Y-11195976D02*
X17241286Y-11205500D01*
X17241286Y-11205500D02*
X17222238Y-11215024D01*
X17222238Y-11215024D02*
X17203191Y-11215024D01*
X17203191Y-11215024D02*
X17184143Y-11205500D01*
X17184143Y-11205500D02*
X17174619Y-11195976D01*
X17174619Y-11195976D02*
X17165095Y-11176929D01*
X17165095Y-11176929D02*
X17155572Y-11138833D01*
X17155572Y-11138833D02*
X17155572Y-11091214D01*
X17155572Y-11091214D02*
X17165095Y-11053119D01*
X17165095Y-11053119D02*
X17174619Y-11034071D01*
X17174619Y-11034071D02*
X17184143Y-11024548D01*
X17184143Y-11024548D02*
X17203191Y-11015024D01*
X17460334Y-11215024D02*
X17346048Y-11215024D01*
X17403191Y-11215024D02*
X17403191Y-11015024D01*
X17403191Y-11015024D02*
X17384143Y-11043595D01*
X17384143Y-11043595D02*
X17365095Y-11062643D01*
X17365095Y-11062643D02*
X17346048Y-11072167D01*
X17584143Y-11015024D02*
X17603191Y-11015024D01*
X17603191Y-11015024D02*
X17622238Y-11024548D01*
X17622238Y-11024548D02*
X17631762Y-11034071D01*
X17631762Y-11034071D02*
X17641286Y-11053119D01*
X17641286Y-11053119D02*
X17650810Y-11091214D01*
X17650810Y-11091214D02*
X17650810Y-11138833D01*
X17650810Y-11138833D02*
X17641286Y-11176929D01*
X17641286Y-11176929D02*
X17631762Y-11195976D01*
X17631762Y-11195976D02*
X17622238Y-11205500D01*
X17622238Y-11205500D02*
X17603191Y-11215024D01*
X17603191Y-11215024D02*
X17584143Y-11215024D01*
X17584143Y-11215024D02*
X17565095Y-11205500D01*
X17565095Y-11205500D02*
X17555572Y-11195976D01*
X17555572Y-11195976D02*
X17546048Y-11176929D01*
X17546048Y-11176929D02*
X17536524Y-11138833D01*
X17536524Y-11138833D02*
X17536524Y-11091214D01*
X17536524Y-11091214D02*
X17546048Y-11053119D01*
X17546048Y-11053119D02*
X17555572Y-11034071D01*
X17555572Y-11034071D02*
X17565095Y-11024548D01*
X17565095Y-11024548D02*
X17584143Y-11015024D01*
X17774619Y-11015024D02*
X17793667Y-11015024D01*
X17793667Y-11015024D02*
X17812715Y-11024548D01*
X17812715Y-11024548D02*
X17822238Y-11034071D01*
X17822238Y-11034071D02*
X17831762Y-11053119D01*
X17831762Y-11053119D02*
X17841286Y-11091214D01*
X17841286Y-11091214D02*
X17841286Y-11138833D01*
X17841286Y-11138833D02*
X17831762Y-11176929D01*
X17831762Y-11176929D02*
X17822238Y-11195976D01*
X17822238Y-11195976D02*
X17812715Y-11205500D01*
X17812715Y-11205500D02*
X17793667Y-11215024D01*
X17793667Y-11215024D02*
X17774619Y-11215024D01*
X17774619Y-11215024D02*
X17755572Y-11205500D01*
X17755572Y-11205500D02*
X17746048Y-11195976D01*
X17746048Y-11195976D02*
X17736524Y-11176929D01*
X17736524Y-11176929D02*
X17727000Y-11138833D01*
X17727000Y-11138833D02*
X17727000Y-11091214D01*
X17727000Y-11091214D02*
X17736524Y-11053119D01*
X17736524Y-11053119D02*
X17746048Y-11034071D01*
X17746048Y-11034071D02*
X17755572Y-11024548D01*
X17755572Y-11024548D02*
X17774619Y-11015024D01*
X17917476Y-11015024D02*
X17917476Y-11053119D01*
X17993667Y-11015024D02*
X17993667Y-11053119D01*
X18288905Y-11291214D02*
X18279381Y-11281690D01*
X18279381Y-11281690D02*
X18260334Y-11253119D01*
X18260334Y-11253119D02*
X18250810Y-11234071D01*
X18250810Y-11234071D02*
X18241286Y-11205500D01*
X18241286Y-11205500D02*
X18231762Y-11157881D01*
X18231762Y-11157881D02*
X18231762Y-11119786D01*
X18231762Y-11119786D02*
X18241286Y-11072167D01*
X18241286Y-11072167D02*
X18250810Y-11043595D01*
X18250810Y-11043595D02*
X18260334Y-11024548D01*
X18260334Y-11024548D02*
X18279381Y-10995976D01*
X18279381Y-10995976D02*
X18288905Y-10986452D01*
X18450810Y-11015024D02*
X18412715Y-11015024D01*
X18412715Y-11015024D02*
X18393667Y-11024548D01*
X18393667Y-11024548D02*
X18384143Y-11034071D01*
X18384143Y-11034071D02*
X18365096Y-11062643D01*
X18365096Y-11062643D02*
X18355572Y-11100738D01*
X18355572Y-11100738D02*
X18355572Y-11176929D01*
X18355572Y-11176929D02*
X18365096Y-11195976D01*
X18365096Y-11195976D02*
X18374619Y-11205500D01*
X18374619Y-11205500D02*
X18393667Y-11215024D01*
X18393667Y-11215024D02*
X18431762Y-11215024D01*
X18431762Y-11215024D02*
X18450810Y-11205500D01*
X18450810Y-11205500D02*
X18460334Y-11195976D01*
X18460334Y-11195976D02*
X18469857Y-11176929D01*
X18469857Y-11176929D02*
X18469857Y-11129310D01*
X18469857Y-11129310D02*
X18460334Y-11110262D01*
X18460334Y-11110262D02*
X18450810Y-11100738D01*
X18450810Y-11100738D02*
X18431762Y-11091214D01*
X18431762Y-11091214D02*
X18393667Y-11091214D01*
X18393667Y-11091214D02*
X18374619Y-11100738D01*
X18374619Y-11100738D02*
X18365096Y-11110262D01*
X18365096Y-11110262D02*
X18355572Y-11129310D01*
X18707953Y-11215024D02*
X18707953Y-11015024D01*
X18793667Y-11215024D02*
X18793667Y-11110262D01*
X18793667Y-11110262D02*
X18784143Y-11091214D01*
X18784143Y-11091214D02*
X18765096Y-11081690D01*
X18765096Y-11081690D02*
X18736524Y-11081690D01*
X18736524Y-11081690D02*
X18717477Y-11091214D01*
X18717477Y-11091214D02*
X18707953Y-11100738D01*
X18917477Y-11215024D02*
X18898429Y-11205500D01*
X18898429Y-11205500D02*
X18888905Y-11195976D01*
X18888905Y-11195976D02*
X18879381Y-11176929D01*
X18879381Y-11176929D02*
X18879381Y-11119786D01*
X18879381Y-11119786D02*
X18888905Y-11100738D01*
X18888905Y-11100738D02*
X18898429Y-11091214D01*
X18898429Y-11091214D02*
X18917477Y-11081690D01*
X18917477Y-11081690D02*
X18946048Y-11081690D01*
X18946048Y-11081690D02*
X18965096Y-11091214D01*
X18965096Y-11091214D02*
X18974619Y-11100738D01*
X18974619Y-11100738D02*
X18984143Y-11119786D01*
X18984143Y-11119786D02*
X18984143Y-11176929D01*
X18984143Y-11176929D02*
X18974619Y-11195976D01*
X18974619Y-11195976D02*
X18965096Y-11205500D01*
X18965096Y-11205500D02*
X18946048Y-11215024D01*
X18946048Y-11215024D02*
X18917477Y-11215024D01*
X19098429Y-11215024D02*
X19079381Y-11205500D01*
X19079381Y-11205500D02*
X19069858Y-11186452D01*
X19069858Y-11186452D02*
X19069858Y-11015024D01*
X19250810Y-11205500D02*
X19231762Y-11215024D01*
X19231762Y-11215024D02*
X19193667Y-11215024D01*
X19193667Y-11215024D02*
X19174619Y-11205500D01*
X19174619Y-11205500D02*
X19165096Y-11186452D01*
X19165096Y-11186452D02*
X19165096Y-11110262D01*
X19165096Y-11110262D02*
X19174619Y-11091214D01*
X19174619Y-11091214D02*
X19193667Y-11081690D01*
X19193667Y-11081690D02*
X19231762Y-11081690D01*
X19231762Y-11081690D02*
X19250810Y-11091214D01*
X19250810Y-11091214D02*
X19260334Y-11110262D01*
X19260334Y-11110262D02*
X19260334Y-11129310D01*
X19260334Y-11129310D02*
X19165096Y-11148357D01*
X19336524Y-11205500D02*
X19355572Y-11215024D01*
X19355572Y-11215024D02*
X19393667Y-11215024D01*
X19393667Y-11215024D02*
X19412715Y-11205500D01*
X19412715Y-11205500D02*
X19422239Y-11186452D01*
X19422239Y-11186452D02*
X19422239Y-11176929D01*
X19422239Y-11176929D02*
X19412715Y-11157881D01*
X19412715Y-11157881D02*
X19393667Y-11148357D01*
X19393667Y-11148357D02*
X19365096Y-11148357D01*
X19365096Y-11148357D02*
X19346048Y-11138833D01*
X19346048Y-11138833D02*
X19336524Y-11119786D01*
X19336524Y-11119786D02*
X19336524Y-11110262D01*
X19336524Y-11110262D02*
X19346048Y-11091214D01*
X19346048Y-11091214D02*
X19365096Y-11081690D01*
X19365096Y-11081690D02*
X19393667Y-11081690D01*
X19393667Y-11081690D02*
X19412715Y-11091214D01*
X19488905Y-11291214D02*
X19498429Y-11281690D01*
X19498429Y-11281690D02*
X19517477Y-11253119D01*
X19517477Y-11253119D02*
X19527000Y-11234071D01*
X19527000Y-11234071D02*
X19536524Y-11205500D01*
X19536524Y-11205500D02*
X19546048Y-11157881D01*
X19546048Y-11157881D02*
X19546048Y-11119786D01*
X19546048Y-11119786D02*
X19536524Y-11072167D01*
X19536524Y-11072167D02*
X19527000Y-11043595D01*
X19527000Y-11043595D02*
X19517477Y-11024548D01*
X19517477Y-11024548D02*
X19498429Y-10995976D01*
X19498429Y-10995976D02*
X19488905Y-10986452D01*
D10*
X14727000Y-11386500D02*
G75*
G03*
X14727000Y-11386500I-50000J0D01*
G01*
D11*
X15079381Y-11479024D02*
X14965095Y-11479024D01*
X15022238Y-11479024D02*
X15022238Y-11279024D01*
X15022238Y-11279024D02*
X15003190Y-11307595D01*
X15003190Y-11307595D02*
X14984143Y-11326643D01*
X14984143Y-11326643D02*
X14965095Y-11336167D01*
X15165095Y-11459976D02*
X15174619Y-11469500D01*
X15174619Y-11469500D02*
X15165095Y-11479024D01*
X15165095Y-11479024D02*
X15155571Y-11469500D01*
X15155571Y-11469500D02*
X15165095Y-11459976D01*
X15165095Y-11459976D02*
X15165095Y-11479024D01*
X15298428Y-11279024D02*
X15317476Y-11279024D01*
X15317476Y-11279024D02*
X15336524Y-11288548D01*
X15336524Y-11288548D02*
X15346048Y-11298071D01*
X15346048Y-11298071D02*
X15355571Y-11317119D01*
X15355571Y-11317119D02*
X15365095Y-11355214D01*
X15365095Y-11355214D02*
X15365095Y-11402833D01*
X15365095Y-11402833D02*
X15355571Y-11440928D01*
X15355571Y-11440928D02*
X15346048Y-11459976D01*
X15346048Y-11459976D02*
X15336524Y-11469500D01*
X15336524Y-11469500D02*
X15317476Y-11479024D01*
X15317476Y-11479024D02*
X15298428Y-11479024D01*
X15298428Y-11479024D02*
X15279381Y-11469500D01*
X15279381Y-11469500D02*
X15269857Y-11459976D01*
X15269857Y-11459976D02*
X15260333Y-11440928D01*
X15260333Y-11440928D02*
X15250809Y-11402833D01*
X15250809Y-11402833D02*
X15250809Y-11355214D01*
X15250809Y-11355214D02*
X15260333Y-11317119D01*
X15260333Y-11317119D02*
X15269857Y-11298071D01*
X15269857Y-11298071D02*
X15279381Y-11288548D01*
X15279381Y-11288548D02*
X15298428Y-11279024D01*
X15488905Y-11279024D02*
X15507952Y-11279024D01*
X15507952Y-11279024D02*
X15527000Y-11288548D01*
X15527000Y-11288548D02*
X15536524Y-11298071D01*
X15536524Y-11298071D02*
X15546048Y-11317119D01*
X15546048Y-11317119D02*
X15555571Y-11355214D01*
X15555571Y-11355214D02*
X15555571Y-11402833D01*
X15555571Y-11402833D02*
X15546048Y-11440928D01*
X15546048Y-11440928D02*
X15536524Y-11459976D01*
X15536524Y-11459976D02*
X15527000Y-11469500D01*
X15527000Y-11469500D02*
X15507952Y-11479024D01*
X15507952Y-11479024D02*
X15488905Y-11479024D01*
X15488905Y-11479024D02*
X15469857Y-11469500D01*
X15469857Y-11469500D02*
X15460333Y-11459976D01*
X15460333Y-11459976D02*
X15450809Y-11440928D01*
X15450809Y-11440928D02*
X15441286Y-11402833D01*
X15441286Y-11402833D02*
X15441286Y-11355214D01*
X15441286Y-11355214D02*
X15450809Y-11317119D01*
X15450809Y-11317119D02*
X15460333Y-11298071D01*
X15460333Y-11298071D02*
X15469857Y-11288548D01*
X15469857Y-11288548D02*
X15488905Y-11279024D01*
X15679381Y-11279024D02*
X15698429Y-11279024D01*
X15698429Y-11279024D02*
X15717476Y-11288548D01*
X15717476Y-11288548D02*
X15727000Y-11298071D01*
X15727000Y-11298071D02*
X15736524Y-11317119D01*
X15736524Y-11317119D02*
X15746048Y-11355214D01*
X15746048Y-11355214D02*
X15746048Y-11402833D01*
X15746048Y-11402833D02*
X15736524Y-11440928D01*
X15736524Y-11440928D02*
X15727000Y-11459976D01*
X15727000Y-11459976D02*
X15717476Y-11469500D01*
X15717476Y-11469500D02*
X15698429Y-11479024D01*
X15698429Y-11479024D02*
X15679381Y-11479024D01*
X15679381Y-11479024D02*
X15660333Y-11469500D01*
X15660333Y-11469500D02*
X15650809Y-11459976D01*
X15650809Y-11459976D02*
X15641286Y-11440928D01*
X15641286Y-11440928D02*
X15631762Y-11402833D01*
X15631762Y-11402833D02*
X15631762Y-11355214D01*
X15631762Y-11355214D02*
X15641286Y-11317119D01*
X15641286Y-11317119D02*
X15650809Y-11298071D01*
X15650809Y-11298071D02*
X15660333Y-11288548D01*
X15660333Y-11288548D02*
X15679381Y-11279024D01*
X15831762Y-11479024D02*
X15831762Y-11345690D01*
X15831762Y-11364738D02*
X15841286Y-11355214D01*
X15841286Y-11355214D02*
X15860333Y-11345690D01*
X15860333Y-11345690D02*
X15888905Y-11345690D01*
X15888905Y-11345690D02*
X15907952Y-11355214D01*
X15907952Y-11355214D02*
X15917476Y-11374262D01*
X15917476Y-11374262D02*
X15917476Y-11479024D01*
X15917476Y-11374262D02*
X15927000Y-11355214D01*
X15927000Y-11355214D02*
X15946048Y-11345690D01*
X15946048Y-11345690D02*
X15974619Y-11345690D01*
X15974619Y-11345690D02*
X15993667Y-11355214D01*
X15993667Y-11355214D02*
X16003190Y-11374262D01*
X16003190Y-11374262D02*
X16003190Y-11479024D01*
X16098429Y-11479024D02*
X16098429Y-11345690D01*
X16098429Y-11364738D02*
X16107952Y-11355214D01*
X16107952Y-11355214D02*
X16127000Y-11345690D01*
X16127000Y-11345690D02*
X16155571Y-11345690D01*
X16155571Y-11345690D02*
X16174619Y-11355214D01*
X16174619Y-11355214D02*
X16184143Y-11374262D01*
X16184143Y-11374262D02*
X16184143Y-11479024D01*
X16184143Y-11374262D02*
X16193667Y-11355214D01*
X16193667Y-11355214D02*
X16212714Y-11345690D01*
X16212714Y-11345690D02*
X16241286Y-11345690D01*
X16241286Y-11345690D02*
X16260333Y-11355214D01*
X16260333Y-11355214D02*
X16269857Y-11374262D01*
X16269857Y-11374262D02*
X16269857Y-11479024D01*
X16660333Y-11269500D02*
X16488905Y-11526643D01*
X16917476Y-11279024D02*
X16936524Y-11279024D01*
X16936524Y-11279024D02*
X16955572Y-11288548D01*
X16955572Y-11288548D02*
X16965095Y-11298071D01*
X16965095Y-11298071D02*
X16974619Y-11317119D01*
X16974619Y-11317119D02*
X16984143Y-11355214D01*
X16984143Y-11355214D02*
X16984143Y-11402833D01*
X16984143Y-11402833D02*
X16974619Y-11440928D01*
X16974619Y-11440928D02*
X16965095Y-11459976D01*
X16965095Y-11459976D02*
X16955572Y-11469500D01*
X16955572Y-11469500D02*
X16936524Y-11479024D01*
X16936524Y-11479024D02*
X16917476Y-11479024D01*
X16917476Y-11479024D02*
X16898429Y-11469500D01*
X16898429Y-11469500D02*
X16888905Y-11459976D01*
X16888905Y-11459976D02*
X16879381Y-11440928D01*
X16879381Y-11440928D02*
X16869857Y-11402833D01*
X16869857Y-11402833D02*
X16869857Y-11355214D01*
X16869857Y-11355214D02*
X16879381Y-11317119D01*
X16879381Y-11317119D02*
X16888905Y-11298071D01*
X16888905Y-11298071D02*
X16898429Y-11288548D01*
X16898429Y-11288548D02*
X16917476Y-11279024D01*
X17069857Y-11459976D02*
X17079381Y-11469500D01*
X17079381Y-11469500D02*
X17069857Y-11479024D01*
X17069857Y-11479024D02*
X17060334Y-11469500D01*
X17060334Y-11469500D02*
X17069857Y-11459976D01*
X17069857Y-11459976D02*
X17069857Y-11479024D01*
X17203191Y-11279024D02*
X17222238Y-11279024D01*
X17222238Y-11279024D02*
X17241286Y-11288548D01*
X17241286Y-11288548D02*
X17250810Y-11298071D01*
X17250810Y-11298071D02*
X17260334Y-11317119D01*
X17260334Y-11317119D02*
X17269857Y-11355214D01*
X17269857Y-11355214D02*
X17269857Y-11402833D01*
X17269857Y-11402833D02*
X17260334Y-11440928D01*
X17260334Y-11440928D02*
X17250810Y-11459976D01*
X17250810Y-11459976D02*
X17241286Y-11469500D01*
X17241286Y-11469500D02*
X17222238Y-11479024D01*
X17222238Y-11479024D02*
X17203191Y-11479024D01*
X17203191Y-11479024D02*
X17184143Y-11469500D01*
X17184143Y-11469500D02*
X17174619Y-11459976D01*
X17174619Y-11459976D02*
X17165095Y-11440928D01*
X17165095Y-11440928D02*
X17155572Y-11402833D01*
X17155572Y-11402833D02*
X17155572Y-11355214D01*
X17155572Y-11355214D02*
X17165095Y-11317119D01*
X17165095Y-11317119D02*
X17174619Y-11298071D01*
X17174619Y-11298071D02*
X17184143Y-11288548D01*
X17184143Y-11288548D02*
X17203191Y-11279024D01*
X17336524Y-11279024D02*
X17460334Y-11279024D01*
X17460334Y-11279024D02*
X17393667Y-11355214D01*
X17393667Y-11355214D02*
X17422238Y-11355214D01*
X17422238Y-11355214D02*
X17441286Y-11364738D01*
X17441286Y-11364738D02*
X17450810Y-11374262D01*
X17450810Y-11374262D02*
X17460334Y-11393309D01*
X17460334Y-11393309D02*
X17460334Y-11440928D01*
X17460334Y-11440928D02*
X17450810Y-11459976D01*
X17450810Y-11459976D02*
X17441286Y-11469500D01*
X17441286Y-11469500D02*
X17422238Y-11479024D01*
X17422238Y-11479024D02*
X17365095Y-11479024D01*
X17365095Y-11479024D02*
X17346048Y-11469500D01*
X17346048Y-11469500D02*
X17336524Y-11459976D01*
X17555572Y-11479024D02*
X17593667Y-11479024D01*
X17593667Y-11479024D02*
X17612715Y-11469500D01*
X17612715Y-11469500D02*
X17622238Y-11459976D01*
X17622238Y-11459976D02*
X17641286Y-11431405D01*
X17641286Y-11431405D02*
X17650810Y-11393309D01*
X17650810Y-11393309D02*
X17650810Y-11317119D01*
X17650810Y-11317119D02*
X17641286Y-11298071D01*
X17641286Y-11298071D02*
X17631762Y-11288548D01*
X17631762Y-11288548D02*
X17612715Y-11279024D01*
X17612715Y-11279024D02*
X17574619Y-11279024D01*
X17574619Y-11279024D02*
X17555572Y-11288548D01*
X17555572Y-11288548D02*
X17546048Y-11298071D01*
X17546048Y-11298071D02*
X17536524Y-11317119D01*
X17536524Y-11317119D02*
X17536524Y-11364738D01*
X17536524Y-11364738D02*
X17546048Y-11383786D01*
X17546048Y-11383786D02*
X17555572Y-11393309D01*
X17555572Y-11393309D02*
X17574619Y-11402833D01*
X17574619Y-11402833D02*
X17612715Y-11402833D01*
X17612715Y-11402833D02*
X17631762Y-11393309D01*
X17631762Y-11393309D02*
X17641286Y-11383786D01*
X17641286Y-11383786D02*
X17650810Y-11364738D01*
X17822238Y-11345690D02*
X17822238Y-11479024D01*
X17774619Y-11269500D02*
X17727000Y-11412357D01*
X17727000Y-11412357D02*
X17850810Y-11412357D01*
X17917476Y-11279024D02*
X17917476Y-11317119D01*
X17993667Y-11279024D02*
X17993667Y-11317119D01*
X18288905Y-11555214D02*
X18279381Y-11545690D01*
X18279381Y-11545690D02*
X18260334Y-11517119D01*
X18260334Y-11517119D02*
X18250810Y-11498071D01*
X18250810Y-11498071D02*
X18241286Y-11469500D01*
X18241286Y-11469500D02*
X18231762Y-11421881D01*
X18231762Y-11421881D02*
X18231762Y-11383786D01*
X18231762Y-11383786D02*
X18241286Y-11336167D01*
X18241286Y-11336167D02*
X18250810Y-11307595D01*
X18250810Y-11307595D02*
X18260334Y-11288548D01*
X18260334Y-11288548D02*
X18279381Y-11259976D01*
X18279381Y-11259976D02*
X18288905Y-11250452D01*
X18346048Y-11279024D02*
X18469857Y-11279024D01*
X18469857Y-11279024D02*
X18403191Y-11355214D01*
X18403191Y-11355214D02*
X18431762Y-11355214D01*
X18431762Y-11355214D02*
X18450810Y-11364738D01*
X18450810Y-11364738D02*
X18460334Y-11374262D01*
X18460334Y-11374262D02*
X18469857Y-11393309D01*
X18469857Y-11393309D02*
X18469857Y-11440928D01*
X18469857Y-11440928D02*
X18460334Y-11459976D01*
X18460334Y-11459976D02*
X18450810Y-11469500D01*
X18450810Y-11469500D02*
X18431762Y-11479024D01*
X18431762Y-11479024D02*
X18374619Y-11479024D01*
X18374619Y-11479024D02*
X18355572Y-11469500D01*
X18355572Y-11469500D02*
X18346048Y-11459976D01*
X18650810Y-11279024D02*
X18555572Y-11279024D01*
X18555572Y-11279024D02*
X18546048Y-11374262D01*
X18546048Y-11374262D02*
X18555572Y-11364738D01*
X18555572Y-11364738D02*
X18574619Y-11355214D01*
X18574619Y-11355214D02*
X18622238Y-11355214D01*
X18622238Y-11355214D02*
X18641286Y-11364738D01*
X18641286Y-11364738D02*
X18650810Y-11374262D01*
X18650810Y-11374262D02*
X18660334Y-11393309D01*
X18660334Y-11393309D02*
X18660334Y-11440928D01*
X18660334Y-11440928D02*
X18650810Y-11459976D01*
X18650810Y-11459976D02*
X18641286Y-11469500D01*
X18641286Y-11469500D02*
X18622238Y-11479024D01*
X18622238Y-11479024D02*
X18574619Y-11479024D01*
X18574619Y-11479024D02*
X18555572Y-11469500D01*
X18555572Y-11469500D02*
X18546048Y-11459976D01*
X18898429Y-11479024D02*
X18898429Y-11279024D01*
X18984143Y-11479024D02*
X18984143Y-11374262D01*
X18984143Y-11374262D02*
X18974619Y-11355214D01*
X18974619Y-11355214D02*
X18955572Y-11345690D01*
X18955572Y-11345690D02*
X18927000Y-11345690D01*
X18927000Y-11345690D02*
X18907953Y-11355214D01*
X18907953Y-11355214D02*
X18898429Y-11364738D01*
X19107953Y-11479024D02*
X19088905Y-11469500D01*
X19088905Y-11469500D02*
X19079381Y-11459976D01*
X19079381Y-11459976D02*
X19069858Y-11440928D01*
X19069858Y-11440928D02*
X19069858Y-11383786D01*
X19069858Y-11383786D02*
X19079381Y-11364738D01*
X19079381Y-11364738D02*
X19088905Y-11355214D01*
X19088905Y-11355214D02*
X19107953Y-11345690D01*
X19107953Y-11345690D02*
X19136524Y-11345690D01*
X19136524Y-11345690D02*
X19155572Y-11355214D01*
X19155572Y-11355214D02*
X19165096Y-11364738D01*
X19165096Y-11364738D02*
X19174619Y-11383786D01*
X19174619Y-11383786D02*
X19174619Y-11440928D01*
X19174619Y-11440928D02*
X19165096Y-11459976D01*
X19165096Y-11459976D02*
X19155572Y-11469500D01*
X19155572Y-11469500D02*
X19136524Y-11479024D01*
X19136524Y-11479024D02*
X19107953Y-11479024D01*
X19288905Y-11479024D02*
X19269858Y-11469500D01*
X19269858Y-11469500D02*
X19260334Y-11450452D01*
X19260334Y-11450452D02*
X19260334Y-11279024D01*
X19441286Y-11469500D02*
X19422239Y-11479024D01*
X19422239Y-11479024D02*
X19384143Y-11479024D01*
X19384143Y-11479024D02*
X19365096Y-11469500D01*
X19365096Y-11469500D02*
X19355572Y-11450452D01*
X19355572Y-11450452D02*
X19355572Y-11374262D01*
X19355572Y-11374262D02*
X19365096Y-11355214D01*
X19365096Y-11355214D02*
X19384143Y-11345690D01*
X19384143Y-11345690D02*
X19422239Y-11345690D01*
X19422239Y-11345690D02*
X19441286Y-11355214D01*
X19441286Y-11355214D02*
X19450810Y-11374262D01*
X19450810Y-11374262D02*
X19450810Y-11393309D01*
X19450810Y-11393309D02*
X19355572Y-11412357D01*
X19527000Y-11469500D02*
X19546048Y-11479024D01*
X19546048Y-11479024D02*
X19584143Y-11479024D01*
X19584143Y-11479024D02*
X19603191Y-11469500D01*
X19603191Y-11469500D02*
X19612715Y-11450452D01*
X19612715Y-11450452D02*
X19612715Y-11440928D01*
X19612715Y-11440928D02*
X19603191Y-11421881D01*
X19603191Y-11421881D02*
X19584143Y-11412357D01*
X19584143Y-11412357D02*
X19555572Y-11412357D01*
X19555572Y-11412357D02*
X19536524Y-11402833D01*
X19536524Y-11402833D02*
X19527000Y-11383786D01*
X19527000Y-11383786D02*
X19527000Y-11374262D01*
X19527000Y-11374262D02*
X19536524Y-11355214D01*
X19536524Y-11355214D02*
X19555572Y-11345690D01*
X19555572Y-11345690D02*
X19584143Y-11345690D01*
X19584143Y-11345690D02*
X19603191Y-11355214D01*
X19679381Y-11555214D02*
X19688905Y-11545690D01*
X19688905Y-11545690D02*
X19707953Y-11517119D01*
X19707953Y-11517119D02*
X19717477Y-11498071D01*
X19717477Y-11498071D02*
X19727000Y-11469500D01*
X19727000Y-11469500D02*
X19736524Y-11421881D01*
X19736524Y-11421881D02*
X19736524Y-11383786D01*
X19736524Y-11383786D02*
X19727000Y-11336167D01*
X19727000Y-11336167D02*
X19717477Y-11307595D01*
X19717477Y-11307595D02*
X19707953Y-11288548D01*
X19707953Y-11288548D02*
X19688905Y-11259976D01*
X19688905Y-11259976D02*
X19679381Y-11250452D01*
D13*
X14670000Y-11593500D02*
X14670000Y-11707500D01*
X14613000Y-11650500D02*
X14727000Y-11650500D01*
D11*
X15079381Y-11743024D02*
X14965095Y-11743024D01*
X15022238Y-11743024D02*
X15022238Y-11543024D01*
X15022238Y-11543024D02*
X15003190Y-11571595D01*
X15003190Y-11571595D02*
X14984143Y-11590643D01*
X14984143Y-11590643D02*
X14965095Y-11600167D01*
X15165095Y-11723976D02*
X15174619Y-11733500D01*
X15174619Y-11733500D02*
X15165095Y-11743024D01*
X15165095Y-11743024D02*
X15155571Y-11733500D01*
X15155571Y-11733500D02*
X15165095Y-11723976D01*
X15165095Y-11723976D02*
X15165095Y-11743024D01*
X15365095Y-11743024D02*
X15250809Y-11743024D01*
X15307952Y-11743024D02*
X15307952Y-11543024D01*
X15307952Y-11543024D02*
X15288905Y-11571595D01*
X15288905Y-11571595D02*
X15269857Y-11590643D01*
X15269857Y-11590643D02*
X15250809Y-11600167D01*
X15536524Y-11609690D02*
X15536524Y-11743024D01*
X15488905Y-11533500D02*
X15441286Y-11676357D01*
X15441286Y-11676357D02*
X15565095Y-11676357D01*
X15679381Y-11543024D02*
X15698429Y-11543024D01*
X15698429Y-11543024D02*
X15717476Y-11552548D01*
X15717476Y-11552548D02*
X15727000Y-11562071D01*
X15727000Y-11562071D02*
X15736524Y-11581119D01*
X15736524Y-11581119D02*
X15746048Y-11619214D01*
X15746048Y-11619214D02*
X15746048Y-11666833D01*
X15746048Y-11666833D02*
X15736524Y-11704928D01*
X15736524Y-11704928D02*
X15727000Y-11723976D01*
X15727000Y-11723976D02*
X15717476Y-11733500D01*
X15717476Y-11733500D02*
X15698429Y-11743024D01*
X15698429Y-11743024D02*
X15679381Y-11743024D01*
X15679381Y-11743024D02*
X15660333Y-11733500D01*
X15660333Y-11733500D02*
X15650809Y-11723976D01*
X15650809Y-11723976D02*
X15641286Y-11704928D01*
X15641286Y-11704928D02*
X15631762Y-11666833D01*
X15631762Y-11666833D02*
X15631762Y-11619214D01*
X15631762Y-11619214D02*
X15641286Y-11581119D01*
X15641286Y-11581119D02*
X15650809Y-11562071D01*
X15650809Y-11562071D02*
X15660333Y-11552548D01*
X15660333Y-11552548D02*
X15679381Y-11543024D01*
X15831762Y-11743024D02*
X15831762Y-11609690D01*
X15831762Y-11628738D02*
X15841286Y-11619214D01*
X15841286Y-11619214D02*
X15860333Y-11609690D01*
X15860333Y-11609690D02*
X15888905Y-11609690D01*
X15888905Y-11609690D02*
X15907952Y-11619214D01*
X15907952Y-11619214D02*
X15917476Y-11638262D01*
X15917476Y-11638262D02*
X15917476Y-11743024D01*
X15917476Y-11638262D02*
X15927000Y-11619214D01*
X15927000Y-11619214D02*
X15946048Y-11609690D01*
X15946048Y-11609690D02*
X15974619Y-11609690D01*
X15974619Y-11609690D02*
X15993667Y-11619214D01*
X15993667Y-11619214D02*
X16003190Y-11638262D01*
X16003190Y-11638262D02*
X16003190Y-11743024D01*
X16098429Y-11743024D02*
X16098429Y-11609690D01*
X16098429Y-11628738D02*
X16107952Y-11619214D01*
X16107952Y-11619214D02*
X16127000Y-11609690D01*
X16127000Y-11609690D02*
X16155571Y-11609690D01*
X16155571Y-11609690D02*
X16174619Y-11619214D01*
X16174619Y-11619214D02*
X16184143Y-11638262D01*
X16184143Y-11638262D02*
X16184143Y-11743024D01*
X16184143Y-11638262D02*
X16193667Y-11619214D01*
X16193667Y-11619214D02*
X16212714Y-11609690D01*
X16212714Y-11609690D02*
X16241286Y-11609690D01*
X16241286Y-11609690D02*
X16260333Y-11619214D01*
X16260333Y-11619214D02*
X16269857Y-11638262D01*
X16269857Y-11638262D02*
X16269857Y-11743024D01*
X16660333Y-11533500D02*
X16488905Y-11790643D01*
X16917476Y-11543024D02*
X16936524Y-11543024D01*
X16936524Y-11543024D02*
X16955572Y-11552548D01*
X16955572Y-11552548D02*
X16965095Y-11562071D01*
X16965095Y-11562071D02*
X16974619Y-11581119D01*
X16974619Y-11581119D02*
X16984143Y-11619214D01*
X16984143Y-11619214D02*
X16984143Y-11666833D01*
X16984143Y-11666833D02*
X16974619Y-11704928D01*
X16974619Y-11704928D02*
X16965095Y-11723976D01*
X16965095Y-11723976D02*
X16955572Y-11733500D01*
X16955572Y-11733500D02*
X16936524Y-11743024D01*
X16936524Y-11743024D02*
X16917476Y-11743024D01*
X16917476Y-11743024D02*
X16898429Y-11733500D01*
X16898429Y-11733500D02*
X16888905Y-11723976D01*
X16888905Y-11723976D02*
X16879381Y-11704928D01*
X16879381Y-11704928D02*
X16869857Y-11666833D01*
X16869857Y-11666833D02*
X16869857Y-11619214D01*
X16869857Y-11619214D02*
X16879381Y-11581119D01*
X16879381Y-11581119D02*
X16888905Y-11562071D01*
X16888905Y-11562071D02*
X16898429Y-11552548D01*
X16898429Y-11552548D02*
X16917476Y-11543024D01*
X17069857Y-11723976D02*
X17079381Y-11733500D01*
X17079381Y-11733500D02*
X17069857Y-11743024D01*
X17069857Y-11743024D02*
X17060334Y-11733500D01*
X17060334Y-11733500D02*
X17069857Y-11723976D01*
X17069857Y-11723976D02*
X17069857Y-11743024D01*
X17203191Y-11543024D02*
X17222238Y-11543024D01*
X17222238Y-11543024D02*
X17241286Y-11552548D01*
X17241286Y-11552548D02*
X17250810Y-11562071D01*
X17250810Y-11562071D02*
X17260334Y-11581119D01*
X17260334Y-11581119D02*
X17269857Y-11619214D01*
X17269857Y-11619214D02*
X17269857Y-11666833D01*
X17269857Y-11666833D02*
X17260334Y-11704928D01*
X17260334Y-11704928D02*
X17250810Y-11723976D01*
X17250810Y-11723976D02*
X17241286Y-11733500D01*
X17241286Y-11733500D02*
X17222238Y-11743024D01*
X17222238Y-11743024D02*
X17203191Y-11743024D01*
X17203191Y-11743024D02*
X17184143Y-11733500D01*
X17184143Y-11733500D02*
X17174619Y-11723976D01*
X17174619Y-11723976D02*
X17165095Y-11704928D01*
X17165095Y-11704928D02*
X17155572Y-11666833D01*
X17155572Y-11666833D02*
X17155572Y-11619214D01*
X17155572Y-11619214D02*
X17165095Y-11581119D01*
X17165095Y-11581119D02*
X17174619Y-11562071D01*
X17174619Y-11562071D02*
X17184143Y-11552548D01*
X17184143Y-11552548D02*
X17203191Y-11543024D01*
X17441286Y-11609690D02*
X17441286Y-11743024D01*
X17393667Y-11533500D02*
X17346048Y-11676357D01*
X17346048Y-11676357D02*
X17469857Y-11676357D01*
X17631762Y-11609690D02*
X17631762Y-11743024D01*
X17584143Y-11533500D02*
X17536524Y-11676357D01*
X17536524Y-11676357D02*
X17660334Y-11676357D01*
X17746048Y-11743024D02*
X17784143Y-11743024D01*
X17784143Y-11743024D02*
X17803191Y-11733500D01*
X17803191Y-11733500D02*
X17812715Y-11723976D01*
X17812715Y-11723976D02*
X17831762Y-11695405D01*
X17831762Y-11695405D02*
X17841286Y-11657309D01*
X17841286Y-11657309D02*
X17841286Y-11581119D01*
X17841286Y-11581119D02*
X17831762Y-11562071D01*
X17831762Y-11562071D02*
X17822238Y-11552548D01*
X17822238Y-11552548D02*
X17803191Y-11543024D01*
X17803191Y-11543024D02*
X17765095Y-11543024D01*
X17765095Y-11543024D02*
X17746048Y-11552548D01*
X17746048Y-11552548D02*
X17736524Y-11562071D01*
X17736524Y-11562071D02*
X17727000Y-11581119D01*
X17727000Y-11581119D02*
X17727000Y-11628738D01*
X17727000Y-11628738D02*
X17736524Y-11647786D01*
X17736524Y-11647786D02*
X17746048Y-11657309D01*
X17746048Y-11657309D02*
X17765095Y-11666833D01*
X17765095Y-11666833D02*
X17803191Y-11666833D01*
X17803191Y-11666833D02*
X17822238Y-11657309D01*
X17822238Y-11657309D02*
X17831762Y-11647786D01*
X17831762Y-11647786D02*
X17841286Y-11628738D01*
X17917476Y-11543024D02*
X17917476Y-11581119D01*
X17993667Y-11543024D02*
X17993667Y-11581119D01*
X18288905Y-11819214D02*
X18279381Y-11809690D01*
X18279381Y-11809690D02*
X18260334Y-11781119D01*
X18260334Y-11781119D02*
X18250810Y-11762071D01*
X18250810Y-11762071D02*
X18241286Y-11733500D01*
X18241286Y-11733500D02*
X18231762Y-11685881D01*
X18231762Y-11685881D02*
X18231762Y-11647786D01*
X18231762Y-11647786D02*
X18241286Y-11600167D01*
X18241286Y-11600167D02*
X18250810Y-11571595D01*
X18250810Y-11571595D02*
X18260334Y-11552548D01*
X18260334Y-11552548D02*
X18279381Y-11523976D01*
X18279381Y-11523976D02*
X18288905Y-11514452D01*
X18450810Y-11609690D02*
X18450810Y-11743024D01*
X18403191Y-11533500D02*
X18355572Y-11676357D01*
X18355572Y-11676357D02*
X18479381Y-11676357D01*
X18641286Y-11609690D02*
X18641286Y-11743024D01*
X18593667Y-11533500D02*
X18546048Y-11676357D01*
X18546048Y-11676357D02*
X18669857Y-11676357D01*
X18898429Y-11743024D02*
X18898429Y-11543024D01*
X18984143Y-11743024D02*
X18984143Y-11638262D01*
X18984143Y-11638262D02*
X18974619Y-11619214D01*
X18974619Y-11619214D02*
X18955572Y-11609690D01*
X18955572Y-11609690D02*
X18927000Y-11609690D01*
X18927000Y-11609690D02*
X18907953Y-11619214D01*
X18907953Y-11619214D02*
X18898429Y-11628738D01*
X19107953Y-11743024D02*
X19088905Y-11733500D01*
X19088905Y-11733500D02*
X19079381Y-11723976D01*
X19079381Y-11723976D02*
X19069858Y-11704928D01*
X19069858Y-11704928D02*
X19069858Y-11647786D01*
X19069858Y-11647786D02*
X19079381Y-11628738D01*
X19079381Y-11628738D02*
X19088905Y-11619214D01*
X19088905Y-11619214D02*
X19107953Y-11609690D01*
X19107953Y-11609690D02*
X19136524Y-11609690D01*
X19136524Y-11609690D02*
X19155572Y-11619214D01*
X19155572Y-11619214D02*
X19165096Y-11628738D01*
X19165096Y-11628738D02*
X19174619Y-11647786D01*
X19174619Y-11647786D02*
X19174619Y-11704928D01*
X19174619Y-11704928D02*
X19165096Y-11723976D01*
X19165096Y-11723976D02*
X19155572Y-11733500D01*
X19155572Y-11733500D02*
X19136524Y-11743024D01*
X19136524Y-11743024D02*
X19107953Y-11743024D01*
X19288905Y-11743024D02*
X19269858Y-11733500D01*
X19269858Y-11733500D02*
X19260334Y-11714452D01*
X19260334Y-11714452D02*
X19260334Y-11543024D01*
X19441286Y-11733500D02*
X19422239Y-11743024D01*
X19422239Y-11743024D02*
X19384143Y-11743024D01*
X19384143Y-11743024D02*
X19365096Y-11733500D01*
X19365096Y-11733500D02*
X19355572Y-11714452D01*
X19355572Y-11714452D02*
X19355572Y-11638262D01*
X19355572Y-11638262D02*
X19365096Y-11619214D01*
X19365096Y-11619214D02*
X19384143Y-11609690D01*
X19384143Y-11609690D02*
X19422239Y-11609690D01*
X19422239Y-11609690D02*
X19441286Y-11619214D01*
X19441286Y-11619214D02*
X19450810Y-11638262D01*
X19450810Y-11638262D02*
X19450810Y-11657309D01*
X19450810Y-11657309D02*
X19355572Y-11676357D01*
X19527000Y-11733500D02*
X19546048Y-11743024D01*
X19546048Y-11743024D02*
X19584143Y-11743024D01*
X19584143Y-11743024D02*
X19603191Y-11733500D01*
X19603191Y-11733500D02*
X19612715Y-11714452D01*
X19612715Y-11714452D02*
X19612715Y-11704928D01*
X19612715Y-11704928D02*
X19603191Y-11685881D01*
X19603191Y-11685881D02*
X19584143Y-11676357D01*
X19584143Y-11676357D02*
X19555572Y-11676357D01*
X19555572Y-11676357D02*
X19536524Y-11666833D01*
X19536524Y-11666833D02*
X19527000Y-11647786D01*
X19527000Y-11647786D02*
X19527000Y-11638262D01*
X19527000Y-11638262D02*
X19536524Y-11619214D01*
X19536524Y-11619214D02*
X19555572Y-11609690D01*
X19555572Y-11609690D02*
X19584143Y-11609690D01*
X19584143Y-11609690D02*
X19603191Y-11619214D01*
X19679381Y-11819214D02*
X19688905Y-11809690D01*
X19688905Y-11809690D02*
X19707953Y-11781119D01*
X19707953Y-11781119D02*
X19717477Y-11762071D01*
X19717477Y-11762071D02*
X19727000Y-11733500D01*
X19727000Y-11733500D02*
X19736524Y-11685881D01*
X19736524Y-11685881D02*
X19736524Y-11647786D01*
X19736524Y-11647786D02*
X19727000Y-11600167D01*
X19727000Y-11600167D02*
X19717477Y-11571595D01*
X19717477Y-11571595D02*
X19707953Y-11552548D01*
X19707953Y-11552548D02*
X19688905Y-11523976D01*
X19688905Y-11523976D02*
X19679381Y-11514452D01*
M02*
