%TF.GenerationSoftware,KiCad,Pcbnew,7.0.1-0*%
%TF.CreationDate,2024-02-20T17:42:23-05:00*%
%TF.ProjectId,OBDBajaUC,4f424442-616a-4615-9543-2e6b69636164,rev?*%
%TF.SameCoordinates,Original*%
%TF.FileFunction,Legend,Top*%
%TF.FilePolarity,Positive*%
%FSLAX46Y46*%
G04 Gerber Fmt 4.6, Leading zero omitted, Abs format (unit mm)*
G04 Created by KiCad (PCBNEW 7.0.1-0) date 2024-02-20 17:42:23*
%MOMM*%
%LPD*%
G01*
G04 APERTURE LIST*
G04 Aperture macros list*
%AMRoundRect*
0 Rectangle with rounded corners*
0 $1 Rounding radius*
0 $2 $3 $4 $5 $6 $7 $8 $9 X,Y pos of 4 corners*
0 Add a 4 corners polygon primitive as box body*
4,1,4,$2,$3,$4,$5,$6,$7,$8,$9,$2,$3,0*
0 Add four circle primitives for the rounded corners*
1,1,$1+$1,$2,$3*
1,1,$1+$1,$4,$5*
1,1,$1+$1,$6,$7*
1,1,$1+$1,$8,$9*
0 Add four rect primitives between the rounded corners*
20,1,$1+$1,$2,$3,$4,$5,0*
20,1,$1+$1,$4,$5,$6,$7,0*
20,1,$1+$1,$6,$7,$8,$9,0*
20,1,$1+$1,$8,$9,$2,$3,0*%
G04 Aperture macros list end*
%ADD10C,0.150000*%
%ADD11C,0.203200*%
%ADD12C,0.304800*%
%ADD13C,0.120000*%
%ADD14C,3.200000*%
%ADD15R,1.700000X1.700000*%
%ADD16O,1.700000X1.700000*%
%ADD17RoundRect,0.250000X-0.475000X0.337500X-0.475000X-0.337500X0.475000X-0.337500X0.475000X0.337500X0*%
%ADD18RoundRect,0.250000X-0.450000X0.350000X-0.450000X-0.350000X0.450000X-0.350000X0.450000X0.350000X0*%
%ADD19C,1.800000*%
G04 APERTURE END LIST*
D10*
X176085714Y-77170619D02*
X176085714Y-76170619D01*
X176085714Y-76170619D02*
X176323809Y-76170619D01*
X176323809Y-76170619D02*
X176466666Y-76218238D01*
X176466666Y-76218238D02*
X176561904Y-76313476D01*
X176561904Y-76313476D02*
X176609523Y-76408714D01*
X176609523Y-76408714D02*
X176657142Y-76599190D01*
X176657142Y-76599190D02*
X176657142Y-76742047D01*
X176657142Y-76742047D02*
X176609523Y-76932523D01*
X176609523Y-76932523D02*
X176561904Y-77027761D01*
X176561904Y-77027761D02*
X176466666Y-77123000D01*
X176466666Y-77123000D02*
X176323809Y-77170619D01*
X176323809Y-77170619D02*
X176085714Y-77170619D01*
X177514285Y-76170619D02*
X177323809Y-76170619D01*
X177323809Y-76170619D02*
X177228571Y-76218238D01*
X177228571Y-76218238D02*
X177180952Y-76265857D01*
X177180952Y-76265857D02*
X177085714Y-76408714D01*
X177085714Y-76408714D02*
X177038095Y-76599190D01*
X177038095Y-76599190D02*
X177038095Y-76980142D01*
X177038095Y-76980142D02*
X177085714Y-77075380D01*
X177085714Y-77075380D02*
X177133333Y-77123000D01*
X177133333Y-77123000D02*
X177228571Y-77170619D01*
X177228571Y-77170619D02*
X177419047Y-77170619D01*
X177419047Y-77170619D02*
X177514285Y-77123000D01*
X177514285Y-77123000D02*
X177561904Y-77075380D01*
X177561904Y-77075380D02*
X177609523Y-76980142D01*
X177609523Y-76980142D02*
X177609523Y-76742047D01*
X177609523Y-76742047D02*
X177561904Y-76646809D01*
X177561904Y-76646809D02*
X177514285Y-76599190D01*
X177514285Y-76599190D02*
X177419047Y-76551571D01*
X177419047Y-76551571D02*
X177228571Y-76551571D01*
X177228571Y-76551571D02*
X177133333Y-76599190D01*
X177133333Y-76599190D02*
X177085714Y-76646809D01*
X177085714Y-76646809D02*
X177038095Y-76742047D01*
X176180952Y-89584904D02*
X176657142Y-89584904D01*
X176085714Y-89870619D02*
X176419047Y-88870619D01*
X176419047Y-88870619D02*
X176752380Y-89870619D01*
X177609523Y-89870619D02*
X177038095Y-89870619D01*
X177323809Y-89870619D02*
X177323809Y-88870619D01*
X177323809Y-88870619D02*
X177228571Y-89013476D01*
X177228571Y-89013476D02*
X177133333Y-89108714D01*
X177133333Y-89108714D02*
X177038095Y-89156333D01*
X175514285Y-95141238D02*
X175419047Y-95093619D01*
X175419047Y-95093619D02*
X175276190Y-95093619D01*
X175276190Y-95093619D02*
X175133333Y-95141238D01*
X175133333Y-95141238D02*
X175038095Y-95236476D01*
X175038095Y-95236476D02*
X174990476Y-95331714D01*
X174990476Y-95331714D02*
X174942857Y-95522190D01*
X174942857Y-95522190D02*
X174942857Y-95665047D01*
X174942857Y-95665047D02*
X174990476Y-95855523D01*
X174990476Y-95855523D02*
X175038095Y-95950761D01*
X175038095Y-95950761D02*
X175133333Y-96046000D01*
X175133333Y-96046000D02*
X175276190Y-96093619D01*
X175276190Y-96093619D02*
X175371428Y-96093619D01*
X175371428Y-96093619D02*
X175514285Y-96046000D01*
X175514285Y-96046000D02*
X175561904Y-95998380D01*
X175561904Y-95998380D02*
X175561904Y-95665047D01*
X175561904Y-95665047D02*
X175371428Y-95665047D01*
X175990476Y-96093619D02*
X175990476Y-95093619D01*
X175990476Y-95093619D02*
X176561904Y-96093619D01*
X176561904Y-96093619D02*
X176561904Y-95093619D01*
X177038095Y-96093619D02*
X177038095Y-95093619D01*
X177038095Y-95093619D02*
X177276190Y-95093619D01*
X177276190Y-95093619D02*
X177419047Y-95141238D01*
X177419047Y-95141238D02*
X177514285Y-95236476D01*
X177514285Y-95236476D02*
X177561904Y-95331714D01*
X177561904Y-95331714D02*
X177609523Y-95522190D01*
X177609523Y-95522190D02*
X177609523Y-95665047D01*
X177609523Y-95665047D02*
X177561904Y-95855523D01*
X177561904Y-95855523D02*
X177514285Y-95950761D01*
X177514285Y-95950761D02*
X177419047Y-96046000D01*
X177419047Y-96046000D02*
X177276190Y-96093619D01*
X177276190Y-96093619D02*
X177038095Y-96093619D01*
X174958762Y-58644619D02*
X175577809Y-58644619D01*
X175577809Y-58644619D02*
X175244476Y-59025571D01*
X175244476Y-59025571D02*
X175387333Y-59025571D01*
X175387333Y-59025571D02*
X175482571Y-59073190D01*
X175482571Y-59073190D02*
X175530190Y-59120809D01*
X175530190Y-59120809D02*
X175577809Y-59216047D01*
X175577809Y-59216047D02*
X175577809Y-59454142D01*
X175577809Y-59454142D02*
X175530190Y-59549380D01*
X175530190Y-59549380D02*
X175482571Y-59597000D01*
X175482571Y-59597000D02*
X175387333Y-59644619D01*
X175387333Y-59644619D02*
X175101619Y-59644619D01*
X175101619Y-59644619D02*
X175006381Y-59597000D01*
X175006381Y-59597000D02*
X174958762Y-59549380D01*
X176006381Y-59549380D02*
X176054000Y-59597000D01*
X176054000Y-59597000D02*
X176006381Y-59644619D01*
X176006381Y-59644619D02*
X175958762Y-59597000D01*
X175958762Y-59597000D02*
X176006381Y-59549380D01*
X176006381Y-59549380D02*
X176006381Y-59644619D01*
X176387333Y-58644619D02*
X177006380Y-58644619D01*
X177006380Y-58644619D02*
X176673047Y-59025571D01*
X176673047Y-59025571D02*
X176815904Y-59025571D01*
X176815904Y-59025571D02*
X176911142Y-59073190D01*
X176911142Y-59073190D02*
X176958761Y-59120809D01*
X176958761Y-59120809D02*
X177006380Y-59216047D01*
X177006380Y-59216047D02*
X177006380Y-59454142D01*
X177006380Y-59454142D02*
X176958761Y-59549380D01*
X176958761Y-59549380D02*
X176911142Y-59597000D01*
X176911142Y-59597000D02*
X176815904Y-59644619D01*
X176815904Y-59644619D02*
X176530190Y-59644619D01*
X176530190Y-59644619D02*
X176434952Y-59597000D01*
X176434952Y-59597000D02*
X176387333Y-59549380D01*
X177292095Y-58644619D02*
X177625428Y-59644619D01*
X177625428Y-59644619D02*
X177958761Y-58644619D01*
X176180952Y-92124904D02*
X176657142Y-92124904D01*
X176085714Y-92410619D02*
X176419047Y-91410619D01*
X176419047Y-91410619D02*
X176752380Y-92410619D01*
X177276190Y-91410619D02*
X177371428Y-91410619D01*
X177371428Y-91410619D02*
X177466666Y-91458238D01*
X177466666Y-91458238D02*
X177514285Y-91505857D01*
X177514285Y-91505857D02*
X177561904Y-91601095D01*
X177561904Y-91601095D02*
X177609523Y-91791571D01*
X177609523Y-91791571D02*
X177609523Y-92029666D01*
X177609523Y-92029666D02*
X177561904Y-92220142D01*
X177561904Y-92220142D02*
X177514285Y-92315380D01*
X177514285Y-92315380D02*
X177466666Y-92363000D01*
X177466666Y-92363000D02*
X177371428Y-92410619D01*
X177371428Y-92410619D02*
X177276190Y-92410619D01*
X177276190Y-92410619D02*
X177180952Y-92363000D01*
X177180952Y-92363000D02*
X177133333Y-92315380D01*
X177133333Y-92315380D02*
X177085714Y-92220142D01*
X177085714Y-92220142D02*
X177038095Y-92029666D01*
X177038095Y-92029666D02*
X177038095Y-91791571D01*
X177038095Y-91791571D02*
X177085714Y-91601095D01*
X177085714Y-91601095D02*
X177133333Y-91505857D01*
X177133333Y-91505857D02*
X177180952Y-91458238D01*
X177180952Y-91458238D02*
X177276190Y-91410619D01*
D11*
X158477856Y-88973478D02*
X158538332Y-88913002D01*
X158538332Y-88913002D02*
X158659285Y-88852526D01*
X158659285Y-88852526D02*
X158961666Y-88852526D01*
X158961666Y-88852526D02*
X159082618Y-88913002D01*
X159082618Y-88913002D02*
X159143094Y-88973478D01*
X159143094Y-88973478D02*
X159203571Y-89094430D01*
X159203571Y-89094430D02*
X159203571Y-89215383D01*
X159203571Y-89215383D02*
X159143094Y-89396811D01*
X159143094Y-89396811D02*
X158417380Y-90122526D01*
X158417380Y-90122526D02*
X159203571Y-90122526D01*
X159989761Y-88852526D02*
X160110714Y-88852526D01*
X160110714Y-88852526D02*
X160231666Y-88913002D01*
X160231666Y-88913002D02*
X160292142Y-88973478D01*
X160292142Y-88973478D02*
X160352618Y-89094430D01*
X160352618Y-89094430D02*
X160413095Y-89336335D01*
X160413095Y-89336335D02*
X160413095Y-89638716D01*
X160413095Y-89638716D02*
X160352618Y-89880621D01*
X160352618Y-89880621D02*
X160292142Y-90001573D01*
X160292142Y-90001573D02*
X160231666Y-90062050D01*
X160231666Y-90062050D02*
X160110714Y-90122526D01*
X160110714Y-90122526D02*
X159989761Y-90122526D01*
X159989761Y-90122526D02*
X159868809Y-90062050D01*
X159868809Y-90062050D02*
X159808333Y-90001573D01*
X159808333Y-90001573D02*
X159747856Y-89880621D01*
X159747856Y-89880621D02*
X159687380Y-89638716D01*
X159687380Y-89638716D02*
X159687380Y-89336335D01*
X159687380Y-89336335D02*
X159747856Y-89094430D01*
X159747856Y-89094430D02*
X159808333Y-88973478D01*
X159808333Y-88973478D02*
X159868809Y-88913002D01*
X159868809Y-88913002D02*
X159989761Y-88852526D01*
X160896904Y-88973478D02*
X160957380Y-88913002D01*
X160957380Y-88913002D02*
X161078333Y-88852526D01*
X161078333Y-88852526D02*
X161380714Y-88852526D01*
X161380714Y-88852526D02*
X161501666Y-88913002D01*
X161501666Y-88913002D02*
X161562142Y-88973478D01*
X161562142Y-88973478D02*
X161622619Y-89094430D01*
X161622619Y-89094430D02*
X161622619Y-89215383D01*
X161622619Y-89215383D02*
X161562142Y-89396811D01*
X161562142Y-89396811D02*
X160836428Y-90122526D01*
X160836428Y-90122526D02*
X161622619Y-90122526D01*
X162711190Y-89275859D02*
X162711190Y-90122526D01*
X162408809Y-88792050D02*
X162106428Y-89699192D01*
X162106428Y-89699192D02*
X162892619Y-89699192D01*
X164344047Y-89638716D02*
X165311667Y-89638716D01*
X166702619Y-88852526D02*
X167125952Y-90122526D01*
X167125952Y-90122526D02*
X167549286Y-88852526D01*
X168637857Y-90122526D02*
X167912142Y-90122526D01*
X168274999Y-90122526D02*
X168274999Y-88852526D01*
X168274999Y-88852526D02*
X168154047Y-89033954D01*
X168154047Y-89033954D02*
X168033095Y-89154907D01*
X168033095Y-89154907D02*
X167912142Y-89215383D01*
X169182142Y-90001573D02*
X169242619Y-90062050D01*
X169242619Y-90062050D02*
X169182142Y-90122526D01*
X169182142Y-90122526D02*
X169121666Y-90062050D01*
X169121666Y-90062050D02*
X169182142Y-90001573D01*
X169182142Y-90001573D02*
X169182142Y-90122526D01*
X170452143Y-90122526D02*
X169726428Y-90122526D01*
X170089285Y-90122526D02*
X170089285Y-88852526D01*
X170089285Y-88852526D02*
X169968333Y-89033954D01*
X169968333Y-89033954D02*
X169847381Y-89154907D01*
X169847381Y-89154907D02*
X169726428Y-89215383D01*
D10*
X176180952Y-81964904D02*
X176657142Y-81964904D01*
X176085714Y-82250619D02*
X176419047Y-81250619D01*
X176419047Y-81250619D02*
X176752380Y-82250619D01*
X177514285Y-81583952D02*
X177514285Y-82250619D01*
X177276190Y-81203000D02*
X177038095Y-81917285D01*
X177038095Y-81917285D02*
X177657142Y-81917285D01*
X175657142Y-63232380D02*
X175609523Y-63280000D01*
X175609523Y-63280000D02*
X175466666Y-63327619D01*
X175466666Y-63327619D02*
X175371428Y-63327619D01*
X175371428Y-63327619D02*
X175228571Y-63280000D01*
X175228571Y-63280000D02*
X175133333Y-63184761D01*
X175133333Y-63184761D02*
X175085714Y-63089523D01*
X175085714Y-63089523D02*
X175038095Y-62899047D01*
X175038095Y-62899047D02*
X175038095Y-62756190D01*
X175038095Y-62756190D02*
X175085714Y-62565714D01*
X175085714Y-62565714D02*
X175133333Y-62470476D01*
X175133333Y-62470476D02*
X175228571Y-62375238D01*
X175228571Y-62375238D02*
X175371428Y-62327619D01*
X175371428Y-62327619D02*
X175466666Y-62327619D01*
X175466666Y-62327619D02*
X175609523Y-62375238D01*
X175609523Y-62375238D02*
X175657142Y-62422857D01*
X176657142Y-63327619D02*
X176323809Y-62851428D01*
X176085714Y-63327619D02*
X176085714Y-62327619D01*
X176085714Y-62327619D02*
X176466666Y-62327619D01*
X176466666Y-62327619D02*
X176561904Y-62375238D01*
X176561904Y-62375238D02*
X176609523Y-62422857D01*
X176609523Y-62422857D02*
X176657142Y-62518095D01*
X176657142Y-62518095D02*
X176657142Y-62660952D01*
X176657142Y-62660952D02*
X176609523Y-62756190D01*
X176609523Y-62756190D02*
X176561904Y-62803809D01*
X176561904Y-62803809D02*
X176466666Y-62851428D01*
X176466666Y-62851428D02*
X176085714Y-62851428D01*
X176990476Y-62327619D02*
X177657142Y-63327619D01*
X177657142Y-62327619D02*
X176990476Y-63327619D01*
X176085714Y-74630619D02*
X176085714Y-73630619D01*
X176085714Y-73630619D02*
X176323809Y-73630619D01*
X176323809Y-73630619D02*
X176466666Y-73678238D01*
X176466666Y-73678238D02*
X176561904Y-73773476D01*
X176561904Y-73773476D02*
X176609523Y-73868714D01*
X176609523Y-73868714D02*
X176657142Y-74059190D01*
X176657142Y-74059190D02*
X176657142Y-74202047D01*
X176657142Y-74202047D02*
X176609523Y-74392523D01*
X176609523Y-74392523D02*
X176561904Y-74487761D01*
X176561904Y-74487761D02*
X176466666Y-74583000D01*
X176466666Y-74583000D02*
X176323809Y-74630619D01*
X176323809Y-74630619D02*
X176085714Y-74630619D01*
X177561904Y-73630619D02*
X177085714Y-73630619D01*
X177085714Y-73630619D02*
X177038095Y-74106809D01*
X177038095Y-74106809D02*
X177085714Y-74059190D01*
X177085714Y-74059190D02*
X177180952Y-74011571D01*
X177180952Y-74011571D02*
X177419047Y-74011571D01*
X177419047Y-74011571D02*
X177514285Y-74059190D01*
X177514285Y-74059190D02*
X177561904Y-74106809D01*
X177561904Y-74106809D02*
X177609523Y-74202047D01*
X177609523Y-74202047D02*
X177609523Y-74440142D01*
X177609523Y-74440142D02*
X177561904Y-74535380D01*
X177561904Y-74535380D02*
X177514285Y-74583000D01*
X177514285Y-74583000D02*
X177419047Y-74630619D01*
X177419047Y-74630619D02*
X177180952Y-74630619D01*
X177180952Y-74630619D02*
X177085714Y-74583000D01*
X177085714Y-74583000D02*
X177038095Y-74535380D01*
X176085714Y-72090619D02*
X176085714Y-71090619D01*
X176085714Y-71090619D02*
X176323809Y-71090619D01*
X176323809Y-71090619D02*
X176466666Y-71138238D01*
X176466666Y-71138238D02*
X176561904Y-71233476D01*
X176561904Y-71233476D02*
X176609523Y-71328714D01*
X176609523Y-71328714D02*
X176657142Y-71519190D01*
X176657142Y-71519190D02*
X176657142Y-71662047D01*
X176657142Y-71662047D02*
X176609523Y-71852523D01*
X176609523Y-71852523D02*
X176561904Y-71947761D01*
X176561904Y-71947761D02*
X176466666Y-72043000D01*
X176466666Y-72043000D02*
X176323809Y-72090619D01*
X176323809Y-72090619D02*
X176085714Y-72090619D01*
X177514285Y-71423952D02*
X177514285Y-72090619D01*
X177276190Y-71043000D02*
X177038095Y-71757285D01*
X177038095Y-71757285D02*
X177657142Y-71757285D01*
D12*
X159711571Y-77956591D02*
X160001857Y-77956591D01*
X160001857Y-77956591D02*
X160147000Y-78029162D01*
X160147000Y-78029162D02*
X160292143Y-78174305D01*
X160292143Y-78174305D02*
X160364714Y-78464591D01*
X160364714Y-78464591D02*
X160364714Y-78972591D01*
X160364714Y-78972591D02*
X160292143Y-79262877D01*
X160292143Y-79262877D02*
X160147000Y-79408020D01*
X160147000Y-79408020D02*
X160001857Y-79480591D01*
X160001857Y-79480591D02*
X159711571Y-79480591D01*
X159711571Y-79480591D02*
X159566429Y-79408020D01*
X159566429Y-79408020D02*
X159421286Y-79262877D01*
X159421286Y-79262877D02*
X159348714Y-78972591D01*
X159348714Y-78972591D02*
X159348714Y-78464591D01*
X159348714Y-78464591D02*
X159421286Y-78174305D01*
X159421286Y-78174305D02*
X159566429Y-78029162D01*
X159566429Y-78029162D02*
X159711571Y-77956591D01*
X161525857Y-78682305D02*
X161743571Y-78754877D01*
X161743571Y-78754877D02*
X161816142Y-78827448D01*
X161816142Y-78827448D02*
X161888714Y-78972591D01*
X161888714Y-78972591D02*
X161888714Y-79190305D01*
X161888714Y-79190305D02*
X161816142Y-79335448D01*
X161816142Y-79335448D02*
X161743571Y-79408020D01*
X161743571Y-79408020D02*
X161598428Y-79480591D01*
X161598428Y-79480591D02*
X161017857Y-79480591D01*
X161017857Y-79480591D02*
X161017857Y-77956591D01*
X161017857Y-77956591D02*
X161525857Y-77956591D01*
X161525857Y-77956591D02*
X161671000Y-78029162D01*
X161671000Y-78029162D02*
X161743571Y-78101734D01*
X161743571Y-78101734D02*
X161816142Y-78246877D01*
X161816142Y-78246877D02*
X161816142Y-78392020D01*
X161816142Y-78392020D02*
X161743571Y-78537162D01*
X161743571Y-78537162D02*
X161671000Y-78609734D01*
X161671000Y-78609734D02*
X161525857Y-78682305D01*
X161525857Y-78682305D02*
X161017857Y-78682305D01*
X162541857Y-79480591D02*
X162541857Y-77956591D01*
X162541857Y-77956591D02*
X162904714Y-77956591D01*
X162904714Y-77956591D02*
X163122428Y-78029162D01*
X163122428Y-78029162D02*
X163267571Y-78174305D01*
X163267571Y-78174305D02*
X163340142Y-78319448D01*
X163340142Y-78319448D02*
X163412714Y-78609734D01*
X163412714Y-78609734D02*
X163412714Y-78827448D01*
X163412714Y-78827448D02*
X163340142Y-79117734D01*
X163340142Y-79117734D02*
X163267571Y-79262877D01*
X163267571Y-79262877D02*
X163122428Y-79408020D01*
X163122428Y-79408020D02*
X162904714Y-79480591D01*
X162904714Y-79480591D02*
X162541857Y-79480591D01*
X165735000Y-78682305D02*
X165952714Y-78754877D01*
X165952714Y-78754877D02*
X166025285Y-78827448D01*
X166025285Y-78827448D02*
X166097857Y-78972591D01*
X166097857Y-78972591D02*
X166097857Y-79190305D01*
X166097857Y-79190305D02*
X166025285Y-79335448D01*
X166025285Y-79335448D02*
X165952714Y-79408020D01*
X165952714Y-79408020D02*
X165807571Y-79480591D01*
X165807571Y-79480591D02*
X165227000Y-79480591D01*
X165227000Y-79480591D02*
X165227000Y-77956591D01*
X165227000Y-77956591D02*
X165735000Y-77956591D01*
X165735000Y-77956591D02*
X165880143Y-78029162D01*
X165880143Y-78029162D02*
X165952714Y-78101734D01*
X165952714Y-78101734D02*
X166025285Y-78246877D01*
X166025285Y-78246877D02*
X166025285Y-78392020D01*
X166025285Y-78392020D02*
X165952714Y-78537162D01*
X165952714Y-78537162D02*
X165880143Y-78609734D01*
X165880143Y-78609734D02*
X165735000Y-78682305D01*
X165735000Y-78682305D02*
X165227000Y-78682305D01*
X167404143Y-79480591D02*
X167404143Y-78682305D01*
X167404143Y-78682305D02*
X167331571Y-78537162D01*
X167331571Y-78537162D02*
X167186428Y-78464591D01*
X167186428Y-78464591D02*
X166896143Y-78464591D01*
X166896143Y-78464591D02*
X166751000Y-78537162D01*
X167404143Y-79408020D02*
X167259000Y-79480591D01*
X167259000Y-79480591D02*
X166896143Y-79480591D01*
X166896143Y-79480591D02*
X166751000Y-79408020D01*
X166751000Y-79408020D02*
X166678428Y-79262877D01*
X166678428Y-79262877D02*
X166678428Y-79117734D01*
X166678428Y-79117734D02*
X166751000Y-78972591D01*
X166751000Y-78972591D02*
X166896143Y-78900020D01*
X166896143Y-78900020D02*
X167259000Y-78900020D01*
X167259000Y-78900020D02*
X167404143Y-78827448D01*
X168129857Y-78464591D02*
X168129857Y-79770877D01*
X168129857Y-79770877D02*
X168057285Y-79916020D01*
X168057285Y-79916020D02*
X167912142Y-79988591D01*
X167912142Y-79988591D02*
X167839571Y-79988591D01*
X168129857Y-77956591D02*
X168057285Y-78029162D01*
X168057285Y-78029162D02*
X168129857Y-78101734D01*
X168129857Y-78101734D02*
X168202428Y-78029162D01*
X168202428Y-78029162D02*
X168129857Y-77956591D01*
X168129857Y-77956591D02*
X168129857Y-78101734D01*
X169508714Y-79480591D02*
X169508714Y-78682305D01*
X169508714Y-78682305D02*
X169436142Y-78537162D01*
X169436142Y-78537162D02*
X169290999Y-78464591D01*
X169290999Y-78464591D02*
X169000714Y-78464591D01*
X169000714Y-78464591D02*
X168855571Y-78537162D01*
X169508714Y-79408020D02*
X169363571Y-79480591D01*
X169363571Y-79480591D02*
X169000714Y-79480591D01*
X169000714Y-79480591D02*
X168855571Y-79408020D01*
X168855571Y-79408020D02*
X168782999Y-79262877D01*
X168782999Y-79262877D02*
X168782999Y-79117734D01*
X168782999Y-79117734D02*
X168855571Y-78972591D01*
X168855571Y-78972591D02*
X169000714Y-78900020D01*
X169000714Y-78900020D02*
X169363571Y-78900020D01*
X169363571Y-78900020D02*
X169508714Y-78827448D01*
X158695572Y-80933471D02*
X158695572Y-82457471D01*
X159421286Y-81731757D02*
X159493857Y-81876900D01*
X159493857Y-81876900D02*
X159639000Y-81949471D01*
X158695572Y-81731757D02*
X158768143Y-81876900D01*
X158768143Y-81876900D02*
X158913286Y-81949471D01*
X158913286Y-81949471D02*
X159203572Y-81949471D01*
X159203572Y-81949471D02*
X159348715Y-81876900D01*
X159348715Y-81876900D02*
X159421286Y-81731757D01*
X159421286Y-81731757D02*
X159421286Y-80933471D01*
X161163000Y-81804328D02*
X161090428Y-81876900D01*
X161090428Y-81876900D02*
X160872714Y-81949471D01*
X160872714Y-81949471D02*
X160727571Y-81949471D01*
X160727571Y-81949471D02*
X160509857Y-81876900D01*
X160509857Y-81876900D02*
X160364714Y-81731757D01*
X160364714Y-81731757D02*
X160292143Y-81586614D01*
X160292143Y-81586614D02*
X160219571Y-81296328D01*
X160219571Y-81296328D02*
X160219571Y-81078614D01*
X160219571Y-81078614D02*
X160292143Y-80788328D01*
X160292143Y-80788328D02*
X160364714Y-80643185D01*
X160364714Y-80643185D02*
X160509857Y-80498042D01*
X160509857Y-80498042D02*
X160727571Y-80425471D01*
X160727571Y-80425471D02*
X160872714Y-80425471D01*
X160872714Y-80425471D02*
X161090428Y-80498042D01*
X161090428Y-80498042D02*
X161163000Y-80570614D01*
X162977286Y-81949471D02*
X162977286Y-80425471D01*
X162977286Y-80425471D02*
X163485286Y-81514042D01*
X163485286Y-81514042D02*
X163993286Y-80425471D01*
X163993286Y-80425471D02*
X163993286Y-81949471D01*
X164936714Y-81949471D02*
X164791571Y-81876900D01*
X164791571Y-81876900D02*
X164719000Y-81804328D01*
X164719000Y-81804328D02*
X164646428Y-81659185D01*
X164646428Y-81659185D02*
X164646428Y-81223757D01*
X164646428Y-81223757D02*
X164719000Y-81078614D01*
X164719000Y-81078614D02*
X164791571Y-81006042D01*
X164791571Y-81006042D02*
X164936714Y-80933471D01*
X164936714Y-80933471D02*
X165154428Y-80933471D01*
X165154428Y-80933471D02*
X165299571Y-81006042D01*
X165299571Y-81006042D02*
X165372143Y-81078614D01*
X165372143Y-81078614D02*
X165444714Y-81223757D01*
X165444714Y-81223757D02*
X165444714Y-81659185D01*
X165444714Y-81659185D02*
X165372143Y-81804328D01*
X165372143Y-81804328D02*
X165299571Y-81876900D01*
X165299571Y-81876900D02*
X165154428Y-81949471D01*
X165154428Y-81949471D02*
X164936714Y-81949471D01*
X166751000Y-81949471D02*
X166751000Y-80425471D01*
X166751000Y-81876900D02*
X166605857Y-81949471D01*
X166605857Y-81949471D02*
X166315571Y-81949471D01*
X166315571Y-81949471D02*
X166170428Y-81876900D01*
X166170428Y-81876900D02*
X166097857Y-81804328D01*
X166097857Y-81804328D02*
X166025285Y-81659185D01*
X166025285Y-81659185D02*
X166025285Y-81223757D01*
X166025285Y-81223757D02*
X166097857Y-81078614D01*
X166097857Y-81078614D02*
X166170428Y-81006042D01*
X166170428Y-81006042D02*
X166315571Y-80933471D01*
X166315571Y-80933471D02*
X166605857Y-80933471D01*
X166605857Y-80933471D02*
X166751000Y-81006042D01*
X168129857Y-80933471D02*
X168129857Y-81949471D01*
X167476714Y-80933471D02*
X167476714Y-81731757D01*
X167476714Y-81731757D02*
X167549285Y-81876900D01*
X167549285Y-81876900D02*
X167694428Y-81949471D01*
X167694428Y-81949471D02*
X167912142Y-81949471D01*
X167912142Y-81949471D02*
X168057285Y-81876900D01*
X168057285Y-81876900D02*
X168129857Y-81804328D01*
X169073285Y-81949471D02*
X168928142Y-81876900D01*
X168928142Y-81876900D02*
X168855571Y-81731757D01*
X168855571Y-81731757D02*
X168855571Y-80425471D01*
X170234428Y-81876900D02*
X170089285Y-81949471D01*
X170089285Y-81949471D02*
X169799000Y-81949471D01*
X169799000Y-81949471D02*
X169653857Y-81876900D01*
X169653857Y-81876900D02*
X169581285Y-81731757D01*
X169581285Y-81731757D02*
X169581285Y-81151185D01*
X169581285Y-81151185D02*
X169653857Y-81006042D01*
X169653857Y-81006042D02*
X169799000Y-80933471D01*
X169799000Y-80933471D02*
X170089285Y-80933471D01*
X170089285Y-80933471D02*
X170234428Y-81006042D01*
X170234428Y-81006042D02*
X170307000Y-81151185D01*
X170307000Y-81151185D02*
X170307000Y-81296328D01*
X170307000Y-81296328D02*
X169581285Y-81441471D01*
D10*
X176085714Y-79710619D02*
X176085714Y-78710619D01*
X176085714Y-78710619D02*
X176323809Y-78710619D01*
X176323809Y-78710619D02*
X176466666Y-78758238D01*
X176466666Y-78758238D02*
X176561904Y-78853476D01*
X176561904Y-78853476D02*
X176609523Y-78948714D01*
X176609523Y-78948714D02*
X176657142Y-79139190D01*
X176657142Y-79139190D02*
X176657142Y-79282047D01*
X176657142Y-79282047D02*
X176609523Y-79472523D01*
X176609523Y-79472523D02*
X176561904Y-79567761D01*
X176561904Y-79567761D02*
X176466666Y-79663000D01*
X176466666Y-79663000D02*
X176323809Y-79710619D01*
X176323809Y-79710619D02*
X176085714Y-79710619D01*
X176990476Y-78710619D02*
X177657142Y-78710619D01*
X177657142Y-78710619D02*
X177228571Y-79710619D01*
X176180952Y-84504904D02*
X176657142Y-84504904D01*
X176085714Y-84790619D02*
X176419047Y-83790619D01*
X176419047Y-83790619D02*
X176752380Y-84790619D01*
X176990476Y-83790619D02*
X177609523Y-83790619D01*
X177609523Y-83790619D02*
X177276190Y-84171571D01*
X177276190Y-84171571D02*
X177419047Y-84171571D01*
X177419047Y-84171571D02*
X177514285Y-84219190D01*
X177514285Y-84219190D02*
X177561904Y-84266809D01*
X177561904Y-84266809D02*
X177609523Y-84362047D01*
X177609523Y-84362047D02*
X177609523Y-84600142D01*
X177609523Y-84600142D02*
X177561904Y-84695380D01*
X177561904Y-84695380D02*
X177514285Y-84743000D01*
X177514285Y-84743000D02*
X177419047Y-84790619D01*
X177419047Y-84790619D02*
X177133333Y-84790619D01*
X177133333Y-84790619D02*
X177038095Y-84743000D01*
X177038095Y-84743000D02*
X176990476Y-84695380D01*
X176085714Y-69550619D02*
X176085714Y-68550619D01*
X176085714Y-68550619D02*
X176323809Y-68550619D01*
X176323809Y-68550619D02*
X176466666Y-68598238D01*
X176466666Y-68598238D02*
X176561904Y-68693476D01*
X176561904Y-68693476D02*
X176609523Y-68788714D01*
X176609523Y-68788714D02*
X176657142Y-68979190D01*
X176657142Y-68979190D02*
X176657142Y-69122047D01*
X176657142Y-69122047D02*
X176609523Y-69312523D01*
X176609523Y-69312523D02*
X176561904Y-69407761D01*
X176561904Y-69407761D02*
X176466666Y-69503000D01*
X176466666Y-69503000D02*
X176323809Y-69550619D01*
X176323809Y-69550619D02*
X176085714Y-69550619D01*
X176990476Y-68550619D02*
X177609523Y-68550619D01*
X177609523Y-68550619D02*
X177276190Y-68931571D01*
X177276190Y-68931571D02*
X177419047Y-68931571D01*
X177419047Y-68931571D02*
X177514285Y-68979190D01*
X177514285Y-68979190D02*
X177561904Y-69026809D01*
X177561904Y-69026809D02*
X177609523Y-69122047D01*
X177609523Y-69122047D02*
X177609523Y-69360142D01*
X177609523Y-69360142D02*
X177561904Y-69455380D01*
X177561904Y-69455380D02*
X177514285Y-69503000D01*
X177514285Y-69503000D02*
X177419047Y-69550619D01*
X177419047Y-69550619D02*
X177133333Y-69550619D01*
X177133333Y-69550619D02*
X177038095Y-69503000D01*
X177038095Y-69503000D02*
X176990476Y-69455380D01*
X176180952Y-87044904D02*
X176657142Y-87044904D01*
X176085714Y-87330619D02*
X176419047Y-86330619D01*
X176419047Y-86330619D02*
X176752380Y-87330619D01*
X177038095Y-86425857D02*
X177085714Y-86378238D01*
X177085714Y-86378238D02*
X177180952Y-86330619D01*
X177180952Y-86330619D02*
X177419047Y-86330619D01*
X177419047Y-86330619D02*
X177514285Y-86378238D01*
X177514285Y-86378238D02*
X177561904Y-86425857D01*
X177561904Y-86425857D02*
X177609523Y-86521095D01*
X177609523Y-86521095D02*
X177609523Y-86616333D01*
X177609523Y-86616333D02*
X177561904Y-86759190D01*
X177561904Y-86759190D02*
X176990476Y-87330619D01*
X176990476Y-87330619D02*
X177609523Y-87330619D01*
X175895237Y-65772380D02*
X175847618Y-65820000D01*
X175847618Y-65820000D02*
X175704761Y-65867619D01*
X175704761Y-65867619D02*
X175609523Y-65867619D01*
X175609523Y-65867619D02*
X175466666Y-65820000D01*
X175466666Y-65820000D02*
X175371428Y-65724761D01*
X175371428Y-65724761D02*
X175323809Y-65629523D01*
X175323809Y-65629523D02*
X175276190Y-65439047D01*
X175276190Y-65439047D02*
X175276190Y-65296190D01*
X175276190Y-65296190D02*
X175323809Y-65105714D01*
X175323809Y-65105714D02*
X175371428Y-65010476D01*
X175371428Y-65010476D02*
X175466666Y-64915238D01*
X175466666Y-64915238D02*
X175609523Y-64867619D01*
X175609523Y-64867619D02*
X175704761Y-64867619D01*
X175704761Y-64867619D02*
X175847618Y-64915238D01*
X175847618Y-64915238D02*
X175895237Y-64962857D01*
X176180952Y-64867619D02*
X176752380Y-64867619D01*
X176466666Y-65867619D02*
X176466666Y-64867619D01*
X176990476Y-64867619D02*
X177657142Y-65867619D01*
X177657142Y-64867619D02*
X176990476Y-65867619D01*
X176831761Y-54961619D02*
X176355571Y-54961619D01*
X176355571Y-54961619D02*
X176307952Y-55437809D01*
X176307952Y-55437809D02*
X176355571Y-55390190D01*
X176355571Y-55390190D02*
X176450809Y-55342571D01*
X176450809Y-55342571D02*
X176688904Y-55342571D01*
X176688904Y-55342571D02*
X176784142Y-55390190D01*
X176784142Y-55390190D02*
X176831761Y-55437809D01*
X176831761Y-55437809D02*
X176879380Y-55533047D01*
X176879380Y-55533047D02*
X176879380Y-55771142D01*
X176879380Y-55771142D02*
X176831761Y-55866380D01*
X176831761Y-55866380D02*
X176784142Y-55914000D01*
X176784142Y-55914000D02*
X176688904Y-55961619D01*
X176688904Y-55961619D02*
X176450809Y-55961619D01*
X176450809Y-55961619D02*
X176355571Y-55914000D01*
X176355571Y-55914000D02*
X176307952Y-55866380D01*
X177165095Y-54961619D02*
X177498428Y-55961619D01*
X177498428Y-55961619D02*
X177831761Y-54961619D01*
%TO.C,MH3*%
X178371667Y-53421619D02*
X178371667Y-52421619D01*
X178371667Y-52421619D02*
X178705000Y-53135904D01*
X178705000Y-53135904D02*
X179038333Y-52421619D01*
X179038333Y-52421619D02*
X179038333Y-53421619D01*
X179514524Y-53421619D02*
X179514524Y-52421619D01*
X179514524Y-52897809D02*
X180085952Y-52897809D01*
X180085952Y-53421619D02*
X180085952Y-52421619D01*
X180466905Y-52421619D02*
X181085952Y-52421619D01*
X181085952Y-52421619D02*
X180752619Y-52802571D01*
X180752619Y-52802571D02*
X180895476Y-52802571D01*
X180895476Y-52802571D02*
X180990714Y-52850190D01*
X180990714Y-52850190D02*
X181038333Y-52897809D01*
X181038333Y-52897809D02*
X181085952Y-52993047D01*
X181085952Y-52993047D02*
X181085952Y-53231142D01*
X181085952Y-53231142D02*
X181038333Y-53326380D01*
X181038333Y-53326380D02*
X180990714Y-53374000D01*
X180990714Y-53374000D02*
X180895476Y-53421619D01*
X180895476Y-53421619D02*
X180609762Y-53421619D01*
X180609762Y-53421619D02*
X180514524Y-53374000D01*
X180514524Y-53374000D02*
X180466905Y-53326380D01*
%TO.C,J1*%
X182038666Y-54961619D02*
X182038666Y-55675904D01*
X182038666Y-55675904D02*
X181991047Y-55818761D01*
X181991047Y-55818761D02*
X181895809Y-55914000D01*
X181895809Y-55914000D02*
X181752952Y-55961619D01*
X181752952Y-55961619D02*
X181657714Y-55961619D01*
X183038666Y-55961619D02*
X182467238Y-55961619D01*
X182752952Y-55961619D02*
X182752952Y-54961619D01*
X182752952Y-54961619D02*
X182657714Y-55104476D01*
X182657714Y-55104476D02*
X182562476Y-55199714D01*
X182562476Y-55199714D02*
X182467238Y-55247333D01*
%TO.C,J4*%
X182038666Y-95093619D02*
X182038666Y-95807904D01*
X182038666Y-95807904D02*
X181991047Y-95950761D01*
X181991047Y-95950761D02*
X181895809Y-96046000D01*
X181895809Y-96046000D02*
X181752952Y-96093619D01*
X181752952Y-96093619D02*
X181657714Y-96093619D01*
X182943428Y-95426952D02*
X182943428Y-96093619D01*
X182705333Y-95046000D02*
X182467238Y-95760285D01*
X182467238Y-95760285D02*
X183086285Y-95760285D01*
%TO.C,J3*%
X182038666Y-68550619D02*
X182038666Y-69264904D01*
X182038666Y-69264904D02*
X181991047Y-69407761D01*
X181991047Y-69407761D02*
X181895809Y-69503000D01*
X181895809Y-69503000D02*
X181752952Y-69550619D01*
X181752952Y-69550619D02*
X181657714Y-69550619D01*
X182419619Y-68550619D02*
X183038666Y-68550619D01*
X183038666Y-68550619D02*
X182705333Y-68931571D01*
X182705333Y-68931571D02*
X182848190Y-68931571D01*
X182848190Y-68931571D02*
X182943428Y-68979190D01*
X182943428Y-68979190D02*
X182991047Y-69026809D01*
X182991047Y-69026809D02*
X183038666Y-69122047D01*
X183038666Y-69122047D02*
X183038666Y-69360142D01*
X183038666Y-69360142D02*
X182991047Y-69455380D01*
X182991047Y-69455380D02*
X182943428Y-69503000D01*
X182943428Y-69503000D02*
X182848190Y-69550619D01*
X182848190Y-69550619D02*
X182562476Y-69550619D01*
X182562476Y-69550619D02*
X182467238Y-69503000D01*
X182467238Y-69503000D02*
X182419619Y-69455380D01*
%TO.C,MH4*%
X178371667Y-98760619D02*
X178371667Y-97760619D01*
X178371667Y-97760619D02*
X178705000Y-98474904D01*
X178705000Y-98474904D02*
X179038333Y-97760619D01*
X179038333Y-97760619D02*
X179038333Y-98760619D01*
X179514524Y-98760619D02*
X179514524Y-97760619D01*
X179514524Y-98236809D02*
X180085952Y-98236809D01*
X180085952Y-98760619D02*
X180085952Y-97760619D01*
X180990714Y-98093952D02*
X180990714Y-98760619D01*
X180752619Y-97713000D02*
X180514524Y-98427285D01*
X180514524Y-98427285D02*
X181133571Y-98427285D01*
%TO.C,J6*%
X182038666Y-58644619D02*
X182038666Y-59358904D01*
X182038666Y-59358904D02*
X181991047Y-59501761D01*
X181991047Y-59501761D02*
X181895809Y-59597000D01*
X181895809Y-59597000D02*
X181752952Y-59644619D01*
X181752952Y-59644619D02*
X181657714Y-59644619D01*
X182943428Y-58644619D02*
X182752952Y-58644619D01*
X182752952Y-58644619D02*
X182657714Y-58692238D01*
X182657714Y-58692238D02*
X182610095Y-58739857D01*
X182610095Y-58739857D02*
X182514857Y-58882714D01*
X182514857Y-58882714D02*
X182467238Y-59073190D01*
X182467238Y-59073190D02*
X182467238Y-59454142D01*
X182467238Y-59454142D02*
X182514857Y-59549380D01*
X182514857Y-59549380D02*
X182562476Y-59597000D01*
X182562476Y-59597000D02*
X182657714Y-59644619D01*
X182657714Y-59644619D02*
X182848190Y-59644619D01*
X182848190Y-59644619D02*
X182943428Y-59597000D01*
X182943428Y-59597000D02*
X182991047Y-59549380D01*
X182991047Y-59549380D02*
X183038666Y-59454142D01*
X183038666Y-59454142D02*
X183038666Y-59216047D01*
X183038666Y-59216047D02*
X182991047Y-59120809D01*
X182991047Y-59120809D02*
X182943428Y-59073190D01*
X182943428Y-59073190D02*
X182848190Y-59025571D01*
X182848190Y-59025571D02*
X182657714Y-59025571D01*
X182657714Y-59025571D02*
X182562476Y-59073190D01*
X182562476Y-59073190D02*
X182514857Y-59120809D01*
X182514857Y-59120809D02*
X182467238Y-59216047D01*
%TO.C,J7*%
X170481666Y-96617619D02*
X170481666Y-97331904D01*
X170481666Y-97331904D02*
X170434047Y-97474761D01*
X170434047Y-97474761D02*
X170338809Y-97570000D01*
X170338809Y-97570000D02*
X170195952Y-97617619D01*
X170195952Y-97617619D02*
X170100714Y-97617619D01*
X170862619Y-96617619D02*
X171529285Y-96617619D01*
X171529285Y-96617619D02*
X171100714Y-97617619D01*
%TO.C,J2*%
X182038666Y-62327619D02*
X182038666Y-63041904D01*
X182038666Y-63041904D02*
X181991047Y-63184761D01*
X181991047Y-63184761D02*
X181895809Y-63280000D01*
X181895809Y-63280000D02*
X181752952Y-63327619D01*
X181752952Y-63327619D02*
X181657714Y-63327619D01*
X182467238Y-62422857D02*
X182514857Y-62375238D01*
X182514857Y-62375238D02*
X182610095Y-62327619D01*
X182610095Y-62327619D02*
X182848190Y-62327619D01*
X182848190Y-62327619D02*
X182943428Y-62375238D01*
X182943428Y-62375238D02*
X182991047Y-62422857D01*
X182991047Y-62422857D02*
X183038666Y-62518095D01*
X183038666Y-62518095D02*
X183038666Y-62613333D01*
X183038666Y-62613333D02*
X182991047Y-62756190D01*
X182991047Y-62756190D02*
X182419619Y-63327619D01*
X182419619Y-63327619D02*
X183038666Y-63327619D01*
%TO.C,MH1*%
X149796667Y-53421619D02*
X149796667Y-52421619D01*
X149796667Y-52421619D02*
X150130000Y-53135904D01*
X150130000Y-53135904D02*
X150463333Y-52421619D01*
X150463333Y-52421619D02*
X150463333Y-53421619D01*
X150939524Y-53421619D02*
X150939524Y-52421619D01*
X150939524Y-52897809D02*
X151510952Y-52897809D01*
X151510952Y-53421619D02*
X151510952Y-52421619D01*
X152510952Y-53421619D02*
X151939524Y-53421619D01*
X152225238Y-53421619D02*
X152225238Y-52421619D01*
X152225238Y-52421619D02*
X152130000Y-52564476D01*
X152130000Y-52564476D02*
X152034762Y-52659714D01*
X152034762Y-52659714D02*
X151939524Y-52707333D01*
%TO.C,J5*%
X149526666Y-94307619D02*
X149526666Y-95021904D01*
X149526666Y-95021904D02*
X149479047Y-95164761D01*
X149479047Y-95164761D02*
X149383809Y-95260000D01*
X149383809Y-95260000D02*
X149240952Y-95307619D01*
X149240952Y-95307619D02*
X149145714Y-95307619D01*
X150479047Y-94307619D02*
X150002857Y-94307619D01*
X150002857Y-94307619D02*
X149955238Y-94783809D01*
X149955238Y-94783809D02*
X150002857Y-94736190D01*
X150002857Y-94736190D02*
X150098095Y-94688571D01*
X150098095Y-94688571D02*
X150336190Y-94688571D01*
X150336190Y-94688571D02*
X150431428Y-94736190D01*
X150431428Y-94736190D02*
X150479047Y-94783809D01*
X150479047Y-94783809D02*
X150526666Y-94879047D01*
X150526666Y-94879047D02*
X150526666Y-95117142D01*
X150526666Y-95117142D02*
X150479047Y-95212380D01*
X150479047Y-95212380D02*
X150431428Y-95260000D01*
X150431428Y-95260000D02*
X150336190Y-95307619D01*
X150336190Y-95307619D02*
X150098095Y-95307619D01*
X150098095Y-95307619D02*
X150002857Y-95260000D01*
X150002857Y-95260000D02*
X149955238Y-95212380D01*
%TO.C,C1*%
X153503333Y-93860880D02*
X153455714Y-93908500D01*
X153455714Y-93908500D02*
X153312857Y-93956119D01*
X153312857Y-93956119D02*
X153217619Y-93956119D01*
X153217619Y-93956119D02*
X153074762Y-93908500D01*
X153074762Y-93908500D02*
X152979524Y-93813261D01*
X152979524Y-93813261D02*
X152931905Y-93718023D01*
X152931905Y-93718023D02*
X152884286Y-93527547D01*
X152884286Y-93527547D02*
X152884286Y-93384690D01*
X152884286Y-93384690D02*
X152931905Y-93194214D01*
X152931905Y-93194214D02*
X152979524Y-93098976D01*
X152979524Y-93098976D02*
X153074762Y-93003738D01*
X153074762Y-93003738D02*
X153217619Y-92956119D01*
X153217619Y-92956119D02*
X153312857Y-92956119D01*
X153312857Y-92956119D02*
X153455714Y-93003738D01*
X153455714Y-93003738D02*
X153503333Y-93051357D01*
X154455714Y-93956119D02*
X153884286Y-93956119D01*
X154170000Y-93956119D02*
X154170000Y-92956119D01*
X154170000Y-92956119D02*
X154074762Y-93098976D01*
X154074762Y-93098976D02*
X153979524Y-93194214D01*
X153979524Y-93194214D02*
X153884286Y-93241833D01*
%TO.C,MH2*%
X149796667Y-98760619D02*
X149796667Y-97760619D01*
X149796667Y-97760619D02*
X150130000Y-98474904D01*
X150130000Y-98474904D02*
X150463333Y-97760619D01*
X150463333Y-97760619D02*
X150463333Y-98760619D01*
X150939524Y-98760619D02*
X150939524Y-97760619D01*
X150939524Y-98236809D02*
X151510952Y-98236809D01*
X151510952Y-98760619D02*
X151510952Y-97760619D01*
X151939524Y-97855857D02*
X151987143Y-97808238D01*
X151987143Y-97808238D02*
X152082381Y-97760619D01*
X152082381Y-97760619D02*
X152320476Y-97760619D01*
X152320476Y-97760619D02*
X152415714Y-97808238D01*
X152415714Y-97808238D02*
X152463333Y-97855857D01*
X152463333Y-97855857D02*
X152510952Y-97951095D01*
X152510952Y-97951095D02*
X152510952Y-98046333D01*
X152510952Y-98046333D02*
X152463333Y-98189190D01*
X152463333Y-98189190D02*
X151891905Y-98760619D01*
X151891905Y-98760619D02*
X152510952Y-98760619D01*
%TO.C,R1*%
X153503333Y-70820619D02*
X153170000Y-70344428D01*
X152931905Y-70820619D02*
X152931905Y-69820619D01*
X152931905Y-69820619D02*
X153312857Y-69820619D01*
X153312857Y-69820619D02*
X153408095Y-69868238D01*
X153408095Y-69868238D02*
X153455714Y-69915857D01*
X153455714Y-69915857D02*
X153503333Y-70011095D01*
X153503333Y-70011095D02*
X153503333Y-70153952D01*
X153503333Y-70153952D02*
X153455714Y-70249190D01*
X153455714Y-70249190D02*
X153408095Y-70296809D01*
X153408095Y-70296809D02*
X153312857Y-70344428D01*
X153312857Y-70344428D02*
X152931905Y-70344428D01*
X154455714Y-70820619D02*
X153884286Y-70820619D01*
X154170000Y-70820619D02*
X154170000Y-69820619D01*
X154170000Y-69820619D02*
X154074762Y-69963476D01*
X154074762Y-69963476D02*
X153979524Y-70058714D01*
X153979524Y-70058714D02*
X153884286Y-70106333D01*
D13*
%TO.C,J1*%
X178435000Y-54229000D02*
X179705000Y-54229000D01*
X178435000Y-55499000D02*
X178435000Y-54229000D01*
X180815000Y-55119000D02*
X181145000Y-55119000D01*
X180815000Y-55879000D02*
X181145000Y-55879000D01*
X181145000Y-54169000D02*
X181145000Y-56829000D01*
X181145000Y-56829000D02*
X183805000Y-56829000D01*
X183805000Y-54169000D02*
X181145000Y-54169000D01*
X183805000Y-55119000D02*
X189805000Y-55119000D01*
X183805000Y-55179000D02*
X189805000Y-55179000D01*
X183805000Y-55299000D02*
X189805000Y-55299000D01*
X183805000Y-55419000D02*
X189805000Y-55419000D01*
X183805000Y-55539000D02*
X189805000Y-55539000D01*
X183805000Y-55659000D02*
X189805000Y-55659000D01*
X183805000Y-55779000D02*
X189805000Y-55779000D01*
X183805000Y-56829000D02*
X183805000Y-54169000D01*
X189805000Y-55119000D02*
X189805000Y-55879000D01*
X189805000Y-55879000D02*
X183805000Y-55879000D01*
%TO.C,J4*%
X178435000Y-94361000D02*
X179705000Y-94361000D01*
X178435000Y-95631000D02*
X178435000Y-94361000D01*
X180815000Y-95251000D02*
X181145000Y-95251000D01*
X180815000Y-96011000D02*
X181145000Y-96011000D01*
X181145000Y-94301000D02*
X181145000Y-96961000D01*
X181145000Y-96961000D02*
X183805000Y-96961000D01*
X183805000Y-94301000D02*
X181145000Y-94301000D01*
X183805000Y-95251000D02*
X189805000Y-95251000D01*
X183805000Y-95311000D02*
X189805000Y-95311000D01*
X183805000Y-95431000D02*
X189805000Y-95431000D01*
X183805000Y-95551000D02*
X189805000Y-95551000D01*
X183805000Y-95671000D02*
X189805000Y-95671000D01*
X183805000Y-95791000D02*
X189805000Y-95791000D01*
X183805000Y-95911000D02*
X189805000Y-95911000D01*
X183805000Y-96961000D02*
X183805000Y-94301000D01*
X189805000Y-95251000D02*
X189805000Y-96011000D01*
X189805000Y-96011000D02*
X183805000Y-96011000D01*
%TO.C,J3*%
X178435000Y-67818000D02*
X179705000Y-67818000D01*
X178435000Y-69088000D02*
X178435000Y-67818000D01*
X180747929Y-71248000D02*
X181145000Y-71248000D01*
X180747929Y-72008000D02*
X181145000Y-72008000D01*
X180747929Y-73788000D02*
X181145000Y-73788000D01*
X180747929Y-74548000D02*
X181145000Y-74548000D01*
X180747929Y-76328000D02*
X181145000Y-76328000D01*
X180747929Y-77088000D02*
X181145000Y-77088000D01*
X180747929Y-78868000D02*
X181145000Y-78868000D01*
X180747929Y-79628000D02*
X181145000Y-79628000D01*
X180747929Y-81408000D02*
X181145000Y-81408000D01*
X180747929Y-82168000D02*
X181145000Y-82168000D01*
X180747929Y-83948000D02*
X181145000Y-83948000D01*
X180747929Y-84708000D02*
X181145000Y-84708000D01*
X180747929Y-86488000D02*
X181145000Y-86488000D01*
X180747929Y-87248000D02*
X181145000Y-87248000D01*
X180747929Y-89028000D02*
X181145000Y-89028000D01*
X180747929Y-89788000D02*
X181145000Y-89788000D01*
X180747929Y-91568000D02*
X181145000Y-91568000D01*
X180747929Y-92328000D02*
X181145000Y-92328000D01*
X180815000Y-68708000D02*
X181145000Y-68708000D01*
X180815000Y-69468000D02*
X181145000Y-69468000D01*
X181145000Y-67758000D02*
X181145000Y-93278000D01*
X181145000Y-70358000D02*
X183805000Y-70358000D01*
X181145000Y-72898000D02*
X183805000Y-72898000D01*
X181145000Y-75438000D02*
X183805000Y-75438000D01*
X181145000Y-77978000D02*
X183805000Y-77978000D01*
X181145000Y-80518000D02*
X183805000Y-80518000D01*
X181145000Y-83058000D02*
X183805000Y-83058000D01*
X181145000Y-85598000D02*
X183805000Y-85598000D01*
X181145000Y-88138000D02*
X183805000Y-88138000D01*
X181145000Y-90678000D02*
X183805000Y-90678000D01*
X181145000Y-93278000D02*
X183805000Y-93278000D01*
X183805000Y-67758000D02*
X181145000Y-67758000D01*
X183805000Y-68708000D02*
X189805000Y-68708000D01*
X183805000Y-68768000D02*
X189805000Y-68768000D01*
X183805000Y-68888000D02*
X189805000Y-68888000D01*
X183805000Y-69008000D02*
X189805000Y-69008000D01*
X183805000Y-69128000D02*
X189805000Y-69128000D01*
X183805000Y-69248000D02*
X189805000Y-69248000D01*
X183805000Y-69368000D02*
X189805000Y-69368000D01*
X183805000Y-71248000D02*
X189805000Y-71248000D01*
X183805000Y-73788000D02*
X189805000Y-73788000D01*
X183805000Y-76328000D02*
X189805000Y-76328000D01*
X183805000Y-78868000D02*
X189805000Y-78868000D01*
X183805000Y-81408000D02*
X189805000Y-81408000D01*
X183805000Y-83948000D02*
X189805000Y-83948000D01*
X183805000Y-86488000D02*
X189805000Y-86488000D01*
X183805000Y-89028000D02*
X189805000Y-89028000D01*
X183805000Y-91568000D02*
X189805000Y-91568000D01*
X183805000Y-93278000D02*
X183805000Y-67758000D01*
X189805000Y-68708000D02*
X189805000Y-69468000D01*
X189805000Y-69468000D02*
X183805000Y-69468000D01*
X189805000Y-71248000D02*
X189805000Y-72008000D01*
X189805000Y-72008000D02*
X183805000Y-72008000D01*
X189805000Y-73788000D02*
X189805000Y-74548000D01*
X189805000Y-74548000D02*
X183805000Y-74548000D01*
X189805000Y-76328000D02*
X189805000Y-77088000D01*
X189805000Y-77088000D02*
X183805000Y-77088000D01*
X189805000Y-78868000D02*
X189805000Y-79628000D01*
X189805000Y-79628000D02*
X183805000Y-79628000D01*
X189805000Y-81408000D02*
X189805000Y-82168000D01*
X189805000Y-82168000D02*
X183805000Y-82168000D01*
X189805000Y-83948000D02*
X189805000Y-84708000D01*
X189805000Y-84708000D02*
X183805000Y-84708000D01*
X189805000Y-86488000D02*
X189805000Y-87248000D01*
X189805000Y-87248000D02*
X183805000Y-87248000D01*
X189805000Y-89028000D02*
X189805000Y-89788000D01*
X189805000Y-89788000D02*
X183805000Y-89788000D01*
X189805000Y-91568000D02*
X189805000Y-92328000D01*
X189805000Y-92328000D02*
X183805000Y-92328000D01*
%TO.C,J6*%
X178435000Y-57912000D02*
X179705000Y-57912000D01*
X178435000Y-59182000D02*
X178435000Y-57912000D01*
X180815000Y-58802000D02*
X181145000Y-58802000D01*
X180815000Y-59562000D02*
X181145000Y-59562000D01*
X181145000Y-57852000D02*
X181145000Y-60512000D01*
X181145000Y-60512000D02*
X183805000Y-60512000D01*
X183805000Y-57852000D02*
X181145000Y-57852000D01*
X183805000Y-58802000D02*
X189805000Y-58802000D01*
X183805000Y-58862000D02*
X189805000Y-58862000D01*
X183805000Y-58982000D02*
X189805000Y-58982000D01*
X183805000Y-59102000D02*
X189805000Y-59102000D01*
X183805000Y-59222000D02*
X189805000Y-59222000D01*
X183805000Y-59342000D02*
X189805000Y-59342000D01*
X183805000Y-59462000D02*
X189805000Y-59462000D01*
X183805000Y-60512000D02*
X183805000Y-57852000D01*
X189805000Y-58802000D02*
X189805000Y-59562000D01*
X189805000Y-59562000D02*
X183805000Y-59562000D01*
%TO.C,J7*%
X172085000Y-93726000D02*
X172085000Y-94996000D01*
X170815000Y-93726000D02*
X172085000Y-93726000D01*
X168655000Y-96038929D02*
X168655000Y-96436000D01*
X167895000Y-96038929D02*
X167895000Y-96436000D01*
X166115000Y-96038929D02*
X166115000Y-96436000D01*
X165355000Y-96038929D02*
X165355000Y-96436000D01*
X163575000Y-96038929D02*
X163575000Y-96436000D01*
X162815000Y-96038929D02*
X162815000Y-96436000D01*
X161035000Y-96038929D02*
X161035000Y-96436000D01*
X160275000Y-96038929D02*
X160275000Y-96436000D01*
X158495000Y-96038929D02*
X158495000Y-96436000D01*
X157735000Y-96038929D02*
X157735000Y-96436000D01*
X171195000Y-96106000D02*
X171195000Y-96436000D01*
X170435000Y-96106000D02*
X170435000Y-96436000D01*
X172145000Y-96436000D02*
X156785000Y-96436000D01*
X169545000Y-96436000D02*
X169545000Y-99096000D01*
X167005000Y-96436000D02*
X167005000Y-99096000D01*
X164465000Y-96436000D02*
X164465000Y-99096000D01*
X161925000Y-96436000D02*
X161925000Y-99096000D01*
X159385000Y-96436000D02*
X159385000Y-99096000D01*
X156785000Y-96436000D02*
X156785000Y-99096000D01*
X172145000Y-99096000D02*
X172145000Y-96436000D01*
X171195000Y-99096000D02*
X171195000Y-105096000D01*
X171135000Y-99096000D02*
X171135000Y-105096000D01*
X171015000Y-99096000D02*
X171015000Y-105096000D01*
X170895000Y-99096000D02*
X170895000Y-105096000D01*
X170775000Y-99096000D02*
X170775000Y-105096000D01*
X170655000Y-99096000D02*
X170655000Y-105096000D01*
X170535000Y-99096000D02*
X170535000Y-105096000D01*
X168655000Y-99096000D02*
X168655000Y-105096000D01*
X166115000Y-99096000D02*
X166115000Y-105096000D01*
X163575000Y-99096000D02*
X163575000Y-105096000D01*
X161035000Y-99096000D02*
X161035000Y-105096000D01*
X158495000Y-99096000D02*
X158495000Y-105096000D01*
X156785000Y-99096000D02*
X172145000Y-99096000D01*
X171195000Y-105096000D02*
X170435000Y-105096000D01*
X170435000Y-105096000D02*
X170435000Y-99096000D01*
X168655000Y-105096000D02*
X167895000Y-105096000D01*
X167895000Y-105096000D02*
X167895000Y-99096000D01*
X166115000Y-105096000D02*
X165355000Y-105096000D01*
X165355000Y-105096000D02*
X165355000Y-99096000D01*
X163575000Y-105096000D02*
X162815000Y-105096000D01*
X162815000Y-105096000D02*
X162815000Y-99096000D01*
X161035000Y-105096000D02*
X160275000Y-105096000D01*
X160275000Y-105096000D02*
X160275000Y-99096000D01*
X158495000Y-105096000D02*
X157735000Y-105096000D01*
X157735000Y-105096000D02*
X157735000Y-99096000D01*
%TO.C,J2*%
X178435000Y-61595000D02*
X179705000Y-61595000D01*
X178435000Y-62865000D02*
X178435000Y-61595000D01*
X180747929Y-65025000D02*
X181145000Y-65025000D01*
X180747929Y-65785000D02*
X181145000Y-65785000D01*
X180815000Y-62485000D02*
X181145000Y-62485000D01*
X180815000Y-63245000D02*
X181145000Y-63245000D01*
X181145000Y-61535000D02*
X181145000Y-66735000D01*
X181145000Y-64135000D02*
X183805000Y-64135000D01*
X181145000Y-66735000D02*
X183805000Y-66735000D01*
X183805000Y-61535000D02*
X181145000Y-61535000D01*
X183805000Y-62485000D02*
X189805000Y-62485000D01*
X183805000Y-62545000D02*
X189805000Y-62545000D01*
X183805000Y-62665000D02*
X189805000Y-62665000D01*
X183805000Y-62785000D02*
X189805000Y-62785000D01*
X183805000Y-62905000D02*
X189805000Y-62905000D01*
X183805000Y-63025000D02*
X189805000Y-63025000D01*
X183805000Y-63145000D02*
X189805000Y-63145000D01*
X183805000Y-65025000D02*
X189805000Y-65025000D01*
X183805000Y-66735000D02*
X183805000Y-61535000D01*
X189805000Y-62485000D02*
X189805000Y-63245000D01*
X189805000Y-63245000D02*
X183805000Y-63245000D01*
X189805000Y-65025000D02*
X189805000Y-65785000D01*
X189805000Y-65785000D02*
X183805000Y-65785000D01*
%TO.C,J5*%
X151190000Y-90805000D02*
X151190000Y-57725000D01*
X151190000Y-90805000D02*
X148530000Y-90805000D01*
X151190000Y-57725000D02*
X148530000Y-57725000D01*
X149860000Y-93405000D02*
X148530000Y-93405000D01*
X148530000Y-93405000D02*
X148530000Y-92075000D01*
X148530000Y-90805000D02*
X148530000Y-57725000D01*
%TO.C,LOGO*%
G36*
X164185557Y-68840801D02*
G01*
X164164402Y-68886137D01*
X164160576Y-68892859D01*
X164113018Y-69015369D01*
X164104049Y-69151538D01*
X164133928Y-69302179D01*
X164202915Y-69468107D01*
X164311269Y-69650133D01*
X164459248Y-69849073D01*
X164469176Y-69861300D01*
X164632692Y-70068007D01*
X164765769Y-70250766D01*
X164871022Y-70414185D01*
X164951067Y-70562871D01*
X165008520Y-70701432D01*
X165045994Y-70834476D01*
X165057725Y-70898187D01*
X165070472Y-71007718D01*
X165068865Y-71078326D01*
X165061208Y-71102649D01*
X165047940Y-71116464D01*
X165029285Y-71110852D01*
X165000117Y-71081071D01*
X164955310Y-71022377D01*
X164917936Y-70970107D01*
X164852787Y-70880583D01*
X164789710Y-70798557D01*
X164733254Y-70729357D01*
X164687970Y-70678315D01*
X164658407Y-70650758D01*
X164649113Y-70652016D01*
X164650164Y-70656444D01*
X164740840Y-70959973D01*
X164822952Y-71257462D01*
X164894868Y-71542106D01*
X164954955Y-71807096D01*
X165001584Y-72045625D01*
X165033121Y-72250886D01*
X165033978Y-72257762D01*
X165049827Y-72443633D01*
X165052921Y-72631511D01*
X165044141Y-72813953D01*
X165024370Y-72983519D01*
X164994491Y-73132767D01*
X164955387Y-73254254D01*
X164907939Y-73340540D01*
X164905145Y-73344067D01*
X164885120Y-73366953D01*
X164871586Y-73371114D01*
X164861099Y-73350271D01*
X164850216Y-73298145D01*
X164837454Y-73220647D01*
X164792065Y-72994242D01*
X164728847Y-72777351D01*
X164644476Y-72562339D01*
X164535626Y-72341572D01*
X164398969Y-72107417D01*
X164259045Y-71893011D01*
X164181104Y-71776806D01*
X164108207Y-71665498D01*
X164045390Y-71566976D01*
X163997689Y-71489131D01*
X163971262Y-71442118D01*
X163929201Y-71318488D01*
X163919779Y-71177196D01*
X163943035Y-71014011D01*
X163976260Y-70892396D01*
X164006773Y-70786546D01*
X164024482Y-70694404D01*
X164027909Y-70608186D01*
X164015574Y-70520109D01*
X163986001Y-70422393D01*
X163937710Y-70307254D01*
X163869223Y-70166909D01*
X163820524Y-70072539D01*
X163737676Y-69896721D01*
X163686333Y-69742884D01*
X163665798Y-69603492D01*
X163675379Y-69471008D01*
X163714379Y-69337896D01*
X163746153Y-69265727D01*
X163800354Y-69176901D01*
X163878738Y-69077072D01*
X163969396Y-68979845D01*
X164060423Y-68898823D01*
X164080607Y-68883587D01*
X164145515Y-68839741D01*
X164179880Y-68825408D01*
X164185557Y-68840801D01*
G37*
G36*
X167098179Y-62213670D02*
G01*
X167177026Y-62253427D01*
X167256856Y-62329368D01*
X167333106Y-62434349D01*
X167401217Y-62561228D01*
X167456624Y-62702862D01*
X167489754Y-62826779D01*
X167509238Y-62960668D01*
X167519367Y-63121880D01*
X167520159Y-63295078D01*
X167511634Y-63464923D01*
X167493810Y-63616077D01*
X167488744Y-63644762D01*
X167459899Y-63770747D01*
X167419410Y-63913234D01*
X167372216Y-64057102D01*
X167323254Y-64187232D01*
X167280289Y-64283013D01*
X167239425Y-64363322D01*
X167407223Y-64285795D01*
X167611365Y-64199334D01*
X167791666Y-64138734D01*
X167946543Y-64103418D01*
X168074415Y-64092811D01*
X168173698Y-64106336D01*
X168242810Y-64143416D01*
X168280170Y-64203476D01*
X168284194Y-64285939D01*
X168253302Y-64390228D01*
X168185909Y-64515768D01*
X168157298Y-64558998D01*
X168111123Y-64622186D01*
X168042434Y-64711157D01*
X167957128Y-64818518D01*
X167861105Y-64936876D01*
X167760263Y-65058838D01*
X167723322Y-65102910D01*
X167545209Y-65316408D01*
X167394466Y-65501759D01*
X167268722Y-65662809D01*
X167165607Y-65803404D01*
X167082750Y-65927388D01*
X167017781Y-66038608D01*
X166968329Y-66140909D01*
X166932024Y-66238135D01*
X166906496Y-66334134D01*
X166889373Y-66432750D01*
X166885724Y-66461679D01*
X166874750Y-66648387D01*
X166880759Y-66863253D01*
X166902812Y-67094599D01*
X166939966Y-67330752D01*
X166965801Y-67455378D01*
X167019793Y-67694123D01*
X166966649Y-67784806D01*
X166917741Y-67854071D01*
X166853756Y-67927219D01*
X166821566Y-67958551D01*
X166729626Y-68041612D01*
X166790221Y-68349845D01*
X166851472Y-68636938D01*
X166916128Y-68893562D01*
X166983129Y-69116073D01*
X167051416Y-69300822D01*
X167094120Y-69395180D01*
X167134086Y-69476252D01*
X167165208Y-69540293D01*
X167183441Y-69578925D01*
X167186485Y-69586447D01*
X167106763Y-69594047D01*
X167013023Y-69606024D01*
X166918664Y-69620306D01*
X166837086Y-69634818D01*
X166781687Y-69647488D01*
X166772463Y-69650510D01*
X166710278Y-69674175D01*
X166885680Y-69859475D01*
X167011937Y-70003715D01*
X167139055Y-70168273D01*
X167257024Y-70339106D01*
X167355830Y-70502170D01*
X167390505Y-70567542D01*
X167463355Y-70728815D01*
X167523341Y-70899979D01*
X167573742Y-71091955D01*
X167617837Y-71315667D01*
X167621431Y-71336679D01*
X167652686Y-71518808D01*
X167679116Y-71664518D01*
X167702576Y-71780555D01*
X167724923Y-71873666D01*
X167748012Y-71950597D01*
X167773698Y-72018095D01*
X167803836Y-72082906D01*
X167840283Y-72151779D01*
X167850852Y-72170880D01*
X167896330Y-72254447D01*
X167932440Y-72324307D01*
X167954618Y-72371421D01*
X167959411Y-72385876D01*
X167942801Y-72389477D01*
X167897565Y-72371877D01*
X167830601Y-72337295D01*
X167748805Y-72289950D01*
X167659072Y-72234063D01*
X167568300Y-72173852D01*
X167483382Y-72113538D01*
X167411217Y-72057340D01*
X167383769Y-72033643D01*
X167334820Y-71992079D01*
X167311749Y-71980391D01*
X167310481Y-71996666D01*
X167311360Y-71999641D01*
X167330937Y-72079627D01*
X167351696Y-72193284D01*
X167372368Y-72330669D01*
X167391683Y-72481843D01*
X167408371Y-72636865D01*
X167421162Y-72785792D01*
X167428786Y-72918685D01*
X167428794Y-72918885D01*
X167433000Y-73133745D01*
X167426508Y-73316906D01*
X167407311Y-73479477D01*
X167373400Y-73632568D01*
X167322769Y-73787286D01*
X167253410Y-73954741D01*
X167233793Y-73997975D01*
X167158461Y-74161775D01*
X167065754Y-73866934D01*
X167017752Y-73721634D01*
X166969414Y-73588559D01*
X166922971Y-73472675D01*
X166880656Y-73378950D01*
X166844704Y-73312352D01*
X166817348Y-73277848D01*
X166801481Y-73279088D01*
X166775419Y-73339613D01*
X166743924Y-73433896D01*
X166709624Y-73552763D01*
X166675150Y-73687044D01*
X166643128Y-73827566D01*
X166639904Y-73842842D01*
X166567272Y-74259006D01*
X166524966Y-74665331D01*
X166513710Y-74991698D01*
X166514490Y-75110424D01*
X166517577Y-75209995D01*
X166524228Y-75301109D01*
X166535698Y-75394464D01*
X166553242Y-75500760D01*
X166578117Y-75630695D01*
X166603207Y-75754327D01*
X166629817Y-75886097D01*
X166652463Y-76002640D01*
X166669955Y-76097451D01*
X166681102Y-76164029D01*
X166684714Y-76195869D01*
X166684351Y-76197598D01*
X166671058Y-76182366D01*
X166638611Y-76135100D01*
X166590469Y-76061138D01*
X166530089Y-75965819D01*
X166460929Y-75854482D01*
X166438697Y-75818284D01*
X166201286Y-75430727D01*
X166188257Y-75604528D01*
X166161237Y-75785568D01*
X166108912Y-75931727D01*
X166029612Y-76044858D01*
X165921667Y-76126813D01*
X165783406Y-76179444D01*
X165649836Y-76201683D01*
X165486974Y-76217240D01*
X165505609Y-76106791D01*
X165514687Y-76028823D01*
X165520939Y-75928257D01*
X165523079Y-75826144D01*
X165523052Y-75820883D01*
X165519656Y-75720688D01*
X165508025Y-75643452D01*
X165483584Y-75568605D01*
X165450158Y-75493282D01*
X165378456Y-75341139D01*
X165319635Y-75461259D01*
X165282223Y-75535075D01*
X165247298Y-75599728D01*
X165228729Y-75631121D01*
X165178683Y-75680331D01*
X165102895Y-75725175D01*
X165019084Y-75756901D01*
X164953635Y-75767020D01*
X164913971Y-75763170D01*
X164889732Y-75744394D01*
X164871623Y-75699858D01*
X164860344Y-75658256D01*
X164802452Y-75510857D01*
X164705123Y-75359733D01*
X164571949Y-75208674D01*
X164406521Y-75061472D01*
X164212431Y-74921917D01*
X164093719Y-74849188D01*
X163913141Y-74727212D01*
X163753843Y-74580982D01*
X163613498Y-74407009D01*
X163489783Y-74201805D01*
X163380371Y-73961881D01*
X163282938Y-73683748D01*
X163255455Y-73591493D01*
X163222532Y-73470707D01*
X163191375Y-73345496D01*
X163165955Y-73232415D01*
X163152549Y-73162592D01*
X163137415Y-73083232D01*
X163122542Y-73023814D01*
X163110624Y-72994674D01*
X163108408Y-72993331D01*
X163096174Y-73012939D01*
X163078338Y-73064760D01*
X163058428Y-73138293D01*
X163055215Y-73151672D01*
X163028560Y-73306834D01*
X163012274Y-73499245D01*
X163006449Y-73723698D01*
X163011178Y-73974990D01*
X163026552Y-74247915D01*
X163034106Y-74343367D01*
X163045034Y-74477666D01*
X163053845Y-74596506D01*
X163060120Y-74693265D01*
X163063438Y-74761321D01*
X163063379Y-74794054D01*
X163062827Y-74795906D01*
X163050680Y-74779980D01*
X163021374Y-74730490D01*
X162977812Y-74652677D01*
X162922898Y-74551776D01*
X162859532Y-74433028D01*
X162817009Y-74352233D01*
X162683076Y-74098721D01*
X162548672Y-73848613D01*
X162417199Y-73608034D01*
X162292059Y-73383110D01*
X162176654Y-73179963D01*
X162074386Y-73004720D01*
X162001477Y-72884131D01*
X161894778Y-72702078D01*
X161811889Y-72536786D01*
X161746318Y-72373552D01*
X161691576Y-72197673D01*
X161680885Y-72157894D01*
X161655847Y-72052445D01*
X161630345Y-71927758D01*
X161606259Y-71795134D01*
X161585471Y-71665877D01*
X161569863Y-71551288D01*
X161561315Y-71462669D01*
X161560271Y-71433312D01*
X161560271Y-71374943D01*
X161489291Y-71428160D01*
X161361461Y-71506810D01*
X161211709Y-71571856D01*
X161056337Y-71617588D01*
X160911648Y-71638294D01*
X160887640Y-71638924D01*
X160815611Y-71639247D01*
X160884361Y-71539321D01*
X160961645Y-71410281D01*
X161037272Y-71253978D01*
X161104065Y-71086483D01*
X161148064Y-70948993D01*
X161166001Y-70876821D01*
X161179499Y-70801470D01*
X161188853Y-70716585D01*
X161194359Y-70615808D01*
X161196312Y-70492781D01*
X161195007Y-70341150D01*
X161190740Y-70154556D01*
X161188538Y-70077682D01*
X161187793Y-69930179D01*
X161196185Y-69812094D01*
X161214768Y-69709921D01*
X161218409Y-69695481D01*
X161257535Y-69574449D01*
X161313817Y-69437182D01*
X161379794Y-69299594D01*
X161448009Y-69177601D01*
X161492282Y-69111111D01*
X161560760Y-69018143D01*
X161643284Y-69072754D01*
X161734452Y-69151788D01*
X161828085Y-69266620D01*
X161920304Y-69409831D01*
X162007234Y-69574001D01*
X162084998Y-69751712D01*
X162149718Y-69935542D01*
X162197519Y-70118074D01*
X162202680Y-70143309D01*
X162213814Y-70215405D01*
X162226298Y-70322441D01*
X162239321Y-70455730D01*
X162252067Y-70606586D01*
X162263726Y-70766322D01*
X162269568Y-70857933D01*
X162286053Y-71099271D01*
X162304588Y-71301512D01*
X162326178Y-71469228D01*
X162351824Y-71606990D01*
X162382529Y-71719369D01*
X162419297Y-71810936D01*
X162463130Y-71886263D01*
X162507319Y-71941623D01*
X162551677Y-71984873D01*
X162598814Y-72015585D01*
X162657112Y-72035842D01*
X162734950Y-72047726D01*
X162840707Y-72053319D01*
X162962411Y-72054688D01*
X163107716Y-72058013D01*
X163228836Y-72070061D01*
X163329440Y-72094732D01*
X163413199Y-72135923D01*
X163483781Y-72197532D01*
X163544857Y-72283458D01*
X163600096Y-72397598D01*
X163653168Y-72543851D01*
X163707743Y-72726114D01*
X163753521Y-72895051D01*
X163820923Y-73135034D01*
X163888843Y-73347129D01*
X163956061Y-73528353D01*
X164021355Y-73675723D01*
X164083506Y-73786257D01*
X164141292Y-73856974D01*
X164150365Y-73864641D01*
X164236972Y-73915488D01*
X164340037Y-73941292D01*
X164467901Y-73943474D01*
X164559050Y-73934162D01*
X164725498Y-73916156D01*
X164856341Y-73912308D01*
X164957325Y-73922714D01*
X165021697Y-73941873D01*
X165083017Y-73976359D01*
X165152554Y-74033408D01*
X165233641Y-74116516D01*
X165329614Y-74229175D01*
X165443807Y-74374879D01*
X165477797Y-74419809D01*
X165572789Y-74543308D01*
X165647652Y-74633380D01*
X165705959Y-74693291D01*
X165751283Y-74726304D01*
X165787197Y-74735684D01*
X165813943Y-74726924D01*
X165835238Y-74696087D01*
X165865124Y-74627749D01*
X165902146Y-74526920D01*
X165944851Y-74398606D01*
X165991784Y-74247818D01*
X166041490Y-74079564D01*
X166092515Y-73898853D01*
X166143405Y-73710692D01*
X166192705Y-73520091D01*
X166238961Y-73332059D01*
X166280719Y-73151604D01*
X166307826Y-73026092D01*
X166356554Y-72787444D01*
X166395934Y-72580434D01*
X166426464Y-72396910D01*
X166448643Y-72228720D01*
X166462970Y-72067712D01*
X166469943Y-71905735D01*
X166470062Y-71734637D01*
X166463825Y-71546266D01*
X166451731Y-71332470D01*
X166434279Y-71085097D01*
X166430031Y-71028794D01*
X166415208Y-70838136D01*
X166401535Y-70684414D01*
X166386998Y-70560997D01*
X166369583Y-70461255D01*
X166347279Y-70378559D01*
X166318071Y-70306278D01*
X166279946Y-70237781D01*
X166230891Y-70166439D01*
X166168894Y-70085623D01*
X166127968Y-70034002D01*
X166019274Y-69890424D01*
X165940087Y-69766093D01*
X165887284Y-69651218D01*
X165857742Y-69536008D01*
X165848338Y-69410671D01*
X165855949Y-69265416D01*
X165862721Y-69202382D01*
X165898457Y-68946665D01*
X165943035Y-68722462D01*
X166000225Y-68517902D01*
X166073797Y-68321113D01*
X166167521Y-68120224D01*
X166262745Y-67942887D01*
X166376722Y-67737208D01*
X166471618Y-67558658D01*
X166552230Y-67397790D01*
X166623353Y-67245158D01*
X166663609Y-67153271D01*
X166690528Y-67089238D01*
X166710084Y-67036058D01*
X166723591Y-66984753D01*
X166732368Y-66926346D01*
X166737730Y-66851860D01*
X166740994Y-66752317D01*
X166743475Y-66618739D01*
X166743664Y-66607269D01*
X166746629Y-66464880D01*
X166750808Y-66357665D01*
X166757140Y-66277119D01*
X166766561Y-66214735D01*
X166780012Y-66162008D01*
X166798429Y-66110433D01*
X166798476Y-66110312D01*
X166844730Y-66007045D01*
X166907997Y-65890240D01*
X166990343Y-65756852D01*
X167093834Y-65603841D01*
X167220534Y-65428164D01*
X167372511Y-65226778D01*
X167551830Y-64996641D01*
X167571796Y-64971359D01*
X167711322Y-64793135D01*
X167826751Y-64641985D01*
X167917272Y-64519052D01*
X167982073Y-64425477D01*
X168020345Y-64362402D01*
X168031276Y-64330970D01*
X168028677Y-64327713D01*
X167991009Y-64330314D01*
X167922105Y-64349003D01*
X167829994Y-64380729D01*
X167722706Y-64422443D01*
X167608270Y-64471095D01*
X167494715Y-64523637D01*
X167436484Y-64552608D01*
X167344278Y-64602488D01*
X167226031Y-64670455D01*
X167092044Y-64750363D01*
X166952619Y-64836067D01*
X166818055Y-64921421D01*
X166815242Y-64923239D01*
X166699499Y-64997370D01*
X166596489Y-65062018D01*
X166511673Y-65113866D01*
X166450511Y-65149597D01*
X166418461Y-65165892D01*
X166415105Y-65166365D01*
X166423874Y-65146309D01*
X166454008Y-65096390D01*
X166501734Y-65022466D01*
X166563277Y-64930394D01*
X166628447Y-64835286D01*
X166794777Y-64585007D01*
X166930781Y-64356440D01*
X167039292Y-64142863D01*
X167123142Y-63937555D01*
X167185166Y-63733795D01*
X167228196Y-63524862D01*
X167249591Y-63361861D01*
X167253981Y-63220011D01*
X167241795Y-63063433D01*
X167215456Y-62904562D01*
X167177384Y-62755833D01*
X167130002Y-62629683D01*
X167094185Y-62563881D01*
X167055040Y-62504139D01*
X166991620Y-62578099D01*
X166962151Y-62614686D01*
X166910634Y-62681034D01*
X166841093Y-62771859D01*
X166757554Y-62881877D01*
X166664042Y-63005805D01*
X166564583Y-63138359D01*
X166552599Y-63154380D01*
X166389959Y-63370514D01*
X166247753Y-63556245D01*
X166121520Y-63717064D01*
X166006799Y-63858459D01*
X165899128Y-63985920D01*
X165794047Y-64104936D01*
X165687094Y-64220996D01*
X165677337Y-64231364D01*
X165581717Y-64338576D01*
X165511953Y-64431988D01*
X165459122Y-64524227D01*
X165437826Y-64570250D01*
X165403852Y-64650679D01*
X165385837Y-64705107D01*
X165381790Y-64747352D01*
X165389719Y-64791234D01*
X165400654Y-64828153D01*
X165422197Y-64945139D01*
X165408081Y-65047235D01*
X165356726Y-65136397D01*
X165266551Y-65214584D01*
X165135975Y-65283753D01*
X164989162Y-65337839D01*
X164849855Y-65392139D01*
X164716488Y-65462114D01*
X164601691Y-65540272D01*
X164521285Y-65615340D01*
X164479091Y-65670834D01*
X164441068Y-65736628D01*
X164402522Y-65822365D01*
X164358758Y-65937690D01*
X164343615Y-65980335D01*
X164329691Y-66007835D01*
X164322011Y-65997830D01*
X164320966Y-65956100D01*
X164326944Y-65888426D01*
X164334025Y-65838026D01*
X164370551Y-65681924D01*
X164431630Y-65536967D01*
X164522346Y-65393521D01*
X164647781Y-65241953D01*
X164649461Y-65240107D01*
X164725111Y-65155122D01*
X164796549Y-65071389D01*
X164854407Y-65000073D01*
X164882983Y-64961838D01*
X164947316Y-64869210D01*
X164886339Y-64892339D01*
X164842234Y-64911734D01*
X164770326Y-64946220D01*
X164681444Y-64990514D01*
X164606961Y-65028648D01*
X164485362Y-65095613D01*
X164381514Y-65163448D01*
X164292230Y-65237053D01*
X164214325Y-65321331D01*
X164144615Y-65421181D01*
X164079913Y-65541506D01*
X164017033Y-65687207D01*
X163952791Y-65863184D01*
X163884000Y-66074339D01*
X163844949Y-66201070D01*
X163765440Y-66455200D01*
X163692299Y-66672123D01*
X163623207Y-66857439D01*
X163555847Y-67016751D01*
X163487901Y-67155657D01*
X163417052Y-67279761D01*
X163366008Y-67358594D01*
X163248925Y-67517476D01*
X163127262Y-67652555D01*
X162993936Y-67768942D01*
X162841862Y-67871749D01*
X162663957Y-67966084D01*
X162453137Y-68057060D01*
X162335594Y-68101989D01*
X162058748Y-68211111D01*
X161812301Y-68322186D01*
X161600630Y-68433096D01*
X161430397Y-68540113D01*
X161361167Y-68589968D01*
X161309161Y-68629800D01*
X161282037Y-68653630D01*
X161280006Y-68657555D01*
X161303742Y-68657922D01*
X161356489Y-68651493D01*
X161396471Y-68644966D01*
X161444949Y-68639859D01*
X161530869Y-68634490D01*
X161647998Y-68629097D01*
X161790101Y-68623920D01*
X161950944Y-68619200D01*
X162124291Y-68615176D01*
X162215473Y-68613470D01*
X162447799Y-68608943D01*
X162641150Y-68603747D01*
X162800232Y-68597420D01*
X162929750Y-68589496D01*
X163034410Y-68579509D01*
X163118916Y-68566997D01*
X163187974Y-68551493D01*
X163246289Y-68532534D01*
X163298567Y-68509654D01*
X163306431Y-68505727D01*
X163394380Y-68449387D01*
X163476080Y-68376496D01*
X163541309Y-68297980D01*
X163579845Y-68224765D01*
X163584016Y-68209045D01*
X163600558Y-68151611D01*
X163617327Y-68137617D01*
X163632568Y-68166868D01*
X163641731Y-68215480D01*
X163643924Y-68348914D01*
X163618176Y-68480222D01*
X163568385Y-68596489D01*
X163500653Y-68682823D01*
X163410429Y-68749779D01*
X163300727Y-68802356D01*
X163167835Y-68841115D01*
X163008042Y-68866621D01*
X162817634Y-68879435D01*
X162592900Y-68880122D01*
X162330130Y-68869243D01*
X162288200Y-68866711D01*
X162140536Y-68858993D01*
X161962327Y-68852088D01*
X161766707Y-68846359D01*
X161566810Y-68842167D01*
X161375768Y-68839877D01*
X161305397Y-68839575D01*
X161151043Y-68838561D01*
X161009823Y-68836207D01*
X160888023Y-68832731D01*
X160791925Y-68828353D01*
X160727815Y-68823293D01*
X160703049Y-68818558D01*
X160667312Y-68786144D01*
X160662327Y-68741245D01*
X160689256Y-68682517D01*
X160749268Y-68608622D01*
X160843528Y-68518217D01*
X160973203Y-68409962D01*
X161139458Y-68282515D01*
X161221750Y-68222012D01*
X161345754Y-68131182D01*
X161453337Y-68050582D01*
X161550118Y-67975324D01*
X161641711Y-67900520D01*
X161733735Y-67821283D01*
X161831805Y-67732725D01*
X161941538Y-67629957D01*
X162068551Y-67508091D01*
X162218461Y-67362240D01*
X162289174Y-67293074D01*
X162458344Y-67125243D01*
X162599780Y-66978962D01*
X162718792Y-66847210D01*
X162820686Y-66722969D01*
X162910774Y-66599219D01*
X162994362Y-66468941D01*
X163076760Y-66325117D01*
X163163278Y-66160726D01*
X163198946Y-66090195D01*
X163364006Y-65786862D01*
X163539658Y-65512678D01*
X163723642Y-65270202D01*
X163913699Y-65061995D01*
X164107569Y-64890615D01*
X164302993Y-64758622D01*
X164430984Y-64694644D01*
X164510747Y-64665108D01*
X164608666Y-64635174D01*
X164680500Y-64616795D01*
X164792922Y-64584843D01*
X164903928Y-64539353D01*
X165015837Y-64478058D01*
X165130968Y-64398691D01*
X165251638Y-64298982D01*
X165380168Y-64176666D01*
X165518874Y-64029474D01*
X165670075Y-63855139D01*
X165836091Y-63651393D01*
X166019239Y-63415969D01*
X166221839Y-63146599D01*
X166320915Y-63012420D01*
X166422399Y-62874910D01*
X166520341Y-62743310D01*
X166610401Y-62623367D01*
X166688238Y-62520830D01*
X166749511Y-62441447D01*
X166789880Y-62390966D01*
X166792916Y-62387356D01*
X166882375Y-62297688D01*
X166971137Y-62237718D01*
X167052570Y-62211220D01*
X167098179Y-62213670D01*
G37*
%TO.C,C1*%
X154405000Y-90311248D02*
X154405000Y-90833752D01*
X152935000Y-90311248D02*
X152935000Y-90833752D01*
%TO.C,R1*%
X154405000Y-73067936D02*
X154405000Y-73522064D01*
X152935000Y-73067936D02*
X152935000Y-73522064D01*
%TD*%
%LPC*%
D14*
%TO.C,MH3*%
X179705000Y-50165000D03*
%TD*%
D15*
%TO.C,J1*%
X179705000Y-55499000D03*
%TD*%
%TO.C,J4*%
X179705000Y-95631000D03*
%TD*%
%TO.C,J3*%
X179705000Y-69088000D03*
D16*
X179705000Y-71628000D03*
X179705000Y-74168000D03*
X179705000Y-76708000D03*
X179705000Y-79248000D03*
X179705000Y-81788000D03*
X179705000Y-84328000D03*
X179705000Y-86868000D03*
X179705000Y-89408000D03*
X179705000Y-91948000D03*
%TD*%
D14*
%TO.C,MH4*%
X179705000Y-100965000D03*
%TD*%
D15*
%TO.C,J6*%
X179705000Y-59182000D03*
%TD*%
%TO.C,J7*%
X170815000Y-94996000D03*
D16*
X168275000Y-94996000D03*
X165735000Y-94996000D03*
X163195000Y-94996000D03*
X160655000Y-94996000D03*
X158115000Y-94996000D03*
%TD*%
D15*
%TO.C,J2*%
X179705000Y-62865000D03*
D16*
X179705000Y-65405000D03*
%TD*%
D14*
%TO.C,MH1*%
X151130000Y-50165000D03*
%TD*%
D15*
%TO.C,J5*%
X149860000Y-92075000D03*
D16*
X149860000Y-89535000D03*
X149860000Y-86995000D03*
X149860000Y-84455000D03*
X149860000Y-81915000D03*
X149860000Y-79375000D03*
X149860000Y-76835000D03*
X149860000Y-74295000D03*
X149860000Y-71755000D03*
X149860000Y-69215000D03*
X149860000Y-66675000D03*
X149860000Y-64135000D03*
X149860000Y-61595000D03*
X149860000Y-59055000D03*
%TD*%
D17*
%TO.C,C1*%
X153670000Y-89535000D03*
X153670000Y-91610000D03*
%TD*%
D14*
%TO.C,MH2*%
X151130000Y-100965000D03*
%TD*%
D18*
%TO.C,R1*%
X153670000Y-72295000D03*
X153670000Y-74295000D03*
%TD*%
D19*
%TO.C,U1*%
X172085000Y-59055000D03*
X172085000Y-61595000D03*
X172085000Y-64135000D03*
X172085000Y-66675000D03*
X172085000Y-69215000D03*
X172085000Y-71755000D03*
X172085000Y-74295000D03*
X172085000Y-76835000D03*
X172085000Y-79375000D03*
X172085000Y-81915000D03*
X172085000Y-84455000D03*
X172085000Y-86995000D03*
X172085000Y-89535000D03*
X172085000Y-92075000D03*
X169545000Y-92075000D03*
X167005000Y-92075000D03*
X164465000Y-92075000D03*
X161925000Y-92075000D03*
X159385000Y-92075000D03*
X156845000Y-92075000D03*
X156845000Y-89535000D03*
X156845000Y-86995000D03*
X156845000Y-84455000D03*
X156845000Y-81915000D03*
X156845000Y-79375000D03*
X156845000Y-76835000D03*
X156845000Y-74295000D03*
X156845000Y-71755000D03*
X156845000Y-69215000D03*
X156845000Y-66675000D03*
X156845000Y-64135000D03*
X156845000Y-61595000D03*
X156845000Y-59055000D03*
X159385000Y-61595000D03*
X159385000Y-86995000D03*
X159385000Y-84455000D03*
X161925000Y-86995000D03*
X161925000Y-84455000D03*
X164465000Y-86995000D03*
X164465000Y-84455000D03*
X167005000Y-86995000D03*
X167005000Y-84455000D03*
X169545000Y-86995000D03*
X169545000Y-84455000D03*
%TD*%
M02*
