%TF.GenerationSoftware,KiCad,Pcbnew,7.0.1-0*%
%TF.CreationDate,2024-02-20T17:42:23-05:00*%
%TF.ProjectId,OBDBajaUC,4f424442-616a-4615-9543-2e6b69636164,rev?*%
%TF.SameCoordinates,Original*%
%TF.FileFunction,Copper,L2,Bot*%
%TF.FilePolarity,Positive*%
%FSLAX46Y46*%
G04 Gerber Fmt 4.6, Leading zero omitted, Abs format (unit mm)*
G04 Created by KiCad (PCBNEW 7.0.1-0) date 2024-02-20 17:42:23*
%MOMM*%
%LPD*%
G01*
G04 APERTURE LIST*
%TA.AperFunction,ComponentPad*%
%ADD10R,1.700000X1.700000*%
%TD*%
%TA.AperFunction,ComponentPad*%
%ADD11O,1.700000X1.700000*%
%TD*%
%TA.AperFunction,ComponentPad*%
%ADD12C,1.800000*%
%TD*%
%TA.AperFunction,ViaPad*%
%ADD13C,0.508000*%
%TD*%
%TA.AperFunction,ViaPad*%
%ADD14C,0.812800*%
%TD*%
%TA.AperFunction,Conductor*%
%ADD15C,0.254000*%
%TD*%
%TA.AperFunction,Conductor*%
%ADD16C,0.381000*%
%TD*%
G04 APERTURE END LIST*
D10*
%TO.P,J1,1,Pin_1*%
%TO.N,+5V*%
X179705000Y-55499000D03*
%TD*%
%TO.P,J4,1,Pin_1*%
%TO.N,GND*%
X179705000Y-95631000D03*
%TD*%
%TO.P,J3,1,Pin_1*%
%TO.N,/D3*%
X179705000Y-69088000D03*
D11*
%TO.P,J3,2,Pin_2*%
%TO.N,/D4*%
X179705000Y-71628000D03*
%TO.P,J3,3,Pin_3*%
%TO.N,/D5*%
X179705000Y-74168000D03*
%TO.P,J3,4,Pin_4*%
%TO.N,/D6*%
X179705000Y-76708000D03*
%TO.P,J3,5,Pin_5*%
%TO.N,/D7*%
X179705000Y-79248000D03*
%TO.P,J3,6,Pin_6*%
%TO.N,/A4*%
X179705000Y-81788000D03*
%TO.P,J3,7,Pin_7*%
%TO.N,/A3*%
X179705000Y-84328000D03*
%TO.P,J3,8,Pin_8*%
%TO.N,/A2*%
X179705000Y-86868000D03*
%TO.P,J3,9,Pin_9*%
%TO.N,/A1*%
X179705000Y-89408000D03*
%TO.P,J3,10,Pin_10*%
%TO.N,/A0*%
X179705000Y-91948000D03*
%TD*%
D10*
%TO.P,J6,1,Pin_1*%
%TO.N,+3.3V*%
X179705000Y-59182000D03*
%TD*%
%TO.P,J7,1,Pin_1*%
%TO.N,/UP*%
X170815000Y-94996000D03*
D11*
%TO.P,J7,2,Pin_2*%
%TO.N,/DN*%
X168275000Y-94996000D03*
%TO.P,J7,3,Pin_3*%
%TO.N,/L*%
X165735000Y-94996000D03*
%TO.P,J7,4,Pin_4*%
%TO.N,/R*%
X163195000Y-94996000D03*
%TO.P,J7,5,Pin_5*%
%TO.N,/SEL*%
X160655000Y-94996000D03*
%TO.P,J7,6,Pin_6*%
%TO.N,GND*%
X158115000Y-94996000D03*
%TD*%
D10*
%TO.P,J2,1,Pin_1*%
%TO.N,Net-(J2-Pin_1)*%
X179705000Y-62865000D03*
D11*
%TO.P,J2,2,Pin_2*%
%TO.N,Net-(J2-Pin_2)*%
X179705000Y-65405000D03*
%TD*%
D10*
%TO.P,J5,1,Pin_1*%
%TO.N,+5V*%
X149860000Y-92075000D03*
D11*
%TO.P,J5,2,Pin_2*%
%TO.N,GND*%
X149860000Y-89535000D03*
%TO.P,J5,3,Pin_3*%
%TO.N,/CS*%
X149860000Y-86995000D03*
%TO.P,J5,4,Pin_4*%
%TO.N,+3.3V*%
X149860000Y-84455000D03*
%TO.P,J5,5,Pin_5*%
%TO.N,/DC*%
X149860000Y-81915000D03*
%TO.P,J5,6,Pin_6*%
%TO.N,/SDI*%
X149860000Y-79375000D03*
%TO.P,J5,7,Pin_7*%
%TO.N,/SCK*%
X149860000Y-76835000D03*
%TO.P,J5,8,Pin_8*%
%TO.N,Net-(J5-Pin_8)*%
X149860000Y-74295000D03*
%TO.P,J5,9,Pin_9*%
%TO.N,/SDO*%
X149860000Y-71755000D03*
%TO.P,J5,10,Pin_10*%
%TO.N,/SCK*%
X149860000Y-69215000D03*
%TO.P,J5,11,Pin_11*%
%TO.N,/T_CS*%
X149860000Y-66675000D03*
%TO.P,J5,12,Pin_12*%
%TO.N,/SDI*%
X149860000Y-64135000D03*
%TO.P,J5,13,Pin_13*%
%TO.N,/SDO*%
X149860000Y-61595000D03*
%TO.P,J5,14,Pin_14*%
%TO.N,/T_IRQ*%
X149860000Y-59055000D03*
%TD*%
D12*
%TO.P,U1,1,GND*%
%TO.N,GND*%
X172085000Y-59055000D03*
%TO.P,U1,2,0_RX1_CRX2_CS1*%
%TO.N,Net-(J2-Pin_1)*%
X172085000Y-61595000D03*
%TO.P,U1,3,1_TX1_CTX2_MISO1*%
%TO.N,Net-(J2-Pin_2)*%
X172085000Y-64135000D03*
%TO.P,U1,4,2_OUT2*%
%TO.N,/T_IRQ*%
X172085000Y-66675000D03*
%TO.P,U1,5,3_LRCLK2*%
%TO.N,/D3*%
X172085000Y-69215000D03*
%TO.P,U1,6,4_BCLK2*%
%TO.N,/D4*%
X172085000Y-71755000D03*
%TO.P,U1,7,5_IN2*%
%TO.N,/D5*%
X172085000Y-74295000D03*
%TO.P,U1,8,6_OUT1D*%
%TO.N,/D6*%
X172085000Y-76835000D03*
%TO.P,U1,9,7_RX2_OUT1A*%
%TO.N,/D7*%
X172085000Y-79375000D03*
%TO.P,U1,10,8_TX2_IN1*%
%TO.N,/T_CS*%
X172085000Y-81915000D03*
%TO.P,U1,11,9_OUT1C*%
%TO.N,/DC*%
X172085000Y-84455000D03*
%TO.P,U1,12,10_CS_MQSR*%
%TO.N,/CS*%
X172085000Y-86995000D03*
%TO.P,U1,13,11_MOSI_CTX1*%
%TO.N,/SDI*%
X172085000Y-89535000D03*
%TO.P,U1,14,12_MISO_MQSL*%
%TO.N,/SDO*%
X172085000Y-92075000D03*
%TO.P,U1,15,VBAT*%
%TO.N,unconnected-(U1-VBAT-Pad15)*%
X169545000Y-92075000D03*
%TO.P,U1,16,3V3*%
%TO.N,unconnected-(U1-3V3-Pad16)*%
X167005000Y-92075000D03*
%TO.P,U1,17,GND*%
%TO.N,GND*%
X164465000Y-92075000D03*
%TO.P,U1,18,PROGRAM*%
%TO.N,unconnected-(U1-PROGRAM-Pad18)*%
X161925000Y-92075000D03*
%TO.P,U1,19,ON_OFF*%
%TO.N,unconnected-(U1-ON_OFF-Pad19)*%
X159385000Y-92075000D03*
%TO.P,U1,20,13_SCK_CRX1_LED*%
%TO.N,/SCK*%
X156845000Y-92075000D03*
%TO.P,U1,21,14_A0_TX3_SPDIF_OUT*%
%TO.N,/A0*%
X156845000Y-89535000D03*
%TO.P,U1,22,15_A1_RX3_SPDIF_IN*%
%TO.N,/A1*%
X156845000Y-86995000D03*
%TO.P,U1,23,16_A2_RX4_SCL1*%
%TO.N,/A2*%
X156845000Y-84455000D03*
%TO.P,U1,24,17_A3_TX4_SDA1*%
%TO.N,/A3*%
X156845000Y-81915000D03*
%TO.P,U1,25,18_A4_SDA0*%
%TO.N,/A4*%
X156845000Y-79375000D03*
%TO.P,U1,26,19_A5_SCL0*%
%TO.N,/UP*%
X156845000Y-76835000D03*
%TO.P,U1,27,20_A6_TX5_LRCLK1*%
%TO.N,/DN*%
X156845000Y-74295000D03*
%TO.P,U1,28,21_A7_RX5_BCLK1*%
%TO.N,/L*%
X156845000Y-71755000D03*
%TO.P,U1,29,22_A8_CTX1*%
%TO.N,/R*%
X156845000Y-69215000D03*
%TO.P,U1,30,23_A9_CRX1_MCLK1*%
%TO.N,/SEL*%
X156845000Y-66675000D03*
%TO.P,U1,31,3V3*%
%TO.N,+3.3V*%
X156845000Y-64135000D03*
%TO.P,U1,32,GND*%
%TO.N,GND*%
X156845000Y-61595000D03*
%TO.P,U1,33,VIN*%
%TO.N,+5V*%
X156845000Y-59055000D03*
%TO.P,U1,34,VUSB*%
%TO.N,unconnected-(U1-VUSB-Pad34)*%
X159385000Y-61595000D03*
%TO.P,U1,35,24_A10_TX6_SCL2*%
%TO.N,unconnected-(U1-24_A10_TX6_SCL2-Pad35)*%
X159385000Y-86995000D03*
%TO.P,U1,36,25_A11_RX6_SDA2*%
%TO.N,unconnected-(U1-25_A11_RX6_SDA2-Pad36)*%
X159385000Y-84455000D03*
%TO.P,U1,37,26_A12_MOSI1*%
%TO.N,unconnected-(U1-26_A12_MOSI1-Pad37)*%
X161925000Y-86995000D03*
%TO.P,U1,38,27_A13_SCK1*%
%TO.N,unconnected-(U1-27_A13_SCK1-Pad38)*%
X161925000Y-84455000D03*
%TO.P,U1,39,28_RX7*%
%TO.N,unconnected-(U1-28_RX7-Pad39)*%
X164465000Y-86995000D03*
%TO.P,U1,40,29_TX7*%
%TO.N,unconnected-(U1-29_TX7-Pad40)*%
X164465000Y-84455000D03*
%TO.P,U1,41,30_CRX3*%
%TO.N,unconnected-(U1-30_CRX3-Pad41)*%
X167005000Y-86995000D03*
%TO.P,U1,42,31_CTX3*%
%TO.N,unconnected-(U1-31_CTX3-Pad42)*%
X167005000Y-84455000D03*
%TO.P,U1,43,32_OUT1B*%
%TO.N,unconnected-(U1-32_OUT1B-Pad43)*%
X169545000Y-86995000D03*
%TO.P,U1,44,33_MCLK2*%
%TO.N,unconnected-(U1-33_MCLK2-Pad44)*%
X169545000Y-84455000D03*
%TD*%
D13*
%TO.N,GND*%
X151765000Y-90805000D03*
X151765000Y-88265000D03*
X154940000Y-90805000D03*
D14*
%TO.N,+3.3V*%
X152400000Y-66675000D03*
D13*
%TO.N,/DC*%
X169557622Y-81902378D03*
X158750000Y-81915000D03*
%TO.N,/SDI*%
X152400000Y-87630000D03*
X159385000Y-88900000D03*
%TO.N,/UP*%
X166826023Y-80021500D03*
%TO.N,/DN*%
X166242323Y-79437800D03*
%TO.N,/L*%
X165658623Y-78854100D03*
%TO.N,/R*%
X165074923Y-78270400D03*
%TO.N,Net-(J5-Pin_8)*%
X153670000Y-75565000D03*
%TD*%
D15*
%TO.N,/CS*%
X170854800Y-82424566D02*
X171655034Y-83224800D01*
X149860000Y-86995000D02*
X156210000Y-80645000D01*
X161874139Y-80645000D02*
X164832939Y-77686200D01*
X172594566Y-83224800D02*
X173315200Y-83945434D01*
X156210000Y-80645000D02*
X161874139Y-80645000D01*
X170854800Y-81960589D02*
X170854800Y-82424566D01*
X173315200Y-85764800D02*
X172085000Y-86995000D01*
X173315200Y-83945434D02*
X173315200Y-85764800D01*
X171655034Y-83224800D02*
X172594566Y-83224800D01*
X166580411Y-77686200D02*
X170854800Y-81960589D01*
X164832939Y-77686200D02*
X166580411Y-77686200D01*
D16*
%TO.N,+3.3V*%
X156845000Y-64135000D02*
X154940000Y-64135000D01*
X154940000Y-64135000D02*
X152400000Y-66675000D01*
D15*
%TO.N,/DC*%
X157519800Y-83145200D02*
X158750000Y-81915000D01*
X172085000Y-84455000D02*
X169557622Y-81927622D01*
X148578200Y-83196800D02*
X148578200Y-87382255D01*
X149449145Y-88253200D02*
X150506800Y-88253200D01*
X148578200Y-87382255D02*
X149449145Y-88253200D01*
X169557622Y-81927622D02*
X169557622Y-81902378D01*
X149860000Y-81915000D02*
X148578200Y-83196800D01*
X150506800Y-88253200D02*
X155614800Y-83145200D01*
X155614800Y-83145200D02*
X157519800Y-83145200D01*
%TO.N,/SDI*%
X158789800Y-88304800D02*
X159385000Y-88900000D01*
X153074800Y-88304800D02*
X158789800Y-88304800D01*
X152400000Y-87630000D02*
X153074800Y-88304800D01*
%TO.N,/SCK*%
X149860000Y-76835000D02*
X147955000Y-78740000D01*
X147955000Y-92733600D02*
X148578200Y-93356800D01*
X147955000Y-78740000D02*
X147955000Y-92733600D01*
X148578200Y-93356800D02*
X155563200Y-93356800D01*
X155563200Y-93356800D02*
X156845000Y-92075000D01*
%TO.N,/T_CS*%
X153630200Y-70445200D02*
X160615200Y-70445200D01*
X160615200Y-70445200D02*
X172085000Y-81915000D01*
X149860000Y-66675000D02*
X153630200Y-70445200D01*
%TO.N,/T_IRQ*%
X163133200Y-57723200D02*
X172085000Y-66675000D01*
X151191800Y-57723200D02*
X163133200Y-57723200D01*
X149860000Y-59055000D02*
X151191800Y-57723200D01*
%TO.N,/UP*%
X170815000Y-83985234D02*
X170815000Y-94996000D01*
X166826023Y-80021500D02*
X166851266Y-80021500D01*
X166851266Y-80021500D02*
X170815000Y-83985234D01*
%TO.N,/DN*%
X166242323Y-80263984D02*
X168275000Y-82296661D01*
X168275000Y-82296661D02*
X168275000Y-94996000D01*
X166242323Y-79437800D02*
X166242323Y-80263984D01*
%TO.N,/L*%
X164211000Y-93472000D02*
X165735000Y-94996000D01*
X161582234Y-93472000D02*
X164211000Y-93472000D01*
X163028200Y-90844800D02*
X161415434Y-90844800D01*
X160694800Y-91565434D02*
X160694800Y-92584566D01*
X161415434Y-90844800D02*
X160694800Y-91565434D01*
X160694800Y-92584566D02*
X161582234Y-93472000D01*
X165774800Y-88098200D02*
X163028200Y-90844800D01*
X165774800Y-84025034D02*
X165774800Y-88098200D01*
X165658623Y-78854100D02*
X165658623Y-83908857D01*
X165658623Y-83908857D02*
X165774800Y-84025034D01*
%TO.N,/R*%
X163234800Y-80110523D02*
X163234800Y-87424966D01*
X165074923Y-78270400D02*
X163234800Y-80110523D01*
X159854766Y-90805000D02*
X158877000Y-90805000D01*
X159042234Y-93472000D02*
X160935656Y-93472000D01*
X163234800Y-87424966D02*
X159854766Y-90805000D01*
X158115000Y-91567000D02*
X158115000Y-92544766D01*
X158115000Y-92544766D02*
X159042234Y-93472000D01*
X162459656Y-94996000D02*
X163195000Y-94996000D01*
X160935656Y-93472000D02*
X162459656Y-94996000D01*
X158877000Y-90805000D02*
X158115000Y-91567000D01*
%TO.N,Net-(J5-Pin_8)*%
X149860000Y-74295000D02*
X151130000Y-75565000D01*
X151130000Y-75565000D02*
X153670000Y-75565000D01*
%TD*%
%TA.AperFunction,Conductor*%
%TO.N,GND*%
G36*
X151784103Y-87666606D02*
G01*
X151829531Y-87698047D01*
X151851505Y-87748736D01*
X151855095Y-87776005D01*
X151911453Y-87912065D01*
X152001102Y-88028897D01*
X152117934Y-88118546D01*
X152197638Y-88151560D01*
X152253993Y-88174904D01*
X152311746Y-88182507D01*
X152343103Y-88192019D01*
X152369745Y-88211110D01*
X152747955Y-88589319D01*
X152755472Y-88597731D01*
X152771585Y-88617937D01*
X152777440Y-88625278D01*
X152823079Y-88656394D01*
X152826107Y-88658542D01*
X152836008Y-88665850D01*
X152873653Y-88693634D01*
X152881391Y-88697540D01*
X152937861Y-88714958D01*
X152941437Y-88716135D01*
X152997200Y-88735648D01*
X153005746Y-88737100D01*
X153009641Y-88737100D01*
X153064845Y-88737100D01*
X153068606Y-88737170D01*
X153123749Y-88739233D01*
X153123750Y-88739232D01*
X153127642Y-88739378D01*
X153144955Y-88737100D01*
X155735146Y-88737100D01*
X155788105Y-88752168D01*
X155825200Y-88792859D01*
X155835317Y-88846983D01*
X155819054Y-88888959D01*
X155819998Y-88889429D01*
X155716276Y-89097727D01*
X155655145Y-89312580D01*
X155634536Y-89534999D01*
X155655145Y-89757419D01*
X155716276Y-89972272D01*
X155806196Y-90152853D01*
X155815843Y-90172227D01*
X155950456Y-90350484D01*
X156115532Y-90500971D01*
X156305450Y-90618563D01*
X156513741Y-90699255D01*
X156550428Y-90706113D01*
X156599715Y-90730653D01*
X156628702Y-90777467D01*
X156628703Y-90832527D01*
X156599718Y-90879342D01*
X156550431Y-90903886D01*
X156524695Y-90908697D01*
X156513741Y-90910745D01*
X156482980Y-90922662D01*
X156305449Y-90991437D01*
X156216680Y-91046401D01*
X156115532Y-91109029D01*
X156115530Y-91109030D01*
X156115531Y-91109030D01*
X155950457Y-91259514D01*
X155815842Y-91437774D01*
X155716276Y-91637727D01*
X155655145Y-91852580D01*
X155634536Y-92074999D01*
X155655145Y-92297419D01*
X155717837Y-92517756D01*
X155718447Y-92570575D01*
X155692212Y-92616422D01*
X155413600Y-92895035D01*
X155380963Y-92916842D01*
X155342465Y-92924500D01*
X151115900Y-92924500D01*
X151065600Y-92911022D01*
X151028778Y-92874200D01*
X151015300Y-92823900D01*
X151015299Y-91179419D01*
X151012338Y-91153891D01*
X150996216Y-91117379D01*
X150966234Y-91049475D01*
X150885525Y-90968766D01*
X150781109Y-90922662D01*
X150755579Y-90919700D01*
X150755577Y-90919700D01*
X150212578Y-90919700D01*
X150157787Y-90903470D01*
X150120675Y-90860018D01*
X150113217Y-90803362D01*
X150137818Y-90751785D01*
X150186541Y-90721928D01*
X150282633Y-90696180D01*
X150477853Y-90605147D01*
X150654292Y-90481604D01*
X150806604Y-90329292D01*
X150930147Y-90152853D01*
X151021180Y-89957633D01*
X151076929Y-89749576D01*
X151079035Y-89725500D01*
X148640965Y-89725500D01*
X148643070Y-89749576D01*
X148698819Y-89957633D01*
X148789852Y-90152853D01*
X148913395Y-90329292D01*
X149065707Y-90481604D01*
X149242146Y-90605147D01*
X149437366Y-90696180D01*
X149533459Y-90721928D01*
X149582182Y-90751785D01*
X149606783Y-90803362D01*
X149599325Y-90860017D01*
X149562213Y-90903470D01*
X149507422Y-90919700D01*
X148964419Y-90919700D01*
X148938891Y-90922661D01*
X148834475Y-90968766D01*
X148753766Y-91049475D01*
X148707662Y-91153890D01*
X148704700Y-91179423D01*
X148704700Y-92629065D01*
X148687746Y-92684955D01*
X148642598Y-92722007D01*
X148584474Y-92727732D01*
X148532965Y-92700200D01*
X148416765Y-92584000D01*
X148394958Y-92551363D01*
X148387300Y-92512865D01*
X148387300Y-88045590D01*
X148404254Y-87989700D01*
X148449402Y-87952648D01*
X148507526Y-87946923D01*
X148559035Y-87974455D01*
X149048206Y-88463626D01*
X149074243Y-88508724D01*
X149074243Y-88560798D01*
X149048206Y-88605896D01*
X148913395Y-88740707D01*
X148789852Y-88917146D01*
X148698819Y-89112366D01*
X148643070Y-89320423D01*
X148640965Y-89344500D01*
X151079034Y-89344500D01*
X151076929Y-89320423D01*
X151021180Y-89112366D01*
X150930147Y-88917146D01*
X150806604Y-88740707D01*
X150789765Y-88723868D01*
X150763728Y-88678770D01*
X150763728Y-88626696D01*
X150789763Y-88581601D01*
X150805475Y-88565888D01*
X150808128Y-88563333D01*
X150848603Y-88525779D01*
X150848604Y-88525776D01*
X150851459Y-88523128D01*
X150862087Y-88509276D01*
X151680633Y-87690730D01*
X151728922Y-87663895D01*
X151784103Y-87666606D01*
G37*
%TD.AperFunction*%
%TA.AperFunction,Conductor*%
G36*
X149877987Y-53347194D02*
G01*
X150495000Y-53594000D01*
X151765000Y-53594000D01*
X152382012Y-53347194D01*
X152419374Y-53340000D01*
X154918753Y-53340000D01*
X154921547Y-53340553D01*
X154939998Y-53340540D01*
X154940000Y-53340541D01*
X154940001Y-53340540D01*
X154959970Y-53340527D01*
X154960106Y-53340500D01*
X175874894Y-53340500D01*
X175875029Y-53340527D01*
X175894998Y-53340540D01*
X175895000Y-53340541D01*
X175895001Y-53340540D01*
X175913452Y-53340553D01*
X175916247Y-53340000D01*
X178415626Y-53340000D01*
X178452987Y-53347194D01*
X179070000Y-53594000D01*
X180340000Y-53594000D01*
X180957012Y-53347194D01*
X180994374Y-53340000D01*
X183413900Y-53340000D01*
X183464200Y-53353478D01*
X183501022Y-53390300D01*
X183514500Y-53440600D01*
X183514500Y-97689400D01*
X183501022Y-97739700D01*
X183464200Y-97776522D01*
X183413900Y-97790000D01*
X180994374Y-97790000D01*
X180957012Y-97782805D01*
X180340000Y-97536000D01*
X179070000Y-97536000D01*
X178452988Y-97782805D01*
X178415626Y-97790000D01*
X175916313Y-97790000D01*
X175913594Y-97789459D01*
X175875100Y-97789459D01*
X175874894Y-97789500D01*
X154960106Y-97789500D01*
X154959900Y-97789459D01*
X154921406Y-97789459D01*
X154918687Y-97790000D01*
X152419374Y-97790000D01*
X152382012Y-97782805D01*
X151765000Y-97536000D01*
X150495000Y-97536000D01*
X149877988Y-97782805D01*
X149840626Y-97790000D01*
X147421100Y-97790000D01*
X147370800Y-97776522D01*
X147333978Y-97739700D01*
X147320500Y-97689400D01*
X147320500Y-95186500D01*
X156895965Y-95186500D01*
X156898070Y-95210576D01*
X156953819Y-95418633D01*
X157044852Y-95613853D01*
X157168395Y-95790292D01*
X157320707Y-95942604D01*
X157497146Y-96066147D01*
X157692366Y-96157180D01*
X157900423Y-96212929D01*
X157924500Y-96215034D01*
X157924500Y-95186500D01*
X156895965Y-95186500D01*
X147320500Y-95186500D01*
X147320500Y-94805500D01*
X156895965Y-94805500D01*
X157924500Y-94805500D01*
X157924500Y-93776965D01*
X157900423Y-93779070D01*
X157692366Y-93834819D01*
X157497146Y-93925852D01*
X157320707Y-94049395D01*
X157168395Y-94201707D01*
X157044852Y-94378146D01*
X156953819Y-94573366D01*
X156898070Y-94781423D01*
X156895965Y-94805500D01*
X147320500Y-94805500D01*
X147320500Y-92778285D01*
X147330636Y-92744983D01*
X147330454Y-92744400D01*
X147511994Y-92744400D01*
X147519946Y-92759583D01*
X147527740Y-92800781D01*
X147528382Y-92804172D01*
X147529011Y-92807876D01*
X147537820Y-92866316D01*
X147540530Y-92874551D01*
X147568130Y-92926773D01*
X147569825Y-92930129D01*
X147595470Y-92983381D01*
X147600489Y-92990454D01*
X147642270Y-93032235D01*
X147644879Y-93034944D01*
X147685070Y-93078258D01*
X147698924Y-93088889D01*
X148251359Y-93641324D01*
X148258876Y-93649736D01*
X148280839Y-93677277D01*
X148326431Y-93708361D01*
X148329499Y-93710537D01*
X148373186Y-93742780D01*
X148377051Y-93745632D01*
X148384791Y-93749539D01*
X148388510Y-93750686D01*
X148388513Y-93750688D01*
X148441274Y-93766962D01*
X148444796Y-93768121D01*
X148496922Y-93786362D01*
X148496926Y-93786362D01*
X148500604Y-93787649D01*
X148509139Y-93789100D01*
X148513041Y-93789100D01*
X148568218Y-93789100D01*
X148571979Y-93789170D01*
X148627149Y-93791234D01*
X148627151Y-93791233D01*
X148631044Y-93791379D01*
X148648358Y-93789100D01*
X155533279Y-93789100D01*
X155544543Y-93789733D01*
X155579546Y-93793677D01*
X155579546Y-93793676D01*
X155579547Y-93793677D01*
X155633803Y-93783410D01*
X155637428Y-93782794D01*
X155692062Y-93774560D01*
X155692065Y-93774558D01*
X155695936Y-93773975D01*
X155704133Y-93771277D01*
X155707588Y-93769450D01*
X155707592Y-93769450D01*
X155756405Y-93743650D01*
X155759718Y-93741977D01*
X155809474Y-93718018D01*
X155809476Y-93718016D01*
X155812994Y-93716322D01*
X155820044Y-93711319D01*
X155822803Y-93708559D01*
X155822808Y-93708557D01*
X155861874Y-93669489D01*
X155864528Y-93666933D01*
X155905003Y-93629379D01*
X155905004Y-93629376D01*
X155907859Y-93626728D01*
X155918487Y-93612876D01*
X156307645Y-93223718D01*
X156358014Y-93196421D01*
X156415117Y-93201047D01*
X156513741Y-93239255D01*
X156660121Y-93266618D01*
X156733311Y-93280300D01*
X156733312Y-93280300D01*
X156956688Y-93280300D01*
X156956689Y-93280300D01*
X157011580Y-93270038D01*
X157176259Y-93239255D01*
X157384550Y-93158563D01*
X157574468Y-93040971D01*
X157726000Y-92902830D01*
X157770742Y-92879247D01*
X157821304Y-92880415D01*
X157864909Y-92906040D01*
X158621932Y-93663063D01*
X158647969Y-93708161D01*
X158647969Y-93760235D01*
X158621932Y-93805333D01*
X158576834Y-93831370D01*
X158524760Y-93831370D01*
X158329576Y-93779070D01*
X158305500Y-93776965D01*
X158305500Y-96215034D01*
X158329576Y-96212929D01*
X158537633Y-96157180D01*
X158732853Y-96066147D01*
X158909292Y-95942604D01*
X159061604Y-95790292D01*
X159185147Y-95613853D01*
X159276180Y-95418633D01*
X159326406Y-95231187D01*
X159352224Y-95186309D01*
X159396942Y-95160214D01*
X159448716Y-95159815D01*
X159493831Y-95185218D01*
X159520338Y-95229693D01*
X159573101Y-95415135D01*
X159668533Y-95606788D01*
X159797567Y-95777656D01*
X159955795Y-95921900D01*
X159989234Y-95942604D01*
X160137833Y-96034612D01*
X160337483Y-96111957D01*
X160547946Y-96151300D01*
X160762054Y-96151300D01*
X160972517Y-96111957D01*
X161172167Y-96034612D01*
X161354206Y-95921899D01*
X161512434Y-95777655D01*
X161641464Y-95606792D01*
X161641466Y-95606788D01*
X161736898Y-95415135D01*
X161736898Y-95415132D01*
X161736900Y-95415130D01*
X161795494Y-95209195D01*
X161798278Y-95179144D01*
X161818873Y-95126880D01*
X161864284Y-95093806D01*
X161920348Y-95090240D01*
X161969584Y-95117292D01*
X162033254Y-95180962D01*
X162058879Y-95224566D01*
X162113101Y-95415135D01*
X162208533Y-95606788D01*
X162337567Y-95777656D01*
X162495795Y-95921900D01*
X162529234Y-95942604D01*
X162677833Y-96034612D01*
X162877483Y-96111957D01*
X163087946Y-96151300D01*
X163302054Y-96151300D01*
X163512517Y-96111957D01*
X163712167Y-96034612D01*
X163894206Y-95921899D01*
X164052434Y-95777655D01*
X164181464Y-95606792D01*
X164181466Y-95606788D01*
X164276898Y-95415135D01*
X164276898Y-95415132D01*
X164276900Y-95415130D01*
X164335494Y-95209195D01*
X164355249Y-94996000D01*
X164335494Y-94782805D01*
X164276900Y-94576870D01*
X164276899Y-94576868D01*
X164276898Y-94576864D01*
X164181466Y-94385211D01*
X164052432Y-94214343D01*
X163904236Y-94079244D01*
X163874082Y-94027932D01*
X163878203Y-93968559D01*
X163915157Y-93921905D01*
X163972010Y-93904300D01*
X163990265Y-93904300D01*
X164028763Y-93911958D01*
X164061400Y-93933765D01*
X164622682Y-94495047D01*
X164648917Y-94540894D01*
X164648307Y-94593712D01*
X164594505Y-94782805D01*
X164574751Y-94996000D01*
X164594505Y-95209192D01*
X164653101Y-95415135D01*
X164748533Y-95606788D01*
X164877567Y-95777656D01*
X165035795Y-95921900D01*
X165069234Y-95942604D01*
X165217833Y-96034612D01*
X165417483Y-96111957D01*
X165627946Y-96151300D01*
X165842054Y-96151300D01*
X166052517Y-96111957D01*
X166252167Y-96034612D01*
X166434206Y-95921899D01*
X166592434Y-95777655D01*
X166721464Y-95606792D01*
X166721466Y-95606788D01*
X166816898Y-95415135D01*
X166816898Y-95415132D01*
X166816900Y-95415130D01*
X166875494Y-95209195D01*
X166895249Y-94996000D01*
X166875494Y-94782805D01*
X166816900Y-94576870D01*
X166816899Y-94576868D01*
X166816898Y-94576864D01*
X166721466Y-94385211D01*
X166592432Y-94214343D01*
X166434204Y-94070099D01*
X166252170Y-93957390D01*
X166252167Y-93957388D01*
X166077615Y-93889766D01*
X166052515Y-93880042D01*
X165842054Y-93840700D01*
X165627946Y-93840700D01*
X165417480Y-93880043D01*
X165343766Y-93908599D01*
X165286662Y-93913226D01*
X165236292Y-93885927D01*
X164814206Y-93463841D01*
X164788169Y-93418743D01*
X164788169Y-93366668D01*
X164814207Y-93321570D01*
X164859305Y-93295534D01*
X164904797Y-93283344D01*
X165107946Y-93188616D01*
X165226320Y-93105728D01*
X164266727Y-92146135D01*
X164240690Y-92101037D01*
X164240690Y-92048963D01*
X164266727Y-92003865D01*
X164465000Y-91805592D01*
X165226320Y-91044270D01*
X165107946Y-90961383D01*
X164904799Y-90866655D01*
X164688293Y-90808642D01*
X164464999Y-90789107D01*
X164241706Y-90808642D01*
X164025200Y-90866655D01*
X163822051Y-90961385D01*
X163766362Y-91000379D01*
X163710416Y-91018557D01*
X163653870Y-91002342D01*
X163616058Y-90957279D01*
X163609909Y-90898776D01*
X163637524Y-90846839D01*
X166059330Y-88425033D01*
X166067724Y-88417532D01*
X166095278Y-88395560D01*
X166126376Y-88349944D01*
X166128556Y-88346874D01*
X166161320Y-88302482D01*
X166161320Y-88302480D01*
X166163636Y-88299343D01*
X166167538Y-88291614D01*
X166181855Y-88245200D01*
X166184953Y-88235152D01*
X166186114Y-88231621D01*
X166204362Y-88179478D01*
X166204362Y-88179475D01*
X166205650Y-88175795D01*
X166207100Y-88167263D01*
X166207100Y-88108182D01*
X166207170Y-88104422D01*
X166207498Y-88095653D01*
X166222759Y-88046032D01*
X166260727Y-88010627D01*
X166311292Y-87998866D01*
X166360982Y-88013879D01*
X166465450Y-88078563D01*
X166673741Y-88159255D01*
X166820121Y-88186618D01*
X166893311Y-88200300D01*
X166893312Y-88200300D01*
X167116688Y-88200300D01*
X167116689Y-88200300D01*
X167188029Y-88186964D01*
X167336259Y-88159255D01*
X167544550Y-88078563D01*
X167689141Y-87989035D01*
X167739777Y-87973995D01*
X167791053Y-87986682D01*
X167828832Y-88023599D01*
X167842700Y-88074568D01*
X167842700Y-90995432D01*
X167828832Y-91046401D01*
X167791053Y-91083318D01*
X167739777Y-91096005D01*
X167689141Y-91080964D01*
X167544550Y-90991437D01*
X167466971Y-90961383D01*
X167336259Y-90910745D01*
X167336258Y-90910744D01*
X167336256Y-90910744D01*
X167116689Y-90869700D01*
X167116688Y-90869700D01*
X166893312Y-90869700D01*
X166893311Y-90869700D01*
X166673743Y-90910744D01*
X166465449Y-90991437D01*
X166376680Y-91046401D01*
X166275532Y-91109029D01*
X166275530Y-91109030D01*
X166275531Y-91109030D01*
X166110457Y-91259514D01*
X165975842Y-91437774D01*
X165876274Y-91637732D01*
X165871783Y-91653517D01*
X165845277Y-91697992D01*
X165800162Y-91723395D01*
X165748388Y-91722996D01*
X165703670Y-91696901D01*
X165677852Y-91652023D01*
X165673344Y-91635200D01*
X165578614Y-91432051D01*
X165495728Y-91313678D01*
X164734408Y-92075000D01*
X165495728Y-92836320D01*
X165578616Y-92717946D01*
X165673344Y-92514798D01*
X165677852Y-92497977D01*
X165703670Y-92453098D01*
X165748388Y-92427003D01*
X165800162Y-92426604D01*
X165845277Y-92452007D01*
X165871784Y-92496483D01*
X165876276Y-92512271D01*
X165934433Y-92629065D01*
X165975843Y-92712227D01*
X166110456Y-92890484D01*
X166275532Y-93040971D01*
X166465450Y-93158563D01*
X166673741Y-93239255D01*
X166820121Y-93266618D01*
X166893311Y-93280300D01*
X166893312Y-93280300D01*
X167116688Y-93280300D01*
X167116689Y-93280300D01*
X167171580Y-93270038D01*
X167336259Y-93239255D01*
X167544550Y-93158563D01*
X167689141Y-93069035D01*
X167739777Y-93053995D01*
X167791053Y-93066682D01*
X167828832Y-93103599D01*
X167842700Y-93154568D01*
X167842700Y-93855598D01*
X167825095Y-93912451D01*
X167778442Y-93949403D01*
X167767144Y-93953780D01*
X167757829Y-93957389D01*
X167575795Y-94070099D01*
X167417567Y-94214343D01*
X167288533Y-94385211D01*
X167193101Y-94576864D01*
X167134505Y-94782807D01*
X167114751Y-94996000D01*
X167134505Y-95209192D01*
X167193101Y-95415135D01*
X167288533Y-95606788D01*
X167417567Y-95777656D01*
X167575795Y-95921900D01*
X167609234Y-95942604D01*
X167757833Y-96034612D01*
X167957483Y-96111957D01*
X168167946Y-96151300D01*
X168382054Y-96151300D01*
X168592517Y-96111957D01*
X168792167Y-96034612D01*
X168974206Y-95921899D01*
X169132434Y-95777655D01*
X169261464Y-95606792D01*
X169261466Y-95606788D01*
X169356898Y-95415135D01*
X169356898Y-95415132D01*
X169356900Y-95415130D01*
X169415494Y-95209195D01*
X169435249Y-94996000D01*
X169415494Y-94782805D01*
X169356900Y-94576870D01*
X169356899Y-94576868D01*
X169356898Y-94576864D01*
X169261466Y-94385211D01*
X169132432Y-94214343D01*
X168974204Y-94070099D01*
X168792170Y-93957389D01*
X168788135Y-93955826D01*
X168771557Y-93949403D01*
X168724905Y-93912451D01*
X168707300Y-93855598D01*
X168707300Y-93154568D01*
X168721168Y-93103599D01*
X168758947Y-93066682D01*
X168810223Y-93053995D01*
X168860858Y-93069035D01*
X169005450Y-93158563D01*
X169213741Y-93239255D01*
X169360121Y-93266618D01*
X169433311Y-93280300D01*
X169433312Y-93280300D01*
X169656688Y-93280300D01*
X169656689Y-93280300D01*
X169711580Y-93270038D01*
X169876259Y-93239255D01*
X170084550Y-93158563D01*
X170229141Y-93069035D01*
X170279777Y-93053995D01*
X170331053Y-93066682D01*
X170368832Y-93103599D01*
X170382700Y-93154568D01*
X170382700Y-93740101D01*
X170369222Y-93790401D01*
X170332400Y-93827223D01*
X170282100Y-93840701D01*
X169919419Y-93840701D01*
X169893891Y-93843661D01*
X169789475Y-93889766D01*
X169708766Y-93970475D01*
X169662662Y-94074890D01*
X169659700Y-94100422D01*
X169659700Y-95891580D01*
X169662661Y-95917108D01*
X169664777Y-95921900D01*
X169708766Y-96021525D01*
X169789475Y-96102234D01*
X169893891Y-96148338D01*
X169919421Y-96151300D01*
X171710578Y-96151299D01*
X171710580Y-96151299D01*
X171727598Y-96149324D01*
X171736109Y-96148338D01*
X171840525Y-96102234D01*
X171921234Y-96021525D01*
X171967338Y-95917109D01*
X171970300Y-95891579D01*
X171970300Y-95821500D01*
X178474000Y-95821500D01*
X178474000Y-96517157D01*
X178484790Y-96591216D01*
X178540635Y-96705450D01*
X178630549Y-96795364D01*
X178744783Y-96851209D01*
X178818843Y-96862000D01*
X179514500Y-96862000D01*
X179514500Y-95821500D01*
X179895500Y-95821500D01*
X179895500Y-96862000D01*
X180591157Y-96862000D01*
X180665216Y-96851209D01*
X180779450Y-96795364D01*
X180869364Y-96705450D01*
X180925209Y-96591216D01*
X180936000Y-96517157D01*
X180936000Y-95821500D01*
X179895500Y-95821500D01*
X179514500Y-95821500D01*
X178474000Y-95821500D01*
X171970300Y-95821500D01*
X171970300Y-95440500D01*
X178474000Y-95440500D01*
X179514500Y-95440500D01*
X179514500Y-94400000D01*
X179895500Y-94400000D01*
X179895500Y-95440500D01*
X180936000Y-95440500D01*
X180936000Y-94744843D01*
X180925209Y-94670783D01*
X180869364Y-94556549D01*
X180779450Y-94466635D01*
X180665216Y-94410790D01*
X180591157Y-94400000D01*
X179895500Y-94400000D01*
X179514500Y-94400000D01*
X178818843Y-94400000D01*
X178744783Y-94410790D01*
X178630549Y-94466635D01*
X178540635Y-94556549D01*
X178484790Y-94670783D01*
X178474000Y-94744843D01*
X178474000Y-95440500D01*
X171970300Y-95440500D01*
X171970299Y-94100422D01*
X171967338Y-94074891D01*
X171921234Y-93970475D01*
X171840525Y-93889766D01*
X171736109Y-93843662D01*
X171710579Y-93840700D01*
X171710577Y-93840700D01*
X171347900Y-93840700D01*
X171297600Y-93827222D01*
X171260778Y-93790400D01*
X171247300Y-93740100D01*
X171247300Y-93154568D01*
X171261168Y-93103599D01*
X171298947Y-93066682D01*
X171350223Y-93053995D01*
X171400858Y-93069035D01*
X171545450Y-93158563D01*
X171753741Y-93239255D01*
X171900121Y-93266618D01*
X171973311Y-93280300D01*
X171973312Y-93280300D01*
X172196688Y-93280300D01*
X172196689Y-93280300D01*
X172251580Y-93270038D01*
X172416259Y-93239255D01*
X172624550Y-93158563D01*
X172814468Y-93040971D01*
X172979544Y-92890484D01*
X173114157Y-92712227D01*
X173213724Y-92512270D01*
X173274854Y-92297422D01*
X173295464Y-92075000D01*
X173283696Y-91947999D01*
X178544751Y-91947999D01*
X178564505Y-92161192D01*
X178623101Y-92367135D01*
X178718533Y-92558788D01*
X178718535Y-92558791D01*
X178718536Y-92558792D01*
X178841790Y-92722007D01*
X178847567Y-92729656D01*
X179005795Y-92873900D01*
X179039930Y-92895035D01*
X179187833Y-92986612D01*
X179387483Y-93063957D01*
X179597946Y-93103300D01*
X179812054Y-93103300D01*
X180022517Y-93063957D01*
X180222167Y-92986612D01*
X180404206Y-92873899D01*
X180562434Y-92729655D01*
X180691464Y-92558792D01*
X180695163Y-92551363D01*
X180786898Y-92367135D01*
X180786898Y-92367132D01*
X180786900Y-92367130D01*
X180845494Y-92161195D01*
X180865249Y-91948000D01*
X180845494Y-91734805D01*
X180786900Y-91528870D01*
X180786899Y-91528868D01*
X180786898Y-91528864D01*
X180691466Y-91337211D01*
X180665313Y-91302579D01*
X180562434Y-91166345D01*
X180552617Y-91157396D01*
X180404204Y-91022099D01*
X180238823Y-90919701D01*
X180222167Y-90909388D01*
X180023777Y-90832531D01*
X180022515Y-90832042D01*
X179812054Y-90792700D01*
X179597946Y-90792700D01*
X179387484Y-90832042D01*
X179315271Y-90860018D01*
X179187833Y-90909388D01*
X179187831Y-90909389D01*
X179187829Y-90909390D01*
X179005795Y-91022099D01*
X178847567Y-91166343D01*
X178718533Y-91337211D01*
X178623101Y-91528864D01*
X178564505Y-91734807D01*
X178544751Y-91947999D01*
X173283696Y-91947999D01*
X173274854Y-91852578D01*
X173213724Y-91637730D01*
X173213722Y-91637726D01*
X173114157Y-91437774D01*
X173114157Y-91437773D01*
X172979544Y-91259516D01*
X172970587Y-91251351D01*
X172922700Y-91207696D01*
X172814468Y-91109029D01*
X172624550Y-90991437D01*
X172416259Y-90910745D01*
X172416258Y-90910744D01*
X172416256Y-90910744D01*
X172390522Y-90905934D01*
X172379570Y-90903886D01*
X172330282Y-90879344D01*
X172301296Y-90832531D01*
X172301296Y-90777469D01*
X172330282Y-90730656D01*
X172379570Y-90706113D01*
X172416259Y-90699255D01*
X172624550Y-90618563D01*
X172814468Y-90500971D01*
X172979544Y-90350484D01*
X173114157Y-90172227D01*
X173213724Y-89972270D01*
X173274854Y-89757422D01*
X173295464Y-89535000D01*
X173283696Y-89408000D01*
X178544751Y-89408000D01*
X178564505Y-89621192D01*
X178623101Y-89827135D01*
X178718533Y-90018788D01*
X178718535Y-90018791D01*
X178718536Y-90018792D01*
X178834403Y-90172225D01*
X178847567Y-90189656D01*
X179005795Y-90333900D01*
X179032581Y-90350485D01*
X179187833Y-90446612D01*
X179387483Y-90523957D01*
X179597946Y-90563300D01*
X179812054Y-90563300D01*
X180022517Y-90523957D01*
X180222167Y-90446612D01*
X180404206Y-90333899D01*
X180562434Y-90189655D01*
X180691464Y-90018792D01*
X180714629Y-89972270D01*
X180786898Y-89827135D01*
X180786898Y-89827132D01*
X180786900Y-89827130D01*
X180845494Y-89621195D01*
X180865249Y-89408000D01*
X180845494Y-89194805D01*
X180786900Y-88988870D01*
X180786899Y-88988868D01*
X180786898Y-88988864D01*
X180691466Y-88797211D01*
X180657451Y-88752168D01*
X180562434Y-88626345D01*
X180561261Y-88625276D01*
X180404204Y-88482099D01*
X180228994Y-88373615D01*
X180222167Y-88369388D01*
X180049463Y-88302482D01*
X180022515Y-88292042D01*
X179812054Y-88252700D01*
X179597946Y-88252700D01*
X179387484Y-88292042D01*
X179290279Y-88329700D01*
X179187833Y-88369388D01*
X179187831Y-88369389D01*
X179187829Y-88369390D01*
X179005795Y-88482099D01*
X178847567Y-88626343D01*
X178718533Y-88797211D01*
X178623101Y-88988864D01*
X178564505Y-89194807D01*
X178544751Y-89408000D01*
X173283696Y-89408000D01*
X173274854Y-89312578D01*
X173213724Y-89097730D01*
X173187968Y-89046006D01*
X173130330Y-88930253D01*
X173114157Y-88897773D01*
X172979544Y-88719516D01*
X172814468Y-88569029D01*
X172624550Y-88451437D01*
X172416259Y-88370745D01*
X172416258Y-88370744D01*
X172416256Y-88370744D01*
X172390522Y-88365934D01*
X172379570Y-88363886D01*
X172330282Y-88339344D01*
X172301296Y-88292531D01*
X172301296Y-88237469D01*
X172330282Y-88190656D01*
X172379570Y-88166113D01*
X172416259Y-88159255D01*
X172624550Y-88078563D01*
X172814468Y-87960971D01*
X172979544Y-87810484D01*
X173114157Y-87632227D01*
X173213724Y-87432270D01*
X173274854Y-87217422D01*
X173295464Y-86995000D01*
X173283696Y-86867999D01*
X178544751Y-86867999D01*
X178564505Y-87081192D01*
X178623101Y-87287135D01*
X178718533Y-87478788D01*
X178718535Y-87478791D01*
X178718536Y-87478792D01*
X178834403Y-87632225D01*
X178847567Y-87649656D01*
X179005795Y-87793900D01*
X179032581Y-87810485D01*
X179187833Y-87906612D01*
X179387483Y-87983957D01*
X179597946Y-88023300D01*
X179812054Y-88023300D01*
X180022517Y-87983957D01*
X180222167Y-87906612D01*
X180404206Y-87793899D01*
X180562434Y-87649655D01*
X180691464Y-87478792D01*
X180756622Y-87347937D01*
X180786898Y-87287135D01*
X180786898Y-87287132D01*
X180786900Y-87287130D01*
X180845494Y-87081195D01*
X180865249Y-86868000D01*
X180845494Y-86654805D01*
X180786900Y-86448870D01*
X180786899Y-86448868D01*
X180786898Y-86448864D01*
X180691466Y-86257211D01*
X180652878Y-86206112D01*
X180562434Y-86086345D01*
X180557799Y-86082120D01*
X180404204Y-85942099D01*
X180243169Y-85842392D01*
X180222167Y-85829388D01*
X180023777Y-85752531D01*
X180022515Y-85752042D01*
X179812054Y-85712700D01*
X179597946Y-85712700D01*
X179387484Y-85752042D01*
X179290279Y-85789700D01*
X179187833Y-85829388D01*
X179187831Y-85829389D01*
X179187829Y-85829390D01*
X179005795Y-85942099D01*
X178847567Y-86086343D01*
X178718533Y-86257211D01*
X178623101Y-86448864D01*
X178564505Y-86654807D01*
X178544751Y-86867999D01*
X173283696Y-86867999D01*
X173274854Y-86772578D01*
X173213724Y-86557730D01*
X173213722Y-86557727D01*
X173212162Y-86552242D01*
X173211551Y-86499423D01*
X173237784Y-86453578D01*
X173599726Y-86091636D01*
X173608118Y-86084137D01*
X173635678Y-86062160D01*
X173666815Y-86016488D01*
X173668928Y-86013510D01*
X173701720Y-85969081D01*
X173701720Y-85969079D01*
X173704039Y-85965938D01*
X173707936Y-85958218D01*
X173709085Y-85954489D01*
X173709088Y-85954487D01*
X173725370Y-85901700D01*
X173726519Y-85898210D01*
X173744762Y-85846077D01*
X173744762Y-85846072D01*
X173746050Y-85842392D01*
X173747500Y-85833864D01*
X173747500Y-85774782D01*
X173747570Y-85771021D01*
X173748280Y-85752042D01*
X173749634Y-85715851D01*
X173749633Y-85715848D01*
X173749779Y-85711955D01*
X173747500Y-85694642D01*
X173747500Y-84328000D01*
X178544751Y-84328000D01*
X178564505Y-84541192D01*
X178623101Y-84747135D01*
X178718533Y-84938788D01*
X178718535Y-84938791D01*
X178718536Y-84938792D01*
X178834403Y-85092225D01*
X178847567Y-85109656D01*
X179005795Y-85253900D01*
X179032581Y-85270485D01*
X179187833Y-85366612D01*
X179387483Y-85443957D01*
X179597946Y-85483300D01*
X179812054Y-85483300D01*
X180022517Y-85443957D01*
X180222167Y-85366612D01*
X180404206Y-85253899D01*
X180562434Y-85109655D01*
X180691464Y-84938792D01*
X180786900Y-84747130D01*
X180845494Y-84541195D01*
X180865249Y-84328000D01*
X180845494Y-84114805D01*
X180786900Y-83908870D01*
X180786899Y-83908868D01*
X180786898Y-83908864D01*
X180691466Y-83717211D01*
X180684403Y-83707858D01*
X180562434Y-83546345D01*
X180557799Y-83542120D01*
X180404204Y-83402099D01*
X180250857Y-83307152D01*
X180222167Y-83289388D01*
X180064812Y-83228428D01*
X180022515Y-83212042D01*
X179812054Y-83172700D01*
X179597946Y-83172700D01*
X179387484Y-83212042D01*
X179290279Y-83249700D01*
X179187833Y-83289388D01*
X179187831Y-83289389D01*
X179187829Y-83289390D01*
X179005795Y-83402099D01*
X178847567Y-83546343D01*
X178718533Y-83717211D01*
X178623101Y-83908864D01*
X178564505Y-84114807D01*
X178544751Y-84328000D01*
X173747500Y-84328000D01*
X173747500Y-83975355D01*
X173748133Y-83964091D01*
X173748148Y-83963955D01*
X173752077Y-83929087D01*
X173741804Y-83874794D01*
X173741197Y-83871221D01*
X173732960Y-83816572D01*
X173732958Y-83816569D01*
X173732376Y-83812703D01*
X173729676Y-83804497D01*
X173702062Y-83752248D01*
X173700367Y-83748890D01*
X173685109Y-83717208D01*
X173676418Y-83699160D01*
X173676416Y-83699158D01*
X173674729Y-83695654D01*
X173669714Y-83688584D01*
X173627940Y-83646810D01*
X173625331Y-83644101D01*
X173585130Y-83600776D01*
X173571274Y-83590144D01*
X172921406Y-82940275D01*
X172913889Y-82931863D01*
X172907250Y-82923538D01*
X172886779Y-82877993D01*
X172890730Y-82828216D01*
X172918127Y-82786471D01*
X172979544Y-82730484D01*
X173114157Y-82552227D01*
X173213724Y-82352270D01*
X173274854Y-82137422D01*
X173295464Y-81915000D01*
X173283696Y-81787999D01*
X178544751Y-81787999D01*
X178564505Y-82001192D01*
X178623101Y-82207135D01*
X178718533Y-82398788D01*
X178718535Y-82398791D01*
X178718536Y-82398792D01*
X178834403Y-82552225D01*
X178847567Y-82569656D01*
X179005795Y-82713900D01*
X179077582Y-82758348D01*
X179187833Y-82826612D01*
X179387483Y-82903957D01*
X179597946Y-82943300D01*
X179812054Y-82943300D01*
X180022517Y-82903957D01*
X180222167Y-82826612D01*
X180404206Y-82713899D01*
X180562434Y-82569655D01*
X180691464Y-82398792D01*
X180786900Y-82207130D01*
X180845494Y-82001195D01*
X180865249Y-81788000D01*
X180845494Y-81574805D01*
X180786900Y-81368870D01*
X180786899Y-81368868D01*
X180786898Y-81368864D01*
X180691466Y-81177211D01*
X180658340Y-81133345D01*
X180562434Y-81006345D01*
X180551916Y-80996757D01*
X180404204Y-80862099D01*
X180249445Y-80766278D01*
X180222167Y-80749388D01*
X180023777Y-80672531D01*
X180022515Y-80672042D01*
X179812054Y-80632700D01*
X179597946Y-80632700D01*
X179387484Y-80672042D01*
X179290279Y-80709700D01*
X179187833Y-80749388D01*
X179187831Y-80749389D01*
X179187829Y-80749390D01*
X179005795Y-80862099D01*
X178847567Y-81006343D01*
X178718533Y-81177211D01*
X178623101Y-81368864D01*
X178564505Y-81574807D01*
X178544751Y-81787999D01*
X173283696Y-81787999D01*
X173274854Y-81692578D01*
X173213724Y-81477730D01*
X173114157Y-81277773D01*
X172979544Y-81099516D01*
X172814468Y-80949029D01*
X172624550Y-80831437D01*
X172416259Y-80750745D01*
X172416258Y-80750744D01*
X172416256Y-80750744D01*
X172390522Y-80745934D01*
X172379570Y-80743886D01*
X172330282Y-80719344D01*
X172301296Y-80672531D01*
X172301296Y-80617469D01*
X172330282Y-80570656D01*
X172379570Y-80546113D01*
X172416259Y-80539255D01*
X172624550Y-80458563D01*
X172814468Y-80340971D01*
X172979544Y-80190484D01*
X173114157Y-80012227D01*
X173213724Y-79812270D01*
X173274854Y-79597422D01*
X173295464Y-79375000D01*
X173283696Y-79247999D01*
X178544751Y-79247999D01*
X178564505Y-79461192D01*
X178623101Y-79667135D01*
X178718533Y-79858788D01*
X178718535Y-79858791D01*
X178718536Y-79858792D01*
X178834403Y-80012225D01*
X178847567Y-80029656D01*
X179005795Y-80173900D01*
X179032581Y-80190485D01*
X179187833Y-80286612D01*
X179387483Y-80363957D01*
X179597946Y-80403300D01*
X179812054Y-80403300D01*
X180022517Y-80363957D01*
X180222167Y-80286612D01*
X180404206Y-80173899D01*
X180562434Y-80029655D01*
X180691464Y-79858792D01*
X180786900Y-79667130D01*
X180845494Y-79461195D01*
X180865249Y-79248000D01*
X180845494Y-79034805D01*
X180786900Y-78828870D01*
X180786899Y-78828868D01*
X180786898Y-78828864D01*
X180691466Y-78637211D01*
X180668345Y-78606594D01*
X180562434Y-78466345D01*
X180499562Y-78409030D01*
X180404204Y-78322099D01*
X180250600Y-78226993D01*
X180222167Y-78209388D01*
X180023777Y-78132531D01*
X180022515Y-78132042D01*
X179812054Y-78092700D01*
X179597946Y-78092700D01*
X179387484Y-78132042D01*
X179290279Y-78169700D01*
X179187833Y-78209388D01*
X179187831Y-78209389D01*
X179187829Y-78209390D01*
X179005795Y-78322099D01*
X178847567Y-78466343D01*
X178718533Y-78637211D01*
X178623101Y-78828864D01*
X178564505Y-79034807D01*
X178544751Y-79247999D01*
X173283696Y-79247999D01*
X173274854Y-79152578D01*
X173213724Y-78937730D01*
X173206009Y-78922237D01*
X173159515Y-78828864D01*
X173114157Y-78737773D01*
X172979544Y-78559516D01*
X172814468Y-78409029D01*
X172624550Y-78291437D01*
X172416259Y-78210745D01*
X172416258Y-78210744D01*
X172416256Y-78210744D01*
X172390522Y-78205934D01*
X172379570Y-78203886D01*
X172330282Y-78179344D01*
X172301296Y-78132531D01*
X172301296Y-78077469D01*
X172330282Y-78030656D01*
X172379570Y-78006113D01*
X172416259Y-77999255D01*
X172624550Y-77918563D01*
X172814468Y-77800971D01*
X172979544Y-77650484D01*
X173114157Y-77472227D01*
X173213724Y-77272270D01*
X173274854Y-77057422D01*
X173295464Y-76835000D01*
X173283696Y-76708000D01*
X178544751Y-76708000D01*
X178564505Y-76921192D01*
X178623101Y-77127135D01*
X178718533Y-77318788D01*
X178718535Y-77318791D01*
X178718536Y-77318792D01*
X178834403Y-77472225D01*
X178847567Y-77489656D01*
X179005795Y-77633900D01*
X179032581Y-77650485D01*
X179187833Y-77746612D01*
X179387483Y-77823957D01*
X179597946Y-77863300D01*
X179812054Y-77863300D01*
X180022517Y-77823957D01*
X180222167Y-77746612D01*
X180404206Y-77633899D01*
X180562434Y-77489655D01*
X180691464Y-77318792D01*
X180702337Y-77296956D01*
X180786898Y-77127135D01*
X180786898Y-77127132D01*
X180786900Y-77127130D01*
X180845494Y-76921195D01*
X180865249Y-76708000D01*
X180845494Y-76494805D01*
X180786900Y-76288870D01*
X180786899Y-76288868D01*
X180786898Y-76288864D01*
X180691466Y-76097211D01*
X180691464Y-76097208D01*
X180562434Y-75926345D01*
X180551701Y-75916561D01*
X180404204Y-75782099D01*
X180250857Y-75687152D01*
X180222167Y-75669388D01*
X180023777Y-75592531D01*
X180022515Y-75592042D01*
X179812054Y-75552700D01*
X179597946Y-75552700D01*
X179387484Y-75592042D01*
X179290279Y-75629700D01*
X179187833Y-75669388D01*
X179187831Y-75669389D01*
X179187829Y-75669390D01*
X179005795Y-75782099D01*
X178847567Y-75926343D01*
X178718533Y-76097211D01*
X178623101Y-76288864D01*
X178564505Y-76494807D01*
X178544751Y-76708000D01*
X173283696Y-76708000D01*
X173274854Y-76612578D01*
X173213724Y-76397730D01*
X173114157Y-76197773D01*
X172979544Y-76019516D01*
X172814468Y-75869029D01*
X172624550Y-75751437D01*
X172416259Y-75670745D01*
X172416258Y-75670744D01*
X172416256Y-75670744D01*
X172390522Y-75665934D01*
X172379570Y-75663886D01*
X172330282Y-75639344D01*
X172301296Y-75592531D01*
X172301296Y-75537469D01*
X172330282Y-75490656D01*
X172379570Y-75466113D01*
X172416259Y-75459255D01*
X172624550Y-75378563D01*
X172814468Y-75260971D01*
X172979544Y-75110484D01*
X173114157Y-74932227D01*
X173213724Y-74732270D01*
X173274854Y-74517422D01*
X173295464Y-74295000D01*
X173283696Y-74167999D01*
X178544751Y-74167999D01*
X178564505Y-74381192D01*
X178623101Y-74587135D01*
X178718533Y-74778788D01*
X178718535Y-74778791D01*
X178718536Y-74778792D01*
X178834403Y-74932225D01*
X178847567Y-74949656D01*
X179005795Y-75093900D01*
X179056092Y-75125042D01*
X179187833Y-75206612D01*
X179387483Y-75283957D01*
X179597946Y-75323300D01*
X179812054Y-75323300D01*
X180022517Y-75283957D01*
X180222167Y-75206612D01*
X180404206Y-75093899D01*
X180562434Y-74949655D01*
X180691464Y-74778792D01*
X180786900Y-74587130D01*
X180845494Y-74381195D01*
X180865249Y-74168000D01*
X180845494Y-73954805D01*
X180786900Y-73748870D01*
X180786899Y-73748868D01*
X180786898Y-73748864D01*
X180691466Y-73557211D01*
X180658340Y-73513345D01*
X180562434Y-73386345D01*
X180499562Y-73329030D01*
X180404204Y-73242099D01*
X180250857Y-73147152D01*
X180222167Y-73129388D01*
X180023777Y-73052531D01*
X180022515Y-73052042D01*
X179812054Y-73012700D01*
X179597946Y-73012700D01*
X179387484Y-73052042D01*
X179290279Y-73089700D01*
X179187833Y-73129388D01*
X179187831Y-73129389D01*
X179187829Y-73129390D01*
X179005795Y-73242099D01*
X178847567Y-73386343D01*
X178718533Y-73557211D01*
X178623101Y-73748864D01*
X178564505Y-73954807D01*
X178544751Y-74167999D01*
X173283696Y-74167999D01*
X173274854Y-74072578D01*
X173213724Y-73857730D01*
X173114157Y-73657773D01*
X172979544Y-73479516D01*
X172814468Y-73329029D01*
X172624550Y-73211437D01*
X172416259Y-73130745D01*
X172416258Y-73130744D01*
X172416256Y-73130744D01*
X172390522Y-73125934D01*
X172379570Y-73123886D01*
X172330282Y-73099344D01*
X172301296Y-73052531D01*
X172301296Y-72997469D01*
X172330282Y-72950656D01*
X172379570Y-72926113D01*
X172416259Y-72919255D01*
X172624550Y-72838563D01*
X172814468Y-72720971D01*
X172979544Y-72570484D01*
X173114157Y-72392227D01*
X173213724Y-72192270D01*
X173274854Y-71977422D01*
X173295464Y-71755000D01*
X173283696Y-71628000D01*
X178544751Y-71628000D01*
X178564505Y-71841192D01*
X178623101Y-72047135D01*
X178718533Y-72238788D01*
X178718535Y-72238791D01*
X178718536Y-72238792D01*
X178834403Y-72392225D01*
X178847567Y-72409656D01*
X179005795Y-72553900D01*
X179032581Y-72570485D01*
X179187833Y-72666612D01*
X179387483Y-72743957D01*
X179597946Y-72783300D01*
X179812054Y-72783300D01*
X180022517Y-72743957D01*
X180222167Y-72666612D01*
X180404206Y-72553899D01*
X180562434Y-72409655D01*
X180691464Y-72238792D01*
X180786900Y-72047130D01*
X180845494Y-71841195D01*
X180865249Y-71628000D01*
X180845494Y-71414805D01*
X180786900Y-71208870D01*
X180786899Y-71208868D01*
X180786898Y-71208864D01*
X180691466Y-71017211D01*
X180658340Y-70973345D01*
X180562434Y-70846345D01*
X180554473Y-70839088D01*
X180404204Y-70702099D01*
X180250857Y-70607152D01*
X180222167Y-70589388D01*
X180023777Y-70512531D01*
X180022515Y-70512042D01*
X179812054Y-70472700D01*
X179597946Y-70472700D01*
X179387484Y-70512042D01*
X179290279Y-70549700D01*
X179187833Y-70589388D01*
X179187831Y-70589389D01*
X179187829Y-70589390D01*
X179005795Y-70702099D01*
X178847567Y-70846343D01*
X178718533Y-71017211D01*
X178623101Y-71208864D01*
X178564505Y-71414807D01*
X178544751Y-71628000D01*
X173283696Y-71628000D01*
X173274854Y-71532578D01*
X173213724Y-71317730D01*
X173114157Y-71117773D01*
X172979544Y-70939516D01*
X172972680Y-70933259D01*
X172943837Y-70906965D01*
X172814468Y-70789029D01*
X172624550Y-70671437D01*
X172416259Y-70590745D01*
X172416258Y-70590744D01*
X172416256Y-70590744D01*
X172390522Y-70585934D01*
X172379570Y-70583886D01*
X172330282Y-70559344D01*
X172301296Y-70512531D01*
X172301296Y-70457469D01*
X172330282Y-70410656D01*
X172379570Y-70386113D01*
X172416259Y-70379255D01*
X172624550Y-70298563D01*
X172814468Y-70180971D01*
X172979544Y-70030484D01*
X173014964Y-69983580D01*
X178549700Y-69983580D01*
X178552661Y-70009108D01*
X178573347Y-70055956D01*
X178598766Y-70113525D01*
X178679475Y-70194234D01*
X178783891Y-70240338D01*
X178809421Y-70243300D01*
X180600578Y-70243299D01*
X180600580Y-70243299D01*
X180617598Y-70241324D01*
X180626109Y-70240338D01*
X180730525Y-70194234D01*
X180811234Y-70113525D01*
X180857338Y-70009109D01*
X180860300Y-69983579D01*
X180860299Y-68192422D01*
X180858439Y-68176388D01*
X180857338Y-68166891D01*
X180857337Y-68166890D01*
X180811234Y-68062475D01*
X180730525Y-67981766D01*
X180626109Y-67935662D01*
X180600579Y-67932700D01*
X180600577Y-67932700D01*
X178809419Y-67932700D01*
X178783891Y-67935661D01*
X178679475Y-67981766D01*
X178598766Y-68062475D01*
X178552662Y-68166890D01*
X178549700Y-68192422D01*
X178549700Y-69983580D01*
X173014964Y-69983580D01*
X173114157Y-69852227D01*
X173213724Y-69652270D01*
X173274854Y-69437422D01*
X173295464Y-69215000D01*
X173274854Y-68992578D01*
X173213724Y-68777730D01*
X173114157Y-68577773D01*
X172979544Y-68399516D01*
X172814468Y-68249029D01*
X172624550Y-68131437D01*
X172416259Y-68050745D01*
X172416258Y-68050744D01*
X172416256Y-68050744D01*
X172390522Y-68045934D01*
X172379570Y-68043886D01*
X172330282Y-68019344D01*
X172301296Y-67972531D01*
X172301296Y-67917469D01*
X172330282Y-67870656D01*
X172379570Y-67846113D01*
X172416259Y-67839255D01*
X172624550Y-67758563D01*
X172814468Y-67640971D01*
X172979544Y-67490484D01*
X173114157Y-67312227D01*
X173213724Y-67112270D01*
X173274854Y-66897422D01*
X173295464Y-66675000D01*
X173274854Y-66452578D01*
X173213724Y-66237730D01*
X173210991Y-66232242D01*
X173137664Y-66084981D01*
X173114157Y-66037773D01*
X172979544Y-65859516D01*
X172814468Y-65709029D01*
X172624550Y-65591437D01*
X172416259Y-65510745D01*
X172416258Y-65510744D01*
X172416256Y-65510744D01*
X172390522Y-65505934D01*
X172379570Y-65503886D01*
X172330282Y-65479344D01*
X172301296Y-65432531D01*
X172301296Y-65404999D01*
X178544751Y-65404999D01*
X178564505Y-65618192D01*
X178623101Y-65824135D01*
X178718533Y-66015788D01*
X178718535Y-66015791D01*
X178718536Y-66015792D01*
X178842105Y-66179424D01*
X178847567Y-66186656D01*
X179005795Y-66330900D01*
X179023440Y-66341825D01*
X179187833Y-66443612D01*
X179387483Y-66520957D01*
X179597946Y-66560300D01*
X179812054Y-66560300D01*
X180022517Y-66520957D01*
X180222167Y-66443612D01*
X180404206Y-66330899D01*
X180562434Y-66186655D01*
X180691464Y-66015792D01*
X180786900Y-65824130D01*
X180845494Y-65618195D01*
X180865249Y-65405000D01*
X180845494Y-65191805D01*
X180786900Y-64985870D01*
X180786899Y-64985868D01*
X180786898Y-64985864D01*
X180691466Y-64794211D01*
X180691464Y-64794208D01*
X180562434Y-64623345D01*
X180506407Y-64572270D01*
X180404204Y-64479099D01*
X180222170Y-64366390D01*
X180222167Y-64366388D01*
X180064812Y-64305428D01*
X180022515Y-64289042D01*
X179812054Y-64249700D01*
X179597946Y-64249700D01*
X179387484Y-64289042D01*
X179272423Y-64333617D01*
X179187833Y-64366388D01*
X179187831Y-64366389D01*
X179187829Y-64366390D01*
X179005795Y-64479099D01*
X178847567Y-64623343D01*
X178718533Y-64794211D01*
X178623101Y-64985864D01*
X178564505Y-65191807D01*
X178544751Y-65404999D01*
X172301296Y-65404999D01*
X172301296Y-65377469D01*
X172330282Y-65330656D01*
X172379570Y-65306113D01*
X172416259Y-65299255D01*
X172624550Y-65218563D01*
X172814468Y-65100971D01*
X172979544Y-64950484D01*
X173114157Y-64772227D01*
X173213724Y-64572270D01*
X173274854Y-64357422D01*
X173295464Y-64135000D01*
X173274854Y-63912578D01*
X173231607Y-63760580D01*
X178549700Y-63760580D01*
X178552661Y-63786108D01*
X178564540Y-63813010D01*
X178598766Y-63890525D01*
X178679475Y-63971234D01*
X178783891Y-64017338D01*
X178809421Y-64020300D01*
X180600578Y-64020299D01*
X180600580Y-64020299D01*
X180617598Y-64018324D01*
X180626109Y-64017338D01*
X180730525Y-63971234D01*
X180811234Y-63890525D01*
X180857338Y-63786109D01*
X180860300Y-63760579D01*
X180860299Y-61969422D01*
X180857338Y-61943891D01*
X180811234Y-61839475D01*
X180730525Y-61758766D01*
X180626109Y-61712662D01*
X180600579Y-61709700D01*
X180600577Y-61709700D01*
X178809419Y-61709700D01*
X178783891Y-61712661D01*
X178679475Y-61758766D01*
X178598766Y-61839475D01*
X178552662Y-61943890D01*
X178549700Y-61969422D01*
X178549700Y-63760580D01*
X173231607Y-63760580D01*
X173213724Y-63697730D01*
X173212550Y-63695373D01*
X173156815Y-63583441D01*
X173114157Y-63497773D01*
X172979544Y-63319516D01*
X172814468Y-63169029D01*
X172624550Y-63051437D01*
X172416259Y-62970745D01*
X172416258Y-62970744D01*
X172416256Y-62970744D01*
X172390522Y-62965934D01*
X172379570Y-62963886D01*
X172330282Y-62939344D01*
X172301296Y-62892531D01*
X172301296Y-62837469D01*
X172330282Y-62790656D01*
X172379570Y-62766113D01*
X172416259Y-62759255D01*
X172624550Y-62678563D01*
X172814468Y-62560971D01*
X172979544Y-62410484D01*
X173114157Y-62232227D01*
X173213724Y-62032270D01*
X173274854Y-61817422D01*
X173295464Y-61595000D01*
X173274854Y-61372578D01*
X173213724Y-61157730D01*
X173212464Y-61155200D01*
X173164146Y-61058165D01*
X173114157Y-60957773D01*
X172979544Y-60779516D01*
X172814468Y-60629029D01*
X172624550Y-60511437D01*
X172492399Y-60460241D01*
X172444245Y-60421031D01*
X172428288Y-60361015D01*
X172450611Y-60303065D01*
X172502707Y-60269263D01*
X172524802Y-60263343D01*
X172727946Y-60168616D01*
X172846320Y-60085728D01*
X172838172Y-60077580D01*
X178549700Y-60077580D01*
X178552661Y-60103108D01*
X178568316Y-60138562D01*
X178598766Y-60207525D01*
X178679475Y-60288234D01*
X178783891Y-60334338D01*
X178809421Y-60337300D01*
X180600578Y-60337299D01*
X180600580Y-60337299D01*
X180617598Y-60335324D01*
X180626109Y-60334338D01*
X180730525Y-60288234D01*
X180811234Y-60207525D01*
X180857338Y-60103109D01*
X180860300Y-60077579D01*
X180860299Y-58286422D01*
X180858782Y-58273345D01*
X180857338Y-58260891D01*
X180835423Y-58211259D01*
X180811234Y-58156475D01*
X180730525Y-58075766D01*
X180626109Y-58029662D01*
X180600579Y-58026700D01*
X180600577Y-58026700D01*
X178809419Y-58026700D01*
X178783891Y-58029661D01*
X178679475Y-58075766D01*
X178598766Y-58156475D01*
X178552662Y-58260890D01*
X178549700Y-58286422D01*
X178549700Y-60077580D01*
X172838172Y-60077580D01*
X172085000Y-59324408D01*
X171323678Y-60085728D01*
X171442053Y-60168616D01*
X171645201Y-60263344D01*
X171667293Y-60269264D01*
X171719388Y-60303065D01*
X171741711Y-60361016D01*
X171725754Y-60421031D01*
X171677598Y-60460243D01*
X171545449Y-60511437D01*
X171427856Y-60584247D01*
X171355532Y-60629029D01*
X171355530Y-60629030D01*
X171355531Y-60629030D01*
X171190457Y-60779514D01*
X171055842Y-60957774D01*
X170956276Y-61157727D01*
X170895145Y-61372580D01*
X170874536Y-61595000D01*
X170895145Y-61817419D01*
X170956276Y-62032272D01*
X171042678Y-62205788D01*
X171055843Y-62232227D01*
X171190456Y-62410484D01*
X171355532Y-62560971D01*
X171545450Y-62678563D01*
X171753741Y-62759255D01*
X171790429Y-62766113D01*
X171839717Y-62790656D01*
X171868703Y-62837470D01*
X171868703Y-62892530D01*
X171839717Y-62939344D01*
X171790429Y-62963886D01*
X171783571Y-62965168D01*
X171753742Y-62970744D01*
X171545449Y-63051437D01*
X171472851Y-63096388D01*
X171355532Y-63169029D01*
X171355530Y-63169030D01*
X171355531Y-63169030D01*
X171190457Y-63319514D01*
X171055842Y-63497774D01*
X170956276Y-63697727D01*
X170895145Y-63912580D01*
X170874536Y-64134999D01*
X170895145Y-64357419D01*
X170956276Y-64572272D01*
X171041051Y-64742521D01*
X171051079Y-64797570D01*
X171030145Y-64849461D01*
X170984725Y-64882141D01*
X170928871Y-64885500D01*
X170879863Y-64858498D01*
X165076365Y-59055000D01*
X170799107Y-59055000D01*
X170818642Y-59278293D01*
X170876655Y-59494799D01*
X170971383Y-59697946D01*
X171054270Y-59816320D01*
X171815592Y-59055000D01*
X172354408Y-59055000D01*
X173115728Y-59816320D01*
X173198616Y-59697946D01*
X173293344Y-59494799D01*
X173351357Y-59278293D01*
X173370892Y-59055000D01*
X173351357Y-58831706D01*
X173293344Y-58615200D01*
X173198614Y-58412051D01*
X173115728Y-58293678D01*
X172354408Y-59055000D01*
X171815592Y-59055000D01*
X171054270Y-58293678D01*
X171054269Y-58293678D01*
X170971385Y-58412051D01*
X170876655Y-58615200D01*
X170818642Y-58831706D01*
X170799107Y-59055000D01*
X165076365Y-59055000D01*
X164045635Y-58024270D01*
X171323678Y-58024270D01*
X172084999Y-58785591D01*
X172846320Y-58024270D01*
X172727946Y-57941383D01*
X172524799Y-57846655D01*
X172308293Y-57788642D01*
X172085000Y-57769107D01*
X171861706Y-57788642D01*
X171645200Y-57846655D01*
X171442051Y-57941385D01*
X171323678Y-58024269D01*
X171323678Y-58024270D01*
X164045635Y-58024270D01*
X163460044Y-57438679D01*
X163452527Y-57430268D01*
X163438819Y-57413079D01*
X163430560Y-57402722D01*
X163410194Y-57388837D01*
X163384954Y-57371628D01*
X163381887Y-57369452D01*
X163334351Y-57334369D01*
X163326601Y-57330456D01*
X163270174Y-57313051D01*
X163266602Y-57311876D01*
X163210810Y-57292354D01*
X163202250Y-57290900D01*
X163198359Y-57290900D01*
X163143182Y-57290900D01*
X163139421Y-57290830D01*
X163080355Y-57288620D01*
X163063042Y-57290900D01*
X151221730Y-57290900D01*
X151210466Y-57290267D01*
X151175452Y-57286321D01*
X151121199Y-57296587D01*
X151117491Y-57297217D01*
X151059103Y-57306017D01*
X151050837Y-57308738D01*
X150998592Y-57336348D01*
X150995239Y-57338041D01*
X150945526Y-57361982D01*
X150945524Y-57361983D01*
X150942020Y-57363671D01*
X150934940Y-57368693D01*
X150893161Y-57410472D01*
X150890455Y-57413079D01*
X150847141Y-57453270D01*
X150836512Y-57467121D01*
X150358706Y-57944927D01*
X150308336Y-57972226D01*
X150251231Y-57967599D01*
X150177517Y-57939043D01*
X149967054Y-57899700D01*
X149752946Y-57899700D01*
X149542484Y-57939042D01*
X149456828Y-57972226D01*
X149342833Y-58016388D01*
X149342831Y-58016389D01*
X149342829Y-58016390D01*
X149160795Y-58129099D01*
X149002567Y-58273343D01*
X148873533Y-58444211D01*
X148778101Y-58635864D01*
X148719505Y-58841807D01*
X148699751Y-59054999D01*
X148719505Y-59268192D01*
X148778101Y-59474135D01*
X148873533Y-59665788D01*
X149002567Y-59836656D01*
X149160795Y-59980900D01*
X149225510Y-60020969D01*
X149342833Y-60093612D01*
X149542483Y-60170957D01*
X149752946Y-60210300D01*
X149967054Y-60210300D01*
X150177517Y-60170957D01*
X150377167Y-60093612D01*
X150559206Y-59980899D01*
X150717434Y-59836655D01*
X150846464Y-59665792D01*
X150846466Y-59665788D01*
X150941898Y-59474135D01*
X150941898Y-59474132D01*
X150941900Y-59474130D01*
X151000494Y-59268195D01*
X151020249Y-59055000D01*
X151000494Y-58841805D01*
X150946691Y-58652711D01*
X150946082Y-58599894D01*
X150972317Y-58554047D01*
X151341400Y-58184965D01*
X151374037Y-58163158D01*
X151412535Y-58155500D01*
X155811870Y-58155500D01*
X155864829Y-58170568D01*
X155901923Y-58211259D01*
X155912041Y-58265382D01*
X155892151Y-58316725D01*
X155815842Y-58417774D01*
X155716276Y-58617727D01*
X155655145Y-58832580D01*
X155634536Y-59055000D01*
X155655145Y-59277419D01*
X155716276Y-59492272D01*
X155802678Y-59665788D01*
X155815843Y-59692227D01*
X155950456Y-59870484D01*
X156115532Y-60020971D01*
X156305450Y-60138563D01*
X156437600Y-60189758D01*
X156485753Y-60228967D01*
X156501711Y-60288982D01*
X156479390Y-60346932D01*
X156427296Y-60380735D01*
X156405198Y-60386656D01*
X156202051Y-60481385D01*
X156083678Y-60564269D01*
X156083678Y-60564270D01*
X156844999Y-61325591D01*
X157606320Y-60564270D01*
X157487946Y-60481383D01*
X157284800Y-60386655D01*
X157262704Y-60380735D01*
X157210609Y-60346932D01*
X157188288Y-60288982D01*
X157204246Y-60228967D01*
X157252399Y-60189758D01*
X157384550Y-60138563D01*
X157574468Y-60020971D01*
X157739544Y-59870484D01*
X157874157Y-59692227D01*
X157973724Y-59492270D01*
X158034854Y-59277422D01*
X158055464Y-59055000D01*
X158034854Y-58832578D01*
X157973724Y-58617730D01*
X157972464Y-58615200D01*
X157924146Y-58518165D01*
X157874157Y-58417773D01*
X157797848Y-58316724D01*
X157777959Y-58265382D01*
X157788077Y-58211259D01*
X157825171Y-58170568D01*
X157878130Y-58155500D01*
X162912465Y-58155500D01*
X162950963Y-58163158D01*
X162983600Y-58184965D01*
X170932212Y-66133577D01*
X170958447Y-66179424D01*
X170957837Y-66232242D01*
X170895145Y-66452578D01*
X170874536Y-66675000D01*
X170895145Y-66897419D01*
X170956276Y-67112272D01*
X171032336Y-67265019D01*
X171055843Y-67312227D01*
X171190456Y-67490484D01*
X171355532Y-67640971D01*
X171545450Y-67758563D01*
X171753741Y-67839255D01*
X171790429Y-67846113D01*
X171839717Y-67870656D01*
X171868703Y-67917470D01*
X171868703Y-67972530D01*
X171839717Y-68019344D01*
X171790429Y-68043886D01*
X171783571Y-68045168D01*
X171753742Y-68050744D01*
X171545449Y-68131437D01*
X171427856Y-68204247D01*
X171355532Y-68249029D01*
X171355530Y-68249030D01*
X171355531Y-68249030D01*
X171190457Y-68399514D01*
X171055842Y-68577774D01*
X170956276Y-68777727D01*
X170895145Y-68992580D01*
X170874536Y-69214999D01*
X170895145Y-69437419D01*
X170956276Y-69652272D01*
X171042678Y-69825788D01*
X171055843Y-69852227D01*
X171177177Y-70012900D01*
X171190457Y-70030485D01*
X171195466Y-70035051D01*
X171355532Y-70180971D01*
X171545450Y-70298563D01*
X171753741Y-70379255D01*
X171790429Y-70386113D01*
X171839717Y-70410656D01*
X171868703Y-70457470D01*
X171868703Y-70512530D01*
X171839717Y-70559344D01*
X171790429Y-70583886D01*
X171783571Y-70585168D01*
X171753742Y-70590744D01*
X171545449Y-70671437D01*
X171472851Y-70716388D01*
X171355532Y-70789029D01*
X171355530Y-70789030D01*
X171355531Y-70789030D01*
X171190457Y-70939514D01*
X171055842Y-71117774D01*
X170956276Y-71317727D01*
X170895145Y-71532580D01*
X170874536Y-71754999D01*
X170895145Y-71977419D01*
X170956276Y-72192272D01*
X171042678Y-72365788D01*
X171055843Y-72392227D01*
X171190456Y-72570484D01*
X171355532Y-72720971D01*
X171545450Y-72838563D01*
X171753741Y-72919255D01*
X171790429Y-72926113D01*
X171839717Y-72950656D01*
X171868703Y-72997470D01*
X171868703Y-73052530D01*
X171839717Y-73099344D01*
X171790429Y-73123886D01*
X171783571Y-73125168D01*
X171753742Y-73130744D01*
X171545449Y-73211437D01*
X171472851Y-73256388D01*
X171355532Y-73329029D01*
X171355530Y-73329030D01*
X171355531Y-73329030D01*
X171190457Y-73479514D01*
X171055842Y-73657774D01*
X170956276Y-73857727D01*
X170895145Y-74072580D01*
X170874536Y-74294999D01*
X170895145Y-74517419D01*
X170956276Y-74732272D01*
X171042678Y-74905788D01*
X171055843Y-74932227D01*
X171190456Y-75110484D01*
X171355532Y-75260971D01*
X171545450Y-75378563D01*
X171753741Y-75459255D01*
X171790429Y-75466113D01*
X171839717Y-75490656D01*
X171868703Y-75537470D01*
X171868703Y-75592530D01*
X171839717Y-75639344D01*
X171790429Y-75663886D01*
X171783571Y-75665168D01*
X171753742Y-75670744D01*
X171545449Y-75751437D01*
X171472851Y-75796388D01*
X171355532Y-75869029D01*
X171355530Y-75869030D01*
X171355531Y-75869030D01*
X171190457Y-76019514D01*
X171055842Y-76197774D01*
X170956276Y-76397727D01*
X170895145Y-76612580D01*
X170874536Y-76835000D01*
X170895145Y-77057419D01*
X170956276Y-77272272D01*
X171042678Y-77445788D01*
X171055843Y-77472227D01*
X171190456Y-77650484D01*
X171355532Y-77800971D01*
X171545450Y-77918563D01*
X171753741Y-77999255D01*
X171790429Y-78006113D01*
X171839717Y-78030656D01*
X171868703Y-78077470D01*
X171868703Y-78132530D01*
X171839717Y-78179344D01*
X171790429Y-78203886D01*
X171783571Y-78205168D01*
X171753742Y-78210744D01*
X171545449Y-78291437D01*
X171472851Y-78336388D01*
X171355532Y-78409029D01*
X171355530Y-78409030D01*
X171355531Y-78409030D01*
X171190457Y-78559514D01*
X171055842Y-78737774D01*
X170956276Y-78937727D01*
X170895145Y-79152580D01*
X170874536Y-79375000D01*
X170895145Y-79597419D01*
X170956276Y-79812272D01*
X171041051Y-79982521D01*
X171051079Y-80037570D01*
X171030145Y-80089461D01*
X170984725Y-80122141D01*
X170928871Y-80125500D01*
X170879863Y-80098498D01*
X160942044Y-70160679D01*
X160934527Y-70152268D01*
X160925461Y-70140900D01*
X160912560Y-70124722D01*
X160892194Y-70110837D01*
X160866954Y-70093628D01*
X160863887Y-70091452D01*
X160816351Y-70056369D01*
X160808601Y-70052456D01*
X160752174Y-70035051D01*
X160748602Y-70033876D01*
X160692810Y-70014354D01*
X160684250Y-70012900D01*
X160680359Y-70012900D01*
X160625182Y-70012900D01*
X160621421Y-70012830D01*
X160562355Y-70010620D01*
X160545042Y-70012900D01*
X157954854Y-70012900D01*
X157901895Y-69997832D01*
X157864800Y-69957141D01*
X157854683Y-69903017D01*
X157870945Y-69861040D01*
X157870002Y-69860571D01*
X157973723Y-69652272D01*
X157973724Y-69652270D01*
X158034854Y-69437422D01*
X158055464Y-69215000D01*
X158034854Y-68992578D01*
X157973724Y-68777730D01*
X157874157Y-68577773D01*
X157739544Y-68399516D01*
X157574468Y-68249029D01*
X157384550Y-68131437D01*
X157176259Y-68050745D01*
X157176258Y-68050744D01*
X157176256Y-68050744D01*
X157150522Y-68045934D01*
X157139570Y-68043886D01*
X157090282Y-68019344D01*
X157061296Y-67972531D01*
X157061296Y-67917469D01*
X157090282Y-67870656D01*
X157139570Y-67846113D01*
X157176259Y-67839255D01*
X157384550Y-67758563D01*
X157574468Y-67640971D01*
X157739544Y-67490484D01*
X157874157Y-67312227D01*
X157973724Y-67112270D01*
X158034854Y-66897422D01*
X158055464Y-66675000D01*
X158034854Y-66452578D01*
X157973724Y-66237730D01*
X157970991Y-66232242D01*
X157897664Y-66084981D01*
X157874157Y-66037773D01*
X157739544Y-65859516D01*
X157574468Y-65709029D01*
X157384550Y-65591437D01*
X157176259Y-65510745D01*
X157176258Y-65510744D01*
X157176256Y-65510744D01*
X157150522Y-65505934D01*
X157139570Y-65503886D01*
X157090282Y-65479344D01*
X157061296Y-65432531D01*
X157061296Y-65377469D01*
X157090282Y-65330656D01*
X157139570Y-65306113D01*
X157176259Y-65299255D01*
X157384550Y-65218563D01*
X157574468Y-65100971D01*
X157739544Y-64950484D01*
X157874157Y-64772227D01*
X157973724Y-64572270D01*
X158034854Y-64357422D01*
X158055464Y-64135000D01*
X158034854Y-63912578D01*
X157973724Y-63697730D01*
X157972550Y-63695373D01*
X157916815Y-63583441D01*
X157874157Y-63497773D01*
X157739544Y-63319516D01*
X157574468Y-63169029D01*
X157384550Y-63051437D01*
X157252399Y-63000241D01*
X157204245Y-62961031D01*
X157188288Y-62901015D01*
X157210611Y-62843065D01*
X157262707Y-62809263D01*
X157284802Y-62803343D01*
X157487946Y-62708616D01*
X157606320Y-62625728D01*
X156845000Y-61864408D01*
X156083678Y-62625728D01*
X156202053Y-62708616D01*
X156405201Y-62803344D01*
X156427293Y-62809264D01*
X156479388Y-62843065D01*
X156501711Y-62901016D01*
X156485754Y-62961031D01*
X156437598Y-63000243D01*
X156305449Y-63051437D01*
X156232851Y-63096388D01*
X156115532Y-63169029D01*
X156115530Y-63169030D01*
X156115531Y-63169030D01*
X155950457Y-63319514D01*
X155815840Y-63497776D01*
X155773185Y-63583441D01*
X155736091Y-63624132D01*
X155683132Y-63639200D01*
X155004113Y-63639200D01*
X154982730Y-63636901D01*
X154975734Y-63635379D01*
X154975733Y-63635379D01*
X154954451Y-63636901D01*
X154925883Y-63638944D01*
X154918708Y-63639200D01*
X154904543Y-63639200D01*
X154893374Y-63640805D01*
X154890526Y-63641215D01*
X154883391Y-63641982D01*
X154833525Y-63645549D01*
X154826806Y-63648055D01*
X154805976Y-63653371D01*
X154798881Y-63654391D01*
X154753401Y-63675160D01*
X154746771Y-63677906D01*
X154699942Y-63695373D01*
X154694199Y-63699672D01*
X154675720Y-63710636D01*
X154669195Y-63713616D01*
X154631414Y-63746353D01*
X154625828Y-63750855D01*
X154614486Y-63759345D01*
X154604460Y-63769371D01*
X154599211Y-63774258D01*
X154561445Y-63806983D01*
X154557572Y-63813010D01*
X154544081Y-63829750D01*
X152439998Y-65933835D01*
X152407361Y-65955642D01*
X152368863Y-65963300D01*
X152313584Y-65963300D01*
X152145774Y-66004662D01*
X152145772Y-66004662D01*
X152145772Y-66004663D01*
X151992737Y-66084981D01*
X151863371Y-66199589D01*
X151840833Y-66232242D01*
X151765193Y-66341827D01*
X151719691Y-66461807D01*
X151703905Y-66503431D01*
X151683072Y-66675000D01*
X151703905Y-66846568D01*
X151703905Y-66846569D01*
X151703906Y-66846572D01*
X151765193Y-67008173D01*
X151765194Y-67008174D01*
X151863371Y-67150410D01*
X151992737Y-67265018D01*
X151992739Y-67265019D01*
X152145774Y-67345338D01*
X152313584Y-67386700D01*
X152486414Y-67386700D01*
X152486416Y-67386700D01*
X152654226Y-67345338D01*
X152807261Y-67265019D01*
X152936628Y-67150411D01*
X153034807Y-67008173D01*
X153096094Y-66846572D01*
X153114921Y-66691517D01*
X153124339Y-66659609D01*
X153143649Y-66632516D01*
X155115901Y-64660265D01*
X155148539Y-64638458D01*
X155187037Y-64630800D01*
X155683132Y-64630800D01*
X155736091Y-64645868D01*
X155773185Y-64686559D01*
X155815840Y-64772223D01*
X155815842Y-64772225D01*
X155815843Y-64772227D01*
X155950456Y-64950484D01*
X156115532Y-65100971D01*
X156305450Y-65218563D01*
X156513741Y-65299255D01*
X156550429Y-65306113D01*
X156599717Y-65330656D01*
X156628703Y-65377470D01*
X156628703Y-65432530D01*
X156599717Y-65479344D01*
X156550429Y-65503886D01*
X156543571Y-65505168D01*
X156513742Y-65510744D01*
X156305449Y-65591437D01*
X156262234Y-65618195D01*
X156115532Y-65709029D01*
X156115530Y-65709030D01*
X156115531Y-65709030D01*
X155950457Y-65859514D01*
X155815842Y-66037774D01*
X155716276Y-66237727D01*
X155655145Y-66452580D01*
X155634536Y-66675000D01*
X155655145Y-66897419D01*
X155716276Y-67112272D01*
X155792336Y-67265019D01*
X155815843Y-67312227D01*
X155950456Y-67490484D01*
X156115532Y-67640971D01*
X156305450Y-67758563D01*
X156513741Y-67839255D01*
X156550429Y-67846113D01*
X156599717Y-67870656D01*
X156628703Y-67917470D01*
X156628703Y-67972530D01*
X156599717Y-68019344D01*
X156550429Y-68043886D01*
X156543571Y-68045168D01*
X156513742Y-68050744D01*
X156305449Y-68131437D01*
X156187856Y-68204247D01*
X156115532Y-68249029D01*
X156115530Y-68249030D01*
X156115531Y-68249030D01*
X155950457Y-68399514D01*
X155815842Y-68577774D01*
X155716276Y-68777727D01*
X155655145Y-68992580D01*
X155634536Y-69214999D01*
X155655145Y-69437419D01*
X155716276Y-69652272D01*
X155819998Y-69860571D01*
X155819054Y-69861040D01*
X155835317Y-69903017D01*
X155825200Y-69957141D01*
X155788105Y-69997832D01*
X155735146Y-70012900D01*
X153850935Y-70012900D01*
X153812437Y-70005242D01*
X153779800Y-69983435D01*
X150972316Y-67175951D01*
X150946081Y-67130104D01*
X150946691Y-67077288D01*
X151000494Y-66888195D01*
X151020249Y-66675000D01*
X151000494Y-66461805D01*
X150941900Y-66255870D01*
X150941899Y-66255868D01*
X150941898Y-66255864D01*
X150846466Y-66064211D01*
X150809899Y-66015788D01*
X150717434Y-65893345D01*
X150680325Y-65859516D01*
X150559204Y-65749099D01*
X150377170Y-65636390D01*
X150377167Y-65636388D01*
X150212589Y-65572630D01*
X150177515Y-65559042D01*
X149967054Y-65519700D01*
X149752946Y-65519700D01*
X149542484Y-65559042D01*
X149427423Y-65603617D01*
X149342833Y-65636388D01*
X149342831Y-65636389D01*
X149342829Y-65636390D01*
X149160795Y-65749099D01*
X149002567Y-65893343D01*
X148873533Y-66064211D01*
X148778101Y-66255864D01*
X148719505Y-66461807D01*
X148699751Y-66674999D01*
X148719505Y-66888192D01*
X148778101Y-67094135D01*
X148873533Y-67285788D01*
X149002567Y-67456656D01*
X149160795Y-67600900D01*
X149225510Y-67640969D01*
X149342833Y-67713612D01*
X149542483Y-67790957D01*
X149752946Y-67830300D01*
X149967054Y-67830300D01*
X150177517Y-67790957D01*
X150251230Y-67762399D01*
X150308335Y-67757772D01*
X150358706Y-67785071D01*
X153303359Y-70729724D01*
X153310876Y-70738136D01*
X153332839Y-70765677D01*
X153378431Y-70796761D01*
X153381499Y-70798937D01*
X153422369Y-70829101D01*
X153429051Y-70834032D01*
X153436791Y-70837939D01*
X153440510Y-70839086D01*
X153440513Y-70839088D01*
X153493274Y-70855362D01*
X153496796Y-70856521D01*
X153548922Y-70874762D01*
X153548926Y-70874762D01*
X153552604Y-70876049D01*
X153561139Y-70877500D01*
X153565041Y-70877500D01*
X153620218Y-70877500D01*
X153623979Y-70877570D01*
X153679149Y-70879634D01*
X153679151Y-70879633D01*
X153683044Y-70879779D01*
X153700358Y-70877500D01*
X155795257Y-70877500D01*
X155848216Y-70892568D01*
X155885310Y-70933259D01*
X155895428Y-70987382D01*
X155875538Y-71038722D01*
X155815843Y-71117773D01*
X155815842Y-71117774D01*
X155815842Y-71117775D01*
X155716276Y-71317727D01*
X155655145Y-71532580D01*
X155634536Y-71754999D01*
X155655145Y-71977419D01*
X155716276Y-72192272D01*
X155802678Y-72365788D01*
X155815843Y-72392227D01*
X155950456Y-72570484D01*
X156115532Y-72720971D01*
X156305450Y-72838563D01*
X156513741Y-72919255D01*
X156550429Y-72926113D01*
X156599717Y-72950656D01*
X156628703Y-72997470D01*
X156628703Y-73052530D01*
X156599717Y-73099344D01*
X156550429Y-73123886D01*
X156543571Y-73125168D01*
X156513742Y-73130744D01*
X156305449Y-73211437D01*
X156232851Y-73256388D01*
X156115532Y-73329029D01*
X156115530Y-73329030D01*
X156115531Y-73329030D01*
X155950457Y-73479514D01*
X155815842Y-73657774D01*
X155716276Y-73857727D01*
X155655145Y-74072580D01*
X155634536Y-74294999D01*
X155655145Y-74517419D01*
X155716276Y-74732272D01*
X155802678Y-74905788D01*
X155815843Y-74932227D01*
X155950456Y-75110484D01*
X156115532Y-75260971D01*
X156305450Y-75378563D01*
X156513741Y-75459255D01*
X156550429Y-75466113D01*
X156599717Y-75490656D01*
X156628703Y-75537470D01*
X156628703Y-75592530D01*
X156599717Y-75639344D01*
X156550429Y-75663886D01*
X156543571Y-75665168D01*
X156513742Y-75670744D01*
X156305449Y-75751437D01*
X156232851Y-75796388D01*
X156115532Y-75869029D01*
X156115530Y-75869030D01*
X156115531Y-75869030D01*
X155950457Y-76019514D01*
X155815842Y-76197774D01*
X155716276Y-76397727D01*
X155655145Y-76612580D01*
X155634536Y-76835000D01*
X155655145Y-77057419D01*
X155716276Y-77272272D01*
X155802678Y-77445788D01*
X155815843Y-77472227D01*
X155950456Y-77650484D01*
X156115532Y-77800971D01*
X156305450Y-77918563D01*
X156513741Y-77999255D01*
X156550429Y-78006113D01*
X156599717Y-78030656D01*
X156628703Y-78077470D01*
X156628703Y-78132530D01*
X156599717Y-78179344D01*
X156550429Y-78203886D01*
X156543571Y-78205168D01*
X156513742Y-78210744D01*
X156305449Y-78291437D01*
X156232851Y-78336388D01*
X156115532Y-78409029D01*
X156115530Y-78409030D01*
X156115531Y-78409030D01*
X155950457Y-78559514D01*
X155815842Y-78737774D01*
X155716276Y-78937727D01*
X155655145Y-79152580D01*
X155634536Y-79375000D01*
X155655145Y-79597419D01*
X155716276Y-79812272D01*
X155801051Y-79982521D01*
X155815843Y-80012227D01*
X155925126Y-80156942D01*
X155941885Y-80179134D01*
X155960764Y-80222799D01*
X155957470Y-80270256D01*
X155932739Y-80310894D01*
X155911362Y-80332271D01*
X155908655Y-80334879D01*
X155865341Y-80375070D01*
X155854712Y-80388921D01*
X150358706Y-85884927D01*
X150308336Y-85912226D01*
X150251231Y-85907599D01*
X150177517Y-85879043D01*
X149967054Y-85839700D01*
X149752946Y-85839700D01*
X149542484Y-85879042D01*
X149458862Y-85911438D01*
X149342833Y-85956388D01*
X149342831Y-85956389D01*
X149342829Y-85956390D01*
X149164058Y-86067079D01*
X149113423Y-86082120D01*
X149062147Y-86069433D01*
X149024368Y-86032516D01*
X149010500Y-85981547D01*
X149010500Y-85468453D01*
X149024368Y-85417484D01*
X149062147Y-85380567D01*
X149113423Y-85367880D01*
X149164058Y-85382921D01*
X149262637Y-85443957D01*
X149342833Y-85493612D01*
X149542483Y-85570957D01*
X149752946Y-85610300D01*
X149967054Y-85610300D01*
X150177517Y-85570957D01*
X150377167Y-85493612D01*
X150559206Y-85380899D01*
X150717434Y-85236655D01*
X150846464Y-85065792D01*
X150846466Y-85065788D01*
X150941898Y-84874135D01*
X150941898Y-84874132D01*
X150941900Y-84874130D01*
X151000494Y-84668195D01*
X151020249Y-84455000D01*
X151000494Y-84241805D01*
X150941900Y-84035870D01*
X150941899Y-84035868D01*
X150941898Y-84035864D01*
X150846466Y-83844211D01*
X150819985Y-83809144D01*
X150717434Y-83673345D01*
X150680325Y-83639516D01*
X150559204Y-83529099D01*
X150405857Y-83434152D01*
X150377167Y-83416388D01*
X150196508Y-83346400D01*
X150177515Y-83339042D01*
X149967054Y-83299700D01*
X149752946Y-83299700D01*
X149542484Y-83339042D01*
X149439247Y-83379037D01*
X149342833Y-83416388D01*
X149342831Y-83416389D01*
X149342829Y-83416390D01*
X149164058Y-83527079D01*
X149113423Y-83542120D01*
X149062147Y-83529433D01*
X149024368Y-83492516D01*
X149010500Y-83441547D01*
X149010500Y-83417535D01*
X149018158Y-83379037D01*
X149039965Y-83346400D01*
X149107075Y-83279290D01*
X149361294Y-83025069D01*
X149411663Y-82997772D01*
X149468766Y-83002398D01*
X149542483Y-83030957D01*
X149752946Y-83070300D01*
X149967054Y-83070300D01*
X150177517Y-83030957D01*
X150377167Y-82953612D01*
X150559206Y-82840899D01*
X150717434Y-82696655D01*
X150846464Y-82525792D01*
X150873267Y-82471964D01*
X150941898Y-82334135D01*
X150941898Y-82334132D01*
X150941900Y-82334130D01*
X151000494Y-82128195D01*
X151020249Y-81915000D01*
X151000494Y-81701805D01*
X150941900Y-81495870D01*
X150941899Y-81495868D01*
X150941898Y-81495864D01*
X150846466Y-81304211D01*
X150796862Y-81238525D01*
X150717434Y-81133345D01*
X150680325Y-81099516D01*
X150559204Y-80989099D01*
X150377170Y-80876390D01*
X150377167Y-80876388D01*
X150212589Y-80812630D01*
X150177515Y-80799042D01*
X149967054Y-80759700D01*
X149752946Y-80759700D01*
X149542484Y-80799042D01*
X149427423Y-80843617D01*
X149342833Y-80876388D01*
X149342831Y-80876389D01*
X149342829Y-80876390D01*
X149160795Y-80989099D01*
X149002567Y-81133343D01*
X148873533Y-81304211D01*
X148778101Y-81495864D01*
X148719505Y-81701807D01*
X148699751Y-81915000D01*
X148719505Y-82128194D01*
X148773307Y-82317286D01*
X148773917Y-82370104D01*
X148747682Y-82415951D01*
X148696129Y-82467505D01*
X148593979Y-82569656D01*
X148559035Y-82604600D01*
X148507526Y-82632132D01*
X148449402Y-82626407D01*
X148404254Y-82589355D01*
X148387300Y-82533465D01*
X148387300Y-79374999D01*
X148699751Y-79374999D01*
X148719505Y-79588192D01*
X148778101Y-79794135D01*
X148873533Y-79985788D01*
X148873535Y-79985791D01*
X148873536Y-79985792D01*
X148951823Y-80089461D01*
X149002567Y-80156656D01*
X149160795Y-80300900D01*
X149215674Y-80334879D01*
X149342833Y-80413612D01*
X149542483Y-80490957D01*
X149752946Y-80530300D01*
X149967054Y-80530300D01*
X150177517Y-80490957D01*
X150377167Y-80413612D01*
X150559206Y-80300899D01*
X150717434Y-80156655D01*
X150846464Y-79985792D01*
X150870247Y-79938029D01*
X150941898Y-79794135D01*
X150941898Y-79794132D01*
X150941900Y-79794130D01*
X151000494Y-79588195D01*
X151020249Y-79375000D01*
X151000494Y-79161805D01*
X150941900Y-78955870D01*
X150941899Y-78955868D01*
X150941898Y-78955864D01*
X150846466Y-78764211D01*
X150820645Y-78730018D01*
X150717434Y-78593345D01*
X150680325Y-78559516D01*
X150559204Y-78449099D01*
X150377170Y-78336390D01*
X150377167Y-78336388D01*
X150206833Y-78270400D01*
X150177515Y-78259042D01*
X149967054Y-78219700D01*
X149752946Y-78219700D01*
X149542484Y-78259042D01*
X149454982Y-78292941D01*
X149342833Y-78336388D01*
X149342831Y-78336389D01*
X149342829Y-78336390D01*
X149160795Y-78449099D01*
X149002567Y-78593343D01*
X148873533Y-78764211D01*
X148778101Y-78955864D01*
X148719505Y-79161807D01*
X148699751Y-79374999D01*
X148387300Y-79374999D01*
X148387300Y-78960735D01*
X148394958Y-78922237D01*
X148416765Y-78889600D01*
X148647643Y-78658722D01*
X149361294Y-77945069D01*
X149411663Y-77917772D01*
X149468766Y-77922398D01*
X149542483Y-77950957D01*
X149752946Y-77990300D01*
X149967054Y-77990300D01*
X150177517Y-77950957D01*
X150377167Y-77873612D01*
X150559206Y-77760899D01*
X150717434Y-77616655D01*
X150846464Y-77445792D01*
X150901909Y-77334443D01*
X150941898Y-77254135D01*
X150941898Y-77254132D01*
X150941900Y-77254130D01*
X151000494Y-77048195D01*
X151020249Y-76835000D01*
X151000494Y-76621805D01*
X150941900Y-76415870D01*
X150941899Y-76415868D01*
X150941898Y-76415864D01*
X150846466Y-76224211D01*
X150750560Y-76097211D01*
X150717434Y-76053345D01*
X150717432Y-76053343D01*
X150699573Y-76037062D01*
X150697237Y-76033090D01*
X150693046Y-76031112D01*
X150559206Y-75909101D01*
X150559204Y-75909099D01*
X150377170Y-75796390D01*
X150377167Y-75796388D01*
X150219812Y-75735428D01*
X150177515Y-75719042D01*
X149967054Y-75679700D01*
X149752946Y-75679700D01*
X149542484Y-75719042D01*
X149427423Y-75763617D01*
X149342833Y-75796388D01*
X149342831Y-75796389D01*
X149342829Y-75796390D01*
X149160795Y-75909099D01*
X149002567Y-76053343D01*
X148873533Y-76224211D01*
X148778101Y-76415864D01*
X148719505Y-76621807D01*
X148699751Y-76835000D01*
X148719505Y-77048194D01*
X148773307Y-77237286D01*
X148773917Y-77290104D01*
X148747682Y-77335951D01*
X147670473Y-78413160D01*
X147662063Y-78420676D01*
X147634521Y-78442640D01*
X147603423Y-78488252D01*
X147601247Y-78491318D01*
X147566175Y-78538839D01*
X147562257Y-78546599D01*
X147544851Y-78603026D01*
X147543677Y-78606594D01*
X147524155Y-78662389D01*
X147522700Y-78670954D01*
X147522700Y-78730018D01*
X147522630Y-78733779D01*
X147521630Y-78760507D01*
X147515853Y-78776439D01*
X147518270Y-78780383D01*
X147519270Y-78784114D01*
X147522700Y-78810158D01*
X147522700Y-92703679D01*
X147522067Y-92714944D01*
X147521067Y-92723818D01*
X147511994Y-92744400D01*
X147330454Y-92744400D01*
X147320500Y-92712553D01*
X147320500Y-78806427D01*
X147328151Y-78780596D01*
X147320500Y-78756746D01*
X147320500Y-74294999D01*
X148699751Y-74294999D01*
X148719505Y-74508192D01*
X148778101Y-74714135D01*
X148873533Y-74905788D01*
X148873535Y-74905791D01*
X148873536Y-74905792D01*
X149002413Y-75076453D01*
X149002567Y-75076656D01*
X149160795Y-75220900D01*
X149225510Y-75260969D01*
X149342833Y-75333612D01*
X149542483Y-75410957D01*
X149752946Y-75450300D01*
X149967054Y-75450300D01*
X150177517Y-75410957D01*
X150251230Y-75382399D01*
X150308335Y-75377772D01*
X150358706Y-75405071D01*
X150803159Y-75849524D01*
X150810677Y-75857937D01*
X150832637Y-75885475D01*
X150832638Y-75885475D01*
X150832640Y-75885478D01*
X150878257Y-75916578D01*
X150881300Y-75918738D01*
X150928851Y-75953832D01*
X150936591Y-75957739D01*
X150940310Y-75958886D01*
X150940313Y-75958888D01*
X150993074Y-75975162D01*
X150996596Y-75976321D01*
X151048722Y-75994562D01*
X151048726Y-75994562D01*
X151052404Y-75995849D01*
X151060939Y-75997300D01*
X151064841Y-75997300D01*
X151120018Y-75997300D01*
X151123779Y-75997370D01*
X151178949Y-75999434D01*
X151178951Y-75999433D01*
X151182844Y-75999579D01*
X151200158Y-75997300D01*
X153280486Y-75997300D01*
X153312823Y-76002639D01*
X153341726Y-76018088D01*
X153387937Y-76053547D01*
X153523993Y-76109904D01*
X153670000Y-76129126D01*
X153816007Y-76109904D01*
X153952063Y-76053547D01*
X153952063Y-76053546D01*
X153952065Y-76053546D01*
X154068897Y-75963897D01*
X154158546Y-75847065D01*
X154158547Y-75847063D01*
X154214904Y-75711007D01*
X154234126Y-75565000D01*
X154214904Y-75418993D01*
X154158547Y-75282937D01*
X154158546Y-75282934D01*
X154068897Y-75166102D01*
X153952065Y-75076453D01*
X153816005Y-75020095D01*
X153670000Y-75000873D01*
X153523994Y-75020095D01*
X153387937Y-75076452D01*
X153353371Y-75102975D01*
X153343588Y-75110484D01*
X153341728Y-75111911D01*
X153312823Y-75127361D01*
X153280486Y-75132700D01*
X151350734Y-75132700D01*
X151312236Y-75125042D01*
X151279599Y-75103235D01*
X150972316Y-74795952D01*
X150946081Y-74750105D01*
X150946691Y-74697288D01*
X151000494Y-74508195D01*
X151020249Y-74295000D01*
X151000494Y-74081805D01*
X150941900Y-73875870D01*
X150941899Y-73875868D01*
X150941898Y-73875864D01*
X150846466Y-73684211D01*
X150750560Y-73557211D01*
X150717434Y-73513345D01*
X150680325Y-73479516D01*
X150559204Y-73369099D01*
X150377170Y-73256390D01*
X150377167Y-73256388D01*
X150219812Y-73195428D01*
X150177515Y-73179042D01*
X149967054Y-73139700D01*
X149752946Y-73139700D01*
X149542484Y-73179042D01*
X149427423Y-73223617D01*
X149342833Y-73256388D01*
X149342831Y-73256389D01*
X149342829Y-73256390D01*
X149160795Y-73369099D01*
X149002567Y-73513343D01*
X148873533Y-73684211D01*
X148778101Y-73875864D01*
X148719505Y-74081807D01*
X148699751Y-74294999D01*
X147320500Y-74294999D01*
X147320500Y-71754999D01*
X148699751Y-71754999D01*
X148719505Y-71968192D01*
X148778101Y-72174135D01*
X148873533Y-72365788D01*
X149002567Y-72536656D01*
X149160795Y-72680900D01*
X149225510Y-72720969D01*
X149342833Y-72793612D01*
X149542483Y-72870957D01*
X149752946Y-72910300D01*
X149967054Y-72910300D01*
X150177517Y-72870957D01*
X150377167Y-72793612D01*
X150559206Y-72680899D01*
X150717434Y-72536655D01*
X150846464Y-72365792D01*
X150846466Y-72365788D01*
X150941898Y-72174135D01*
X150941898Y-72174132D01*
X150941900Y-72174130D01*
X151000494Y-71968195D01*
X151020249Y-71755000D01*
X151000494Y-71541805D01*
X150941900Y-71335870D01*
X150941899Y-71335868D01*
X150941898Y-71335864D01*
X150846466Y-71144211D01*
X150846464Y-71144208D01*
X150717434Y-70973345D01*
X150680325Y-70939516D01*
X150559204Y-70829099D01*
X150405154Y-70733717D01*
X150377167Y-70716388D01*
X150219812Y-70655428D01*
X150177515Y-70639042D01*
X149967054Y-70599700D01*
X149752946Y-70599700D01*
X149542484Y-70639042D01*
X149427423Y-70683617D01*
X149342833Y-70716388D01*
X149342831Y-70716389D01*
X149342829Y-70716390D01*
X149160795Y-70829099D01*
X149002567Y-70973343D01*
X148873533Y-71144211D01*
X148778101Y-71335864D01*
X148719505Y-71541807D01*
X148699751Y-71754999D01*
X147320500Y-71754999D01*
X147320500Y-69215000D01*
X148699751Y-69215000D01*
X148719505Y-69428192D01*
X148778101Y-69634135D01*
X148873533Y-69825788D01*
X148873535Y-69825791D01*
X148873536Y-69825792D01*
X148992691Y-69983579D01*
X149002567Y-69996656D01*
X149160795Y-70140900D01*
X149192740Y-70160679D01*
X149342833Y-70253612D01*
X149542483Y-70330957D01*
X149752946Y-70370300D01*
X149967054Y-70370300D01*
X150177517Y-70330957D01*
X150377167Y-70253612D01*
X150559206Y-70140899D01*
X150717434Y-69996655D01*
X150846464Y-69825792D01*
X150846466Y-69825788D01*
X150941898Y-69634135D01*
X150941898Y-69634132D01*
X150941900Y-69634130D01*
X151000494Y-69428195D01*
X151020249Y-69215000D01*
X151000494Y-69001805D01*
X150941900Y-68795870D01*
X150941899Y-68795868D01*
X150941898Y-68795864D01*
X150846466Y-68604211D01*
X150717432Y-68433343D01*
X150559204Y-68289099D01*
X150377170Y-68176390D01*
X150377167Y-68176388D01*
X150219812Y-68115428D01*
X150177515Y-68099042D01*
X149967054Y-68059700D01*
X149752946Y-68059700D01*
X149542484Y-68099042D01*
X149427423Y-68143617D01*
X149342833Y-68176388D01*
X149342831Y-68176389D01*
X149342829Y-68176390D01*
X149160795Y-68289099D01*
X149002567Y-68433343D01*
X148873533Y-68604211D01*
X148778101Y-68795864D01*
X148719505Y-69001807D01*
X148699751Y-69215000D01*
X147320500Y-69215000D01*
X147320500Y-64135000D01*
X148699751Y-64135000D01*
X148719505Y-64348192D01*
X148778101Y-64554135D01*
X148873533Y-64745788D01*
X148873535Y-64745791D01*
X148873536Y-64745792D01*
X148951823Y-64849461D01*
X149002567Y-64916656D01*
X149160795Y-65060900D01*
X149225510Y-65100969D01*
X149342833Y-65173612D01*
X149542483Y-65250957D01*
X149752946Y-65290300D01*
X149967054Y-65290300D01*
X150177517Y-65250957D01*
X150377167Y-65173612D01*
X150559206Y-65060899D01*
X150717434Y-64916655D01*
X150846464Y-64745792D01*
X150848093Y-64742521D01*
X150941898Y-64554135D01*
X150941898Y-64554132D01*
X150941900Y-64554130D01*
X151000494Y-64348195D01*
X151020249Y-64135000D01*
X151000494Y-63921805D01*
X150941900Y-63715870D01*
X150941899Y-63715868D01*
X150941898Y-63715864D01*
X150846466Y-63524211D01*
X150717432Y-63353343D01*
X150559204Y-63209099D01*
X150377170Y-63096390D01*
X150377167Y-63096388D01*
X150219812Y-63035428D01*
X150177515Y-63019042D01*
X149967054Y-62979700D01*
X149752946Y-62979700D01*
X149542484Y-63019042D01*
X149427423Y-63063617D01*
X149342833Y-63096388D01*
X149342831Y-63096389D01*
X149342829Y-63096390D01*
X149160795Y-63209099D01*
X149002567Y-63353343D01*
X148873533Y-63524211D01*
X148778101Y-63715864D01*
X148719505Y-63921807D01*
X148699751Y-64135000D01*
X147320500Y-64135000D01*
X147320500Y-61595000D01*
X148699751Y-61595000D01*
X148719505Y-61808192D01*
X148778101Y-62014135D01*
X148873533Y-62205788D01*
X149002567Y-62376656D01*
X149160795Y-62520900D01*
X149225510Y-62560969D01*
X149342833Y-62633612D01*
X149542483Y-62710957D01*
X149752946Y-62750300D01*
X149967054Y-62750300D01*
X150177517Y-62710957D01*
X150377167Y-62633612D01*
X150559206Y-62520899D01*
X150717434Y-62376655D01*
X150846464Y-62205792D01*
X150846466Y-62205788D01*
X150941898Y-62014135D01*
X150941898Y-62014132D01*
X150941900Y-62014130D01*
X151000494Y-61808195D01*
X151020249Y-61595000D01*
X155559107Y-61595000D01*
X155578642Y-61818293D01*
X155636655Y-62034799D01*
X155731383Y-62237946D01*
X155814270Y-62356320D01*
X156575592Y-61595000D01*
X157114408Y-61595000D01*
X157875728Y-62356320D01*
X157958616Y-62237946D01*
X158053344Y-62034798D01*
X158057852Y-62017977D01*
X158083670Y-61973098D01*
X158128388Y-61947003D01*
X158180162Y-61946604D01*
X158225277Y-61972007D01*
X158251784Y-62016483D01*
X158256276Y-62032271D01*
X158257535Y-62034799D01*
X158355843Y-62232227D01*
X158490456Y-62410484D01*
X158655532Y-62560971D01*
X158845450Y-62678563D01*
X159053741Y-62759255D01*
X159200121Y-62786618D01*
X159273311Y-62800300D01*
X159273312Y-62800300D01*
X159496688Y-62800300D01*
X159496689Y-62800300D01*
X159551580Y-62790038D01*
X159716259Y-62759255D01*
X159924550Y-62678563D01*
X160114468Y-62560971D01*
X160279544Y-62410484D01*
X160414157Y-62232227D01*
X160513724Y-62032270D01*
X160574854Y-61817422D01*
X160595464Y-61595000D01*
X160574854Y-61372578D01*
X160513724Y-61157730D01*
X160512464Y-61155200D01*
X160464146Y-61058165D01*
X160414157Y-60957773D01*
X160279544Y-60779516D01*
X160114468Y-60629029D01*
X159924550Y-60511437D01*
X159716259Y-60430745D01*
X159716258Y-60430744D01*
X159716256Y-60430744D01*
X159496689Y-60389700D01*
X159496688Y-60389700D01*
X159273312Y-60389700D01*
X159273311Y-60389700D01*
X159053743Y-60430744D01*
X158845449Y-60511437D01*
X158727856Y-60584247D01*
X158655532Y-60629029D01*
X158655530Y-60629030D01*
X158655531Y-60629030D01*
X158490457Y-60779514D01*
X158355842Y-60957774D01*
X158256274Y-61157732D01*
X158251783Y-61173517D01*
X158225277Y-61217992D01*
X158180162Y-61243395D01*
X158128388Y-61242996D01*
X158083670Y-61216901D01*
X158057852Y-61172023D01*
X158053344Y-61155200D01*
X157958614Y-60952051D01*
X157875728Y-60833678D01*
X157114408Y-61595000D01*
X156575592Y-61595000D01*
X155814270Y-60833678D01*
X155814269Y-60833678D01*
X155731385Y-60952051D01*
X155636655Y-61155200D01*
X155578642Y-61371706D01*
X155559107Y-61595000D01*
X151020249Y-61595000D01*
X151000494Y-61381805D01*
X150941900Y-61175870D01*
X150941899Y-61175868D01*
X150941898Y-61175864D01*
X150846466Y-60984211D01*
X150822180Y-60952051D01*
X150717434Y-60813345D01*
X150680325Y-60779516D01*
X150559204Y-60669099D01*
X150377170Y-60556390D01*
X150377167Y-60556388D01*
X150219812Y-60495428D01*
X150177515Y-60479042D01*
X149967054Y-60439700D01*
X149752946Y-60439700D01*
X149542484Y-60479042D01*
X149427423Y-60523617D01*
X149342833Y-60556388D01*
X149342831Y-60556389D01*
X149342829Y-60556390D01*
X149160795Y-60669099D01*
X149002567Y-60813343D01*
X148873533Y-60984211D01*
X148778101Y-61175864D01*
X148719505Y-61381807D01*
X148699751Y-61595000D01*
X147320500Y-61595000D01*
X147320500Y-56394580D01*
X178549700Y-56394580D01*
X178552661Y-56420108D01*
X178578408Y-56478419D01*
X178598766Y-56524525D01*
X178679475Y-56605234D01*
X178783891Y-56651338D01*
X178809421Y-56654300D01*
X180600578Y-56654299D01*
X180600580Y-56654299D01*
X180617598Y-56652325D01*
X180626109Y-56651338D01*
X180730525Y-56605234D01*
X180811234Y-56524525D01*
X180857338Y-56420109D01*
X180860300Y-56394579D01*
X180860299Y-54603422D01*
X180857338Y-54577891D01*
X180811234Y-54473475D01*
X180730525Y-54392766D01*
X180626109Y-54346662D01*
X180600579Y-54343700D01*
X180600577Y-54343700D01*
X178809419Y-54343700D01*
X178783891Y-54346661D01*
X178679475Y-54392766D01*
X178598766Y-54473475D01*
X178552662Y-54577890D01*
X178549700Y-54603422D01*
X178549700Y-56394580D01*
X147320500Y-56394580D01*
X147320500Y-53440600D01*
X147333978Y-53390300D01*
X147370800Y-53353478D01*
X147421100Y-53340000D01*
X149840626Y-53340000D01*
X149877987Y-53347194D01*
G37*
%TD.AperFunction*%
%TD*%
M02*
