%TF.GenerationSoftware,KiCad,Pcbnew,7.0.1-0*%
%TF.CreationDate,2024-02-20T17:42:23-05:00*%
%TF.ProjectId,OBDBajaUC,4f424442-616a-4615-9543-2e6b69636164,rev?*%
%TF.SameCoordinates,Original*%
%TF.FileFunction,Soldermask,Bot*%
%TF.FilePolarity,Negative*%
%FSLAX46Y46*%
G04 Gerber Fmt 4.6, Leading zero omitted, Abs format (unit mm)*
G04 Created by KiCad (PCBNEW 7.0.1-0) date 2024-02-20 17:42:23*
%MOMM*%
%LPD*%
G01*
G04 APERTURE LIST*
%ADD10C,3.200000*%
%ADD11R,1.700000X1.700000*%
%ADD12O,1.700000X1.700000*%
%ADD13C,1.800000*%
G04 APERTURE END LIST*
D10*
%TO.C,MH3*%
X179705000Y-50165000D03*
%TD*%
D11*
%TO.C,J1*%
X179705000Y-55499000D03*
%TD*%
%TO.C,J4*%
X179705000Y-95631000D03*
%TD*%
%TO.C,J3*%
X179705000Y-69088000D03*
D12*
X179705000Y-71628000D03*
X179705000Y-74168000D03*
X179705000Y-76708000D03*
X179705000Y-79248000D03*
X179705000Y-81788000D03*
X179705000Y-84328000D03*
X179705000Y-86868000D03*
X179705000Y-89408000D03*
X179705000Y-91948000D03*
%TD*%
D10*
%TO.C,MH4*%
X179705000Y-100965000D03*
%TD*%
D11*
%TO.C,J6*%
X179705000Y-59182000D03*
%TD*%
%TO.C,J7*%
X170815000Y-94996000D03*
D12*
X168275000Y-94996000D03*
X165735000Y-94996000D03*
X163195000Y-94996000D03*
X160655000Y-94996000D03*
X158115000Y-94996000D03*
%TD*%
D11*
%TO.C,J2*%
X179705000Y-62865000D03*
D12*
X179705000Y-65405000D03*
%TD*%
D10*
%TO.C,MH1*%
X151130000Y-50165000D03*
%TD*%
D11*
%TO.C,J5*%
X149860000Y-92075000D03*
D12*
X149860000Y-89535000D03*
X149860000Y-86995000D03*
X149860000Y-84455000D03*
X149860000Y-81915000D03*
X149860000Y-79375000D03*
X149860000Y-76835000D03*
X149860000Y-74295000D03*
X149860000Y-71755000D03*
X149860000Y-69215000D03*
X149860000Y-66675000D03*
X149860000Y-64135000D03*
X149860000Y-61595000D03*
X149860000Y-59055000D03*
%TD*%
D10*
%TO.C,MH2*%
X151130000Y-100965000D03*
%TD*%
D13*
%TO.C,U1*%
X172085000Y-59055000D03*
X172085000Y-61595000D03*
X172085000Y-64135000D03*
X172085000Y-66675000D03*
X172085000Y-69215000D03*
X172085000Y-71755000D03*
X172085000Y-74295000D03*
X172085000Y-76835000D03*
X172085000Y-79375000D03*
X172085000Y-81915000D03*
X172085000Y-84455000D03*
X172085000Y-86995000D03*
X172085000Y-89535000D03*
X172085000Y-92075000D03*
X169545000Y-92075000D03*
X167005000Y-92075000D03*
X164465000Y-92075000D03*
X161925000Y-92075000D03*
X159385000Y-92075000D03*
X156845000Y-92075000D03*
X156845000Y-89535000D03*
X156845000Y-86995000D03*
X156845000Y-84455000D03*
X156845000Y-81915000D03*
X156845000Y-79375000D03*
X156845000Y-76835000D03*
X156845000Y-74295000D03*
X156845000Y-71755000D03*
X156845000Y-69215000D03*
X156845000Y-66675000D03*
X156845000Y-64135000D03*
X156845000Y-61595000D03*
X156845000Y-59055000D03*
X159385000Y-61595000D03*
X159385000Y-86995000D03*
X159385000Y-84455000D03*
X161925000Y-86995000D03*
X161925000Y-84455000D03*
X164465000Y-86995000D03*
X164465000Y-84455000D03*
X167005000Y-86995000D03*
X167005000Y-84455000D03*
X169545000Y-86995000D03*
X169545000Y-84455000D03*
%TD*%
M02*
