%TF.GenerationSoftware,KiCad,Pcbnew,7.0.1-0*%
%TF.CreationDate,2023-11-23T13:33:31-05:00*%
%TF.ProjectId,OBDBajaInterface,4f424442-616a-4614-996e-746572666163,rev?*%
%TF.SameCoordinates,Original*%
%TF.FileFunction,Drillmap*%
%TF.FilePolarity,Positive*%
%FSLAX45Y45*%
G04 Gerber Fmt 4.5, Leading zero omitted, Abs format (unit mm)*
G04 Created by KiCad (PCBNEW 7.0.1-0) date 2023-11-23 13:33:31*
%MOMM*%
%LPD*%
G01*
G04 APERTURE LIST*
%ADD10C,0.100000*%
%ADD11C,0.200000*%
%ADD12C,0.320000*%
G04 APERTURE END LIST*
D10*
X8636000Y-4953000D02*
X8636000Y-9398000D01*
X12217400Y-4953000D02*
X8636000Y-4953000D01*
X12217400Y-4953000D02*
X12217400Y-4635500D01*
X12217400Y-9715500D02*
G75*
G03*
X12979400Y-9715500I381000J0D01*
G01*
X12979400Y-9398000D02*
X12979400Y-4953000D01*
X12979400Y-4953000D02*
X12979400Y-4635500D01*
X12979400Y-4635500D02*
G75*
G03*
X12217400Y-4635500I-381000J0D01*
G01*
X12979400Y-9398000D02*
X12979400Y-9715500D01*
X8636000Y-9398000D02*
X12217400Y-9398000D01*
X12217400Y-9398000D02*
X12217400Y-9715500D01*
D11*
D12*
X12438400Y-4475500D02*
X12758400Y-4795500D01*
X12758400Y-4475500D02*
X12438400Y-4795500D01*
X12438400Y-9555500D02*
X12758400Y-9875500D01*
X12758400Y-9555500D02*
X12438400Y-9875500D01*
D11*
X8878619Y-10414024D02*
X8878619Y-10214024D01*
X8878619Y-10214024D02*
X8926238Y-10214024D01*
X8926238Y-10214024D02*
X8954810Y-10223548D01*
X8954810Y-10223548D02*
X8973857Y-10242595D01*
X8973857Y-10242595D02*
X8983381Y-10261643D01*
X8983381Y-10261643D02*
X8992905Y-10299738D01*
X8992905Y-10299738D02*
X8992905Y-10328310D01*
X8992905Y-10328310D02*
X8983381Y-10366405D01*
X8983381Y-10366405D02*
X8973857Y-10385452D01*
X8973857Y-10385452D02*
X8954810Y-10404500D01*
X8954810Y-10404500D02*
X8926238Y-10414024D01*
X8926238Y-10414024D02*
X8878619Y-10414024D01*
X9078619Y-10414024D02*
X9078619Y-10280690D01*
X9078619Y-10318786D02*
X9088143Y-10299738D01*
X9088143Y-10299738D02*
X9097667Y-10290214D01*
X9097667Y-10290214D02*
X9116714Y-10280690D01*
X9116714Y-10280690D02*
X9135762Y-10280690D01*
X9202429Y-10414024D02*
X9202429Y-10280690D01*
X9202429Y-10214024D02*
X9192905Y-10223548D01*
X9192905Y-10223548D02*
X9202429Y-10233071D01*
X9202429Y-10233071D02*
X9211952Y-10223548D01*
X9211952Y-10223548D02*
X9202429Y-10214024D01*
X9202429Y-10214024D02*
X9202429Y-10233071D01*
X9326238Y-10414024D02*
X9307190Y-10404500D01*
X9307190Y-10404500D02*
X9297667Y-10385452D01*
X9297667Y-10385452D02*
X9297667Y-10214024D01*
X9431000Y-10414024D02*
X9411952Y-10404500D01*
X9411952Y-10404500D02*
X9402429Y-10385452D01*
X9402429Y-10385452D02*
X9402429Y-10214024D01*
X9659571Y-10414024D02*
X9659571Y-10214024D01*
X9659571Y-10214024D02*
X9726238Y-10356881D01*
X9726238Y-10356881D02*
X9792905Y-10214024D01*
X9792905Y-10214024D02*
X9792905Y-10414024D01*
X9973857Y-10414024D02*
X9973857Y-10309262D01*
X9973857Y-10309262D02*
X9964333Y-10290214D01*
X9964333Y-10290214D02*
X9945286Y-10280690D01*
X9945286Y-10280690D02*
X9907190Y-10280690D01*
X9907190Y-10280690D02*
X9888143Y-10290214D01*
X9973857Y-10404500D02*
X9954810Y-10414024D01*
X9954810Y-10414024D02*
X9907190Y-10414024D01*
X9907190Y-10414024D02*
X9888143Y-10404500D01*
X9888143Y-10404500D02*
X9878619Y-10385452D01*
X9878619Y-10385452D02*
X9878619Y-10366405D01*
X9878619Y-10366405D02*
X9888143Y-10347357D01*
X9888143Y-10347357D02*
X9907190Y-10337833D01*
X9907190Y-10337833D02*
X9954810Y-10337833D01*
X9954810Y-10337833D02*
X9973857Y-10328310D01*
X10069095Y-10280690D02*
X10069095Y-10480690D01*
X10069095Y-10290214D02*
X10088143Y-10280690D01*
X10088143Y-10280690D02*
X10126238Y-10280690D01*
X10126238Y-10280690D02*
X10145286Y-10290214D01*
X10145286Y-10290214D02*
X10154810Y-10299738D01*
X10154810Y-10299738D02*
X10164333Y-10318786D01*
X10164333Y-10318786D02*
X10164333Y-10375929D01*
X10164333Y-10375929D02*
X10154810Y-10394976D01*
X10154810Y-10394976D02*
X10145286Y-10404500D01*
X10145286Y-10404500D02*
X10126238Y-10414024D01*
X10126238Y-10414024D02*
X10088143Y-10414024D01*
X10088143Y-10414024D02*
X10069095Y-10404500D01*
X10250048Y-10394976D02*
X10259571Y-10404500D01*
X10259571Y-10404500D02*
X10250048Y-10414024D01*
X10250048Y-10414024D02*
X10240524Y-10404500D01*
X10240524Y-10404500D02*
X10250048Y-10394976D01*
X10250048Y-10394976D02*
X10250048Y-10414024D01*
X10250048Y-10290214D02*
X10259571Y-10299738D01*
X10259571Y-10299738D02*
X10250048Y-10309262D01*
X10250048Y-10309262D02*
X10240524Y-10299738D01*
X10240524Y-10299738D02*
X10250048Y-10290214D01*
X10250048Y-10290214D02*
X10250048Y-10309262D01*
X8431000Y-10641500D02*
X8631000Y-10841500D01*
X8631000Y-10641500D02*
X8431000Y-10841500D01*
X8859571Y-10634024D02*
X8983381Y-10634024D01*
X8983381Y-10634024D02*
X8916714Y-10710214D01*
X8916714Y-10710214D02*
X8945286Y-10710214D01*
X8945286Y-10710214D02*
X8964333Y-10719738D01*
X8964333Y-10719738D02*
X8973857Y-10729262D01*
X8973857Y-10729262D02*
X8983381Y-10748310D01*
X8983381Y-10748310D02*
X8983381Y-10795929D01*
X8983381Y-10795929D02*
X8973857Y-10814976D01*
X8973857Y-10814976D02*
X8964333Y-10824500D01*
X8964333Y-10824500D02*
X8945286Y-10834024D01*
X8945286Y-10834024D02*
X8888143Y-10834024D01*
X8888143Y-10834024D02*
X8869095Y-10824500D01*
X8869095Y-10824500D02*
X8859571Y-10814976D01*
X9069095Y-10814976D02*
X9078619Y-10824500D01*
X9078619Y-10824500D02*
X9069095Y-10834024D01*
X9069095Y-10834024D02*
X9059571Y-10824500D01*
X9059571Y-10824500D02*
X9069095Y-10814976D01*
X9069095Y-10814976D02*
X9069095Y-10834024D01*
X9154810Y-10653071D02*
X9164333Y-10643548D01*
X9164333Y-10643548D02*
X9183381Y-10634024D01*
X9183381Y-10634024D02*
X9231000Y-10634024D01*
X9231000Y-10634024D02*
X9250048Y-10643548D01*
X9250048Y-10643548D02*
X9259571Y-10653071D01*
X9259571Y-10653071D02*
X9269095Y-10672119D01*
X9269095Y-10672119D02*
X9269095Y-10691167D01*
X9269095Y-10691167D02*
X9259571Y-10719738D01*
X9259571Y-10719738D02*
X9145286Y-10834024D01*
X9145286Y-10834024D02*
X9269095Y-10834024D01*
X9392905Y-10634024D02*
X9411952Y-10634024D01*
X9411952Y-10634024D02*
X9431000Y-10643548D01*
X9431000Y-10643548D02*
X9440524Y-10653071D01*
X9440524Y-10653071D02*
X9450048Y-10672119D01*
X9450048Y-10672119D02*
X9459571Y-10710214D01*
X9459571Y-10710214D02*
X9459571Y-10757833D01*
X9459571Y-10757833D02*
X9450048Y-10795929D01*
X9450048Y-10795929D02*
X9440524Y-10814976D01*
X9440524Y-10814976D02*
X9431000Y-10824500D01*
X9431000Y-10824500D02*
X9411952Y-10834024D01*
X9411952Y-10834024D02*
X9392905Y-10834024D01*
X9392905Y-10834024D02*
X9373857Y-10824500D01*
X9373857Y-10824500D02*
X9364333Y-10814976D01*
X9364333Y-10814976D02*
X9354810Y-10795929D01*
X9354810Y-10795929D02*
X9345286Y-10757833D01*
X9345286Y-10757833D02*
X9345286Y-10710214D01*
X9345286Y-10710214D02*
X9354810Y-10672119D01*
X9354810Y-10672119D02*
X9364333Y-10653071D01*
X9364333Y-10653071D02*
X9373857Y-10643548D01*
X9373857Y-10643548D02*
X9392905Y-10634024D01*
X9583381Y-10634024D02*
X9602429Y-10634024D01*
X9602429Y-10634024D02*
X9621476Y-10643548D01*
X9621476Y-10643548D02*
X9631000Y-10653071D01*
X9631000Y-10653071D02*
X9640524Y-10672119D01*
X9640524Y-10672119D02*
X9650048Y-10710214D01*
X9650048Y-10710214D02*
X9650048Y-10757833D01*
X9650048Y-10757833D02*
X9640524Y-10795929D01*
X9640524Y-10795929D02*
X9631000Y-10814976D01*
X9631000Y-10814976D02*
X9621476Y-10824500D01*
X9621476Y-10824500D02*
X9602429Y-10834024D01*
X9602429Y-10834024D02*
X9583381Y-10834024D01*
X9583381Y-10834024D02*
X9564333Y-10824500D01*
X9564333Y-10824500D02*
X9554810Y-10814976D01*
X9554810Y-10814976D02*
X9545286Y-10795929D01*
X9545286Y-10795929D02*
X9535762Y-10757833D01*
X9535762Y-10757833D02*
X9535762Y-10710214D01*
X9535762Y-10710214D02*
X9545286Y-10672119D01*
X9545286Y-10672119D02*
X9554810Y-10653071D01*
X9554810Y-10653071D02*
X9564333Y-10643548D01*
X9564333Y-10643548D02*
X9583381Y-10634024D01*
X9735762Y-10834024D02*
X9735762Y-10700690D01*
X9735762Y-10719738D02*
X9745286Y-10710214D01*
X9745286Y-10710214D02*
X9764333Y-10700690D01*
X9764333Y-10700690D02*
X9792905Y-10700690D01*
X9792905Y-10700690D02*
X9811952Y-10710214D01*
X9811952Y-10710214D02*
X9821476Y-10729262D01*
X9821476Y-10729262D02*
X9821476Y-10834024D01*
X9821476Y-10729262D02*
X9831000Y-10710214D01*
X9831000Y-10710214D02*
X9850048Y-10700690D01*
X9850048Y-10700690D02*
X9878619Y-10700690D01*
X9878619Y-10700690D02*
X9897667Y-10710214D01*
X9897667Y-10710214D02*
X9907191Y-10729262D01*
X9907191Y-10729262D02*
X9907191Y-10834024D01*
X10002429Y-10834024D02*
X10002429Y-10700690D01*
X10002429Y-10719738D02*
X10011952Y-10710214D01*
X10011952Y-10710214D02*
X10031000Y-10700690D01*
X10031000Y-10700690D02*
X10059572Y-10700690D01*
X10059572Y-10700690D02*
X10078619Y-10710214D01*
X10078619Y-10710214D02*
X10088143Y-10729262D01*
X10088143Y-10729262D02*
X10088143Y-10834024D01*
X10088143Y-10729262D02*
X10097667Y-10710214D01*
X10097667Y-10710214D02*
X10116714Y-10700690D01*
X10116714Y-10700690D02*
X10145286Y-10700690D01*
X10145286Y-10700690D02*
X10164333Y-10710214D01*
X10164333Y-10710214D02*
X10173857Y-10729262D01*
X10173857Y-10729262D02*
X10173857Y-10834024D01*
X10564333Y-10624500D02*
X10392905Y-10881643D01*
X10821476Y-10634024D02*
X10840524Y-10634024D01*
X10840524Y-10634024D02*
X10859572Y-10643548D01*
X10859572Y-10643548D02*
X10869095Y-10653071D01*
X10869095Y-10653071D02*
X10878619Y-10672119D01*
X10878619Y-10672119D02*
X10888143Y-10710214D01*
X10888143Y-10710214D02*
X10888143Y-10757833D01*
X10888143Y-10757833D02*
X10878619Y-10795929D01*
X10878619Y-10795929D02*
X10869095Y-10814976D01*
X10869095Y-10814976D02*
X10859572Y-10824500D01*
X10859572Y-10824500D02*
X10840524Y-10834024D01*
X10840524Y-10834024D02*
X10821476Y-10834024D01*
X10821476Y-10834024D02*
X10802429Y-10824500D01*
X10802429Y-10824500D02*
X10792905Y-10814976D01*
X10792905Y-10814976D02*
X10783381Y-10795929D01*
X10783381Y-10795929D02*
X10773857Y-10757833D01*
X10773857Y-10757833D02*
X10773857Y-10710214D01*
X10773857Y-10710214D02*
X10783381Y-10672119D01*
X10783381Y-10672119D02*
X10792905Y-10653071D01*
X10792905Y-10653071D02*
X10802429Y-10643548D01*
X10802429Y-10643548D02*
X10821476Y-10634024D01*
X10973857Y-10814976D02*
X10983381Y-10824500D01*
X10983381Y-10824500D02*
X10973857Y-10834024D01*
X10973857Y-10834024D02*
X10964334Y-10824500D01*
X10964334Y-10824500D02*
X10973857Y-10814976D01*
X10973857Y-10814976D02*
X10973857Y-10834024D01*
X11173857Y-10834024D02*
X11059572Y-10834024D01*
X11116714Y-10834024D02*
X11116714Y-10634024D01*
X11116714Y-10634024D02*
X11097667Y-10662595D01*
X11097667Y-10662595D02*
X11078619Y-10681643D01*
X11078619Y-10681643D02*
X11059572Y-10691167D01*
X11250048Y-10653071D02*
X11259572Y-10643548D01*
X11259572Y-10643548D02*
X11278619Y-10634024D01*
X11278619Y-10634024D02*
X11326238Y-10634024D01*
X11326238Y-10634024D02*
X11345286Y-10643548D01*
X11345286Y-10643548D02*
X11354810Y-10653071D01*
X11354810Y-10653071D02*
X11364333Y-10672119D01*
X11364333Y-10672119D02*
X11364333Y-10691167D01*
X11364333Y-10691167D02*
X11354810Y-10719738D01*
X11354810Y-10719738D02*
X11240524Y-10834024D01*
X11240524Y-10834024D02*
X11364333Y-10834024D01*
X11535762Y-10634024D02*
X11497667Y-10634024D01*
X11497667Y-10634024D02*
X11478619Y-10643548D01*
X11478619Y-10643548D02*
X11469095Y-10653071D01*
X11469095Y-10653071D02*
X11450048Y-10681643D01*
X11450048Y-10681643D02*
X11440524Y-10719738D01*
X11440524Y-10719738D02*
X11440524Y-10795929D01*
X11440524Y-10795929D02*
X11450048Y-10814976D01*
X11450048Y-10814976D02*
X11459572Y-10824500D01*
X11459572Y-10824500D02*
X11478619Y-10834024D01*
X11478619Y-10834024D02*
X11516714Y-10834024D01*
X11516714Y-10834024D02*
X11535762Y-10824500D01*
X11535762Y-10824500D02*
X11545286Y-10814976D01*
X11545286Y-10814976D02*
X11554810Y-10795929D01*
X11554810Y-10795929D02*
X11554810Y-10748310D01*
X11554810Y-10748310D02*
X11545286Y-10729262D01*
X11545286Y-10729262D02*
X11535762Y-10719738D01*
X11535762Y-10719738D02*
X11516714Y-10710214D01*
X11516714Y-10710214D02*
X11478619Y-10710214D01*
X11478619Y-10710214D02*
X11459572Y-10719738D01*
X11459572Y-10719738D02*
X11450048Y-10729262D01*
X11450048Y-10729262D02*
X11440524Y-10748310D01*
X11678619Y-10634024D02*
X11697667Y-10634024D01*
X11697667Y-10634024D02*
X11716714Y-10643548D01*
X11716714Y-10643548D02*
X11726238Y-10653071D01*
X11726238Y-10653071D02*
X11735762Y-10672119D01*
X11735762Y-10672119D02*
X11745286Y-10710214D01*
X11745286Y-10710214D02*
X11745286Y-10757833D01*
X11745286Y-10757833D02*
X11735762Y-10795929D01*
X11735762Y-10795929D02*
X11726238Y-10814976D01*
X11726238Y-10814976D02*
X11716714Y-10824500D01*
X11716714Y-10824500D02*
X11697667Y-10834024D01*
X11697667Y-10834024D02*
X11678619Y-10834024D01*
X11678619Y-10834024D02*
X11659572Y-10824500D01*
X11659572Y-10824500D02*
X11650048Y-10814976D01*
X11650048Y-10814976D02*
X11640524Y-10795929D01*
X11640524Y-10795929D02*
X11631000Y-10757833D01*
X11631000Y-10757833D02*
X11631000Y-10710214D01*
X11631000Y-10710214D02*
X11640524Y-10672119D01*
X11640524Y-10672119D02*
X11650048Y-10653071D01*
X11650048Y-10653071D02*
X11659572Y-10643548D01*
X11659572Y-10643548D02*
X11678619Y-10634024D01*
X11821476Y-10634024D02*
X11821476Y-10672119D01*
X11897667Y-10634024D02*
X11897667Y-10672119D01*
X12192905Y-10910214D02*
X12183381Y-10900690D01*
X12183381Y-10900690D02*
X12164334Y-10872119D01*
X12164334Y-10872119D02*
X12154810Y-10853071D01*
X12154810Y-10853071D02*
X12145286Y-10824500D01*
X12145286Y-10824500D02*
X12135762Y-10776881D01*
X12135762Y-10776881D02*
X12135762Y-10738786D01*
X12135762Y-10738786D02*
X12145286Y-10691167D01*
X12145286Y-10691167D02*
X12154810Y-10662595D01*
X12154810Y-10662595D02*
X12164334Y-10643548D01*
X12164334Y-10643548D02*
X12183381Y-10614976D01*
X12183381Y-10614976D02*
X12192905Y-10605452D01*
X12259572Y-10653071D02*
X12269095Y-10643548D01*
X12269095Y-10643548D02*
X12288143Y-10634024D01*
X12288143Y-10634024D02*
X12335762Y-10634024D01*
X12335762Y-10634024D02*
X12354810Y-10643548D01*
X12354810Y-10643548D02*
X12364334Y-10653071D01*
X12364334Y-10653071D02*
X12373857Y-10672119D01*
X12373857Y-10672119D02*
X12373857Y-10691167D01*
X12373857Y-10691167D02*
X12364334Y-10719738D01*
X12364334Y-10719738D02*
X12250048Y-10834024D01*
X12250048Y-10834024D02*
X12373857Y-10834024D01*
X12611953Y-10834024D02*
X12611953Y-10634024D01*
X12697667Y-10834024D02*
X12697667Y-10729262D01*
X12697667Y-10729262D02*
X12688143Y-10710214D01*
X12688143Y-10710214D02*
X12669096Y-10700690D01*
X12669096Y-10700690D02*
X12640524Y-10700690D01*
X12640524Y-10700690D02*
X12621476Y-10710214D01*
X12621476Y-10710214D02*
X12611953Y-10719738D01*
X12821476Y-10834024D02*
X12802429Y-10824500D01*
X12802429Y-10824500D02*
X12792905Y-10814976D01*
X12792905Y-10814976D02*
X12783381Y-10795929D01*
X12783381Y-10795929D02*
X12783381Y-10738786D01*
X12783381Y-10738786D02*
X12792905Y-10719738D01*
X12792905Y-10719738D02*
X12802429Y-10710214D01*
X12802429Y-10710214D02*
X12821476Y-10700690D01*
X12821476Y-10700690D02*
X12850048Y-10700690D01*
X12850048Y-10700690D02*
X12869096Y-10710214D01*
X12869096Y-10710214D02*
X12878619Y-10719738D01*
X12878619Y-10719738D02*
X12888143Y-10738786D01*
X12888143Y-10738786D02*
X12888143Y-10795929D01*
X12888143Y-10795929D02*
X12878619Y-10814976D01*
X12878619Y-10814976D02*
X12869096Y-10824500D01*
X12869096Y-10824500D02*
X12850048Y-10834024D01*
X12850048Y-10834024D02*
X12821476Y-10834024D01*
X13002429Y-10834024D02*
X12983381Y-10824500D01*
X12983381Y-10824500D02*
X12973857Y-10805452D01*
X12973857Y-10805452D02*
X12973857Y-10634024D01*
X13154810Y-10824500D02*
X13135762Y-10834024D01*
X13135762Y-10834024D02*
X13097667Y-10834024D01*
X13097667Y-10834024D02*
X13078619Y-10824500D01*
X13078619Y-10824500D02*
X13069096Y-10805452D01*
X13069096Y-10805452D02*
X13069096Y-10729262D01*
X13069096Y-10729262D02*
X13078619Y-10710214D01*
X13078619Y-10710214D02*
X13097667Y-10700690D01*
X13097667Y-10700690D02*
X13135762Y-10700690D01*
X13135762Y-10700690D02*
X13154810Y-10710214D01*
X13154810Y-10710214D02*
X13164334Y-10729262D01*
X13164334Y-10729262D02*
X13164334Y-10748310D01*
X13164334Y-10748310D02*
X13069096Y-10767357D01*
X13240524Y-10824500D02*
X13259572Y-10834024D01*
X13259572Y-10834024D02*
X13297667Y-10834024D01*
X13297667Y-10834024D02*
X13316715Y-10824500D01*
X13316715Y-10824500D02*
X13326238Y-10805452D01*
X13326238Y-10805452D02*
X13326238Y-10795929D01*
X13326238Y-10795929D02*
X13316715Y-10776881D01*
X13316715Y-10776881D02*
X13297667Y-10767357D01*
X13297667Y-10767357D02*
X13269096Y-10767357D01*
X13269096Y-10767357D02*
X13250048Y-10757833D01*
X13250048Y-10757833D02*
X13240524Y-10738786D01*
X13240524Y-10738786D02*
X13240524Y-10729262D01*
X13240524Y-10729262D02*
X13250048Y-10710214D01*
X13250048Y-10710214D02*
X13269096Y-10700690D01*
X13269096Y-10700690D02*
X13297667Y-10700690D01*
X13297667Y-10700690D02*
X13316715Y-10710214D01*
X13392905Y-10910214D02*
X13402429Y-10900690D01*
X13402429Y-10900690D02*
X13421477Y-10872119D01*
X13421477Y-10872119D02*
X13431000Y-10853071D01*
X13431000Y-10853071D02*
X13440524Y-10824500D01*
X13440524Y-10824500D02*
X13450048Y-10776881D01*
X13450048Y-10776881D02*
X13450048Y-10738786D01*
X13450048Y-10738786D02*
X13440524Y-10691167D01*
X13440524Y-10691167D02*
X13431000Y-10662595D01*
X13431000Y-10662595D02*
X13421477Y-10643548D01*
X13421477Y-10643548D02*
X13402429Y-10614976D01*
X13402429Y-10614976D02*
X13392905Y-10605452D01*
X13754810Y-10910214D02*
X13745286Y-10900690D01*
X13745286Y-10900690D02*
X13726238Y-10872119D01*
X13726238Y-10872119D02*
X13716715Y-10853071D01*
X13716715Y-10853071D02*
X13707191Y-10824500D01*
X13707191Y-10824500D02*
X13697667Y-10776881D01*
X13697667Y-10776881D02*
X13697667Y-10738786D01*
X13697667Y-10738786D02*
X13707191Y-10691167D01*
X13707191Y-10691167D02*
X13716715Y-10662595D01*
X13716715Y-10662595D02*
X13726238Y-10643548D01*
X13726238Y-10643548D02*
X13745286Y-10614976D01*
X13745286Y-10614976D02*
X13754810Y-10605452D01*
X13831000Y-10700690D02*
X13831000Y-10834024D01*
X13831000Y-10719738D02*
X13840524Y-10710214D01*
X13840524Y-10710214D02*
X13859572Y-10700690D01*
X13859572Y-10700690D02*
X13888143Y-10700690D01*
X13888143Y-10700690D02*
X13907191Y-10710214D01*
X13907191Y-10710214D02*
X13916715Y-10729262D01*
X13916715Y-10729262D02*
X13916715Y-10834024D01*
X14040524Y-10834024D02*
X14021477Y-10824500D01*
X14021477Y-10824500D02*
X14011953Y-10814976D01*
X14011953Y-10814976D02*
X14002429Y-10795929D01*
X14002429Y-10795929D02*
X14002429Y-10738786D01*
X14002429Y-10738786D02*
X14011953Y-10719738D01*
X14011953Y-10719738D02*
X14021477Y-10710214D01*
X14021477Y-10710214D02*
X14040524Y-10700690D01*
X14040524Y-10700690D02*
X14069096Y-10700690D01*
X14069096Y-10700690D02*
X14088143Y-10710214D01*
X14088143Y-10710214D02*
X14097667Y-10719738D01*
X14097667Y-10719738D02*
X14107191Y-10738786D01*
X14107191Y-10738786D02*
X14107191Y-10795929D01*
X14107191Y-10795929D02*
X14097667Y-10814976D01*
X14097667Y-10814976D02*
X14088143Y-10824500D01*
X14088143Y-10824500D02*
X14069096Y-10834024D01*
X14069096Y-10834024D02*
X14040524Y-10834024D01*
X14164334Y-10700690D02*
X14240524Y-10700690D01*
X14192905Y-10634024D02*
X14192905Y-10805452D01*
X14192905Y-10805452D02*
X14202429Y-10824500D01*
X14202429Y-10824500D02*
X14221477Y-10834024D01*
X14221477Y-10834024D02*
X14240524Y-10834024D01*
X14459572Y-10700690D02*
X14459572Y-10900690D01*
X14459572Y-10710214D02*
X14478619Y-10700690D01*
X14478619Y-10700690D02*
X14516715Y-10700690D01*
X14516715Y-10700690D02*
X14535762Y-10710214D01*
X14535762Y-10710214D02*
X14545286Y-10719738D01*
X14545286Y-10719738D02*
X14554810Y-10738786D01*
X14554810Y-10738786D02*
X14554810Y-10795929D01*
X14554810Y-10795929D02*
X14545286Y-10814976D01*
X14545286Y-10814976D02*
X14535762Y-10824500D01*
X14535762Y-10824500D02*
X14516715Y-10834024D01*
X14516715Y-10834024D02*
X14478619Y-10834024D01*
X14478619Y-10834024D02*
X14459572Y-10824500D01*
X14669096Y-10834024D02*
X14650048Y-10824500D01*
X14650048Y-10824500D02*
X14640524Y-10805452D01*
X14640524Y-10805452D02*
X14640524Y-10634024D01*
X14831000Y-10834024D02*
X14831000Y-10729262D01*
X14831000Y-10729262D02*
X14821477Y-10710214D01*
X14821477Y-10710214D02*
X14802429Y-10700690D01*
X14802429Y-10700690D02*
X14764334Y-10700690D01*
X14764334Y-10700690D02*
X14745286Y-10710214D01*
X14831000Y-10824500D02*
X14811953Y-10834024D01*
X14811953Y-10834024D02*
X14764334Y-10834024D01*
X14764334Y-10834024D02*
X14745286Y-10824500D01*
X14745286Y-10824500D02*
X14735762Y-10805452D01*
X14735762Y-10805452D02*
X14735762Y-10786405D01*
X14735762Y-10786405D02*
X14745286Y-10767357D01*
X14745286Y-10767357D02*
X14764334Y-10757833D01*
X14764334Y-10757833D02*
X14811953Y-10757833D01*
X14811953Y-10757833D02*
X14831000Y-10748310D01*
X14897667Y-10700690D02*
X14973858Y-10700690D01*
X14926239Y-10634024D02*
X14926239Y-10805452D01*
X14926239Y-10805452D02*
X14935762Y-10824500D01*
X14935762Y-10824500D02*
X14954810Y-10834024D01*
X14954810Y-10834024D02*
X14973858Y-10834024D01*
X15116715Y-10824500D02*
X15097667Y-10834024D01*
X15097667Y-10834024D02*
X15059572Y-10834024D01*
X15059572Y-10834024D02*
X15040524Y-10824500D01*
X15040524Y-10824500D02*
X15031000Y-10805452D01*
X15031000Y-10805452D02*
X15031000Y-10729262D01*
X15031000Y-10729262D02*
X15040524Y-10710214D01*
X15040524Y-10710214D02*
X15059572Y-10700690D01*
X15059572Y-10700690D02*
X15097667Y-10700690D01*
X15097667Y-10700690D02*
X15116715Y-10710214D01*
X15116715Y-10710214D02*
X15126239Y-10729262D01*
X15126239Y-10729262D02*
X15126239Y-10748310D01*
X15126239Y-10748310D02*
X15031000Y-10767357D01*
X15297667Y-10834024D02*
X15297667Y-10634024D01*
X15297667Y-10824500D02*
X15278620Y-10834024D01*
X15278620Y-10834024D02*
X15240524Y-10834024D01*
X15240524Y-10834024D02*
X15221477Y-10824500D01*
X15221477Y-10824500D02*
X15211953Y-10814976D01*
X15211953Y-10814976D02*
X15202429Y-10795929D01*
X15202429Y-10795929D02*
X15202429Y-10738786D01*
X15202429Y-10738786D02*
X15211953Y-10719738D01*
X15211953Y-10719738D02*
X15221477Y-10710214D01*
X15221477Y-10710214D02*
X15240524Y-10700690D01*
X15240524Y-10700690D02*
X15278620Y-10700690D01*
X15278620Y-10700690D02*
X15297667Y-10710214D01*
X15373858Y-10910214D02*
X15383381Y-10900690D01*
X15383381Y-10900690D02*
X15402429Y-10872119D01*
X15402429Y-10872119D02*
X15411953Y-10853071D01*
X15411953Y-10853071D02*
X15421477Y-10824500D01*
X15421477Y-10824500D02*
X15431000Y-10776881D01*
X15431000Y-10776881D02*
X15431000Y-10738786D01*
X15431000Y-10738786D02*
X15421477Y-10691167D01*
X15421477Y-10691167D02*
X15411953Y-10662595D01*
X15411953Y-10662595D02*
X15402429Y-10643548D01*
X15402429Y-10643548D02*
X15383381Y-10614976D01*
X15383381Y-10614976D02*
X15373858Y-10605452D01*
M02*
