%TF.GenerationSoftware,KiCad,Pcbnew,7.0.1-0*%
%TF.CreationDate,2023-11-23T13:33:13-05:00*%
%TF.ProjectId,OBDBajaInterface,4f424442-616a-4614-996e-746572666163,rev?*%
%TF.SameCoordinates,Original*%
%TF.FileFunction,Legend,Bot*%
%TF.FilePolarity,Positive*%
%FSLAX46Y46*%
G04 Gerber Fmt 4.6, Leading zero omitted, Abs format (unit mm)*
G04 Created by KiCad (PCBNEW 7.0.1-0) date 2023-11-23 13:33:13*
%MOMM*%
%LPD*%
G01*
G04 APERTURE LIST*
%ADD10C,0.127000*%
%ADD11C,0.150000*%
%ADD12C,0.120000*%
%ADD13R,1.700000X1.700000*%
%ADD14O,1.700000X1.700000*%
%ADD15C,3.200000*%
G04 APERTURE END LIST*
D10*
X86949069Y-84793666D02*
X87584069Y-84793666D01*
X87584069Y-84793666D02*
X87711069Y-84751333D01*
X87711069Y-84751333D02*
X87795736Y-84666666D01*
X87795736Y-84666666D02*
X87838069Y-84539666D01*
X87838069Y-84539666D02*
X87838069Y-84455000D01*
X87838069Y-85640333D02*
X87838069Y-85216999D01*
X87838069Y-85216999D02*
X86949069Y-85216999D01*
X87753402Y-86444666D02*
X87795736Y-86402333D01*
X87795736Y-86402333D02*
X87838069Y-86275333D01*
X87838069Y-86275333D02*
X87838069Y-86190666D01*
X87838069Y-86190666D02*
X87795736Y-86063666D01*
X87795736Y-86063666D02*
X87711069Y-85979000D01*
X87711069Y-85979000D02*
X87626402Y-85936666D01*
X87626402Y-85936666D02*
X87457069Y-85894333D01*
X87457069Y-85894333D02*
X87330069Y-85894333D01*
X87330069Y-85894333D02*
X87160736Y-85936666D01*
X87160736Y-85936666D02*
X87076069Y-85979000D01*
X87076069Y-85979000D02*
X86991402Y-86063666D01*
X86991402Y-86063666D02*
X86949069Y-86190666D01*
X86949069Y-86190666D02*
X86949069Y-86275333D01*
X86949069Y-86275333D02*
X86991402Y-86402333D01*
X86991402Y-86402333D02*
X87033736Y-86444666D01*
X86949069Y-87079666D02*
X87584069Y-87079666D01*
X87584069Y-87079666D02*
X87711069Y-87037333D01*
X87711069Y-87037333D02*
X87795736Y-86952666D01*
X87795736Y-86952666D02*
X87838069Y-86825666D01*
X87838069Y-86825666D02*
X87838069Y-86741000D01*
X87838069Y-87926333D02*
X87838069Y-87502999D01*
X87838069Y-87502999D02*
X86949069Y-87502999D01*
X87753402Y-88730666D02*
X87795736Y-88688333D01*
X87795736Y-88688333D02*
X87838069Y-88561333D01*
X87838069Y-88561333D02*
X87838069Y-88476666D01*
X87838069Y-88476666D02*
X87795736Y-88349666D01*
X87795736Y-88349666D02*
X87711069Y-88265000D01*
X87711069Y-88265000D02*
X87626402Y-88222666D01*
X87626402Y-88222666D02*
X87457069Y-88180333D01*
X87457069Y-88180333D02*
X87330069Y-88180333D01*
X87330069Y-88180333D02*
X87160736Y-88222666D01*
X87160736Y-88222666D02*
X87076069Y-88265000D01*
X87076069Y-88265000D02*
X86991402Y-88349666D01*
X86991402Y-88349666D02*
X86949069Y-88476666D01*
X86949069Y-88476666D02*
X86949069Y-88561333D01*
X86949069Y-88561333D02*
X86991402Y-88688333D01*
X86991402Y-88688333D02*
X87033736Y-88730666D01*
X86949069Y-89365666D02*
X87584069Y-89365666D01*
X87584069Y-89365666D02*
X87711069Y-89323333D01*
X87711069Y-89323333D02*
X87795736Y-89238666D01*
X87795736Y-89238666D02*
X87838069Y-89111666D01*
X87838069Y-89111666D02*
X87838069Y-89027000D01*
X87838069Y-90212333D02*
X87838069Y-89788999D01*
X87838069Y-89788999D02*
X86949069Y-89788999D01*
X87753402Y-91016666D02*
X87795736Y-90974333D01*
X87795736Y-90974333D02*
X87838069Y-90847333D01*
X87838069Y-90847333D02*
X87838069Y-90762666D01*
X87838069Y-90762666D02*
X87795736Y-90635666D01*
X87795736Y-90635666D02*
X87711069Y-90551000D01*
X87711069Y-90551000D02*
X87626402Y-90508666D01*
X87626402Y-90508666D02*
X87457069Y-90466333D01*
X87457069Y-90466333D02*
X87330069Y-90466333D01*
X87330069Y-90466333D02*
X87160736Y-90508666D01*
X87160736Y-90508666D02*
X87076069Y-90551000D01*
X87076069Y-90551000D02*
X86991402Y-90635666D01*
X86991402Y-90635666D02*
X86949069Y-90762666D01*
X86949069Y-90762666D02*
X86949069Y-90847333D01*
X86949069Y-90847333D02*
X86991402Y-90974333D01*
X86991402Y-90974333D02*
X87033736Y-91016666D01*
X86949069Y-91651666D02*
X87584069Y-91651666D01*
X87584069Y-91651666D02*
X87711069Y-91609333D01*
X87711069Y-91609333D02*
X87795736Y-91524666D01*
X87795736Y-91524666D02*
X87838069Y-91397666D01*
X87838069Y-91397666D02*
X87838069Y-91313000D01*
X87838069Y-92498333D02*
X87838069Y-92074999D01*
X87838069Y-92074999D02*
X86949069Y-92074999D01*
X87753402Y-93302666D02*
X87795736Y-93260333D01*
X87795736Y-93260333D02*
X87838069Y-93133333D01*
X87838069Y-93133333D02*
X87838069Y-93048666D01*
X87838069Y-93048666D02*
X87795736Y-92921666D01*
X87795736Y-92921666D02*
X87711069Y-92837000D01*
X87711069Y-92837000D02*
X87626402Y-92794666D01*
X87626402Y-92794666D02*
X87457069Y-92752333D01*
X87457069Y-92752333D02*
X87330069Y-92752333D01*
X87330069Y-92752333D02*
X87160736Y-92794666D01*
X87160736Y-92794666D02*
X87076069Y-92837000D01*
X87076069Y-92837000D02*
X86991402Y-92921666D01*
X86991402Y-92921666D02*
X86949069Y-93048666D01*
X86949069Y-93048666D02*
X86949069Y-93133333D01*
X86949069Y-93133333D02*
X86991402Y-93260333D01*
X86991402Y-93260333D02*
X87033736Y-93302666D01*
D11*
%TO.C,J16*%
X127555523Y-64994619D02*
X127555523Y-65708904D01*
X127555523Y-65708904D02*
X127603142Y-65851761D01*
X127603142Y-65851761D02*
X127698380Y-65947000D01*
X127698380Y-65947000D02*
X127841237Y-65994619D01*
X127841237Y-65994619D02*
X127936475Y-65994619D01*
X126555523Y-65994619D02*
X127126951Y-65994619D01*
X126841237Y-65994619D02*
X126841237Y-64994619D01*
X126841237Y-64994619D02*
X126936475Y-65137476D01*
X126936475Y-65137476D02*
X127031713Y-65232714D01*
X127031713Y-65232714D02*
X127126951Y-65280333D01*
X125698380Y-64994619D02*
X125888856Y-64994619D01*
X125888856Y-64994619D02*
X125984094Y-65042238D01*
X125984094Y-65042238D02*
X126031713Y-65089857D01*
X126031713Y-65089857D02*
X126126951Y-65232714D01*
X126126951Y-65232714D02*
X126174570Y-65423190D01*
X126174570Y-65423190D02*
X126174570Y-65804142D01*
X126174570Y-65804142D02*
X126126951Y-65899380D01*
X126126951Y-65899380D02*
X126079332Y-65947000D01*
X126079332Y-65947000D02*
X125984094Y-65994619D01*
X125984094Y-65994619D02*
X125793618Y-65994619D01*
X125793618Y-65994619D02*
X125698380Y-65947000D01*
X125698380Y-65947000D02*
X125650761Y-65899380D01*
X125650761Y-65899380D02*
X125603142Y-65804142D01*
X125603142Y-65804142D02*
X125603142Y-65566047D01*
X125603142Y-65566047D02*
X125650761Y-65470809D01*
X125650761Y-65470809D02*
X125698380Y-65423190D01*
X125698380Y-65423190D02*
X125793618Y-65375571D01*
X125793618Y-65375571D02*
X125984094Y-65375571D01*
X125984094Y-65375571D02*
X126079332Y-65423190D01*
X126079332Y-65423190D02*
X126126951Y-65470809D01*
X126126951Y-65470809D02*
X126174570Y-65566047D01*
D12*
X128076000Y-76895000D02*
X125416000Y-76895000D01*
X128076000Y-69215000D02*
X128076000Y-76895000D01*
X128076000Y-69215000D02*
X125416000Y-69215000D01*
X126746000Y-66615000D02*
X125416000Y-66615000D01*
X125416000Y-69215000D02*
X125416000Y-76895000D01*
X125416000Y-66615000D02*
X125416000Y-67945000D01*
%TD*%
%LPC*%
D13*
%TO.C,J8*%
X111140000Y-53340000D03*
D14*
X113680000Y-53340000D03*
X116220000Y-53340000D03*
%TD*%
D13*
%TO.C,J12*%
X107315000Y-90170000D03*
D14*
X104775000Y-90170000D03*
X102235000Y-90170000D03*
%TD*%
D13*
%TO.C,J10*%
X102235000Y-57150000D03*
D14*
X104775000Y-57150000D03*
X107315000Y-57150000D03*
%TD*%
D13*
%TO.C,J4*%
X89535000Y-51689000D03*
%TD*%
D15*
%TO.C,MH3*%
X125984000Y-46355000D03*
%TD*%
D13*
%TO.C,J5*%
X89535000Y-91821000D03*
%TD*%
D15*
%TO.C,MH4*%
X125984000Y-97155000D03*
%TD*%
D13*
%TO.C,J17*%
X122936000Y-67955000D03*
D14*
X122936000Y-70495000D03*
X122936000Y-73035000D03*
X122936000Y-75575000D03*
%TD*%
D13*
%TO.C,J11*%
X98425000Y-90170000D03*
D14*
X95885000Y-90170000D03*
X93345000Y-90170000D03*
%TD*%
D13*
%TO.C,J13*%
X116205000Y-90170000D03*
D14*
X113665000Y-90170000D03*
X111125000Y-90170000D03*
%TD*%
D13*
%TO.C,J14*%
X98425000Y-86360000D03*
D14*
X95885000Y-86360000D03*
X93345000Y-86360000D03*
%TD*%
D13*
%TO.C,J2*%
X89535000Y-65278000D03*
D14*
X89535000Y-67818000D03*
X89535000Y-70358000D03*
X89535000Y-72898000D03*
X89535000Y-75438000D03*
X89535000Y-77978000D03*
X89535000Y-80518000D03*
X89535000Y-83058000D03*
X89535000Y-85598000D03*
X89535000Y-88138000D03*
%TD*%
D13*
%TO.C,J15*%
X107315000Y-86360000D03*
D14*
X104775000Y-86360000D03*
X102235000Y-86360000D03*
%TD*%
D13*
%TO.C,J1*%
X89535000Y-59055000D03*
D14*
X89535000Y-61595000D03*
%TD*%
D13*
%TO.C,J7*%
X102235000Y-53340000D03*
D14*
X104775000Y-53340000D03*
X107315000Y-53340000D03*
%TD*%
D13*
%TO.C,J6*%
X93345000Y-53340000D03*
D14*
X95885000Y-53340000D03*
X98425000Y-53340000D03*
%TD*%
D13*
%TO.C,J19*%
X125800000Y-53985000D03*
D14*
X125800000Y-56525000D03*
X125800000Y-59065000D03*
X125800000Y-61605000D03*
%TD*%
D13*
%TO.C,J9*%
X93345000Y-57150000D03*
D14*
X95885000Y-57150000D03*
X98425000Y-57150000D03*
%TD*%
D13*
%TO.C,J18*%
X89535000Y-55372000D03*
%TD*%
%TO.C,J16*%
X126746000Y-67945000D03*
D14*
X126746000Y-70485000D03*
X126746000Y-73025000D03*
X126746000Y-75565000D03*
%TD*%
M02*
