%TF.GenerationSoftware,KiCad,Pcbnew,7.0.1-0*%
%TF.CreationDate,2023-11-23T13:33:13-05:00*%
%TF.ProjectId,OBDBajaInterface,4f424442-616a-4614-996e-746572666163,rev?*%
%TF.SameCoordinates,Original*%
%TF.FileFunction,Copper,L1,Top*%
%TF.FilePolarity,Positive*%
%FSLAX46Y46*%
G04 Gerber Fmt 4.6, Leading zero omitted, Abs format (unit mm)*
G04 Created by KiCad (PCBNEW 7.0.1-0) date 2023-11-23 13:33:13*
%MOMM*%
%LPD*%
G01*
G04 APERTURE LIST*
G04 Aperture macros list*
%AMRoundRect*
0 Rectangle with rounded corners*
0 $1 Rounding radius*
0 $2 $3 $4 $5 $6 $7 $8 $9 X,Y pos of 4 corners*
0 Add a 4 corners polygon primitive as box body*
4,1,4,$2,$3,$4,$5,$6,$7,$8,$9,$2,$3,0*
0 Add four circle primitives for the rounded corners*
1,1,$1+$1,$2,$3*
1,1,$1+$1,$4,$5*
1,1,$1+$1,$6,$7*
1,1,$1+$1,$8,$9*
0 Add four rect primitives between the rounded corners*
20,1,$1+$1,$2,$3,$4,$5,0*
20,1,$1+$1,$4,$5,$6,$7,0*
20,1,$1+$1,$6,$7,$8,$9,0*
20,1,$1+$1,$8,$9,$2,$3,0*%
G04 Aperture macros list end*
%TA.AperFunction,ComponentPad*%
%ADD10R,1.700000X1.700000*%
%TD*%
%TA.AperFunction,ComponentPad*%
%ADD11O,1.700000X1.700000*%
%TD*%
%TA.AperFunction,SMDPad,CuDef*%
%ADD12RoundRect,0.150000X0.587500X0.150000X-0.587500X0.150000X-0.587500X-0.150000X0.587500X-0.150000X0*%
%TD*%
%TA.AperFunction,SMDPad,CuDef*%
%ADD13RoundRect,0.250000X-0.475000X0.337500X-0.475000X-0.337500X0.475000X-0.337500X0.475000X0.337500X0*%
%TD*%
%TA.AperFunction,SMDPad,CuDef*%
%ADD14RoundRect,0.150000X-0.825000X-0.150000X0.825000X-0.150000X0.825000X0.150000X-0.825000X0.150000X0*%
%TD*%
%TA.AperFunction,SMDPad,CuDef*%
%ADD15RoundRect,0.250000X-0.450000X0.350000X-0.450000X-0.350000X0.450000X-0.350000X0.450000X0.350000X0*%
%TD*%
%TA.AperFunction,ViaPad*%
%ADD16C,0.762000*%
%TD*%
%TA.AperFunction,Conductor*%
%ADD17C,0.254000*%
%TD*%
%TA.AperFunction,Conductor*%
%ADD18C,0.381000*%
%TD*%
%TA.AperFunction,Conductor*%
%ADD19C,0.203200*%
%TD*%
G04 APERTURE END LIST*
D10*
%TO.P,J8,1,Pin_1*%
%TO.N,+5V*%
X111140000Y-53340000D03*
D11*
%TO.P,J8,2,Pin_2*%
%TO.N,/D5*%
X113680000Y-53340000D03*
%TO.P,J8,3,Pin_3*%
%TO.N,GND*%
X116220000Y-53340000D03*
%TD*%
D10*
%TO.P,J12,1,Pin_1*%
%TO.N,+5V*%
X107315000Y-90170000D03*
D11*
%TO.P,J12,2,Pin_2*%
%TO.N,/A1*%
X104775000Y-90170000D03*
%TO.P,J12,3,Pin_3*%
%TO.N,GND*%
X102235000Y-90170000D03*
%TD*%
D10*
%TO.P,J10,1,Pin_1*%
%TO.N,+5V*%
X102235000Y-57150000D03*
D11*
%TO.P,J10,2,Pin_2*%
%TO.N,/D7*%
X104775000Y-57150000D03*
%TO.P,J10,3,Pin_3*%
%TO.N,GND*%
X107315000Y-57150000D03*
%TD*%
D10*
%TO.P,J4,1,Pin_1*%
%TO.N,+5V*%
X89535000Y-51689000D03*
%TD*%
D12*
%TO.P,D1,1*%
%TO.N,/CAN_N*%
X122984500Y-61275000D03*
%TO.P,D1,2*%
%TO.N,/CAN_P*%
X122984500Y-59375000D03*
%TO.P,D1,3*%
%TO.N,GND*%
X121109500Y-60325000D03*
%TD*%
D10*
%TO.P,J5,1,Pin_1*%
%TO.N,GND*%
X89535000Y-91821000D03*
%TD*%
%TO.P,J17,1,Pin_1*%
%TO.N,/D7*%
X122936000Y-67955000D03*
D11*
%TO.P,J17,2,Pin_2*%
%TO.N,/D6*%
X122936000Y-70495000D03*
%TO.P,J17,3,Pin_3*%
%TO.N,/A3*%
X122936000Y-73035000D03*
%TO.P,J17,4,Pin_4*%
%TO.N,/A4*%
X122936000Y-75575000D03*
%TD*%
D10*
%TO.P,J11,1,Pin_1*%
%TO.N,+5V*%
X98425000Y-90170000D03*
D11*
%TO.P,J11,2,Pin_2*%
%TO.N,/A0*%
X95885000Y-90170000D03*
%TO.P,J11,3,Pin_3*%
%TO.N,GND*%
X93345000Y-90170000D03*
%TD*%
D10*
%TO.P,J13,1,Pin_1*%
%TO.N,+5V*%
X116205000Y-90170000D03*
D11*
%TO.P,J13,2,Pin_2*%
%TO.N,/A2*%
X113665000Y-90170000D03*
%TO.P,J13,3,Pin_3*%
%TO.N,GND*%
X111125000Y-90170000D03*
%TD*%
D10*
%TO.P,J14,1,Pin_1*%
%TO.N,+5V*%
X98425000Y-86360000D03*
D11*
%TO.P,J14,2,Pin_2*%
%TO.N,/A3*%
X95885000Y-86360000D03*
%TO.P,J14,3,Pin_3*%
%TO.N,GND*%
X93345000Y-86360000D03*
%TD*%
D13*
%TO.P,C2,1*%
%TO.N,+3.3V*%
X109347000Y-60938500D03*
%TO.P,C2,2*%
%TO.N,GND*%
X109347000Y-63013500D03*
%TD*%
D10*
%TO.P,J2,1,Pin_1*%
%TO.N,/D3*%
X89535000Y-65278000D03*
D11*
%TO.P,J2,2,Pin_2*%
%TO.N,/D4*%
X89535000Y-67818000D03*
%TO.P,J2,3,Pin_3*%
%TO.N,/D5*%
X89535000Y-70358000D03*
%TO.P,J2,4,Pin_4*%
%TO.N,/D6*%
X89535000Y-72898000D03*
%TO.P,J2,5,Pin_5*%
%TO.N,/D7*%
X89535000Y-75438000D03*
%TO.P,J2,6,Pin_6*%
%TO.N,/A4*%
X89535000Y-77978000D03*
%TO.P,J2,7,Pin_7*%
%TO.N,/A3*%
X89535000Y-80518000D03*
%TO.P,J2,8,Pin_8*%
%TO.N,/A2*%
X89535000Y-83058000D03*
%TO.P,J2,9,Pin_9*%
%TO.N,/A1*%
X89535000Y-85598000D03*
%TO.P,J2,10,Pin_10*%
%TO.N,/A0*%
X89535000Y-88138000D03*
%TD*%
D10*
%TO.P,J15,1,Pin_1*%
%TO.N,+5V*%
X107315000Y-86360000D03*
D11*
%TO.P,J15,2,Pin_2*%
%TO.N,/A4*%
X104775000Y-86360000D03*
%TO.P,J15,3,Pin_3*%
%TO.N,GND*%
X102235000Y-86360000D03*
%TD*%
D14*
%TO.P,U1,1,D*%
%TO.N,/CTX*%
X111571000Y-58420000D03*
%TO.P,U1,2,GND*%
%TO.N,GND*%
X111571000Y-59690000D03*
%TO.P,U1,3,VCC*%
%TO.N,+3.3V*%
X111571000Y-60960000D03*
%TO.P,U1,4,R*%
%TO.N,/CRX*%
X111571000Y-62230000D03*
%TO.P,U1,5,NC*%
%TO.N,unconnected-(U1-NC-Pad5)*%
X116521000Y-62230000D03*
%TO.P,U1,6,CANL*%
%TO.N,/CAN_N*%
X116521000Y-60960000D03*
%TO.P,U1,7,CANH*%
%TO.N,/CAN_P*%
X116521000Y-59690000D03*
%TO.P,U1,8,NC*%
%TO.N,unconnected-(U1-NC-Pad8)*%
X116521000Y-58420000D03*
%TD*%
D10*
%TO.P,J1,1,Pin_1*%
%TO.N,/CRX*%
X89535000Y-59055000D03*
D11*
%TO.P,J1,2,Pin_2*%
%TO.N,/CTX*%
X89535000Y-61595000D03*
%TD*%
D13*
%TO.P,C1,1*%
%TO.N,+3.3V*%
X107315000Y-60938500D03*
%TO.P,C1,2*%
%TO.N,GND*%
X107315000Y-63013500D03*
%TD*%
D10*
%TO.P,J7,1,Pin_1*%
%TO.N,+5V*%
X102235000Y-53340000D03*
D11*
%TO.P,J7,2,Pin_2*%
%TO.N,/D4*%
X104775000Y-53340000D03*
%TO.P,J7,3,Pin_3*%
%TO.N,GND*%
X107315000Y-53340000D03*
%TD*%
D10*
%TO.P,J6,1,Pin_1*%
%TO.N,+5V*%
X93345000Y-53340000D03*
D11*
%TO.P,J6,2,Pin_2*%
%TO.N,/D3*%
X95885000Y-53340000D03*
%TO.P,J6,3,Pin_3*%
%TO.N,GND*%
X98425000Y-53340000D03*
%TD*%
D15*
%TO.P,R1,1*%
%TO.N,/CAN_P*%
X118999000Y-59325000D03*
%TO.P,R1,2*%
%TO.N,/CAN_N*%
X118999000Y-61325000D03*
%TD*%
D10*
%TO.P,J19,1,Pin_1*%
%TO.N,+5V*%
X125800000Y-53985000D03*
D11*
%TO.P,J19,2,Pin_2*%
%TO.N,GND*%
X125800000Y-56525000D03*
%TO.P,J19,3,Pin_3*%
%TO.N,/CAN_P*%
X125800000Y-59065000D03*
%TO.P,J19,4,Pin_4*%
%TO.N,/CAN_N*%
X125800000Y-61605000D03*
%TD*%
D10*
%TO.P,J9,1,Pin_1*%
%TO.N,+5V*%
X93345000Y-57150000D03*
D11*
%TO.P,J9,2,Pin_2*%
%TO.N,/D6*%
X95885000Y-57150000D03*
%TO.P,J9,3,Pin_3*%
%TO.N,GND*%
X98425000Y-57150000D03*
%TD*%
D10*
%TO.P,J18,1,Pin_1*%
%TO.N,+3.3V*%
X89535000Y-55372000D03*
%TD*%
%TO.P,J16,1,Pin_1*%
%TO.N,/D7*%
X126746000Y-67945000D03*
D11*
%TO.P,J16,2,Pin_2*%
%TO.N,/D6*%
X126746000Y-70485000D03*
%TO.P,J16,3,Pin_3*%
%TO.N,/A3*%
X126746000Y-73025000D03*
%TO.P,J16,4,Pin_4*%
%TO.N,/A4*%
X126746000Y-75565000D03*
%TD*%
D16*
%TO.N,GND*%
X113284000Y-59690000D03*
X120269000Y-60325000D03*
%TD*%
D17*
%TO.N,/CRX*%
X89535000Y-59055000D02*
X109281895Y-59055000D01*
X114046000Y-60325000D02*
X112141000Y-62230000D01*
X110551895Y-57785000D02*
X112590105Y-57785000D01*
X112141000Y-62230000D02*
X111571000Y-62230000D01*
X109281895Y-59055000D02*
X110551895Y-57785000D01*
X112590105Y-57785000D02*
X114046000Y-59240895D01*
X114046000Y-59240895D02*
X114046000Y-60325000D01*
%TO.N,/CTX*%
X91186000Y-59944000D02*
X89535000Y-61595000D01*
X109039473Y-59944000D02*
X91186000Y-59944000D01*
X111571000Y-58420000D02*
X110563473Y-58420000D01*
X110563473Y-58420000D02*
X109039473Y-59944000D01*
%TO.N,/D6*%
X122936000Y-70495000D02*
X126736000Y-70495000D01*
X126736000Y-70495000D02*
X126746000Y-70485000D01*
%TO.N,/D7*%
X126736000Y-67955000D02*
X126746000Y-67945000D01*
X122936000Y-67955000D02*
X126736000Y-67955000D01*
%TO.N,/A3*%
X126736000Y-73035000D02*
X126746000Y-73025000D01*
X122936000Y-73035000D02*
X126736000Y-73035000D01*
%TO.N,/A4*%
X122936000Y-75575000D02*
X126736000Y-75575000D01*
X126736000Y-75575000D02*
X126746000Y-75565000D01*
D18*
%TO.N,+5V*%
X93345000Y-57150000D02*
X93345000Y-53340000D01*
X112434500Y-54634500D02*
X125150500Y-54634500D01*
X111140000Y-53340000D02*
X112434500Y-54634500D01*
X104267000Y-55118000D02*
X109362000Y-55118000D01*
X125150500Y-54634500D02*
X125800000Y-53985000D01*
X98425000Y-71579000D02*
X90370500Y-63524500D01*
X107315000Y-90170000D02*
X107315000Y-86360000D01*
X104799500Y-88875500D02*
X99719500Y-88875500D01*
X102235000Y-53340000D02*
X100940500Y-54634500D01*
X102235000Y-57150000D02*
X104267000Y-55118000D01*
X109362000Y-55118000D02*
X111140000Y-53340000D01*
X116205000Y-90170000D02*
X114910500Y-91464500D01*
X114910500Y-91464500D02*
X108609500Y-91464500D01*
X98425000Y-90170000D02*
X98425000Y-86360000D01*
X93345000Y-53340000D02*
X91186000Y-53340000D01*
X100940500Y-54634500D02*
X95860500Y-54634500D01*
X87605500Y-53618500D02*
X89535000Y-51689000D01*
X90370500Y-63524500D02*
X88735774Y-63524500D01*
X99719500Y-88875500D02*
X98425000Y-90170000D01*
X91186000Y-53340000D02*
X89535000Y-51689000D01*
X95860500Y-54634500D02*
X93345000Y-57150000D01*
X98425000Y-86360000D02*
X98425000Y-71579000D01*
X102235000Y-53340000D02*
X102235000Y-57150000D01*
X108609500Y-91464500D02*
X107315000Y-90170000D01*
X88735774Y-63524500D02*
X87605500Y-62394226D01*
X87605500Y-62394226D02*
X87605500Y-53618500D01*
X107315000Y-86360000D02*
X104799500Y-88875500D01*
%TO.N,GND*%
X107285000Y-57150000D02*
X107330000Y-57150000D01*
X111571000Y-59690000D02*
X113284000Y-59690000D01*
X121109500Y-60325000D02*
X120269000Y-60325000D01*
%TO.N,+3.3V*%
X105364000Y-62889500D02*
X88998800Y-62889500D01*
X111571000Y-60960000D02*
X109368500Y-60960000D01*
X88240500Y-56666500D02*
X89535000Y-55372000D01*
X109368500Y-60960000D02*
X109347000Y-60938500D01*
X88240500Y-62131200D02*
X88240500Y-56666500D01*
X107315000Y-60938500D02*
X105364000Y-62889500D01*
X88998800Y-62889500D02*
X88240500Y-62131200D01*
X109347000Y-60938500D02*
X107315000Y-60938500D01*
D19*
%TO.N,/CAN_N*%
X116521000Y-60960000D02*
X118634000Y-60960000D01*
X122934500Y-61325000D02*
X122984500Y-61275000D01*
X118634000Y-60960000D02*
X118999000Y-61325000D01*
X122984500Y-61275000D02*
X123314500Y-61605000D01*
X118999000Y-61325000D02*
X122934500Y-61325000D01*
X123314500Y-61605000D02*
X125800000Y-61605000D01*
%TO.N,/CAN_P*%
X122984500Y-59375000D02*
X123294500Y-59065000D01*
X118634000Y-59690000D02*
X118999000Y-59325000D01*
X118999000Y-59325000D02*
X122934500Y-59325000D01*
X123294500Y-59065000D02*
X125800000Y-59065000D01*
X122934500Y-59325000D02*
X122984500Y-59375000D01*
X116521000Y-59690000D02*
X118634000Y-59690000D01*
%TD*%
%TA.AperFunction,Conductor*%
%TO.N,GND*%
G36*
X112943030Y-58677447D02*
G01*
X113635035Y-59369452D01*
X113656842Y-59402089D01*
X113664500Y-59440587D01*
X113664500Y-60125308D01*
X113656842Y-60163806D01*
X113635035Y-60196443D01*
X112972235Y-60859242D01*
X112920726Y-60886774D01*
X112862602Y-60881049D01*
X112817454Y-60843997D01*
X112800500Y-60788107D01*
X112800500Y-60778169D01*
X112800500Y-60778166D01*
X112785498Y-60683445D01*
X112727326Y-60569277D01*
X112636723Y-60478674D01*
X112636720Y-60478672D01*
X112628414Y-60470366D01*
X112603156Y-60428020D01*
X112601054Y-60378757D01*
X112622614Y-60334414D01*
X112648092Y-60316105D01*
X112647677Y-60315558D01*
X112775004Y-60219004D01*
X112863203Y-60102694D01*
X112916752Y-59966902D01*
X112927000Y-59881572D01*
X112927000Y-59880500D01*
X110215001Y-59880500D01*
X110215001Y-59881571D01*
X110225247Y-59966903D01*
X110266170Y-60070676D01*
X110272169Y-60121836D01*
X110252058Y-60169259D01*
X110211111Y-60200511D01*
X110160063Y-60207399D01*
X110112299Y-60188116D01*
X110066267Y-60153658D01*
X109930342Y-60102960D01*
X109870255Y-60096500D01*
X109870252Y-60096500D01*
X109669364Y-60096500D01*
X109613474Y-60079546D01*
X109576422Y-60034398D01*
X109570697Y-59976274D01*
X109598229Y-59924765D01*
X110048112Y-59474882D01*
X110093210Y-59448845D01*
X110145284Y-59448845D01*
X110190382Y-59474882D01*
X110215000Y-59499500D01*
X112926999Y-59499500D01*
X112926999Y-59498429D01*
X112916752Y-59413096D01*
X112863204Y-59277306D01*
X112775004Y-59160995D01*
X112647677Y-59064442D01*
X112648091Y-59063894D01*
X112622609Y-59045580D01*
X112601053Y-59001237D01*
X112603157Y-58951977D01*
X112628414Y-58909633D01*
X112636718Y-58901328D01*
X112636723Y-58901326D01*
X112727326Y-58810723D01*
X112782259Y-58702910D01*
X112826224Y-58658946D01*
X112887633Y-58649221D01*
X112943030Y-58677447D01*
G37*
%TD.AperFunction*%
%TA.AperFunction,Conductor*%
G36*
X124731987Y-49537194D02*
G01*
X125349000Y-49784000D01*
X126619000Y-49784000D01*
X127236012Y-49537194D01*
X127273374Y-49530000D01*
X129692900Y-49530000D01*
X129743200Y-49543478D01*
X129780022Y-49580300D01*
X129793500Y-49630600D01*
X129793500Y-93879400D01*
X129780022Y-93929700D01*
X129743200Y-93966522D01*
X129692900Y-93980000D01*
X127273374Y-93980000D01*
X127236012Y-93972805D01*
X126619000Y-93726000D01*
X125349000Y-93726000D01*
X124731988Y-93972805D01*
X124694626Y-93980000D01*
X122195313Y-93980000D01*
X122192594Y-93979459D01*
X122154100Y-93979459D01*
X122153894Y-93979500D01*
X86461100Y-93979500D01*
X86410800Y-93966022D01*
X86373978Y-93929200D01*
X86360500Y-93878900D01*
X86360500Y-92011500D01*
X88304000Y-92011500D01*
X88304000Y-92707157D01*
X88314790Y-92781216D01*
X88370635Y-92895450D01*
X88460549Y-92985364D01*
X88574783Y-93041209D01*
X88648843Y-93052000D01*
X89344500Y-93052000D01*
X89344500Y-92011500D01*
X89725500Y-92011500D01*
X89725500Y-93052000D01*
X90421157Y-93052000D01*
X90495216Y-93041209D01*
X90609450Y-92985364D01*
X90699364Y-92895450D01*
X90755209Y-92781216D01*
X90766000Y-92707157D01*
X90766000Y-92011500D01*
X89725500Y-92011500D01*
X89344500Y-92011500D01*
X88304000Y-92011500D01*
X86360500Y-92011500D01*
X86360500Y-91630500D01*
X88304000Y-91630500D01*
X89344500Y-91630500D01*
X89344500Y-90590000D01*
X89725500Y-90590000D01*
X89725500Y-91630500D01*
X90766000Y-91630500D01*
X90766000Y-90934843D01*
X90755209Y-90860783D01*
X90699364Y-90746549D01*
X90609450Y-90656635D01*
X90495216Y-90600790D01*
X90421157Y-90590000D01*
X89725500Y-90590000D01*
X89344500Y-90590000D01*
X88648843Y-90590000D01*
X88574783Y-90600790D01*
X88460549Y-90656635D01*
X88370635Y-90746549D01*
X88314790Y-90860783D01*
X88304000Y-90934843D01*
X88304000Y-91630500D01*
X86360500Y-91630500D01*
X86360500Y-90360500D01*
X92125965Y-90360500D01*
X92128070Y-90384576D01*
X92183819Y-90592633D01*
X92274852Y-90787853D01*
X92398395Y-90964292D01*
X92550707Y-91116604D01*
X92727146Y-91240147D01*
X92922366Y-91331180D01*
X93130423Y-91386929D01*
X93154500Y-91389034D01*
X93154500Y-90360500D01*
X93535500Y-90360500D01*
X93535500Y-91389034D01*
X93559576Y-91386929D01*
X93767633Y-91331180D01*
X93962853Y-91240147D01*
X94139292Y-91116604D01*
X94291604Y-90964292D01*
X94415147Y-90787853D01*
X94506180Y-90592633D01*
X94561929Y-90384576D01*
X94564035Y-90360500D01*
X93535500Y-90360500D01*
X93154500Y-90360500D01*
X92125965Y-90360500D01*
X86360500Y-90360500D01*
X86360500Y-90169999D01*
X94775768Y-90169999D01*
X94794654Y-90373820D01*
X94850672Y-90570702D01*
X94867006Y-90603504D01*
X94941912Y-90753935D01*
X95065268Y-90917285D01*
X95216538Y-91055186D01*
X95390573Y-91162944D01*
X95581444Y-91236888D01*
X95703656Y-91259733D01*
X95782652Y-91274500D01*
X95782653Y-91274500D01*
X95987347Y-91274500D01*
X95987348Y-91274500D01*
X96037649Y-91265097D01*
X96188556Y-91236888D01*
X96379427Y-91162944D01*
X96553462Y-91055186D01*
X96704732Y-90917285D01*
X96828088Y-90753935D01*
X96919328Y-90570701D01*
X96975345Y-90373821D01*
X96994232Y-90170000D01*
X96975345Y-89966179D01*
X96919328Y-89769299D01*
X96828088Y-89586065D01*
X96704732Y-89422715D01*
X96553462Y-89284814D01*
X96379427Y-89177056D01*
X96188556Y-89103112D01*
X96188555Y-89103111D01*
X96188553Y-89103111D01*
X95987348Y-89065500D01*
X95987347Y-89065500D01*
X95782653Y-89065500D01*
X95782652Y-89065500D01*
X95581446Y-89103111D01*
X95390572Y-89177056D01*
X95315733Y-89223395D01*
X95216538Y-89284814D01*
X95216536Y-89284815D01*
X95216537Y-89284815D01*
X95065269Y-89422713D01*
X95061519Y-89427679D01*
X94941912Y-89586065D01*
X94941911Y-89586066D01*
X94941911Y-89586067D01*
X94850672Y-89769297D01*
X94794654Y-89966179D01*
X94775768Y-90169999D01*
X86360500Y-90169999D01*
X86360500Y-89979500D01*
X92125965Y-89979500D01*
X93154500Y-89979500D01*
X93154500Y-88950965D01*
X93535500Y-88950965D01*
X93535500Y-89979500D01*
X94564034Y-89979500D01*
X94561929Y-89955423D01*
X94506180Y-89747366D01*
X94415147Y-89552146D01*
X94291604Y-89375707D01*
X94139292Y-89223395D01*
X93962853Y-89099852D01*
X93767633Y-89008819D01*
X93559576Y-88953070D01*
X93535500Y-88950965D01*
X93154500Y-88950965D01*
X93130423Y-88953070D01*
X92922366Y-89008819D01*
X92727146Y-89099852D01*
X92550707Y-89223395D01*
X92398395Y-89375707D01*
X92274852Y-89552146D01*
X92183819Y-89747366D01*
X92128070Y-89955423D01*
X92125965Y-89979500D01*
X86360500Y-89979500D01*
X86360500Y-88138000D01*
X88425768Y-88138000D01*
X88444654Y-88341820D01*
X88500672Y-88538702D01*
X88508767Y-88554958D01*
X88591912Y-88721935D01*
X88715268Y-88885285D01*
X88866538Y-89023186D01*
X89040573Y-89130944D01*
X89231444Y-89204888D01*
X89330449Y-89223395D01*
X89432652Y-89242500D01*
X89432653Y-89242500D01*
X89637347Y-89242500D01*
X89637348Y-89242500D01*
X89687649Y-89233096D01*
X89838556Y-89204888D01*
X90029427Y-89130944D01*
X90203462Y-89023186D01*
X90354732Y-88885285D01*
X90478088Y-88721935D01*
X90569328Y-88538701D01*
X90625345Y-88341821D01*
X90644232Y-88138000D01*
X90625345Y-87934179D01*
X90569328Y-87737299D01*
X90478088Y-87554065D01*
X90354732Y-87390715D01*
X90203462Y-87252814D01*
X90029427Y-87145056D01*
X89838556Y-87071112D01*
X89838555Y-87071111D01*
X89838553Y-87071111D01*
X89637348Y-87033500D01*
X89637347Y-87033500D01*
X89432653Y-87033500D01*
X89432652Y-87033500D01*
X89231446Y-87071111D01*
X89040572Y-87145056D01*
X88932814Y-87211777D01*
X88866538Y-87252814D01*
X88866536Y-87252815D01*
X88866537Y-87252815D01*
X88715269Y-87390713D01*
X88687951Y-87426888D01*
X88591912Y-87554065D01*
X88591911Y-87554066D01*
X88591911Y-87554067D01*
X88500672Y-87737297D01*
X88444654Y-87934179D01*
X88425768Y-88138000D01*
X86360500Y-88138000D01*
X86360500Y-85598000D01*
X88425768Y-85598000D01*
X88444654Y-85801820D01*
X88489461Y-85959299D01*
X88500672Y-85998701D01*
X88591912Y-86181935D01*
X88715268Y-86345285D01*
X88866538Y-86483186D01*
X89040573Y-86590944D01*
X89231444Y-86664888D01*
X89365583Y-86689962D01*
X89432652Y-86702500D01*
X89432653Y-86702500D01*
X89637347Y-86702500D01*
X89637348Y-86702500D01*
X89687649Y-86693096D01*
X89838556Y-86664888D01*
X90029427Y-86590944D01*
X90094746Y-86550500D01*
X92125965Y-86550500D01*
X92128070Y-86574576D01*
X92183819Y-86782633D01*
X92274852Y-86977853D01*
X92398395Y-87154292D01*
X92550707Y-87306604D01*
X92727146Y-87430147D01*
X92922366Y-87521180D01*
X93130423Y-87576929D01*
X93154500Y-87579034D01*
X93154500Y-86550500D01*
X93535500Y-86550500D01*
X93535500Y-87579034D01*
X93559576Y-87576929D01*
X93767633Y-87521180D01*
X93962853Y-87430147D01*
X94139292Y-87306604D01*
X94291604Y-87154292D01*
X94415147Y-86977853D01*
X94506180Y-86782633D01*
X94561929Y-86574576D01*
X94564035Y-86550500D01*
X93535500Y-86550500D01*
X93154500Y-86550500D01*
X92125965Y-86550500D01*
X90094746Y-86550500D01*
X90203462Y-86483186D01*
X90338590Y-86360000D01*
X94775768Y-86360000D01*
X94794654Y-86563820D01*
X94850672Y-86760702D01*
X94867006Y-86793504D01*
X94941912Y-86943935D01*
X95065268Y-87107285D01*
X95216538Y-87245186D01*
X95390573Y-87352944D01*
X95581444Y-87426888D01*
X95703656Y-87449733D01*
X95782652Y-87464500D01*
X95782653Y-87464500D01*
X95987347Y-87464500D01*
X95987348Y-87464500D01*
X96037649Y-87455096D01*
X96188556Y-87426888D01*
X96379427Y-87352944D01*
X96553462Y-87245186D01*
X96704732Y-87107285D01*
X96828088Y-86943935D01*
X96919328Y-86760701D01*
X96975345Y-86563821D01*
X96994232Y-86360000D01*
X96975345Y-86156179D01*
X96919328Y-85959299D01*
X96828088Y-85776065D01*
X96704732Y-85612715D01*
X96553462Y-85474814D01*
X96379427Y-85367056D01*
X96188556Y-85293112D01*
X96188555Y-85293111D01*
X96188553Y-85293111D01*
X95987348Y-85255500D01*
X95987347Y-85255500D01*
X95782653Y-85255500D01*
X95782652Y-85255500D01*
X95581446Y-85293111D01*
X95390572Y-85367056D01*
X95315733Y-85413395D01*
X95216538Y-85474814D01*
X95216536Y-85474815D01*
X95216537Y-85474815D01*
X95065269Y-85612713D01*
X95003589Y-85694390D01*
X94941912Y-85776065D01*
X94941911Y-85776066D01*
X94941911Y-85776067D01*
X94850672Y-85959297D01*
X94794654Y-86156179D01*
X94775768Y-86360000D01*
X90338590Y-86360000D01*
X90354732Y-86345285D01*
X90478088Y-86181935D01*
X90484280Y-86169500D01*
X92125965Y-86169500D01*
X93154500Y-86169500D01*
X93154500Y-85140965D01*
X93535500Y-85140965D01*
X93535500Y-86169500D01*
X94564034Y-86169500D01*
X94561929Y-86145423D01*
X94506180Y-85937366D01*
X94415147Y-85742146D01*
X94291604Y-85565707D01*
X94139292Y-85413395D01*
X93962853Y-85289852D01*
X93767633Y-85198819D01*
X93559576Y-85143070D01*
X93535500Y-85140965D01*
X93154500Y-85140965D01*
X93130423Y-85143070D01*
X92922366Y-85198819D01*
X92727146Y-85289852D01*
X92550707Y-85413395D01*
X92398395Y-85565707D01*
X92274852Y-85742146D01*
X92183819Y-85937366D01*
X92128070Y-86145423D01*
X92125965Y-86169500D01*
X90484280Y-86169500D01*
X90569328Y-85998701D01*
X90625345Y-85801821D01*
X90644232Y-85598000D01*
X90625345Y-85394179D01*
X90569328Y-85197299D01*
X90478088Y-85014065D01*
X90354732Y-84850715D01*
X90203462Y-84712814D01*
X90029427Y-84605056D01*
X89838556Y-84531112D01*
X89838555Y-84531111D01*
X89838553Y-84531111D01*
X89637348Y-84493500D01*
X89637347Y-84493500D01*
X89432653Y-84493500D01*
X89432652Y-84493500D01*
X89231446Y-84531111D01*
X89040572Y-84605056D01*
X88932814Y-84671777D01*
X88866538Y-84712814D01*
X88866536Y-84712815D01*
X88866537Y-84712815D01*
X88715269Y-84850713D01*
X88653590Y-84932389D01*
X88591912Y-85014065D01*
X88591911Y-85014066D01*
X88591911Y-85014067D01*
X88500672Y-85197297D01*
X88444654Y-85394179D01*
X88425768Y-85598000D01*
X86360500Y-85598000D01*
X86360500Y-83058000D01*
X88425768Y-83058000D01*
X88444654Y-83261820D01*
X88500672Y-83458701D01*
X88591912Y-83641935D01*
X88715268Y-83805285D01*
X88866538Y-83943186D01*
X89040573Y-84050944D01*
X89231444Y-84124888D01*
X89365583Y-84149962D01*
X89432652Y-84162500D01*
X89432653Y-84162500D01*
X89637347Y-84162500D01*
X89637348Y-84162500D01*
X89687649Y-84153097D01*
X89838556Y-84124888D01*
X90029427Y-84050944D01*
X90203462Y-83943186D01*
X90354732Y-83805285D01*
X90478088Y-83641935D01*
X90569328Y-83458701D01*
X90625345Y-83261821D01*
X90644232Y-83058000D01*
X90625345Y-82854179D01*
X90569328Y-82657299D01*
X90478088Y-82474065D01*
X90354732Y-82310715D01*
X90203462Y-82172814D01*
X90029427Y-82065056D01*
X89838556Y-81991112D01*
X89838555Y-81991111D01*
X89838553Y-81991111D01*
X89637348Y-81953500D01*
X89637347Y-81953500D01*
X89432653Y-81953500D01*
X89432652Y-81953500D01*
X89231446Y-81991111D01*
X89040572Y-82065056D01*
X88932813Y-82131777D01*
X88866538Y-82172814D01*
X88866536Y-82172815D01*
X88866537Y-82172815D01*
X88715269Y-82310713D01*
X88653589Y-82392390D01*
X88591912Y-82474065D01*
X88591911Y-82474066D01*
X88591911Y-82474067D01*
X88500672Y-82657297D01*
X88444654Y-82854179D01*
X88425768Y-83058000D01*
X86360500Y-83058000D01*
X86360500Y-80517999D01*
X88425768Y-80517999D01*
X88444654Y-80721820D01*
X88500672Y-80918701D01*
X88591912Y-81101935D01*
X88715268Y-81265285D01*
X88866538Y-81403186D01*
X89040573Y-81510944D01*
X89231444Y-81584888D01*
X89365583Y-81609962D01*
X89432652Y-81622500D01*
X89432653Y-81622500D01*
X89637347Y-81622500D01*
X89637348Y-81622500D01*
X89687649Y-81613097D01*
X89838556Y-81584888D01*
X90029427Y-81510944D01*
X90203462Y-81403186D01*
X90354732Y-81265285D01*
X90478088Y-81101935D01*
X90569328Y-80918701D01*
X90625345Y-80721821D01*
X90644232Y-80518000D01*
X90625345Y-80314179D01*
X90569328Y-80117299D01*
X90478088Y-79934065D01*
X90354732Y-79770715D01*
X90203462Y-79632814D01*
X90029427Y-79525056D01*
X89838556Y-79451112D01*
X89838555Y-79451111D01*
X89838553Y-79451111D01*
X89637348Y-79413500D01*
X89637347Y-79413500D01*
X89432653Y-79413500D01*
X89432652Y-79413500D01*
X89231446Y-79451111D01*
X89040572Y-79525056D01*
X88932814Y-79591777D01*
X88866538Y-79632814D01*
X88866536Y-79632815D01*
X88866537Y-79632815D01*
X88715269Y-79770713D01*
X88653590Y-79852389D01*
X88591912Y-79934065D01*
X88591911Y-79934066D01*
X88591911Y-79934067D01*
X88500672Y-80117297D01*
X88444654Y-80314179D01*
X88425768Y-80517999D01*
X86360500Y-80517999D01*
X86360500Y-77977999D01*
X88425768Y-77977999D01*
X88444654Y-78181820D01*
X88500672Y-78378701D01*
X88591912Y-78561935D01*
X88715268Y-78725285D01*
X88866538Y-78863186D01*
X89040573Y-78970944D01*
X89231444Y-79044888D01*
X89365583Y-79069962D01*
X89432652Y-79082500D01*
X89432653Y-79082500D01*
X89637347Y-79082500D01*
X89637348Y-79082500D01*
X89687649Y-79073097D01*
X89838556Y-79044888D01*
X90029427Y-78970944D01*
X90203462Y-78863186D01*
X90354732Y-78725285D01*
X90478088Y-78561935D01*
X90569328Y-78378701D01*
X90625345Y-78181821D01*
X90644232Y-77978000D01*
X90625345Y-77774179D01*
X90569328Y-77577299D01*
X90478088Y-77394065D01*
X90354732Y-77230715D01*
X90203462Y-77092814D01*
X90029427Y-76985056D01*
X89838556Y-76911112D01*
X89838555Y-76911111D01*
X89838553Y-76911111D01*
X89637348Y-76873500D01*
X89637347Y-76873500D01*
X89432653Y-76873500D01*
X89432652Y-76873500D01*
X89231446Y-76911111D01*
X89040572Y-76985056D01*
X88932814Y-77051777D01*
X88866538Y-77092814D01*
X88866536Y-77092815D01*
X88866537Y-77092815D01*
X88715269Y-77230713D01*
X88653589Y-77312390D01*
X88591912Y-77394065D01*
X88591911Y-77394066D01*
X88591911Y-77394067D01*
X88500672Y-77577297D01*
X88444654Y-77774179D01*
X88425768Y-77977999D01*
X86360500Y-77977999D01*
X86360500Y-75437999D01*
X88425768Y-75437999D01*
X88444654Y-75641820D01*
X88500672Y-75838701D01*
X88591912Y-76021935D01*
X88715268Y-76185285D01*
X88866538Y-76323186D01*
X89040573Y-76430944D01*
X89231444Y-76504888D01*
X89365583Y-76529962D01*
X89432652Y-76542500D01*
X89432653Y-76542500D01*
X89637347Y-76542500D01*
X89637348Y-76542500D01*
X89687649Y-76533096D01*
X89838556Y-76504888D01*
X90029427Y-76430944D01*
X90203462Y-76323186D01*
X90354732Y-76185285D01*
X90478088Y-76021935D01*
X90569328Y-75838701D01*
X90625345Y-75641821D01*
X90644232Y-75438000D01*
X90625345Y-75234179D01*
X90569328Y-75037299D01*
X90478088Y-74854065D01*
X90354732Y-74690715D01*
X90203462Y-74552814D01*
X90029427Y-74445056D01*
X89838556Y-74371112D01*
X89838555Y-74371111D01*
X89838553Y-74371111D01*
X89637348Y-74333500D01*
X89637347Y-74333500D01*
X89432653Y-74333500D01*
X89432652Y-74333500D01*
X89231446Y-74371111D01*
X89040572Y-74445056D01*
X88938736Y-74508111D01*
X88866538Y-74552814D01*
X88866536Y-74552815D01*
X88866537Y-74552815D01*
X88715269Y-74690713D01*
X88653589Y-74772390D01*
X88591912Y-74854065D01*
X88591911Y-74854066D01*
X88591911Y-74854067D01*
X88500672Y-75037297D01*
X88444654Y-75234179D01*
X88425768Y-75437999D01*
X86360500Y-75437999D01*
X86360500Y-72897999D01*
X88425768Y-72897999D01*
X88444654Y-73101820D01*
X88500672Y-73298701D01*
X88591912Y-73481935D01*
X88715268Y-73645285D01*
X88866538Y-73783186D01*
X89040573Y-73890944D01*
X89231444Y-73964888D01*
X89365583Y-73989962D01*
X89432652Y-74002500D01*
X89432653Y-74002500D01*
X89637347Y-74002500D01*
X89637348Y-74002500D01*
X89687649Y-73993097D01*
X89838556Y-73964888D01*
X90029427Y-73890944D01*
X90203462Y-73783186D01*
X90354732Y-73645285D01*
X90478088Y-73481935D01*
X90569328Y-73298701D01*
X90625345Y-73101821D01*
X90644232Y-72898000D01*
X90625345Y-72694179D01*
X90569328Y-72497299D01*
X90478088Y-72314065D01*
X90354732Y-72150715D01*
X90203462Y-72012814D01*
X90029427Y-71905056D01*
X89838556Y-71831112D01*
X89838555Y-71831111D01*
X89838553Y-71831111D01*
X89637348Y-71793500D01*
X89637347Y-71793500D01*
X89432653Y-71793500D01*
X89432652Y-71793500D01*
X89231446Y-71831111D01*
X89040572Y-71905056D01*
X88938736Y-71968111D01*
X88866538Y-72012814D01*
X88866536Y-72012815D01*
X88866537Y-72012815D01*
X88715269Y-72150713D01*
X88653589Y-72232390D01*
X88591912Y-72314065D01*
X88591911Y-72314066D01*
X88591911Y-72314067D01*
X88500672Y-72497297D01*
X88444654Y-72694179D01*
X88425768Y-72897999D01*
X86360500Y-72897999D01*
X86360500Y-70358000D01*
X88425768Y-70358000D01*
X88444654Y-70561820D01*
X88500672Y-70758701D01*
X88591912Y-70941935D01*
X88715268Y-71105285D01*
X88866538Y-71243186D01*
X89040573Y-71350944D01*
X89231444Y-71424888D01*
X89326619Y-71442679D01*
X89432652Y-71462500D01*
X89432653Y-71462500D01*
X89637347Y-71462500D01*
X89637348Y-71462500D01*
X89687649Y-71453097D01*
X89838556Y-71424888D01*
X90029427Y-71350944D01*
X90203462Y-71243186D01*
X90354732Y-71105285D01*
X90478088Y-70941935D01*
X90569328Y-70758701D01*
X90625345Y-70561821D01*
X90644232Y-70358000D01*
X90625345Y-70154179D01*
X90569328Y-69957299D01*
X90478088Y-69774065D01*
X90354732Y-69610715D01*
X90203462Y-69472814D01*
X90029427Y-69365056D01*
X89838556Y-69291112D01*
X89838555Y-69291111D01*
X89838553Y-69291111D01*
X89637348Y-69253500D01*
X89637347Y-69253500D01*
X89432653Y-69253500D01*
X89432652Y-69253500D01*
X89231446Y-69291111D01*
X89040572Y-69365056D01*
X88938736Y-69428111D01*
X88866538Y-69472814D01*
X88866536Y-69472815D01*
X88866537Y-69472815D01*
X88715269Y-69610713D01*
X88653589Y-69692390D01*
X88591912Y-69774065D01*
X88591911Y-69774066D01*
X88591911Y-69774067D01*
X88500672Y-69957297D01*
X88444654Y-70154179D01*
X88425768Y-70358000D01*
X86360500Y-70358000D01*
X86360500Y-67818000D01*
X88425768Y-67818000D01*
X88444654Y-68021820D01*
X88500672Y-68218701D01*
X88591912Y-68401935D01*
X88715268Y-68565285D01*
X88866538Y-68703186D01*
X89040573Y-68810944D01*
X89231444Y-68884888D01*
X89335285Y-68904299D01*
X89432652Y-68922500D01*
X89432653Y-68922500D01*
X89637347Y-68922500D01*
X89637348Y-68922500D01*
X89687649Y-68913097D01*
X89838556Y-68884888D01*
X90029427Y-68810944D01*
X90203462Y-68703186D01*
X90354732Y-68565285D01*
X90478088Y-68401935D01*
X90569328Y-68218701D01*
X90625345Y-68021821D01*
X90644232Y-67818000D01*
X90625345Y-67614179D01*
X90569328Y-67417299D01*
X90478088Y-67234065D01*
X90354732Y-67070715D01*
X90203462Y-66932814D01*
X90029427Y-66825056D01*
X89838556Y-66751112D01*
X89838555Y-66751111D01*
X89838553Y-66751111D01*
X89637348Y-66713500D01*
X89637347Y-66713500D01*
X89432653Y-66713500D01*
X89432652Y-66713500D01*
X89231446Y-66751111D01*
X89040572Y-66825056D01*
X88932814Y-66891777D01*
X88866538Y-66932814D01*
X88866536Y-66932815D01*
X88866537Y-66932815D01*
X88715269Y-67070713D01*
X88708306Y-67079934D01*
X88591912Y-67234065D01*
X88591911Y-67234066D01*
X88591911Y-67234067D01*
X88500672Y-67417297D01*
X88444654Y-67614179D01*
X88425768Y-67818000D01*
X86360500Y-67818000D01*
X86360500Y-62411053D01*
X87155788Y-62411053D01*
X87166359Y-62466921D01*
X87166989Y-62470628D01*
X87176019Y-62530535D01*
X87178997Y-62539585D01*
X87207295Y-62593128D01*
X87208990Y-62596486D01*
X87235276Y-62651069D01*
X87240792Y-62658843D01*
X87283621Y-62701672D01*
X87286230Y-62704381D01*
X87327435Y-62748788D01*
X87341627Y-62759678D01*
X88399448Y-63817499D01*
X88406964Y-63825910D01*
X88429678Y-63854392D01*
X88476644Y-63886413D01*
X88479697Y-63888578D01*
X88525490Y-63922375D01*
X88525493Y-63922376D01*
X88528474Y-63924576D01*
X88536968Y-63928864D01*
X88540512Y-63929957D01*
X88540515Y-63929959D01*
X88594877Y-63946727D01*
X88598399Y-63947886D01*
X88652109Y-63966681D01*
X88652111Y-63966681D01*
X88655612Y-63967906D01*
X88664991Y-63969500D01*
X88668701Y-63969500D01*
X88725571Y-63969500D01*
X88729332Y-63969570D01*
X88786160Y-63971696D01*
X88786162Y-63971695D01*
X88789868Y-63971834D01*
X88807600Y-63969500D01*
X90144505Y-63969500D01*
X90183003Y-63977158D01*
X90215640Y-63998965D01*
X90218440Y-64001765D01*
X90245972Y-64053274D01*
X90240247Y-64111398D01*
X90203195Y-64156546D01*
X90147305Y-64173500D01*
X88659932Y-64173500D01*
X88585700Y-64188264D01*
X88501515Y-64244517D01*
X88445266Y-64328698D01*
X88430500Y-64402933D01*
X88430500Y-66153067D01*
X88445264Y-66227299D01*
X88467703Y-66260880D01*
X88501516Y-66311484D01*
X88585699Y-66367734D01*
X88659933Y-66382500D01*
X90410066Y-66382499D01*
X90410067Y-66382499D01*
X90484299Y-66367735D01*
X90484300Y-66367734D01*
X90484301Y-66367734D01*
X90568484Y-66311484D01*
X90624734Y-66227301D01*
X90639500Y-66153067D01*
X90639499Y-64665693D01*
X90656453Y-64609804D01*
X90701601Y-64572752D01*
X90759725Y-64567027D01*
X90811234Y-64594559D01*
X97950535Y-71733860D01*
X97972342Y-71766497D01*
X97980000Y-71804995D01*
X97980000Y-85154901D01*
X97966522Y-85205201D01*
X97929700Y-85242023D01*
X97879400Y-85255501D01*
X97549932Y-85255501D01*
X97475700Y-85270264D01*
X97408305Y-85315297D01*
X97391518Y-85326515D01*
X97391515Y-85326517D01*
X97335266Y-85410698D01*
X97320500Y-85484933D01*
X97320500Y-87235067D01*
X97335264Y-87309299D01*
X97357703Y-87342880D01*
X97391516Y-87393484D01*
X97475699Y-87449734D01*
X97549933Y-87464500D01*
X97879400Y-87464500D01*
X97929700Y-87477978D01*
X97966522Y-87514800D01*
X97980000Y-87565100D01*
X97980000Y-88964901D01*
X97966522Y-89015201D01*
X97929700Y-89052023D01*
X97879400Y-89065501D01*
X97549932Y-89065501D01*
X97475700Y-89080264D01*
X97408305Y-89125297D01*
X97391518Y-89136515D01*
X97391515Y-89136517D01*
X97335266Y-89220698D01*
X97320500Y-89294933D01*
X97320500Y-91045067D01*
X97335264Y-91119299D01*
X97357703Y-91152880D01*
X97391516Y-91203484D01*
X97475699Y-91259734D01*
X97549933Y-91274500D01*
X99300066Y-91274499D01*
X99300067Y-91274499D01*
X99374299Y-91259735D01*
X99374300Y-91259734D01*
X99374301Y-91259734D01*
X99458484Y-91203484D01*
X99514734Y-91119301D01*
X99529500Y-91045067D01*
X99529499Y-90360500D01*
X101015965Y-90360500D01*
X101018070Y-90384576D01*
X101073819Y-90592633D01*
X101164852Y-90787853D01*
X101288395Y-90964292D01*
X101440707Y-91116604D01*
X101617146Y-91240147D01*
X101812366Y-91331180D01*
X102020423Y-91386929D01*
X102044500Y-91389034D01*
X102044500Y-90360500D01*
X102425500Y-90360500D01*
X102425500Y-91389034D01*
X102449576Y-91386929D01*
X102657633Y-91331180D01*
X102852853Y-91240147D01*
X103029292Y-91116604D01*
X103181604Y-90964292D01*
X103305147Y-90787853D01*
X103396180Y-90592633D01*
X103451929Y-90384576D01*
X103454035Y-90360500D01*
X102425500Y-90360500D01*
X102044500Y-90360500D01*
X101015965Y-90360500D01*
X99529499Y-90360500D01*
X99529499Y-89736494D01*
X99537157Y-89697997D01*
X99558964Y-89665360D01*
X99874360Y-89349965D01*
X99906997Y-89328158D01*
X99945495Y-89320500D01*
X101133802Y-89320500D01*
X101185990Y-89335096D01*
X101223035Y-89374648D01*
X101234187Y-89427679D01*
X101216209Y-89478801D01*
X101164852Y-89552146D01*
X101073819Y-89747366D01*
X101018070Y-89955423D01*
X101015965Y-89979500D01*
X103454034Y-89979500D01*
X103451929Y-89955423D01*
X103396180Y-89747366D01*
X103305147Y-89552146D01*
X103253791Y-89478801D01*
X103235813Y-89427679D01*
X103246965Y-89374648D01*
X103284010Y-89335096D01*
X103336198Y-89320500D01*
X103830425Y-89320500D01*
X103883384Y-89335568D01*
X103920478Y-89376259D01*
X103930596Y-89430382D01*
X103910706Y-89481725D01*
X103831911Y-89586066D01*
X103740672Y-89769297D01*
X103684654Y-89966179D01*
X103665768Y-90169999D01*
X103684654Y-90373820D01*
X103740672Y-90570702D01*
X103757006Y-90603504D01*
X103831912Y-90753935D01*
X103955268Y-90917285D01*
X104106538Y-91055186D01*
X104280573Y-91162944D01*
X104471444Y-91236888D01*
X104593656Y-91259733D01*
X104672652Y-91274500D01*
X104672653Y-91274500D01*
X104877347Y-91274500D01*
X104877348Y-91274500D01*
X104927649Y-91265097D01*
X105078556Y-91236888D01*
X105269427Y-91162944D01*
X105443462Y-91055186D01*
X105594732Y-90917285D01*
X105718088Y-90753935D01*
X105809328Y-90570701D01*
X105865345Y-90373821D01*
X105884232Y-90170000D01*
X105865345Y-89966179D01*
X105809328Y-89769299D01*
X105718088Y-89586065D01*
X105594732Y-89422715D01*
X105443462Y-89284814D01*
X105289612Y-89189554D01*
X105250543Y-89144656D01*
X105243684Y-89085537D01*
X105271434Y-89032889D01*
X106698264Y-87606059D01*
X106749774Y-87578527D01*
X106807898Y-87584252D01*
X106853046Y-87621304D01*
X106870000Y-87677194D01*
X106870000Y-88964901D01*
X106856522Y-89015201D01*
X106819700Y-89052023D01*
X106769400Y-89065501D01*
X106439932Y-89065501D01*
X106365700Y-89080264D01*
X106298305Y-89125297D01*
X106281518Y-89136515D01*
X106281515Y-89136517D01*
X106225266Y-89220698D01*
X106210500Y-89294933D01*
X106210500Y-91045067D01*
X106225264Y-91119299D01*
X106247703Y-91152880D01*
X106281516Y-91203484D01*
X106365699Y-91259734D01*
X106439933Y-91274500D01*
X107748504Y-91274499D01*
X107787002Y-91282157D01*
X107819639Y-91303964D01*
X108273174Y-91757499D01*
X108280690Y-91765910D01*
X108303402Y-91794389D01*
X108303403Y-91794389D01*
X108303405Y-91794392D01*
X108350378Y-91826417D01*
X108353427Y-91828581D01*
X108402198Y-91864576D01*
X108410692Y-91868863D01*
X108414237Y-91869956D01*
X108414241Y-91869959D01*
X108468619Y-91886732D01*
X108472151Y-91887895D01*
X108525835Y-91906680D01*
X108525836Y-91906680D01*
X108529337Y-91907905D01*
X108538721Y-91909500D01*
X108542427Y-91909500D01*
X108599308Y-91909500D01*
X108603069Y-91909569D01*
X108659886Y-91911696D01*
X108659888Y-91911695D01*
X108663594Y-91911834D01*
X108681328Y-91909500D01*
X114879869Y-91909500D01*
X114891131Y-91910132D01*
X114927327Y-91914211D01*
X114983223Y-91903634D01*
X114986858Y-91903016D01*
X115043147Y-91894533D01*
X115043149Y-91894531D01*
X115046824Y-91893978D01*
X115055842Y-91891010D01*
X115059128Y-91889273D01*
X115059134Y-91889272D01*
X115109448Y-91862679D01*
X115112758Y-91861009D01*
X115164009Y-91836329D01*
X115164010Y-91836327D01*
X115167353Y-91834718D01*
X115175108Y-91829215D01*
X115177730Y-91826592D01*
X115177735Y-91826590D01*
X115217971Y-91786352D01*
X115220656Y-91783767D01*
X115265063Y-91742564D01*
X115275950Y-91728373D01*
X115700359Y-91303964D01*
X115732997Y-91282157D01*
X115771495Y-91274499D01*
X117080068Y-91274499D01*
X117154299Y-91259735D01*
X117154300Y-91259734D01*
X117154301Y-91259734D01*
X117238484Y-91203484D01*
X117294734Y-91119301D01*
X117309500Y-91045067D01*
X117309499Y-89294934D01*
X117309499Y-89294932D01*
X117294735Y-89220700D01*
X117265572Y-89177056D01*
X117238484Y-89136516D01*
X117154301Y-89080266D01*
X117080066Y-89065500D01*
X115329932Y-89065500D01*
X115255700Y-89080264D01*
X115188305Y-89125297D01*
X115171518Y-89136515D01*
X115171515Y-89136517D01*
X115115266Y-89220698D01*
X115100500Y-89294933D01*
X115100500Y-90603504D01*
X115092842Y-90642002D01*
X115071035Y-90674639D01*
X114755640Y-90990035D01*
X114723003Y-91011842D01*
X114684505Y-91019500D01*
X114609575Y-91019500D01*
X114556616Y-91004432D01*
X114519522Y-90963741D01*
X114509404Y-90909618D01*
X114529294Y-90858275D01*
X114608088Y-90753935D01*
X114699328Y-90570701D01*
X114755345Y-90373821D01*
X114774232Y-90170000D01*
X114755345Y-89966179D01*
X114699328Y-89769299D01*
X114608088Y-89586065D01*
X114484732Y-89422715D01*
X114333462Y-89284814D01*
X114159427Y-89177056D01*
X113968556Y-89103112D01*
X113968555Y-89103111D01*
X113968553Y-89103111D01*
X113767348Y-89065500D01*
X113767347Y-89065500D01*
X113562653Y-89065500D01*
X113562652Y-89065500D01*
X113361446Y-89103111D01*
X113170572Y-89177056D01*
X113095733Y-89223395D01*
X112996538Y-89284814D01*
X112996536Y-89284815D01*
X112996537Y-89284815D01*
X112845269Y-89422713D01*
X112841519Y-89427679D01*
X112721912Y-89586065D01*
X112721911Y-89586066D01*
X112721911Y-89586067D01*
X112630672Y-89769297D01*
X112574654Y-89966179D01*
X112555768Y-90169999D01*
X112574654Y-90373820D01*
X112630672Y-90570702D01*
X112667755Y-90645174D01*
X112721912Y-90753935D01*
X112747526Y-90787853D01*
X112800706Y-90858275D01*
X112820596Y-90909618D01*
X112810478Y-90963741D01*
X112773384Y-91004432D01*
X112720425Y-91019500D01*
X112226198Y-91019500D01*
X112174010Y-91004904D01*
X112136965Y-90965352D01*
X112125813Y-90912321D01*
X112143791Y-90861199D01*
X112195147Y-90787853D01*
X112286180Y-90592633D01*
X112341929Y-90384576D01*
X112344035Y-90360500D01*
X109905965Y-90360500D01*
X109908070Y-90384576D01*
X109963819Y-90592633D01*
X110054852Y-90787853D01*
X110106209Y-90861199D01*
X110124187Y-90912321D01*
X110113035Y-90965352D01*
X110075990Y-91004904D01*
X110023802Y-91019500D01*
X108835495Y-91019500D01*
X108796997Y-91011842D01*
X108764360Y-90990035D01*
X108448964Y-90674639D01*
X108427157Y-90642002D01*
X108419499Y-90603504D01*
X108419499Y-89979500D01*
X109905965Y-89979500D01*
X110934500Y-89979500D01*
X110934500Y-88950965D01*
X111315500Y-88950965D01*
X111315500Y-89979500D01*
X112344034Y-89979500D01*
X112341929Y-89955423D01*
X112286180Y-89747366D01*
X112195147Y-89552146D01*
X112071604Y-89375707D01*
X111919292Y-89223395D01*
X111742853Y-89099852D01*
X111547633Y-89008819D01*
X111339576Y-88953070D01*
X111315500Y-88950965D01*
X110934500Y-88950965D01*
X110910423Y-88953070D01*
X110702366Y-89008819D01*
X110507146Y-89099852D01*
X110330707Y-89223395D01*
X110178395Y-89375707D01*
X110054852Y-89552146D01*
X109963819Y-89747366D01*
X109908070Y-89955423D01*
X109905965Y-89979500D01*
X108419499Y-89979500D01*
X108419499Y-89294932D01*
X108404735Y-89220700D01*
X108375572Y-89177056D01*
X108348484Y-89136516D01*
X108264301Y-89080266D01*
X108190067Y-89065500D01*
X107860600Y-89065500D01*
X107810300Y-89052022D01*
X107773478Y-89015200D01*
X107760000Y-88964900D01*
X107760000Y-87565099D01*
X107773478Y-87514799D01*
X107810300Y-87477977D01*
X107860600Y-87464499D01*
X108190068Y-87464499D01*
X108264299Y-87449735D01*
X108264300Y-87449734D01*
X108264301Y-87449734D01*
X108348484Y-87393484D01*
X108404734Y-87309301D01*
X108419500Y-87235067D01*
X108419499Y-85484934D01*
X108419499Y-85484932D01*
X108404735Y-85410700D01*
X108375572Y-85367056D01*
X108348484Y-85326516D01*
X108264301Y-85270266D01*
X108190066Y-85255500D01*
X106439932Y-85255500D01*
X106365700Y-85270264D01*
X106298305Y-85315297D01*
X106281518Y-85326515D01*
X106281515Y-85326517D01*
X106225266Y-85410698D01*
X106210500Y-85484933D01*
X106210500Y-86793504D01*
X106202842Y-86832002D01*
X106181035Y-86864639D01*
X104644640Y-88401035D01*
X104612003Y-88422842D01*
X104573505Y-88430500D01*
X99750122Y-88430500D01*
X99738859Y-88429867D01*
X99735275Y-88429463D01*
X99702671Y-88425789D01*
X99646828Y-88436355D01*
X99643122Y-88436985D01*
X99583205Y-88446016D01*
X99574132Y-88449002D01*
X99520606Y-88477290D01*
X99517252Y-88478983D01*
X99462666Y-88505271D01*
X99454876Y-88510799D01*
X99412037Y-88553636D01*
X99409331Y-88556243D01*
X99364937Y-88597435D01*
X99354049Y-88611624D01*
X99041735Y-88923939D01*
X98990226Y-88951471D01*
X98932102Y-88945746D01*
X98886954Y-88908694D01*
X98870000Y-88852804D01*
X98870000Y-87565099D01*
X98883478Y-87514799D01*
X98920300Y-87477977D01*
X98970600Y-87464499D01*
X99300068Y-87464499D01*
X99374299Y-87449735D01*
X99374300Y-87449734D01*
X99374301Y-87449734D01*
X99458484Y-87393484D01*
X99514734Y-87309301D01*
X99529500Y-87235067D01*
X99529499Y-86550500D01*
X101015965Y-86550500D01*
X101018070Y-86574576D01*
X101073819Y-86782633D01*
X101164852Y-86977853D01*
X101288395Y-87154292D01*
X101440707Y-87306604D01*
X101617146Y-87430147D01*
X101812366Y-87521180D01*
X102020423Y-87576929D01*
X102044500Y-87579034D01*
X102044500Y-86550500D01*
X102425500Y-86550500D01*
X102425500Y-87579034D01*
X102449576Y-87576929D01*
X102657633Y-87521180D01*
X102852853Y-87430147D01*
X103029292Y-87306604D01*
X103181604Y-87154292D01*
X103305147Y-86977853D01*
X103396180Y-86782633D01*
X103451929Y-86574576D01*
X103454035Y-86550500D01*
X102425500Y-86550500D01*
X102044500Y-86550500D01*
X101015965Y-86550500D01*
X99529499Y-86550500D01*
X99529499Y-86360000D01*
X103665768Y-86360000D01*
X103684654Y-86563820D01*
X103740672Y-86760702D01*
X103757006Y-86793504D01*
X103831912Y-86943935D01*
X103955268Y-87107285D01*
X104106538Y-87245186D01*
X104280573Y-87352944D01*
X104471444Y-87426888D01*
X104593656Y-87449733D01*
X104672652Y-87464500D01*
X104672653Y-87464500D01*
X104877347Y-87464500D01*
X104877348Y-87464500D01*
X104927649Y-87455096D01*
X105078556Y-87426888D01*
X105269427Y-87352944D01*
X105443462Y-87245186D01*
X105594732Y-87107285D01*
X105718088Y-86943935D01*
X105809328Y-86760701D01*
X105865345Y-86563821D01*
X105884232Y-86360000D01*
X105865345Y-86156179D01*
X105809328Y-85959299D01*
X105718088Y-85776065D01*
X105594732Y-85612715D01*
X105443462Y-85474814D01*
X105269427Y-85367056D01*
X105078556Y-85293112D01*
X105078555Y-85293111D01*
X105078553Y-85293111D01*
X104877348Y-85255500D01*
X104877347Y-85255500D01*
X104672653Y-85255500D01*
X104672652Y-85255500D01*
X104471446Y-85293111D01*
X104280572Y-85367056D01*
X104205733Y-85413395D01*
X104106538Y-85474814D01*
X104106536Y-85474815D01*
X104106537Y-85474815D01*
X103955269Y-85612713D01*
X103893589Y-85694390D01*
X103831912Y-85776065D01*
X103831911Y-85776066D01*
X103831911Y-85776067D01*
X103740672Y-85959297D01*
X103684654Y-86156179D01*
X103665768Y-86360000D01*
X99529499Y-86360000D01*
X99529499Y-86169500D01*
X101015965Y-86169500D01*
X102044500Y-86169500D01*
X102044500Y-85140965D01*
X102425500Y-85140965D01*
X102425500Y-86169500D01*
X103454034Y-86169500D01*
X103451929Y-86145423D01*
X103396180Y-85937366D01*
X103305147Y-85742146D01*
X103181604Y-85565707D01*
X103029292Y-85413395D01*
X102852853Y-85289852D01*
X102657633Y-85198819D01*
X102449576Y-85143070D01*
X102425500Y-85140965D01*
X102044500Y-85140965D01*
X102020423Y-85143070D01*
X101812366Y-85198819D01*
X101617146Y-85289852D01*
X101440707Y-85413395D01*
X101288395Y-85565707D01*
X101164852Y-85742146D01*
X101073819Y-85937366D01*
X101018070Y-86145423D01*
X101015965Y-86169500D01*
X99529499Y-86169500D01*
X99529499Y-85484934D01*
X99529499Y-85484932D01*
X99514735Y-85410700D01*
X99485572Y-85367056D01*
X99458484Y-85326516D01*
X99374301Y-85270266D01*
X99300067Y-85255500D01*
X98970600Y-85255500D01*
X98920300Y-85242022D01*
X98883478Y-85205200D01*
X98870000Y-85154900D01*
X98870000Y-75575000D01*
X121826768Y-75575000D01*
X121845654Y-75778820D01*
X121901672Y-75975702D01*
X121924692Y-76021932D01*
X121992912Y-76158935D01*
X122116268Y-76322285D01*
X122267538Y-76460186D01*
X122441573Y-76567944D01*
X122632444Y-76641888D01*
X122766583Y-76666962D01*
X122833652Y-76679500D01*
X122833653Y-76679500D01*
X123038347Y-76679500D01*
X123038348Y-76679500D01*
X123091843Y-76669500D01*
X123239556Y-76641888D01*
X123430427Y-76567944D01*
X123604462Y-76460186D01*
X123755732Y-76322285D01*
X123879088Y-76158935D01*
X123947308Y-76021932D01*
X123952125Y-76012258D01*
X123989219Y-75971568D01*
X124042178Y-75956500D01*
X125644802Y-75956500D01*
X125697761Y-75971568D01*
X125734855Y-76012259D01*
X125802909Y-76148931D01*
X125802911Y-76148934D01*
X125802912Y-76148935D01*
X125926268Y-76312285D01*
X126077538Y-76450186D01*
X126251573Y-76557944D01*
X126442444Y-76631888D01*
X126576583Y-76656962D01*
X126643652Y-76669500D01*
X126643653Y-76669500D01*
X126848347Y-76669500D01*
X126848348Y-76669500D01*
X126898649Y-76660097D01*
X127049556Y-76631888D01*
X127240427Y-76557944D01*
X127414462Y-76450186D01*
X127565732Y-76312285D01*
X127689088Y-76148935D01*
X127780328Y-75965701D01*
X127836345Y-75768821D01*
X127855232Y-75565000D01*
X127836345Y-75361179D01*
X127780328Y-75164299D01*
X127689088Y-74981065D01*
X127565732Y-74817715D01*
X127414462Y-74679814D01*
X127240427Y-74572056D01*
X127049556Y-74498112D01*
X127049555Y-74498111D01*
X127049553Y-74498111D01*
X126848348Y-74460500D01*
X126848347Y-74460500D01*
X126643653Y-74460500D01*
X126643652Y-74460500D01*
X126442446Y-74498111D01*
X126251572Y-74572056D01*
X126235422Y-74582056D01*
X126077538Y-74679814D01*
X126077536Y-74679815D01*
X126077537Y-74679815D01*
X125926269Y-74817713D01*
X125802909Y-74981068D01*
X125724896Y-75137741D01*
X125687802Y-75178432D01*
X125634843Y-75193500D01*
X124042178Y-75193500D01*
X123989219Y-75178432D01*
X123952125Y-75137742D01*
X123902109Y-75037297D01*
X123879088Y-74991065D01*
X123755732Y-74827715D01*
X123604462Y-74689814D01*
X123430427Y-74582056D01*
X123239556Y-74508112D01*
X123239555Y-74508111D01*
X123239553Y-74508111D01*
X123038348Y-74470500D01*
X123038347Y-74470500D01*
X122833653Y-74470500D01*
X122833652Y-74470500D01*
X122632446Y-74508111D01*
X122441572Y-74582056D01*
X122333814Y-74648777D01*
X122267538Y-74689814D01*
X122267536Y-74689815D01*
X122267537Y-74689815D01*
X122116269Y-74827713D01*
X122096369Y-74854065D01*
X121992912Y-74991065D01*
X121992911Y-74991066D01*
X121992911Y-74991067D01*
X121901672Y-75174297D01*
X121845654Y-75371179D01*
X121826768Y-75575000D01*
X98870000Y-75575000D01*
X98870000Y-73035000D01*
X121826768Y-73035000D01*
X121845654Y-73238820D01*
X121901672Y-73435702D01*
X121924692Y-73481932D01*
X121992912Y-73618935D01*
X122116268Y-73782285D01*
X122267538Y-73920186D01*
X122441573Y-74027944D01*
X122632444Y-74101888D01*
X122766583Y-74126962D01*
X122833652Y-74139500D01*
X122833653Y-74139500D01*
X123038347Y-74139500D01*
X123038348Y-74139500D01*
X123091843Y-74129500D01*
X123239556Y-74101888D01*
X123430427Y-74027944D01*
X123604462Y-73920186D01*
X123755732Y-73782285D01*
X123879088Y-73618935D01*
X123947308Y-73481932D01*
X123952125Y-73472258D01*
X123989219Y-73431568D01*
X124042178Y-73416500D01*
X125644802Y-73416500D01*
X125697761Y-73431568D01*
X125734855Y-73472259D01*
X125802909Y-73608931D01*
X125802911Y-73608934D01*
X125802912Y-73608935D01*
X125926268Y-73772285D01*
X126077538Y-73910186D01*
X126251573Y-74017944D01*
X126442444Y-74091888D01*
X126576583Y-74116962D01*
X126643652Y-74129500D01*
X126643653Y-74129500D01*
X126848347Y-74129500D01*
X126848348Y-74129500D01*
X126898649Y-74120096D01*
X127049556Y-74091888D01*
X127240427Y-74017944D01*
X127414462Y-73910186D01*
X127565732Y-73772285D01*
X127689088Y-73608935D01*
X127780328Y-73425701D01*
X127836345Y-73228821D01*
X127855232Y-73025000D01*
X127836345Y-72821179D01*
X127780328Y-72624299D01*
X127689088Y-72441065D01*
X127565732Y-72277715D01*
X127414462Y-72139814D01*
X127240427Y-72032056D01*
X127049556Y-71958112D01*
X127049555Y-71958111D01*
X127049553Y-71958111D01*
X126848348Y-71920500D01*
X126848347Y-71920500D01*
X126643653Y-71920500D01*
X126643652Y-71920500D01*
X126442446Y-71958111D01*
X126251572Y-72032056D01*
X126235422Y-72042056D01*
X126077538Y-72139814D01*
X126077536Y-72139815D01*
X126077537Y-72139815D01*
X125926269Y-72277713D01*
X125802909Y-72441068D01*
X125724896Y-72597741D01*
X125687802Y-72638432D01*
X125634843Y-72653500D01*
X124042178Y-72653500D01*
X123989219Y-72638432D01*
X123952125Y-72597742D01*
X123902109Y-72497297D01*
X123879088Y-72451065D01*
X123755732Y-72287715D01*
X123604462Y-72149814D01*
X123430427Y-72042056D01*
X123239556Y-71968112D01*
X123239555Y-71968111D01*
X123239553Y-71968111D01*
X123038348Y-71930500D01*
X123038347Y-71930500D01*
X122833653Y-71930500D01*
X122833652Y-71930500D01*
X122632446Y-71968111D01*
X122441572Y-72042056D01*
X122333814Y-72108777D01*
X122267538Y-72149814D01*
X122267536Y-72149815D01*
X122267537Y-72149815D01*
X122116269Y-72287713D01*
X122096369Y-72314065D01*
X121992912Y-72451065D01*
X121992911Y-72451066D01*
X121992911Y-72451067D01*
X121901672Y-72634297D01*
X121845654Y-72831179D01*
X121826768Y-73035000D01*
X98870000Y-73035000D01*
X98870000Y-71609631D01*
X98870633Y-71598367D01*
X98871632Y-71589500D01*
X98874711Y-71562173D01*
X98864130Y-71506257D01*
X98863519Y-71502659D01*
X98855033Y-71446353D01*
X98855031Y-71446349D01*
X98854478Y-71442679D01*
X98851507Y-71433649D01*
X98823203Y-71380095D01*
X98821520Y-71376763D01*
X98796829Y-71325491D01*
X98796826Y-71325488D01*
X98795218Y-71322148D01*
X98789711Y-71314386D01*
X98746877Y-71271552D01*
X98744268Y-71268843D01*
X98703068Y-71224440D01*
X98688873Y-71213548D01*
X97970324Y-70494999D01*
X121826768Y-70494999D01*
X121845654Y-70698820D01*
X121901672Y-70895702D01*
X121924692Y-70941932D01*
X121992912Y-71078935D01*
X122116268Y-71242285D01*
X122267538Y-71380186D01*
X122441573Y-71487944D01*
X122632444Y-71561888D01*
X122766583Y-71586962D01*
X122833652Y-71599500D01*
X122833653Y-71599500D01*
X123038347Y-71599500D01*
X123038348Y-71599500D01*
X123091843Y-71589500D01*
X123239556Y-71561888D01*
X123430427Y-71487944D01*
X123604462Y-71380186D01*
X123755732Y-71242285D01*
X123879088Y-71078935D01*
X123947308Y-70941932D01*
X123952125Y-70932258D01*
X123989219Y-70891568D01*
X124042178Y-70876500D01*
X125644802Y-70876500D01*
X125697761Y-70891568D01*
X125734855Y-70932259D01*
X125802909Y-71068931D01*
X125802911Y-71068934D01*
X125802912Y-71068935D01*
X125926268Y-71232285D01*
X126077538Y-71370186D01*
X126251573Y-71477944D01*
X126442444Y-71551888D01*
X126576583Y-71576962D01*
X126643652Y-71589500D01*
X126643653Y-71589500D01*
X126848347Y-71589500D01*
X126848348Y-71589500D01*
X126898649Y-71580096D01*
X127049556Y-71551888D01*
X127240427Y-71477944D01*
X127414462Y-71370186D01*
X127565732Y-71232285D01*
X127689088Y-71068935D01*
X127780328Y-70885701D01*
X127836345Y-70688821D01*
X127855232Y-70485000D01*
X127836345Y-70281179D01*
X127780328Y-70084299D01*
X127689088Y-69901065D01*
X127565732Y-69737715D01*
X127414462Y-69599814D01*
X127240427Y-69492056D01*
X127049556Y-69418112D01*
X127049555Y-69418111D01*
X127049553Y-69418111D01*
X126848348Y-69380500D01*
X126848347Y-69380500D01*
X126643653Y-69380500D01*
X126643652Y-69380500D01*
X126442446Y-69418111D01*
X126251572Y-69492056D01*
X126235422Y-69502056D01*
X126077538Y-69599814D01*
X126077536Y-69599815D01*
X126077537Y-69599815D01*
X125926269Y-69737713D01*
X125802909Y-69901068D01*
X125724896Y-70057741D01*
X125687802Y-70098432D01*
X125634843Y-70113500D01*
X124042178Y-70113500D01*
X123989219Y-70098432D01*
X123952125Y-70057742D01*
X123902109Y-69957297D01*
X123879088Y-69911065D01*
X123755732Y-69747715D01*
X123604462Y-69609814D01*
X123430427Y-69502056D01*
X123239556Y-69428112D01*
X123239555Y-69428111D01*
X123239553Y-69428111D01*
X123038348Y-69390500D01*
X123038347Y-69390500D01*
X122833653Y-69390500D01*
X122833652Y-69390500D01*
X122632446Y-69428111D01*
X122441572Y-69502056D01*
X122333813Y-69568777D01*
X122267538Y-69609814D01*
X122267536Y-69609815D01*
X122267537Y-69609815D01*
X122116269Y-69747713D01*
X122096369Y-69774065D01*
X121992912Y-69911065D01*
X121992911Y-69911066D01*
X121992911Y-69911067D01*
X121901672Y-70094297D01*
X121845654Y-70291179D01*
X121826768Y-70494999D01*
X97970324Y-70494999D01*
X96305392Y-68830067D01*
X121831500Y-68830067D01*
X121846264Y-68904299D01*
X121858426Y-68922500D01*
X121902516Y-68988484D01*
X121986699Y-69044734D01*
X122060933Y-69059500D01*
X123811066Y-69059499D01*
X123811067Y-69059499D01*
X123885299Y-69044735D01*
X123885300Y-69044734D01*
X123885301Y-69044734D01*
X123969484Y-68988484D01*
X124025734Y-68904301D01*
X124040500Y-68830067D01*
X124040500Y-68437100D01*
X124053978Y-68386800D01*
X124090800Y-68349978D01*
X124141100Y-68336500D01*
X125540901Y-68336500D01*
X125591201Y-68349978D01*
X125628023Y-68386800D01*
X125641501Y-68437100D01*
X125641501Y-68820068D01*
X125656264Y-68894299D01*
X125675108Y-68922500D01*
X125712516Y-68978484D01*
X125796699Y-69034734D01*
X125870933Y-69049500D01*
X127621066Y-69049499D01*
X127621067Y-69049499D01*
X127695299Y-69034735D01*
X127695300Y-69034734D01*
X127695301Y-69034734D01*
X127779484Y-68978484D01*
X127835734Y-68894301D01*
X127850500Y-68820067D01*
X127850499Y-67069934D01*
X127850499Y-67069932D01*
X127835735Y-66995700D01*
X127824515Y-66978909D01*
X127779484Y-66911516D01*
X127695301Y-66855266D01*
X127621066Y-66840500D01*
X125870932Y-66840500D01*
X125796700Y-66855264D01*
X125729305Y-66900297D01*
X125712518Y-66911515D01*
X125712515Y-66911517D01*
X125656266Y-66995698D01*
X125641500Y-67069933D01*
X125641500Y-67472900D01*
X125628022Y-67523200D01*
X125591200Y-67560022D01*
X125540900Y-67573500D01*
X124141099Y-67573500D01*
X124090799Y-67560022D01*
X124053977Y-67523200D01*
X124040499Y-67472900D01*
X124040499Y-67079932D01*
X124025735Y-67005700D01*
X124014515Y-66988909D01*
X123969484Y-66921516D01*
X123885301Y-66865266D01*
X123811066Y-66850500D01*
X122060932Y-66850500D01*
X121986700Y-66865264D01*
X121919305Y-66910297D01*
X121902518Y-66921515D01*
X121902515Y-66921517D01*
X121846266Y-67005698D01*
X121831500Y-67079933D01*
X121831500Y-68830067D01*
X96305392Y-68830067D01*
X90981560Y-63506235D01*
X90954028Y-63454726D01*
X90959753Y-63396602D01*
X90996805Y-63351454D01*
X91052695Y-63334500D01*
X105333369Y-63334500D01*
X105344631Y-63335132D01*
X105380827Y-63339211D01*
X105436723Y-63328634D01*
X105440358Y-63328016D01*
X105496647Y-63319533D01*
X105496649Y-63319531D01*
X105500324Y-63318978D01*
X105509342Y-63316010D01*
X105512628Y-63314273D01*
X105512634Y-63314272D01*
X105562948Y-63287679D01*
X105566258Y-63286009D01*
X105617509Y-63261329D01*
X105617510Y-63261327D01*
X105620853Y-63259718D01*
X105628608Y-63254215D01*
X105631230Y-63251592D01*
X105631235Y-63251590D01*
X105671471Y-63211352D01*
X105674156Y-63208767D01*
X105679294Y-63204000D01*
X106209001Y-63204000D01*
X106209001Y-63414727D01*
X106211814Y-63450496D01*
X106256293Y-63603591D01*
X106337449Y-63740817D01*
X106450182Y-63853550D01*
X106587405Y-63934705D01*
X106740506Y-63979184D01*
X106776277Y-63982000D01*
X107124500Y-63982000D01*
X107124500Y-63204000D01*
X107505500Y-63204000D01*
X107505500Y-63981999D01*
X107853727Y-63981999D01*
X107889496Y-63979185D01*
X108042591Y-63934706D01*
X108179817Y-63853550D01*
X108259865Y-63773503D01*
X108304963Y-63747466D01*
X108357037Y-63747466D01*
X108402135Y-63773503D01*
X108482182Y-63853550D01*
X108619405Y-63934705D01*
X108772506Y-63979184D01*
X108808277Y-63982000D01*
X109156500Y-63982000D01*
X109156500Y-63204000D01*
X109537500Y-63204000D01*
X109537500Y-63981999D01*
X109885727Y-63981999D01*
X109921496Y-63979185D01*
X110074591Y-63934706D01*
X110211817Y-63853550D01*
X110324550Y-63740817D01*
X110405705Y-63603594D01*
X110450184Y-63450493D01*
X110453000Y-63414723D01*
X110453000Y-63204000D01*
X109537500Y-63204000D01*
X109156500Y-63204000D01*
X107505500Y-63204000D01*
X107124500Y-63204000D01*
X106209001Y-63204000D01*
X105679294Y-63204000D01*
X105718563Y-63167564D01*
X105729450Y-63153373D01*
X106063280Y-62819543D01*
X106108374Y-62793509D01*
X106160448Y-62793509D01*
X106205546Y-62819546D01*
X106209000Y-62823000D01*
X107124500Y-62823000D01*
X107124500Y-62045001D01*
X107124499Y-62045000D01*
X107505500Y-62045000D01*
X107505500Y-62823000D01*
X109156500Y-62823000D01*
X109156500Y-62045001D01*
X108808273Y-62045001D01*
X108772503Y-62047814D01*
X108619408Y-62092293D01*
X108482182Y-62173449D01*
X108402135Y-62253497D01*
X108357037Y-62279534D01*
X108304963Y-62279534D01*
X108259865Y-62253497D01*
X108179817Y-62173449D01*
X108042594Y-62092294D01*
X107889493Y-62047815D01*
X107853723Y-62045000D01*
X107505500Y-62045000D01*
X107124499Y-62045000D01*
X107080691Y-62045000D01*
X107024801Y-62028045D01*
X106987749Y-61982897D01*
X106982025Y-61924772D01*
X107009555Y-61873268D01*
X107072860Y-61809963D01*
X107105498Y-61788156D01*
X107143995Y-61780499D01*
X107838251Y-61780499D01*
X107838254Y-61780499D01*
X107898342Y-61774040D01*
X108034267Y-61723342D01*
X108150404Y-61636404D01*
X108237342Y-61520267D01*
X108237342Y-61520264D01*
X108246009Y-61508688D01*
X108246625Y-61509149D01*
X108273626Y-61474393D01*
X108331000Y-61456428D01*
X108388374Y-61474393D01*
X108415374Y-61509149D01*
X108415991Y-61508688D01*
X108424657Y-61520264D01*
X108424658Y-61520267D01*
X108511596Y-61636404D01*
X108627733Y-61723342D01*
X108763658Y-61774040D01*
X108823745Y-61780500D01*
X109870254Y-61780499D01*
X109930342Y-61774040D01*
X110066267Y-61723342D01*
X110182404Y-61636404D01*
X110269342Y-61520267D01*
X110287926Y-61470441D01*
X110324808Y-61422965D01*
X110382182Y-61405000D01*
X110427282Y-61405000D01*
X110465780Y-61412658D01*
X110498413Y-61434462D01*
X110505277Y-61441326D01*
X110603951Y-61491603D01*
X110630959Y-61505365D01*
X110671063Y-61542437D01*
X110685887Y-61595000D01*
X110671063Y-61647563D01*
X110630959Y-61684635D01*
X110505277Y-61748674D01*
X110414674Y-61839277D01*
X110356502Y-61953443D01*
X110355276Y-61961186D01*
X110342002Y-62045001D01*
X110341500Y-62048169D01*
X110341500Y-62073773D01*
X110327890Y-62124301D01*
X110290743Y-62161157D01*
X110240109Y-62174370D01*
X110189690Y-62160363D01*
X110074594Y-62092294D01*
X109921493Y-62047815D01*
X109885723Y-62045000D01*
X109537500Y-62045000D01*
X109537500Y-62823000D01*
X110452999Y-62823000D01*
X110462127Y-62813871D01*
X110465826Y-62799699D01*
X110501036Y-62763078D01*
X110549650Y-62748332D01*
X110599271Y-62759219D01*
X110619445Y-62769498D01*
X110714166Y-62784500D01*
X112427831Y-62784500D01*
X112427834Y-62784500D01*
X112522555Y-62769498D01*
X112636723Y-62711326D01*
X112727326Y-62620723D01*
X112785498Y-62506555D01*
X112800500Y-62411834D01*
X115291500Y-62411834D01*
X115300812Y-62470628D01*
X115306502Y-62506556D01*
X115323332Y-62539585D01*
X115364674Y-62620723D01*
X115455277Y-62711326D01*
X115569445Y-62769498D01*
X115664166Y-62784500D01*
X117377831Y-62784500D01*
X117377834Y-62784500D01*
X117472555Y-62769498D01*
X117586723Y-62711326D01*
X117677326Y-62620723D01*
X117735498Y-62506555D01*
X117750500Y-62411834D01*
X117750500Y-62048166D01*
X117735498Y-61953445D01*
X117677326Y-61839277D01*
X117586723Y-61748674D01*
X117472555Y-61690502D01*
X117472554Y-61690501D01*
X117461040Y-61684635D01*
X117420936Y-61647563D01*
X117406112Y-61595000D01*
X117420936Y-61542437D01*
X117461040Y-61505365D01*
X117472553Y-61499498D01*
X117472555Y-61499498D01*
X117586723Y-61441326D01*
X117677326Y-61350723D01*
X117677326Y-61350722D01*
X117682484Y-61345565D01*
X117715121Y-61323758D01*
X117753619Y-61316100D01*
X117943900Y-61316100D01*
X117994200Y-61329578D01*
X118031022Y-61366400D01*
X118044500Y-61416700D01*
X118044500Y-61723251D01*
X118044510Y-61723341D01*
X118050960Y-61783342D01*
X118101658Y-61919267D01*
X118188596Y-62035404D01*
X118304733Y-62122342D01*
X118440658Y-62173040D01*
X118500745Y-62179500D01*
X119497254Y-62179499D01*
X119557342Y-62173040D01*
X119693267Y-62122342D01*
X119809404Y-62035404D01*
X119896342Y-61919267D01*
X119947040Y-61783342D01*
X119948372Y-61770946D01*
X119965084Y-61725314D01*
X120001237Y-61692838D01*
X120048396Y-61681100D01*
X122039381Y-61681100D01*
X122077879Y-61688758D01*
X122110515Y-61710564D01*
X122156277Y-61756326D01*
X122270445Y-61814498D01*
X122365166Y-61829500D01*
X122988635Y-61829500D01*
X123021300Y-61834951D01*
X123050424Y-61850712D01*
X123073399Y-61868594D01*
X123082745Y-61876847D01*
X123083566Y-61877668D01*
X123099912Y-61889339D01*
X123103246Y-61891825D01*
X123147049Y-61925918D01*
X123150618Y-61927756D01*
X123155939Y-61929340D01*
X123203857Y-61943606D01*
X123207776Y-61944861D01*
X123255077Y-61961100D01*
X123255079Y-61961100D01*
X123260328Y-61962902D01*
X123264300Y-61963481D01*
X123269843Y-61963251D01*
X123269844Y-61963252D01*
X123319788Y-61961185D01*
X123323946Y-61961100D01*
X124681174Y-61961100D01*
X124734133Y-61976168D01*
X124771227Y-62016858D01*
X124799568Y-62073773D01*
X124856912Y-62188935D01*
X124980268Y-62352285D01*
X125131538Y-62490186D01*
X125305573Y-62597944D01*
X125496444Y-62671888D01*
X125630583Y-62696962D01*
X125697652Y-62709500D01*
X125697653Y-62709500D01*
X125902347Y-62709500D01*
X125902348Y-62709500D01*
X125952649Y-62700096D01*
X126103556Y-62671888D01*
X126294427Y-62597944D01*
X126468462Y-62490186D01*
X126619732Y-62352285D01*
X126743088Y-62188935D01*
X126834328Y-62005701D01*
X126890345Y-61808821D01*
X126909232Y-61605000D01*
X126890345Y-61401179D01*
X126834328Y-61204299D01*
X126743088Y-61021065D01*
X126619732Y-60857715D01*
X126468462Y-60719814D01*
X126294427Y-60612056D01*
X126103556Y-60538112D01*
X126103555Y-60538111D01*
X126103553Y-60538111D01*
X125902348Y-60500500D01*
X125902347Y-60500500D01*
X125697653Y-60500500D01*
X125697652Y-60500500D01*
X125496446Y-60538111D01*
X125305572Y-60612056D01*
X125205025Y-60674313D01*
X125131538Y-60719814D01*
X125129843Y-60721359D01*
X124980269Y-60857713D01*
X124958052Y-60887134D01*
X124856912Y-61021065D01*
X124856911Y-61021066D01*
X124856911Y-61021067D01*
X124771227Y-61193142D01*
X124734133Y-61233832D01*
X124681174Y-61248900D01*
X124077100Y-61248900D01*
X124026800Y-61235422D01*
X123989978Y-61198600D01*
X123976500Y-61148300D01*
X123976500Y-61093169D01*
X123966650Y-61030977D01*
X123961498Y-60998445D01*
X123903326Y-60884277D01*
X123812723Y-60793674D01*
X123755639Y-60764588D01*
X123698556Y-60735502D01*
X123668444Y-60730733D01*
X123603834Y-60720500D01*
X122365166Y-60720500D01*
X122331867Y-60725774D01*
X122271585Y-60716612D01*
X122227667Y-60674313D01*
X122216249Y-60614416D01*
X122228000Y-60516570D01*
X122228000Y-60515500D01*
X119991001Y-60515500D01*
X119991001Y-60516565D01*
X119994909Y-60549113D01*
X119987519Y-60600671D01*
X119955337Y-60641623D01*
X119906989Y-60660992D01*
X119855434Y-60653587D01*
X119814493Y-60621395D01*
X119809404Y-60614596D01*
X119693267Y-60527658D01*
X119557342Y-60476960D01*
X119497255Y-60470500D01*
X119497251Y-60470500D01*
X118500748Y-60470500D01*
X118440658Y-60476959D01*
X118440658Y-60476960D01*
X118304733Y-60527658D01*
X118304732Y-60527658D01*
X118304731Y-60527659D01*
X118229687Y-60583835D01*
X118201170Y-60598752D01*
X118169401Y-60603900D01*
X117753619Y-60603900D01*
X117715121Y-60596242D01*
X117682484Y-60574435D01*
X117635707Y-60527658D01*
X117586723Y-60478674D01*
X117472555Y-60420502D01*
X117472554Y-60420501D01*
X117461040Y-60414635D01*
X117420936Y-60377563D01*
X117406112Y-60325000D01*
X117420936Y-60272437D01*
X117461040Y-60235365D01*
X117472553Y-60229498D01*
X117472555Y-60229498D01*
X117586723Y-60171326D01*
X117677326Y-60080723D01*
X117677326Y-60080722D01*
X117682484Y-60075565D01*
X117715121Y-60053758D01*
X117753619Y-60046100D01*
X118169401Y-60046100D01*
X118201170Y-60051248D01*
X118229687Y-60066165D01*
X118276072Y-60100887D01*
X118304733Y-60122342D01*
X118440658Y-60173040D01*
X118500745Y-60179500D01*
X119497254Y-60179499D01*
X119557342Y-60173040D01*
X119693267Y-60122342D01*
X119809404Y-60035404D01*
X119814492Y-60028606D01*
X119855430Y-59996414D01*
X119906986Y-59989008D01*
X119955335Y-60008377D01*
X119987518Y-60049329D01*
X119994908Y-60100887D01*
X119991000Y-60133434D01*
X119991000Y-60134500D01*
X122227999Y-60134500D01*
X122227999Y-60133429D01*
X122216249Y-60035581D01*
X122227668Y-59975685D01*
X122271586Y-59933386D01*
X122331868Y-59924226D01*
X122365166Y-59929500D01*
X123603831Y-59929500D01*
X123603834Y-59929500D01*
X123698555Y-59914498D01*
X123812723Y-59856326D01*
X123903326Y-59765723D01*
X123961498Y-59651555D01*
X123976500Y-59556834D01*
X123976500Y-59521700D01*
X123989978Y-59471400D01*
X124026800Y-59434578D01*
X124077100Y-59421100D01*
X124681174Y-59421100D01*
X124734133Y-59436168D01*
X124771227Y-59476858D01*
X124811051Y-59556834D01*
X124856912Y-59648935D01*
X124980268Y-59812285D01*
X125131538Y-59950186D01*
X125305573Y-60057944D01*
X125496444Y-60131888D01*
X125612905Y-60153658D01*
X125697652Y-60169500D01*
X125697653Y-60169500D01*
X125902347Y-60169500D01*
X125902348Y-60169500D01*
X125987095Y-60153658D01*
X126103556Y-60131888D01*
X126294427Y-60057944D01*
X126468462Y-59950186D01*
X126619732Y-59812285D01*
X126743088Y-59648935D01*
X126834328Y-59465701D01*
X126890345Y-59268821D01*
X126909232Y-59065000D01*
X126890345Y-58861179D01*
X126834328Y-58664299D01*
X126743088Y-58481065D01*
X126619732Y-58317715D01*
X126612563Y-58311180D01*
X126597008Y-58296999D01*
X126468462Y-58179814D01*
X126294427Y-58072056D01*
X126103556Y-57998112D01*
X126103555Y-57998111D01*
X126103553Y-57998111D01*
X125902348Y-57960500D01*
X125902347Y-57960500D01*
X125697653Y-57960500D01*
X125697652Y-57960500D01*
X125496446Y-57998111D01*
X125305572Y-58072056D01*
X125251236Y-58105700D01*
X125131538Y-58179814D01*
X125131536Y-58179815D01*
X125131537Y-58179815D01*
X124980269Y-58317713D01*
X124943103Y-58366929D01*
X124856912Y-58481065D01*
X124856911Y-58481066D01*
X124856911Y-58481067D01*
X124771227Y-58653142D01*
X124734133Y-58693832D01*
X124681174Y-58708900D01*
X123341867Y-58708900D01*
X123321223Y-58706759D01*
X123318159Y-58706116D01*
X123309417Y-58704283D01*
X123281180Y-58707804D01*
X123278589Y-58708127D01*
X123266146Y-58708900D01*
X123264988Y-58708900D01*
X123245183Y-58712203D01*
X123241081Y-58712801D01*
X123185997Y-58719669D01*
X123182137Y-58720905D01*
X123133308Y-58747330D01*
X123129614Y-58749231D01*
X123079743Y-58773612D01*
X123076504Y-58776027D01*
X123072754Y-58780100D01*
X123072754Y-58780101D01*
X123065448Y-58788036D01*
X123031848Y-58812027D01*
X122991437Y-58820500D01*
X122365166Y-58820500D01*
X122308333Y-58829501D01*
X122270443Y-58835502D01*
X122156277Y-58893674D01*
X122110515Y-58939436D01*
X122077879Y-58961242D01*
X122039381Y-58968900D01*
X120048396Y-58968900D01*
X120001237Y-58957162D01*
X119965084Y-58924686D01*
X119948372Y-58879053D01*
X119947040Y-58866658D01*
X119896342Y-58730733D01*
X119809404Y-58614596D01*
X119693267Y-58527658D01*
X119557342Y-58476960D01*
X119497255Y-58470500D01*
X119497251Y-58470500D01*
X118500748Y-58470500D01*
X118440658Y-58476960D01*
X118304733Y-58527658D01*
X118188596Y-58614596D01*
X118101658Y-58730733D01*
X118053004Y-58861179D01*
X118050960Y-58866658D01*
X118044500Y-58926745D01*
X118044500Y-59125433D01*
X118044501Y-59233300D01*
X118031023Y-59283600D01*
X117994201Y-59320422D01*
X117943901Y-59333900D01*
X117753619Y-59333900D01*
X117715121Y-59326242D01*
X117682484Y-59304435D01*
X117634926Y-59256877D01*
X117586723Y-59208674D01*
X117472555Y-59150502D01*
X117472554Y-59150501D01*
X117461040Y-59144635D01*
X117420936Y-59107563D01*
X117406112Y-59055000D01*
X117420936Y-59002437D01*
X117461040Y-58965365D01*
X117472553Y-58959498D01*
X117472555Y-58959498D01*
X117586723Y-58901326D01*
X117677326Y-58810723D01*
X117735498Y-58696555D01*
X117750500Y-58601834D01*
X117750500Y-58238166D01*
X117735498Y-58143445D01*
X117677326Y-58029277D01*
X117586723Y-57938674D01*
X117511216Y-57900201D01*
X117472556Y-57880502D01*
X117448874Y-57876751D01*
X117377834Y-57865500D01*
X115664166Y-57865500D01*
X115607333Y-57874501D01*
X115569443Y-57880502D01*
X115455277Y-57938674D01*
X115364674Y-58029277D01*
X115306502Y-58143443D01*
X115306501Y-58143445D01*
X115306502Y-58143445D01*
X115291500Y-58238166D01*
X115291500Y-58601834D01*
X115300716Y-58660022D01*
X115306502Y-58696556D01*
X115318279Y-58719669D01*
X115364674Y-58810723D01*
X115455277Y-58901326D01*
X115553951Y-58951603D01*
X115580959Y-58965365D01*
X115621063Y-59002437D01*
X115635887Y-59055000D01*
X115621063Y-59107563D01*
X115580959Y-59144635D01*
X115455277Y-59208674D01*
X115364674Y-59299277D01*
X115306502Y-59413443D01*
X115302203Y-59440587D01*
X115291500Y-59508166D01*
X115291500Y-59871834D01*
X115299798Y-59924226D01*
X115306502Y-59966556D01*
X115335588Y-60023639D01*
X115364674Y-60080723D01*
X115455277Y-60171326D01*
X115526074Y-60207399D01*
X115580959Y-60235365D01*
X115621063Y-60272437D01*
X115635887Y-60325000D01*
X115621063Y-60377563D01*
X115580959Y-60414635D01*
X115455277Y-60478674D01*
X115364674Y-60569277D01*
X115306502Y-60683443D01*
X115306501Y-60683445D01*
X115306502Y-60683445D01*
X115291500Y-60778166D01*
X115291500Y-61141834D01*
X115300491Y-61198600D01*
X115306502Y-61236556D01*
X115312792Y-61248900D01*
X115364674Y-61350723D01*
X115455277Y-61441326D01*
X115553951Y-61491603D01*
X115580959Y-61505365D01*
X115621063Y-61542437D01*
X115635887Y-61595000D01*
X115621063Y-61647563D01*
X115580959Y-61684635D01*
X115455277Y-61748674D01*
X115364674Y-61839277D01*
X115306502Y-61953443D01*
X115305276Y-61961186D01*
X115291500Y-62048166D01*
X115291500Y-62411834D01*
X112800500Y-62411834D01*
X112800500Y-62151692D01*
X112808158Y-62113194D01*
X112829965Y-62080557D01*
X113544122Y-61366400D01*
X114280410Y-60630111D01*
X114296516Y-60617032D01*
X114307956Y-60609560D01*
X114328674Y-60582939D01*
X114336926Y-60573596D01*
X114338114Y-60572409D01*
X114350716Y-60554757D01*
X114353135Y-60551511D01*
X114386158Y-60509085D01*
X114386159Y-60509080D01*
X114389310Y-60505033D01*
X114392009Y-60499790D01*
X114393472Y-60494873D01*
X114393475Y-60494870D01*
X114408804Y-60443377D01*
X114410058Y-60439463D01*
X114427500Y-60388661D01*
X114427500Y-60388657D01*
X114429165Y-60383807D01*
X114430017Y-60377964D01*
X114427586Y-60319195D01*
X114427500Y-60315037D01*
X114427500Y-59290895D01*
X114429641Y-59270250D01*
X114432445Y-59256877D01*
X114428273Y-59223412D01*
X114427500Y-59210967D01*
X114427500Y-59209285D01*
X114423934Y-59187916D01*
X114423335Y-59183801D01*
X114416059Y-59125433D01*
X114414264Y-59119830D01*
X114411818Y-59115310D01*
X114411818Y-59115309D01*
X114386231Y-59068027D01*
X114384378Y-59064429D01*
X114360776Y-59016149D01*
X114360773Y-59016146D01*
X114358521Y-59011539D01*
X114354991Y-59006805D01*
X114350246Y-59002437D01*
X114339867Y-58992881D01*
X114311703Y-58966954D01*
X114308703Y-58964076D01*
X112895221Y-57550593D01*
X112882136Y-57534480D01*
X112874664Y-57523043D01*
X112865479Y-57515894D01*
X112848042Y-57502323D01*
X112838709Y-57494081D01*
X112837514Y-57492886D01*
X112819873Y-57480291D01*
X112816567Y-57477825D01*
X112814137Y-57475934D01*
X112774190Y-57444842D01*
X112770151Y-57441698D01*
X112764875Y-57438983D01*
X112708501Y-57422199D01*
X112704543Y-57420931D01*
X112648917Y-57401834D01*
X112643069Y-57400982D01*
X112584300Y-57403414D01*
X112580142Y-57403500D01*
X110601895Y-57403500D01*
X110581250Y-57401359D01*
X110567877Y-57398554D01*
X110537150Y-57402385D01*
X110534408Y-57402727D01*
X110521965Y-57403500D01*
X110520284Y-57403500D01*
X110498918Y-57407064D01*
X110494834Y-57407659D01*
X110436455Y-57414937D01*
X110430811Y-57416745D01*
X110379080Y-57444739D01*
X110375387Y-57446640D01*
X110322551Y-57472470D01*
X110317800Y-57476013D01*
X110277967Y-57519283D01*
X110275089Y-57522282D01*
X109153337Y-58644035D01*
X109120700Y-58665842D01*
X109082202Y-58673500D01*
X90740099Y-58673500D01*
X90689799Y-58660022D01*
X90652977Y-58623200D01*
X90639499Y-58572900D01*
X90639499Y-58179932D01*
X90624735Y-58105700D01*
X90602254Y-58072056D01*
X90568484Y-58021516D01*
X90484301Y-57965266D01*
X90410067Y-57950500D01*
X90410066Y-57950500D01*
X90410049Y-57950500D01*
X88786099Y-57950500D01*
X88735800Y-57937023D01*
X88698978Y-57900201D01*
X88685500Y-57849901D01*
X88685500Y-56892495D01*
X88693158Y-56853997D01*
X88714965Y-56821360D01*
X89030360Y-56505964D01*
X89062997Y-56484157D01*
X89101495Y-56476499D01*
X90410068Y-56476499D01*
X90484299Y-56461735D01*
X90484300Y-56461734D01*
X90484301Y-56461734D01*
X90568484Y-56405484D01*
X90624734Y-56321301D01*
X90639500Y-56247067D01*
X90639499Y-54496934D01*
X90639075Y-54494800D01*
X90624735Y-54422700D01*
X90591849Y-54373484D01*
X90568484Y-54338516D01*
X90484301Y-54282266D01*
X90410066Y-54267500D01*
X88659932Y-54267500D01*
X88585700Y-54282264D01*
X88528562Y-54320444D01*
X88501518Y-54338515D01*
X88501515Y-54338517D01*
X88445266Y-54422698D01*
X88430500Y-54496933D01*
X88430500Y-55805504D01*
X88422842Y-55844002D01*
X88401034Y-55876639D01*
X88245652Y-56032023D01*
X88222235Y-56055440D01*
X88170726Y-56082972D01*
X88112602Y-56077247D01*
X88067454Y-56040195D01*
X88050500Y-55984305D01*
X88050500Y-53844495D01*
X88058158Y-53805997D01*
X88079965Y-53773360D01*
X89030360Y-52822964D01*
X89062997Y-52801157D01*
X89101495Y-52793499D01*
X89968504Y-52793499D01*
X90007002Y-52801157D01*
X90039639Y-52822964D01*
X90849674Y-53632999D01*
X90857190Y-53641410D01*
X90879902Y-53669889D01*
X90879903Y-53669889D01*
X90879905Y-53669892D01*
X90926889Y-53701924D01*
X90929942Y-53704091D01*
X90975717Y-53737875D01*
X90975718Y-53737875D01*
X90978704Y-53740079D01*
X90987192Y-53744364D01*
X90990740Y-53745458D01*
X90990741Y-53745459D01*
X91045106Y-53762228D01*
X91048644Y-53763393D01*
X91102335Y-53782181D01*
X91102337Y-53782181D01*
X91105838Y-53783406D01*
X91115215Y-53785000D01*
X91118927Y-53785000D01*
X91175781Y-53785000D01*
X91179542Y-53785069D01*
X91236387Y-53787197D01*
X91236389Y-53787196D01*
X91240093Y-53787335D01*
X91257831Y-53785000D01*
X92139901Y-53785000D01*
X92190201Y-53798478D01*
X92227023Y-53835300D01*
X92240501Y-53885600D01*
X92240501Y-54215068D01*
X92255264Y-54289299D01*
X92276075Y-54320444D01*
X92311516Y-54373484D01*
X92395699Y-54429734D01*
X92469933Y-54444500D01*
X92799400Y-54444500D01*
X92849700Y-54457978D01*
X92886522Y-54494800D01*
X92900000Y-54545100D01*
X92900000Y-55944901D01*
X92886522Y-55995201D01*
X92849700Y-56032023D01*
X92799400Y-56045501D01*
X92469932Y-56045501D01*
X92395700Y-56060264D01*
X92311515Y-56116517D01*
X92255266Y-56200698D01*
X92240500Y-56274933D01*
X92240500Y-58025067D01*
X92255264Y-58099299D01*
X92277703Y-58132880D01*
X92311516Y-58183484D01*
X92395699Y-58239734D01*
X92469933Y-58254500D01*
X94220066Y-58254499D01*
X94220067Y-58254499D01*
X94294299Y-58239735D01*
X94294300Y-58239734D01*
X94294301Y-58239734D01*
X94378484Y-58183484D01*
X94434734Y-58099301D01*
X94449500Y-58025067D01*
X94449499Y-57149999D01*
X94775768Y-57149999D01*
X94794654Y-57353820D01*
X94850672Y-57550702D01*
X94896480Y-57642697D01*
X94941912Y-57733935D01*
X95065268Y-57897285D01*
X95216538Y-58035186D01*
X95390573Y-58142944D01*
X95581444Y-58216888D01*
X95695273Y-58238166D01*
X95782652Y-58254500D01*
X95782653Y-58254500D01*
X95987347Y-58254500D01*
X95987348Y-58254500D01*
X96037649Y-58245096D01*
X96188556Y-58216888D01*
X96379427Y-58142944D01*
X96553462Y-58035186D01*
X96704732Y-57897285D01*
X96828088Y-57733935D01*
X96919328Y-57550701D01*
X96975345Y-57353821D01*
X96976579Y-57340500D01*
X97205965Y-57340500D01*
X97208070Y-57364576D01*
X97263819Y-57572633D01*
X97354852Y-57767853D01*
X97478395Y-57944292D01*
X97630707Y-58096604D01*
X97807146Y-58220147D01*
X98002366Y-58311180D01*
X98210423Y-58366929D01*
X98234500Y-58369034D01*
X98234500Y-57340500D01*
X98615500Y-57340500D01*
X98615500Y-58369034D01*
X98639576Y-58366929D01*
X98847633Y-58311180D01*
X99042853Y-58220147D01*
X99219292Y-58096604D01*
X99371604Y-57944292D01*
X99495147Y-57767853D01*
X99586180Y-57572633D01*
X99641929Y-57364576D01*
X99644035Y-57340500D01*
X98615500Y-57340500D01*
X98234500Y-57340500D01*
X97205965Y-57340500D01*
X96976579Y-57340500D01*
X96994232Y-57150000D01*
X96976579Y-56959500D01*
X97205965Y-56959500D01*
X98234500Y-56959500D01*
X98234500Y-55930965D01*
X98615500Y-55930965D01*
X98615500Y-56959500D01*
X99644034Y-56959500D01*
X99641929Y-56935423D01*
X99586180Y-56727366D01*
X99495147Y-56532146D01*
X99371604Y-56355707D01*
X99219292Y-56203395D01*
X99042853Y-56079852D01*
X98847633Y-55988819D01*
X98639576Y-55933070D01*
X98615500Y-55930965D01*
X98234500Y-55930965D01*
X98210423Y-55933070D01*
X98002366Y-55988819D01*
X97807146Y-56079852D01*
X97630707Y-56203395D01*
X97478395Y-56355707D01*
X97354852Y-56532146D01*
X97263819Y-56727366D01*
X97208070Y-56935423D01*
X97205965Y-56959500D01*
X96976579Y-56959500D01*
X96975345Y-56946179D01*
X96919328Y-56749299D01*
X96828088Y-56566065D01*
X96704732Y-56402715D01*
X96553462Y-56264814D01*
X96379427Y-56157056D01*
X96188556Y-56083112D01*
X96188555Y-56083111D01*
X96188553Y-56083111D01*
X95987348Y-56045500D01*
X95987347Y-56045500D01*
X95782653Y-56045500D01*
X95782652Y-56045500D01*
X95581446Y-56083111D01*
X95390572Y-56157056D01*
X95320087Y-56200699D01*
X95216538Y-56264814D01*
X95216536Y-56264815D01*
X95216537Y-56264815D01*
X95065269Y-56402713D01*
X95020699Y-56461734D01*
X94941912Y-56566065D01*
X94941911Y-56566066D01*
X94941911Y-56566067D01*
X94850672Y-56749297D01*
X94794654Y-56946179D01*
X94775768Y-57149999D01*
X94449499Y-57149999D01*
X94449499Y-56716493D01*
X94457157Y-56677996D01*
X94478961Y-56645362D01*
X96015359Y-55108965D01*
X96047997Y-55087158D01*
X96086495Y-55079500D01*
X100909869Y-55079500D01*
X100921131Y-55080132D01*
X100957327Y-55084211D01*
X101013223Y-55073634D01*
X101016858Y-55073016D01*
X101073147Y-55064533D01*
X101073149Y-55064531D01*
X101076824Y-55063978D01*
X101085842Y-55061010D01*
X101089128Y-55059273D01*
X101089134Y-55059272D01*
X101139448Y-55032679D01*
X101142758Y-55031009D01*
X101194009Y-55006329D01*
X101194010Y-55006327D01*
X101197353Y-55004718D01*
X101205108Y-54999215D01*
X101207730Y-54996592D01*
X101207735Y-54996590D01*
X101247971Y-54956352D01*
X101250656Y-54953767D01*
X101295063Y-54912564D01*
X101305950Y-54898373D01*
X101618265Y-54586058D01*
X101669774Y-54558527D01*
X101727898Y-54564252D01*
X101773046Y-54601304D01*
X101790000Y-54657194D01*
X101790000Y-55944901D01*
X101776522Y-55995201D01*
X101739700Y-56032023D01*
X101689400Y-56045501D01*
X101359932Y-56045501D01*
X101285700Y-56060264D01*
X101201515Y-56116517D01*
X101145266Y-56200698D01*
X101130500Y-56274933D01*
X101130500Y-58025067D01*
X101145264Y-58099299D01*
X101167703Y-58132880D01*
X101201516Y-58183484D01*
X101285699Y-58239734D01*
X101359933Y-58254500D01*
X103110066Y-58254499D01*
X103110067Y-58254499D01*
X103184299Y-58239735D01*
X103184300Y-58239734D01*
X103184301Y-58239734D01*
X103268484Y-58183484D01*
X103324734Y-58099301D01*
X103339500Y-58025067D01*
X103339499Y-57149999D01*
X103665768Y-57149999D01*
X103684654Y-57353820D01*
X103740672Y-57550702D01*
X103786480Y-57642697D01*
X103831912Y-57733935D01*
X103955268Y-57897285D01*
X104106538Y-58035186D01*
X104280573Y-58142944D01*
X104471444Y-58216888D01*
X104585273Y-58238166D01*
X104672652Y-58254500D01*
X104672653Y-58254500D01*
X104877347Y-58254500D01*
X104877348Y-58254500D01*
X104927649Y-58245096D01*
X105078556Y-58216888D01*
X105269427Y-58142944D01*
X105443462Y-58035186D01*
X105594732Y-57897285D01*
X105718088Y-57733935D01*
X105809328Y-57550701D01*
X105865345Y-57353821D01*
X105866579Y-57340500D01*
X106095965Y-57340500D01*
X106098070Y-57364576D01*
X106153819Y-57572633D01*
X106244852Y-57767853D01*
X106368395Y-57944292D01*
X106520707Y-58096604D01*
X106697146Y-58220147D01*
X106892366Y-58311180D01*
X107100423Y-58366929D01*
X107124500Y-58369034D01*
X107124500Y-57340500D01*
X107505500Y-57340500D01*
X107505500Y-58369034D01*
X107529576Y-58366929D01*
X107737633Y-58311180D01*
X107932853Y-58220147D01*
X108109292Y-58096604D01*
X108261604Y-57944292D01*
X108385147Y-57767853D01*
X108476180Y-57572633D01*
X108531929Y-57364576D01*
X108534035Y-57340500D01*
X107505500Y-57340500D01*
X107124500Y-57340500D01*
X106095965Y-57340500D01*
X105866579Y-57340500D01*
X105884232Y-57150000D01*
X105866579Y-56959500D01*
X106095965Y-56959500D01*
X107124500Y-56959500D01*
X107124500Y-55930965D01*
X107505500Y-55930965D01*
X107505500Y-56959500D01*
X108534034Y-56959500D01*
X108531929Y-56935423D01*
X108476180Y-56727366D01*
X108470647Y-56715500D01*
X124580965Y-56715500D01*
X124583070Y-56739576D01*
X124638819Y-56947633D01*
X124729852Y-57142853D01*
X124853395Y-57319292D01*
X125005707Y-57471604D01*
X125182146Y-57595147D01*
X125377366Y-57686180D01*
X125585423Y-57741929D01*
X125609500Y-57744034D01*
X125609500Y-56715500D01*
X125990500Y-56715500D01*
X125990500Y-57744034D01*
X126014576Y-57741929D01*
X126222633Y-57686180D01*
X126417853Y-57595147D01*
X126594292Y-57471604D01*
X126746604Y-57319292D01*
X126870147Y-57142853D01*
X126961180Y-56947633D01*
X127016929Y-56739576D01*
X127019035Y-56715500D01*
X125990500Y-56715500D01*
X125609500Y-56715500D01*
X124580965Y-56715500D01*
X108470647Y-56715500D01*
X108385147Y-56532146D01*
X108261604Y-56355707D01*
X108240397Y-56334500D01*
X124580965Y-56334500D01*
X125609500Y-56334500D01*
X125609500Y-55305965D01*
X125990500Y-55305965D01*
X125990500Y-56334500D01*
X127019034Y-56334500D01*
X127016929Y-56310423D01*
X126961180Y-56102366D01*
X126870147Y-55907146D01*
X126746604Y-55730707D01*
X126594292Y-55578395D01*
X126417853Y-55454852D01*
X126222633Y-55363819D01*
X126014576Y-55308070D01*
X125990500Y-55305965D01*
X125609500Y-55305965D01*
X125585423Y-55308070D01*
X125377366Y-55363819D01*
X125182146Y-55454852D01*
X125005707Y-55578395D01*
X124853395Y-55730707D01*
X124729852Y-55907146D01*
X124638819Y-56102366D01*
X124583070Y-56310423D01*
X124580965Y-56334500D01*
X108240397Y-56334500D01*
X108109292Y-56203395D01*
X107932853Y-56079852D01*
X107737633Y-55988819D01*
X107529576Y-55933070D01*
X107505500Y-55930965D01*
X107124500Y-55930965D01*
X107100423Y-55933070D01*
X106892366Y-55988819D01*
X106697146Y-56079852D01*
X106520707Y-56203395D01*
X106368395Y-56355707D01*
X106244852Y-56532146D01*
X106153819Y-56727366D01*
X106098070Y-56935423D01*
X106095965Y-56959500D01*
X105866579Y-56959500D01*
X105865345Y-56946179D01*
X105809328Y-56749299D01*
X105718088Y-56566065D01*
X105594732Y-56402715D01*
X105443462Y-56264814D01*
X105269427Y-56157056D01*
X105078556Y-56083112D01*
X105078555Y-56083111D01*
X105078553Y-56083111D01*
X104877348Y-56045500D01*
X104877347Y-56045500D01*
X104672653Y-56045500D01*
X104672652Y-56045500D01*
X104471446Y-56083111D01*
X104280572Y-56157056D01*
X104210087Y-56200699D01*
X104106538Y-56264814D01*
X104106536Y-56264815D01*
X104106537Y-56264815D01*
X103955269Y-56402713D01*
X103910699Y-56461734D01*
X103831912Y-56566065D01*
X103831911Y-56566066D01*
X103831911Y-56566067D01*
X103740672Y-56749297D01*
X103684654Y-56946179D01*
X103665768Y-57149999D01*
X103339499Y-57149999D01*
X103339499Y-56716493D01*
X103347157Y-56677996D01*
X103368961Y-56645362D01*
X104421859Y-55592465D01*
X104454497Y-55570658D01*
X104492995Y-55563000D01*
X109331369Y-55563000D01*
X109342631Y-55563632D01*
X109378827Y-55567711D01*
X109434723Y-55557134D01*
X109438358Y-55556516D01*
X109494647Y-55548033D01*
X109494649Y-55548031D01*
X109498324Y-55547478D01*
X109507342Y-55544510D01*
X109510628Y-55542773D01*
X109510634Y-55542772D01*
X109560948Y-55516179D01*
X109564258Y-55514509D01*
X109615509Y-55489829D01*
X109615510Y-55489827D01*
X109618853Y-55488218D01*
X109626608Y-55482715D01*
X109629230Y-55480092D01*
X109629235Y-55480090D01*
X109669471Y-55439852D01*
X109672156Y-55437267D01*
X109716563Y-55396064D01*
X109727450Y-55381873D01*
X110635360Y-54473963D01*
X110667997Y-54452157D01*
X110706495Y-54444499D01*
X111573504Y-54444499D01*
X111612002Y-54452157D01*
X111644639Y-54473964D01*
X112098174Y-54927499D01*
X112105690Y-54935910D01*
X112128402Y-54964389D01*
X112128403Y-54964389D01*
X112128405Y-54964392D01*
X112175378Y-54996417D01*
X112178427Y-54998581D01*
X112227198Y-55034576D01*
X112235692Y-55038863D01*
X112239237Y-55039956D01*
X112239241Y-55039959D01*
X112293619Y-55056732D01*
X112297151Y-55057895D01*
X112350835Y-55076680D01*
X112350836Y-55076680D01*
X112354337Y-55077905D01*
X112363721Y-55079500D01*
X112367427Y-55079500D01*
X112424308Y-55079500D01*
X112428069Y-55079569D01*
X112484886Y-55081696D01*
X112484888Y-55081695D01*
X112488594Y-55081834D01*
X112506328Y-55079500D01*
X124864751Y-55079500D01*
X124884376Y-55081432D01*
X124924933Y-55089500D01*
X126675066Y-55089499D01*
X126675067Y-55089499D01*
X126749299Y-55074735D01*
X126749300Y-55074734D01*
X126749301Y-55074734D01*
X126833484Y-55018484D01*
X126889734Y-54934301D01*
X126904500Y-54860067D01*
X126904499Y-53109934D01*
X126904499Y-53109932D01*
X126889735Y-53035700D01*
X126878515Y-53018909D01*
X126833484Y-52951516D01*
X126749301Y-52895266D01*
X126675066Y-52880500D01*
X124924932Y-52880500D01*
X124850700Y-52895264D01*
X124784803Y-52939297D01*
X124766518Y-52951515D01*
X124766515Y-52951517D01*
X124710266Y-53035698D01*
X124710265Y-53035699D01*
X124710266Y-53035699D01*
X124695500Y-53109933D01*
X124695500Y-53641410D01*
X124695501Y-54088900D01*
X124682023Y-54139200D01*
X124645201Y-54176022D01*
X124594901Y-54189500D01*
X117321198Y-54189500D01*
X117269010Y-54174904D01*
X117231965Y-54135352D01*
X117220813Y-54082321D01*
X117238791Y-54031199D01*
X117290147Y-53957853D01*
X117381180Y-53762633D01*
X117436929Y-53554576D01*
X117439035Y-53530500D01*
X115000965Y-53530500D01*
X115003070Y-53554576D01*
X115058819Y-53762633D01*
X115149852Y-53957853D01*
X115201209Y-54031199D01*
X115219187Y-54082321D01*
X115208035Y-54135352D01*
X115170990Y-54174904D01*
X115118802Y-54189500D01*
X114624575Y-54189500D01*
X114571616Y-54174432D01*
X114534522Y-54133741D01*
X114524404Y-54079618D01*
X114544294Y-54028275D01*
X114623088Y-53923935D01*
X114714328Y-53740701D01*
X114770345Y-53543821D01*
X114789232Y-53340000D01*
X114771579Y-53149500D01*
X115000965Y-53149500D01*
X116029500Y-53149500D01*
X116029500Y-52120965D01*
X116410500Y-52120965D01*
X116410500Y-53149500D01*
X117439034Y-53149500D01*
X117436929Y-53125423D01*
X117381180Y-52917366D01*
X117290147Y-52722146D01*
X117166604Y-52545707D01*
X117014292Y-52393395D01*
X116837853Y-52269852D01*
X116642633Y-52178819D01*
X116434576Y-52123070D01*
X116410500Y-52120965D01*
X116029500Y-52120965D01*
X116005423Y-52123070D01*
X115797366Y-52178819D01*
X115602146Y-52269852D01*
X115425707Y-52393395D01*
X115273395Y-52545707D01*
X115149852Y-52722146D01*
X115058819Y-52917366D01*
X115003070Y-53125423D01*
X115000965Y-53149500D01*
X114771579Y-53149500D01*
X114770345Y-53136179D01*
X114714328Y-52939299D01*
X114623088Y-52756065D01*
X114499732Y-52592715D01*
X114348462Y-52454814D01*
X114174427Y-52347056D01*
X113983556Y-52273112D01*
X113983555Y-52273111D01*
X113983553Y-52273111D01*
X113782348Y-52235500D01*
X113782347Y-52235500D01*
X113577653Y-52235500D01*
X113577652Y-52235500D01*
X113376446Y-52273111D01*
X113185572Y-52347056D01*
X113110733Y-52393395D01*
X113011538Y-52454814D01*
X113011536Y-52454815D01*
X113011537Y-52454815D01*
X112860269Y-52592713D01*
X112798589Y-52674390D01*
X112736912Y-52756065D01*
X112736911Y-52756066D01*
X112736911Y-52756067D01*
X112645672Y-52939297D01*
X112589654Y-53136179D01*
X112570768Y-53340000D01*
X112589654Y-53543820D01*
X112645672Y-53740702D01*
X112682755Y-53815174D01*
X112736912Y-53923935D01*
X112762526Y-53957853D01*
X112815706Y-54028275D01*
X112835596Y-54079618D01*
X112825478Y-54133741D01*
X112788384Y-54174432D01*
X112735425Y-54189500D01*
X112660495Y-54189500D01*
X112621997Y-54181842D01*
X112589360Y-54160035D01*
X112273964Y-53844639D01*
X112252157Y-53812002D01*
X112244499Y-53773504D01*
X112244499Y-52464932D01*
X112229735Y-52390700D01*
X112200572Y-52347056D01*
X112173484Y-52306516D01*
X112089301Y-52250266D01*
X112015066Y-52235500D01*
X110264932Y-52235500D01*
X110190700Y-52250264D01*
X110123305Y-52295297D01*
X110106518Y-52306515D01*
X110106515Y-52306517D01*
X110050266Y-52390698D01*
X110035500Y-52464933D01*
X110035500Y-53773504D01*
X110027842Y-53812002D01*
X110006035Y-53844639D01*
X109207140Y-54643535D01*
X109174503Y-54665342D01*
X109136005Y-54673000D01*
X107822943Y-54673000D01*
X107771130Y-54658631D01*
X107734118Y-54619629D01*
X107722481Y-54567135D01*
X107739542Y-54516145D01*
X107780427Y-54481225D01*
X107932855Y-54410146D01*
X108109292Y-54286604D01*
X108261604Y-54134292D01*
X108385147Y-53957853D01*
X108476180Y-53762633D01*
X108531929Y-53554576D01*
X108534035Y-53530500D01*
X106095965Y-53530500D01*
X106098070Y-53554576D01*
X106153819Y-53762633D01*
X106244852Y-53957853D01*
X106368395Y-54134292D01*
X106520707Y-54286604D01*
X106697144Y-54410146D01*
X106849573Y-54481225D01*
X106890458Y-54516145D01*
X106907519Y-54567135D01*
X106895882Y-54619629D01*
X106858870Y-54658631D01*
X106807057Y-54673000D01*
X104297631Y-54673000D01*
X104286368Y-54672367D01*
X104283263Y-54672017D01*
X104250172Y-54668288D01*
X104194304Y-54678859D01*
X104190596Y-54679489D01*
X104130698Y-54688517D01*
X104121641Y-54691497D01*
X104068082Y-54719802D01*
X104064729Y-54721494D01*
X104010166Y-54747771D01*
X104002376Y-54753299D01*
X103959537Y-54796136D01*
X103956831Y-54798743D01*
X103912437Y-54839935D01*
X103901549Y-54854124D01*
X102851735Y-55903939D01*
X102800226Y-55931471D01*
X102742102Y-55925746D01*
X102696954Y-55888694D01*
X102680000Y-55832804D01*
X102680000Y-54545099D01*
X102693478Y-54494799D01*
X102730300Y-54457977D01*
X102780600Y-54444499D01*
X103110068Y-54444499D01*
X103184299Y-54429735D01*
X103184300Y-54429734D01*
X103184301Y-54429734D01*
X103268484Y-54373484D01*
X103324734Y-54289301D01*
X103339500Y-54215067D01*
X103339499Y-53340000D01*
X103665768Y-53340000D01*
X103684654Y-53543820D01*
X103740672Y-53740702D01*
X103771606Y-53802825D01*
X103831912Y-53923935D01*
X103955268Y-54087285D01*
X103955269Y-54087286D01*
X103966629Y-54097642D01*
X104106538Y-54225186D01*
X104280573Y-54332944D01*
X104471444Y-54406888D01*
X104593656Y-54429733D01*
X104672652Y-54444500D01*
X104672653Y-54444500D01*
X104877347Y-54444500D01*
X104877348Y-54444500D01*
X104927649Y-54435096D01*
X105078556Y-54406888D01*
X105269427Y-54332944D01*
X105443462Y-54225186D01*
X105594732Y-54087285D01*
X105718088Y-53923935D01*
X105809328Y-53740701D01*
X105865345Y-53543821D01*
X105884232Y-53340000D01*
X105866579Y-53149500D01*
X106095965Y-53149500D01*
X107124500Y-53149500D01*
X107124500Y-52120965D01*
X107505500Y-52120965D01*
X107505500Y-53149500D01*
X108534034Y-53149500D01*
X108531929Y-53125423D01*
X108476180Y-52917366D01*
X108385147Y-52722146D01*
X108261604Y-52545707D01*
X108109292Y-52393395D01*
X107932853Y-52269852D01*
X107737633Y-52178819D01*
X107529576Y-52123070D01*
X107505500Y-52120965D01*
X107124500Y-52120965D01*
X107100423Y-52123070D01*
X106892366Y-52178819D01*
X106697146Y-52269852D01*
X106520707Y-52393395D01*
X106368395Y-52545707D01*
X106244852Y-52722146D01*
X106153819Y-52917366D01*
X106098070Y-53125423D01*
X106095965Y-53149500D01*
X105866579Y-53149500D01*
X105865345Y-53136179D01*
X105809328Y-52939299D01*
X105718088Y-52756065D01*
X105594732Y-52592715D01*
X105443462Y-52454814D01*
X105269427Y-52347056D01*
X105078556Y-52273112D01*
X105078555Y-52273111D01*
X105078553Y-52273111D01*
X104877348Y-52235500D01*
X104877347Y-52235500D01*
X104672653Y-52235500D01*
X104672652Y-52235500D01*
X104471446Y-52273111D01*
X104280572Y-52347056D01*
X104205733Y-52393395D01*
X104106538Y-52454814D01*
X104106536Y-52454815D01*
X104106537Y-52454815D01*
X103955269Y-52592713D01*
X103893589Y-52674390D01*
X103831912Y-52756065D01*
X103831911Y-52756066D01*
X103831911Y-52756067D01*
X103740672Y-52939297D01*
X103684654Y-53136179D01*
X103665768Y-53340000D01*
X103339499Y-53340000D01*
X103339499Y-52464934D01*
X103339499Y-52464932D01*
X103324735Y-52390700D01*
X103295572Y-52347056D01*
X103268484Y-52306516D01*
X103184301Y-52250266D01*
X103110066Y-52235500D01*
X101359932Y-52235500D01*
X101285700Y-52250264D01*
X101218305Y-52295297D01*
X101201518Y-52306515D01*
X101201515Y-52306517D01*
X101145266Y-52390698D01*
X101130500Y-52464933D01*
X101130500Y-53773504D01*
X101122842Y-53812002D01*
X101101035Y-53844639D01*
X100785640Y-54160035D01*
X100753003Y-54181842D01*
X100714505Y-54189500D01*
X99526198Y-54189500D01*
X99474010Y-54174904D01*
X99436965Y-54135352D01*
X99425813Y-54082321D01*
X99443791Y-54031199D01*
X99495147Y-53957853D01*
X99586180Y-53762633D01*
X99641929Y-53554576D01*
X99644035Y-53530500D01*
X97205965Y-53530500D01*
X97208070Y-53554576D01*
X97263819Y-53762633D01*
X97354852Y-53957853D01*
X97406209Y-54031199D01*
X97424187Y-54082321D01*
X97413035Y-54135352D01*
X97375990Y-54174904D01*
X97323802Y-54189500D01*
X96829575Y-54189500D01*
X96776616Y-54174432D01*
X96739522Y-54133741D01*
X96729404Y-54079618D01*
X96749294Y-54028275D01*
X96828088Y-53923935D01*
X96919328Y-53740701D01*
X96975345Y-53543821D01*
X96994232Y-53340000D01*
X96976579Y-53149500D01*
X97205965Y-53149500D01*
X98234500Y-53149500D01*
X98234500Y-52120965D01*
X98615500Y-52120965D01*
X98615500Y-53149500D01*
X99644034Y-53149500D01*
X99641929Y-53125423D01*
X99586180Y-52917366D01*
X99495147Y-52722146D01*
X99371604Y-52545707D01*
X99219292Y-52393395D01*
X99042853Y-52269852D01*
X98847633Y-52178819D01*
X98639576Y-52123070D01*
X98615500Y-52120965D01*
X98234500Y-52120965D01*
X98210423Y-52123070D01*
X98002366Y-52178819D01*
X97807146Y-52269852D01*
X97630707Y-52393395D01*
X97478395Y-52545707D01*
X97354852Y-52722146D01*
X97263819Y-52917366D01*
X97208070Y-53125423D01*
X97205965Y-53149500D01*
X96976579Y-53149500D01*
X96975345Y-53136179D01*
X96919328Y-52939299D01*
X96828088Y-52756065D01*
X96704732Y-52592715D01*
X96553462Y-52454814D01*
X96379427Y-52347056D01*
X96188556Y-52273112D01*
X96188555Y-52273111D01*
X96188553Y-52273111D01*
X95987348Y-52235500D01*
X95987347Y-52235500D01*
X95782653Y-52235500D01*
X95782652Y-52235500D01*
X95581446Y-52273111D01*
X95390572Y-52347056D01*
X95315733Y-52393395D01*
X95216538Y-52454814D01*
X95216536Y-52454815D01*
X95216537Y-52454815D01*
X95065269Y-52592713D01*
X95003589Y-52674390D01*
X94941912Y-52756065D01*
X94941911Y-52756066D01*
X94941911Y-52756067D01*
X94850672Y-52939297D01*
X94794654Y-53136179D01*
X94775768Y-53340000D01*
X94794654Y-53543820D01*
X94850672Y-53740702D01*
X94881606Y-53802825D01*
X94941912Y-53923935D01*
X95065268Y-54087285D01*
X95065269Y-54087286D01*
X95076629Y-54097642D01*
X95216538Y-54225186D01*
X95370387Y-54320445D01*
X95409455Y-54365341D01*
X95416314Y-54424461D01*
X95388562Y-54477111D01*
X93961735Y-55903939D01*
X93910226Y-55931471D01*
X93852102Y-55925746D01*
X93806954Y-55888694D01*
X93790000Y-55832804D01*
X93790000Y-54545099D01*
X93803478Y-54494799D01*
X93840300Y-54457977D01*
X93890600Y-54444499D01*
X94220068Y-54444499D01*
X94294299Y-54429735D01*
X94294300Y-54429734D01*
X94294301Y-54429734D01*
X94378484Y-54373484D01*
X94434734Y-54289301D01*
X94449500Y-54215067D01*
X94449499Y-52464934D01*
X94449499Y-52464932D01*
X94434735Y-52390700D01*
X94405572Y-52347056D01*
X94378484Y-52306516D01*
X94294301Y-52250266D01*
X94220066Y-52235500D01*
X92469932Y-52235500D01*
X92395700Y-52250264D01*
X92328305Y-52295297D01*
X92311518Y-52306515D01*
X92311515Y-52306517D01*
X92255266Y-52390698D01*
X92240500Y-52464933D01*
X92240500Y-52794400D01*
X92227022Y-52844700D01*
X92190200Y-52881522D01*
X92139900Y-52895000D01*
X91411995Y-52895000D01*
X91373497Y-52887342D01*
X91340860Y-52865535D01*
X90668964Y-52193639D01*
X90647157Y-52161002D01*
X90639499Y-52122504D01*
X90639499Y-50813932D01*
X90624735Y-50739700D01*
X90613515Y-50722909D01*
X90568484Y-50655516D01*
X90484301Y-50599266D01*
X90410066Y-50584500D01*
X88659932Y-50584500D01*
X88585700Y-50599264D01*
X88518305Y-50644297D01*
X88501518Y-50655515D01*
X88501515Y-50655517D01*
X88445266Y-50739698D01*
X88430500Y-50813933D01*
X88430500Y-52122504D01*
X88422842Y-52161002D01*
X88401035Y-52193639D01*
X87312497Y-53282176D01*
X87304088Y-53289691D01*
X87275607Y-53312405D01*
X87243579Y-53359379D01*
X87241405Y-53362443D01*
X87205434Y-53411184D01*
X87201131Y-53419706D01*
X87183281Y-53477571D01*
X87182107Y-53481140D01*
X87162098Y-53538326D01*
X87160500Y-53547734D01*
X87160500Y-53608297D01*
X87160430Y-53612058D01*
X87158165Y-53672594D01*
X87160500Y-53690326D01*
X87160500Y-62363595D01*
X87159867Y-62374859D01*
X87155788Y-62411053D01*
X86360500Y-62411053D01*
X86360500Y-49631100D01*
X86373978Y-49580800D01*
X86410800Y-49543978D01*
X86461100Y-49530500D01*
X122153894Y-49530500D01*
X122154029Y-49530527D01*
X122173998Y-49530540D01*
X122174000Y-49530541D01*
X122174001Y-49530540D01*
X122192452Y-49530553D01*
X122195247Y-49530000D01*
X124694626Y-49530000D01*
X124731987Y-49537194D01*
G37*
%TD.AperFunction*%
%TD*%
M02*
