%TF.GenerationSoftware,KiCad,Pcbnew,7.0.1-0*%
%TF.CreationDate,2023-11-23T13:33:13-05:00*%
%TF.ProjectId,OBDBajaInterface,4f424442-616a-4614-996e-746572666163,rev?*%
%TF.SameCoordinates,Original*%
%TF.FileFunction,Soldermask,Bot*%
%TF.FilePolarity,Negative*%
%FSLAX46Y46*%
G04 Gerber Fmt 4.6, Leading zero omitted, Abs format (unit mm)*
G04 Created by KiCad (PCBNEW 7.0.1-0) date 2023-11-23 13:33:13*
%MOMM*%
%LPD*%
G01*
G04 APERTURE LIST*
%ADD10R,1.700000X1.700000*%
%ADD11O,1.700000X1.700000*%
%ADD12C,3.200000*%
G04 APERTURE END LIST*
D10*
%TO.C,J8*%
X111140000Y-53340000D03*
D11*
X113680000Y-53340000D03*
X116220000Y-53340000D03*
%TD*%
D10*
%TO.C,J12*%
X107315000Y-90170000D03*
D11*
X104775000Y-90170000D03*
X102235000Y-90170000D03*
%TD*%
D10*
%TO.C,J10*%
X102235000Y-57150000D03*
D11*
X104775000Y-57150000D03*
X107315000Y-57150000D03*
%TD*%
D10*
%TO.C,J4*%
X89535000Y-51689000D03*
%TD*%
D12*
%TO.C,MH3*%
X125984000Y-46355000D03*
%TD*%
D10*
%TO.C,J5*%
X89535000Y-91821000D03*
%TD*%
D12*
%TO.C,MH4*%
X125984000Y-97155000D03*
%TD*%
D10*
%TO.C,J17*%
X122936000Y-67955000D03*
D11*
X122936000Y-70495000D03*
X122936000Y-73035000D03*
X122936000Y-75575000D03*
%TD*%
D10*
%TO.C,J11*%
X98425000Y-90170000D03*
D11*
X95885000Y-90170000D03*
X93345000Y-90170000D03*
%TD*%
D10*
%TO.C,J13*%
X116205000Y-90170000D03*
D11*
X113665000Y-90170000D03*
X111125000Y-90170000D03*
%TD*%
D10*
%TO.C,J14*%
X98425000Y-86360000D03*
D11*
X95885000Y-86360000D03*
X93345000Y-86360000D03*
%TD*%
D10*
%TO.C,J2*%
X89535000Y-65278000D03*
D11*
X89535000Y-67818000D03*
X89535000Y-70358000D03*
X89535000Y-72898000D03*
X89535000Y-75438000D03*
X89535000Y-77978000D03*
X89535000Y-80518000D03*
X89535000Y-83058000D03*
X89535000Y-85598000D03*
X89535000Y-88138000D03*
%TD*%
D10*
%TO.C,J15*%
X107315000Y-86360000D03*
D11*
X104775000Y-86360000D03*
X102235000Y-86360000D03*
%TD*%
D10*
%TO.C,J1*%
X89535000Y-59055000D03*
D11*
X89535000Y-61595000D03*
%TD*%
D10*
%TO.C,J7*%
X102235000Y-53340000D03*
D11*
X104775000Y-53340000D03*
X107315000Y-53340000D03*
%TD*%
D10*
%TO.C,J6*%
X93345000Y-53340000D03*
D11*
X95885000Y-53340000D03*
X98425000Y-53340000D03*
%TD*%
D10*
%TO.C,J19*%
X125800000Y-53985000D03*
D11*
X125800000Y-56525000D03*
X125800000Y-59065000D03*
X125800000Y-61605000D03*
%TD*%
D10*
%TO.C,J9*%
X93345000Y-57150000D03*
D11*
X95885000Y-57150000D03*
X98425000Y-57150000D03*
%TD*%
D10*
%TO.C,J18*%
X89535000Y-55372000D03*
%TD*%
%TO.C,J16*%
X126746000Y-67945000D03*
D11*
X126746000Y-70485000D03*
X126746000Y-73025000D03*
X126746000Y-75565000D03*
%TD*%
M02*
