%TF.GenerationSoftware,KiCad,Pcbnew,8.0.6*%
%TF.CreationDate,2025-02-08T00:08:42-05:00*%
%TF.ProjectId,BajaSensorBoard,42616a61-5365-46e7-936f-72426f617264,rev?*%
%TF.SameCoordinates,Original*%
%TF.FileFunction,Soldermask,Top*%
%TF.FilePolarity,Negative*%
%FSLAX46Y46*%
G04 Gerber Fmt 4.6, Leading zero omitted, Abs format (unit mm)*
G04 Created by KiCad (PCBNEW 8.0.6) date 2025-02-08 00:08:42*
%MOMM*%
%LPD*%
G01*
G04 APERTURE LIST*
G04 Aperture macros list*
%AMRoundRect*
0 Rectangle with rounded corners*
0 $1 Rounding radius*
0 $2 $3 $4 $5 $6 $7 $8 $9 X,Y pos of 4 corners*
0 Add a 4 corners polygon primitive as box body*
4,1,4,$2,$3,$4,$5,$6,$7,$8,$9,$2,$3,0*
0 Add four circle primitives for the rounded corners*
1,1,$1+$1,$2,$3*
1,1,$1+$1,$4,$5*
1,1,$1+$1,$6,$7*
1,1,$1+$1,$8,$9*
0 Add four rect primitives between the rounded corners*
20,1,$1+$1,$2,$3,$4,$5,0*
20,1,$1+$1,$4,$5,$6,$7,0*
20,1,$1+$1,$6,$7,$8,$9,0*
20,1,$1+$1,$8,$9,$2,$3,0*%
G04 Aperture macros list end*
%ADD10RoundRect,0.250000X0.475000X-0.337500X0.475000X0.337500X-0.475000X0.337500X-0.475000X-0.337500X0*%
%ADD11RoundRect,0.250000X-0.325000X-0.450000X0.325000X-0.450000X0.325000X0.450000X-0.325000X0.450000X0*%
%ADD12RoundRect,0.250000X-0.475000X0.337500X-0.475000X-0.337500X0.475000X-0.337500X0.475000X0.337500X0*%
%ADD13C,3.200000*%
%ADD14RoundRect,0.150000X0.587500X0.150000X-0.587500X0.150000X-0.587500X-0.150000X0.587500X-0.150000X0*%
%ADD15RoundRect,0.250000X0.350000X0.450000X-0.350000X0.450000X-0.350000X-0.450000X0.350000X-0.450000X0*%
%ADD16R,1.750000X0.450000*%
%ADD17R,3.200000X0.400000*%
%ADD18RoundRect,0.150000X-0.825000X-0.150000X0.825000X-0.150000X0.825000X0.150000X-0.825000X0.150000X0*%
%ADD19R,1.700000X1.700000*%
%ADD20O,1.700000X1.700000*%
%ADD21RoundRect,0.250000X-0.450000X0.350000X-0.450000X-0.350000X0.450000X-0.350000X0.450000X0.350000X0*%
G04 APERTURE END LIST*
D10*
%TO.C,C1*%
X162560000Y-102405000D03*
X162560000Y-100330000D03*
%TD*%
D11*
%TO.C,D2*%
X156210000Y-92075000D03*
X158260000Y-92075000D03*
%TD*%
D12*
%TO.C,C5*%
X139065000Y-92075000D03*
X139065000Y-94150000D03*
%TD*%
%TO.C,C4*%
X154736800Y-110722500D03*
X154736800Y-112797500D03*
%TD*%
D13*
%TO.C,H4*%
X127000000Y-116205000D03*
%TD*%
D12*
%TO.C,C3*%
X144780000Y-107721400D03*
X144780000Y-109796400D03*
%TD*%
D14*
%TO.C,D1*%
X162860200Y-107680800D03*
X162860200Y-105780800D03*
X160985200Y-106730800D03*
%TD*%
D12*
%TO.C,C6*%
X132715000Y-98255000D03*
X132715000Y-100330000D03*
%TD*%
D15*
%TO.C,R2*%
X153910000Y-92075000D03*
X151910000Y-92075000D03*
%TD*%
D16*
%TO.C,U2*%
X154730000Y-108365000D03*
X154730000Y-107715000D03*
X154730000Y-107065000D03*
X154730000Y-106415000D03*
X154730000Y-105765000D03*
X154730000Y-105115000D03*
X154730000Y-104465000D03*
X154730000Y-103815000D03*
X154730000Y-103165000D03*
X154730000Y-102515000D03*
X154730000Y-101865000D03*
X154730000Y-101215000D03*
X154730000Y-100565000D03*
X154730000Y-99915000D03*
X147530000Y-99915000D03*
X147530000Y-100565000D03*
X147530000Y-101215000D03*
X147530000Y-101865000D03*
X147530000Y-102515000D03*
X147530000Y-103165000D03*
X147530000Y-103815000D03*
X147530000Y-104465000D03*
X147530000Y-105115000D03*
X147530000Y-105765000D03*
X147530000Y-106415000D03*
X147530000Y-107065000D03*
X147530000Y-107715000D03*
X147530000Y-108365000D03*
%TD*%
D10*
%TO.C,C2*%
X145034000Y-104923500D03*
X145034000Y-102848500D03*
%TD*%
D13*
%TO.C,H3*%
X165100000Y-92075000D03*
%TD*%
D17*
%TO.C,Y1*%
X158750000Y-101740000D03*
X158750000Y-102940000D03*
X158750000Y-104140000D03*
%TD*%
D15*
%TO.C,R3*%
X153910000Y-94615000D03*
X151910000Y-94615000D03*
%TD*%
D13*
%TO.C,H1*%
X127000000Y-92075000D03*
%TD*%
D11*
%TO.C,D3*%
X156210000Y-94615000D03*
X158260000Y-94615000D03*
%TD*%
D18*
%TO.C,U1*%
X135320000Y-100330000D03*
X135320000Y-101600000D03*
X135320000Y-102870000D03*
X135320000Y-104140000D03*
X135320000Y-105410000D03*
X135320000Y-106680000D03*
X135320000Y-107950000D03*
X140270000Y-107950000D03*
X140270000Y-106680000D03*
X140270000Y-105410000D03*
X140270000Y-104140000D03*
X140270000Y-102870000D03*
X140270000Y-101600000D03*
X140270000Y-100330000D03*
%TD*%
D19*
%TO.C,J3*%
X126365000Y-110490000D03*
D20*
X126365000Y-107950000D03*
X126365000Y-105410000D03*
X126365000Y-102870000D03*
X126365000Y-100330000D03*
X126365000Y-97790000D03*
%TD*%
D13*
%TO.C,H2*%
X165100000Y-116205000D03*
%TD*%
D19*
%TO.C,J1*%
X142240000Y-94615000D03*
D20*
X142240000Y-92075000D03*
X144780000Y-94615000D03*
X144780000Y-92075000D03*
X147320000Y-94615000D03*
X147320000Y-92075000D03*
%TD*%
D21*
%TO.C,R1*%
X158115000Y-105730800D03*
X158115000Y-107730800D03*
%TD*%
D19*
%TO.C,J2*%
X165735000Y-100330000D03*
D20*
X165735000Y-102870000D03*
X165735000Y-105410000D03*
X165735000Y-107950000D03*
%TD*%
M02*
