M48
; DRILL file {KiCad 8.0.6} date 2025-02-08T00:08:49-0500
; FORMAT={-:-/ absolute / metric / decimal}
; #@! TF.CreationDate,2025-02-08T00:08:49-05:00
; #@! TF.GenerationSoftware,Kicad,Pcbnew,8.0.6
; #@! TF.FileFunction,Plated,1,2,PTH
FMAT,2
METRIC
; #@! TA.AperFunction,Plated,PTH,ViaDrill
T1C0.305
; #@! TA.AperFunction,Plated,PTH,ViaDrill
T2C0.356
; #@! TA.AperFunction,Plated,PTH,ComponentDrill
T3C1.000
%
G90
G05
T1
X130.175Y-109.093
X138.684Y-106.68
X140.97Y-99.06
X141.986Y-107.95
X144.449Y-101.015
X144.768Y-99.299
X145.935Y-99.924
X149.098Y-103.886
X149.098Y-108.356
X153.162Y-105.765
X156.09Y-102.243
X156.792Y-103.264
T2
X131.191Y-100.33
X137.16Y-92.075
X143.002Y-110.722
X153.183Y-110.722
X158.75Y-110.744
X160.782Y-98.298
T3
X126.365Y-97.79
X126.365Y-100.33
X126.365Y-102.87
X126.365Y-105.41
X126.365Y-107.95
X126.365Y-110.49
X142.24Y-92.075
X142.24Y-94.615
X144.78Y-92.075
X144.78Y-94.615
X147.32Y-92.075
X147.32Y-94.615
X165.735Y-100.33
X165.735Y-102.87
X165.735Y-105.41
X165.735Y-107.95
M30
