%TF.GenerationSoftware,KiCad,Pcbnew,8.0.6*%
%TF.CreationDate,2025-02-08T00:08:42-05:00*%
%TF.ProjectId,BajaSensorBoard,42616a61-5365-46e7-936f-72426f617264,rev?*%
%TF.SameCoordinates,Original*%
%TF.FileFunction,Copper,L2,Bot*%
%TF.FilePolarity,Positive*%
%FSLAX46Y46*%
G04 Gerber Fmt 4.6, Leading zero omitted, Abs format (unit mm)*
G04 Created by KiCad (PCBNEW 8.0.6) date 2025-02-08 00:08:42*
%MOMM*%
%LPD*%
G01*
G04 APERTURE LIST*
%TA.AperFunction,ComponentPad*%
%ADD10R,1.700000X1.700000*%
%TD*%
%TA.AperFunction,ComponentPad*%
%ADD11O,1.700000X1.700000*%
%TD*%
%TA.AperFunction,ViaPad*%
%ADD12C,0.711200*%
%TD*%
%TA.AperFunction,ViaPad*%
%ADD13C,0.609600*%
%TD*%
%TA.AperFunction,Conductor*%
%ADD14C,0.304800*%
%TD*%
%TA.AperFunction,Conductor*%
%ADD15C,0.203200*%
%TD*%
G04 APERTURE END LIST*
D10*
%TO.P,J3,1,Pin_1*%
%TO.N,+5V*%
X126365000Y-110490000D03*
D11*
%TO.P,J3,2,Pin_2*%
%TO.N,/USER0*%
X126365000Y-107950000D03*
%TO.P,J3,3,Pin_3*%
%TO.N,/USER1*%
X126365000Y-105410000D03*
%TO.P,J3,4,Pin_4*%
%TO.N,/USER2*%
X126365000Y-102870000D03*
%TO.P,J3,5,Pin_5*%
%TO.N,/USER3*%
X126365000Y-100330000D03*
%TO.P,J3,6,Pin_6*%
%TO.N,GND*%
X126365000Y-97790000D03*
%TD*%
D10*
%TO.P,J1,1,Pin_1*%
%TO.N,/MISO*%
X142240000Y-94615000D03*
D11*
%TO.P,J1,2,Pin_2*%
%TO.N,+5V*%
X142240000Y-92075000D03*
%TO.P,J1,3,Pin_3*%
%TO.N,/SCK*%
X144780000Y-94615000D03*
%TO.P,J1,4,Pin_4*%
%TO.N,/MOSI*%
X144780000Y-92075000D03*
%TO.P,J1,5,Pin_5*%
%TO.N,/~{RESET}*%
X147320000Y-94615000D03*
%TO.P,J1,6,Pin_6*%
%TO.N,GND*%
X147320000Y-92075000D03*
%TD*%
D10*
%TO.P,J2,1,Pin_1*%
%TO.N,+5V*%
X165735000Y-100330000D03*
D11*
%TO.P,J2,2,Pin_2*%
%TO.N,GND*%
X165735000Y-102870000D03*
%TO.P,J2,3,Pin_3*%
%TO.N,/CAN_P*%
X165735000Y-105410000D03*
%TO.P,J2,4,Pin_4*%
%TO.N,/CAN_N*%
X165735000Y-107950000D03*
%TD*%
D12*
%TO.N,+5V*%
X160782000Y-98298000D03*
X131191000Y-100330000D03*
X153183500Y-110722500D03*
X143002000Y-110722500D03*
X137160000Y-92075000D03*
X158750000Y-110744000D03*
D13*
%TO.N,GND*%
X156792325Y-103263984D03*
X156089559Y-102242539D03*
X140970000Y-99060000D03*
%TO.N,/MISO*%
X144449053Y-101015053D03*
%TO.N,/SCK*%
X144767657Y-99299188D03*
%TO.N,/MOSI*%
X145934800Y-99923600D03*
%TO.N,/USER0*%
X130175000Y-109093000D03*
X138684000Y-106680000D03*
%TO.N,/STBY*%
X153162000Y-105765000D03*
X141986000Y-107950000D03*
%TO.N,Net-(U2-RXD)*%
X149098000Y-103886000D03*
X149098000Y-108356400D03*
%TD*%
D14*
%TO.N,+5V*%
X131191000Y-105664000D02*
X126365000Y-110490000D01*
X131191000Y-100330000D02*
X131191000Y-98044000D01*
X160782000Y-108712000D02*
X158750000Y-110744000D01*
X143002000Y-110722500D02*
X153183500Y-110722500D01*
X160782000Y-98298000D02*
X160782000Y-108712000D01*
X131191000Y-100330000D02*
X131191000Y-105664000D01*
X131191000Y-98044000D02*
X137160000Y-92075000D01*
D15*
%TO.N,/MISO*%
X144449053Y-101015053D02*
X142240000Y-98806000D01*
X142240000Y-98806000D02*
X142240000Y-94615000D01*
%TO.N,/SCK*%
X144780000Y-99286845D02*
X144767657Y-99299188D01*
X144780000Y-94615000D02*
X144780000Y-99286845D01*
%TO.N,/MOSI*%
X145934800Y-99923600D02*
X145934800Y-93229800D01*
X145934800Y-93229800D02*
X144780000Y-92075000D01*
%TO.N,/USER0*%
X130175000Y-109093000D02*
X136271000Y-109093000D01*
X136271000Y-109093000D02*
X138684000Y-106680000D01*
%TO.N,/STBY*%
X143002000Y-108966000D02*
X141986000Y-107950000D01*
X149961000Y-108966000D02*
X143002000Y-108966000D01*
X153162000Y-105765000D02*
X149961000Y-108966000D01*
%TO.N,Net-(U2-RXD)*%
X149098000Y-108356400D02*
X149098000Y-103886000D01*
%TD*%
%TA.AperFunction,Conductor*%
%TO.N,GND*%
G36*
X168986621Y-88150502D02*
G01*
X169033114Y-88204158D01*
X169044500Y-88256500D01*
X169044500Y-120023500D01*
X169024498Y-120091621D01*
X168970842Y-120138114D01*
X168918500Y-120149500D01*
X123181500Y-120149500D01*
X123113379Y-120129498D01*
X123066886Y-120075842D01*
X123055500Y-120023500D01*
X123055500Y-116045257D01*
X123748500Y-116045257D01*
X123748500Y-116364742D01*
X123779812Y-116682653D01*
X123779815Y-116682674D01*
X123842136Y-116995989D01*
X123934878Y-117301718D01*
X123934879Y-117301722D01*
X124057134Y-117596872D01*
X124207733Y-117878623D01*
X124385216Y-118144245D01*
X124385227Y-118144260D01*
X124587886Y-118391200D01*
X124587904Y-118391220D01*
X124813779Y-118617095D01*
X124813789Y-118617104D01*
X124813793Y-118617108D01*
X125060748Y-118819779D01*
X125326379Y-118997268D01*
X125608128Y-119147866D01*
X125903282Y-119270122D01*
X126208997Y-119362860D01*
X126209006Y-119362861D01*
X126209010Y-119362863D01*
X126315309Y-119384006D01*
X126522331Y-119425186D01*
X126840264Y-119456500D01*
X126840273Y-119456500D01*
X127159727Y-119456500D01*
X127159736Y-119456500D01*
X127477669Y-119425186D01*
X127735745Y-119373851D01*
X127790989Y-119362863D01*
X127790991Y-119362862D01*
X127791003Y-119362860D01*
X128096718Y-119270122D01*
X128391872Y-119147866D01*
X128673621Y-118997268D01*
X128939252Y-118819779D01*
X129186207Y-118617108D01*
X129412108Y-118391207D01*
X129614779Y-118144252D01*
X129792268Y-117878621D01*
X129942866Y-117596872D01*
X130065122Y-117301718D01*
X130157860Y-116996003D01*
X130220186Y-116682669D01*
X130251500Y-116364736D01*
X130251500Y-116045264D01*
X130251499Y-116045257D01*
X161848500Y-116045257D01*
X161848500Y-116364742D01*
X161879812Y-116682653D01*
X161879815Y-116682674D01*
X161942136Y-116995989D01*
X162034878Y-117301718D01*
X162034879Y-117301722D01*
X162157134Y-117596872D01*
X162307733Y-117878623D01*
X162485216Y-118144245D01*
X162485227Y-118144260D01*
X162687886Y-118391200D01*
X162687904Y-118391220D01*
X162913779Y-118617095D01*
X162913789Y-118617104D01*
X162913793Y-118617108D01*
X163160748Y-118819779D01*
X163426379Y-118997268D01*
X163708128Y-119147866D01*
X164003282Y-119270122D01*
X164308997Y-119362860D01*
X164309006Y-119362861D01*
X164309010Y-119362863D01*
X164415309Y-119384006D01*
X164622331Y-119425186D01*
X164940264Y-119456500D01*
X164940273Y-119456500D01*
X165259727Y-119456500D01*
X165259736Y-119456500D01*
X165577669Y-119425186D01*
X165835745Y-119373851D01*
X165890989Y-119362863D01*
X165890991Y-119362862D01*
X165891003Y-119362860D01*
X166196718Y-119270122D01*
X166491872Y-119147866D01*
X166773621Y-118997268D01*
X167039252Y-118819779D01*
X167286207Y-118617108D01*
X167512108Y-118391207D01*
X167714779Y-118144252D01*
X167892268Y-117878621D01*
X168042866Y-117596872D01*
X168165122Y-117301718D01*
X168257860Y-116996003D01*
X168320186Y-116682669D01*
X168351500Y-116364736D01*
X168351500Y-116045264D01*
X168320186Y-115727331D01*
X168257860Y-115413997D01*
X168165122Y-115108282D01*
X168042866Y-114813128D01*
X167892268Y-114531379D01*
X167714779Y-114265748D01*
X167512108Y-114018793D01*
X167512104Y-114018789D01*
X167512095Y-114018779D01*
X167286220Y-113792904D01*
X167286200Y-113792886D01*
X167039260Y-113590227D01*
X167039245Y-113590216D01*
X166773623Y-113412733D01*
X166491872Y-113262134D01*
X166196722Y-113139879D01*
X166196718Y-113139878D01*
X165891003Y-113047140D01*
X165891000Y-113047139D01*
X165890989Y-113047136D01*
X165577674Y-112984815D01*
X165577669Y-112984814D01*
X165577662Y-112984813D01*
X165577653Y-112984812D01*
X165259742Y-112953500D01*
X165259736Y-112953500D01*
X164940264Y-112953500D01*
X164940257Y-112953500D01*
X164622346Y-112984812D01*
X164622334Y-112984813D01*
X164622331Y-112984814D01*
X164622328Y-112984814D01*
X164622325Y-112984815D01*
X164309010Y-113047136D01*
X164003281Y-113139878D01*
X164003277Y-113139879D01*
X163708127Y-113262134D01*
X163426376Y-113412733D01*
X163160754Y-113590216D01*
X163160739Y-113590227D01*
X162913799Y-113792886D01*
X162913779Y-113792904D01*
X162687904Y-114018779D01*
X162687886Y-114018799D01*
X162485227Y-114265739D01*
X162485216Y-114265754D01*
X162307733Y-114531376D01*
X162157134Y-114813127D01*
X162034879Y-115108277D01*
X162034878Y-115108281D01*
X161942136Y-115414010D01*
X161879815Y-115727325D01*
X161879812Y-115727346D01*
X161848500Y-116045257D01*
X130251499Y-116045257D01*
X130220186Y-115727331D01*
X130157860Y-115413997D01*
X130065122Y-115108282D01*
X129942866Y-114813128D01*
X129792268Y-114531379D01*
X129614779Y-114265748D01*
X129412108Y-114018793D01*
X129412104Y-114018789D01*
X129412095Y-114018779D01*
X129186220Y-113792904D01*
X129186200Y-113792886D01*
X128939260Y-113590227D01*
X128939245Y-113590216D01*
X128673623Y-113412733D01*
X128391872Y-113262134D01*
X128096722Y-113139879D01*
X128096718Y-113139878D01*
X127791003Y-113047140D01*
X127791000Y-113047139D01*
X127790989Y-113047136D01*
X127477674Y-112984815D01*
X127477669Y-112984814D01*
X127477662Y-112984813D01*
X127477653Y-112984812D01*
X127159742Y-112953500D01*
X127159736Y-112953500D01*
X126840264Y-112953500D01*
X126840257Y-112953500D01*
X126522346Y-112984812D01*
X126522334Y-112984813D01*
X126522331Y-112984814D01*
X126522328Y-112984814D01*
X126522325Y-112984815D01*
X126209010Y-113047136D01*
X125903281Y-113139878D01*
X125903277Y-113139879D01*
X125608127Y-113262134D01*
X125326376Y-113412733D01*
X125060754Y-113590216D01*
X125060739Y-113590227D01*
X124813799Y-113792886D01*
X124813779Y-113792904D01*
X124587904Y-114018779D01*
X124587886Y-114018799D01*
X124385227Y-114265739D01*
X124385216Y-114265754D01*
X124207733Y-114531376D01*
X124057134Y-114813127D01*
X123934879Y-115108277D01*
X123934878Y-115108281D01*
X123842136Y-115414010D01*
X123779815Y-115727325D01*
X123779812Y-115727346D01*
X123748500Y-116045257D01*
X123055500Y-116045257D01*
X123055500Y-109614930D01*
X125260500Y-109614930D01*
X125260500Y-111365063D01*
X125260501Y-111365073D01*
X125275265Y-111439300D01*
X125331516Y-111523484D01*
X125415697Y-111579733D01*
X125415699Y-111579734D01*
X125489933Y-111594500D01*
X127240066Y-111594499D01*
X127240069Y-111594498D01*
X127240073Y-111594498D01*
X127289326Y-111584701D01*
X127314301Y-111579734D01*
X127398484Y-111523484D01*
X127454734Y-111439301D01*
X127469500Y-111365067D01*
X127469500Y-110722497D01*
X142387419Y-110722497D01*
X142387419Y-110722502D01*
X142405277Y-110869576D01*
X142457817Y-111008113D01*
X142541978Y-111130041D01*
X142541979Y-111130042D01*
X142541980Y-111130043D01*
X142652878Y-111228290D01*
X142784067Y-111297143D01*
X142927920Y-111332600D01*
X142927921Y-111332600D01*
X143076079Y-111332600D01*
X143076080Y-111332600D01*
X143219933Y-111297143D01*
X143351122Y-111228290D01*
X143426977Y-111161087D01*
X143491230Y-111130887D01*
X143510531Y-111129400D01*
X152674969Y-111129400D01*
X152743090Y-111149402D01*
X152758520Y-111161085D01*
X152834378Y-111228290D01*
X152965567Y-111297143D01*
X153109420Y-111332600D01*
X153109421Y-111332600D01*
X153257579Y-111332600D01*
X153257580Y-111332600D01*
X153401433Y-111297143D01*
X153532622Y-111228290D01*
X153643520Y-111130043D01*
X153727684Y-111008110D01*
X153780222Y-110869579D01*
X153795470Y-110744002D01*
X153795471Y-110743997D01*
X158135419Y-110743997D01*
X158135419Y-110744002D01*
X158153277Y-110891076D01*
X158205817Y-111029613D01*
X158289978Y-111151541D01*
X158289979Y-111151542D01*
X158289980Y-111151543D01*
X158400878Y-111249790D01*
X158532067Y-111318643D01*
X158675920Y-111354100D01*
X158675921Y-111354100D01*
X158824079Y-111354100D01*
X158824080Y-111354100D01*
X158967933Y-111318643D01*
X159099122Y-111249790D01*
X159210020Y-111151543D01*
X159294184Y-111029610D01*
X159346722Y-110891079D01*
X159346722Y-110891078D01*
X159346723Y-110891076D01*
X159364749Y-110742615D01*
X159392816Y-110677402D01*
X159400714Y-110668728D01*
X161107601Y-108961843D01*
X161161170Y-108869058D01*
X161188900Y-108765570D01*
X161188900Y-108658430D01*
X161188900Y-107949995D01*
X164625768Y-107949995D01*
X164625768Y-107950004D01*
X164644654Y-108153819D01*
X164666918Y-108232069D01*
X164700672Y-108350701D01*
X164791912Y-108533935D01*
X164811132Y-108559387D01*
X164915266Y-108697284D01*
X165066536Y-108835185D01*
X165240566Y-108942940D01*
X165240568Y-108942940D01*
X165240573Y-108942944D01*
X165431444Y-109016888D01*
X165632653Y-109054500D01*
X165632655Y-109054500D01*
X165837345Y-109054500D01*
X165837347Y-109054500D01*
X166038556Y-109016888D01*
X166229427Y-108942944D01*
X166403462Y-108835186D01*
X166554732Y-108697285D01*
X166678088Y-108533935D01*
X166769328Y-108350701D01*
X166825345Y-108153821D01*
X166844232Y-107950000D01*
X166844157Y-107949192D01*
X166825345Y-107746180D01*
X166825345Y-107746179D01*
X166769328Y-107549299D01*
X166678088Y-107366065D01*
X166613867Y-107281022D01*
X166554733Y-107202715D01*
X166403463Y-107064814D01*
X166229433Y-106957059D01*
X166229428Y-106957057D01*
X166229427Y-106957056D01*
X166038559Y-106883113D01*
X166038560Y-106883113D01*
X166038557Y-106883112D01*
X166038556Y-106883112D01*
X165837347Y-106845500D01*
X165632653Y-106845500D01*
X165431444Y-106883112D01*
X165431439Y-106883113D01*
X165240577Y-106957054D01*
X165240566Y-106957059D01*
X165066536Y-107064814D01*
X164915266Y-107202715D01*
X164791913Y-107366063D01*
X164700671Y-107549301D01*
X164644654Y-107746180D01*
X164625768Y-107949995D01*
X161188900Y-107949995D01*
X161188900Y-105409995D01*
X164625768Y-105409995D01*
X164625768Y-105410004D01*
X164644654Y-105613819D01*
X164700671Y-105810698D01*
X164700672Y-105810701D01*
X164791912Y-105993935D01*
X164791913Y-105993936D01*
X164915266Y-106157284D01*
X165066536Y-106295185D01*
X165240566Y-106402940D01*
X165240568Y-106402940D01*
X165240573Y-106402944D01*
X165431444Y-106476888D01*
X165632653Y-106514500D01*
X165632655Y-106514500D01*
X165837345Y-106514500D01*
X165837347Y-106514500D01*
X166038556Y-106476888D01*
X166229427Y-106402944D01*
X166403462Y-106295186D01*
X166554732Y-106157285D01*
X166678088Y-105993935D01*
X166769328Y-105810701D01*
X166825345Y-105613821D01*
X166844232Y-105410000D01*
X166840164Y-105366103D01*
X166826635Y-105220096D01*
X166825345Y-105206179D01*
X166769328Y-105009299D01*
X166678088Y-104826065D01*
X166637538Y-104772368D01*
X166554733Y-104662715D01*
X166403463Y-104524814D01*
X166229433Y-104417059D01*
X166229428Y-104417057D01*
X166229427Y-104417056D01*
X166229422Y-104417054D01*
X166038559Y-104343113D01*
X166038560Y-104343113D01*
X166038557Y-104343112D01*
X166038556Y-104343112D01*
X165837347Y-104305500D01*
X165632653Y-104305500D01*
X165467875Y-104336302D01*
X165431439Y-104343113D01*
X165240577Y-104417054D01*
X165240566Y-104417059D01*
X165066536Y-104524814D01*
X164915266Y-104662715D01*
X164791913Y-104826063D01*
X164700671Y-105009301D01*
X164644654Y-105206180D01*
X164625768Y-105409995D01*
X161188900Y-105409995D01*
X161188900Y-102679499D01*
X164643921Y-102679499D01*
X164643923Y-102679500D01*
X165268407Y-102679500D01*
X165235000Y-102804174D01*
X165235000Y-102935826D01*
X165268407Y-103060500D01*
X164643922Y-103060500D01*
X164645147Y-103073725D01*
X164701138Y-103270514D01*
X164701140Y-103270519D01*
X164792340Y-103453672D01*
X164915637Y-103616946D01*
X165066838Y-103754784D01*
X165240796Y-103862493D01*
X165240803Y-103862496D01*
X165431578Y-103936403D01*
X165431576Y-103936403D01*
X165544500Y-103957511D01*
X165544500Y-103336593D01*
X165669174Y-103370000D01*
X165800826Y-103370000D01*
X165925500Y-103336593D01*
X165925500Y-103957511D01*
X166038422Y-103936403D01*
X166229196Y-103862496D01*
X166229203Y-103862493D01*
X166403161Y-103754784D01*
X166554362Y-103616946D01*
X166677659Y-103453672D01*
X166768859Y-103270519D01*
X166768861Y-103270514D01*
X166824852Y-103073725D01*
X166826078Y-103060500D01*
X166201593Y-103060500D01*
X166235000Y-102935826D01*
X166235000Y-102804174D01*
X166201593Y-102679500D01*
X166826077Y-102679500D01*
X166826078Y-102679499D01*
X166824852Y-102666274D01*
X166768861Y-102469485D01*
X166768859Y-102469480D01*
X166677659Y-102286327D01*
X166554362Y-102123053D01*
X166403161Y-101985215D01*
X166229203Y-101877506D01*
X166229196Y-101877503D01*
X166038422Y-101803596D01*
X166038423Y-101803596D01*
X165925500Y-101782487D01*
X165925500Y-102403406D01*
X165800826Y-102370000D01*
X165669174Y-102370000D01*
X165544500Y-102403406D01*
X165544500Y-101782487D01*
X165431576Y-101803596D01*
X165240803Y-101877503D01*
X165240796Y-101877506D01*
X165066838Y-101985215D01*
X164915637Y-102123053D01*
X164792340Y-102286327D01*
X164701140Y-102469480D01*
X164701138Y-102469485D01*
X164645147Y-102666274D01*
X164643921Y-102679499D01*
X161188900Y-102679499D01*
X161188900Y-99454930D01*
X164630500Y-99454930D01*
X164630500Y-101205063D01*
X164630501Y-101205073D01*
X164645265Y-101279300D01*
X164701516Y-101363484D01*
X164785697Y-101419733D01*
X164785699Y-101419734D01*
X164859933Y-101434500D01*
X166610066Y-101434499D01*
X166610069Y-101434498D01*
X166610073Y-101434498D01*
X166659326Y-101424701D01*
X166684301Y-101419734D01*
X166768484Y-101363484D01*
X166824734Y-101279301D01*
X166839500Y-101205067D01*
X166839499Y-99454934D01*
X166839498Y-99454930D01*
X166839498Y-99454926D01*
X166824734Y-99380699D01*
X166770269Y-99299188D01*
X166768484Y-99296516D01*
X166718494Y-99263113D01*
X166684302Y-99240266D01*
X166610067Y-99225500D01*
X164859936Y-99225500D01*
X164859926Y-99225501D01*
X164785699Y-99240265D01*
X164701515Y-99296516D01*
X164645266Y-99380697D01*
X164630500Y-99454930D01*
X161188900Y-99454930D01*
X161188900Y-98809310D01*
X161208902Y-98741189D01*
X161231346Y-98714998D01*
X161242020Y-98705543D01*
X161326184Y-98583610D01*
X161378722Y-98445079D01*
X161396581Y-98298000D01*
X161378722Y-98150921D01*
X161326184Y-98012390D01*
X161326182Y-98012388D01*
X161326182Y-98012386D01*
X161242021Y-97890458D01*
X161131121Y-97792209D01*
X161131117Y-97792207D01*
X160999931Y-97723356D01*
X160856081Y-97687900D01*
X160856080Y-97687900D01*
X160707920Y-97687900D01*
X160707918Y-97687900D01*
X160564068Y-97723356D01*
X160432882Y-97792207D01*
X160432878Y-97792209D01*
X160321978Y-97890458D01*
X160237817Y-98012386D01*
X160185277Y-98150923D01*
X160167419Y-98297997D01*
X160167419Y-98298002D01*
X160185277Y-98445076D01*
X160237817Y-98583613D01*
X160314981Y-98695403D01*
X160321980Y-98705543D01*
X160332651Y-98714997D01*
X160370378Y-98775139D01*
X160375100Y-98809310D01*
X160375100Y-108491266D01*
X160355098Y-108559387D01*
X160338195Y-108580361D01*
X158821561Y-110096995D01*
X158759249Y-110131021D01*
X158732466Y-110133900D01*
X158675918Y-110133900D01*
X158532068Y-110169356D01*
X158400882Y-110238207D01*
X158400878Y-110238209D01*
X158289978Y-110336458D01*
X158205817Y-110458386D01*
X158153277Y-110596923D01*
X158135419Y-110743997D01*
X153795471Y-110743997D01*
X153798081Y-110722502D01*
X153798081Y-110722497D01*
X153782833Y-110596923D01*
X153780222Y-110575421D01*
X153727684Y-110436890D01*
X153727682Y-110436888D01*
X153727682Y-110436886D01*
X153643521Y-110314958D01*
X153532621Y-110216709D01*
X153532617Y-110216707D01*
X153401431Y-110147856D01*
X153257581Y-110112400D01*
X153257580Y-110112400D01*
X153109420Y-110112400D01*
X153109418Y-110112400D01*
X152965568Y-110147856D01*
X152834382Y-110216707D01*
X152834378Y-110216709D01*
X152758523Y-110283912D01*
X152694270Y-110314113D01*
X152674969Y-110315600D01*
X143510531Y-110315600D01*
X143442410Y-110295598D01*
X143426977Y-110283912D01*
X143351121Y-110216709D01*
X143351117Y-110216707D01*
X143219931Y-110147856D01*
X143076081Y-110112400D01*
X143076080Y-110112400D01*
X142927920Y-110112400D01*
X142927918Y-110112400D01*
X142784068Y-110147856D01*
X142652882Y-110216707D01*
X142652878Y-110216709D01*
X142541978Y-110314958D01*
X142457817Y-110436886D01*
X142405277Y-110575423D01*
X142387419Y-110722497D01*
X127469500Y-110722497D01*
X127469499Y-110013132D01*
X127489501Y-109945012D01*
X127506399Y-109924043D01*
X128337443Y-109092999D01*
X129610874Y-109092999D01*
X129610874Y-109093000D01*
X129630095Y-109239006D01*
X129630097Y-109239010D01*
X129686450Y-109375057D01*
X129686457Y-109375069D01*
X129776102Y-109491897D01*
X129892930Y-109581542D01*
X129892937Y-109581547D01*
X130028993Y-109637904D01*
X130175000Y-109657126D01*
X130321007Y-109637904D01*
X130457063Y-109581547D01*
X130573897Y-109491897D01*
X130573899Y-109491895D01*
X130579737Y-109486058D01*
X130582244Y-109488565D01*
X130626714Y-109456362D01*
X130668873Y-109449100D01*
X136317879Y-109449100D01*
X136317881Y-109449100D01*
X136408450Y-109424833D01*
X136489651Y-109377951D01*
X137917601Y-107949999D01*
X141421874Y-107949999D01*
X141421874Y-107950000D01*
X141441095Y-108096006D01*
X141441097Y-108096010D01*
X141497450Y-108232057D01*
X141497457Y-108232069D01*
X141587102Y-108348897D01*
X141703930Y-108438542D01*
X141703937Y-108438547D01*
X141839993Y-108494904D01*
X141986000Y-108514126D01*
X141994260Y-108514126D01*
X141994260Y-108517874D01*
X142047264Y-108525778D01*
X142083420Y-108551022D01*
X142717049Y-109184651D01*
X142783349Y-109250951D01*
X142864550Y-109297833D01*
X142955119Y-109322100D01*
X142955121Y-109322100D01*
X150007879Y-109322100D01*
X150007881Y-109322100D01*
X150098450Y-109297833D01*
X150179651Y-109250951D01*
X153064581Y-106366019D01*
X153126890Y-106331997D01*
X153153740Y-106330913D01*
X153153740Y-106329126D01*
X153162000Y-106329126D01*
X153308007Y-106309904D01*
X153444063Y-106253547D01*
X153560897Y-106163897D01*
X153650547Y-106047063D01*
X153706904Y-105911007D01*
X153726126Y-105765000D01*
X153706904Y-105618993D01*
X153650547Y-105482937D01*
X153620106Y-105443265D01*
X153560897Y-105366102D01*
X153444069Y-105276457D01*
X153444065Y-105276455D01*
X153444063Y-105276453D01*
X153444060Y-105276451D01*
X153444057Y-105276450D01*
X153308010Y-105220097D01*
X153308006Y-105220095D01*
X153162000Y-105200874D01*
X153015993Y-105220095D01*
X153015989Y-105220097D01*
X152879942Y-105276450D01*
X152879930Y-105276457D01*
X152763102Y-105366102D01*
X152673457Y-105482930D01*
X152673450Y-105482942D01*
X152617097Y-105618989D01*
X152617095Y-105618993D01*
X152597874Y-105764999D01*
X152597874Y-105773258D01*
X152594453Y-105773258D01*
X152585307Y-105828195D01*
X152560977Y-105862419D01*
X149863208Y-108560189D01*
X149800896Y-108594215D01*
X149730081Y-108589150D01*
X149673245Y-108546603D01*
X149648434Y-108480083D01*
X149649190Y-108454653D01*
X149662126Y-108356400D01*
X149642904Y-108210393D01*
X149586547Y-108074337D01*
X149496897Y-107957503D01*
X149496895Y-107957500D01*
X149491059Y-107951664D01*
X149493530Y-107949192D01*
X149461252Y-107904375D01*
X149454100Y-107862527D01*
X149454100Y-104379872D01*
X149474102Y-104311751D01*
X149492371Y-104292050D01*
X149491058Y-104290737D01*
X149496895Y-104284899D01*
X149586542Y-104168069D01*
X149586547Y-104168063D01*
X149642904Y-104032007D01*
X149662126Y-103886000D01*
X149642904Y-103739993D01*
X149586547Y-103603937D01*
X149586542Y-103603930D01*
X149496897Y-103487102D01*
X149380069Y-103397457D01*
X149380065Y-103397455D01*
X149380063Y-103397453D01*
X149380060Y-103397451D01*
X149380057Y-103397450D01*
X149244010Y-103341097D01*
X149244006Y-103341095D01*
X149098000Y-103321874D01*
X148951993Y-103341095D01*
X148951989Y-103341097D01*
X148815942Y-103397450D01*
X148815930Y-103397457D01*
X148699102Y-103487102D01*
X148609457Y-103603930D01*
X148609450Y-103603942D01*
X148553097Y-103739989D01*
X148553095Y-103739993D01*
X148533874Y-103885999D01*
X148533874Y-103886000D01*
X148553095Y-104032006D01*
X148553097Y-104032010D01*
X148609450Y-104168057D01*
X148609457Y-104168069D01*
X148699104Y-104284899D01*
X148704942Y-104290737D01*
X148702275Y-104293403D01*
X148734127Y-104336302D01*
X148741900Y-104379872D01*
X148741900Y-107862527D01*
X148721898Y-107930648D01*
X148703764Y-107950487D01*
X148704941Y-107951664D01*
X148699104Y-107957500D01*
X148609457Y-108074330D01*
X148609450Y-108074342D01*
X148553097Y-108210389D01*
X148553095Y-108210393D01*
X148533874Y-108356399D01*
X148533874Y-108356400D01*
X148548494Y-108467454D01*
X148537554Y-108537603D01*
X148490426Y-108590701D01*
X148423572Y-108609900D01*
X143201692Y-108609900D01*
X143133571Y-108589898D01*
X143112597Y-108572995D01*
X142587022Y-108047420D01*
X142552996Y-107985108D01*
X142551968Y-107958260D01*
X142550126Y-107958260D01*
X142550126Y-107949999D01*
X142530904Y-107803993D01*
X142530902Y-107803989D01*
X142474549Y-107667942D01*
X142474547Y-107667937D01*
X142474542Y-107667930D01*
X142384897Y-107551102D01*
X142268069Y-107461457D01*
X142268065Y-107461455D01*
X142268063Y-107461453D01*
X142268060Y-107461451D01*
X142268057Y-107461450D01*
X142132010Y-107405097D01*
X142132006Y-107405095D01*
X141986000Y-107385874D01*
X141839993Y-107405095D01*
X141839989Y-107405097D01*
X141703942Y-107461450D01*
X141703930Y-107461457D01*
X141587102Y-107551102D01*
X141497457Y-107667930D01*
X141497450Y-107667942D01*
X141441097Y-107803989D01*
X141441095Y-107803993D01*
X141421874Y-107949999D01*
X137917601Y-107949999D01*
X138586580Y-107281019D01*
X138648889Y-107246997D01*
X138675740Y-107245886D01*
X138675740Y-107244126D01*
X138684000Y-107244126D01*
X138830007Y-107224904D01*
X138966063Y-107168547D01*
X139082897Y-107078897D01*
X139172547Y-106962063D01*
X139228904Y-106826007D01*
X139248126Y-106680000D01*
X139228904Y-106533993D01*
X139172547Y-106397937D01*
X139148058Y-106366022D01*
X139082897Y-106281102D01*
X138966069Y-106191457D01*
X138966065Y-106191455D01*
X138966063Y-106191453D01*
X138966060Y-106191451D01*
X138966057Y-106191450D01*
X138830010Y-106135097D01*
X138830006Y-106135095D01*
X138684000Y-106115874D01*
X138537993Y-106135095D01*
X138537989Y-106135097D01*
X138401942Y-106191450D01*
X138401930Y-106191457D01*
X138285102Y-106281102D01*
X138195457Y-106397930D01*
X138195450Y-106397942D01*
X138139097Y-106533989D01*
X138139095Y-106533993D01*
X138119874Y-106679999D01*
X138119874Y-106688258D01*
X138116490Y-106688258D01*
X138107209Y-106743398D01*
X138082977Y-106777420D01*
X136160403Y-108699995D01*
X136098091Y-108734020D01*
X136071308Y-108736900D01*
X130668873Y-108736900D01*
X130600752Y-108716898D01*
X130580937Y-108698741D01*
X130579737Y-108699942D01*
X130573899Y-108694104D01*
X130457069Y-108604457D01*
X130457065Y-108604455D01*
X130457063Y-108604453D01*
X130457060Y-108604451D01*
X130457057Y-108604450D01*
X130321010Y-108548097D01*
X130321006Y-108548095D01*
X130175000Y-108528874D01*
X130028993Y-108548095D01*
X130028989Y-108548097D01*
X129892942Y-108604450D01*
X129892930Y-108604457D01*
X129776102Y-108694102D01*
X129686457Y-108810930D01*
X129686450Y-108810942D01*
X129630097Y-108946989D01*
X129630095Y-108946993D01*
X129610874Y-109092999D01*
X128337443Y-109092999D01*
X131516601Y-105913843D01*
X131570170Y-105821057D01*
X131597900Y-105717569D01*
X131597900Y-105610430D01*
X131597900Y-100841310D01*
X131617902Y-100773189D01*
X131640346Y-100746998D01*
X131651020Y-100737543D01*
X131735184Y-100615610D01*
X131787722Y-100477079D01*
X131805581Y-100330000D01*
X131805580Y-100329995D01*
X131787722Y-100182923D01*
X131787722Y-100182921D01*
X131735184Y-100044390D01*
X131735182Y-100044388D01*
X131735182Y-100044386D01*
X131651021Y-99922458D01*
X131651017Y-99922454D01*
X131640345Y-99912999D01*
X131602621Y-99852854D01*
X131597900Y-99818688D01*
X131597900Y-98264734D01*
X131617902Y-98196613D01*
X131634805Y-98175639D01*
X136070514Y-93739930D01*
X141135500Y-93739930D01*
X141135500Y-95490063D01*
X141135501Y-95490073D01*
X141150265Y-95564300D01*
X141206516Y-95648484D01*
X141290697Y-95704733D01*
X141290699Y-95704734D01*
X141364933Y-95719500D01*
X141757900Y-95719499D01*
X141826020Y-95739501D01*
X141872514Y-95793156D01*
X141883900Y-95845499D01*
X141883900Y-98759119D01*
X141883900Y-98852881D01*
X141895061Y-98894536D01*
X141908166Y-98943446D01*
X141908169Y-98943454D01*
X141955046Y-99024647D01*
X141955054Y-99024657D01*
X143848030Y-100917632D01*
X143882055Y-100979944D01*
X143883360Y-101006795D01*
X143884927Y-101006795D01*
X143884927Y-101015053D01*
X143904148Y-101161059D01*
X143904150Y-101161063D01*
X143960503Y-101297110D01*
X143960510Y-101297122D01*
X144050155Y-101413950D01*
X144166983Y-101503595D01*
X144166990Y-101503600D01*
X144303046Y-101559957D01*
X144449053Y-101579179D01*
X144595060Y-101559957D01*
X144731116Y-101503600D01*
X144847950Y-101413950D01*
X144937600Y-101297116D01*
X144993957Y-101161060D01*
X145013179Y-101015053D01*
X144993957Y-100869046D01*
X144937600Y-100732990D01*
X144935844Y-100730701D01*
X144847950Y-100616155D01*
X144731122Y-100526510D01*
X144731118Y-100526508D01*
X144731116Y-100526506D01*
X144731113Y-100526504D01*
X144731110Y-100526503D01*
X144595063Y-100470150D01*
X144595059Y-100470148D01*
X144449053Y-100450927D01*
X144440795Y-100450927D01*
X144440795Y-100447579D01*
X144385458Y-100438166D01*
X144351632Y-100414030D01*
X142633005Y-98695403D01*
X142598979Y-98633091D01*
X142596100Y-98606308D01*
X142596100Y-95845499D01*
X142616102Y-95777378D01*
X142669758Y-95730885D01*
X142722100Y-95719499D01*
X143115064Y-95719499D01*
X143115066Y-95719499D01*
X143115069Y-95719498D01*
X143115072Y-95719498D01*
X143151663Y-95712219D01*
X143189301Y-95704734D01*
X143273484Y-95648484D01*
X143329734Y-95564301D01*
X143344500Y-95490067D01*
X143344499Y-93739934D01*
X143344498Y-93739930D01*
X143344498Y-93739926D01*
X143329734Y-93665699D01*
X143273483Y-93581515D01*
X143189302Y-93525266D01*
X143115067Y-93510500D01*
X141364936Y-93510500D01*
X141364926Y-93510501D01*
X141290699Y-93525265D01*
X141206515Y-93581516D01*
X141150266Y-93665697D01*
X141135500Y-93739930D01*
X136070514Y-93739930D01*
X137088439Y-92722005D01*
X137150751Y-92687979D01*
X137177534Y-92685100D01*
X137234079Y-92685100D01*
X137234080Y-92685100D01*
X137377933Y-92649643D01*
X137509122Y-92580790D01*
X137620020Y-92482543D01*
X137704184Y-92360610D01*
X137756722Y-92222079D01*
X137767437Y-92133831D01*
X137774581Y-92075002D01*
X137774581Y-92074997D01*
X137774581Y-92074995D01*
X141130768Y-92074995D01*
X141130768Y-92075004D01*
X141149654Y-92278819D01*
X141179014Y-92382007D01*
X141205672Y-92475701D01*
X141296912Y-92658935D01*
X141296913Y-92658936D01*
X141420266Y-92822284D01*
X141571536Y-92960185D01*
X141745566Y-93067940D01*
X141745568Y-93067940D01*
X141745573Y-93067944D01*
X141936444Y-93141888D01*
X142137653Y-93179500D01*
X142137655Y-93179500D01*
X142342345Y-93179500D01*
X142342347Y-93179500D01*
X142543556Y-93141888D01*
X142734427Y-93067944D01*
X142908462Y-92960186D01*
X143059732Y-92822285D01*
X143183088Y-92658935D01*
X143274328Y-92475701D01*
X143330345Y-92278821D01*
X143349232Y-92075000D01*
X143349232Y-92074995D01*
X143670768Y-92074995D01*
X143670768Y-92075004D01*
X143689654Y-92278819D01*
X143719014Y-92382007D01*
X143745672Y-92475701D01*
X143836912Y-92658935D01*
X143836913Y-92658936D01*
X143960266Y-92822284D01*
X144111536Y-92960185D01*
X144285566Y-93067940D01*
X144285568Y-93067940D01*
X144285573Y-93067944D01*
X144476444Y-93141888D01*
X144677653Y-93179500D01*
X144677655Y-93179500D01*
X144882345Y-93179500D01*
X144882347Y-93179500D01*
X145083556Y-93141888D01*
X145194203Y-93099021D01*
X145264950Y-93093065D01*
X145327686Y-93126301D01*
X145328816Y-93127418D01*
X145541795Y-93340397D01*
X145575821Y-93402709D01*
X145578700Y-93429492D01*
X145578700Y-93584240D01*
X145558698Y-93652361D01*
X145505042Y-93698854D01*
X145434768Y-93708958D01*
X145386370Y-93691367D01*
X145274438Y-93622062D01*
X145274431Y-93622058D01*
X145274427Y-93622056D01*
X145176813Y-93584240D01*
X145083559Y-93548113D01*
X145083560Y-93548113D01*
X145083557Y-93548112D01*
X145083556Y-93548112D01*
X144882347Y-93510500D01*
X144677653Y-93510500D01*
X144476444Y-93548112D01*
X144476439Y-93548113D01*
X144285577Y-93622054D01*
X144285566Y-93622059D01*
X144111536Y-93729814D01*
X143960266Y-93867715D01*
X143836913Y-94031063D01*
X143745671Y-94214301D01*
X143689654Y-94411180D01*
X143670768Y-94614995D01*
X143670768Y-94615004D01*
X143689654Y-94818819D01*
X143703439Y-94867268D01*
X143745672Y-95015701D01*
X143836912Y-95198935D01*
X143836913Y-95198936D01*
X143960266Y-95362284D01*
X144111536Y-95500185D01*
X144285566Y-95607940D01*
X144285568Y-95607940D01*
X144285573Y-95607944D01*
X144328901Y-95624729D01*
X144343417Y-95630353D01*
X144399712Y-95673612D01*
X144423682Y-95740440D01*
X144423900Y-95747844D01*
X144423900Y-98795844D01*
X144403898Y-98863965D01*
X144374605Y-98895806D01*
X144368758Y-98900292D01*
X144279114Y-99017118D01*
X144279107Y-99017130D01*
X144222754Y-99153177D01*
X144222752Y-99153181D01*
X144203531Y-99299187D01*
X144203531Y-99299188D01*
X144222752Y-99445194D01*
X144222754Y-99445198D01*
X144279107Y-99581245D01*
X144279114Y-99581257D01*
X144368759Y-99698085D01*
X144485587Y-99787730D01*
X144485594Y-99787735D01*
X144621650Y-99844092D01*
X144767657Y-99863314D01*
X144913664Y-99844092D01*
X145049720Y-99787735D01*
X145166554Y-99698085D01*
X145166556Y-99698083D01*
X145172394Y-99692246D01*
X145174647Y-99694499D01*
X145219787Y-99661495D01*
X145290656Y-99657229D01*
X145352580Y-99691955D01*
X145385901Y-99754647D01*
X145387408Y-99796486D01*
X145370674Y-99923599D01*
X145370674Y-99923600D01*
X145389895Y-100069606D01*
X145389897Y-100069610D01*
X145446250Y-100205657D01*
X145446257Y-100205669D01*
X145535902Y-100322497D01*
X145652730Y-100412142D01*
X145652737Y-100412147D01*
X145788793Y-100468504D01*
X145934800Y-100487726D01*
X146080807Y-100468504D01*
X146216863Y-100412147D01*
X146333697Y-100322497D01*
X146423347Y-100205663D01*
X146479704Y-100069607D01*
X146498926Y-99923600D01*
X146494082Y-99886809D01*
X146479704Y-99777593D01*
X146479702Y-99777589D01*
X146466643Y-99746063D01*
X146423347Y-99641537D01*
X146378211Y-99582715D01*
X146333695Y-99524700D01*
X146327859Y-99518864D01*
X146330330Y-99516392D01*
X146298052Y-99471575D01*
X146290900Y-99429727D01*
X146290900Y-95456784D01*
X146310902Y-95388663D01*
X146364558Y-95342170D01*
X146434832Y-95332066D01*
X146499412Y-95361560D01*
X146501786Y-95363669D01*
X146651536Y-95500185D01*
X146825566Y-95607940D01*
X146825568Y-95607940D01*
X146825573Y-95607944D01*
X147016444Y-95681888D01*
X147217653Y-95719500D01*
X147217655Y-95719500D01*
X147422345Y-95719500D01*
X147422347Y-95719500D01*
X147623556Y-95681888D01*
X147814427Y-95607944D01*
X147988462Y-95500186D01*
X148139732Y-95362285D01*
X148140280Y-95361560D01*
X148162552Y-95332066D01*
X148263088Y-95198935D01*
X148354328Y-95015701D01*
X148410345Y-94818821D01*
X148429232Y-94615000D01*
X148417381Y-94487113D01*
X148410345Y-94411180D01*
X148367672Y-94261200D01*
X148354328Y-94214299D01*
X148263088Y-94031065D01*
X148222538Y-93977368D01*
X148139733Y-93867715D01*
X147988463Y-93729814D01*
X147814433Y-93622059D01*
X147814428Y-93622057D01*
X147814427Y-93622056D01*
X147716813Y-93584240D01*
X147623559Y-93548113D01*
X147623560Y-93548113D01*
X147623557Y-93548112D01*
X147623556Y-93548112D01*
X147422347Y-93510500D01*
X147217653Y-93510500D01*
X147016444Y-93548112D01*
X147016439Y-93548113D01*
X146825577Y-93622054D01*
X146825566Y-93622059D01*
X146651535Y-93729815D01*
X146651532Y-93729817D01*
X146501785Y-93866330D01*
X146437968Y-93897441D01*
X146367462Y-93889111D01*
X146312652Y-93843985D01*
X146290940Y-93776390D01*
X146290900Y-93773215D01*
X146290900Y-93286844D01*
X146290901Y-93286831D01*
X146290901Y-93182920D01*
X146287899Y-93171718D01*
X146268421Y-93099022D01*
X146266633Y-93092350D01*
X146219751Y-93011149D01*
X146219749Y-93011147D01*
X146153451Y-92944849D01*
X145835210Y-92626608D01*
X145801184Y-92564296D01*
X145806249Y-92493481D01*
X145811514Y-92481351D01*
X145814328Y-92475701D01*
X145870345Y-92278821D01*
X145889232Y-92075000D01*
X145883132Y-92009174D01*
X145871579Y-91884499D01*
X146228921Y-91884499D01*
X146228923Y-91884500D01*
X146853407Y-91884500D01*
X146820000Y-92009174D01*
X146820000Y-92140826D01*
X146853407Y-92265500D01*
X146228922Y-92265500D01*
X146230147Y-92278725D01*
X146286138Y-92475514D01*
X146286140Y-92475519D01*
X146377340Y-92658672D01*
X146500637Y-92821946D01*
X146651838Y-92959784D01*
X146825796Y-93067493D01*
X146825803Y-93067496D01*
X147016578Y-93141403D01*
X147016576Y-93141403D01*
X147129500Y-93162511D01*
X147129500Y-92541593D01*
X147254174Y-92575000D01*
X147385826Y-92575000D01*
X147510500Y-92541593D01*
X147510500Y-93162511D01*
X147623422Y-93141403D01*
X147814196Y-93067496D01*
X147814203Y-93067493D01*
X147988161Y-92959784D01*
X148139362Y-92821946D01*
X148262659Y-92658672D01*
X148353859Y-92475519D01*
X148353861Y-92475514D01*
X148409852Y-92278725D01*
X148411078Y-92265500D01*
X147786593Y-92265500D01*
X147820000Y-92140826D01*
X147820000Y-92009174D01*
X147794834Y-91915257D01*
X161848500Y-91915257D01*
X161848500Y-92234742D01*
X161879812Y-92552653D01*
X161879815Y-92552674D01*
X161942136Y-92865989D01*
X161942139Y-92866000D01*
X161942140Y-92866003D01*
X162003397Y-93067940D01*
X162034878Y-93171718D01*
X162034879Y-93171722D01*
X162157134Y-93466872D01*
X162307733Y-93748623D01*
X162485216Y-94014245D01*
X162485227Y-94014260D01*
X162687886Y-94261200D01*
X162687904Y-94261220D01*
X162913779Y-94487095D01*
X162913799Y-94487113D01*
X163069634Y-94615004D01*
X163160748Y-94689779D01*
X163426379Y-94867268D01*
X163708128Y-95017866D01*
X164003282Y-95140122D01*
X164308997Y-95232860D01*
X164309006Y-95232861D01*
X164309010Y-95232863D01*
X164415309Y-95254006D01*
X164622331Y-95295186D01*
X164940264Y-95326500D01*
X164940273Y-95326500D01*
X165259727Y-95326500D01*
X165259736Y-95326500D01*
X165577669Y-95295186D01*
X165835745Y-95243851D01*
X165890989Y-95232863D01*
X165890991Y-95232862D01*
X165891003Y-95232860D01*
X166196718Y-95140122D01*
X166491872Y-95017866D01*
X166773621Y-94867268D01*
X167039252Y-94689779D01*
X167286207Y-94487108D01*
X167512108Y-94261207D01*
X167714779Y-94014252D01*
X167892268Y-93748621D01*
X168042866Y-93466872D01*
X168165122Y-93171718D01*
X168257860Y-92866003D01*
X168266624Y-92821946D01*
X168293271Y-92687979D01*
X168320186Y-92552669D01*
X168351500Y-92234736D01*
X168351500Y-91915264D01*
X168320186Y-91597331D01*
X168279006Y-91390309D01*
X168257863Y-91284010D01*
X168257861Y-91284006D01*
X168257860Y-91283997D01*
X168165122Y-90978282D01*
X168042866Y-90683128D01*
X167892268Y-90401379D01*
X167714779Y-90135748D01*
X167512108Y-89888793D01*
X167512104Y-89888789D01*
X167512095Y-89888779D01*
X167286220Y-89662904D01*
X167286200Y-89662886D01*
X167039260Y-89460227D01*
X167039245Y-89460216D01*
X166773623Y-89282733D01*
X166491872Y-89132134D01*
X166196722Y-89009879D01*
X166196718Y-89009878D01*
X165891003Y-88917140D01*
X165891000Y-88917139D01*
X165890989Y-88917136D01*
X165577674Y-88854815D01*
X165577669Y-88854814D01*
X165577662Y-88854813D01*
X165577653Y-88854812D01*
X165259742Y-88823500D01*
X165259736Y-88823500D01*
X164940264Y-88823500D01*
X164940257Y-88823500D01*
X164622346Y-88854812D01*
X164622334Y-88854813D01*
X164622331Y-88854814D01*
X164622328Y-88854814D01*
X164622325Y-88854815D01*
X164309010Y-88917136D01*
X164003281Y-89009878D01*
X164003277Y-89009879D01*
X163708127Y-89132134D01*
X163426376Y-89282733D01*
X163160754Y-89460216D01*
X163160739Y-89460227D01*
X162913799Y-89662886D01*
X162913779Y-89662904D01*
X162687904Y-89888779D01*
X162687886Y-89888799D01*
X162485227Y-90135739D01*
X162485216Y-90135754D01*
X162307733Y-90401376D01*
X162157134Y-90683127D01*
X162034879Y-90978277D01*
X162034878Y-90978281D01*
X161942136Y-91284010D01*
X161879815Y-91597325D01*
X161879812Y-91597346D01*
X161848500Y-91915257D01*
X147794834Y-91915257D01*
X147786593Y-91884500D01*
X148411077Y-91884500D01*
X148411078Y-91884499D01*
X148409852Y-91871274D01*
X148353861Y-91674485D01*
X148353859Y-91674480D01*
X148262659Y-91491327D01*
X148139362Y-91328053D01*
X147988161Y-91190215D01*
X147814203Y-91082506D01*
X147814196Y-91082503D01*
X147623422Y-91008596D01*
X147623423Y-91008596D01*
X147510500Y-90987487D01*
X147510500Y-91608406D01*
X147385826Y-91575000D01*
X147254174Y-91575000D01*
X147129500Y-91608406D01*
X147129500Y-90987487D01*
X147016576Y-91008596D01*
X146825803Y-91082503D01*
X146825796Y-91082506D01*
X146651838Y-91190215D01*
X146500637Y-91328053D01*
X146377340Y-91491327D01*
X146286140Y-91674480D01*
X146286138Y-91674485D01*
X146230147Y-91871274D01*
X146228921Y-91884499D01*
X145871579Y-91884499D01*
X145870345Y-91871180D01*
X145814499Y-91674901D01*
X145814328Y-91674299D01*
X145723088Y-91491065D01*
X145682538Y-91437368D01*
X145599733Y-91327715D01*
X145448463Y-91189814D01*
X145274433Y-91082059D01*
X145274428Y-91082057D01*
X145274427Y-91082056D01*
X145274422Y-91082054D01*
X145083559Y-91008113D01*
X145083560Y-91008113D01*
X145083557Y-91008112D01*
X145083556Y-91008112D01*
X144882347Y-90970500D01*
X144677653Y-90970500D01*
X144476444Y-91008112D01*
X144476439Y-91008113D01*
X144285577Y-91082054D01*
X144285566Y-91082059D01*
X144111536Y-91189814D01*
X143960266Y-91327715D01*
X143836913Y-91491063D01*
X143745671Y-91674301D01*
X143689654Y-91871180D01*
X143670768Y-92074995D01*
X143349232Y-92074995D01*
X143343132Y-92009174D01*
X143330345Y-91871180D01*
X143274499Y-91674901D01*
X143274328Y-91674299D01*
X143183088Y-91491065D01*
X143142538Y-91437368D01*
X143059733Y-91327715D01*
X142908463Y-91189814D01*
X142734433Y-91082059D01*
X142734428Y-91082057D01*
X142734427Y-91082056D01*
X142734422Y-91082054D01*
X142543559Y-91008113D01*
X142543560Y-91008113D01*
X142543557Y-91008112D01*
X142543556Y-91008112D01*
X142342347Y-90970500D01*
X142137653Y-90970500D01*
X141936444Y-91008112D01*
X141936439Y-91008113D01*
X141745577Y-91082054D01*
X141745566Y-91082059D01*
X141571536Y-91189814D01*
X141420266Y-91327715D01*
X141296913Y-91491063D01*
X141205671Y-91674301D01*
X141149654Y-91871180D01*
X141130768Y-92074995D01*
X137774581Y-92074995D01*
X137756722Y-91927923D01*
X137756722Y-91927921D01*
X137704184Y-91789390D01*
X137704182Y-91789388D01*
X137704182Y-91789386D01*
X137620021Y-91667458D01*
X137509121Y-91569209D01*
X137509117Y-91569207D01*
X137377931Y-91500356D01*
X137234081Y-91464900D01*
X137234080Y-91464900D01*
X137085920Y-91464900D01*
X137085918Y-91464900D01*
X136942068Y-91500356D01*
X136810882Y-91569207D01*
X136810878Y-91569209D01*
X136699978Y-91667458D01*
X136615817Y-91789386D01*
X136563276Y-91927923D01*
X136545250Y-92076383D01*
X136517183Y-92141596D01*
X136509264Y-92150290D01*
X130865404Y-97794150D01*
X130865396Y-97794160D01*
X130811831Y-97886937D01*
X130811830Y-97886942D01*
X130788932Y-97972399D01*
X130786761Y-97980500D01*
X130784100Y-97990431D01*
X130784100Y-99818688D01*
X130764098Y-99886809D01*
X130741655Y-99912999D01*
X130730982Y-99922454D01*
X130730978Y-99922458D01*
X130646817Y-100044386D01*
X130594277Y-100182923D01*
X130576419Y-100329997D01*
X130576419Y-100330002D01*
X130594277Y-100477076D01*
X130646817Y-100615613D01*
X130730979Y-100737542D01*
X130730980Y-100737543D01*
X130741651Y-100746997D01*
X130779378Y-100807139D01*
X130784100Y-100841310D01*
X130784100Y-105443265D01*
X130764098Y-105511386D01*
X130747195Y-105532360D01*
X126930959Y-109348595D01*
X126868647Y-109382621D01*
X126841864Y-109385500D01*
X125489936Y-109385500D01*
X125489926Y-109385501D01*
X125415699Y-109400265D01*
X125331515Y-109456516D01*
X125275266Y-109540697D01*
X125260500Y-109614930D01*
X123055500Y-109614930D01*
X123055500Y-107949995D01*
X125255768Y-107949995D01*
X125255768Y-107950004D01*
X125274654Y-108153819D01*
X125296918Y-108232069D01*
X125330672Y-108350701D01*
X125421912Y-108533935D01*
X125441132Y-108559387D01*
X125545266Y-108697284D01*
X125696536Y-108835185D01*
X125870566Y-108942940D01*
X125870568Y-108942940D01*
X125870573Y-108942944D01*
X126061444Y-109016888D01*
X126262653Y-109054500D01*
X126262655Y-109054500D01*
X126467345Y-109054500D01*
X126467347Y-109054500D01*
X126668556Y-109016888D01*
X126859427Y-108942944D01*
X127033462Y-108835186D01*
X127184732Y-108697285D01*
X127308088Y-108533935D01*
X127399328Y-108350701D01*
X127455345Y-108153821D01*
X127474232Y-107950000D01*
X127474157Y-107949192D01*
X127455345Y-107746180D01*
X127455345Y-107746179D01*
X127399328Y-107549299D01*
X127308088Y-107366065D01*
X127243867Y-107281022D01*
X127184733Y-107202715D01*
X127033463Y-107064814D01*
X126859433Y-106957059D01*
X126859428Y-106957057D01*
X126859427Y-106957056D01*
X126668559Y-106883113D01*
X126668560Y-106883113D01*
X126668557Y-106883112D01*
X126668556Y-106883112D01*
X126467347Y-106845500D01*
X126262653Y-106845500D01*
X126061444Y-106883112D01*
X126061439Y-106883113D01*
X125870577Y-106957054D01*
X125870566Y-106957059D01*
X125696536Y-107064814D01*
X125545266Y-107202715D01*
X125421913Y-107366063D01*
X125330671Y-107549301D01*
X125274654Y-107746180D01*
X125255768Y-107949995D01*
X123055500Y-107949995D01*
X123055500Y-105409995D01*
X125255768Y-105409995D01*
X125255768Y-105410004D01*
X125274654Y-105613819D01*
X125330671Y-105810698D01*
X125330672Y-105810701D01*
X125421912Y-105993935D01*
X125421913Y-105993936D01*
X125545266Y-106157284D01*
X125696536Y-106295185D01*
X125870566Y-106402940D01*
X125870568Y-106402940D01*
X125870573Y-106402944D01*
X126061444Y-106476888D01*
X126262653Y-106514500D01*
X126262655Y-106514500D01*
X126467345Y-106514500D01*
X126467347Y-106514500D01*
X126668556Y-106476888D01*
X126859427Y-106402944D01*
X127033462Y-106295186D01*
X127184732Y-106157285D01*
X127308088Y-105993935D01*
X127399328Y-105810701D01*
X127455345Y-105613821D01*
X127474232Y-105410000D01*
X127470164Y-105366103D01*
X127456635Y-105220096D01*
X127455345Y-105206179D01*
X127399328Y-105009299D01*
X127308088Y-104826065D01*
X127267538Y-104772368D01*
X127184733Y-104662715D01*
X127033463Y-104524814D01*
X126859433Y-104417059D01*
X126859428Y-104417057D01*
X126859427Y-104417056D01*
X126859422Y-104417054D01*
X126668559Y-104343113D01*
X126668560Y-104343113D01*
X126668557Y-104343112D01*
X126668556Y-104343112D01*
X126467347Y-104305500D01*
X126262653Y-104305500D01*
X126097875Y-104336302D01*
X126061439Y-104343113D01*
X125870577Y-104417054D01*
X125870566Y-104417059D01*
X125696536Y-104524814D01*
X125545266Y-104662715D01*
X125421913Y-104826063D01*
X125330671Y-105009301D01*
X125274654Y-105206180D01*
X125255768Y-105409995D01*
X123055500Y-105409995D01*
X123055500Y-102869995D01*
X125255768Y-102869995D01*
X125255768Y-102870004D01*
X125274654Y-103073819D01*
X125274655Y-103073821D01*
X125330672Y-103270701D01*
X125421912Y-103453935D01*
X125421913Y-103453936D01*
X125545266Y-103617284D01*
X125696536Y-103755185D01*
X125870566Y-103862940D01*
X125870568Y-103862940D01*
X125870573Y-103862944D01*
X126061444Y-103936888D01*
X126262653Y-103974500D01*
X126262655Y-103974500D01*
X126467345Y-103974500D01*
X126467347Y-103974500D01*
X126668556Y-103936888D01*
X126859427Y-103862944D01*
X127033462Y-103755186D01*
X127184732Y-103617285D01*
X127308088Y-103453935D01*
X127399328Y-103270701D01*
X127455345Y-103073821D01*
X127474232Y-102870000D01*
X127468132Y-102804174D01*
X127455345Y-102666180D01*
X127399499Y-102469901D01*
X127399328Y-102469299D01*
X127308088Y-102286065D01*
X127267538Y-102232368D01*
X127184733Y-102122715D01*
X127033463Y-101984814D01*
X126859433Y-101877059D01*
X126859428Y-101877057D01*
X126859427Y-101877056D01*
X126859422Y-101877054D01*
X126668559Y-101803113D01*
X126668560Y-101803113D01*
X126668557Y-101803112D01*
X126668556Y-101803112D01*
X126467347Y-101765500D01*
X126262653Y-101765500D01*
X126061444Y-101803112D01*
X126061439Y-101803113D01*
X125870577Y-101877054D01*
X125870566Y-101877059D01*
X125696536Y-101984814D01*
X125545266Y-102122715D01*
X125421913Y-102286063D01*
X125330671Y-102469301D01*
X125274654Y-102666180D01*
X125255768Y-102869995D01*
X123055500Y-102869995D01*
X123055500Y-100329995D01*
X125255768Y-100329995D01*
X125255768Y-100330004D01*
X125274654Y-100533819D01*
X125298081Y-100616155D01*
X125330672Y-100730701D01*
X125421912Y-100913935D01*
X125421913Y-100913936D01*
X125545266Y-101077284D01*
X125696536Y-101215185D01*
X125870566Y-101322940D01*
X125870568Y-101322940D01*
X125870573Y-101322944D01*
X126061444Y-101396888D01*
X126262653Y-101434500D01*
X126262655Y-101434500D01*
X126467345Y-101434500D01*
X126467347Y-101434500D01*
X126668556Y-101396888D01*
X126859427Y-101322944D01*
X127033462Y-101215186D01*
X127184732Y-101077285D01*
X127308088Y-100913935D01*
X127399328Y-100730701D01*
X127455345Y-100533821D01*
X127464209Y-100438166D01*
X127474232Y-100330004D01*
X127474232Y-100329995D01*
X127455345Y-100126180D01*
X127455345Y-100126179D01*
X127399328Y-99929299D01*
X127308088Y-99746065D01*
X127244224Y-99661495D01*
X127184733Y-99582715D01*
X127033463Y-99444814D01*
X126859433Y-99337059D01*
X126859428Y-99337057D01*
X126859427Y-99337056D01*
X126761676Y-99299187D01*
X126668559Y-99263113D01*
X126668560Y-99263113D01*
X126668557Y-99263112D01*
X126668556Y-99263112D01*
X126467347Y-99225500D01*
X126262653Y-99225500D01*
X126061444Y-99263112D01*
X126061439Y-99263113D01*
X125870577Y-99337054D01*
X125870566Y-99337059D01*
X125696536Y-99444814D01*
X125545266Y-99582715D01*
X125421913Y-99746063D01*
X125330671Y-99929301D01*
X125274654Y-100126180D01*
X125255768Y-100329995D01*
X123055500Y-100329995D01*
X123055500Y-97599499D01*
X125273921Y-97599499D01*
X125273923Y-97599500D01*
X125898407Y-97599500D01*
X125865000Y-97724174D01*
X125865000Y-97855826D01*
X125898407Y-97980500D01*
X125273922Y-97980500D01*
X125275147Y-97993725D01*
X125331138Y-98190514D01*
X125331140Y-98190519D01*
X125422340Y-98373672D01*
X125545637Y-98536946D01*
X125696838Y-98674784D01*
X125870796Y-98782493D01*
X125870803Y-98782496D01*
X126061578Y-98856403D01*
X126061576Y-98856403D01*
X126174500Y-98877511D01*
X126174500Y-98256593D01*
X126299174Y-98290000D01*
X126430826Y-98290000D01*
X126555500Y-98256593D01*
X126555500Y-98877511D01*
X126668422Y-98856403D01*
X126859196Y-98782496D01*
X126859203Y-98782493D01*
X127033161Y-98674784D01*
X127184362Y-98536946D01*
X127307659Y-98373672D01*
X127398859Y-98190519D01*
X127398861Y-98190514D01*
X127454852Y-97993725D01*
X127456078Y-97980500D01*
X126831593Y-97980500D01*
X126865000Y-97855826D01*
X126865000Y-97724174D01*
X126831593Y-97599500D01*
X127456077Y-97599500D01*
X127456078Y-97599499D01*
X127454852Y-97586274D01*
X127398861Y-97389485D01*
X127398859Y-97389480D01*
X127307659Y-97206327D01*
X127184362Y-97043053D01*
X127033161Y-96905215D01*
X126859203Y-96797506D01*
X126859196Y-96797503D01*
X126668422Y-96723596D01*
X126668423Y-96723596D01*
X126555500Y-96702487D01*
X126555500Y-97323406D01*
X126430826Y-97290000D01*
X126299174Y-97290000D01*
X126174500Y-97323406D01*
X126174500Y-96702487D01*
X126061576Y-96723596D01*
X125870803Y-96797503D01*
X125870796Y-96797506D01*
X125696838Y-96905215D01*
X125545637Y-97043053D01*
X125422340Y-97206327D01*
X125331140Y-97389480D01*
X125331138Y-97389485D01*
X125275147Y-97586274D01*
X125273921Y-97599499D01*
X123055500Y-97599499D01*
X123055500Y-91915257D01*
X123748500Y-91915257D01*
X123748500Y-92234742D01*
X123779812Y-92552653D01*
X123779815Y-92552674D01*
X123842136Y-92865989D01*
X123842139Y-92866000D01*
X123842140Y-92866003D01*
X123903397Y-93067940D01*
X123934878Y-93171718D01*
X123934879Y-93171722D01*
X124057134Y-93466872D01*
X124207733Y-93748623D01*
X124385216Y-94014245D01*
X124385227Y-94014260D01*
X124587886Y-94261200D01*
X124587904Y-94261220D01*
X124813779Y-94487095D01*
X124813799Y-94487113D01*
X124969634Y-94615004D01*
X125060748Y-94689779D01*
X125326379Y-94867268D01*
X125608128Y-95017866D01*
X125903282Y-95140122D01*
X126208997Y-95232860D01*
X126209006Y-95232861D01*
X126209010Y-95232863D01*
X126315309Y-95254006D01*
X126522331Y-95295186D01*
X126840264Y-95326500D01*
X126840273Y-95326500D01*
X127159727Y-95326500D01*
X127159736Y-95326500D01*
X127477669Y-95295186D01*
X127735745Y-95243851D01*
X127790989Y-95232863D01*
X127790991Y-95232862D01*
X127791003Y-95232860D01*
X128096718Y-95140122D01*
X128391872Y-95017866D01*
X128673621Y-94867268D01*
X128939252Y-94689779D01*
X129186207Y-94487108D01*
X129412108Y-94261207D01*
X129614779Y-94014252D01*
X129792268Y-93748621D01*
X129942866Y-93466872D01*
X130065122Y-93171718D01*
X130157860Y-92866003D01*
X130166624Y-92821946D01*
X130193271Y-92687979D01*
X130220186Y-92552669D01*
X130251500Y-92234736D01*
X130251500Y-91915264D01*
X130220186Y-91597331D01*
X130179006Y-91390309D01*
X130157863Y-91284010D01*
X130157861Y-91284006D01*
X130157860Y-91283997D01*
X130065122Y-90978282D01*
X129942866Y-90683128D01*
X129792268Y-90401379D01*
X129614779Y-90135748D01*
X129412108Y-89888793D01*
X129412104Y-89888789D01*
X129412095Y-89888779D01*
X129186220Y-89662904D01*
X129186200Y-89662886D01*
X128939260Y-89460227D01*
X128939245Y-89460216D01*
X128673623Y-89282733D01*
X128391872Y-89132134D01*
X128096722Y-89009879D01*
X128096718Y-89009878D01*
X127791003Y-88917140D01*
X127791000Y-88917139D01*
X127790989Y-88917136D01*
X127477674Y-88854815D01*
X127477669Y-88854814D01*
X127477662Y-88854813D01*
X127477653Y-88854812D01*
X127159742Y-88823500D01*
X127159736Y-88823500D01*
X126840264Y-88823500D01*
X126840257Y-88823500D01*
X126522346Y-88854812D01*
X126522334Y-88854813D01*
X126522331Y-88854814D01*
X126522328Y-88854814D01*
X126522325Y-88854815D01*
X126209010Y-88917136D01*
X125903281Y-89009878D01*
X125903277Y-89009879D01*
X125608127Y-89132134D01*
X125326376Y-89282733D01*
X125060754Y-89460216D01*
X125060739Y-89460227D01*
X124813799Y-89662886D01*
X124813779Y-89662904D01*
X124587904Y-89888779D01*
X124587886Y-89888799D01*
X124385227Y-90135739D01*
X124385216Y-90135754D01*
X124207733Y-90401376D01*
X124057134Y-90683127D01*
X123934879Y-90978277D01*
X123934878Y-90978281D01*
X123842136Y-91284010D01*
X123779815Y-91597325D01*
X123779812Y-91597346D01*
X123748500Y-91915257D01*
X123055500Y-91915257D01*
X123055500Y-88256500D01*
X123075502Y-88188379D01*
X123129158Y-88141886D01*
X123181500Y-88130500D01*
X168918500Y-88130500D01*
X168986621Y-88150502D01*
G37*
%TD.AperFunction*%
%TD*%
M02*
