G04 #@! TF.GenerationSoftware,KiCad,Pcbnew,8.0.6*
G04 #@! TF.CreationDate,2024-11-07T19:29:13-05:00*
G04 #@! TF.ProjectId,WheelSensorBoard,57686565-6c53-4656-9e73-6f72426f6172,rev?*
G04 #@! TF.SameCoordinates,Original*
G04 #@! TF.FileFunction,Soldermask,Top*
G04 #@! TF.FilePolarity,Negative*
%FSLAX46Y46*%
G04 Gerber Fmt 4.6, Leading zero omitted, Abs format (unit mm)*
G04 Created by KiCad (PCBNEW 8.0.6) date 2024-11-07 19:29:13*
%MOMM*%
%LPD*%
G01*
G04 APERTURE LIST*
G04 Aperture macros list*
%AMRoundRect*
0 Rectangle with rounded corners*
0 $1 Rounding radius*
0 $2 $3 $4 $5 $6 $7 $8 $9 X,Y pos of 4 corners*
0 Add a 4 corners polygon primitive as box body*
4,1,4,$2,$3,$4,$5,$6,$7,$8,$9,$2,$3,0*
0 Add four circle primitives for the rounded corners*
1,1,$1+$1,$2,$3*
1,1,$1+$1,$4,$5*
1,1,$1+$1,$6,$7*
1,1,$1+$1,$8,$9*
0 Add four rect primitives between the rounded corners*
20,1,$1+$1,$2,$3,$4,$5,0*
20,1,$1+$1,$4,$5,$6,$7,0*
20,1,$1+$1,$6,$7,$8,$9,0*
20,1,$1+$1,$8,$9,$2,$3,0*%
G04 Aperture macros list end*
%ADD10R,1.700000X1.700000*%
%ADD11O,1.700000X1.700000*%
%ADD12RoundRect,0.250000X0.475000X-0.337500X0.475000X0.337500X-0.475000X0.337500X-0.475000X-0.337500X0*%
%ADD13RoundRect,0.250000X0.337500X0.475000X-0.337500X0.475000X-0.337500X-0.475000X0.337500X-0.475000X0*%
%ADD14RoundRect,0.250000X-0.450000X0.350000X-0.450000X-0.350000X0.450000X-0.350000X0.450000X0.350000X0*%
%ADD15RoundRect,0.150000X0.587500X0.150000X-0.587500X0.150000X-0.587500X-0.150000X0.587500X-0.150000X0*%
%ADD16RoundRect,0.250000X-0.475000X0.337500X-0.475000X-0.337500X0.475000X-0.337500X0.475000X0.337500X0*%
%ADD17RoundRect,0.250000X-0.337500X-0.475000X0.337500X-0.475000X0.337500X0.475000X-0.337500X0.475000X0*%
%ADD18R,1.750000X0.450000*%
G04 APERTURE END LIST*
D10*
X140465000Y-95250000D03*
D11*
X140465000Y-92710000D03*
X143005000Y-95250000D03*
X143005000Y-92710000D03*
X145545000Y-95250000D03*
X145545000Y-92710000D03*
D12*
X153546000Y-103040000D03*
X153546000Y-100965000D03*
D13*
X146582500Y-111506000D03*
X144507500Y-111506000D03*
D10*
X114357000Y-99172000D03*
D11*
X114357000Y-96632000D03*
X114357000Y-94092000D03*
D10*
X131575000Y-104775000D03*
D11*
X134115000Y-104775000D03*
D14*
X149355000Y-106315000D03*
X149355000Y-108315000D03*
D10*
X131575000Y-108585000D03*
D11*
X134115000Y-108585000D03*
D10*
X127000000Y-97790000D03*
D11*
X127000000Y-100330000D03*
X127000000Y-102870000D03*
X127000000Y-105410000D03*
D10*
X156410000Y-100975000D03*
D11*
X156410000Y-103515000D03*
X156410000Y-106055000D03*
X156410000Y-108595000D03*
D15*
X153594500Y-108265000D03*
X153594500Y-106365000D03*
X151719500Y-107315000D03*
D10*
X131575000Y-100965000D03*
D11*
X134115000Y-100965000D03*
D10*
X114357000Y-109205000D03*
D11*
X114357000Y-106665000D03*
X114357000Y-104125000D03*
D16*
X137163000Y-101176000D03*
X137163000Y-103251000D03*
D17*
X139576000Y-111506000D03*
X141651000Y-111506000D03*
D18*
X146605000Y-109000000D03*
X146605000Y-108350000D03*
X146605000Y-107700000D03*
X146605000Y-107050000D03*
X146605000Y-106400000D03*
X146605000Y-105750000D03*
X146605000Y-105100000D03*
X146605000Y-104450000D03*
X146605000Y-103800000D03*
X146605000Y-103150000D03*
X146605000Y-102500000D03*
X146605000Y-101850000D03*
X146605000Y-101200000D03*
X146605000Y-100550000D03*
X139405000Y-100550000D03*
X139405000Y-101200000D03*
X139405000Y-101850000D03*
X139405000Y-102500000D03*
X139405000Y-103150000D03*
X139405000Y-103800000D03*
X139405000Y-104450000D03*
X139405000Y-105100000D03*
X139405000Y-105750000D03*
X139405000Y-106400000D03*
X139405000Y-107050000D03*
X139405000Y-107700000D03*
X139405000Y-108350000D03*
X139405000Y-109000000D03*
D16*
X137290000Y-92710000D03*
X137290000Y-94785000D03*
M02*
