%TF.GenerationSoftware,KiCad,Pcbnew,9.0.5*%
%TF.CreationDate,2025-10-16T19:34:12-04:00*%
%TF.ProjectId,ads122c04_ADC,61647331-3232-4633-9034-5f4144432e6b,rev?*%
%TF.SameCoordinates,Original*%
%TF.FileFunction,Soldermask,Bot*%
%TF.FilePolarity,Negative*%
%FSLAX46Y46*%
G04 Gerber Fmt 4.6, Leading zero omitted, Abs format (unit mm)*
G04 Created by KiCad (PCBNEW 9.0.5) date 2025-10-16 19:34:12*
%MOMM*%
%LPD*%
G01*
G04 APERTURE LIST*
%ADD10C,0.500000*%
%ADD11C,2.000000*%
%ADD12R,1.700000X1.700000*%
%ADD13C,1.700000*%
G04 APERTURE END LIST*
D10*
%TO.C,mouse-bite-1mm-3mm*%
X114700000Y-93710000D03*
X115300000Y-93710000D03*
X114700000Y-93000000D03*
X115300000Y-93000000D03*
X115300000Y-92300000D03*
X114700000Y-92290000D03*
%TD*%
%TO.C,mouse-bite-1mm-3mm*%
X114700000Y-99710000D03*
X115300000Y-99710000D03*
X114700000Y-99000000D03*
X115300000Y-99000000D03*
X115300000Y-98300000D03*
X114700000Y-98290000D03*
%TD*%
%TO.C,mouse-bite-1mm-3mm*%
X114700000Y-105710000D03*
X115300000Y-105710000D03*
X114700000Y-105000000D03*
X115300000Y-105000000D03*
X115300000Y-104300000D03*
X114700000Y-104290000D03*
%TD*%
%TO.C,mouse-bite-1mm-3mm*%
X114700000Y-87710000D03*
X115300000Y-87710000D03*
X114700000Y-87000000D03*
X115300000Y-87000000D03*
X115300000Y-86300000D03*
X114700000Y-86290000D03*
%TD*%
%TO.C,mouse-bite-1mm-3mm*%
X114700000Y-108710000D03*
X115300000Y-108710000D03*
X114700000Y-108000000D03*
X115300000Y-108000000D03*
X115300000Y-107300000D03*
X114700000Y-107290000D03*
%TD*%
%TO.C,mouse-bite-1mm-3mm*%
X114700000Y-90710000D03*
X115300000Y-90710000D03*
X114700000Y-90000000D03*
X115300000Y-90000000D03*
X115300000Y-89300000D03*
X114700000Y-89290000D03*
%TD*%
D11*
%TO.C,MH4*%
X119380000Y-83820000D03*
%TD*%
%TO.C,MH3*%
X119390000Y-105160000D03*
%TD*%
D12*
%TO.C,J1*%
X147330000Y-88790000D03*
D13*
X147330000Y-91330000D03*
X147330000Y-93869999D03*
X147330000Y-96410000D03*
X147330000Y-98950000D03*
%TD*%
D11*
%TO.C,MH2*%
X146060000Y-105160000D03*
%TD*%
D10*
%TO.C,mouse-bite-1mm-3mm*%
X114700000Y-96710000D03*
X115300000Y-96710000D03*
X114700000Y-96000000D03*
X115300000Y-96000000D03*
X115300000Y-95300000D03*
X114700000Y-95290000D03*
%TD*%
D12*
%TO.C,J2*%
X117560000Y-88310000D03*
D13*
X117560000Y-90850000D03*
X117560000Y-93390000D03*
X117560000Y-95930000D03*
X117560000Y-98470000D03*
X117560000Y-101010000D03*
%TD*%
D11*
%TO.C,MH1*%
X146050000Y-83820000D03*
%TD*%
D10*
%TO.C,mouse-bite-1mm-3mm*%
X114700000Y-102710000D03*
X115300000Y-102710000D03*
X114700000Y-102000000D03*
X115300000Y-102000000D03*
X115300000Y-101300000D03*
X114700000Y-101290000D03*
%TD*%
%TO.C,mouse-bite-1mm-3mm*%
X114700000Y-81710000D03*
X115300000Y-81710000D03*
X114700000Y-81000000D03*
X115300000Y-81000000D03*
X115300000Y-80300000D03*
X114700000Y-80290000D03*
%TD*%
%TO.C,mouse-bite-1mm-3mm*%
X114700000Y-84710000D03*
X115300000Y-84710000D03*
X114700000Y-84000000D03*
X115300000Y-84000000D03*
X115300000Y-83300000D03*
X114700000Y-83290000D03*
%TD*%
M02*
