M48
; DRILL file {KiCad 9.0.5} date 2025-10-16T21:34:08-0400
; FORMAT={-:-/ absolute / metric / decimal}
; #@! TF.CreationDate,2025-10-16T21:34:08-04:00
; #@! TF.GenerationSoftware,Kicad,Pcbnew,9.0.5
; #@! TF.FileFunction,Plated,1,2,PTH
FMAT,2
METRIC
; #@! TA.AperFunction,Plated,PTH,ViaDrill
T1C0.300
; #@! TA.AperFunction,Plated,PTH,ComponentDrill
T2C1.000
%
G90
G05
T1
X106.5Y-85.91
X106.5Y-90.0
X106.5Y-97.66
X106.5Y-101.5
X122.26Y-92.35
X124.06Y-89.16
X124.06Y-92.41
X124.095Y-102.112
X125.595Y-100.512
X127.095Y-102.112
X130.085Y-84.36
X131.06Y-100.41
X134.31Y-98.41
X138.758Y-101.086
X139.06Y-95.81
X140.06Y-100.61
X143.06Y-85.66
X143.06Y-88.0
X143.66Y-100.61
X145.46Y-95.01
T2
X117.56Y-88.31
X117.56Y-90.85
X117.56Y-93.39
X117.56Y-95.93
X117.56Y-98.47
X117.56Y-101.01
X147.33Y-88.79
X147.33Y-91.33
X147.33Y-93.87
X147.33Y-96.41
X147.33Y-98.95
M30
