M48
; DRILL file {KiCad 9.0.5} date 2025-10-16T21:34:08-0400
; FORMAT={-:-/ absolute / metric / decimal}
; #@! TF.CreationDate,2025-10-16T21:34:08-04:00
; #@! TF.GenerationSoftware,Kicad,Pcbnew,9.0.5
; #@! TF.FileFunction,NonPlated,1,2,NPTH
FMAT,2
METRIC
; #@! TA.AperFunction,NonPlated,NPTH,ComponentDrill
T1C0.500
; #@! TA.AperFunction,NonPlated,NPTH,ComponentDrill
T2C2.000
%
G90
G05
T1
X114.7Y-80.29
X114.7Y-81.0
X114.7Y-81.71
X114.7Y-83.29
X114.7Y-84.0
X114.7Y-84.71
X114.7Y-86.29
X114.7Y-87.0
X114.7Y-87.71
X114.7Y-89.29
X114.7Y-90.0
X114.7Y-90.71
X114.7Y-92.29
X114.7Y-93.0
X114.7Y-93.71
X114.7Y-95.29
X114.7Y-96.0
X114.7Y-96.71
X114.7Y-98.29
X114.7Y-99.0
X114.7Y-99.71
X114.7Y-101.29
X114.7Y-102.0
X114.7Y-102.71
X114.7Y-104.29
X114.7Y-105.0
X114.7Y-105.71
X114.7Y-107.29
X114.7Y-108.0
X114.7Y-108.71
X115.3Y-80.3
X115.3Y-81.0
X115.3Y-81.71
X115.3Y-83.3
X115.3Y-84.0
X115.3Y-84.71
X115.3Y-86.3
X115.3Y-87.0
X115.3Y-87.71
X115.3Y-89.3
X115.3Y-90.0
X115.3Y-90.71
X115.3Y-92.3
X115.3Y-93.0
X115.3Y-93.71
X115.3Y-95.3
X115.3Y-96.0
X115.3Y-96.71
X115.3Y-98.3
X115.3Y-99.0
X115.3Y-99.71
X115.3Y-101.3
X115.3Y-102.0
X115.3Y-102.71
X115.3Y-104.3
X115.3Y-105.0
X115.3Y-105.71
X115.3Y-107.3
X115.3Y-108.0
X115.3Y-108.71
T2
X119.38Y-83.82
X119.39Y-105.16
X146.05Y-83.82
X146.06Y-105.16
M30
