%TF.GenerationSoftware,KiCad,Pcbnew,9.0.5*%
%TF.CreationDate,2025-10-16T19:34:12-04:00*%
%TF.ProjectId,ads122c04_ADC,61647331-3232-4633-9034-5f4144432e6b,rev?*%
%TF.SameCoordinates,Original*%
%TF.FileFunction,Soldermask,Top*%
%TF.FilePolarity,Negative*%
%FSLAX46Y46*%
G04 Gerber Fmt 4.6, Leading zero omitted, Abs format (unit mm)*
G04 Created by KiCad (PCBNEW 9.0.5) date 2025-10-16 19:34:12*
%MOMM*%
%LPD*%
G01*
G04 APERTURE LIST*
G04 Aperture macros list*
%AMRoundRect*
0 Rectangle with rounded corners*
0 $1 Rounding radius*
0 $2 $3 $4 $5 $6 $7 $8 $9 X,Y pos of 4 corners*
0 Add a 4 corners polygon primitive as box body*
4,1,4,$2,$3,$4,$5,$6,$7,$8,$9,$2,$3,0*
0 Add four circle primitives for the rounded corners*
1,1,$1+$1,$2,$3*
1,1,$1+$1,$4,$5*
1,1,$1+$1,$6,$7*
1,1,$1+$1,$8,$9*
0 Add four rect primitives between the rounded corners*
20,1,$1+$1,$2,$3,$4,$5,0*
20,1,$1+$1,$4,$5,$6,$7,0*
20,1,$1+$1,$6,$7,$8,$9,0*
20,1,$1+$1,$8,$9,$2,$3,0*%
G04 Aperture macros list end*
%ADD10C,0.000000*%
%ADD11RoundRect,0.250000X-0.450000X0.350000X-0.450000X-0.350000X0.450000X-0.350000X0.450000X0.350000X0*%
%ADD12C,0.500000*%
%ADD13R,1.500000X1.000000*%
%ADD14RoundRect,0.250000X-0.565685X-0.070711X-0.070711X-0.565685X0.565685X0.070711X0.070711X0.565685X0*%
%ADD15RoundRect,0.162500X-0.162500X0.617500X-0.162500X-0.617500X0.162500X-0.617500X0.162500X0.617500X0*%
%ADD16RoundRect,0.250000X-0.070711X0.565685X-0.565685X0.070711X0.070711X-0.565685X0.565685X-0.070711X0*%
%ADD17RoundRect,0.250000X-0.475000X0.337500X-0.475000X-0.337500X0.475000X-0.337500X0.475000X0.337500X0*%
%ADD18C,2.000000*%
%ADD19R,1.700000X1.700000*%
%ADD20C,1.700000*%
%ADD21RoundRect,0.102000X0.800000X-1.300000X0.800000X1.300000X-0.800000X1.300000X-0.800000X-1.300000X0*%
%ADD22R,1.000000X1.500000*%
%ADD23RoundRect,0.250000X0.450000X-0.350000X0.450000X0.350000X-0.450000X0.350000X-0.450000X-0.350000X0*%
%ADD24RoundRect,0.076750X-0.230250X0.810250X-0.230250X-0.810250X0.230250X-0.810250X0.230250X0.810250X0*%
%ADD25RoundRect,0.250000X0.475000X-0.337500X0.475000X0.337500X-0.475000X0.337500X-0.475000X-0.337500X0*%
G04 APERTURE END LIST*
D10*
%TO.C,JP1*%
G36*
X128885001Y-85160000D02*
G01*
X127384999Y-85160000D01*
X127384999Y-83560000D01*
X128885001Y-83560000D01*
X128885001Y-85160000D01*
G37*
%TO.C,JP2*%
G36*
X134359999Y-97160000D02*
G01*
X134059999Y-97160000D01*
X134059999Y-95660000D01*
X134359999Y-95660000D01*
X134359999Y-97160000D01*
G37*
%TO.C,JP3*%
G36*
X132885001Y-85160000D02*
G01*
X131384999Y-85160000D01*
X131384999Y-83560000D01*
X132885001Y-83560000D01*
X132885001Y-85160000D01*
G37*
%TD*%
D11*
%TO.C,R10*%
X139060000Y-92160000D03*
X139060000Y-94160000D03*
%TD*%
D12*
%TO.C,mouse-bite-1mm-3mm*%
X114700000Y-93710000D03*
X115300000Y-93710000D03*
X114700000Y-93000000D03*
X115300000Y-93000000D03*
X115300000Y-92300000D03*
X114700000Y-92290000D03*
%TD*%
D13*
%TO.C,JP1*%
X128135000Y-85660000D03*
X128135000Y-84360000D03*
X128135000Y-83060000D03*
%TD*%
D11*
%TO.C,R11*%
X124560000Y-83160000D03*
X124560000Y-85160000D03*
%TD*%
D12*
%TO.C,mouse-bite-1mm-3mm*%
X114700000Y-99710000D03*
X115300000Y-99710000D03*
X114700000Y-99000000D03*
X115300000Y-99000000D03*
X115300000Y-98300000D03*
X114700000Y-98290000D03*
%TD*%
D14*
%TO.C,R2*%
X108292893Y-94292893D03*
X109707107Y-95707107D03*
%TD*%
D15*
%TO.C,U2*%
X135260000Y-99910000D03*
X134310000Y-99910000D03*
X133360000Y-99910000D03*
X133360000Y-102610000D03*
X135260000Y-102610000D03*
%TD*%
D16*
%TO.C,R8*%
X109707107Y-87792893D03*
X108292893Y-89207107D03*
%TD*%
D12*
%TO.C,mouse-bite-1mm-3mm*%
X114700000Y-105710000D03*
X115300000Y-105710000D03*
X114700000Y-105000000D03*
X115300000Y-105000000D03*
X115300000Y-104300000D03*
X114700000Y-104290000D03*
%TD*%
%TO.C,mouse-bite-1mm-3mm*%
X114700000Y-87710000D03*
X115300000Y-87710000D03*
X114700000Y-87000000D03*
X115300000Y-87000000D03*
X115300000Y-86300000D03*
X114700000Y-86290000D03*
%TD*%
%TO.C,mouse-bite-1mm-3mm*%
X114700000Y-108710000D03*
X115300000Y-108710000D03*
X114700000Y-108000000D03*
X115300000Y-108000000D03*
X115300000Y-107300000D03*
X114700000Y-107290000D03*
%TD*%
D17*
%TO.C,C4*%
X124060000Y-98535000D03*
X124060000Y-100610000D03*
%TD*%
D16*
%TO.C,R1*%
X104707107Y-94292893D03*
X103292893Y-95707107D03*
%TD*%
D12*
%TO.C,mouse-bite-1mm-3mm*%
X114700000Y-90710000D03*
X115300000Y-90710000D03*
X114700000Y-90000000D03*
X115300000Y-90000000D03*
X115300000Y-89300000D03*
X114700000Y-89290000D03*
%TD*%
D18*
%TO.C,MH4*%
X119380000Y-83820000D03*
%TD*%
%TO.C,MH3*%
X119390000Y-105160000D03*
%TD*%
D19*
%TO.C,J1*%
X147330000Y-88790000D03*
D20*
X147330000Y-91330000D03*
X147330000Y-93869999D03*
X147330000Y-96410000D03*
X147330000Y-98950000D03*
%TD*%
D16*
%TO.C,R4*%
X109707107Y-99292893D03*
X108292893Y-100707107D03*
%TD*%
D21*
%TO.C,C1*%
X141860000Y-97010000D03*
X141860000Y-100610000D03*
%TD*%
D14*
%TO.C,R3*%
X103292893Y-99292893D03*
X104707107Y-100707107D03*
%TD*%
%TO.C,R7*%
X103292893Y-87792893D03*
X104707107Y-89207107D03*
%TD*%
D22*
%TO.C,JP2*%
X134859998Y-96410000D03*
X133560000Y-96410000D03*
%TD*%
D18*
%TO.C,MH2*%
X146060000Y-105160000D03*
%TD*%
D17*
%TO.C,C3*%
X127089408Y-98585787D03*
X127089408Y-100660787D03*
%TD*%
D12*
%TO.C,mouse-bite-1mm-3mm*%
X114700000Y-96710000D03*
X115300000Y-96710000D03*
X114700000Y-96000000D03*
X115300000Y-96000000D03*
X115300000Y-95300000D03*
X114700000Y-95290000D03*
%TD*%
D11*
%TO.C,R9*%
X141500000Y-88000000D03*
X141500000Y-90000000D03*
%TD*%
D13*
%TO.C,JP3*%
X132135000Y-85660000D03*
X132135000Y-84360000D03*
X132135000Y-83060000D03*
%TD*%
D14*
%TO.C,R6*%
X108292893Y-82792893D03*
X109707107Y-84207107D03*
%TD*%
D23*
%TO.C,R12*%
X139500000Y-86500000D03*
X139500000Y-84500000D03*
%TD*%
D16*
%TO.C,R5*%
X104707107Y-82792893D03*
X103292893Y-84207107D03*
%TD*%
D19*
%TO.C,J2*%
X117560000Y-88310000D03*
D20*
X117560000Y-90850000D03*
X117560000Y-93390000D03*
X117560000Y-95930000D03*
X117560000Y-98470000D03*
X117560000Y-101010000D03*
%TD*%
D24*
%TO.C,U1*%
X126274999Y-90630000D03*
X125625000Y-90630000D03*
X124975001Y-90630000D03*
X124325000Y-90630000D03*
X123675000Y-90630000D03*
X123024999Y-90630000D03*
X122375000Y-90630000D03*
X121725001Y-90630000D03*
X121725001Y-96370000D03*
X122375000Y-96370000D03*
X123024999Y-96370000D03*
X123675000Y-96370000D03*
X124325000Y-96370000D03*
X124975001Y-96370000D03*
X125625000Y-96370000D03*
X126274999Y-96370000D03*
%TD*%
D18*
%TO.C,MH1*%
X146050000Y-83820000D03*
%TD*%
D12*
%TO.C,mouse-bite-1mm-3mm*%
X114700000Y-102710000D03*
X115300000Y-102710000D03*
X114700000Y-102000000D03*
X115300000Y-102000000D03*
X115300000Y-101300000D03*
X114700000Y-101290000D03*
%TD*%
D25*
%TO.C,C2*%
X131060000Y-104235000D03*
X131060000Y-102160000D03*
%TD*%
D12*
%TO.C,mouse-bite-1mm-3mm*%
X114700000Y-81710000D03*
X115300000Y-81710000D03*
X114700000Y-81000000D03*
X115300000Y-81000000D03*
X115300000Y-80300000D03*
X114700000Y-80290000D03*
%TD*%
%TO.C,mouse-bite-1mm-3mm*%
X114700000Y-84710000D03*
X115300000Y-84710000D03*
X114700000Y-84000000D03*
X115300000Y-84000000D03*
X115300000Y-83300000D03*
X114700000Y-83290000D03*
%TD*%
D25*
%TO.C,C5*%
X137260000Y-101085000D03*
X137260000Y-99010000D03*
%TD*%
M02*
