G04 #@! TF.GenerationSoftware,KiCad,Pcbnew,8.0.6*
G04 #@! TF.CreationDate,2024-11-07T19:26:29-05:00*
G04 #@! TF.ProjectId,GPS-SensorBoard,4750532d-5365-46e7-936f-72426f617264,rev?*
G04 #@! TF.SameCoordinates,Original*
G04 #@! TF.FileFunction,Legend,Top*
G04 #@! TF.FilePolarity,Positive*
%FSLAX46Y46*%
G04 Gerber Fmt 4.6, Leading zero omitted, Abs format (unit mm)*
G04 Created by KiCad (PCBNEW 8.0.6) date 2024-11-07 19:26:29*
%MOMM*%
%LPD*%
G01*
G04 APERTURE LIST*
G04 Aperture macros list*
%AMRoundRect*
0 Rectangle with rounded corners*
0 $1 Rounding radius*
0 $2 $3 $4 $5 $6 $7 $8 $9 X,Y pos of 4 corners*
0 Add a 4 corners polygon primitive as box body*
4,1,4,$2,$3,$4,$5,$6,$7,$8,$9,$2,$3,0*
0 Add four circle primitives for the rounded corners*
1,1,$1+$1,$2,$3*
1,1,$1+$1,$4,$5*
1,1,$1+$1,$6,$7*
1,1,$1+$1,$8,$9*
0 Add four rect primitives between the rounded corners*
20,1,$1+$1,$2,$3,$4,$5,0*
20,1,$1+$1,$4,$5,$6,$7,0*
20,1,$1+$1,$6,$7,$8,$9,0*
20,1,$1+$1,$8,$9,$2,$3,0*%
G04 Aperture macros list end*
%ADD10C,0.150000*%
%ADD11C,0.177800*%
%ADD12C,0.139700*%
%ADD13C,0.152400*%
%ADD14C,0.101600*%
%ADD15C,0.120000*%
%ADD16R,1.700000X1.700000*%
%ADD17O,1.700000X1.700000*%
%ADD18RoundRect,0.250000X0.475000X-0.337500X0.475000X0.337500X-0.475000X0.337500X-0.475000X-0.337500X0*%
%ADD19RoundRect,0.250000X0.337500X0.475000X-0.337500X0.475000X-0.337500X-0.475000X0.337500X-0.475000X0*%
%ADD20RoundRect,0.250000X-0.450000X0.350000X-0.450000X-0.350000X0.450000X-0.350000X0.450000X0.350000X0*%
%ADD21RoundRect,0.150000X0.587500X0.150000X-0.587500X0.150000X-0.587500X-0.150000X0.587500X-0.150000X0*%
%ADD22RoundRect,0.250000X-0.475000X0.337500X-0.475000X-0.337500X0.475000X-0.337500X0.475000X0.337500X0*%
%ADD23RoundRect,0.250000X-0.337500X-0.475000X0.337500X-0.475000X0.337500X0.475000X-0.337500X0.475000X0*%
%ADD24R,1.750000X0.450000*%
%ADD25C,0.711200*%
%ADD26C,0.609600*%
G04 APERTURE END LIST*
D10*
X120678887Y-100784819D02*
X120678887Y-99784819D01*
X120678887Y-99784819D02*
X121059839Y-99784819D01*
X121059839Y-99784819D02*
X121155077Y-99832438D01*
X121155077Y-99832438D02*
X121202696Y-99880057D01*
X121202696Y-99880057D02*
X121250315Y-99975295D01*
X121250315Y-99975295D02*
X121250315Y-100118152D01*
X121250315Y-100118152D02*
X121202696Y-100213390D01*
X121202696Y-100213390D02*
X121155077Y-100261009D01*
X121155077Y-100261009D02*
X121059839Y-100308628D01*
X121059839Y-100308628D02*
X120678887Y-100308628D01*
X121631268Y-100499104D02*
X122107458Y-100499104D01*
X121536030Y-100784819D02*
X121869363Y-99784819D01*
X121869363Y-99784819D02*
X122202696Y-100784819D01*
X123059839Y-100784819D02*
X122488411Y-100784819D01*
X122774125Y-100784819D02*
X122774125Y-99784819D01*
X122774125Y-99784819D02*
X122678887Y-99927676D01*
X122678887Y-99927676D02*
X122583649Y-100022914D01*
X122583649Y-100022914D02*
X122488411Y-100070533D01*
X124202696Y-99737200D02*
X123345554Y-101022914D01*
X124583649Y-100784819D02*
X124774125Y-100784819D01*
X124774125Y-100784819D02*
X124869363Y-100737200D01*
X124869363Y-100737200D02*
X124916982Y-100689580D01*
X124916982Y-100689580D02*
X125012220Y-100546723D01*
X125012220Y-100546723D02*
X125059839Y-100356247D01*
X125059839Y-100356247D02*
X125059839Y-99975295D01*
X125059839Y-99975295D02*
X125012220Y-99880057D01*
X125012220Y-99880057D02*
X124964601Y-99832438D01*
X124964601Y-99832438D02*
X124869363Y-99784819D01*
X124869363Y-99784819D02*
X124678887Y-99784819D01*
X124678887Y-99784819D02*
X124583649Y-99832438D01*
X124583649Y-99832438D02*
X124536030Y-99880057D01*
X124536030Y-99880057D02*
X124488411Y-99975295D01*
X124488411Y-99975295D02*
X124488411Y-100213390D01*
X124488411Y-100213390D02*
X124536030Y-100308628D01*
X124536030Y-100308628D02*
X124583649Y-100356247D01*
X124583649Y-100356247D02*
X124678887Y-100403866D01*
X124678887Y-100403866D02*
X124869363Y-100403866D01*
X124869363Y-100403866D02*
X124964601Y-100356247D01*
X124964601Y-100356247D02*
X125012220Y-100308628D01*
X125012220Y-100308628D02*
X125059839Y-100213390D01*
D11*
X150188639Y-93493023D02*
X150188639Y-94128023D01*
X150188639Y-94128023D02*
X150146306Y-94255023D01*
X150146306Y-94255023D02*
X150061639Y-94339690D01*
X150061639Y-94339690D02*
X149934639Y-94382023D01*
X149934639Y-94382023D02*
X149849973Y-94382023D01*
X150611972Y-94382023D02*
X150611972Y-93493023D01*
X150611972Y-93493023D02*
X150950639Y-93493023D01*
X150950639Y-93493023D02*
X151035306Y-93535356D01*
X151035306Y-93535356D02*
X151077639Y-93577690D01*
X151077639Y-93577690D02*
X151119972Y-93662356D01*
X151119972Y-93662356D02*
X151119972Y-93789356D01*
X151119972Y-93789356D02*
X151077639Y-93874023D01*
X151077639Y-93874023D02*
X151035306Y-93916356D01*
X151035306Y-93916356D02*
X150950639Y-93958690D01*
X150950639Y-93958690D02*
X150611972Y-93958690D01*
X151966639Y-94382023D02*
X151458639Y-94382023D01*
X151712639Y-94382023D02*
X151712639Y-93493023D01*
X151712639Y-93493023D02*
X151627972Y-93620023D01*
X151627972Y-93620023D02*
X151543306Y-93704690D01*
X151543306Y-93704690D02*
X151458639Y-93747023D01*
X152389973Y-94339690D02*
X152389973Y-94382023D01*
X152389973Y-94382023D02*
X152347639Y-94466690D01*
X152347639Y-94466690D02*
X152305306Y-94509023D01*
X153702305Y-93493023D02*
X153702305Y-94128023D01*
X153702305Y-94128023D02*
X153659972Y-94255023D01*
X153659972Y-94255023D02*
X153575305Y-94339690D01*
X153575305Y-94339690D02*
X153448305Y-94382023D01*
X153448305Y-94382023D02*
X153363639Y-94382023D01*
X154125638Y-94382023D02*
X154125638Y-93493023D01*
X154125638Y-93493023D02*
X154464305Y-93493023D01*
X154464305Y-93493023D02*
X154548972Y-93535356D01*
X154548972Y-93535356D02*
X154591305Y-93577690D01*
X154591305Y-93577690D02*
X154633638Y-93662356D01*
X154633638Y-93662356D02*
X154633638Y-93789356D01*
X154633638Y-93789356D02*
X154591305Y-93874023D01*
X154591305Y-93874023D02*
X154548972Y-93916356D01*
X154548972Y-93916356D02*
X154464305Y-93958690D01*
X154464305Y-93958690D02*
X154125638Y-93958690D01*
X154972305Y-93577690D02*
X155014638Y-93535356D01*
X155014638Y-93535356D02*
X155099305Y-93493023D01*
X155099305Y-93493023D02*
X155310972Y-93493023D01*
X155310972Y-93493023D02*
X155395638Y-93535356D01*
X155395638Y-93535356D02*
X155437972Y-93577690D01*
X155437972Y-93577690D02*
X155480305Y-93662356D01*
X155480305Y-93662356D02*
X155480305Y-93747023D01*
X155480305Y-93747023D02*
X155437972Y-93874023D01*
X155437972Y-93874023D02*
X154929972Y-94382023D01*
X154929972Y-94382023D02*
X155480305Y-94382023D01*
X155903639Y-94339690D02*
X155903639Y-94382023D01*
X155903639Y-94382023D02*
X155861305Y-94466690D01*
X155861305Y-94466690D02*
X155818972Y-94509023D01*
X157215971Y-93493023D02*
X157215971Y-94128023D01*
X157215971Y-94128023D02*
X157173638Y-94255023D01*
X157173638Y-94255023D02*
X157088971Y-94339690D01*
X157088971Y-94339690D02*
X156961971Y-94382023D01*
X156961971Y-94382023D02*
X156877305Y-94382023D01*
X157639304Y-94382023D02*
X157639304Y-93493023D01*
X157639304Y-93493023D02*
X157977971Y-93493023D01*
X157977971Y-93493023D02*
X158062638Y-93535356D01*
X158062638Y-93535356D02*
X158104971Y-93577690D01*
X158104971Y-93577690D02*
X158147304Y-93662356D01*
X158147304Y-93662356D02*
X158147304Y-93789356D01*
X158147304Y-93789356D02*
X158104971Y-93874023D01*
X158104971Y-93874023D02*
X158062638Y-93916356D01*
X158062638Y-93916356D02*
X157977971Y-93958690D01*
X157977971Y-93958690D02*
X157639304Y-93958690D01*
X158443638Y-93493023D02*
X158993971Y-93493023D01*
X158993971Y-93493023D02*
X158697638Y-93831690D01*
X158697638Y-93831690D02*
X158824638Y-93831690D01*
X158824638Y-93831690D02*
X158909304Y-93874023D01*
X158909304Y-93874023D02*
X158951638Y-93916356D01*
X158951638Y-93916356D02*
X158993971Y-94001023D01*
X158993971Y-94001023D02*
X158993971Y-94212690D01*
X158993971Y-94212690D02*
X158951638Y-94297356D01*
X158951638Y-94297356D02*
X158909304Y-94339690D01*
X158909304Y-94339690D02*
X158824638Y-94382023D01*
X158824638Y-94382023D02*
X158570638Y-94382023D01*
X158570638Y-94382023D02*
X158485971Y-94339690D01*
X158485971Y-94339690D02*
X158443638Y-94297356D01*
D12*
X149909573Y-92952764D02*
X149909573Y-92063764D01*
X149909573Y-92063764D02*
X150121240Y-92063764D01*
X150121240Y-92063764D02*
X150248240Y-92106097D01*
X150248240Y-92106097D02*
X150332907Y-92190764D01*
X150332907Y-92190764D02*
X150375240Y-92275431D01*
X150375240Y-92275431D02*
X150417573Y-92444764D01*
X150417573Y-92444764D02*
X150417573Y-92571764D01*
X150417573Y-92571764D02*
X150375240Y-92741097D01*
X150375240Y-92741097D02*
X150332907Y-92825764D01*
X150332907Y-92825764D02*
X150248240Y-92910431D01*
X150248240Y-92910431D02*
X150121240Y-92952764D01*
X150121240Y-92952764D02*
X149909573Y-92952764D01*
X150798573Y-92952764D02*
X150798573Y-92063764D01*
X151179573Y-92910431D02*
X151306573Y-92952764D01*
X151306573Y-92952764D02*
X151518240Y-92952764D01*
X151518240Y-92952764D02*
X151602906Y-92910431D01*
X151602906Y-92910431D02*
X151645240Y-92868097D01*
X151645240Y-92868097D02*
X151687573Y-92783431D01*
X151687573Y-92783431D02*
X151687573Y-92698764D01*
X151687573Y-92698764D02*
X151645240Y-92614097D01*
X151645240Y-92614097D02*
X151602906Y-92571764D01*
X151602906Y-92571764D02*
X151518240Y-92529431D01*
X151518240Y-92529431D02*
X151348906Y-92487097D01*
X151348906Y-92487097D02*
X151264240Y-92444764D01*
X151264240Y-92444764D02*
X151221906Y-92402431D01*
X151221906Y-92402431D02*
X151179573Y-92317764D01*
X151179573Y-92317764D02*
X151179573Y-92233097D01*
X151179573Y-92233097D02*
X151221906Y-92148431D01*
X151221906Y-92148431D02*
X151264240Y-92106097D01*
X151264240Y-92106097D02*
X151348906Y-92063764D01*
X151348906Y-92063764D02*
X151560573Y-92063764D01*
X151560573Y-92063764D02*
X151687573Y-92106097D01*
X152576573Y-92868097D02*
X152534240Y-92910431D01*
X152534240Y-92910431D02*
X152407240Y-92952764D01*
X152407240Y-92952764D02*
X152322573Y-92952764D01*
X152322573Y-92952764D02*
X152195573Y-92910431D01*
X152195573Y-92910431D02*
X152110907Y-92825764D01*
X152110907Y-92825764D02*
X152068573Y-92741097D01*
X152068573Y-92741097D02*
X152026240Y-92571764D01*
X152026240Y-92571764D02*
X152026240Y-92444764D01*
X152026240Y-92444764D02*
X152068573Y-92275431D01*
X152068573Y-92275431D02*
X152110907Y-92190764D01*
X152110907Y-92190764D02*
X152195573Y-92106097D01*
X152195573Y-92106097D02*
X152322573Y-92063764D01*
X152322573Y-92063764D02*
X152407240Y-92063764D01*
X152407240Y-92063764D02*
X152534240Y-92106097D01*
X152534240Y-92106097D02*
X152576573Y-92148431D01*
X153126907Y-92063764D02*
X153296240Y-92063764D01*
X153296240Y-92063764D02*
X153380907Y-92106097D01*
X153380907Y-92106097D02*
X153465573Y-92190764D01*
X153465573Y-92190764D02*
X153507907Y-92360097D01*
X153507907Y-92360097D02*
X153507907Y-92656431D01*
X153507907Y-92656431D02*
X153465573Y-92825764D01*
X153465573Y-92825764D02*
X153380907Y-92910431D01*
X153380907Y-92910431D02*
X153296240Y-92952764D01*
X153296240Y-92952764D02*
X153126907Y-92952764D01*
X153126907Y-92952764D02*
X153042240Y-92910431D01*
X153042240Y-92910431D02*
X152957573Y-92825764D01*
X152957573Y-92825764D02*
X152915240Y-92656431D01*
X152915240Y-92656431D02*
X152915240Y-92360097D01*
X152915240Y-92360097D02*
X152957573Y-92190764D01*
X152957573Y-92190764D02*
X153042240Y-92106097D01*
X153042240Y-92106097D02*
X153126907Y-92063764D01*
X153888906Y-92952764D02*
X153888906Y-92063764D01*
X153888906Y-92063764D02*
X154396906Y-92952764D01*
X154396906Y-92952764D02*
X154396906Y-92063764D01*
X154820239Y-92952764D02*
X154820239Y-92063764D01*
X154820239Y-92063764D02*
X155328239Y-92952764D01*
X155328239Y-92952764D02*
X155328239Y-92063764D01*
X155751572Y-92487097D02*
X156047906Y-92487097D01*
X156174906Y-92952764D02*
X155751572Y-92952764D01*
X155751572Y-92952764D02*
X155751572Y-92063764D01*
X155751572Y-92063764D02*
X156174906Y-92063764D01*
X157063905Y-92868097D02*
X157021572Y-92910431D01*
X157021572Y-92910431D02*
X156894572Y-92952764D01*
X156894572Y-92952764D02*
X156809905Y-92952764D01*
X156809905Y-92952764D02*
X156682905Y-92910431D01*
X156682905Y-92910431D02*
X156598239Y-92825764D01*
X156598239Y-92825764D02*
X156555905Y-92741097D01*
X156555905Y-92741097D02*
X156513572Y-92571764D01*
X156513572Y-92571764D02*
X156513572Y-92444764D01*
X156513572Y-92444764D02*
X156555905Y-92275431D01*
X156555905Y-92275431D02*
X156598239Y-92190764D01*
X156598239Y-92190764D02*
X156682905Y-92106097D01*
X156682905Y-92106097D02*
X156809905Y-92063764D01*
X156809905Y-92063764D02*
X156894572Y-92063764D01*
X156894572Y-92063764D02*
X157021572Y-92106097D01*
X157021572Y-92106097D02*
X157063905Y-92148431D01*
X157317905Y-92063764D02*
X157825905Y-92063764D01*
X157571905Y-92952764D02*
X157571905Y-92063764D01*
X150205907Y-95349577D02*
X149909573Y-95349577D01*
X149909573Y-95815244D02*
X149909573Y-94926244D01*
X149909573Y-94926244D02*
X150332907Y-94926244D01*
X150840907Y-94926244D02*
X151010240Y-94926244D01*
X151010240Y-94926244D02*
X151094907Y-94968577D01*
X151094907Y-94968577D02*
X151179573Y-95053244D01*
X151179573Y-95053244D02*
X151221907Y-95222577D01*
X151221907Y-95222577D02*
X151221907Y-95518911D01*
X151221907Y-95518911D02*
X151179573Y-95688244D01*
X151179573Y-95688244D02*
X151094907Y-95772911D01*
X151094907Y-95772911D02*
X151010240Y-95815244D01*
X151010240Y-95815244D02*
X150840907Y-95815244D01*
X150840907Y-95815244D02*
X150756240Y-95772911D01*
X150756240Y-95772911D02*
X150671573Y-95688244D01*
X150671573Y-95688244D02*
X150629240Y-95518911D01*
X150629240Y-95518911D02*
X150629240Y-95222577D01*
X150629240Y-95222577D02*
X150671573Y-95053244D01*
X150671573Y-95053244D02*
X150756240Y-94968577D01*
X150756240Y-94968577D02*
X150840907Y-94926244D01*
X152110906Y-95815244D02*
X151814573Y-95391911D01*
X151602906Y-95815244D02*
X151602906Y-94926244D01*
X151602906Y-94926244D02*
X151941573Y-94926244D01*
X151941573Y-94926244D02*
X152026240Y-94968577D01*
X152026240Y-94968577D02*
X152068573Y-95010911D01*
X152068573Y-95010911D02*
X152110906Y-95095577D01*
X152110906Y-95095577D02*
X152110906Y-95222577D01*
X152110906Y-95222577D02*
X152068573Y-95307244D01*
X152068573Y-95307244D02*
X152026240Y-95349577D01*
X152026240Y-95349577D02*
X151941573Y-95391911D01*
X151941573Y-95391911D02*
X151602906Y-95391911D01*
X153169239Y-95815244D02*
X153169239Y-94926244D01*
X154100572Y-95730577D02*
X154058239Y-95772911D01*
X154058239Y-95772911D02*
X153931239Y-95815244D01*
X153931239Y-95815244D02*
X153846572Y-95815244D01*
X153846572Y-95815244D02*
X153719572Y-95772911D01*
X153719572Y-95772911D02*
X153634906Y-95688244D01*
X153634906Y-95688244D02*
X153592572Y-95603577D01*
X153592572Y-95603577D02*
X153550239Y-95434244D01*
X153550239Y-95434244D02*
X153550239Y-95307244D01*
X153550239Y-95307244D02*
X153592572Y-95137911D01*
X153592572Y-95137911D02*
X153634906Y-95053244D01*
X153634906Y-95053244D02*
X153719572Y-94968577D01*
X153719572Y-94968577D02*
X153846572Y-94926244D01*
X153846572Y-94926244D02*
X153931239Y-94926244D01*
X153931239Y-94926244D02*
X154058239Y-94968577D01*
X154058239Y-94968577D02*
X154100572Y-95010911D01*
X154439239Y-95772911D02*
X154566239Y-95815244D01*
X154566239Y-95815244D02*
X154777906Y-95815244D01*
X154777906Y-95815244D02*
X154862572Y-95772911D01*
X154862572Y-95772911D02*
X154904906Y-95730577D01*
X154904906Y-95730577D02*
X154947239Y-95645911D01*
X154947239Y-95645911D02*
X154947239Y-95561244D01*
X154947239Y-95561244D02*
X154904906Y-95476577D01*
X154904906Y-95476577D02*
X154862572Y-95434244D01*
X154862572Y-95434244D02*
X154777906Y-95391911D01*
X154777906Y-95391911D02*
X154608572Y-95349577D01*
X154608572Y-95349577D02*
X154523906Y-95307244D01*
X154523906Y-95307244D02*
X154481572Y-95264911D01*
X154481572Y-95264911D02*
X154439239Y-95180244D01*
X154439239Y-95180244D02*
X154439239Y-95095577D01*
X154439239Y-95095577D02*
X154481572Y-95010911D01*
X154481572Y-95010911D02*
X154523906Y-94968577D01*
X154523906Y-94968577D02*
X154608572Y-94926244D01*
X154608572Y-94926244D02*
X154820239Y-94926244D01*
X154820239Y-94926244D02*
X154947239Y-94968577D01*
X155328239Y-95815244D02*
X155328239Y-94926244D01*
X155328239Y-94926244D02*
X155666906Y-94926244D01*
X155666906Y-94926244D02*
X155751573Y-94968577D01*
X155751573Y-94968577D02*
X155793906Y-95010911D01*
X155793906Y-95010911D02*
X155836239Y-95095577D01*
X155836239Y-95095577D02*
X155836239Y-95222577D01*
X155836239Y-95222577D02*
X155793906Y-95307244D01*
X155793906Y-95307244D02*
X155751573Y-95349577D01*
X155751573Y-95349577D02*
X155666906Y-95391911D01*
X155666906Y-95391911D02*
X155328239Y-95391911D01*
D10*
X119726506Y-98244819D02*
X119726506Y-97244819D01*
X119726506Y-97244819D02*
X120107458Y-97244819D01*
X120107458Y-97244819D02*
X120202696Y-97292438D01*
X120202696Y-97292438D02*
X120250315Y-97340057D01*
X120250315Y-97340057D02*
X120297934Y-97435295D01*
X120297934Y-97435295D02*
X120297934Y-97578152D01*
X120297934Y-97578152D02*
X120250315Y-97673390D01*
X120250315Y-97673390D02*
X120202696Y-97721009D01*
X120202696Y-97721009D02*
X120107458Y-97768628D01*
X120107458Y-97768628D02*
X119726506Y-97768628D01*
X120678887Y-97959104D02*
X121155077Y-97959104D01*
X120583649Y-98244819D02*
X120916982Y-97244819D01*
X120916982Y-97244819D02*
X121250315Y-98244819D01*
X121774125Y-97244819D02*
X121869363Y-97244819D01*
X121869363Y-97244819D02*
X121964601Y-97292438D01*
X121964601Y-97292438D02*
X122012220Y-97340057D01*
X122012220Y-97340057D02*
X122059839Y-97435295D01*
X122059839Y-97435295D02*
X122107458Y-97625771D01*
X122107458Y-97625771D02*
X122107458Y-97863866D01*
X122107458Y-97863866D02*
X122059839Y-98054342D01*
X122059839Y-98054342D02*
X122012220Y-98149580D01*
X122012220Y-98149580D02*
X121964601Y-98197200D01*
X121964601Y-98197200D02*
X121869363Y-98244819D01*
X121869363Y-98244819D02*
X121774125Y-98244819D01*
X121774125Y-98244819D02*
X121678887Y-98197200D01*
X121678887Y-98197200D02*
X121631268Y-98149580D01*
X121631268Y-98149580D02*
X121583649Y-98054342D01*
X121583649Y-98054342D02*
X121536030Y-97863866D01*
X121536030Y-97863866D02*
X121536030Y-97625771D01*
X121536030Y-97625771D02*
X121583649Y-97435295D01*
X121583649Y-97435295D02*
X121631268Y-97340057D01*
X121631268Y-97340057D02*
X121678887Y-97292438D01*
X121678887Y-97292438D02*
X121774125Y-97244819D01*
X123250315Y-97197200D02*
X122393173Y-98482914D01*
X124107458Y-98244819D02*
X123536030Y-98244819D01*
X123821744Y-98244819D02*
X123821744Y-97244819D01*
X123821744Y-97244819D02*
X123726506Y-97387676D01*
X123726506Y-97387676D02*
X123631268Y-97482914D01*
X123631268Y-97482914D02*
X123536030Y-97530533D01*
X124726506Y-97244819D02*
X124821744Y-97244819D01*
X124821744Y-97244819D02*
X124916982Y-97292438D01*
X124916982Y-97292438D02*
X124964601Y-97340057D01*
X124964601Y-97340057D02*
X125012220Y-97435295D01*
X125012220Y-97435295D02*
X125059839Y-97625771D01*
X125059839Y-97625771D02*
X125059839Y-97863866D01*
X125059839Y-97863866D02*
X125012220Y-98054342D01*
X125012220Y-98054342D02*
X124964601Y-98149580D01*
X124964601Y-98149580D02*
X124916982Y-98197200D01*
X124916982Y-98197200D02*
X124821744Y-98244819D01*
X124821744Y-98244819D02*
X124726506Y-98244819D01*
X124726506Y-98244819D02*
X124631268Y-98197200D01*
X124631268Y-98197200D02*
X124583649Y-98149580D01*
X124583649Y-98149580D02*
X124536030Y-98054342D01*
X124536030Y-98054342D02*
X124488411Y-97863866D01*
X124488411Y-97863866D02*
X124488411Y-97625771D01*
X124488411Y-97625771D02*
X124536030Y-97435295D01*
X124536030Y-97435295D02*
X124583649Y-97340057D01*
X124583649Y-97340057D02*
X124631268Y-97292438D01*
X124631268Y-97292438D02*
X124726506Y-97244819D01*
X116271922Y-97167819D02*
X116605255Y-98167819D01*
X116605255Y-98167819D02*
X116938588Y-97167819D01*
X117843350Y-98072580D02*
X117795731Y-98120200D01*
X117795731Y-98120200D02*
X117652874Y-98167819D01*
X117652874Y-98167819D02*
X117557636Y-98167819D01*
X117557636Y-98167819D02*
X117414779Y-98120200D01*
X117414779Y-98120200D02*
X117319541Y-98024961D01*
X117319541Y-98024961D02*
X117271922Y-97929723D01*
X117271922Y-97929723D02*
X117224303Y-97739247D01*
X117224303Y-97739247D02*
X117224303Y-97596390D01*
X117224303Y-97596390D02*
X117271922Y-97405914D01*
X117271922Y-97405914D02*
X117319541Y-97310676D01*
X117319541Y-97310676D02*
X117414779Y-97215438D01*
X117414779Y-97215438D02*
X117557636Y-97167819D01*
X117557636Y-97167819D02*
X117652874Y-97167819D01*
X117652874Y-97167819D02*
X117795731Y-97215438D01*
X117795731Y-97215438D02*
X117843350Y-97263057D01*
X118843350Y-98072580D02*
X118795731Y-98120200D01*
X118795731Y-98120200D02*
X118652874Y-98167819D01*
X118652874Y-98167819D02*
X118557636Y-98167819D01*
X118557636Y-98167819D02*
X118414779Y-98120200D01*
X118414779Y-98120200D02*
X118319541Y-98024961D01*
X118319541Y-98024961D02*
X118271922Y-97929723D01*
X118271922Y-97929723D02*
X118224303Y-97739247D01*
X118224303Y-97739247D02*
X118224303Y-97596390D01*
X118224303Y-97596390D02*
X118271922Y-97405914D01*
X118271922Y-97405914D02*
X118319541Y-97310676D01*
X118319541Y-97310676D02*
X118414779Y-97215438D01*
X118414779Y-97215438D02*
X118557636Y-97167819D01*
X118557636Y-97167819D02*
X118652874Y-97167819D01*
X118652874Y-97167819D02*
X118795731Y-97215438D01*
X118795731Y-97215438D02*
X118843350Y-97263057D01*
D11*
X123571000Y-90930587D02*
X123516572Y-90985016D01*
X123516572Y-90985016D02*
X123353286Y-91039444D01*
X123353286Y-91039444D02*
X123244429Y-91039444D01*
X123244429Y-91039444D02*
X123081143Y-90985016D01*
X123081143Y-90985016D02*
X122972286Y-90876158D01*
X122972286Y-90876158D02*
X122917857Y-90767301D01*
X122917857Y-90767301D02*
X122863429Y-90549587D01*
X122863429Y-90549587D02*
X122863429Y-90386301D01*
X122863429Y-90386301D02*
X122917857Y-90168587D01*
X122917857Y-90168587D02*
X122972286Y-90059730D01*
X122972286Y-90059730D02*
X123081143Y-89950873D01*
X123081143Y-89950873D02*
X123244429Y-89896444D01*
X123244429Y-89896444D02*
X123353286Y-89896444D01*
X123353286Y-89896444D02*
X123516572Y-89950873D01*
X123516572Y-89950873D02*
X123571000Y-90005301D01*
X124006429Y-90712873D02*
X124550715Y-90712873D01*
X123897572Y-91039444D02*
X124278572Y-89896444D01*
X124278572Y-89896444D02*
X124659572Y-91039444D01*
X125040571Y-91039444D02*
X125040571Y-89896444D01*
X125040571Y-89896444D02*
X125693714Y-91039444D01*
X125693714Y-91039444D02*
X125693714Y-89896444D01*
X126619000Y-90440730D02*
X126782286Y-90495158D01*
X126782286Y-90495158D02*
X126836715Y-90549587D01*
X126836715Y-90549587D02*
X126891143Y-90658444D01*
X126891143Y-90658444D02*
X126891143Y-90821730D01*
X126891143Y-90821730D02*
X126836715Y-90930587D01*
X126836715Y-90930587D02*
X126782286Y-90985016D01*
X126782286Y-90985016D02*
X126673429Y-91039444D01*
X126673429Y-91039444D02*
X126238000Y-91039444D01*
X126238000Y-91039444D02*
X126238000Y-89896444D01*
X126238000Y-89896444D02*
X126619000Y-89896444D01*
X126619000Y-89896444D02*
X126727858Y-89950873D01*
X126727858Y-89950873D02*
X126782286Y-90005301D01*
X126782286Y-90005301D02*
X126836715Y-90114158D01*
X126836715Y-90114158D02*
X126836715Y-90223016D01*
X126836715Y-90223016D02*
X126782286Y-90331873D01*
X126782286Y-90331873D02*
X126727858Y-90386301D01*
X126727858Y-90386301D02*
X126619000Y-90440730D01*
X126619000Y-90440730D02*
X126238000Y-90440730D01*
X127381000Y-89896444D02*
X127381000Y-90821730D01*
X127381000Y-90821730D02*
X127435429Y-90930587D01*
X127435429Y-90930587D02*
X127489858Y-90985016D01*
X127489858Y-90985016D02*
X127598715Y-91039444D01*
X127598715Y-91039444D02*
X127816429Y-91039444D01*
X127816429Y-91039444D02*
X127925286Y-90985016D01*
X127925286Y-90985016D02*
X127979715Y-90930587D01*
X127979715Y-90930587D02*
X128034143Y-90821730D01*
X128034143Y-90821730D02*
X128034143Y-89896444D01*
X128524001Y-90985016D02*
X128687287Y-91039444D01*
X128687287Y-91039444D02*
X128959429Y-91039444D01*
X128959429Y-91039444D02*
X129068287Y-90985016D01*
X129068287Y-90985016D02*
X129122715Y-90930587D01*
X129122715Y-90930587D02*
X129177144Y-90821730D01*
X129177144Y-90821730D02*
X129177144Y-90712873D01*
X129177144Y-90712873D02*
X129122715Y-90604016D01*
X129122715Y-90604016D02*
X129068287Y-90549587D01*
X129068287Y-90549587D02*
X128959429Y-90495158D01*
X128959429Y-90495158D02*
X128741715Y-90440730D01*
X128741715Y-90440730D02*
X128632858Y-90386301D01*
X128632858Y-90386301D02*
X128578429Y-90331873D01*
X128578429Y-90331873D02*
X128524001Y-90223016D01*
X128524001Y-90223016D02*
X128524001Y-90114158D01*
X128524001Y-90114158D02*
X128578429Y-90005301D01*
X128578429Y-90005301D02*
X128632858Y-89950873D01*
X128632858Y-89950873D02*
X128741715Y-89896444D01*
X128741715Y-89896444D02*
X129013858Y-89896444D01*
X129013858Y-89896444D02*
X129177144Y-89950873D01*
X131136572Y-89950873D02*
X131027715Y-89896444D01*
X131027715Y-89896444D02*
X130864429Y-89896444D01*
X130864429Y-89896444D02*
X130701143Y-89950873D01*
X130701143Y-89950873D02*
X130592286Y-90059730D01*
X130592286Y-90059730D02*
X130537857Y-90168587D01*
X130537857Y-90168587D02*
X130483429Y-90386301D01*
X130483429Y-90386301D02*
X130483429Y-90549587D01*
X130483429Y-90549587D02*
X130537857Y-90767301D01*
X130537857Y-90767301D02*
X130592286Y-90876158D01*
X130592286Y-90876158D02*
X130701143Y-90985016D01*
X130701143Y-90985016D02*
X130864429Y-91039444D01*
X130864429Y-91039444D02*
X130973286Y-91039444D01*
X130973286Y-91039444D02*
X131136572Y-90985016D01*
X131136572Y-90985016D02*
X131191000Y-90930587D01*
X131191000Y-90930587D02*
X131191000Y-90549587D01*
X131191000Y-90549587D02*
X130973286Y-90549587D01*
X131680857Y-91039444D02*
X131680857Y-89896444D01*
X131680857Y-89896444D02*
X132116286Y-89896444D01*
X132116286Y-89896444D02*
X132225143Y-89950873D01*
X132225143Y-89950873D02*
X132279572Y-90005301D01*
X132279572Y-90005301D02*
X132334000Y-90114158D01*
X132334000Y-90114158D02*
X132334000Y-90277444D01*
X132334000Y-90277444D02*
X132279572Y-90386301D01*
X132279572Y-90386301D02*
X132225143Y-90440730D01*
X132225143Y-90440730D02*
X132116286Y-90495158D01*
X132116286Y-90495158D02*
X131680857Y-90495158D01*
X132769429Y-90985016D02*
X132932715Y-91039444D01*
X132932715Y-91039444D02*
X133204857Y-91039444D01*
X133204857Y-91039444D02*
X133313715Y-90985016D01*
X133313715Y-90985016D02*
X133368143Y-90930587D01*
X133368143Y-90930587D02*
X133422572Y-90821730D01*
X133422572Y-90821730D02*
X133422572Y-90712873D01*
X133422572Y-90712873D02*
X133368143Y-90604016D01*
X133368143Y-90604016D02*
X133313715Y-90549587D01*
X133313715Y-90549587D02*
X133204857Y-90495158D01*
X133204857Y-90495158D02*
X132987143Y-90440730D01*
X132987143Y-90440730D02*
X132878286Y-90386301D01*
X132878286Y-90386301D02*
X132823857Y-90331873D01*
X132823857Y-90331873D02*
X132769429Y-90223016D01*
X132769429Y-90223016D02*
X132769429Y-90114158D01*
X132769429Y-90114158D02*
X132823857Y-90005301D01*
X132823857Y-90005301D02*
X132878286Y-89950873D01*
X132878286Y-89950873D02*
X132987143Y-89896444D01*
X132987143Y-89896444D02*
X133259286Y-89896444D01*
X133259286Y-89896444D02*
X133422572Y-89950873D01*
X122836213Y-92879610D02*
X122836213Y-91736610D01*
X123380499Y-92117610D02*
X123380499Y-92879610D01*
X123380499Y-92226467D02*
X123434928Y-92172039D01*
X123434928Y-92172039D02*
X123543785Y-92117610D01*
X123543785Y-92117610D02*
X123707071Y-92117610D01*
X123707071Y-92117610D02*
X123815928Y-92172039D01*
X123815928Y-92172039D02*
X123870357Y-92280896D01*
X123870357Y-92280896D02*
X123870357Y-92879610D01*
X124414642Y-92117610D02*
X124414642Y-93260610D01*
X124414642Y-92172039D02*
X124523500Y-92117610D01*
X124523500Y-92117610D02*
X124741214Y-92117610D01*
X124741214Y-92117610D02*
X124850071Y-92172039D01*
X124850071Y-92172039D02*
X124904500Y-92226467D01*
X124904500Y-92226467D02*
X124958928Y-92335324D01*
X124958928Y-92335324D02*
X124958928Y-92661896D01*
X124958928Y-92661896D02*
X124904500Y-92770753D01*
X124904500Y-92770753D02*
X124850071Y-92825182D01*
X124850071Y-92825182D02*
X124741214Y-92879610D01*
X124741214Y-92879610D02*
X124523500Y-92879610D01*
X124523500Y-92879610D02*
X124414642Y-92825182D01*
X125938643Y-92117610D02*
X125938643Y-92879610D01*
X125448785Y-92117610D02*
X125448785Y-92716324D01*
X125448785Y-92716324D02*
X125503214Y-92825182D01*
X125503214Y-92825182D02*
X125612071Y-92879610D01*
X125612071Y-92879610D02*
X125775357Y-92879610D01*
X125775357Y-92879610D02*
X125884214Y-92825182D01*
X125884214Y-92825182D02*
X125938643Y-92770753D01*
X126319643Y-92117610D02*
X126755071Y-92117610D01*
X126482928Y-91736610D02*
X126482928Y-92716324D01*
X126482928Y-92716324D02*
X126537357Y-92825182D01*
X126537357Y-92825182D02*
X126646214Y-92879610D01*
X126646214Y-92879610D02*
X126755071Y-92879610D01*
X128006928Y-92879610D02*
X128006928Y-91736610D01*
X128006928Y-91736610D02*
X128387928Y-92553039D01*
X128387928Y-92553039D02*
X128768928Y-91736610D01*
X128768928Y-91736610D02*
X128768928Y-92879610D01*
X129476500Y-92879610D02*
X129367643Y-92825182D01*
X129367643Y-92825182D02*
X129313214Y-92770753D01*
X129313214Y-92770753D02*
X129258786Y-92661896D01*
X129258786Y-92661896D02*
X129258786Y-92335324D01*
X129258786Y-92335324D02*
X129313214Y-92226467D01*
X129313214Y-92226467D02*
X129367643Y-92172039D01*
X129367643Y-92172039D02*
X129476500Y-92117610D01*
X129476500Y-92117610D02*
X129639786Y-92117610D01*
X129639786Y-92117610D02*
X129748643Y-92172039D01*
X129748643Y-92172039D02*
X129803072Y-92226467D01*
X129803072Y-92226467D02*
X129857500Y-92335324D01*
X129857500Y-92335324D02*
X129857500Y-92661896D01*
X129857500Y-92661896D02*
X129803072Y-92770753D01*
X129803072Y-92770753D02*
X129748643Y-92825182D01*
X129748643Y-92825182D02*
X129639786Y-92879610D01*
X129639786Y-92879610D02*
X129476500Y-92879610D01*
X130837215Y-92879610D02*
X130837215Y-91736610D01*
X130837215Y-92825182D02*
X130728357Y-92879610D01*
X130728357Y-92879610D02*
X130510643Y-92879610D01*
X130510643Y-92879610D02*
X130401786Y-92825182D01*
X130401786Y-92825182D02*
X130347357Y-92770753D01*
X130347357Y-92770753D02*
X130292929Y-92661896D01*
X130292929Y-92661896D02*
X130292929Y-92335324D01*
X130292929Y-92335324D02*
X130347357Y-92226467D01*
X130347357Y-92226467D02*
X130401786Y-92172039D01*
X130401786Y-92172039D02*
X130510643Y-92117610D01*
X130510643Y-92117610D02*
X130728357Y-92117610D01*
X130728357Y-92117610D02*
X130837215Y-92172039D01*
X131871358Y-92117610D02*
X131871358Y-92879610D01*
X131381500Y-92117610D02*
X131381500Y-92716324D01*
X131381500Y-92716324D02*
X131435929Y-92825182D01*
X131435929Y-92825182D02*
X131544786Y-92879610D01*
X131544786Y-92879610D02*
X131708072Y-92879610D01*
X131708072Y-92879610D02*
X131816929Y-92825182D01*
X131816929Y-92825182D02*
X131871358Y-92770753D01*
X132578929Y-92879610D02*
X132470072Y-92825182D01*
X132470072Y-92825182D02*
X132415643Y-92716324D01*
X132415643Y-92716324D02*
X132415643Y-91736610D01*
X133449786Y-92825182D02*
X133340929Y-92879610D01*
X133340929Y-92879610D02*
X133123215Y-92879610D01*
X133123215Y-92879610D02*
X133014357Y-92825182D01*
X133014357Y-92825182D02*
X132959929Y-92716324D01*
X132959929Y-92716324D02*
X132959929Y-92280896D01*
X132959929Y-92280896D02*
X133014357Y-92172039D01*
X133014357Y-92172039D02*
X133123215Y-92117610D01*
X133123215Y-92117610D02*
X133340929Y-92117610D01*
X133340929Y-92117610D02*
X133449786Y-92172039D01*
X133449786Y-92172039D02*
X133504215Y-92280896D01*
X133504215Y-92280896D02*
X133504215Y-92389753D01*
X133504215Y-92389753D02*
X132959929Y-92498610D01*
D10*
X120678887Y-103324819D02*
X120678887Y-102324819D01*
X120678887Y-102324819D02*
X121059839Y-102324819D01*
X121059839Y-102324819D02*
X121155077Y-102372438D01*
X121155077Y-102372438D02*
X121202696Y-102420057D01*
X121202696Y-102420057D02*
X121250315Y-102515295D01*
X121250315Y-102515295D02*
X121250315Y-102658152D01*
X121250315Y-102658152D02*
X121202696Y-102753390D01*
X121202696Y-102753390D02*
X121155077Y-102801009D01*
X121155077Y-102801009D02*
X121059839Y-102848628D01*
X121059839Y-102848628D02*
X120678887Y-102848628D01*
X121631268Y-103039104D02*
X122107458Y-103039104D01*
X121536030Y-103324819D02*
X121869363Y-102324819D01*
X121869363Y-102324819D02*
X122202696Y-103324819D01*
X122488411Y-102420057D02*
X122536030Y-102372438D01*
X122536030Y-102372438D02*
X122631268Y-102324819D01*
X122631268Y-102324819D02*
X122869363Y-102324819D01*
X122869363Y-102324819D02*
X122964601Y-102372438D01*
X122964601Y-102372438D02*
X123012220Y-102420057D01*
X123012220Y-102420057D02*
X123059839Y-102515295D01*
X123059839Y-102515295D02*
X123059839Y-102610533D01*
X123059839Y-102610533D02*
X123012220Y-102753390D01*
X123012220Y-102753390D02*
X122440792Y-103324819D01*
X122440792Y-103324819D02*
X123059839Y-103324819D01*
X124202696Y-102277200D02*
X123345554Y-103562914D01*
X124678887Y-102753390D02*
X124583649Y-102705771D01*
X124583649Y-102705771D02*
X124536030Y-102658152D01*
X124536030Y-102658152D02*
X124488411Y-102562914D01*
X124488411Y-102562914D02*
X124488411Y-102515295D01*
X124488411Y-102515295D02*
X124536030Y-102420057D01*
X124536030Y-102420057D02*
X124583649Y-102372438D01*
X124583649Y-102372438D02*
X124678887Y-102324819D01*
X124678887Y-102324819D02*
X124869363Y-102324819D01*
X124869363Y-102324819D02*
X124964601Y-102372438D01*
X124964601Y-102372438D02*
X125012220Y-102420057D01*
X125012220Y-102420057D02*
X125059839Y-102515295D01*
X125059839Y-102515295D02*
X125059839Y-102562914D01*
X125059839Y-102562914D02*
X125012220Y-102658152D01*
X125012220Y-102658152D02*
X124964601Y-102705771D01*
X124964601Y-102705771D02*
X124869363Y-102753390D01*
X124869363Y-102753390D02*
X124678887Y-102753390D01*
X124678887Y-102753390D02*
X124583649Y-102801009D01*
X124583649Y-102801009D02*
X124536030Y-102848628D01*
X124536030Y-102848628D02*
X124488411Y-102943866D01*
X124488411Y-102943866D02*
X124488411Y-103134342D01*
X124488411Y-103134342D02*
X124536030Y-103229580D01*
X124536030Y-103229580D02*
X124583649Y-103277200D01*
X124583649Y-103277200D02*
X124678887Y-103324819D01*
X124678887Y-103324819D02*
X124869363Y-103324819D01*
X124869363Y-103324819D02*
X124964601Y-103277200D01*
X124964601Y-103277200D02*
X125012220Y-103229580D01*
X125012220Y-103229580D02*
X125059839Y-103134342D01*
X125059839Y-103134342D02*
X125059839Y-102943866D01*
X125059839Y-102943866D02*
X125012220Y-102848628D01*
X125012220Y-102848628D02*
X124964601Y-102801009D01*
X124964601Y-102801009D02*
X124869363Y-102753390D01*
X148409819Y-95583189D02*
X147409819Y-95583189D01*
X148314580Y-94535571D02*
X148362200Y-94583190D01*
X148362200Y-94583190D02*
X148409819Y-94726047D01*
X148409819Y-94726047D02*
X148409819Y-94821285D01*
X148409819Y-94821285D02*
X148362200Y-94964142D01*
X148362200Y-94964142D02*
X148266961Y-95059380D01*
X148266961Y-95059380D02*
X148171723Y-95106999D01*
X148171723Y-95106999D02*
X147981247Y-95154618D01*
X147981247Y-95154618D02*
X147838390Y-95154618D01*
X147838390Y-95154618D02*
X147647914Y-95106999D01*
X147647914Y-95106999D02*
X147552676Y-95059380D01*
X147552676Y-95059380D02*
X147457438Y-94964142D01*
X147457438Y-94964142D02*
X147409819Y-94821285D01*
X147409819Y-94821285D02*
X147409819Y-94726047D01*
X147409819Y-94726047D02*
X147457438Y-94583190D01*
X147457438Y-94583190D02*
X147505057Y-94535571D01*
X148362200Y-94154618D02*
X148409819Y-94011761D01*
X148409819Y-94011761D02*
X148409819Y-93773666D01*
X148409819Y-93773666D02*
X148362200Y-93678428D01*
X148362200Y-93678428D02*
X148314580Y-93630809D01*
X148314580Y-93630809D02*
X148219342Y-93583190D01*
X148219342Y-93583190D02*
X148124104Y-93583190D01*
X148124104Y-93583190D02*
X148028866Y-93630809D01*
X148028866Y-93630809D02*
X147981247Y-93678428D01*
X147981247Y-93678428D02*
X147933628Y-93773666D01*
X147933628Y-93773666D02*
X147886009Y-93964142D01*
X147886009Y-93964142D02*
X147838390Y-94059380D01*
X147838390Y-94059380D02*
X147790771Y-94106999D01*
X147790771Y-94106999D02*
X147695533Y-94154618D01*
X147695533Y-94154618D02*
X147600295Y-94154618D01*
X147600295Y-94154618D02*
X147505057Y-94106999D01*
X147505057Y-94106999D02*
X147457438Y-94059380D01*
X147457438Y-94059380D02*
X147409819Y-93964142D01*
X147409819Y-93964142D02*
X147409819Y-93726047D01*
X147409819Y-93726047D02*
X147457438Y-93583190D01*
X148409819Y-93154618D02*
X147409819Y-93154618D01*
X147409819Y-93154618D02*
X147409819Y-92773666D01*
X147409819Y-92773666D02*
X147457438Y-92678428D01*
X147457438Y-92678428D02*
X147505057Y-92630809D01*
X147505057Y-92630809D02*
X147600295Y-92583190D01*
X147600295Y-92583190D02*
X147743152Y-92583190D01*
X147743152Y-92583190D02*
X147838390Y-92630809D01*
X147838390Y-92630809D02*
X147886009Y-92678428D01*
X147886009Y-92678428D02*
X147933628Y-92773666D01*
X147933628Y-92773666D02*
X147933628Y-93154618D01*
X117065588Y-104835438D02*
X116970350Y-104787819D01*
X116970350Y-104787819D02*
X116827493Y-104787819D01*
X116827493Y-104787819D02*
X116684636Y-104835438D01*
X116684636Y-104835438D02*
X116589398Y-104930676D01*
X116589398Y-104930676D02*
X116541779Y-105025914D01*
X116541779Y-105025914D02*
X116494160Y-105216390D01*
X116494160Y-105216390D02*
X116494160Y-105359247D01*
X116494160Y-105359247D02*
X116541779Y-105549723D01*
X116541779Y-105549723D02*
X116589398Y-105644961D01*
X116589398Y-105644961D02*
X116684636Y-105740200D01*
X116684636Y-105740200D02*
X116827493Y-105787819D01*
X116827493Y-105787819D02*
X116922731Y-105787819D01*
X116922731Y-105787819D02*
X117065588Y-105740200D01*
X117065588Y-105740200D02*
X117113207Y-105692580D01*
X117113207Y-105692580D02*
X117113207Y-105359247D01*
X117113207Y-105359247D02*
X116922731Y-105359247D01*
X117541779Y-105787819D02*
X117541779Y-104787819D01*
X117541779Y-104787819D02*
X118113207Y-105787819D01*
X118113207Y-105787819D02*
X118113207Y-104787819D01*
X118589398Y-105787819D02*
X118589398Y-104787819D01*
X118589398Y-104787819D02*
X118827493Y-104787819D01*
X118827493Y-104787819D02*
X118970350Y-104835438D01*
X118970350Y-104835438D02*
X119065588Y-104930676D01*
X119065588Y-104930676D02*
X119113207Y-105025914D01*
X119113207Y-105025914D02*
X119160826Y-105216390D01*
X119160826Y-105216390D02*
X119160826Y-105359247D01*
X119160826Y-105359247D02*
X119113207Y-105549723D01*
X119113207Y-105549723D02*
X119065588Y-105644961D01*
X119065588Y-105644961D02*
X118970350Y-105740200D01*
X118970350Y-105740200D02*
X118827493Y-105787819D01*
X118827493Y-105787819D02*
X118589398Y-105787819D01*
X117113207Y-103247819D02*
X116779874Y-102771628D01*
X116541779Y-103247819D02*
X116541779Y-102247819D01*
X116541779Y-102247819D02*
X116922731Y-102247819D01*
X116922731Y-102247819D02*
X117017969Y-102295438D01*
X117017969Y-102295438D02*
X117065588Y-102343057D01*
X117065588Y-102343057D02*
X117113207Y-102438295D01*
X117113207Y-102438295D02*
X117113207Y-102581152D01*
X117113207Y-102581152D02*
X117065588Y-102676390D01*
X117065588Y-102676390D02*
X117017969Y-102724009D01*
X117017969Y-102724009D02*
X116922731Y-102771628D01*
X116922731Y-102771628D02*
X116541779Y-102771628D01*
X117446541Y-102247819D02*
X118113207Y-103247819D01*
X118113207Y-102247819D02*
X117446541Y-103247819D01*
D13*
X123171857Y-94125019D02*
X123099286Y-94088733D01*
X123099286Y-94088733D02*
X122954143Y-94088733D01*
X122954143Y-94088733D02*
X122881572Y-94125019D01*
X122881572Y-94125019D02*
X122809000Y-94197590D01*
X122809000Y-94197590D02*
X122772714Y-94270162D01*
X122772714Y-94270162D02*
X122772714Y-94415305D01*
X122772714Y-94415305D02*
X122809000Y-94487876D01*
X122809000Y-94487876D02*
X122881572Y-94560447D01*
X122881572Y-94560447D02*
X122954143Y-94596733D01*
X122954143Y-94596733D02*
X123099286Y-94596733D01*
X123099286Y-94596733D02*
X123171857Y-94560447D01*
X123026714Y-93834733D02*
X122845286Y-93871019D01*
X122845286Y-93871019D02*
X122663857Y-93979876D01*
X122663857Y-93979876D02*
X122555000Y-94161305D01*
X122555000Y-94161305D02*
X122518714Y-94342733D01*
X122518714Y-94342733D02*
X122555000Y-94524162D01*
X122555000Y-94524162D02*
X122663857Y-94705590D01*
X122663857Y-94705590D02*
X122845286Y-94814447D01*
X122845286Y-94814447D02*
X123026714Y-94850733D01*
X123026714Y-94850733D02*
X123208143Y-94814447D01*
X123208143Y-94814447D02*
X123389572Y-94705590D01*
X123389572Y-94705590D02*
X123498429Y-94524162D01*
X123498429Y-94524162D02*
X123534714Y-94342733D01*
X123534714Y-94342733D02*
X123498429Y-94161305D01*
X123498429Y-94161305D02*
X123389572Y-93979876D01*
X123389572Y-93979876D02*
X123208143Y-93871019D01*
X123208143Y-93871019D02*
X123026714Y-93834733D01*
X124405571Y-94016162D02*
X124441857Y-93979876D01*
X124441857Y-93979876D02*
X124514429Y-93943590D01*
X124514429Y-93943590D02*
X124695857Y-93943590D01*
X124695857Y-93943590D02*
X124768429Y-93979876D01*
X124768429Y-93979876D02*
X124804714Y-94016162D01*
X124804714Y-94016162D02*
X124841000Y-94088733D01*
X124841000Y-94088733D02*
X124841000Y-94161305D01*
X124841000Y-94161305D02*
X124804714Y-94270162D01*
X124804714Y-94270162D02*
X124369286Y-94705590D01*
X124369286Y-94705590D02*
X124841000Y-94705590D01*
X125312714Y-93943590D02*
X125385285Y-93943590D01*
X125385285Y-93943590D02*
X125457857Y-93979876D01*
X125457857Y-93979876D02*
X125494143Y-94016162D01*
X125494143Y-94016162D02*
X125530428Y-94088733D01*
X125530428Y-94088733D02*
X125566714Y-94233876D01*
X125566714Y-94233876D02*
X125566714Y-94415305D01*
X125566714Y-94415305D02*
X125530428Y-94560447D01*
X125530428Y-94560447D02*
X125494143Y-94633019D01*
X125494143Y-94633019D02*
X125457857Y-94669305D01*
X125457857Y-94669305D02*
X125385285Y-94705590D01*
X125385285Y-94705590D02*
X125312714Y-94705590D01*
X125312714Y-94705590D02*
X125240143Y-94669305D01*
X125240143Y-94669305D02*
X125203857Y-94633019D01*
X125203857Y-94633019D02*
X125167571Y-94560447D01*
X125167571Y-94560447D02*
X125131285Y-94415305D01*
X125131285Y-94415305D02*
X125131285Y-94233876D01*
X125131285Y-94233876D02*
X125167571Y-94088733D01*
X125167571Y-94088733D02*
X125203857Y-94016162D01*
X125203857Y-94016162D02*
X125240143Y-93979876D01*
X125240143Y-93979876D02*
X125312714Y-93943590D01*
X125856999Y-94016162D02*
X125893285Y-93979876D01*
X125893285Y-93979876D02*
X125965857Y-93943590D01*
X125965857Y-93943590D02*
X126147285Y-93943590D01*
X126147285Y-93943590D02*
X126219857Y-93979876D01*
X126219857Y-93979876D02*
X126256142Y-94016162D01*
X126256142Y-94016162D02*
X126292428Y-94088733D01*
X126292428Y-94088733D02*
X126292428Y-94161305D01*
X126292428Y-94161305D02*
X126256142Y-94270162D01*
X126256142Y-94270162D02*
X125820714Y-94705590D01*
X125820714Y-94705590D02*
X126292428Y-94705590D01*
X126945571Y-94197590D02*
X126945571Y-94705590D01*
X126764142Y-93907305D02*
X126582713Y-94451590D01*
X126582713Y-94451590D02*
X127054428Y-94451590D01*
X127925284Y-94705590D02*
X127925284Y-93943590D01*
X127925284Y-93943590D02*
X128360713Y-94705590D01*
X128360713Y-94705590D02*
X128360713Y-93943590D01*
X129158999Y-94633019D02*
X129122713Y-94669305D01*
X129122713Y-94669305D02*
X129013856Y-94705590D01*
X129013856Y-94705590D02*
X128941284Y-94705590D01*
X128941284Y-94705590D02*
X128832427Y-94669305D01*
X128832427Y-94669305D02*
X128759856Y-94596733D01*
X128759856Y-94596733D02*
X128723570Y-94524162D01*
X128723570Y-94524162D02*
X128687284Y-94379019D01*
X128687284Y-94379019D02*
X128687284Y-94270162D01*
X128687284Y-94270162D02*
X128723570Y-94125019D01*
X128723570Y-94125019D02*
X128759856Y-94052447D01*
X128759856Y-94052447D02*
X128832427Y-93979876D01*
X128832427Y-93979876D02*
X128941284Y-93943590D01*
X128941284Y-93943590D02*
X129013856Y-93943590D01*
X129013856Y-93943590D02*
X129122713Y-93979876D01*
X129122713Y-93979876D02*
X129158999Y-94016162D01*
X129449284Y-94669305D02*
X129558142Y-94705590D01*
X129558142Y-94705590D02*
X129739570Y-94705590D01*
X129739570Y-94705590D02*
X129812142Y-94669305D01*
X129812142Y-94669305D02*
X129848427Y-94633019D01*
X129848427Y-94633019D02*
X129884713Y-94560447D01*
X129884713Y-94560447D02*
X129884713Y-94487876D01*
X129884713Y-94487876D02*
X129848427Y-94415305D01*
X129848427Y-94415305D02*
X129812142Y-94379019D01*
X129812142Y-94379019D02*
X129739570Y-94342733D01*
X129739570Y-94342733D02*
X129594427Y-94306447D01*
X129594427Y-94306447D02*
X129521856Y-94270162D01*
X129521856Y-94270162D02*
X129485570Y-94233876D01*
X129485570Y-94233876D02*
X129449284Y-94161305D01*
X129449284Y-94161305D02*
X129449284Y-94088733D01*
X129449284Y-94088733D02*
X129485570Y-94016162D01*
X129485570Y-94016162D02*
X129521856Y-93979876D01*
X129521856Y-93979876D02*
X129594427Y-93943590D01*
X129594427Y-93943590D02*
X129775856Y-93943590D01*
X129775856Y-93943590D02*
X129884713Y-93979876D01*
X130211284Y-93943590D02*
X130211284Y-94560447D01*
X130211284Y-94560447D02*
X130247570Y-94633019D01*
X130247570Y-94633019D02*
X130283856Y-94669305D01*
X130283856Y-94669305D02*
X130356427Y-94705590D01*
X130356427Y-94705590D02*
X130501570Y-94705590D01*
X130501570Y-94705590D02*
X130574141Y-94669305D01*
X130574141Y-94669305D02*
X130610427Y-94633019D01*
X130610427Y-94633019D02*
X130646713Y-94560447D01*
X130646713Y-94560447D02*
X130646713Y-93943590D01*
X131844141Y-94306447D02*
X131952998Y-94342733D01*
X131952998Y-94342733D02*
X131989284Y-94379019D01*
X131989284Y-94379019D02*
X132025570Y-94451590D01*
X132025570Y-94451590D02*
X132025570Y-94560447D01*
X132025570Y-94560447D02*
X131989284Y-94633019D01*
X131989284Y-94633019D02*
X131952998Y-94669305D01*
X131952998Y-94669305D02*
X131880427Y-94705590D01*
X131880427Y-94705590D02*
X131590141Y-94705590D01*
X131590141Y-94705590D02*
X131590141Y-93943590D01*
X131590141Y-93943590D02*
X131844141Y-93943590D01*
X131844141Y-93943590D02*
X131916713Y-93979876D01*
X131916713Y-93979876D02*
X131952998Y-94016162D01*
X131952998Y-94016162D02*
X131989284Y-94088733D01*
X131989284Y-94088733D02*
X131989284Y-94161305D01*
X131989284Y-94161305D02*
X131952998Y-94233876D01*
X131952998Y-94233876D02*
X131916713Y-94270162D01*
X131916713Y-94270162D02*
X131844141Y-94306447D01*
X131844141Y-94306447D02*
X131590141Y-94306447D01*
X132678713Y-94705590D02*
X132678713Y-94306447D01*
X132678713Y-94306447D02*
X132642427Y-94233876D01*
X132642427Y-94233876D02*
X132569855Y-94197590D01*
X132569855Y-94197590D02*
X132424713Y-94197590D01*
X132424713Y-94197590D02*
X132352141Y-94233876D01*
X132678713Y-94669305D02*
X132606141Y-94705590D01*
X132606141Y-94705590D02*
X132424713Y-94705590D01*
X132424713Y-94705590D02*
X132352141Y-94669305D01*
X132352141Y-94669305D02*
X132315855Y-94596733D01*
X132315855Y-94596733D02*
X132315855Y-94524162D01*
X132315855Y-94524162D02*
X132352141Y-94451590D01*
X132352141Y-94451590D02*
X132424713Y-94415305D01*
X132424713Y-94415305D02*
X132606141Y-94415305D01*
X132606141Y-94415305D02*
X132678713Y-94379019D01*
X133041570Y-94197590D02*
X133041570Y-94850733D01*
X133041570Y-94850733D02*
X133005284Y-94923305D01*
X133005284Y-94923305D02*
X132932713Y-94959590D01*
X132932713Y-94959590D02*
X132896427Y-94959590D01*
X133041570Y-93943590D02*
X133005284Y-93979876D01*
X133005284Y-93979876D02*
X133041570Y-94016162D01*
X133041570Y-94016162D02*
X133077856Y-93979876D01*
X133077856Y-93979876D02*
X133041570Y-93943590D01*
X133041570Y-93943590D02*
X133041570Y-94016162D01*
X133730999Y-94705590D02*
X133730999Y-94306447D01*
X133730999Y-94306447D02*
X133694713Y-94233876D01*
X133694713Y-94233876D02*
X133622141Y-94197590D01*
X133622141Y-94197590D02*
X133476999Y-94197590D01*
X133476999Y-94197590D02*
X133404427Y-94233876D01*
X133730999Y-94669305D02*
X133658427Y-94705590D01*
X133658427Y-94705590D02*
X133476999Y-94705590D01*
X133476999Y-94705590D02*
X133404427Y-94669305D01*
X133404427Y-94669305D02*
X133368141Y-94596733D01*
X133368141Y-94596733D02*
X133368141Y-94524162D01*
X133368141Y-94524162D02*
X133404427Y-94451590D01*
X133404427Y-94451590D02*
X133476999Y-94415305D01*
X133476999Y-94415305D02*
X133658427Y-94415305D01*
X133658427Y-94415305D02*
X133730999Y-94379019D01*
D10*
X155699173Y-111409847D02*
X155699173Y-110409847D01*
X155699173Y-110409847D02*
X156080125Y-110409847D01*
X156080125Y-110409847D02*
X156175363Y-110457466D01*
X156175363Y-110457466D02*
X156222982Y-110505085D01*
X156222982Y-110505085D02*
X156270601Y-110600323D01*
X156270601Y-110600323D02*
X156270601Y-110743180D01*
X156270601Y-110743180D02*
X156222982Y-110838418D01*
X156222982Y-110838418D02*
X156175363Y-110886037D01*
X156175363Y-110886037D02*
X156080125Y-110933656D01*
X156080125Y-110933656D02*
X155699173Y-110933656D01*
X156889649Y-110409847D02*
X157080125Y-110409847D01*
X157080125Y-110409847D02*
X157175363Y-110457466D01*
X157175363Y-110457466D02*
X157270601Y-110552704D01*
X157270601Y-110552704D02*
X157318220Y-110743180D01*
X157318220Y-110743180D02*
X157318220Y-111076513D01*
X157318220Y-111076513D02*
X157270601Y-111266989D01*
X157270601Y-111266989D02*
X157175363Y-111362228D01*
X157175363Y-111362228D02*
X157080125Y-111409847D01*
X157080125Y-111409847D02*
X156889649Y-111409847D01*
X156889649Y-111409847D02*
X156794411Y-111362228D01*
X156794411Y-111362228D02*
X156699173Y-111266989D01*
X156699173Y-111266989D02*
X156651554Y-111076513D01*
X156651554Y-111076513D02*
X156651554Y-110743180D01*
X156651554Y-110743180D02*
X156699173Y-110552704D01*
X156699173Y-110552704D02*
X156794411Y-110457466D01*
X156794411Y-110457466D02*
X156889649Y-110409847D01*
X157651554Y-110409847D02*
X157889649Y-111409847D01*
X157889649Y-111409847D02*
X158080125Y-110695561D01*
X158080125Y-110695561D02*
X158270601Y-111409847D01*
X158270601Y-111409847D02*
X158508697Y-110409847D01*
X158889649Y-110886037D02*
X159222982Y-110886037D01*
X159365839Y-111409847D02*
X158889649Y-111409847D01*
X158889649Y-111409847D02*
X158889649Y-110409847D01*
X158889649Y-110409847D02*
X159365839Y-110409847D01*
X160365839Y-111409847D02*
X160032506Y-110933656D01*
X159794411Y-111409847D02*
X159794411Y-110409847D01*
X159794411Y-110409847D02*
X160175363Y-110409847D01*
X160175363Y-110409847D02*
X160270601Y-110457466D01*
X160270601Y-110457466D02*
X160318220Y-110505085D01*
X160318220Y-110505085D02*
X160365839Y-110600323D01*
X160365839Y-110600323D02*
X160365839Y-110743180D01*
X160365839Y-110743180D02*
X160318220Y-110838418D01*
X160318220Y-110838418D02*
X160270601Y-110886037D01*
X160270601Y-110886037D02*
X160175363Y-110933656D01*
X160175363Y-110933656D02*
X159794411Y-110933656D01*
X155461077Y-112924552D02*
X155413458Y-112972172D01*
X155413458Y-112972172D02*
X155270601Y-113019791D01*
X155270601Y-113019791D02*
X155175363Y-113019791D01*
X155175363Y-113019791D02*
X155032506Y-112972172D01*
X155032506Y-112972172D02*
X154937268Y-112876933D01*
X154937268Y-112876933D02*
X154889649Y-112781695D01*
X154889649Y-112781695D02*
X154842030Y-112591219D01*
X154842030Y-112591219D02*
X154842030Y-112448362D01*
X154842030Y-112448362D02*
X154889649Y-112257886D01*
X154889649Y-112257886D02*
X154937268Y-112162648D01*
X154937268Y-112162648D02*
X155032506Y-112067410D01*
X155032506Y-112067410D02*
X155175363Y-112019791D01*
X155175363Y-112019791D02*
X155270601Y-112019791D01*
X155270601Y-112019791D02*
X155413458Y-112067410D01*
X155413458Y-112067410D02*
X155461077Y-112115029D01*
X155842030Y-112734076D02*
X156318220Y-112734076D01*
X155746792Y-113019791D02*
X156080125Y-112019791D01*
X156080125Y-112019791D02*
X156413458Y-113019791D01*
X156746792Y-113019791D02*
X156746792Y-112019791D01*
X156746792Y-112019791D02*
X157318220Y-113019791D01*
X157318220Y-113019791D02*
X157318220Y-112019791D01*
X158127744Y-112495981D02*
X158270601Y-112543600D01*
X158270601Y-112543600D02*
X158318220Y-112591219D01*
X158318220Y-112591219D02*
X158365839Y-112686457D01*
X158365839Y-112686457D02*
X158365839Y-112829314D01*
X158365839Y-112829314D02*
X158318220Y-112924552D01*
X158318220Y-112924552D02*
X158270601Y-112972172D01*
X158270601Y-112972172D02*
X158175363Y-113019791D01*
X158175363Y-113019791D02*
X157794411Y-113019791D01*
X157794411Y-113019791D02*
X157794411Y-112019791D01*
X157794411Y-112019791D02*
X158127744Y-112019791D01*
X158127744Y-112019791D02*
X158222982Y-112067410D01*
X158222982Y-112067410D02*
X158270601Y-112115029D01*
X158270601Y-112115029D02*
X158318220Y-112210267D01*
X158318220Y-112210267D02*
X158318220Y-112305505D01*
X158318220Y-112305505D02*
X158270601Y-112400743D01*
X158270601Y-112400743D02*
X158222982Y-112448362D01*
X158222982Y-112448362D02*
X158127744Y-112495981D01*
X158127744Y-112495981D02*
X157794411Y-112495981D01*
X158794411Y-112019791D02*
X158794411Y-112829314D01*
X158794411Y-112829314D02*
X158842030Y-112924552D01*
X158842030Y-112924552D02*
X158889649Y-112972172D01*
X158889649Y-112972172D02*
X158984887Y-113019791D01*
X158984887Y-113019791D02*
X159175363Y-113019791D01*
X159175363Y-113019791D02*
X159270601Y-112972172D01*
X159270601Y-112972172D02*
X159318220Y-112924552D01*
X159318220Y-112924552D02*
X159365839Y-112829314D01*
X159365839Y-112829314D02*
X159365839Y-112019791D01*
X159794411Y-112972172D02*
X159937268Y-113019791D01*
X159937268Y-113019791D02*
X160175363Y-113019791D01*
X160175363Y-113019791D02*
X160270601Y-112972172D01*
X160270601Y-112972172D02*
X160318220Y-112924552D01*
X160318220Y-112924552D02*
X160365839Y-112829314D01*
X160365839Y-112829314D02*
X160365839Y-112734076D01*
X160365839Y-112734076D02*
X160318220Y-112638838D01*
X160318220Y-112638838D02*
X160270601Y-112591219D01*
X160270601Y-112591219D02*
X160175363Y-112543600D01*
X160175363Y-112543600D02*
X159984887Y-112495981D01*
X159984887Y-112495981D02*
X159889649Y-112448362D01*
X159889649Y-112448362D02*
X159842030Y-112400743D01*
X159842030Y-112400743D02*
X159794411Y-112305505D01*
X159794411Y-112305505D02*
X159794411Y-112210267D01*
X159794411Y-112210267D02*
X159842030Y-112115029D01*
X159842030Y-112115029D02*
X159889649Y-112067410D01*
X159889649Y-112067410D02*
X159984887Y-112019791D01*
X159984887Y-112019791D02*
X160222982Y-112019791D01*
X160222982Y-112019791D02*
X160365839Y-112067410D01*
X120678887Y-105864819D02*
X120678887Y-104864819D01*
X120678887Y-104864819D02*
X121059839Y-104864819D01*
X121059839Y-104864819D02*
X121155077Y-104912438D01*
X121155077Y-104912438D02*
X121202696Y-104960057D01*
X121202696Y-104960057D02*
X121250315Y-105055295D01*
X121250315Y-105055295D02*
X121250315Y-105198152D01*
X121250315Y-105198152D02*
X121202696Y-105293390D01*
X121202696Y-105293390D02*
X121155077Y-105341009D01*
X121155077Y-105341009D02*
X121059839Y-105388628D01*
X121059839Y-105388628D02*
X120678887Y-105388628D01*
X121631268Y-105579104D02*
X122107458Y-105579104D01*
X121536030Y-105864819D02*
X121869363Y-104864819D01*
X121869363Y-104864819D02*
X122202696Y-105864819D01*
X122440792Y-104864819D02*
X123059839Y-104864819D01*
X123059839Y-104864819D02*
X122726506Y-105245771D01*
X122726506Y-105245771D02*
X122869363Y-105245771D01*
X122869363Y-105245771D02*
X122964601Y-105293390D01*
X122964601Y-105293390D02*
X123012220Y-105341009D01*
X123012220Y-105341009D02*
X123059839Y-105436247D01*
X123059839Y-105436247D02*
X123059839Y-105674342D01*
X123059839Y-105674342D02*
X123012220Y-105769580D01*
X123012220Y-105769580D02*
X122964601Y-105817200D01*
X122964601Y-105817200D02*
X122869363Y-105864819D01*
X122869363Y-105864819D02*
X122583649Y-105864819D01*
X122583649Y-105864819D02*
X122488411Y-105817200D01*
X122488411Y-105817200D02*
X122440792Y-105769580D01*
X124202696Y-104817200D02*
X123345554Y-106102914D01*
X124440792Y-104864819D02*
X125107458Y-104864819D01*
X125107458Y-104864819D02*
X124678887Y-105864819D01*
X116271922Y-99707819D02*
X116843350Y-99707819D01*
X116557636Y-100707819D02*
X116557636Y-99707819D01*
X117081446Y-99707819D02*
X117748112Y-100707819D01*
X117748112Y-99707819D02*
X117081446Y-100707819D01*
D14*
X159650776Y-96157990D02*
X159408871Y-96157990D01*
X159408871Y-96157990D02*
X159384680Y-96399895D01*
X159384680Y-96399895D02*
X159408871Y-96375704D01*
X159408871Y-96375704D02*
X159457252Y-96351514D01*
X159457252Y-96351514D02*
X159578204Y-96351514D01*
X159578204Y-96351514D02*
X159626585Y-96375704D01*
X159626585Y-96375704D02*
X159650776Y-96399895D01*
X159650776Y-96399895D02*
X159674966Y-96448276D01*
X159674966Y-96448276D02*
X159674966Y-96569228D01*
X159674966Y-96569228D02*
X159650776Y-96617609D01*
X159650776Y-96617609D02*
X159626585Y-96641800D01*
X159626585Y-96641800D02*
X159578204Y-96665990D01*
X159578204Y-96665990D02*
X159457252Y-96665990D01*
X159457252Y-96665990D02*
X159408871Y-96641800D01*
X159408871Y-96641800D02*
X159384680Y-96617609D01*
X159820109Y-96157990D02*
X159989443Y-96665990D01*
X159989443Y-96665990D02*
X160158776Y-96157990D01*
X159046015Y-97000032D02*
X158997634Y-96975842D01*
X158997634Y-96975842D02*
X158925063Y-96975842D01*
X158925063Y-96975842D02*
X158852491Y-97000032D01*
X158852491Y-97000032D02*
X158804110Y-97048413D01*
X158804110Y-97048413D02*
X158779920Y-97096794D01*
X158779920Y-97096794D02*
X158755729Y-97193556D01*
X158755729Y-97193556D02*
X158755729Y-97266128D01*
X158755729Y-97266128D02*
X158779920Y-97362890D01*
X158779920Y-97362890D02*
X158804110Y-97411271D01*
X158804110Y-97411271D02*
X158852491Y-97459652D01*
X158852491Y-97459652D02*
X158925063Y-97483842D01*
X158925063Y-97483842D02*
X158973444Y-97483842D01*
X158973444Y-97483842D02*
X159046015Y-97459652D01*
X159046015Y-97459652D02*
X159070206Y-97435461D01*
X159070206Y-97435461D02*
X159070206Y-97266128D01*
X159070206Y-97266128D02*
X158973444Y-97266128D01*
X159287920Y-97483842D02*
X159287920Y-96975842D01*
X159287920Y-96975842D02*
X159578206Y-97483842D01*
X159578206Y-97483842D02*
X159578206Y-96975842D01*
X159820110Y-97483842D02*
X159820110Y-96975842D01*
X159820110Y-96975842D02*
X159941062Y-96975842D01*
X159941062Y-96975842D02*
X160013634Y-97000032D01*
X160013634Y-97000032D02*
X160062015Y-97048413D01*
X160062015Y-97048413D02*
X160086205Y-97096794D01*
X160086205Y-97096794D02*
X160110396Y-97193556D01*
X160110396Y-97193556D02*
X160110396Y-97266128D01*
X160110396Y-97266128D02*
X160086205Y-97362890D01*
X160086205Y-97362890D02*
X160062015Y-97411271D01*
X160062015Y-97411271D02*
X160013634Y-97459652D01*
X160013634Y-97459652D02*
X159941062Y-97483842D01*
X159941062Y-97483842D02*
X159820110Y-97483842D01*
X158610587Y-98253313D02*
X158586396Y-98277504D01*
X158586396Y-98277504D02*
X158513825Y-98301694D01*
X158513825Y-98301694D02*
X158465444Y-98301694D01*
X158465444Y-98301694D02*
X158392872Y-98277504D01*
X158392872Y-98277504D02*
X158344491Y-98229123D01*
X158344491Y-98229123D02*
X158320301Y-98180742D01*
X158320301Y-98180742D02*
X158296110Y-98083980D01*
X158296110Y-98083980D02*
X158296110Y-98011408D01*
X158296110Y-98011408D02*
X158320301Y-97914646D01*
X158320301Y-97914646D02*
X158344491Y-97866265D01*
X158344491Y-97866265D02*
X158392872Y-97817884D01*
X158392872Y-97817884D02*
X158465444Y-97793694D01*
X158465444Y-97793694D02*
X158513825Y-97793694D01*
X158513825Y-97793694D02*
X158586396Y-97817884D01*
X158586396Y-97817884D02*
X158610587Y-97842075D01*
X158804110Y-98156551D02*
X159046015Y-98156551D01*
X158755729Y-98301694D02*
X158925063Y-97793694D01*
X158925063Y-97793694D02*
X159094396Y-98301694D01*
X159263730Y-98301694D02*
X159263730Y-97793694D01*
X159263730Y-97793694D02*
X159554016Y-98301694D01*
X159554016Y-98301694D02*
X159554016Y-97793694D01*
X159795920Y-98301694D02*
X159795920Y-97793694D01*
X159795920Y-98035599D02*
X160086206Y-98035599D01*
X160086206Y-98301694D02*
X160086206Y-97793694D01*
X158731539Y-99071165D02*
X158707348Y-99095356D01*
X158707348Y-99095356D02*
X158634777Y-99119546D01*
X158634777Y-99119546D02*
X158586396Y-99119546D01*
X158586396Y-99119546D02*
X158513824Y-99095356D01*
X158513824Y-99095356D02*
X158465443Y-99046975D01*
X158465443Y-99046975D02*
X158441253Y-98998594D01*
X158441253Y-98998594D02*
X158417062Y-98901832D01*
X158417062Y-98901832D02*
X158417062Y-98829260D01*
X158417062Y-98829260D02*
X158441253Y-98732498D01*
X158441253Y-98732498D02*
X158465443Y-98684117D01*
X158465443Y-98684117D02*
X158513824Y-98635736D01*
X158513824Y-98635736D02*
X158586396Y-98611546D01*
X158586396Y-98611546D02*
X158634777Y-98611546D01*
X158634777Y-98611546D02*
X158707348Y-98635736D01*
X158707348Y-98635736D02*
X158731539Y-98659927D01*
X158925062Y-98974403D02*
X159166967Y-98974403D01*
X158876681Y-99119546D02*
X159046015Y-98611546D01*
X159046015Y-98611546D02*
X159215348Y-99119546D01*
X159384682Y-99119546D02*
X159384682Y-98611546D01*
X159384682Y-98611546D02*
X159674968Y-99119546D01*
X159674968Y-99119546D02*
X159674968Y-98611546D01*
X160158777Y-99119546D02*
X159916872Y-99119546D01*
X159916872Y-99119546D02*
X159916872Y-98611546D01*
D10*
X142668666Y-90005819D02*
X142668666Y-90720104D01*
X142668666Y-90720104D02*
X142621047Y-90862961D01*
X142621047Y-90862961D02*
X142525809Y-90958200D01*
X142525809Y-90958200D02*
X142382952Y-91005819D01*
X142382952Y-91005819D02*
X142287714Y-91005819D01*
X143668666Y-91005819D02*
X143097238Y-91005819D01*
X143382952Y-91005819D02*
X143382952Y-90005819D01*
X143382952Y-90005819D02*
X143287714Y-90148676D01*
X143287714Y-90148676D02*
X143192476Y-90243914D01*
X143192476Y-90243914D02*
X143097238Y-90291533D01*
X153376333Y-99927580D02*
X153328714Y-99975200D01*
X153328714Y-99975200D02*
X153185857Y-100022819D01*
X153185857Y-100022819D02*
X153090619Y-100022819D01*
X153090619Y-100022819D02*
X152947762Y-99975200D01*
X152947762Y-99975200D02*
X152852524Y-99879961D01*
X152852524Y-99879961D02*
X152804905Y-99784723D01*
X152804905Y-99784723D02*
X152757286Y-99594247D01*
X152757286Y-99594247D02*
X152757286Y-99451390D01*
X152757286Y-99451390D02*
X152804905Y-99260914D01*
X152804905Y-99260914D02*
X152852524Y-99165676D01*
X152852524Y-99165676D02*
X152947762Y-99070438D01*
X152947762Y-99070438D02*
X153090619Y-99022819D01*
X153090619Y-99022819D02*
X153185857Y-99022819D01*
X153185857Y-99022819D02*
X153328714Y-99070438D01*
X153328714Y-99070438D02*
X153376333Y-99118057D01*
X154328714Y-100022819D02*
X153757286Y-100022819D01*
X154043000Y-100022819D02*
X154043000Y-99022819D01*
X154043000Y-99022819D02*
X153947762Y-99165676D01*
X153947762Y-99165676D02*
X153852524Y-99260914D01*
X153852524Y-99260914D02*
X153757286Y-99308533D01*
X148169333Y-111865580D02*
X148121714Y-111913200D01*
X148121714Y-111913200D02*
X147978857Y-111960819D01*
X147978857Y-111960819D02*
X147883619Y-111960819D01*
X147883619Y-111960819D02*
X147740762Y-111913200D01*
X147740762Y-111913200D02*
X147645524Y-111817961D01*
X147645524Y-111817961D02*
X147597905Y-111722723D01*
X147597905Y-111722723D02*
X147550286Y-111532247D01*
X147550286Y-111532247D02*
X147550286Y-111389390D01*
X147550286Y-111389390D02*
X147597905Y-111198914D01*
X147597905Y-111198914D02*
X147645524Y-111103676D01*
X147645524Y-111103676D02*
X147740762Y-111008438D01*
X147740762Y-111008438D02*
X147883619Y-110960819D01*
X147883619Y-110960819D02*
X147978857Y-110960819D01*
X147978857Y-110960819D02*
X148121714Y-111008438D01*
X148121714Y-111008438D02*
X148169333Y-111056057D01*
X149026476Y-111294152D02*
X149026476Y-111960819D01*
X148788381Y-110913200D02*
X148550286Y-111627485D01*
X148550286Y-111627485D02*
X149169333Y-111627485D01*
X128699819Y-105608333D02*
X129414104Y-105608333D01*
X129414104Y-105608333D02*
X129556961Y-105655952D01*
X129556961Y-105655952D02*
X129652200Y-105751190D01*
X129652200Y-105751190D02*
X129699819Y-105894047D01*
X129699819Y-105894047D02*
X129699819Y-105989285D01*
X129699819Y-105132142D02*
X128699819Y-105132142D01*
X128699819Y-105132142D02*
X128699819Y-104751190D01*
X128699819Y-104751190D02*
X128747438Y-104655952D01*
X128747438Y-104655952D02*
X128795057Y-104608333D01*
X128795057Y-104608333D02*
X128890295Y-104560714D01*
X128890295Y-104560714D02*
X129033152Y-104560714D01*
X129033152Y-104560714D02*
X129128390Y-104608333D01*
X129128390Y-104608333D02*
X129176009Y-104655952D01*
X129176009Y-104655952D02*
X129223628Y-104751190D01*
X129223628Y-104751190D02*
X129223628Y-105132142D01*
X128699819Y-104227380D02*
X128699819Y-103608333D01*
X128699819Y-103608333D02*
X129080771Y-103941666D01*
X129080771Y-103941666D02*
X129080771Y-103798809D01*
X129080771Y-103798809D02*
X129128390Y-103703571D01*
X129128390Y-103703571D02*
X129176009Y-103655952D01*
X129176009Y-103655952D02*
X129271247Y-103608333D01*
X129271247Y-103608333D02*
X129509342Y-103608333D01*
X129509342Y-103608333D02*
X129604580Y-103655952D01*
X129604580Y-103655952D02*
X129652200Y-103703571D01*
X129652200Y-103703571D02*
X129699819Y-103798809D01*
X129699819Y-103798809D02*
X129699819Y-104084523D01*
X129699819Y-104084523D02*
X129652200Y-104179761D01*
X129652200Y-104179761D02*
X129604580Y-104227380D01*
X149185333Y-110309819D02*
X148852000Y-109833628D01*
X148613905Y-110309819D02*
X148613905Y-109309819D01*
X148613905Y-109309819D02*
X148994857Y-109309819D01*
X148994857Y-109309819D02*
X149090095Y-109357438D01*
X149090095Y-109357438D02*
X149137714Y-109405057D01*
X149137714Y-109405057D02*
X149185333Y-109500295D01*
X149185333Y-109500295D02*
X149185333Y-109643152D01*
X149185333Y-109643152D02*
X149137714Y-109738390D01*
X149137714Y-109738390D02*
X149090095Y-109786009D01*
X149090095Y-109786009D02*
X148994857Y-109833628D01*
X148994857Y-109833628D02*
X148613905Y-109833628D01*
X150137714Y-110309819D02*
X149566286Y-110309819D01*
X149852000Y-110309819D02*
X149852000Y-109309819D01*
X149852000Y-109309819D02*
X149756762Y-109452676D01*
X149756762Y-109452676D02*
X149661524Y-109547914D01*
X149661524Y-109547914D02*
X149566286Y-109595533D01*
X128699819Y-109418333D02*
X129414104Y-109418333D01*
X129414104Y-109418333D02*
X129556961Y-109465952D01*
X129556961Y-109465952D02*
X129652200Y-109561190D01*
X129652200Y-109561190D02*
X129699819Y-109704047D01*
X129699819Y-109704047D02*
X129699819Y-109799285D01*
X129699819Y-108942142D02*
X128699819Y-108942142D01*
X128699819Y-108942142D02*
X128699819Y-108561190D01*
X128699819Y-108561190D02*
X128747438Y-108465952D01*
X128747438Y-108465952D02*
X128795057Y-108418333D01*
X128795057Y-108418333D02*
X128890295Y-108370714D01*
X128890295Y-108370714D02*
X129033152Y-108370714D01*
X129033152Y-108370714D02*
X129128390Y-108418333D01*
X129128390Y-108418333D02*
X129176009Y-108465952D01*
X129176009Y-108465952D02*
X129223628Y-108561190D01*
X129223628Y-108561190D02*
X129223628Y-108942142D01*
X129699819Y-107418333D02*
X129699819Y-107989761D01*
X129699819Y-107704047D02*
X128699819Y-107704047D01*
X128699819Y-107704047D02*
X128842676Y-107799285D01*
X128842676Y-107799285D02*
X128937914Y-107894523D01*
X128937914Y-107894523D02*
X128985533Y-107989761D01*
X156127666Y-98260819D02*
X156127666Y-98975104D01*
X156127666Y-98975104D02*
X156080047Y-99117961D01*
X156080047Y-99117961D02*
X155984809Y-99213200D01*
X155984809Y-99213200D02*
X155841952Y-99260819D01*
X155841952Y-99260819D02*
X155746714Y-99260819D01*
X156556238Y-98356057D02*
X156603857Y-98308438D01*
X156603857Y-98308438D02*
X156699095Y-98260819D01*
X156699095Y-98260819D02*
X156937190Y-98260819D01*
X156937190Y-98260819D02*
X157032428Y-98308438D01*
X157032428Y-98308438D02*
X157080047Y-98356057D01*
X157080047Y-98356057D02*
X157127666Y-98451295D01*
X157127666Y-98451295D02*
X157127666Y-98546533D01*
X157127666Y-98546533D02*
X157080047Y-98689390D01*
X157080047Y-98689390D02*
X156508619Y-99260819D01*
X156508619Y-99260819D02*
X157127666Y-99260819D01*
X151918905Y-110169819D02*
X151918905Y-109169819D01*
X151918905Y-109169819D02*
X152157000Y-109169819D01*
X152157000Y-109169819D02*
X152299857Y-109217438D01*
X152299857Y-109217438D02*
X152395095Y-109312676D01*
X152395095Y-109312676D02*
X152442714Y-109407914D01*
X152442714Y-109407914D02*
X152490333Y-109598390D01*
X152490333Y-109598390D02*
X152490333Y-109741247D01*
X152490333Y-109741247D02*
X152442714Y-109931723D01*
X152442714Y-109931723D02*
X152395095Y-110026961D01*
X152395095Y-110026961D02*
X152299857Y-110122200D01*
X152299857Y-110122200D02*
X152157000Y-110169819D01*
X152157000Y-110169819D02*
X151918905Y-110169819D01*
X153442714Y-110169819D02*
X152871286Y-110169819D01*
X153157000Y-110169819D02*
X153157000Y-109169819D01*
X153157000Y-109169819D02*
X153061762Y-109312676D01*
X153061762Y-109312676D02*
X152966524Y-109407914D01*
X152966524Y-109407914D02*
X152871286Y-109455533D01*
X128699819Y-101798333D02*
X129414104Y-101798333D01*
X129414104Y-101798333D02*
X129556961Y-101845952D01*
X129556961Y-101845952D02*
X129652200Y-101941190D01*
X129652200Y-101941190D02*
X129699819Y-102084047D01*
X129699819Y-102084047D02*
X129699819Y-102179285D01*
X129699819Y-101322142D02*
X128699819Y-101322142D01*
X128699819Y-101322142D02*
X128699819Y-100941190D01*
X128699819Y-100941190D02*
X128747438Y-100845952D01*
X128747438Y-100845952D02*
X128795057Y-100798333D01*
X128795057Y-100798333D02*
X128890295Y-100750714D01*
X128890295Y-100750714D02*
X129033152Y-100750714D01*
X129033152Y-100750714D02*
X129128390Y-100798333D01*
X129128390Y-100798333D02*
X129176009Y-100845952D01*
X129176009Y-100845952D02*
X129223628Y-100941190D01*
X129223628Y-100941190D02*
X129223628Y-101322142D01*
X128795057Y-100369761D02*
X128747438Y-100322142D01*
X128747438Y-100322142D02*
X128699819Y-100226904D01*
X128699819Y-100226904D02*
X128699819Y-99988809D01*
X128699819Y-99988809D02*
X128747438Y-99893571D01*
X128747438Y-99893571D02*
X128795057Y-99845952D01*
X128795057Y-99845952D02*
X128890295Y-99798333D01*
X128890295Y-99798333D02*
X128985533Y-99798333D01*
X128985533Y-99798333D02*
X129128390Y-99845952D01*
X129128390Y-99845952D02*
X129699819Y-100417380D01*
X129699819Y-100417380D02*
X129699819Y-99798333D01*
X137519580Y-105195666D02*
X137567200Y-105243285D01*
X137567200Y-105243285D02*
X137614819Y-105386142D01*
X137614819Y-105386142D02*
X137614819Y-105481380D01*
X137614819Y-105481380D02*
X137567200Y-105624237D01*
X137567200Y-105624237D02*
X137471961Y-105719475D01*
X137471961Y-105719475D02*
X137376723Y-105767094D01*
X137376723Y-105767094D02*
X137186247Y-105814713D01*
X137186247Y-105814713D02*
X137043390Y-105814713D01*
X137043390Y-105814713D02*
X136852914Y-105767094D01*
X136852914Y-105767094D02*
X136757676Y-105719475D01*
X136757676Y-105719475D02*
X136662438Y-105624237D01*
X136662438Y-105624237D02*
X136614819Y-105481380D01*
X136614819Y-105481380D02*
X136614819Y-105386142D01*
X136614819Y-105386142D02*
X136662438Y-105243285D01*
X136662438Y-105243285D02*
X136710057Y-105195666D01*
X136710057Y-104814713D02*
X136662438Y-104767094D01*
X136662438Y-104767094D02*
X136614819Y-104671856D01*
X136614819Y-104671856D02*
X136614819Y-104433761D01*
X136614819Y-104433761D02*
X136662438Y-104338523D01*
X136662438Y-104338523D02*
X136710057Y-104290904D01*
X136710057Y-104290904D02*
X136805295Y-104243285D01*
X136805295Y-104243285D02*
X136900533Y-104243285D01*
X136900533Y-104243285D02*
X137043390Y-104290904D01*
X137043390Y-104290904D02*
X137614819Y-104862332D01*
X137614819Y-104862332D02*
X137614819Y-104243285D01*
X111175866Y-94560819D02*
X111175866Y-95275104D01*
X111175866Y-95275104D02*
X111128247Y-95417961D01*
X111128247Y-95417961D02*
X111033009Y-95513200D01*
X111033009Y-95513200D02*
X110890152Y-95560819D01*
X110890152Y-95560819D02*
X110794914Y-95560819D01*
X112080628Y-94894152D02*
X112080628Y-95560819D01*
X111842533Y-94513200D02*
X111604438Y-95227485D01*
X111604438Y-95227485D02*
X112223485Y-95227485D01*
X137628333Y-111865580D02*
X137580714Y-111913200D01*
X137580714Y-111913200D02*
X137437857Y-111960819D01*
X137437857Y-111960819D02*
X137342619Y-111960819D01*
X137342619Y-111960819D02*
X137199762Y-111913200D01*
X137199762Y-111913200D02*
X137104524Y-111817961D01*
X137104524Y-111817961D02*
X137056905Y-111722723D01*
X137056905Y-111722723D02*
X137009286Y-111532247D01*
X137009286Y-111532247D02*
X137009286Y-111389390D01*
X137009286Y-111389390D02*
X137056905Y-111198914D01*
X137056905Y-111198914D02*
X137104524Y-111103676D01*
X137104524Y-111103676D02*
X137199762Y-111008438D01*
X137199762Y-111008438D02*
X137342619Y-110960819D01*
X137342619Y-110960819D02*
X137437857Y-110960819D01*
X137437857Y-110960819D02*
X137580714Y-111008438D01*
X137580714Y-111008438D02*
X137628333Y-111056057D01*
X137961667Y-110960819D02*
X138580714Y-110960819D01*
X138580714Y-110960819D02*
X138247381Y-111341771D01*
X138247381Y-111341771D02*
X138390238Y-111341771D01*
X138390238Y-111341771D02*
X138485476Y-111389390D01*
X138485476Y-111389390D02*
X138533095Y-111437009D01*
X138533095Y-111437009D02*
X138580714Y-111532247D01*
X138580714Y-111532247D02*
X138580714Y-111770342D01*
X138580714Y-111770342D02*
X138533095Y-111865580D01*
X138533095Y-111865580D02*
X138485476Y-111913200D01*
X138485476Y-111913200D02*
X138390238Y-111960819D01*
X138390238Y-111960819D02*
X138104524Y-111960819D01*
X138104524Y-111960819D02*
X138009286Y-111913200D01*
X138009286Y-111913200D02*
X137961667Y-111865580D01*
X142243095Y-98006819D02*
X142243095Y-98816342D01*
X142243095Y-98816342D02*
X142290714Y-98911580D01*
X142290714Y-98911580D02*
X142338333Y-98959200D01*
X142338333Y-98959200D02*
X142433571Y-99006819D01*
X142433571Y-99006819D02*
X142624047Y-99006819D01*
X142624047Y-99006819D02*
X142719285Y-98959200D01*
X142719285Y-98959200D02*
X142766904Y-98911580D01*
X142766904Y-98911580D02*
X142814523Y-98816342D01*
X142814523Y-98816342D02*
X142814523Y-98006819D01*
X143243095Y-98102057D02*
X143290714Y-98054438D01*
X143290714Y-98054438D02*
X143385952Y-98006819D01*
X143385952Y-98006819D02*
X143624047Y-98006819D01*
X143624047Y-98006819D02*
X143719285Y-98054438D01*
X143719285Y-98054438D02*
X143766904Y-98102057D01*
X143766904Y-98102057D02*
X143814523Y-98197295D01*
X143814523Y-98197295D02*
X143814523Y-98292533D01*
X143814523Y-98292533D02*
X143766904Y-98435390D01*
X143766904Y-98435390D02*
X143195476Y-99006819D01*
X143195476Y-99006819D02*
X143814523Y-99006819D01*
X137120333Y-91672580D02*
X137072714Y-91720200D01*
X137072714Y-91720200D02*
X136929857Y-91767819D01*
X136929857Y-91767819D02*
X136834619Y-91767819D01*
X136834619Y-91767819D02*
X136691762Y-91720200D01*
X136691762Y-91720200D02*
X136596524Y-91624961D01*
X136596524Y-91624961D02*
X136548905Y-91529723D01*
X136548905Y-91529723D02*
X136501286Y-91339247D01*
X136501286Y-91339247D02*
X136501286Y-91196390D01*
X136501286Y-91196390D02*
X136548905Y-91005914D01*
X136548905Y-91005914D02*
X136596524Y-90910676D01*
X136596524Y-90910676D02*
X136691762Y-90815438D01*
X136691762Y-90815438D02*
X136834619Y-90767819D01*
X136834619Y-90767819D02*
X136929857Y-90767819D01*
X136929857Y-90767819D02*
X137072714Y-90815438D01*
X137072714Y-90815438D02*
X137120333Y-90863057D01*
X138025095Y-90767819D02*
X137548905Y-90767819D01*
X137548905Y-90767819D02*
X137501286Y-91244009D01*
X137501286Y-91244009D02*
X137548905Y-91196390D01*
X137548905Y-91196390D02*
X137644143Y-91148771D01*
X137644143Y-91148771D02*
X137882238Y-91148771D01*
X137882238Y-91148771D02*
X137977476Y-91196390D01*
X137977476Y-91196390D02*
X138025095Y-91244009D01*
X138025095Y-91244009D02*
X138072714Y-91339247D01*
X138072714Y-91339247D02*
X138072714Y-91577342D01*
X138072714Y-91577342D02*
X138025095Y-91672580D01*
X138025095Y-91672580D02*
X137977476Y-91720200D01*
X137977476Y-91720200D02*
X137882238Y-91767819D01*
X137882238Y-91767819D02*
X137644143Y-91767819D01*
X137644143Y-91767819D02*
X137548905Y-91720200D01*
X137548905Y-91720200D02*
X137501286Y-91672580D01*
D15*
X139135000Y-91380000D02*
X146875000Y-91380000D01*
X139135000Y-93980000D02*
X139135000Y-91380000D01*
X139135000Y-96580000D02*
X139135000Y-95250000D01*
X140465000Y-96580000D02*
X139135000Y-96580000D01*
X141735000Y-93980000D02*
X139135000Y-93980000D01*
X141735000Y-96580000D02*
X141735000Y-93980000D01*
X141735000Y-96580000D02*
X146875000Y-96580000D01*
X146875000Y-96580000D02*
X146875000Y-91380000D01*
X152811000Y-102263752D02*
X152811000Y-101741248D01*
X154281000Y-102263752D02*
X154281000Y-101741248D01*
X145806252Y-110771000D02*
X145283748Y-110771000D01*
X145806252Y-112241000D02*
X145283748Y-112241000D01*
X130245000Y-106105000D02*
X130245000Y-104775000D01*
X131575000Y-106105000D02*
X130245000Y-106105000D01*
X132845000Y-103445000D02*
X135445000Y-103445000D01*
X132845000Y-106105000D02*
X132845000Y-103445000D01*
X132845000Y-106105000D02*
X135445000Y-106105000D01*
X135445000Y-106105000D02*
X135445000Y-103445000D01*
X148620000Y-107087936D02*
X148620000Y-107542064D01*
X150090000Y-107087936D02*
X150090000Y-107542064D01*
X130245000Y-109915000D02*
X130245000Y-108585000D01*
X131575000Y-109915000D02*
X130245000Y-109915000D01*
X132845000Y-107255000D02*
X135445000Y-107255000D01*
X132845000Y-109915000D02*
X132845000Y-107255000D01*
X132845000Y-109915000D02*
X135445000Y-109915000D01*
X135445000Y-109915000D02*
X135445000Y-107255000D01*
X125670000Y-96460000D02*
X127000000Y-96460000D01*
X125670000Y-97790000D02*
X125670000Y-96460000D01*
X125670000Y-99060000D02*
X125670000Y-106740000D01*
X125670000Y-99060000D02*
X128330000Y-99060000D01*
X125670000Y-106740000D02*
X128330000Y-106740000D01*
X128330000Y-99060000D02*
X128330000Y-106740000D01*
X155137000Y-99705000D02*
X156407000Y-99705000D01*
X155137000Y-100975000D02*
X155137000Y-99705000D01*
X157449929Y-103135000D02*
X157847000Y-103135000D01*
X157449929Y-103895000D02*
X157847000Y-103895000D01*
X157449929Y-105675000D02*
X157847000Y-105675000D01*
X157449929Y-106435000D02*
X157847000Y-106435000D01*
X157449929Y-108215000D02*
X157847000Y-108215000D01*
X157449929Y-108975000D02*
X157847000Y-108975000D01*
X157517000Y-100595000D02*
X157847000Y-100595000D01*
X157517000Y-101355000D02*
X157847000Y-101355000D01*
X157847000Y-99645000D02*
X157847000Y-109925000D01*
X157847000Y-102245000D02*
X160507000Y-102245000D01*
X157847000Y-104785000D02*
X160507000Y-104785000D01*
X157847000Y-107325000D02*
X160507000Y-107325000D01*
X157847000Y-109925000D02*
X160507000Y-109925000D01*
X160507000Y-99645000D02*
X157847000Y-99645000D01*
X160507000Y-100595000D02*
X166507000Y-100595000D01*
X160507000Y-100655000D02*
X166507000Y-100655000D01*
X160507000Y-100775000D02*
X166507000Y-100775000D01*
X160507000Y-100895000D02*
X166507000Y-100895000D01*
X160507000Y-101015000D02*
X166507000Y-101015000D01*
X160507000Y-101135000D02*
X166507000Y-101135000D01*
X160507000Y-101255000D02*
X166507000Y-101255000D01*
X160507000Y-103135000D02*
X166507000Y-103135000D01*
X160507000Y-105675000D02*
X166507000Y-105675000D01*
X160507000Y-108215000D02*
X166507000Y-108215000D01*
X160507000Y-109925000D02*
X160507000Y-99645000D01*
X166507000Y-100595000D02*
X166507000Y-101355000D01*
X166507000Y-101355000D02*
X160507000Y-101355000D01*
X166507000Y-103135000D02*
X166507000Y-103895000D01*
X166507000Y-103895000D02*
X160507000Y-103895000D01*
X166507000Y-105675000D02*
X166507000Y-106435000D01*
X166507000Y-106435000D02*
X160507000Y-106435000D01*
X166507000Y-108215000D02*
X166507000Y-108975000D01*
X166507000Y-108975000D02*
X160507000Y-108975000D01*
X152657000Y-105755000D02*
X152007000Y-105755000D01*
X152657000Y-105755000D02*
X153307000Y-105755000D01*
X152657000Y-108875000D02*
X152007000Y-108875000D01*
X152657000Y-108875000D02*
X153307000Y-108875000D01*
X154059500Y-109155000D02*
X153579500Y-109155000D01*
X153819500Y-108825000D01*
X154059500Y-109155000D01*
G36*
X154059500Y-109155000D02*
G01*
X153579500Y-109155000D01*
X153819500Y-108825000D01*
X154059500Y-109155000D01*
G37*
X130245000Y-102295000D02*
X130245000Y-100965000D01*
X131575000Y-102295000D02*
X130245000Y-102295000D01*
X132845000Y-99635000D02*
X135445000Y-99635000D01*
X132845000Y-102295000D02*
X132845000Y-99635000D01*
X132845000Y-102295000D02*
X135445000Y-102295000D01*
X135445000Y-102295000D02*
X135445000Y-99635000D01*
X136428000Y-101952248D02*
X136428000Y-102474752D01*
X137898000Y-101952248D02*
X137898000Y-102474752D01*
X104403200Y-97283000D02*
X110403200Y-97283000D01*
X104403200Y-98043000D02*
X104403200Y-97283000D01*
X104403200Y-99823000D02*
X110403200Y-99823000D01*
X104403200Y-100583000D02*
X104403200Y-99823000D01*
X104403200Y-102363000D02*
X110403200Y-102363000D01*
X104403200Y-103123000D02*
X104403200Y-102363000D01*
X104403200Y-104903000D02*
X110403200Y-104903000D01*
X104403200Y-105663000D02*
X104403200Y-104903000D01*
X110403200Y-96333000D02*
X110403200Y-106613000D01*
X110403200Y-98043000D02*
X104403200Y-98043000D01*
X110403200Y-100583000D02*
X104403200Y-100583000D01*
X110403200Y-103123000D02*
X104403200Y-103123000D01*
X110403200Y-105003000D02*
X104403200Y-105003000D01*
X110403200Y-105123000D02*
X104403200Y-105123000D01*
X110403200Y-105243000D02*
X104403200Y-105243000D01*
X110403200Y-105363000D02*
X104403200Y-105363000D01*
X110403200Y-105483000D02*
X104403200Y-105483000D01*
X110403200Y-105603000D02*
X104403200Y-105603000D01*
X110403200Y-105663000D02*
X104403200Y-105663000D01*
X110403200Y-106613000D02*
X113063200Y-106613000D01*
X113063200Y-96333000D02*
X110403200Y-96333000D01*
X113063200Y-98933000D02*
X110403200Y-98933000D01*
X113063200Y-101473000D02*
X110403200Y-101473000D01*
X113063200Y-104013000D02*
X110403200Y-104013000D01*
X113063200Y-106613000D02*
X113063200Y-96333000D01*
X113393200Y-104903000D02*
X113063200Y-104903000D01*
X113393200Y-105663000D02*
X113063200Y-105663000D01*
X113460271Y-97283000D02*
X113063200Y-97283000D01*
X113460271Y-98043000D02*
X113063200Y-98043000D01*
X113460271Y-99823000D02*
X113063200Y-99823000D01*
X113460271Y-100583000D02*
X113063200Y-100583000D01*
X113460271Y-102363000D02*
X113063200Y-102363000D01*
X113460271Y-103123000D02*
X113063200Y-103123000D01*
X115773200Y-105283000D02*
X115773200Y-106553000D01*
X115773200Y-106553000D02*
X114503200Y-106553000D01*
X140352248Y-110771000D02*
X140874752Y-110771000D01*
X140352248Y-112241000D02*
X140874752Y-112241000D01*
D10*
X140130000Y-100025000D02*
X140130000Y-99450000D01*
X140130000Y-110100000D02*
X140130000Y-109525000D01*
X145880000Y-99450000D02*
X140130000Y-99450000D01*
X145880000Y-100025000D02*
X145880000Y-99450000D01*
X145880000Y-110100000D02*
X140130000Y-110100000D01*
X145880000Y-110100000D02*
X145880000Y-109525000D01*
D15*
X146620000Y-109855000D02*
X146140000Y-109855000D01*
X146380000Y-109525000D01*
X146620000Y-109855000D01*
G36*
X146620000Y-109855000D02*
G01*
X146140000Y-109855000D01*
X146380000Y-109525000D01*
X146620000Y-109855000D01*
G37*
X136555000Y-93486248D02*
X136555000Y-94008752D01*
X138025000Y-93486248D02*
X138025000Y-94008752D01*
%LPC*%
D16*
X140465000Y-95250000D03*
D17*
X140465000Y-92710000D03*
X143005000Y-95250000D03*
X143005000Y-92710000D03*
X145545000Y-95250000D03*
X145545000Y-92710000D03*
D18*
X153546000Y-103040000D03*
X153546000Y-100965000D03*
D19*
X146582500Y-111506000D03*
X144507500Y-111506000D03*
D16*
X131575000Y-104775000D03*
D17*
X134115000Y-104775000D03*
D20*
X149355000Y-106315000D03*
X149355000Y-108315000D03*
D16*
X131575000Y-108585000D03*
D17*
X134115000Y-108585000D03*
D16*
X127000000Y-97790000D03*
D17*
X127000000Y-100330000D03*
X127000000Y-102870000D03*
X127000000Y-105410000D03*
D16*
X156407000Y-100975000D03*
D17*
X156407000Y-103515000D03*
X156407000Y-106055000D03*
X156407000Y-108595000D03*
D21*
X153594500Y-108265000D03*
X153594500Y-106365000D03*
X151719500Y-107315000D03*
D16*
X131575000Y-100965000D03*
D17*
X134115000Y-100965000D03*
D22*
X137163000Y-101176000D03*
X137163000Y-103251000D03*
D16*
X114503200Y-105283000D03*
D17*
X114503200Y-102743000D03*
X114503200Y-100203000D03*
X114503200Y-97663000D03*
D23*
X139576000Y-111506000D03*
X141651000Y-111506000D03*
D24*
X146605000Y-109000000D03*
X146605000Y-108350000D03*
X146605000Y-107700000D03*
X146605000Y-107050000D03*
X146605000Y-106400000D03*
X146605000Y-105750000D03*
X146605000Y-105100000D03*
X146605000Y-104450000D03*
X146605000Y-103800000D03*
X146605000Y-103150000D03*
X146605000Y-102500000D03*
X146605000Y-101850000D03*
X146605000Y-101200000D03*
X146605000Y-100550000D03*
X139405000Y-100550000D03*
X139405000Y-101200000D03*
X139405000Y-101850000D03*
X139405000Y-102500000D03*
X139405000Y-103150000D03*
X139405000Y-103800000D03*
X139405000Y-104450000D03*
X139405000Y-105100000D03*
X139405000Y-105750000D03*
X139405000Y-106400000D03*
X139405000Y-107050000D03*
X139405000Y-107700000D03*
X139405000Y-108350000D03*
X139405000Y-109000000D03*
D22*
X137290000Y-92710000D03*
X137290000Y-94785000D03*
D25*
X150596600Y-103327200D03*
X137160000Y-97917000D03*
X137160000Y-99847400D03*
X148777826Y-104327826D03*
X142748000Y-97155000D03*
X142748000Y-110363000D03*
X150393400Y-107315000D03*
X143510000Y-110363000D03*
X154940000Y-102616000D03*
D26*
X140970000Y-100965000D03*
X148590000Y-100965000D03*
X148011688Y-103643740D03*
X144780000Y-107334600D03*
X144780000Y-103378000D03*
X144797001Y-105301695D03*
X140843000Y-108580200D03*
X140843000Y-105283000D03*
%LPD*%
M02*
