M48
; DRILL file {KiCad 8.0.6} date 2024-11-07T19:26:31-0500
; FORMAT={-:-/ absolute / metric / decimal}
; #@! TF.CreationDate,2024-11-07T19:26:31-05:00
; #@! TF.GenerationSoftware,Kicad,Pcbnew,8.0.6
; #@! TF.FileFunction,Plated,1,2,PTH
FMAT,2
METRIC
; #@! TA.AperFunction,Plated,PTH,ViaDrill
T1C0.305
; #@! TA.AperFunction,Plated,PTH,ViaDrill
T2C0.356
; #@! TA.AperFunction,Plated,PTH,ComponentDrill
T3C1.000
%
G90
G05
T1
X140.843Y-105.283
X140.843Y-108.58
X140.97Y-100.965
X144.78Y-103.378
X144.78Y-107.335
X144.797Y-105.302
X148.012Y-103.644
X148.59Y-100.965
T2
X137.16Y-97.917
X137.16Y-99.847
X142.748Y-97.155
X142.748Y-110.363
X143.51Y-110.363
X148.778Y-104.328
X150.393Y-107.315
X150.597Y-103.327
X154.94Y-102.616
T3
X114.503Y-97.663
X114.503Y-100.203
X114.503Y-102.743
X114.503Y-105.283
X127.0Y-97.79
X127.0Y-100.33
X127.0Y-102.87
X127.0Y-105.41
X131.575Y-100.965
X131.575Y-104.775
X131.575Y-108.585
X134.115Y-100.965
X134.115Y-104.775
X134.115Y-108.585
X140.465Y-92.71
X140.465Y-95.25
X143.005Y-92.71
X143.005Y-95.25
X145.545Y-92.71
X145.545Y-95.25
X156.407Y-100.975
X156.407Y-103.515
X156.407Y-106.055
X156.407Y-108.595
M30
